<!-- Generated by IcoMoon.io -->
<svg version="1.1" xmlns="http://www.w3.org/2000/svg" width="24" height="24" viewBox="0 0 24 24">
<title>account_star_outline</title>
<path d="M15 6.984q1.641 0 2.813 1.172t1.172 2.836-1.172 2.836-2.813 1.172-2.813-1.172-1.172-2.836 1.172-2.836 2.813-1.172zM15 8.906q-0.891 0-1.5 0.609t-0.609 1.477 0.609 1.477 1.5 0.609 1.5-0.609 0.609-1.477-0.609-1.477-1.5-0.609zM15 15.984q1.5 0 3.281 0.469 2.016 0.516 3.234 1.313 1.5 0.984 1.5 2.25v3h-16.031v-3q0-1.266 1.5-2.25 1.219-0.797 3.234-1.313 1.781-0.469 3.281-0.469zM15 17.906q-1.406 0-2.906 0.375-1.313 0.375-2.25 0.891t-0.938 0.844v1.078h12.188v-1.078q0-0.328-0.938-0.844t-2.25-0.891q-1.5-0.375-2.906-0.375zM5.016 16.266l-2.531 1.5 0.703-2.813-2.203-1.875 2.906-0.234 1.125-2.672 1.078 2.672 2.906 0.234-2.203 1.875 0.656 2.813z"></path>
</svg>
