<!-- Generated by IcoMoon.io -->
<svg version="1.1" xmlns="http://www.w3.org/2000/svg" width="24" height="24" viewBox="0 0 24 24">
<title>account_heart_outline</title>
<path d="M5.016 18l-0.609-0.516-0.469-0.422q-1.594-1.5-2.109-2.156-0.844-1.078-0.844-1.992t0.656-1.57 1.547-0.656q0.563 0 1.031 0.211t0.797 0.586q0.281-0.375 0.773-0.586t1.008-0.211q0.938 0 1.57 0.633t0.633 1.57-0.797 2.016q-0.563 0.656-2.156 2.156l-0.469 0.422zM15 6.984q-1.641 0-2.813 1.172t-1.172 2.836 1.172 2.836 2.813 1.172 2.813-1.172 1.172-2.836-1.172-2.836-2.813-1.172zM15 13.078q-0.891 0-1.5-0.609t-0.609-1.477 0.609-1.477 1.5-0.609 1.5 0.609 0.609 1.477-0.609 1.477-1.5 0.609zM15 15.984q-1.5 0-3.281 0.469-2.016 0.516-3.234 1.313-1.5 0.984-1.5 2.25v3h16.031v-3q0-1.266-1.5-2.25-1.219-0.797-3.234-1.313-1.781-0.469-3.281-0.469zM21.094 21.094h-12.188v-1.078q0-0.328 0.938-0.844t2.25-0.891q1.5-0.375 2.906-0.375t2.906 0.375q1.313 0.375 2.25 0.891t0.938 0.844v1.078z"></path>
</svg>
