<!-- Generated by IcoMoon.io -->
<svg version="1.1" xmlns="http://www.w3.org/2000/svg" width="24" height="24" viewBox="0 0 24 24">
<title>account_plus</title>
<path d="M15 17.016q-1.5 0-3.281 0.422-2.016 0.516-3.234 1.359-1.5 0.984-1.5 2.203v2.016h16.031v-2.016q0-1.219-1.5-2.203-1.219-0.844-3.234-1.359-1.781-0.422-3.281-0.422zM6 12.984v-3h-2.016v3h-3v2.016h3v3h2.016v-3h3v-2.016h-3zM15 15q1.641 0 2.813-1.172t1.172-2.836-1.172-2.836-2.813-1.172-2.813 1.172-1.172 2.836 1.172 2.836 2.813 1.172z"></path>
</svg>
