<!-- Generated by IcoMoon.io -->
<svg version="1.1" xmlns="http://www.w3.org/2000/svg" width="24" height="24" viewBox="0 0 24 24">
<title>account_switch</title>
<path d="M15.984 12q1.313 0 2.859 0.375 1.781 0.469 2.859 1.172 1.313 0.891 1.313 1.969v2.484h-6v-2.484q0-2.016-1.969-3.469zM8.016 12q1.266 0 2.813 0.375 1.781 0.469 2.859 1.172 1.313 0.891 1.313 1.969v2.484h-14.016v-2.484q0-1.078 1.313-1.969 1.078-0.703 2.859-1.172 1.547-0.375 2.859-0.375zM8.016 9.984q-1.266 0-2.133-0.867t-0.867-2.109 0.867-2.133 2.109-0.891 2.133 0.891 0.891 2.133-0.891 2.109-2.109 0.867zM15.984 9.984q-1.219 0-2.109-0.867t-0.891-2.109 0.891-2.133 2.133-0.891 2.109 0.891 0.867 2.133-0.867 2.109-2.133 0.867zM9 19.734v2.25h6v-2.25l3.234 3.281-3.234 3.234v-2.25h-6v2.25l-3.234-3.234z"></path>
</svg>
