<!-- Generated by IcoMoon.io -->
<svg version="1.1" xmlns="http://www.w3.org/2000/svg" width="24" height="24" viewBox="0 0 24 24">
<title>account_network</title>
<path d="M12.984 20.016v1.969h1.031q0.422 0 0.703 0.305t0.281 0.727h6.984v1.969h-6.984q0 0.422-0.281 0.727t-0.703 0.305h-4.031q-0.422 0-0.703-0.305t-0.281-0.727h-6.984v-1.969h6.984q0-0.422 0.281-0.727t0.703-0.305h1.031v-1.969h-6v-1.5q0-0.984 0.938-1.781t2.531-1.266 3.516-0.469 3.516 0.469 2.531 1.266 0.938 1.781v1.5h-6zM12 6q1.453 0 2.484 1.031t1.031 2.484-1.031 2.461-2.484 1.008-2.484-1.008-1.031-2.461 1.031-2.484 2.484-1.031z"></path>
</svg>
