<!-- Generated by IcoMoon.io -->
<svg version="1.1" xmlns="http://www.w3.org/2000/svg" width="24" height="24" viewBox="0 0 24 24">
<title>account_clock</title>
<path d="M10.641 17.109q0.797-1.734 2.32-2.813t3.375-1.266 3.563 0.609 2.789 2.32 1.266 3.375-0.563 3.586q-0.891 1.875-2.602 2.977t-3.773 1.102-3.773-1.078-2.555-2.906h-9.703v-2.016q0.094-1.688 2.344-2.813t5.672-1.172q0.609 0 1.641 0.094v0zM9 6.984q1.688 0.047 2.813 1.172t1.125 2.836-1.125 2.836-2.813 1.125-2.813-1.125-1.125-2.836 1.125-2.836 2.813-1.172zM17.016 24.984q0.984 0 1.898-0.375t1.617-1.078 1.078-1.617 0.375-1.898q0-1.359-0.656-2.508t-1.805-1.828-2.508-0.68-2.508 0.68-1.828 1.828-0.68 2.508q0 0.984 0.375 1.898t1.078 1.617 1.617 1.078 1.945 0.375zM15.984 17.016h1.5v2.813l2.438 1.406-0.75 1.313-3.188-1.875v-3.656z"></path>
</svg>
