<!-- Generated by IcoMoon.io -->
<svg version="1.1" xmlns="http://www.w3.org/2000/svg" width="24" height="24" viewBox="0 0 24 24">
<title>account_edit_outline</title>
<path d="M2.016 20.016v3h7.969v-1.922h-6.094v-1.078q0-0.328 0.938-0.844t2.25-0.891q1.547-0.375 2.953-0.375t2.813 0.375l1.5-1.5q-2.109-0.75-4.359-0.797-1.453 0-3.234 0.469-2.016 0.516-3.281 1.313-1.453 0.984-1.453 2.25zM9.984 6.984q-1.641 0-2.813 1.172t-1.172 2.836 1.172 2.836 2.836 1.172 2.836-1.172 1.172-2.836-1.172-2.836-2.859-1.172zM9.984 12.984q-0.797 0-1.383-0.586t-0.586-1.406 0.586-1.406 1.406-0.586 1.406 0.586 0.586 1.406-0.586 1.406-1.43 0.586zM21.703 16.359l-0.984 0.984-2.063-2.016 0.984-0.984q0.188-0.141 0.398-0.141t0.398 0.141l1.266 1.266q0.141 0.188 0.141 0.422t-0.141 0.375v-0.047zM12 21.938l6.047-6.047 2.063 1.969-6 6.094h-2.109v-2.016z"></path>
</svg>
