<!-- Generated by IcoMoon.io -->
<svg version="1.1" xmlns="http://www.w3.org/2000/svg" width="24" height="24" viewBox="0 0 24 24">
<title>account_group</title>
<path d="M12 8.484q1.453 0 2.484 1.031t1.031 2.484-1.031 2.484-2.484 1.031-2.484-1.031-1.031-2.484 1.031-2.484 2.484-1.031zM5.016 11.016q0.797 0 1.5 0.422-0.094 1.031 0.211 2.063t0.914 1.875q-0.375 0.75-1.078 1.195t-1.547 0.445q-1.266 0-2.133-0.891t-0.867-2.133 0.867-2.109 2.133-0.867zM18.984 11.016q1.266 0 2.133 0.867t0.867 2.109-0.867 2.133-2.133 0.891q-0.844 0-1.547-0.445t-1.078-1.195q0.609-0.844 0.914-1.875t0.211-2.063q0.703-0.422 1.5-0.422zM5.484 21.234q0-0.984 0.891-1.852t2.367-1.383 3.258-0.516 3.258 0.516 2.367 1.383 0.891 1.852v1.781h-13.031v-1.781zM0 23.016v-1.5q0-1.031 1.266-1.852t3.188-1.055q-0.938 1.078-0.938 2.625v1.781h-3.516zM24 23.016h-3.516v-1.781q0-1.547-0.938-2.625 1.922 0.234 3.188 1.055t1.266 1.852v1.5z"></path>
</svg>
