<!-- Generated by IcoMoon.io -->
<svg version="1.1" xmlns="http://www.w3.org/2000/svg" width="24" height="24" viewBox="0 0 24 24">
<title>account_arrow_right_outline</title>
<path d="M18.984 24v-2.016h-3.984v-1.969h3.984v-2.016l3 3zM12.984 21q0 1.031 0.422 2.016h-11.391v-3q0-1.125 1.078-2.039t2.906-1.453 3.984-0.539q1.5 0 2.813 0.258t2.297 0.68q-0.984 0.703-1.547 1.781t-0.563 2.297zM3.984 20.016v0.984h7.031q0-1.547 0.609-2.906l-1.641-0.094q-2.484 0-4.242 0.586t-1.758 1.43zM9.984 6.984q1.688 0 2.859 1.172t1.172 2.836-1.172 2.836-2.836 1.172-2.836-1.172-1.172-2.836 1.172-2.836 2.813-1.172zM9.984 9q-0.797 0-1.383 0.586t-0.586 1.406 0.586 1.406 1.406 0.586 1.406-0.586 0.586-1.406-0.586-1.406-1.43-0.586z"></path>
</svg>
