<!-- Generated by IcoMoon.io -->
<svg version="1.1" xmlns="http://www.w3.org/2000/svg" width="24" height="24" viewBox="0 0 24 24">
<title>account_supervisor</title>
<path d="M16.5 15q1.031 0 1.758-0.727t0.727-1.758-0.727-1.781-1.758-0.75-1.758 0.75-0.727 1.781 0.727 1.758 1.758 0.727zM9 14.016q1.266 0 2.133-0.891t0.867-2.133-0.867-2.109-2.133-0.867-2.133 0.867-0.867 2.109 0.867 2.133 2.133 0.891zM16.5 17.016q-1.031 0-2.25 0.281-1.359 0.375-2.25 0.938-0.984 0.656-0.984 1.5v2.25h10.969v-2.25q0-0.844-0.984-1.5-0.891-0.563-2.25-0.938-1.219-0.281-2.25-0.281zM9 15.984q-1.313 0-2.859 0.422-1.734 0.422-2.859 1.172-1.266 0.844-1.266 1.922v2.484h6.984v-2.25q0-0.844 0.422-1.594 0.609-1.125 1.969-1.875-1.359-0.281-2.391-0.281z"></path>
</svg>
