<!-- Generated by IcoMoon.io -->
<svg version="1.1" xmlns="http://www.w3.org/2000/svg" width="24" height="24" viewBox="0 0 24 24">
<title>account_box_multiple_outline</title>
<path d="M3.984 9h-1.969v14.016q0 0.797 0.586 1.383t1.383 0.586h14.016v-1.969h-14.016v-14.016zM18.516 17.25q0-1.031-1.688-1.688-1.406-0.563-2.813-0.563t-2.813 0.563q-1.688 0.656-1.688 1.688v0.75h9v-0.75zM14.016 13.266q0.938 0 1.594-0.656t0.656-1.594-0.656-1.594-1.594-0.656-1.594 0.656-0.656 1.594 0.656 1.594 1.594 0.656zM20.016 5.016h-12q-0.844 0-1.43 0.586t-0.586 1.383v12q0 0.844 0.586 1.43t1.43 0.586h12q0.797 0 1.383-0.586t0.586-1.43v-12q0-0.797-0.586-1.383t-1.383-0.586zM20.016 18.984h-12v-12h12v12z"></path>
</svg>
