<!-- Generated by IcoMoon.io -->
<svg version="1.1" xmlns="http://www.w3.org/2000/svg" width="24" height="24" viewBox="0 0 24 24">
<title>account_lock</title>
<path d="M21.984 20.016v-0.516q0-1.031-0.727-1.758t-1.758-0.727-1.758 0.727-0.727 1.758v0.516q-0.422 0-0.727 0.281t-0.305 0.703v3.984q0 0.422 0.305 0.727t0.727 0.305h4.969q0.422 0 0.727-0.305t0.305-0.727v-3.984q0-0.422-0.305-0.703t-0.727-0.281zM21 20.016h-3v-0.516q0-0.609 0.445-1.055t1.055-0.445 1.055 0.445 0.445 1.055v0.516zM8.016 11.016q0-1.688 1.172-2.859t2.813-1.172 2.813 1.172 1.172 2.836-1.172 2.836-2.813 1.172-2.813-1.172-1.172-2.813zM14.016 23.016h-10.031v-2.016q0-1.078 1.078-1.992t2.93-1.453 4.008-0.539q1.828 0 3.516 0.375-0.328 0.703-0.469 1.313-1.031 0.891-1.031 2.297v2.016z"></path>
</svg>
