<!-- Generated by IcoMoon.io -->
<svg version="1.1" xmlns="http://www.w3.org/2000/svg" width="24" height="24" viewBox="0 0 24 24">
<title>account_supervisor_outline</title>
<path d="M16.5 18.516q1.219 0 2.508 0.445t1.477 0.82v0.703h-7.969v-0.703q0.188-0.375 1.477-0.82t2.508-0.445zM16.5 17.016q-1.031 0-2.25 0.281-1.359 0.375-2.25 0.938-0.984 0.656-0.984 1.5v2.25h10.969v-2.25q0-0.844-0.984-1.5-0.891-0.563-2.25-0.938-1.219-0.281-2.25-0.281zM9 15.984q-1.313 0-2.859 0.422-1.734 0.422-2.859 1.172-1.266 0.844-1.266 1.922v2.484h6.984v-1.5h-5.484v-0.984q0-0.328 0.891-0.844t2.203-0.844q1.594-0.375 3.188-0.328 0.656-0.75 1.594-1.219-1.172-0.234-2.391-0.281zM9 9.516q0.609 0 1.055 0.422t0.445 1.055-0.445 1.078-1.055 0.445-1.055-0.445-0.445-1.078 0.445-1.055 1.055-0.422zM9 8.016q-1.266 0-2.133 0.867t-0.867 2.109 0.867 2.133 2.133 0.891 2.133-0.891 0.867-2.133-0.867-2.109-2.133-0.867zM16.5 11.484q0.281 0 0.539 0.188t0.375 0.445 0.070 0.563-0.258 0.516-0.516 0.281-0.586-0.047-0.445-0.375-0.164-0.539q0-0.422 0.281-0.727t0.703-0.305zM16.5 9.984q-0.75 0-1.383 0.422t-0.914 1.125-0.141 1.453 0.68 1.289 1.266 0.68 1.43-0.141 1.125-0.914 0.422-1.383q0-1.031-0.727-1.781t-1.758-0.75z"></path>
</svg>
