<!-- Generated by IcoMoon.io -->
<svg version="1.1" xmlns="http://www.w3.org/2000/svg" width="24" height="24" viewBox="0 0 24 24">
<title>account_question_outline</title>
<path d="M20.484 17.484v1.5h-1.5v-1.5h1.5zM18.516 12.516h-1.5v-0.516q0-1.266 0.867-2.133t2.109-0.867 2.133 0.867 0.891 2.133q0 0.703-0.352 1.359t-0.961 1.031l-0.281 0.188q-0.938 0.656-0.938 1.734v0.188h-1.5v-0.188q0-0.891 0.422-1.688t1.172-1.266l0.281-0.188q0.656-0.422 0.656-1.172 0-0.609-0.445-1.055t-1.078-0.445-1.055 0.445-0.422 1.055v0.516zM9 15.984q1.5 0 3.281 0.469 2.016 0.516 3.234 1.313 1.5 0.984 1.5 2.25v3h-16.031v-3q0-1.266 1.5-2.25 1.219-0.797 3.234-1.313 1.781-0.469 3.281-0.469zM9 6.984q1.641 0 2.813 1.172t1.172 2.836-1.172 2.836-2.813 1.172-2.813-1.172-1.172-2.836 1.172-2.836 2.813-1.172zM9 17.906q-1.406 0-2.906 0.375-1.313 0.375-2.25 0.891t-0.938 0.844v1.078h12.188v-1.078q0-0.328-0.938-0.844t-2.25-0.891q-1.5-0.375-2.906-0.375zM9 8.906q-0.891 0-1.5 0.609t-0.609 1.477 0.609 1.477 1.5 0.609 1.5-0.609 0.609-1.477-0.609-1.477-1.5-0.609z"></path>
</svg>
