<!-- Generated by IcoMoon.io -->
<svg version="1.1" xmlns="http://www.w3.org/2000/svg" width="24" height="24" viewBox="0 0 24 24">
<title>account_edit</title>
<path d="M21.703 16.359l-0.984 0.984-2.063-2.063 0.984-0.984q0.188-0.141 0.398-0.141t0.398 0.141l1.266 1.266q0.141 0.188 0.141 0.398t-0.141 0.398zM12 21.938l6.047-6.047 2.063 2.063-6.047 6.047h-2.063v-2.063zM12 17.016q-2.156 0-4.008 0.539t-2.93 1.453-1.078 1.992v2.016h6v-1.922l4.031-3.984q-0.938-0.094-2.016-0.094zM12 6.984q-1.641 0-2.813 1.172t-1.172 2.836 1.172 2.836 2.813 1.172 2.813-1.172 1.172-2.836-1.172-2.836-2.813-1.172z"></path>
</svg>
