<!-- Generated by IcoMoon.io -->
<svg version="1.1" xmlns="http://www.w3.org/2000/svg" width="24" height="24" viewBox="0 0 24 24">
<title>account_cash</title>
<path d="M11.016 11.016q0 1.641-1.172 2.813t-2.836 1.172-2.836-1.172-1.172-2.836 1.172-2.836 2.836-1.172 2.836 1.172 1.172 2.859zM11.016 17.719v5.297h-11.016v-2.016q0-1.078 0.938-1.992t2.555-1.453 3.492-0.539q2.203 0 4.031 0.703zM24 23.016h-11.016v-17.016h11.016v17.016zM15.984 14.484q0-1.031 0.75-1.758t1.781-0.727 1.758 0.727 0.727 1.758-0.727 1.781-1.758 0.75-1.781-0.75-0.75-1.781zM21.984 9.984q-0.797 0-1.383-0.586t-0.586-1.383h-3q0 0.797-0.586 1.383t-1.43 0.586v9q0.844 0 1.43 0.586t0.586 1.43h3q0-0.844 0.586-1.43t1.383-0.586v-9z"></path>
</svg>
