<!-- Generated by IcoMoon.io -->
<svg version="1.1" xmlns="http://www.w3.org/2000/svg" width="24" height="24" viewBox="0 0 24 24">
<title>account_card_details_outline</title>
<path d="M21.984 6h-19.969q-0.844 0.047-1.406 0.609t-0.609 1.406v13.969q0.047 0.844 0.609 1.406t1.406 0.609h19.969q0.844-0.047 1.406-0.609t0.609-1.406v-13.969q-0.047-0.844-0.609-1.406t-1.406-0.609zM21.984 21.984h-19.969v-13.969h19.969v13.969zM14.016 20.016v-1.266q0-0.75-0.938-1.406-0.797-0.516-2.063-0.797-1.078-0.281-2.016-0.281t-2.016 0.281q-1.266 0.281-2.063 0.797-0.938 0.656-0.938 1.406v1.266h10.031zM9 9.984q-1.031 0-1.758 0.75t-0.727 1.781 0.727 1.758 1.758 0.727 1.758-0.727 0.727-1.758-0.727-1.781-1.758-0.75zM14.016 9.984v1.031h6v-1.031h-6zM14.016 12v0.984h6v-0.984h-6zM14.016 14.016v0.984h3.984v-0.984h-3.984z"></path>
</svg>
