<!-- Generated by IcoMoon.io -->
<svg version="1.1" xmlns="http://www.w3.org/2000/svg" width="24" height="24" viewBox="0 0 24 24">
<title>account_cash_outline</title>
<path d="M15.984 14.484q0-1.031 0.75-1.758t1.781-0.727 1.758 0.727 0.727 1.758-0.727 1.781-1.758 0.75-1.781-0.75-0.75-1.781zM12.984 6v17.016h11.016v-17.016h-11.016zM21.984 18.984q-0.797 0-1.383 0.586t-0.586 1.43h-3q0-0.844-0.586-1.43t-1.43-0.586v-9q0.844 0 1.43-0.586t0.586-1.383h3q0 0.797 0.586 1.383t1.383 0.586v9zM6.984 9q0.844 0 1.43 0.586t0.586 1.406-0.586 1.406-1.406 0.586-1.406-0.586-0.586-1.406 0.586-1.406 1.383-0.586zM6.984 6.984q-1.641 0-2.813 1.172t-1.172 2.836 1.172 2.836 2.836 1.172 2.836-1.172 1.172-2.836-1.172-2.836-2.859-1.172zM6.984 17.016q-1.875 0-3.492 0.539t-2.555 1.453-0.938 1.992v2.016h11.016v-2.016h-9q0-0.328 0.563-0.797 0.656-0.469 1.688-0.797 1.219-0.422 2.719-0.422 2.438 0 4.031 0.984v-2.25q-1.828-0.703-4.031-0.703z"></path>
</svg>
