<!-- Generated by IcoMoon.io -->
<svg version="1.1" xmlns="http://www.w3.org/2000/svg" width="24" height="24" viewBox="0 0 24 24">
<title>account_key_outline</title>
<path d="M5.813 12.984q-0.281-0.891-1.055-1.43t-1.758-0.539q-1.266 0-2.133 0.867t-0.867 2.109 0.867 2.133 2.133 0.891q0.984 0 1.758-0.563t1.055-1.453h2.203v2.016h1.969v-2.016h1.031v-2.016h-5.203zM3 15q-0.422 0-0.703-0.281t-0.281-0.703 0.281-0.727 0.703-0.305 0.703 0.305 0.281 0.727-0.281 0.703-0.703 0.281zM15.984 6.984q-1.641 0-2.813 1.172t-1.172 2.836 1.172 2.836 2.836 1.172 2.836-1.172 1.172-2.836-1.172-2.836-2.859-1.172zM15.984 13.078q-0.844 0-1.453-0.609t-0.609-1.477 0.609-1.477 1.477-0.609 1.477 0.609 0.609 1.477-0.609 1.477-1.5 0.609zM15.984 15.984q-1.453 0-3.234 0.469-2.016 0.516-3.281 1.313-1.453 0.984-1.453 2.25v3h15.984v-3q0-1.266-1.5-2.25-1.219-0.797-3.234-1.313-1.781-0.469-3.281-0.469zM22.078 21.094h-12.188v-1.078q0-0.328 0.938-0.844t2.25-0.891q1.5-0.375 2.906-0.375t2.906 0.375q1.313 0.375 2.25 0.891t0.938 0.844v1.078z"></path>
</svg>
