<!-- Generated by IcoMoon.io -->
<svg version="1.1" xmlns="http://www.w3.org/2000/svg" width="24" height="24" viewBox="0 0 24 24">
<title>account_box_outline</title>
<path d="M18.984 21.984h-13.969v-13.969h13.969v13.969zM18.984 6h-13.969q-0.844 0-1.43 0.586t-0.586 1.43v13.969q0 0.844 0.586 1.43t1.43 0.586h13.969q0.844 0 1.43-0.586t0.586-1.43v-13.969q0-0.844-0.586-1.43t-1.43-0.586zM16.5 19.266q0-1.031-1.688-1.688-1.406-0.563-2.813-0.563t-2.813 0.563q-1.688 0.656-1.688 1.688v0.75h9v-0.75zM12 15.234q0.938 0 1.594-0.656t0.656-1.594-0.656-1.594-1.594-0.656-1.594 0.656-0.656 1.594 0.656 1.594 1.594 0.656z"></path>
</svg>
