<!-- Generated by IcoMoon.io -->
<svg version="1.1" xmlns="http://www.w3.org/2000/svg" width="24" height="24" viewBox="0 0 24 24">
<title>account_multiple_check</title>
<path d="M22.594 10.922l1.172 1.406-4.781 4.734-2.719-3 1.125-1.125 1.594 1.547zM6 8.016q1.266 0 2.133 0.867t0.867 2.109-0.867 2.133-2.133 0.891-2.133-0.891-0.867-2.133 0.867-2.109 2.133-0.867zM11.016 8.016q1.219 0 2.109 0.867t0.891 2.109-0.891 2.133-2.109 0.891q-0.516 0-0.938-0.188 0.938-1.266 0.938-2.813t-0.938-2.859q0.469-0.141 0.938-0.141zM6 15.984q1.125 0 2.438 0.328 1.5 0.422 2.438 1.031 1.125 0.75 1.125 1.641v2.016h-12v-2.016q0-0.891 1.125-1.641 0.938-0.609 2.438-1.031 1.313-0.328 2.438-0.328zM12.609 16.172q1.734 0.281 2.953 0.938 1.453 0.844 1.453 1.875v2.016h-3v-2.016q0-1.641-1.406-2.813z"></path>
</svg>
