<!-- Generated by IcoMoon.io -->
<svg version="1.1" xmlns="http://www.w3.org/2000/svg" width="24" height="24" viewBox="0 0 24 24">
<title>account_key</title>
<path d="M11.016 12.984v2.016h-1.031v2.016h-1.969v-2.016h-2.203q-0.281 0.891-1.055 1.453t-1.758 0.563q-1.266 0-2.133-0.891t-0.867-2.133 0.867-2.109 2.133-0.867q0.984 0 1.758 0.539t1.055 1.43h5.203zM3 12.984q-0.422 0-0.703 0.305t-0.281 0.727 0.281 0.703 0.703 0.281 0.703-0.281 0.281-0.703-0.281-0.727-0.703-0.305zM15.984 17.016q1.5 0 3.281 0.422 2.016 0.516 3.234 1.359 1.5 0.984 1.5 2.203v2.016h-15.984v-2.016q0-1.219 1.453-2.203 1.266-0.844 3.281-1.359 1.781-0.422 3.234-0.422zM15.984 15q-1.641 0-2.813-1.172t-1.172-2.836 1.172-2.836 2.836-1.172 2.836 1.172 1.172 2.836-1.172 2.836-2.859 1.172z"></path>
</svg>
