<!-- Generated by IcoMoon.io -->
<svg version="1.1" xmlns="http://www.w3.org/2000/svg" width="24" height="24" viewBox="0 0 24 24">
<title>account_card_details</title>
<path d="M2.016 6h19.969q0.797 0 1.406 0.609t0.609 1.406v13.969q0 0.797-0.609 1.406t-1.406 0.609h-19.969q-0.797 0-1.406-0.609t-0.609-1.406v-13.969q0-0.797 0.609-1.406t1.406-0.609zM14.016 9v0.984h7.969v-0.984h-7.969zM14.016 11.016v0.984h7.969v-0.984h-7.969zM14.016 12.984v1.031h6.984v-1.031h-6.984zM8.016 16.922q-1.125 0-2.438 0.328-1.547 0.422-2.484 1.078-1.078 0.75-1.078 1.688v0.984h12v-0.984q0-0.938-1.125-1.688-0.938-0.656-2.438-1.078-1.359-0.328-2.438-0.328zM8.016 9q-1.266 0-2.133 0.867t-0.867 2.133 0.867 2.133 2.109 0.867 2.133-0.867 0.891-2.133-0.891-2.133-2.109-0.867z"></path>
</svg>
