<!-- Generated by IcoMoon.io -->
<svg version="1.1" xmlns="http://www.w3.org/2000/svg" width="24" height="24" viewBox="0 0 24 24">
<title>account_multiple_minus_outline</title>
<path d="M12.984 16.734q-1.266 0-2.578 0.422-1.5 0.422-2.391 1.172-1.031 0.844-1.031 1.922v1.734h12v-1.734q0-1.078-1.031-1.922-0.891-0.75-2.344-1.172-1.359-0.422-2.625-0.422zM9.328 20.016q0.844-0.609 1.5-0.844 0.984-0.422 2.18-0.422t2.18 0.422q0.609 0.234 1.453 0.844h-7.313zM12.984 8.016q-1.453 0-2.461 1.008t-1.008 2.461 1.008 2.484 2.461 1.031 2.484-1.031 1.031-2.484-1.031-2.461-2.484-1.008zM12.984 12.984q-0.609 0-1.055-0.422t-0.445-1.055 0.445-1.078 1.078-0.445 1.055 0.445 0.422 1.078-0.422 1.055-1.078 0.422zM18.984 16.828q1.969 1.406 1.969 3.422v1.734h3.047v-1.734q0-1.406-1.594-2.391-1.359-0.844-3.422-1.031zM21 11.484q0 1.453-1.031 2.484t-2.484 1.031q-0.141 0-0.234-0.047 1.266-1.5 1.266-3.469t-1.266-3.469h0.234q1.453 0 2.484 1.008t1.031 2.461zM0 14.016h8.016v1.969h-8.016v-1.969z"></path>
</svg>
