<!-- Generated by IcoMoon.io -->
<svg version="1.1" xmlns="http://www.w3.org/2000/svg" width="24" height="24" viewBox="0 0 24 24">
<title>account_convert</title>
<path d="M7.5 24.516l1.359-1.359 3.797 3.797-0.656 0.047q-3.094 0-5.742-1.453t-4.313-3.984-1.898-5.578h1.5q0.281 2.813 1.875 5.063t4.078 3.469zM16.5 5.484l-1.359 1.359-3.797-3.797 0.656-0.047q3.094 0 5.742 1.453t4.313 3.984 1.898 5.578h-1.5q-0.281-2.813-1.875-5.063t-4.078-3.469zM6 20.016q0-0.938 1.125-1.688 0.938-0.656 2.438-1.078 1.359-0.328 2.438-0.328t2.438 0.328q1.5 0.422 2.438 1.078 1.125 0.75 1.125 1.688v0.984h-12v-0.984zM15 12q0 1.266-0.867 2.133t-2.133 0.867-2.133-0.867-0.867-2.133 0.867-2.133 2.133-0.867 2.133 0.867 0.867 2.133z"></path>
</svg>
