<!-- Generated by IcoMoon.io -->
<svg version="1.1" xmlns="http://www.w3.org/2000/svg" width="24" height="24" viewBox="0 0 24 24">
<title>account_clock_outline</title>
<path d="M15.984 17.016h1.5v2.813l2.438 1.406-0.75 1.313-3.188-1.875v-3.656zM17.016 15q-1.359 0-2.508 0.68t-1.828 1.828-0.68 2.508q0 0.984 0.375 1.898t1.078 1.617 1.617 1.078 1.922 0.375 1.922-0.375 1.617-1.078 1.078-1.617 0.375-1.898q0-1.359-0.656-2.508t-1.805-1.828-2.508-0.68zM17.016 12.984q1.875 0 3.492 0.961t2.555 2.555 0.938 3.492-0.938 3.516-2.555 2.555-3.492 0.938q-2.063 0-3.773-1.102t-2.555-2.883h-9.703v-3q0-1.266 1.5-2.25 1.219-0.797 3.234-1.313 1.781-0.469 3.281-0.469 0.938 0 2.109 0.234 0.938-1.5 2.508-2.367t3.398-0.867zM9.984 20.016q0-1.078 0.328-2.016-0.609-0.094-1.313-0.094-1.406 0-2.906 0.375-1.313 0.375-2.25 0.891t-0.938 0.844v1.078h7.172q-0.094-0.516-0.094-1.078zM9 6.984q1.641 0 2.813 1.172t1.172 2.836-1.172 2.836-2.813 1.172-2.813-1.172-1.172-2.836 1.172-2.836 2.813-1.172zM9 8.906q-0.891 0-1.5 0.609t-0.609 1.477 0.609 1.477 1.5 0.609 1.5-0.609 0.609-1.477-0.609-1.477-1.5-0.609z"></path>
</svg>
