<!-- Generated by IcoMoon.io -->
<svg version="1.1" xmlns="http://www.w3.org/2000/svg" width="24" height="24" viewBox="0 0 24 24">
<title>account_off_outline</title>
<path d="M2.766 9.984l1.266-1.219 9.234 9.234 6.75 6.703-1.266 1.313-3-3h-11.766v-3q0-1.313 1.641-2.344 1.359-0.844 3.469-1.313zM20.016 20.016v2.156l-1.922-1.875v-0.281q0-0.234-0.352-0.492t-0.961-0.539l-2.766-2.813q2.344 0.422 3.984 1.313 2.016 1.078 2.016 2.531zM5.906 20.016v1.078h7.922l-3.094-3.094q-1.219 0.141-2.391 0.516-1.078 0.375-1.758 0.797t-0.68 0.703zM12 6.984q1.641 0 2.813 1.172t1.172 2.859q0 1.453-0.914 2.555t-2.32 1.383l-4.688-4.688q0.281-1.406 1.383-2.344t2.555-0.938zM12 9q-0.844 0-1.43 0.586t-0.586 1.406 0.586 1.406 1.43 0.586 1.43-0.586 0.586-1.406-0.586-1.406-1.43-0.586z"></path>
</svg>
