<!-- Generated by IcoMoon.io -->
<svg version="1.1" xmlns="http://www.w3.org/2000/svg" width="24" height="24" viewBox="0 0 24 24">
<title>account_multiple</title>
<path d="M15.984 15.984q-0.609 0-0.938 0.047 1.969 1.453 1.969 3.469v2.484h6v-2.484q0-1.078-1.313-1.922-1.078-0.75-2.859-1.172-1.547-0.422-2.859-0.422zM8.016 15.984q-1.313 0-2.859 0.422-1.781 0.422-2.859 1.172-1.313 0.844-1.313 1.922v2.484h14.016v-2.484q0-1.078-1.313-1.922-1.078-0.75-2.859-1.172-1.547-0.422-2.813-0.422zM8.016 14.016q1.219 0 2.109-0.891t0.891-2.133-0.891-2.109-2.133-0.867-2.109 0.867-0.867 2.109 0.867 2.133 2.133 0.891zM15.984 14.016q1.266 0 2.133-0.891t0.867-2.133-0.867-2.109-2.109-0.867-2.133 0.867-0.891 2.109 0.891 2.133 2.109 0.891z"></path>
</svg>
