<!-- Generated by IcoMoon.io -->
<svg version="1.1" xmlns="http://www.w3.org/2000/svg" width="24" height="24" viewBox="0 0 24 24">
<title>account_multiple_plus_outline</title>
<path d="M12.984 15q1.453 0 2.484-1.031t1.031-2.484-1.031-2.461-2.484-1.008-2.461 1.008-1.008 2.461 1.008 2.484 2.461 1.031zM12.984 9.984q0.656 0 1.078 0.445t0.422 1.078-0.422 1.055-1.055 0.422-1.078-0.422-0.445-1.055 0.445-1.078 1.055-0.445zM17.25 14.953q1.266-1.5 1.266-3.469t-1.266-3.469h0.234q1.453 0 2.484 1.008t1.031 2.461-1.031 2.484-2.484 1.031q-0.141 0-0.234-0.047zM5.016 15.984v3h-2.016v-3h-3v-1.969h3v-3h2.016v3h3v1.969h-3zM24 20.25v1.734h-3.047v-1.734q0-2.016-1.969-3.422 2.063 0.188 3.422 1.031 1.594 0.984 1.594 2.391zM12.984 16.734q-1.266 0-2.578 0.422-1.5 0.422-2.391 1.172-1.031 0.844-1.031 1.922v1.734h12v-1.734q0-1.078-1.031-1.922-0.891-0.75-2.344-1.172-1.359-0.422-2.625-0.422zM9.328 20.016q0.844-0.609 1.5-0.844 0.984-0.422 2.18-0.422t2.18 0.422q0.609 0.234 1.453 0.844h-7.313z"></path>
</svg>
