<!-- Generated by IcoMoon.io -->
<svg version="1.1" xmlns="http://www.w3.org/2000/svg" width="24" height="24" viewBox="0 0 24 24">
<title>account_lock_outline</title>
<path d="M21.984 20.016v-0.516q0-1.031-0.727-1.758t-1.758-0.727-1.758 0.727-0.727 1.758v0.516q-0.422 0-0.727 0.281t-0.305 0.703v3.984q0 0.422 0.305 0.727t0.727 0.305h4.969q0.422 0 0.727-0.305t0.305-0.727v-3.984q0-0.422-0.305-0.703t-0.727-0.281zM21 20.016h-3v-0.516q0-0.609 0.445-1.055t1.055-0.445 1.055 0.445 0.445 1.055v0.516zM14.016 23.016h-10.031v-3q0-1.266 1.5-2.25 1.219-0.797 3.234-1.313 1.781-0.469 3.281-0.469 1.922 0 3.984 0.656-0.563 0.75-0.844 1.734-1.641-0.469-3.141-0.469-1.406 0-2.906 0.375-1.313 0.375-2.25 0.891t-0.938 0.844v1.078h8.109v1.922zM12 15q1.641 0 2.813-1.172t1.172-2.836-1.172-2.836-2.813-1.172-2.813 1.172-1.172 2.836 1.172 2.836 2.813 1.172zM12 9q0.844 0 1.43 0.586t0.586 1.406-0.586 1.406-1.43 0.586-1.43-0.586-0.586-1.406 0.586-1.406 1.43-0.586z"></path>
</svg>
