<!-- Generated by IcoMoon.io -->
<svg version="1.1" xmlns="http://www.w3.org/2000/svg" width="24" height="24" viewBox="0 0 24 24">
<title>account_circle_outline</title>
<path d="M12 5.016q-1.969 0-3.82 0.75t-3.258 2.156-2.156 3.258-0.75 3.82 0.75 3.82 2.156 3.258 3.258 2.156 3.82 0.75 3.82-0.75 3.258-2.156 2.156-3.258 0.75-3.82-0.75-3.82-2.156-3.258-3.258-2.156-3.82-0.75zM7.078 21.281q0.328-0.656 1.898-1.219t3.023-0.563 3.023 0.563 1.898 1.219q-2.156 1.734-4.922 1.734t-4.922-1.734zM18.375 19.828q-0.984-1.172-3.188-1.828-1.734-0.516-3.188-0.516t-3.188 0.516q-2.203 0.656-3.188 1.828-1.641-2.156-1.641-4.828 0-2.156 1.078-4.008t2.93-2.93 4.008-1.078 4.008 1.078 2.93 2.93 1.078 4.008q0 2.672-1.641 4.828zM12 9q-1.453 0-2.484 1.031t-1.031 2.484 1.031 2.461 2.484 1.008 2.484-1.008 1.031-2.461-1.031-2.484-2.484-1.031zM12 14.016q-0.609 0-1.055-0.445t-0.445-1.078 0.445-1.055 1.055-0.422 1.055 0.422 0.445 1.055-0.445 1.078-1.055 0.445z"></path>
</svg>
