<!-- Generated by IcoMoon.io -->
<svg version="1.1" xmlns="http://www.w3.org/2000/svg" width="24" height="24" viewBox="0 0 24 24">
<title>account_multiple_plus</title>
<path d="M12.984 15.984q-1.078 0-2.438 0.328-1.5 0.422-2.438 1.031-1.125 0.75-1.125 1.641v2.016h12v-2.016q0-0.891-1.078-1.641-0.938-0.609-2.484-1.031-1.313-0.328-2.438-0.328zM19.641 16.172q1.359 1.172 1.359 2.813v2.016h3v-2.016q0-1.031-1.453-1.875-1.172-0.656-2.906-0.938zM12.984 14.016q1.266 0 2.133-0.891t0.867-2.133-0.867-2.109-2.109-0.867-2.133 0.867-0.891 2.109 0.891 2.133 2.109 0.891zM18 14.016q1.266 0 2.133-0.891t0.867-2.133-0.867-2.109-2.133-0.867q-0.469 0-0.938 0.141 0.938 1.313 0.938 2.859t-0.938 2.813q0.469 0.188 0.938 0.188zM8.016 12.984h-3v-3h-2.016v3h-3v2.016h3v3h2.016v-3h3v-2.016z"></path>
</svg>
