<!-- Generated by IcoMoon.io -->
<svg version="1.1" xmlns="http://www.w3.org/2000/svg" width="24" height="24" viewBox="0 0 24 24">
<title>account_check_outline</title>
<path d="M21.094 15.516l1.406 1.406-6.516 6.563-3.469-3.469 1.406-1.406 2.063 2.063zM11.016 6.984q1.641 0 2.813 1.172t1.172 2.836-1.172 2.836-2.836 1.172-2.836-1.172-1.172-2.836 1.172-2.836 2.859-1.172zM11.016 9q-0.844 0-1.43 0.586t-0.586 1.406 0.586 1.406 1.406 0.586 1.406-0.586 0.586-1.406-0.586-1.406-1.383-0.586zM11.016 15.984q0.984 0 2.391 0.281l-1.688 1.688-0.703-0.047q-1.406 0-2.906 0.375-1.313 0.375-2.25 0.891t-0.938 0.844v1.078h6.188l1.875 1.922h-9.984v-3q0-1.266 1.5-2.25 1.219-0.797 3.234-1.313 1.781-0.469 3.281-0.469z"></path>
</svg>
