<!-- Generated by IcoMoon.io -->
<svg version="1.1" xmlns="http://www.w3.org/2000/svg" width="24" height="24" viewBox="0 0 24 24">
<title>account_search_outline</title>
<path d="M9.984 15.984q-0.563 0.984-0.797 1.969-1.266 0.094-2.578 0.469-1.125 0.375-1.922 0.82t-0.797 0.773v1.078h5.297q0.234 0.984 0.797 1.922h-7.969v-3q0-1.266 1.453-2.25 1.266-0.797 3.281-1.313 1.781-0.469 3.234-0.469zM9.984 6.984q1.688 0 2.859 1.172t1.172 2.859q0 1.313-0.844 2.438-1.266 0.469-2.25 1.453l-0.938 0.094q-1.641 0-2.813-1.172t-1.172-2.836 1.172-2.836 2.813-1.172zM9.984 8.906q-0.844 0-1.453 0.609t-0.609 1.477 0.609 1.477 1.477 0.609 1.477-0.609 0.609-1.477-0.609-1.477-1.5-0.609zM15.516 15q1.875 0 3.188 1.313t1.313 3.188q0 1.313-0.703 2.391l3.094 3.094-1.406 1.406-3.141-3.094q-1.078 0.703-2.344 0.703-1.875 0-3.188-1.313t-1.313-3.188 1.313-3.188 3.188-1.313zM15.516 17.016q-1.031 0-1.781 0.727t-0.75 1.758 0.75 1.758 1.781 0.727 1.758-0.727 0.727-1.758-0.727-1.758-1.758-0.727z"></path>
</svg>
