<!-- Generated by IcoMoon.io -->
<svg version="1.1" xmlns="http://www.w3.org/2000/svg" width="24" height="24" viewBox="0 0 24 24">
<title>account_question</title>
<path d="M12.984 11.016q0 1.641-1.172 2.813t-2.813 1.172-2.813-1.172-1.172-2.836 1.172-2.836 2.813-1.172 2.813 1.172 1.172 2.859zM17.016 21v2.016h-16.031v-2.016q0-1.078 1.078-1.992t2.93-1.453 4.008-0.539 4.008 0.539 2.93 1.453 1.078 1.992zM20.484 17.484v1.5h-1.5v-1.5h1.5zM18.516 12.516h-1.5v-0.516q0-1.266 0.867-2.133t2.109-0.867 2.133 0.867 0.891 2.133q0 0.703-0.352 1.359t-0.961 1.031l-0.281 0.188q-0.938 0.656-0.938 1.734v0.188h-1.5v-0.188q0-0.891 0.422-1.688t1.172-1.266l0.281-0.188q0.656-0.422 0.656-1.172 0-0.609-0.445-1.055t-1.078-0.445-1.055 0.445-0.422 1.055v0.516z"></path>
</svg>
