<!-- Generated by IcoMoon.io -->
<svg version="1.1" xmlns="http://www.w3.org/2000/svg" width="24" height="24" viewBox="0 0 24 24">
<title>account_box_multiple</title>
<path d="M3.984 9h-1.969v14.016q0 0.797 0.586 1.383t1.383 0.586h14.016v-1.969h-14.016v-14.016zM20.016 5.016q0.797 0 1.383 0.586t0.586 1.383v12q0 0.844-0.586 1.43t-1.383 0.586h-12q-0.844 0-1.43-0.586t-0.586-1.43v-12q0-0.797 0.586-1.383t1.43-0.586h12zM17.016 9.984q0-1.219-0.891-2.109t-2.133-0.891-2.109 0.891-0.867 2.133 0.867 2.109 2.109 0.867 2.133-0.867 0.891-2.133zM8.016 18v0.984h12v-0.984q0-0.938-1.125-1.688-0.938-0.656-2.438-1.031-1.359-0.375-2.461-0.375t-2.414 0.375q-1.547 0.375-2.484 1.031-1.078 0.75-1.078 1.688z"></path>
</svg>
