<!-- Generated by IcoMoon.io -->
<svg version="1.1" xmlns="http://www.w3.org/2000/svg" width="24" height="24" viewBox="0 0 24 24">
<title>air_horn</title>
<path d="M18.984 5.813v6.375q0 0.234-0.188 0.398t-0.375 0.117l-0.703-0.422q-0.891-0.469-1.828-0.891-1.359-0.563-2.672-0.891-1.688-0.422-3.234-0.422v2.438h0.234q0.375 0 0.703 0.141t0.469 0.422l1.313 1.828q0.281 0.281 0.281 0.703v7.969q0 0.563-0.445 0.984t-1.055 0.422h-4.969q-0.609 0-1.055-0.398t-0.445-1.008v-7.969q0-0.422 0.281-0.703l1.313-1.828q0.422-0.563 1.172-0.563h0.234v-1.5q-0.656 0.797-1.617 0.797t-1.688-0.844-0.727-1.969 0.727-1.969 1.711-0.844q0.938 0.188 1.594 0.797v-1.406h1.969v2.438q1.547 0 3.234-0.422 1.313-0.328 2.672-0.891 0.938-0.422 1.828-0.891l0.703-0.422q0.188-0.047 0.375 0.070t0.188 0.352z"></path>
</svg>
