<!-- Generated by IcoMoon.io -->
<svg version="1.1" xmlns="http://www.w3.org/2000/svg" width="24" height="24" viewBox="0 0 24 24">
<title>alarm_light</title>
<path d="M6 9.891l-2.109-2.109 1.406-1.406 2.109 2.109zM12.984 3.984v3h-1.969v-3h1.969zM20.109 7.781l-2.109 2.109-1.406-1.406 2.109-2.109zM4.5 13.5v2.016h-3v-2.016h3zM19.5 13.5h3v2.016h-3v-2.016zM6 23.016h12q0.844 0 1.43 0.586t0.586 1.383h-16.031q0-0.797 0.586-1.383t1.43-0.586zM12 8.016q1.172 0 2.297 0.445t1.969 1.289 1.289 1.945 0.445 2.32v7.969h-12v-7.969q0-1.219 0.445-2.32t1.289-1.945 1.969-1.289 2.297-0.445z"></path>
</svg>
