<!-- Generated by IcoMoon.io -->
<svg version="1.1" xmlns="http://www.w3.org/2000/svg" width="24" height="24" viewBox="0 0 24 24">
<title>alarm_bell</title>
<path d="M15 21.656v3.328h-9.984v-3.328q2.297 1.359 4.992 1.359t4.992-1.359zM21.984 6.984q0-0.797-0.586-1.383t-1.383-0.586q-0.469 0-0.914 0.211t-0.727 0.633q-0.516 0.656-0.352 1.477t0.82 1.289q0.516 0.375 1.172 0.375h0.234q1.266 3.328 0.375 6.773t-3.609 5.742q-0.609 0.469-1.031 0.703v1.781h1.031v-1.266q2.344-1.688 3.656-4.266t1.313-5.484q0-2.297-0.797-4.359 0.797-0.609 0.797-1.641zM18 12.984q0 1.594-0.609 3.070t-1.734 2.602-2.602 1.734-3.070 0.609q-2.156 0-3.984-1.078t-2.906-2.906-1.078-4.008 1.078-4.008 2.906-2.906 4.008-1.078 4.008 1.078 2.906 2.906 1.078 3.984z"></path>
</svg>
