<!-- Generated by IcoMoon.io -->
<svg version="1.1" xmlns="http://www.w3.org/2000/svg" width="24" height="24" viewBox="0 0 24 24">
<title>alarm1</title>
<path d="M12 23.016q-1.922 0-3.516-0.961t-2.531-2.555-0.938-3.492 0.938-3.516 2.531-2.555 3.516-0.938 3.516 0.938 2.531 2.555 0.938 3.516-0.938 3.492-2.531 2.555-3.516 0.961zM12 6.984q-2.438 0-4.5 1.219t-3.281 3.281-1.219 4.5 1.219 4.523 3.281 3.281 4.5 1.195 4.5-1.195 3.281-3.281 1.219-4.523-1.219-4.5-3.281-3.281-4.5-1.219zM12.516 11.016h-1.5v6l4.734 2.813 0.75-1.219-3.984-2.344v-5.25zM7.875 6.375l-1.266-1.5-4.594 3.844 1.266 1.5zM21.984 8.719l-4.594-3.844-1.266 1.5 4.594 3.891z"></path>
</svg>
