<!-- Generated by IcoMoon.io -->
<svg version="1.1" xmlns="http://www.w3.org/2000/svg" width="24" height="24" viewBox="0 0 24 24">
<title>alert_octagram_outline</title>
<path d="M2.203 19.078l1.688-4.078-1.688-4.078 4.078-1.641 1.641-4.078 4.078 1.688 4.078-1.688 1.641 4.078 4.078 1.641-1.688 4.078 1.688 4.078-4.078 1.641-1.641 4.078-4.078-1.688-4.078 1.688-1.641-4.078zM4.828 12l1.219 3-1.219 3 2.953 1.219 1.219 2.953 3-1.219 3 1.219 1.219-2.953 2.953-1.219-1.219-3 1.219-3-2.953-1.219-1.219-2.953-3 1.219-3-1.219-1.219 2.953zM11.016 18h1.969v2.016h-1.969v-2.016zM11.016 9.984h1.969v6h-1.969v-6z"></path>
</svg>
