<!-- Generated by IcoMoon.io -->
<svg version="1.1" xmlns="http://www.w3.org/2000/svg" width="24" height="24" viewBox="0 0 24 24">
<title>alert_circle_check</title>
<path d="M18.75 25.172l-2.766-3 1.172-1.172 1.594 1.594 3.609-3.609 1.125 1.406zM12.984 15.984v-6h-1.969v6h1.969zM12.984 20.016v-2.016h-1.969v2.016h1.969zM12 5.016q2.719 0 5.016 1.336t3.633 3.633 1.336 5.016l-0.094 1.313q-0.891-0.328-1.875-0.328-1.641 0-3.023 0.82t-2.18 2.203-0.797 2.977q0 1.406 0.609 2.672-1.266 0.328-2.625 0.328-2.719 0-5.016-1.336t-3.633-3.633-1.336-5.016 1.336-5.016 3.633-3.633 5.016-1.336z"></path>
</svg>
