<!-- Generated by IcoMoon.io -->
<svg version="1.1" xmlns="http://www.w3.org/2000/svg" width="24" height="24" viewBox="0 0 24 24">
<title>alert_decagram_outline</title>
<path d="M23.016 15l-2.438 2.766 0.328 3.703-3.609 0.797-1.875 3.188-3.422-1.453-3.422 1.453-1.875-3.141-3.609-0.844 0.328-3.703-2.438-2.766 2.438-2.813-0.328-3.656 3.609-0.797 1.875-3.188 3.422 1.453 3.422-1.453 1.875 3.188 3.609 0.797-0.328 3.703zM20.344 15l-1.828-2.109 0.234-2.813-2.766-0.563-1.406-2.438-2.578 1.125-2.578-1.125-1.406 2.438-2.766 0.563 0.234 2.813-1.828 2.109 1.828 2.109-0.234 2.813 2.766 0.563 1.406 2.438 2.578-1.125 2.578 1.125 1.406-2.438 2.766-0.609-0.234-2.766zM11.016 18h1.969v2.016h-1.969v-2.016zM11.016 9.984h1.969v6h-1.969v-6z"></path>
</svg>
