<!-- Generated by IcoMoon.io -->
<svg version="1.1" xmlns="http://www.w3.org/2000/svg" width="24" height="24" viewBox="0 0 24 24">
<title>alert_circle_check_outline</title>
<path d="M18.75 25.172l-2.766-3 1.172-1.172 1.594 1.594 3.609-3.609 1.125 1.406zM11.016 18h1.969v2.016h-1.969v-2.016zM11.016 9.984h1.969v6h-1.969v-6zM12 5.016q2.719 0 5.016 1.336t3.633 3.633 1.336 5.016l-0.047 1.313q-0.984-0.328-2.016-0.328l0.094-0.984q0-2.156-1.078-4.008t-2.93-2.93-4.008-1.078-4.008 1.078-2.93 2.93-1.078 4.008 1.078 4.008 2.93 2.93 4.008 1.078q1.031 0 2.063-0.281 0.094 0.984 0.563 1.922-1.266 0.328-2.625 0.328-2.719 0-5.016-1.336t-3.633-3.633-1.336-5.016 1.336-5.016 3.633-3.633 5.016-1.336z"></path>
</svg>
