<!-- Generated by IcoMoon.io -->
<svg version="1.1" xmlns="http://www.w3.org/2000/svg" width="24" height="24" viewBox="0 0 24 24">
<title>alphabetical_variant_off</title>
<path d="M12.188 12l-1.969-2.016h2.766q0.844 0 1.43 0.586t0.586 1.43v1.5q0 0.516-0.375 0.938l-1.641-1.641v-0.797h-0.797zM23.016 12.984v-0.984q0-0.844-0.586-1.43t-1.43-0.586h-2.016q-0.797 0-1.383 0.586t-0.586 1.43v4.781l3.188 3.234h0.797q0.844 0 1.43-0.586t0.586-1.43v-0.984h-2.016v0.984h-2.016v-6h2.016v0.984h2.016zM15 17.344l7.125 7.125-1.266 1.266-6.422-6.375q-0.563 0.656-1.453 0.656h-3.984v-6.141l-2.016-1.969v8.109h-1.969v-4.031h-2.016v4.031h-2.016v-8.016q0-0.844 0.586-1.43t1.43-0.586h2.109l-3.984-3.984 1.266-1.266zM5.016 12h-2.016v2.016h2.016v-2.016zM12.984 17.906l-1.875-1.922h-0.094v2.016h1.969v-0.094z"></path>
</svg>
