<!-- Generated by IcoMoon.io -->
<svg version="1.1" xmlns="http://www.w3.org/2000/svg" width="24" height="24" viewBox="0 0 24 24">
<title>alpha_a_box_outline</title>
<path d="M3 8.016q0-0.844 0.586-1.43t1.43-0.586h13.969q0.844 0 1.43 0.586t0.586 1.43v13.969q0 0.844-0.586 1.43t-1.43 0.586h-13.969q-0.844 0-1.43-0.586t-0.586-1.43v-13.969zM5.016 8.016v13.969h13.969v-13.969h-13.969zM11.016 9.984h1.969q0.844 0 1.43 0.586t0.586 1.43v8.016h-2.016v-4.031h-1.969v4.031h-2.016v-8.016q0-0.844 0.586-1.43t1.43-0.586zM11.016 12v2.016h1.969v-2.016h-1.969z"></path>
</svg>
