<!-- Generated by IcoMoon.io -->
<svg version="1.1" xmlns="http://www.w3.org/2000/svg" width="24" height="24" viewBox="0 0 24 24">
<title>alphabetical_off</title>
<path d="M22.125 24.469l-6.141-6.141-1.969-2.016-0.375-0.328-11.25-11.25-1.266 1.266 8.859 8.906v3.094q0 0.844 0.586 1.43t1.43 0.586h2.016q0.469 0 0.891-0.234l5.953 5.953zM12 18v-1.125l1.125 1.125h-1.125zM15.984 15.797l-1.781-1.781q0.703 0.047 1.219 0.563t0.563 1.219zM20.203 20.016l-2.203-2.203v-1.828q0-0.797 0.586-1.383t1.43-0.586h1.969v1.969h-1.969v2.016h1.969v2.016h-1.781zM6 14.016h-2.016q-0.797 0-1.383 0.586t-0.586 1.383v2.016q0 0.844 0.586 1.43t1.383 0.586h4.031v-4.031q0-0.797-0.586-1.383t-1.43-0.586zM6 18h-2.016v-2.016h2.016v2.016zM12 11.813l-1.781-1.828h1.781v1.828z"></path>
</svg>
