<!-- Generated by IcoMoon.io -->
<svg version="1.1" xmlns="http://www.w3.org/2000/svg" width="24" height="24" viewBox="0 0 24 24">
<title>alphabetical</title>
<path d="M6 14.016q0.844 0 1.43 0.586t0.586 1.383v4.031h-4.031q-0.797 0-1.383-0.586t-0.586-1.43v-2.016q0-0.797 0.586-1.383t1.383-0.586h2.016zM3.984 15.984v2.016h2.016v-2.016h-2.016zM20.016 15.984v2.016h1.969v2.016h-1.969q-0.844 0-1.43-0.586t-0.586-1.43v-2.016q0-0.797 0.586-1.383t1.43-0.586h1.969v1.969h-1.969zM12 9.984v4.031h2.016q0.797 0 1.383 0.586t0.586 1.383v2.016q0 0.844-0.586 1.43t-1.383 0.586h-2.016q-0.844 0-1.43-0.586t-0.586-1.43v-8.016h2.016zM12 18h2.016v-2.016h-2.016v2.016z"></path>
</svg>
