<!-- Generated by IcoMoon.io -->
<svg version="1.1" xmlns="http://www.w3.org/2000/svg" width="24" height="24" viewBox="0 0 24 24">
<title>ambulance</title>
<path d="M18 21.516q0.609 0 1.055-0.445t0.445-1.078-0.445-1.055-1.055-0.422-1.055 0.422-0.445 1.055 0.445 1.078 1.055 0.445zM19.5 12.516h-2.484v2.484h4.453zM6 21.516q0.609 0 1.055-0.445t0.445-1.078-0.445-1.055-1.055-0.422-1.055 0.422-0.445 1.055 0.445 1.078 1.055 0.445zM20.016 11.016l3 3.984v5.016h-2.016q0 1.219-0.867 2.109t-2.133 0.891-2.133-0.891-0.867-2.109h-6q0 1.219-0.867 2.109t-2.133 0.891-2.133-0.891-0.867-2.109h-2.016v-11.016q0-0.844 0.586-1.43t1.43-0.586h14.016v4.031h3zM8.016 9v3h-3v2.016h3v3h1.969v-3h3v-2.016h-3v-3h-1.969z"></path>
</svg>
