<!-- Generated by IcoMoon.io -->
<svg version="1.1" xmlns="http://www.w3.org/2000/svg" width="24" height="24" viewBox="0 0 24 24">
<title>amplifier_off</title>
<path d="M22.078 24.516l-19.688-19.828-1.313 1.313 1.922 1.922v16.078h2.016q0 0.469 0.258 0.727t0.727 0.258 0.727-0.258 0.258-0.727h10.031q0 0.469 0.258 0.727t0.727 0.258 0.727-0.258 0.258-0.727h0.094l1.734 1.688zM5.016 12v-2.109l2.063 2.109h-2.063zM12 21.984q-1.641 0-2.813-1.172t-1.172-2.813q0-1.031 0.469-1.898t1.313-1.383l5.484 5.484q-0.516 0.844-1.383 1.313t-1.898 0.469zM14.016 9v0.984h-2.016v-0.984h2.016zM9.984 9q0.469 0 0.75 0.281t0.281 0.703q0 0.234-0.234 0.609v0l-1.359-1.406q0.375-0.188 0.563-0.188zM8.203 8.016l-2.016-2.016h2.813q0-0.469 0.281-0.727t0.703-0.258h4.031q0.422 0 0.703 0.258t0.281 0.727h6v14.813l-8.813-8.813h6.797v-3.984h-10.781zM15.984 9v2.016h-0.984v-2.016h0.984zM18 9v2.016h-0.984v-2.016h0.984z"></path>
</svg>
