<!-- Generated by IcoMoon.io -->
<svg version="1.1" xmlns="http://www.w3.org/2000/svg" width="24" height="24" viewBox="0 0 24 24">
<title>amplifier</title>
<path d="M9.984 5.016h4.031q0.422 0 0.703 0.281t0.281 0.703h6v18h-2.016q0 0.422-0.281 0.703t-0.703 0.281-0.703-0.281-0.281-0.703h-10.031q0 0.422-0.281 0.703t-0.703 0.281-0.703-0.281-0.281-0.703h-2.016v-18h6q0-0.422 0.281-0.703t0.703-0.281zM5.016 8.016v3.984h13.969v-3.984h-13.969zM6.984 9q0.422 0 0.727 0.281t0.305 0.703-0.305 0.727-0.727 0.305-0.703-0.305-0.281-0.727 0.281-0.703 0.703-0.281zM12 9h2.016v0.984h-2.016v-0.984zM15 9h0.984v2.016h-0.984v-2.016zM17.016 9h0.984v2.016h-0.984v-2.016zM12 14.016q-1.641 0-2.813 1.172t-1.172 2.813 1.172 2.813 2.813 1.172 2.813-1.172 1.172-2.813-1.172-2.813-2.813-1.172zM9.984 9q0.422 0 0.727 0.281t0.305 0.703-0.305 0.727-0.727 0.305-0.703-0.305-0.281-0.727 0.281-0.703 0.703-0.281z"></path>
</svg>
