<!-- Generated by IcoMoon.io -->
<svg version="1.1" xmlns="http://www.w3.org/2000/svg" width="24" height="24" viewBox="0 0 24 24">
<title>anchor</title>
<path d="M12 5.016q-1.266 0-2.133 0.867t-0.867 2.133q0 0.938 0.539 1.711t1.477 1.102v2.156h-3v2.016h3v6.938q-1.406-0.234-2.578-1.008t-1.922-1.945h1.5v-1.969h-5.016v4.969h2.016v-1.688q1.172 1.734 3.023 2.719t3.961 0.984 3.961-0.984 3.023-2.719v1.688h2.016v-4.969h-5.016v1.969h1.453q-0.75 1.172-1.898 1.945t-2.555 1.008v-6.938h3v-2.016h-3v-2.156q0.938-0.328 1.477-1.102t0.539-1.711q0-1.266-0.867-2.133t-2.133-0.867zM12 6.984q0.422 0 0.703 0.305t0.281 0.727-0.281 0.703-0.703 0.281-0.703-0.281-0.281-0.703 0.281-0.727 0.703-0.305z"></path>
</svg>
