<!-- Generated by IcoMoon.io -->
<svg version="1.1" xmlns="http://www.w3.org/2000/svg" width="24" height="24" viewBox="0 0 24 24">
<title>android_studio</title>
<path d="M11.016 5.016h1.969v1.969h0.516q0.609 0 1.055 0.445t0.445 1.055v3.516l-0.422 0.422 1.641 2.859q0.844-0.844 1.313-1.945t0.469-2.32h2.016q0 1.781-0.75 3.352t-2.016 2.695l3.141 5.438 0.094 2.203-1.875-1.219-3.047-5.297q-1.641 0.797-3.563 0.797t-3.563-0.797l-3.047 5.297-1.875 1.219 0.094-2.203 5.813-10.078-0.422-0.422v-3.516q0-0.609 0.445-1.055t1.055-0.445h0.516v-1.969zM9.422 16.453q1.219 0.563 2.578 0.563t2.578-0.563l-1.5-2.531q-0.469 0.422-1.078 0.422t-1.078-0.422zM12 9q-0.422 0-0.703 0.281t-0.281 0.703 0.281 0.727 0.703 0.305 0.703-0.305 0.281-0.727-0.281-0.703-0.703-0.281z"></path>
</svg>
