<!-- Generated by IcoMoon.io -->
<svg version="1.1" xmlns="http://www.w3.org/2000/svg" width="24" height="24" viewBox="0 0 24 24">
<title>antenna</title>
<path d="M12 10.5q1.031 0 1.758 0.703t0.727 1.781q0 1.594-1.5 2.297v8.719h-1.969v-8.719q-1.5-0.703-1.5-2.297 0-1.078 0.727-1.781t1.758-0.703zM16.688 8.297q1.875 1.875 2.016 4.688 0 2.719-2.016 4.734l-1.172-1.219q1.5-1.359 1.5-3.516 0-1.969-1.5-3.469zM6.094 7.078q-2.391 2.391-2.391 5.906t2.391 5.906l-1.172 1.219q-2.906-3.094-2.906-7.102t2.906-7.102zM19.078 5.906q2.906 3.094 2.906 7.078 0 4.172-2.906 7.125l-1.172-1.219q2.391-2.391 2.391-5.906t-2.391-5.906zM7.313 8.297l1.172 1.219q-1.5 1.359-1.5 3.469 0 2.016 1.5 3.516l-1.172 1.219q-2.016-2.016-2.016-4.711t2.016-4.711z"></path>
</svg>
