<!-- Generated by IcoMoon.io -->
<svg version="1.1" xmlns="http://www.w3.org/2000/svg" width="24" height="24" viewBox="0 0 24 24">
<title>apache_kafka</title>
<path d="M15.563 15.984q-1.031 0-1.781 0.656l-1.313-0.75q0.141-0.422 0.141-0.891t-0.094-0.938l1.219-0.75q0.75 0.703 1.828 0.703t1.875-0.797 0.797-1.898-0.797-1.898-1.898-0.797-1.898 0.797-0.797 1.922q0 0.234 0.047 0.516l-1.266 0.75q-0.656-0.703-1.641-0.938v-1.406q0.844-0.281 1.359-0.984t0.516-1.594q0-1.125-0.773-1.898t-1.898-0.773-1.898 0.773-0.773 1.898q0 0.891 0.492 1.594t1.336 0.984v1.406q-1.125 0.281-1.852 1.195t-0.727 2.109 0.727 2.109 1.852 1.195v1.453q-0.844 0.281-1.336 0.984t-0.492 1.594q0 1.125 0.773 1.898t1.898 0.773 1.898-0.773 0.773-1.898q0-0.891-0.516-1.594t-1.359-0.984v-1.453q0.984-0.234 1.641-0.938l1.266 0.75q-0.047 0.281-0.047 0.563 0 1.125 0.797 1.922t1.898 0.797 1.898-0.797 0.797-1.922-0.797-1.898-1.875-0.773zM15.563 9.984q0.516 0 0.914 0.398t0.398 0.938-0.398 0.938-0.938 0.398-0.938-0.398-0.398-0.938 0.398-0.938 0.961-0.398zM7.828 7.688q0-0.563 0.398-0.961t0.961-0.398 0.938 0.398 0.375 0.961-0.375 0.961-0.938 0.398-0.961-0.398-0.398-0.961zM10.5 22.313q0 0.563-0.375 0.938t-0.938 0.375-0.961-0.375-0.398-0.938 0.398-0.961 0.961-0.398 0.938 0.398 0.375 0.961zM9.188 16.875q-0.797 0-1.359-0.563t-0.563-1.359 0.563-1.359 1.359-0.563 1.359 0.563 0.563 1.359-0.563 1.359-1.359 0.563zM15.563 20.016q-0.563 0-0.961-0.398t-0.398-0.961 0.398-0.938 0.938-0.375 0.938 0.375 0.398 0.938-0.398 0.961-0.914 0.398z"></path>
</svg>
