<!-- Generated by IcoMoon.io -->
<svg version="1.1" xmlns="http://www.w3.org/2000/svg" width="24" height="24" viewBox="0 0 24 24">
<title>api</title>
<path d="M6.984 9.984h-1.969q-0.844 0-1.43 0.586t-0.586 1.43v8.016h2.016v-4.031h1.969v4.031h2.016v-8.016q0-0.844-0.586-1.43t-1.43-0.586zM6.984 14.016h-1.969v-2.016h1.969v2.016zM14.016 9.984h-4.031v10.031h2.016v-4.031h2.016q0.797 0 1.383-0.586t0.586-1.383v-2.016q0-0.844-0.586-1.43t-1.383-0.586zM14.016 14.016h-2.016v-2.016h2.016v2.016zM20.016 12v6h0.984v2.016h-3.984v-2.016h0.984v-6h-0.984v-2.016h3.984v2.016h-0.984z"></path>
</svg>
