<!-- Generated by IcoMoon.io -->
<svg version="1.1" xmlns="http://www.w3.org/2000/svg" width="24" height="24" viewBox="0 0 24 24">
<title>apple_icloud</title>
<path d="M21.984 18.047q0 1.641-1.148 2.789t-2.789 1.148h-12.094q-1.641 0-2.789-1.148t-1.148-2.789q0-1.453 0.938-2.578t2.344-1.313q-0.047-0.188-0.047-0.469 0-1.031 0.75-1.758t1.781-0.727q0.891 0 1.594 0.609 0.703-1.641 1.5-2.344 1.172-1.031 3.047-1.031 2.391 0 3.75 1.641 1.219 1.5 1.219 3.75l-0.047 0.328q1.359 0.281 2.25 1.383t0.891 2.508z"></path>
</svg>
