<!-- Generated by IcoMoon.io -->
<svg version="1.1" xmlns="http://www.w3.org/2000/svg" width="24" height="24" viewBox="0 0 24 24">
<title>apple_ios</title>
<path d="M20.016 12v-2.016h-4.031q-0.797 0-1.383 0.586t-0.586 1.43v2.016q0 0.797 0.586 1.383t1.383 0.586h2.016v2.016h-3.984v2.016h3.984q0.844 0 1.43-0.586t0.586-1.43v-2.016q0-0.797-0.586-1.383t-1.43-0.586h-2.016v-2.016h4.031zM11.016 18h-2.016v-6h2.016v6zM11.016 9.984h-2.016q-0.844 0-1.43 0.586t-0.586 1.43v6q0 0.844 0.586 1.43t1.43 0.586h2.016q0.797 0 1.383-0.586t0.586-1.43v-6q0-0.844-0.586-1.43t-1.383-0.586zM3.984 20.016h2.016v-6h-2.016v6zM3.984 12h2.016v-2.016h-2.016v2.016z"></path>
</svg>
