<!-- Generated by IcoMoon.io -->
<svg version="1.1" xmlns="http://www.w3.org/2000/svg" width="24" height="24" viewBox="0 0 24 24">
<title>apple_safari</title>
<path d="M12 5.016q1.969 0 3.82 0.75t3.258 2.156 2.156 3.258 0.75 3.82-0.75 3.82-2.156 3.258-3.258 2.156-3.82 0.75-3.82-0.75-3.258-2.156-2.156-3.258-0.75-3.82 0.75-3.82 2.156-3.258 3.258-2.156 3.82-0.75zM12 6.984q-1.594 0-3.070 0.609t-2.602 1.734-1.734 2.602-0.609 3.047 0.563 2.953 1.547 2.461l3.797-7.5 7.5-3.797q-1.078-0.984-2.461-1.547t-2.93-0.563zM12 23.016q2.156 0 4.008-1.078t2.93-2.93 1.078-4.008q0-1.547-0.563-2.93t-1.547-2.461l-3.797 7.5-7.5 3.797q1.078 0.984 2.461 1.547t2.93 0.563zM12 15l-0.75-0.75-1.547 3.047 3.047-1.547zM12 20.484h0.984v1.5h-0.984v-1.5zM15.891 18.891l0.703-0.703 1.078 1.031-0.75 0.75zM17.484 15v-0.984h1.5v0.984h-1.5zM12 9.516h-0.984v-1.5h0.984v1.5zM8.109 11.109l-0.703 0.703-1.078-1.031 0.75-0.75zM6.516 15v0.984h-1.5v-0.984h1.5z"></path>
</svg>
