<!-- Generated by IcoMoon.io -->
<svg version="1.1" xmlns="http://www.w3.org/2000/svg" width="24" height="24" viewBox="0 0 24 24">
<title>apple_keyboard_command</title>
<path d="M6 5.016q1.641 0 2.813 1.172t1.172 2.813v2.016h4.031v-2.016q0-1.641 1.172-2.813t2.813-1.172 2.813 1.172 1.172 2.813-1.172 2.813-2.813 1.172h-2.016v4.031h2.016q1.641 0 2.813 1.172t1.172 2.813-1.172 2.813-2.813 1.172-2.813-1.172-1.172-2.813v-2.016h-4.031v2.016q0 1.641-1.172 2.813t-2.813 1.172-2.813-1.172-1.172-2.813 1.172-2.813 2.813-1.172h2.016v-4.031h-2.016q-1.641 0-2.813-1.172t-1.172-2.813 1.172-2.813 2.813-1.172zM15.984 21q0 0.844 0.586 1.43t1.43 0.586 1.43-0.586 0.586-1.43-0.586-1.43-1.43-0.586h-2.016v2.016zM14.016 12.984h-4.031v4.031h4.031v-4.031zM6 18.984q-0.844 0-1.43 0.586t-0.586 1.43 0.586 1.43 1.43 0.586 1.43-0.586 0.586-1.43v-2.016h-2.016zM8.016 9q0-0.844-0.586-1.43t-1.43-0.586-1.43 0.586-0.586 1.43 0.586 1.43 1.43 0.586h2.016v-2.016zM18 11.016q0.844 0 1.43-0.586t0.586-1.43-0.586-1.43-1.43-0.586-1.43 0.586-0.586 1.43v2.016h2.016z"></path>
</svg>
