<!-- Generated by IcoMoon.io -->
<svg version="1.1" xmlns="http://www.w3.org/2000/svg" width="24" height="24" viewBox="0 0 24 24">
<title>approximately_equal_box</title>
<path d="M18.984 6h-13.969q-0.844 0-1.43 0.586t-0.586 1.43v13.969q0 0.844 0.586 1.43t1.43 0.586h13.969q0.844 0 1.43-0.586t0.586-1.43v-13.969q0-0.844-0.586-1.43t-1.43-0.586zM9.281 11.203q0.75 0 1.406 0.188 0.375 0.141 1.031 0.422l0.516 0.234q0.609 0.328 0.984 0.469 0.609 0.188 1.289 0.188t1.43-0.422q0.609-0.328 1.078-0.797l0.797 1.313q-0.609 0.656-1.453 1.125-0.984 0.469-1.969 0.469-0.75 0-1.453-0.234-0.422-0.141-1.031-0.469l-0.188-0.094q-0.656-0.328-1.078-0.469-0.703-0.234-1.406-0.234t-1.453 0.422q-0.609 0.328-1.078 0.797l-0.703-1.313q0.563-0.656 1.406-1.078 0.984-0.516 1.875-0.516zM14.578 18.797q-0.703 0-1.359-0.188-0.375-0.141-1.031-0.422l-0.375-0.188q-0.656-0.328-1.078-0.469-0.703-0.234-1.406-0.234t-1.453 0.422q-0.609 0.328-1.078 0.797l-0.797-1.406q0.563-0.656 1.406-1.125 0.984-0.469 1.875-0.469 0.75 0 1.406 0.188 0.375 0.141 1.031 0.422l0.516 0.234q0.609 0.328 0.984 0.422 0.656 0.234 1.359 0.234t1.453-0.422q0.609-0.328 1.078-0.797l0.797 1.313q-0.469 0.703-1.383 1.195t-1.945 0.492z"></path>
</svg>
