<!-- Generated by IcoMoon.io -->
<svg version="1.1" xmlns="http://www.w3.org/2000/svg" width="24" height="24" viewBox="0 0 24 24">
<title>approximately_equal</title>
<path d="M18.891 12.188q-0.656 0.75-1.641 1.266-1.125 0.563-2.25 0.563-0.938 0-1.781-0.281-0.469-0.141-1.266-0.563l-0.703-0.281q-0.656-0.281-1.031-0.422-0.656-0.188-1.313-0.188-0.844 0-1.688 0.422-0.703 0.375-1.219 0.891l-0.984-1.5q1.875-1.875 3.891-1.875 0.75 0 1.5 0.188 0.422 0.141 1.125 0.469l1.219 0.516q0.609 0.281 0.984 0.422 0.609 0.188 1.266 0.188 0.797 0 1.688-0.469 0.656-0.375 1.219-0.938zM18.984 17.109q-1.875 1.875-3.891 1.875-0.938 0-1.781-0.234-0.469-0.188-1.266-0.563l-0.797-0.375q-0.609-0.281-0.984-0.422-0.609-0.188-1.266-0.188-0.797 0-1.688 0.469-0.656 0.375-1.219 0.938l-0.984-1.594q1.875-1.922 3.891-1.922 0.938 0 1.781 0.281 0.469 0.141 1.266 0.563l0.703 0.281q0.656 0.281 1.031 0.375 0.656 0.188 1.313 0.188 0.797 0 1.688-0.469 0.656-0.375 1.219-0.891z"></path>
</svg>
