<!-- Generated by IcoMoon.io -->
<svg version="1.1" xmlns="http://www.w3.org/2000/svg" width="24" height="24" viewBox="0 0 24 24">
<title>apps_box</title>
<path d="M5.016 6h13.969q0.844 0 1.43 0.586t0.586 1.43v13.969q0 0.844-0.586 1.43t-1.43 0.586h-13.969q-0.844 0-1.43-0.586t-0.586-1.43v-13.969q0-0.844 0.586-1.43t1.43-0.586zM6.984 9.984v2.016h2.016v-2.016h-2.016zM11.016 9.984v2.016h1.969v-2.016h-1.969zM15 9.984v2.016h2.016v-2.016h-2.016zM6.984 14.016v1.969h2.016v-1.969h-2.016zM11.016 14.016v1.969h1.969v-1.969h-1.969zM15 14.016v1.969h2.016v-1.969h-2.016zM6.984 18v2.016h2.016v-2.016h-2.016zM11.016 18v2.016h1.969v-2.016h-1.969zM15 18v2.016h2.016v-2.016h-2.016z"></path>
</svg>
