<!-- Generated by IcoMoon.io -->
<svg version="1.1" xmlns="http://www.w3.org/2000/svg" width="24" height="24" viewBox="0 0 24 24">
<title>arrow_decision_outline</title>
<path d="M9.656 16.406q-1.547-1.359-3.656-1.406v3l-3.984-3.984 3.984-4.031v3q2.578 0 4.641 1.594-0.609 0.844-0.984 1.828zM18 18v-3q-1.313 0-2.484 0.563-2.203 1.078-2.484 3.656 1.172 0.375 1.711 1.5t0.141 2.297-1.523 1.711-2.297 0.117-1.711-1.523-0.117-2.273q0.188-0.656 0.68-1.148t1.148-0.68q0.141-1.781 1.102-3.234t2.508-2.25 3.328-0.75v-3l3.984 4.031zM12.984 21.984q0-0.422-0.281-0.703t-0.703-0.281-0.703 0.281-0.281 0.703 0.281 0.727 0.703 0.305 0.703-0.305 0.281-0.727zM11.016 14.109q0.891-0.984 1.969-1.688v-4.406h3l-3.984-4.031-3.984 4.031h3v6.094z"></path>
</svg>
