<!-- Generated by IcoMoon.io -->
<svg version="1.1" xmlns="http://www.w3.org/2000/svg" width="24" height="24" viewBox="0 0 24 24">
<title>arrow_vertical_lock</title>
<path d="M18.797 14.016v-1.5q0-1.031-0.867-1.781t-1.945-0.75-1.922 0.75-0.844 1.781v1.5q-0.469 0-0.844 0.375t-0.375 0.797v3.516q0 0.516 0.375 0.914t0.844 0.398h5.484q0.516 0 0.914-0.375t0.398-0.844v-3.516q0-0.516-0.375-0.891t-0.844-0.375zM17.484 14.016h-3v-1.5q0-0.609 0.445-0.961t1.078-0.352 1.055 0.352 0.422 0.961v1.5zM9 9h3l-3.984-3.984-4.031 3.984h3v12h-3l4.031 3.984 3.984-3.984h-3v-12z"></path>
</svg>
