<!-- Generated by IcoMoon.io -->
<svg version="1.1" xmlns="http://www.w3.org/2000/svg" width="24" height="24" viewBox="0 0 24 24">
<title>arrow_decision</title>
<path d="M11.016 8.016h-3l3.984-4.031 3.984 4.031h-3v4.406q-1.078 0.703-1.969 1.688v-6.094zM21.984 14.016l-3.984-4.031v3q-1.781-0.047-3.328 0.75t-2.531 2.227-1.125 3.211q-1.172 0.422-1.711 1.547t-0.141 2.297 1.523 1.711 2.297 0.117 1.711-1.547 0.117-2.297q-0.188-0.656-0.68-1.125t-1.148-0.703q0.234-1.781 1.406-2.859 0.844-0.797 2.156-1.125 0.797-0.234 1.406-0.234v3zM10.641 14.578q-2.063-1.594-4.641-1.594v-3l-3.984 4.031 3.984 3.984v-3q2.109 0.047 3.656 1.406 0.375-0.984 0.984-1.828z"></path>
</svg>
