<!-- Generated by IcoMoon.io -->
<svg version="1.1" xmlns="http://www.w3.org/2000/svg" width="24" height="24" viewBox="0 0 24 24">
<title>arrow_horizontal_lock</title>
<path d="M14.813 9.984v-1.5q0-1.031-0.867-1.758t-1.945-0.727-1.945 0.727-0.867 1.758v1.5q-0.422 0-0.797 0.375t-0.375 0.844v3.516q0 0.516 0.352 0.891t0.82 0.375h5.531q0.516 0 0.891-0.352t0.375-0.82v-3.516q0-0.516-0.352-0.914t-0.82-0.398zM13.5 9.984h-3v-1.5q0-0.563 0.445-0.914t1.055-0.352 1.055 0.352 0.445 0.914v1.5zM6 20.016v3l-3.984-4.031 3.984-3.984v3h12v-3l3.984 3.984-3.984 4.031v-3h-12z"></path>
</svg>
