<!-- Generated by IcoMoon.io -->
<svg version="1.1" xmlns="http://www.w3.org/2000/svg" width="24" height="24" viewBox="0 0 24 24">
<title>arrow_decision_auto_outline</title>
<path d="M18.984 18v-3q-1.266 0-2.484 0.563-2.156 1.078-2.438 3.656 1.172 0.375 1.711 1.5t0.117 2.297-1.547 1.711-2.297 0.117-1.711-1.523-0.117-2.273q0.188-0.656 0.68-1.148t1.148-0.68q0.141-1.781 1.125-3.234t2.531-2.25 3.281-0.75v-3l4.031 4.031zM14.016 21.984q0-0.422-0.305-0.703t-0.727-0.281-0.703 0.281-0.281 0.703 0.281 0.727 0.703 0.305 0.727-0.305 0.305-0.727zM12 14.109q0.891-0.984 2.016-1.688v-4.406h3l-4.031-4.031-3.984 4.031h3v6.094zM7.219 9h-2.016l-3.188 9h1.875l0.703-2.016h3.188l0.703 2.016h1.922zM5.063 14.672l1.125-3.656 1.172 3.656h-2.297z"></path>
</svg>
