<!-- Generated by IcoMoon.io -->
<svg version="1.1" xmlns="http://www.w3.org/2000/svg" width="24" height="24" viewBox="0 0 24 24">
<title>arrow_decision_auto</title>
<path d="M12 8.016h-3l3.984-4.031 4.031 4.031h-3v4.406q-1.125 0.703-2.016 1.688v-6.094zM10.406 18h-1.922l-0.703-2.016h-3.188l-0.703 2.016h-1.875l3.188-9h2.016zM7.359 14.672l-1.172-3.656-1.125 3.656h2.297zM23.016 14.016l-4.031-4.031v3q-1.781-0.047-3.328 0.75t-2.531 2.227-1.125 3.211q-1.172 0.422-1.711 1.547t-0.117 2.297 1.547 1.711 2.297 0.117 1.711-1.547 0.117-2.297q-0.234-0.656-0.727-1.125t-1.102-0.703q0.188-1.781 1.359-2.859 0.891-0.797 2.203-1.125 0.75-0.234 1.359-0.234v3z"></path>
</svg>
