<!-- Generated by IcoMoon.io -->
<svg version="1.1" xmlns="http://www.w3.org/2000/svg" width="24" height="24" viewBox="0 0 24 24">
<title>arrow_all</title>
<path d="M12.984 14.016h5.016l-1.5-1.5 1.406-1.453 3.938 3.938-3.938 3.938-1.406-1.453 1.5-1.5h-5.016v5.016l1.5-1.5 1.453 1.406-3.938 3.938-3.938-3.938 1.453-1.406 1.5 1.5v-5.016h-5.016l1.5 1.5-1.406 1.453-3.938-3.938 3.938-3.938 1.406 1.453-1.5 1.5h5.016v-5.016l-1.5 1.5-1.453-1.406 3.938-3.938 3.938 3.938-1.453 1.406-1.5-1.5v5.016z"></path>
</svg>
