<!-- Generated by IcoMoon.io -->
<svg version="1.1" xmlns="http://www.w3.org/2000/svg" width="24" height="24" viewBox="0 0 24 24">
<title>at</title>
<path d="M12 18q1.172 0 2.086-0.914t0.914-2.086-0.914-2.086-2.086-0.914-2.086 0.914-0.914 2.086 0.914 2.086 2.086 0.914zM12 5.016q4.078 0 7.031 2.953t2.953 7.031v1.453q0 1.453-1.008 2.508t-2.461 1.055q-1.828 0-2.953-1.5-1.5 1.5-3.539 1.5t-3.539-1.5-1.5-3.516 1.5-3.516 3.516-1.5 3.516 1.5 1.5 3.516v1.453q0 0.609 0.445 1.078t1.055 0.469 1.055-0.469 0.445-1.078v-1.453q0-3.281-2.367-5.648t-5.648-2.367-5.648 2.367-2.367 5.648 2.367 5.648 5.648 2.367h5.016v1.969h-5.016q-4.078 0-7.031-2.953t-2.953-7.031 2.953-7.031 7.031-2.953z"></path>
</svg>
