<!-- Generated by IcoMoon.io -->
<svg version="1.1" xmlns="http://www.w3.org/2000/svg" width="24" height="24" viewBox="0 0 24 24">
<title>attachment1</title>
<path d="M7.5 21q-1.078 0-2.086-0.422t-1.781-1.195-1.195-1.781-0.422-2.086q0-1.5 0.727-2.766t1.992-2.016 2.766-0.75h10.5q1.641 0 2.813 1.172t1.172 2.836-1.172 2.836-2.813 1.172h-8.484q-1.031 0-1.781-0.727t-0.75-1.758 0.75-1.781 1.781-0.75h7.5v1.5h-7.5q-0.422 0-0.727 0.305t-0.305 0.727 0.305 0.703 0.727 0.281h8.484q1.031 0 1.758-0.727t0.727-1.758-0.727-1.781-1.758-0.75h-10.5q-1.641 0-2.813 1.172t-1.172 2.836 1.172 2.836 2.813 1.172h9.516v1.5h-9.516z"></path>
</svg>
