<!-- Generated by IcoMoon.io -->
<svg version="1.1" xmlns="http://www.w3.org/2000/svg" width="24" height="24" viewBox="0 0 24 24">
<title>autorenew1</title>
<path d="M12 9v3l3.984-3.984-3.984-4.031v3q-1.594 0-3.070 0.609t-2.602 1.734-1.734 2.602-0.609 3.070q0 2.297 1.266 4.266l1.453-1.453q-0.703-1.313-0.703-2.813 0-1.641 0.797-3.023t2.18-2.18 3.023-0.797zM18.75 10.734l-1.453 1.453q0.703 1.359 0.703 2.813 0 1.641-0.797 3.023t-2.18 2.18-3.023 0.797v-3l-3.984 3.984 3.984 4.031v-3q2.156 0 4.008-1.078t2.93-2.93 1.078-4.008q0-2.297-1.266-4.266z"></path>
</svg>
