<!-- Generated by IcoMoon.io -->
<svg version="1.1" xmlns="http://www.w3.org/2000/svg" width="24" height="24" viewBox="0 0 24 24">
<title>auto_fix</title>
<path d="M7.5 8.578l-2.484 1.406 1.406-2.484-1.406-2.484 2.484 1.406 2.484-1.406-1.406 2.484 1.406 2.484zM19.5 18.422l2.484-1.406-1.406 2.484 1.406 2.484-2.484-1.406-2.484 1.406 1.406-2.484-1.406-2.484zM21.984 5.016l-1.406 2.484 1.406 2.484-2.484-1.406-2.484 1.406 1.406-2.484-1.406-2.484 2.484 1.406zM13.359 15.797l2.438-2.438-2.156-2.156-2.438 2.438zM14.391 10.313l2.297 2.297q0.328 0.281 0.328 0.703t-0.328 0.75l-11.625 11.625q-0.328 0.328-0.75 0.328t-0.703-0.328l-2.297-2.297q-0.328-0.281-0.328-0.703t0.328-0.75l11.625-11.625q0.328-0.328 0.75-0.328t0.703 0.328z"></path>
</svg>
