<!-- Generated by IcoMoon.io -->
<svg version="1.1" xmlns="http://www.w3.org/2000/svg" width="24" height="24" viewBox="0 0 24 24">
<title>av_timer1</title>
<path d="M11.016 20.016q0 0.422 0.281 0.703t0.703 0.281 0.703-0.281 0.281-0.703-0.281-0.727-0.703-0.305-0.703 0.305-0.281 0.727zM11.016 6v3.984h1.969v-1.922q1.688 0.281 3.070 1.242t2.156 2.461 0.773 3.234q0 1.922-0.938 3.516t-2.531 2.531-3.516 0.938-3.516-0.938-2.531-2.531-0.938-3.516q0-2.484 1.547-4.406l5.438 5.391 1.406-1.406-6.797-6.797v0.047q-1.688 1.219-2.648 3.117t-0.961 4.055q0 2.438 1.219 4.5t3.281 3.281 4.5 1.219 4.5-1.219 3.281-3.281 1.219-4.5-1.219-4.5-3.281-3.281-4.5-1.219h-0.984zM18 15q0-0.422-0.281-0.703t-0.703-0.281-0.727 0.281-0.305 0.703 0.305 0.703 0.727 0.281 0.703-0.281 0.281-0.703zM6 15q0 0.422 0.281 0.703t0.703 0.281 0.727-0.281 0.305-0.703-0.305-0.703-0.727-0.281-0.703 0.281-0.281 0.703z"></path>
</svg>
