<!-- Generated by IcoMoon.io -->
<svg version="1.1" xmlns="http://www.w3.org/2000/svg" width="24" height="24" viewBox="0 0 24 24">
<title>aws</title>
<path d="M7.641 13.359q0 0.422 0.047 0.656l0.234 0.422q0.047 0.094 0.047 0.188t-0.141 0.188l-0.422 0.281q-0.094 0.047-0.164 0.047t-0.211-0.117-0.234-0.305l-0.188-0.375q-0.797 0.938-1.969 0.938-0.844 0-1.336-0.492t-0.492-1.289 0.633-1.336 1.617-0.539q0.281 0 0.68 0.047t0.773 0.141v-0.469q0-0.75-0.305-1.055t-1.055-0.305q-0.375 0-0.773 0.094t-0.68 0.188l-0.328 0.094q-0.141 0-0.141-0.188v-0.328q0-0.141 0.047-0.211t0.188-0.117q0.328-0.234 0.82-0.352t1.055-0.117q1.172 0 1.734 0.539t0.563 1.664v2.109zM4.922 14.391q0.328 0 0.68-0.117t0.633-0.445q0.188-0.188 0.281-0.422l0.047-0.844q-0.141-0.047-0.375-0.047l-0.234-0.047-0.656-0.047q-0.656 0-0.984 0.258t-0.328 0.75 0.234 0.727 0.703 0.234zM10.266 15.094q-0.141 0-0.234-0.094t-0.141-0.188l-1.594-5.203-0.047-0.234q0-0.188 0.188-0.188h0.609q0.234 0 0.305 0.070t0.117 0.305l1.125 4.359 1.031-4.359q0.047-0.234 0.141-0.305t0.234-0.070h0.563q0.188 0 0.258 0.070t0.117 0.305l1.078 4.453 1.125-4.453q0.047-0.188 0.141-0.281t0.234-0.094h0.656q0.141 0 0.141 0.188l-1.641 5.438q-0.094 0.188-0.164 0.258t-0.258 0.070h-0.563q-0.141 0-0.258-0.094t-0.117-0.234l-1.031-4.313-1.031 4.266q-0.047 0.188-0.141 0.258t-0.281 0.070h-0.563zM18.844 15.281q-0.563 0-1.055-0.117t-0.727-0.258q-0.188-0.094-0.234-0.188t-0.047-0.188v-0.328q0-0.188 0.141-0.188h0.141l0.188 0.047q0.328 0.188 0.727 0.258t0.773 0.070q0.656 0 0.984-0.234t0.328-0.609q0-0.281-0.188-0.469t-0.656-0.328l-0.984-0.328q-0.75-0.234-1.055-0.68t-0.305-0.961q0-0.422 0.164-0.727t0.492-0.539 0.703-0.352 0.797-0.117h0.469l0.422 0.094 0.375 0.094 0.281 0.141q0.141 0.094 0.211 0.164t0.070 0.211v0.328q0 0.188-0.117 0.188t-0.305-0.047q-0.563-0.281-1.266-0.281-0.563 0-0.891 0.188t-0.328 0.609q0 0.281 0.188 0.469t0.75 0.375l0.938 0.281q0.703 0.188 1.031 0.609t0.328 0.984q0 0.375-0.188 0.75t-0.469 0.586-0.727 0.352-0.961 0.141zM20.063 18.516q-1.594 1.172-3.844 1.875-2.109 0.609-4.219 0.609-2.859 0-5.391-0.984t-4.5-2.766q-0.188-0.141-0.070-0.281t0.258-0.047q2.203 1.266 4.734 1.945t5.156 0.68q3.984 0 7.594-1.547 0.281-0.094 0.422 0.117t-0.141 0.398zM21 17.484q-0.281-0.328-2.484-0.094h-0.094q-0.141 0.047-0.164-0.070t0.117-0.211q0.563-0.422 1.406-0.563 0.703-0.094 1.359 0t0.773 0.234 0.047 0.797-0.398 1.313q-0.328 0.75-0.891 1.219-0.141 0.094-0.234 0.070t-0.047-0.164l0.047-0.047q0.844-2.109 0.563-2.484z"></path>
</svg>
