<!-- Generated by IcoMoon.io -->
<svg version="1.1" xmlns="http://www.w3.org/2000/svg" width="24" height="24" viewBox="0 0 24 24">
<title>axis_x_arrow_lock</title>
<path d="M21.797 8.016q0.469 0 0.844 0.375t0.375 0.891v3.516q0 0.469-0.398 0.844t-0.914 0.375h-5.484q-0.469 0-0.844-0.398t-0.375-0.914v-3.516q0-0.422 0.375-0.797t0.844-0.375v-1.5q0-1.031 0.844-1.781t1.922-0.75 1.945 0.75 0.867 1.781v1.5zM20.484 8.016v-1.5q0-0.609-0.422-0.961t-1.008-0.352-0.984 0.281-0.539 0.703q-0.047 0.094-0.047 0.328v1.5h3zM1.734 22.266l1.453-5.484 1.5 2.531 4.313-2.484v-10.828h2.016v10.828l9.375 5.438-0.984 1.734-9.422-5.438-4.313 2.484 1.547 2.672z"></path>
</svg>
