<!-- Generated by IcoMoon.io -->
<svg version="1.1" xmlns="http://www.w3.org/2000/svg" width="24" height="24" viewBox="0 0 24 24">
<title>axis_y_rotate_counterclockwise</title>
<path d="M12 17.016h2.906q-0.234 2.625-1.055 4.313t-1.852 1.688q-1.172 0-2.039-2.156t-0.961-5.297l-2.016-1.125v0.563q0 2.719 0.68 5.016t1.828 3.633 2.508 1.336q1.172 0 2.227-1.031t1.758-2.859 0.938-4.078h3.094l-4.031-4.031zM12 5.016q-1.406 0-2.578 1.406t-1.781 3.75l1.734 0.984q0.375-1.875 1.078-3.023t1.594-1.148 1.664 1.43 1.102 3.68l1.172-1.219 0.703 0.703q-0.516-2.906-1.805-4.734t-2.883-1.828zM2.109 8.109l-0.984 1.781-0.047 0.047 10.031 5.813 1.594-1.594-10.547-6.094zM21.891 21.891l0.984-1.781-3.656-2.109h-1.453l-0.281 1.359z"></path>
</svg>
