<!-- Generated by IcoMoon.io -->
<svg version="1.1" xmlns="http://www.w3.org/2000/svg" width="24" height="24" viewBox="0 0 24 24">
<title>axis_x_y_arrow_lock</title>
<path d="M21.797 8.016q0.469 0 0.844 0.375t0.375 0.891v3.516q0 0.469-0.398 0.844t-0.914 0.375h-5.484q-0.469 0-0.844-0.398t-0.375-0.914v-3.516q0-0.422 0.375-0.797t0.844-0.375v-1.5q0-1.031 0.844-1.781t1.922-0.75 1.945 0.75 0.867 1.781v1.5zM20.484 8.016v-1.5q0-0.609-0.422-0.961t-1.055-0.352-1.078 0.352-0.445 0.961v1.5h3zM1.734 22.266l1.453-5.484 1.5 2.578 4.313-2.531v-10.828h2.016v10.828l6.516 3.797 1.453-2.578 1.5 5.438-5.484 1.453 1.547-2.578-6.563-3.797-4.313 2.484 1.547 2.672z"></path>
</svg>
