<!-- Generated by IcoMoon.io -->
<svg version="1.1" xmlns="http://www.w3.org/2000/svg" width="24" height="24" viewBox="0 0 24 24">
<title>axis_y_rotate_clockwise</title>
<path d="M12 12.984l3.984 4.031 4.031-4.031h-3.094q-0.234-2.25-0.938-4.078t-1.758-2.859-2.227-1.031q-1.406 0-2.578 1.406t-1.781 3.75l1.734 0.984q0.375-1.875 1.078-3.023t1.547-1.148q1.031 0 1.852 1.688t1.055 4.313h-2.906zM1.125 9.891l12.75 7.359 0.094-0.797-3.469-3.469h0.047l-8.438-4.875zM21.891 21.891l0.984-1.781-5.016-2.859q-0.141 1.172-0.375 2.109zM12 24.984q1.688 0 3.023-2.039t1.805-5.273l-0.844 0.844-1.125-1.125q-0.281 2.438-1.078 4.031t-1.781 1.594q-1.172 0-2.039-2.156t-0.961-5.297l-2.016-1.125v0.563q0 2.719 0.68 5.016t1.828 3.633 2.508 1.336z"></path>
</svg>
