<!-- Generated by IcoMoon.io -->
<svg version="1.1" xmlns="http://www.w3.org/2000/svg" width="24" height="24" viewBox="0 0 24 24">
<title>axis_z_rotate_counterclockwise</title>
<path d="M9.984 15l4.031 3.984-4.031 4.031v-3.094q-2.25-0.234-4.078-0.938t-2.859-1.758-1.031-2.227 1.031-2.227 2.859-1.758 4.078-0.938v2.016q-2.625 0.234-4.313 1.055t-1.688 1.852 1.688 1.852 4.313 1.055v-2.906zM20.016 15q0-1.031-1.688-1.852t-4.313-1.055v-2.016q2.25 0.234 4.078 0.938t2.859 1.758 1.031 2.227q0 1.594-1.828 2.883t-4.734 1.805l0.703-0.703-1.219-1.172q2.25-0.328 3.68-1.102t1.43-1.711zM11.016 5.016h1.969v10.969l-1.969-1.969v-9zM11.016 24.984v-0.984l1.969-2.016v3h-1.969z"></path>
</svg>
