<!-- Generated by IcoMoon.io -->
<svg version="1.1" xmlns="http://www.w3.org/2000/svg" width="24" height="24" viewBox="0 0 24 24">
<title>axis_z_rotate_clockwise</title>
<path d="M14.016 15l-4.031 3.984 4.031 4.031v-3.094q2.25-0.234 4.078-0.938t2.859-1.758 1.031-2.227-1.031-2.227-2.859-1.758-4.078-0.938v2.016q2.625 0.234 4.313 1.055t1.688 1.852-1.688 1.852-4.313 1.055v-2.906zM3.984 15q0-1.031 1.688-1.852t4.313-1.055v-2.016q-2.25 0.234-4.078 0.938t-2.859 1.758-1.031 2.227q0 1.594 1.828 2.883t4.734 1.805l-0.703-0.703 1.219-1.172q-2.25-0.328-3.68-1.102t-1.43-1.711zM12.984 5.016h-1.969v10.969l1.969-1.969v-9zM12.984 24.984v-0.984l-1.969-2.016v3h1.969z"></path>
</svg>
