<!-- Generated by IcoMoon.io -->
<svg version="1.1" xmlns="http://www.w3.org/2000/svg" width="24" height="24" viewBox="0 0 24 24">
<title>backup_restore</title>
<path d="M12 6q-2.438 0-4.5 1.219t-3.281 3.281-1.219 4.5h-3l3.984 3.984 4.031-3.984h-3q0-1.406 0.516-2.695t1.5-2.273 2.273-1.5 2.695-0.516 2.695 0.516 2.273 1.5 1.5 2.273 0.516 2.695q0 1.922-0.938 3.516t-2.531 2.531-3.516 0.938q-2.203 0-4.078-1.266l-1.406 1.406q2.438 1.875 5.484 1.875 2.438 0 4.5-1.219t3.281-3.281 1.219-4.5-1.219-4.5-3.281-3.281-4.5-1.219zM14.016 15q0-0.844-0.586-1.43t-1.43-0.586-1.43 0.586-0.586 1.43 0.586 1.43 1.43 0.586 1.43-0.586 0.586-1.43z"></path>
</svg>
