<!-- Generated by IcoMoon.io -->
<svg version="1.1" xmlns="http://www.w3.org/2000/svg" width="24" height="24" viewBox="0 0 24 24">
<title>backspace_reverse_outline</title>
<path d="M5.016 18.609l1.406 1.406 3.563-3.609 3.609 3.609 1.406-1.406-3.609-3.609 3.609-3.609-1.406-1.406-3.609 3.609-3.563-3.609-1.406 1.406 3.563 3.609zM2.016 6q-0.844 0-1.43 0.586t-0.586 1.43v13.969q0 0.844 0.586 1.43t1.43 0.586h15q0.984 0 1.594-0.891l5.391-8.109-5.391-8.109q-0.609-0.891-1.594-0.891h-15zM2.016 8.016h15l4.688 6.984-4.688 6.984h-15v-13.969z"></path>
</svg>
