<!-- Generated by IcoMoon.io -->
<svg version="1.1" xmlns="http://www.w3.org/2000/svg" width="24" height="24" viewBox="0 0 24 24">
<title>ballot_outline</title>
<path d="M12.984 10.5h5.016v2.016h-5.016v-2.016zM12.984 17.484h5.016v2.016h-5.016v-2.016zM18.984 6q0.844 0 1.43 0.586t0.586 1.43v13.969q0 0.844-0.586 1.43t-1.43 0.586h-13.969q-0.844 0-1.43-0.586t-0.586-1.43v-13.969q0-0.844 0.586-1.43t1.43-0.586h13.969zM18.984 21.984v-13.969h-13.969v13.969h13.969zM11.016 9v5.016h-5.016v-5.016h5.016zM9.984 12.984v-3h-3v3h3zM11.016 15.984v5.016h-5.016v-5.016h5.016zM9.984 20.016v-3h-3v3h3z"></path>
</svg>
