<!-- Generated by IcoMoon.io -->
<svg version="1.1" xmlns="http://www.w3.org/2000/svg" width="24" height="24" viewBox="0 0 24 24">
<title>ballot_recount</title>
<path d="M18.984 15v1.5q1.688 0 2.859 1.172t1.172 2.813q0 1.219-0.703 2.203l-1.078-1.078q0.281-0.516 0.281-1.125 0-1.031-0.75-1.758t-1.781-0.727v1.5l-2.25-2.25zM18.984 26.016v-1.5q-1.641 0-2.813-1.172t-1.172-2.859q0-1.172 0.656-2.203l1.125 1.078q-0.281 0.563-0.281 1.125 0 1.031 0.727 1.781t1.758 0.75v-1.5l2.25 2.25zM9.984 20.016h-3v-3h3v3zM9.984 9.984v3h-3v-3h3zM5.016 24q-0.844 0-1.43-0.586t-0.586-1.43v-13.969q0-0.844 0.586-1.43t1.43-0.586h13.969q0.844 0 1.43 0.586t0.586 1.43v6.141q-0.75-0.141-1.5-0.141-1.781 0-3.258 0.867t-2.367 2.367-0.891 3.234q0 1.922 1.031 3.516h-9zM12.984 12.516h5.016v-2.016h-5.016v2.016zM11.016 15.984h-5.016v5.016h5.016v-5.016zM11.016 9h-5.016v5.016h5.016v-5.016z"></path>
</svg>
