<!-- Generated by IcoMoon.io -->
<svg version="1.1" xmlns="http://www.w3.org/2000/svg" width="24" height="24" viewBox="0 0 24 24">
<title>ballot_recount_outline</title>
<path d="M6 21v-5.016h5.016v5.016h-5.016zM6.984 17.016v3h3v-3h-3zM12.984 10.5h5.016v2.016h-5.016v-2.016zM5.016 24q-0.844 0-1.43-0.586t-0.586-1.43v-13.969q0-0.844 0.586-1.43t1.43-0.586h13.969q0.844 0 1.43 0.586t0.586 1.43v6.141q-0.75-0.141-1.5-0.141h-0.516v-6h-13.969v13.969h8.156q0.234 1.031 0.844 2.016h-9zM11.016 9v5.016h-5.016v-5.016h5.016zM9.984 12.984v-3h-3v3h3zM18.984 15v1.5q1.688 0 2.859 1.172t1.172 2.813q0 1.219-0.703 2.203l-1.078-1.078q0.281-0.516 0.281-1.125 0-1.031-0.75-1.758t-1.781-0.727v1.5l-2.25-2.25zM18.984 26.016v-1.5q-1.641 0-2.813-1.172t-1.172-2.859q0-1.172 0.656-2.203l1.125 1.078q-0.281 0.563-0.281 1.125 0 1.031 0.727 1.781t1.758 0.75v-1.5l2.25 2.25z"></path>
</svg>
