<!-- Generated by IcoMoon.io -->
<svg version="1.1" xmlns="http://www.w3.org/2000/svg" width="24" height="24" viewBox="0 0 24 24">
<title>ballot1</title>
<path d="M12.984 12.516h5.016v-2.016h-5.016v2.016zM12.984 19.5h5.016v-2.016h-5.016v2.016zM18.984 24h-13.969q-0.844 0-1.43-0.586t-0.586-1.43v-13.969q0-0.844 0.586-1.43t1.43-0.586h13.969q0.844 0 1.43 0.586t0.586 1.43v13.969q0 0.844-0.586 1.43t-1.43 0.586zM6 14.016h5.016v-5.016h-5.016v5.016zM6.984 9.984h3v3h-3v-3zM6 21h5.016v-5.016h-5.016v5.016zM6.984 17.016h3v3h-3v-3z"></path>
</svg>
