<!-- Generated by IcoMoon.io -->
<svg version="1.1" xmlns="http://www.w3.org/2000/svg" width="24" height="24" viewBox="0 0 24 24">
<title>bandage</title>
<path d="M17.719 15l3.984-3.938q0.281-0.328 0.281-0.75t-0.281-0.703l-4.313-4.313q-0.281-0.281-0.703-0.281t-0.75 0.281l-3.938 3.984-3.984-3.984q-0.328-0.281-0.727-0.281t-0.68 0.281l-4.359 4.313q-0.281 0.281-0.281 0.703t0.281 0.75l3.984 3.938-3.984 3.984q-0.281 0.328-0.281 0.727t0.281 0.68l4.359 4.359q0.281 0.281 0.68 0.281t0.727-0.281l3.984-3.984 3.938 3.984q0.328 0.281 0.727 0.281t0.727-0.281l4.313-4.359q0.328-0.281 0.328-0.68t-0.328-0.727zM12 12q0.422 0 0.703 0.281t0.281 0.703-0.281 0.727-0.703 0.305-0.703-0.305-0.281-0.727 0.281-0.703 0.703-0.281zM7.313 13.969l-3.656-3.609 3.656-3.656 3.609 3.609zM9.984 15.984q-0.422 0-0.703-0.281t-0.281-0.703 0.281-0.703 0.703-0.281 0.727 0.281 0.305 0.703-0.305 0.703-0.727 0.281zM12 18q-0.422 0-0.703-0.281t-0.281-0.703 0.281-0.727 0.703-0.305 0.703 0.305 0.281 0.727-0.281 0.703-0.703 0.281zM14.016 14.016q0.422 0 0.703 0.281t0.281 0.703-0.281 0.703-0.703 0.281-0.727-0.281-0.305-0.703 0.305-0.703 0.727-0.281zM16.641 23.344l-3.609-3.609 3.609-3.656 3.656 3.609z"></path>
</svg>
