<!-- Generated by IcoMoon.io -->
<svg version="1.1" xmlns="http://www.w3.org/2000/svg" width="24" height="24" viewBox="0 0 24 24">
<title>bank_remove</title>
<path d="M14.438 18.891l1.453-1.453 2.109 2.156 2.109-2.156 1.453 1.453-2.156 2.109 2.156 2.109-1.453 1.453-2.109-2.156-2.109 2.156-1.453-1.453 2.156-2.109zM11.484 3.984l9.516 5.016v2.016h-18.984v-2.016zM15.984 12.984h3v2.109l-0.984-0.094q-1.031 0-2.016 0.328v-2.344zM2.016 24.984v-3h10.078q0.281 1.688 1.453 3h-11.531zM9.984 12.984h3v4.688q-0.703 1.078-0.891 2.344h-2.109v-7.031zM3.984 12.984h3v7.031h-3v-7.031z"></path>
</svg>
