<!-- Generated by IcoMoon.io -->
<svg version="1.1" xmlns="http://www.w3.org/2000/svg" width="24" height="24" viewBox="0 0 24 24">
<title>barcode_scan</title>
<path d="M3.984 9h2.016v12h-2.016v-12zM6.984 9h1.031v12h-1.031v-12zM9 9h3v12h-3v-12zM12.984 9h1.031v12h-1.031v-12zM15.984 9h2.016v12h-2.016v-12zM18.984 9h1.031v12h-1.031v-12zM2.016 6.984v4.031h-2.016v-4.031q0-0.797 0.586-1.383t1.43-0.586h3.984v1.969h-3.984zM21.984 5.016q0.844 0 1.43 0.586t0.586 1.383v4.031h-2.016v-4.031h-3.984v-1.969h3.984zM2.016 18.984v4.031h3.984v1.969h-3.984q-0.844 0-1.43-0.586t-0.586-1.383v-4.031h2.016zM21.984 23.016v-4.031h2.016v4.031q0 0.797-0.586 1.383t-1.43 0.586h-3.984v-1.969h3.984z"></path>
</svg>
