<!-- Generated by IcoMoon.io -->
<svg version="1.1" xmlns="http://www.w3.org/2000/svg" width="24" height="24" viewBox="0 0 24 24">
<title>barley</title>
<path d="M7.313 21.328q-0.516-0.75-0.703-1.828-0.094-0.656-0.094-2.016 1.641 0.984 2.391 1.547 1.219 0.844 1.781 1.641l0.328 0.563v-2.297q-1.359-0.797-2.109-1.359-1.078-0.797-1.594-1.523t-0.703-1.805q-0.094-0.656-0.094-2.016 1.641 0.984 2.391 1.547 1.219 0.844 1.781 1.641l0.328 0.563v-2.297q-1.359-0.797-2.109-1.359-1.078-0.797-1.594-1.523t-0.703-1.805q-0.094-0.656-0.094-2.016 1.641 0.984 2.391 1.547 1.219 0.844 1.781 1.641 0.141 0.188 0.234 0.469-0.281-1.031-0.281-1.828 0-0.984 0.422-2.297 0.234-0.75 0.891-2.297 0.703 1.453 0.938 2.203 0.469 1.266 0.469 2.25 0 0.891-0.281 1.922l0.234-0.422q0.563-0.797 1.781-1.641 0.75-0.563 2.391-1.547 0 1.359-0.094 2.016-0.188 1.078-0.703 1.805t-1.594 1.523q-0.75 0.563-2.109 1.359v2.297l0.328-0.563q0.563-0.797 1.781-1.641 0.75-0.563 2.391-1.547 0 1.359-0.094 2.016-0.188 1.078-0.703 1.805t-1.594 1.523q-0.75 0.563-2.109 1.359v2.297l0.328-0.563q0.563-0.797 1.781-1.641 0.75-0.563 2.391-1.547 0 1.359-0.094 2.016-0.188 1.078-0.703 1.805t-1.594 1.523q-0.75 0.563-2.109 1.359v1.828h-1.969v-1.828q-1.359-0.797-2.109-1.359-1.078-0.797-1.594-1.5z"></path>
</svg>
