<!-- Generated by IcoMoon.io -->
<svg version="1.1" xmlns="http://www.w3.org/2000/svg" width="24" height="24" viewBox="0 0 24 24">
<title>barley_off</title>
<path d="M11.953 4.219q-0.656 1.547-0.891 2.297-0.422 1.313-0.422 2.297 0 0.797 0.281 1.828-0.094-0.281-0.234-0.469-0.563-0.797-1.781-1.641-0.75-0.563-2.391-1.547 0 1.594 0.188 2.391l6.281 6.328v-2.016q1.359-0.797 2.109-1.359 1.078-0.797 1.594-1.523t0.703-1.805q0.094-0.656 0.094-2.016-1.641 0.984-2.391 1.547-1.219 0.844-1.781 1.641l-0.234 0.422q0.281-1.031 0.281-1.922 0-0.984-0.469-2.25-0.234-0.75-0.938-2.203zM3.281 8.484l-1.266 1.266 4.641 4.641q0.141 0.984 0.656 1.688t1.594 1.5q0.75 0.563 2.109 1.359v2.297l-0.328-0.563q-0.563-0.797-1.781-1.641-0.75-0.563-2.391-1.547 0 1.359 0.094 2.016 0.188 1.078 0.703 1.805t1.594 1.523q0.75 0.563 2.109 1.359v1.828h1.969v-1.828q1.313-0.75 2.063-1.359l3.703 3.656 1.266-1.266zM17.484 12.234q-1.641 0.984-2.391 1.547-1.219 0.844-1.781 1.641l-0.188 0.375 1.875 1.875q1.172-0.891 1.688-1.617t0.703-1.805q0.094-0.656 0.094-2.016zM17.484 17.484q-0.938 0.563-1.641 1.031l1.453 1.453q0.188-0.797 0.188-2.484z"></path>
</svg>
