<!-- Generated by IcoMoon.io -->
<svg version="1.1" xmlns="http://www.w3.org/2000/svg" width="24" height="24" viewBox="0 0 24 24">
<title>baseball</title>
<path d="M12 5.016q-1.828 0-3.492 0.609t-3.023 1.781q0.656 0.516 1.313 1.359l1.078-0.656 1.031 1.781-1.031 0.563q0.891 1.688 1.078 3.563h1.031v1.969h-1.031q-0.188 1.875-1.078 3.563l1.031 0.563-1.031 1.781-1.078-0.656q-0.656 0.844-1.313 1.359 1.359 1.172 3.023 1.781t3.492 0.609 3.492-0.609 3.023-1.781q-0.609-0.469-1.313-1.359l-1.078 0.656-1.031-1.781 1.031-0.563q-0.891-1.688-1.078-3.563h-1.031v-1.969h1.031q0.188-1.875 1.078-3.563l-1.031-0.563 1.031-1.781 1.078 0.656q0.703-0.891 1.313-1.359-1.359-1.172-3.023-1.781t-3.492-0.609zM4.125 8.859q-2.109 2.719-2.109 6.141t2.109 6.141q0.422-0.328 0.938-0.938l-0.609-0.328 0.984-1.734 0.703 0.422q0.609-1.219 0.797-2.578h-0.938v-1.969h0.938q-0.188-1.359-0.797-2.578l-0.703 0.422-0.984-1.734 0.609-0.328q-0.516-0.609-0.938-0.938zM19.875 8.859q-0.422 0.328-0.938 0.938l0.609 0.328-0.984 1.734-0.703-0.422q-0.609 1.219-0.797 2.578h0.938v1.969h-0.938q0.188 1.359 0.797 2.578l0.703-0.422 0.984 1.734-0.609 0.328q0.516 0.609 0.938 0.938 2.109-2.719 2.109-6.141t-2.109-6.141z"></path>
</svg>
