<!-- Generated by IcoMoon.io -->
<svg version="1.1" xmlns="http://www.w3.org/2000/svg" width="24" height="24" viewBox="0 0 24 24">
<title>baseball_bat</title>
<path d="M20.016 5.016q-0.375 0-0.703 0.281l-9.516 9.516-2.578 3.516-3.234 3.281-0.281-0.328q-0.328-0.281-0.727-0.281t-0.68 0.281-0.281 0.703 0.281 0.703l2.016 2.016q0.281 0.328 0.68 0.328t0.703-0.281 0.305-0.703-0.281-0.75l-0.328-0.281 3.234-3.234 3.563-2.578 9.516-9.516q0.281-0.281 0.281-0.703t-0.281-0.703l-0.984-0.984q-0.328-0.281-0.703-0.281zM18.516 15.984q-1.031 0-1.781 0.75t-0.75 1.781 0.75 1.758 1.781 0.727 1.758-0.727 0.727-1.758-0.727-1.781-1.758-0.75z"></path>
</svg>
