<!-- Generated by IcoMoon.io -->
<svg version="1.1" xmlns="http://www.w3.org/2000/svg" width="24" height="24" viewBox="0 0 24 24">
<title>bash</title>
<path d="M5.016 12h2.297l0.328-3h1.969l-0.281 3h1.969l0.328-3h2.016l-0.328 3h1.688v2.016h-1.922l-0.188 1.969h2.109v2.016h-2.297l-0.328 3h-2.016l0.328-3h-2.016l-0.281 3h-2.016l0.328-3h-1.688v-2.016h1.875l0.188-1.969h-2.063v-2.016zM9.094 14.016l-0.188 1.969h2.016l0.188-1.969h-2.016zM18.984 9h-1.969v8.016h1.969v-8.016zM18.984 18.984h-1.969v2.016h1.969v-2.016z"></path>
</svg>
