<!-- Generated by IcoMoon.io -->
<svg version="1.1" xmlns="http://www.w3.org/2000/svg" width="24" height="24" viewBox="0 0 24 24">
<title>basket_unfill</title>
<path d="M3 12.984h3v-3h-3v3zM5.016 8.016h3v-3h-3v3zM8.016 12.984h3v-3h-3v3zM17.016 3.984l-5.016 5.016h3v3.984h3.984v-3.984h3zM7.5 24.984q-0.563 0-1.055-0.305t-0.727-0.773l-2.625-7.453-0.094-0.469q0-0.422 0.281-0.703t0.703-0.281h16.031q0.422 0 0.703 0.281t0.281 0.703l-0.047 0.328-2.672 7.594q-0.234 0.469-0.727 0.773t-1.055 0.305h-9zM7.594 23.016h8.813l2.156-6h-13.125z"></path>
</svg>
