<!-- Generated by IcoMoon.io -->
<svg version="1.1" xmlns="http://www.w3.org/2000/svg" width="24" height="24" viewBox="0 0 24 24">
<title>basketball_hoop_outline</title>
<path d="M21 5.016h-18q-0.844 0-1.43 0.586t-0.586 1.383v12q0 0.844 0.586 1.43t1.43 0.586h3.563l1.453 5.016 1.969-2.016 2.016 2.016 2.016-2.016 1.969 2.016 1.453-5.016h3.563q0.844 0 1.43-0.586t0.586-1.43v-12q0-0.797-0.586-1.383t-1.43-0.586zM21 18.984h-3v-1.969h-0.984v-5.016q0-0.844-0.586-1.43t-1.43-0.586h-6q-0.844 0-1.43 0.586t-0.586 1.43v5.016h-0.984v1.969h-3v-12h18v12zM9 17.016v-5.016h6v5.016h-6z"></path>
</svg>
