<!-- Generated by IcoMoon.io -->
<svg version="1.1" xmlns="http://www.w3.org/2000/svg" width="24" height="24" viewBox="0 0 24 24">
<title>basketball</title>
<path d="M2.344 17.625q0.891-0.328 1.875-0.328 2.016 0 3.516 1.266l-3.141 3.141q-1.594-1.781-2.25-4.078zM15.563 12.797q2.953 2.203 6.375 1.078 0.047 0.422 0.047 1.125 0 1.5-0.703 3.422t-1.734 3.094l-6.328-6.328zM8.766 19.641q1.594 2.297 0.656 5.016-2.203-0.609-3.75-1.922zM12.188 16.219l6.328 6.328q-3.281 2.859-7.641 2.391 0.328-0.984 0.328-2.156 0-0.938-0.422-2.18t-0.984-2.039zM8.813 17.484q-1.359-1.219-3.211-1.57t-3.539 0.211q-0.047-0.422-0.047-1.125 0-1.5 0.703-3.422t1.734-3.094l6.656 6.703zM15.563 10.734q-2.016-2.484-0.938-5.391 0.984 0.234 2.133 0.914t1.945 1.336zM21.656 12.375q-0.891 0.328-1.875 0.328-1.641 0-3.141-0.984l3.094-3.047q1.313 1.641 1.922 3.703zM12.188 14.109l-6.703-6.656q3.281-2.859 7.641-2.391-0.328 0.984-0.328 2.109t0.516 2.508 1.172 2.133z"></path>
</svg>
