<!-- Generated by IcoMoon.io -->
<svg version="1.1" xmlns="http://www.w3.org/2000/svg" width="24" height="24" viewBox="0 0 24 24">
<title>basketball_hoop</title>
<path d="M21 5.016h-18q-0.844 0-1.43 0.586t-0.586 1.383v12q0 0.844 0.586 1.43t1.43 0.586h2.016v-3.984h13.969v3.984h2.016q0.844 0 1.43-0.586t0.586-1.43v-12q0-0.797-0.586-1.383t-1.43-0.586zM17.016 15h-2.016v-3h-6v3h-2.016v-3q0-0.844 0.586-1.43t1.43-0.586h6q0.844 0 1.43 0.586t0.586 1.43v3zM6.984 18.984v3.516l1.031 3.516 1.969-2.016 2.016 2.016 2.016-2.016 1.969 2.016 1.031-3.516v-3.516h-10.031z"></path>
</svg>
