<!-- Generated by IcoMoon.io -->
<svg version="1.1" xmlns="http://www.w3.org/2000/svg" width="24" height="24" viewBox="0 0 24 24">
<title>basket_outline</title>
<path d="M21.984 12h-4.781l-4.359-6.563q-0.328-0.422-0.844-0.422t-0.844 0.422l-4.359 6.563h-4.781q-0.422 0-0.727 0.305t-0.305 0.68q0 0.188 0.047 0.281l2.531 9.281q0.188 0.609 0.727 1.031t1.195 0.422h13.031q0.656 0 1.195-0.422t0.727-1.031l2.531-9.281 0.047-0.281q0-0.375-0.305-0.68t-0.727-0.305zM12 7.781l2.813 4.219h-5.625zM18.516 21.984h-13.031l-2.156-7.969h17.391zM12 15.984q-0.844 0-1.43 0.586t-0.586 1.43 0.586 1.43 1.43 0.586 1.43-0.586 0.586-1.43-0.586-1.43-1.43-0.586z"></path>
</svg>
