<!-- Generated by IcoMoon.io -->
<svg version="1.1" xmlns="http://www.w3.org/2000/svg" width="24" height="24" viewBox="0 0 24 24">
<title>basket</title>
<path d="M5.484 24q-0.563 0-1.031-0.305t-0.75-0.773l-2.625-9.469-0.094-0.469q0-0.422 0.305-0.703t0.727-0.281h4.547l4.641-6.563q0.281-0.422 0.797-0.422t0.844 0.422l4.594 6.563h4.547q0.422 0 0.727 0.281t0.305 0.703l-0.047 0.328-2.672 9.609q-0.281 0.469-0.75 0.773t-1.031 0.305h-13.031zM12 7.734l-3 4.266h6zM12 15.984q-0.844 0-1.43 0.586t-0.586 1.43 0.586 1.43 1.43 0.586 1.43-0.586 0.586-1.43-0.586-1.43-1.43-0.586z"></path>
</svg>
