<!-- Generated by IcoMoon.io -->
<svg version="1.1" xmlns="http://www.w3.org/2000/svg" width="24" height="24" viewBox="0 0 24 24">
<title>battery_charging_wireless_80</title>
<path d="M20.063 7.922l-1.406 1.406q1.547 1.547 2.086 3.609t0 4.125-2.086 3.609l1.406 1.406q1.922-1.922 2.602-4.5t0-5.156-2.602-4.5zM17.25 10.781l-1.406 1.406q1.172 1.172 1.172 2.813t-1.172 2.813l1.406 1.406q1.125-1.125 1.547-2.672t0-3.094-1.547-2.672zM12.984 6.984h-1.969v-1.969h-6v1.969h-2.016q-0.422 0-0.703 0.305t-0.281 0.727v15.984q0 0.422 0.281 0.703t0.703 0.281h9.984q0.422 0 0.727-0.281t0.305-0.703v-15.984q0-0.422-0.305-0.727t-0.727-0.305zM12 12h-8.016v-3h8.016v3z"></path>
</svg>
