<!-- Generated by IcoMoon.io -->
<svg version="1.1" xmlns="http://www.w3.org/2000/svg" width="24" height="24" viewBox="0 0 24 24">
<title>bell_check</title>
<path d="M17.766 24.141l-2.766-3 1.172-1.125 1.594 1.594 3.563-3.609 1.172 1.406zM3 23.016v-1.031l2.016-1.969v-6q0-2.344 1.383-4.195t3.586-2.508v-0.328q0-0.797 0.586-1.383t1.43-0.586 1.43 0.586 0.586 1.383v0.328q2.203 0.656 3.586 2.508t1.383 4.195v1.078l-0.984-0.094q-1.641 0-3.023 0.797t-2.18 2.18-0.797 3.023q0 1.031 0.328 2.016h-9.328zM12 26.016q-0.844 0-1.43-0.586t-0.586-1.43h2.813q0.375 0.609 0.844 1.125-0.563 0.891-1.641 0.891z"></path>
</svg>
