<!-- Generated by IcoMoon.io -->
<svg version="1.1" xmlns="http://www.w3.org/2000/svg" width="24" height="24" viewBox="0 0 24 24">
<title>bell_circle_outline</title>
<path d="M17.016 18.984h-10.031v-0.984l1.031-0.984v-2.625q0-1.641 0.773-2.859t2.227-1.547v-0.469q0-0.422 0.281-0.727t0.703-0.305 0.703 0.305 0.281 0.727v0.469q1.453 0.328 2.227 1.547t0.773 2.859v2.625l1.031 0.984v0.984zM13.5 20.016q0 0.609-0.445 1.055t-1.055 0.445-1.055-0.445-0.445-1.055h3zM12 5.016q1.969 0 3.82 0.75t3.258 2.156 2.156 3.258 0.75 3.82-0.75 3.82-2.156 3.258-3.258 2.156-3.82 0.75-3.82-0.75-3.258-2.156-2.156-3.258-0.75-3.82 0.75-3.82 2.156-3.258 3.258-2.156 3.82-0.75zM12 6.984q-1.594 0-3.070 0.609t-2.602 1.734-1.734 2.602-0.609 3.070q0 2.156 1.078 4.008t2.93 2.93 4.008 1.078 4.008-1.078 2.93-2.93 1.078-4.008q0-1.594-0.609-3.070t-1.734-2.602-2.602-1.734-3.070-0.609z"></path>
</svg>
