<!-- Generated by IcoMoon.io -->
<svg version="1.1" xmlns="http://www.w3.org/2000/svg" width="24" height="24" viewBox="0 0 24 24">
<title>bell_ring_outline</title>
<path d="M9.984 24h4.031q0 0.844-0.586 1.43t-1.43 0.586-1.43-0.586-0.586-1.43zM21 21.984v1.031h-18v-1.031l2.016-1.969v-6q0-2.344 1.383-4.195t3.586-2.508v-0.328q0-0.797 0.586-1.383t1.43-0.586 1.43 0.586 0.586 1.383v0.328q2.203 0.656 3.586 2.508t1.383 4.195v6zM17.016 14.016q0-1.359-0.68-2.508t-1.828-1.828-2.508-0.68-2.508 0.68-1.828 1.828-0.68 2.508v6.984h10.031v-6.984zM19.734 6.188l-1.406 1.406q1.266 1.266 1.969 2.93t0.703 3.492h2.016q0-2.203-0.844-4.242t-2.438-3.586zM0.984 14.016h2.016q0-1.828 0.703-3.492t1.969-2.93l-1.406-1.406q-1.594 1.547-2.438 3.586t-0.844 4.242z"></path>
</svg>
