<!-- Generated by IcoMoon.io -->
<svg version="1.1" xmlns="http://www.w3.org/2000/svg" width="24" height="24" viewBox="0 0 24 24">
<title>bell_off_outline</title>
<path d="M22.125 24.469l-19.734-19.734-1.266 1.266 4.688 4.734q-0.797 1.547-0.797 3.281v6l-2.016 1.969v1.031h15.094l2.766 2.719zM6.984 21v-6.984q0-0.938 0.375-1.781l8.766 8.766h-9.141zM9.984 24h4.031q0 0.844-0.586 1.43t-1.43 0.586-1.43-0.586-0.586-1.43zM8.297 8.109q0.703-0.469 1.688-0.797v-0.328q0-0.797 0.586-1.383t1.43-0.586 1.43 0.586 0.586 1.383v0.328q2.203 0.656 3.586 2.508t1.383 4.195v4.781l-1.969-2.016v-2.766q0-1.359-0.68-2.508t-1.828-1.828-2.508-0.68q-1.172 0-2.25 0.563z"></path>
</svg>
