<!-- Generated by IcoMoon.io -->
<svg version="1.1" xmlns="http://www.w3.org/2000/svg" width="24" height="24" viewBox="0 0 24 24">
<title>bell_plus_outline</title>
<path d="M9.984 24h4.031q0 0.844-0.586 1.43t-1.43 0.586-1.43-0.586-0.586-1.43zM21 21.984v1.031h-18v-1.031l2.016-1.969v-6q0-2.344 1.383-4.195t3.586-2.508v-0.328q0-0.797 0.586-1.383t1.43-0.586 1.43 0.586 0.586 1.383v0.328q2.203 0.656 3.586 2.508t1.383 4.195v6zM17.016 14.016q0-1.359-0.68-2.508t-1.828-1.828-2.508-0.68-2.508 0.68-1.828 1.828-0.68 2.508v6.984h10.031v-6.984zM15 15.984h-2.016v2.016h-1.969v-2.016h-2.016v-1.969h2.016v-2.016h1.969v2.016h2.016v1.969z"></path>
</svg>
