<!-- Generated by IcoMoon.io -->
<svg version="1.1" xmlns="http://www.w3.org/2000/svg" width="24" height="24" viewBox="0 0 24 24">
<title>bell_outline</title>
<path d="M15.984 20.016h-9v-6.516q0-1.875 1.313-3.188t3.188-1.313 3.188 1.313 1.313 3.188v6.516zM18 18.984v-5.484q0-2.297-1.406-4.055t-3.609-2.273v-0.656q0-0.656-0.422-1.078t-1.055-0.422-1.078 0.422-0.445 1.078v0.656q-2.156 0.516-3.563 2.273t-1.406 4.055v5.484l-2.016 2.016v0.984h17.016v-0.984zM11.484 24.984q0.844 0 1.43-0.586t0.586-1.383h-3.984q0 0.797 0.586 1.383t1.383 0.586z"></path>
</svg>
