<!-- Generated by IcoMoon.io -->
<svg version="1.1" xmlns="http://www.w3.org/2000/svg" width="24" height="24" viewBox="0 0 24 24">
<title>bell_circle</title>
<path d="M12 5.016q1.969 0 3.82 0.75t3.258 2.156 2.156 3.258 0.75 3.82-0.75 3.82-2.156 3.258-3.258 2.156-3.82 0.75-3.82-0.75-3.258-2.156-2.156-3.258-0.75-3.82 0.75-3.82 2.156-3.258 3.258-2.156 3.82-0.75zM17.016 18.984v-0.984l-1.031-0.984v-2.625q0-1.641-0.773-2.859t-2.227-1.547v-0.469q0-0.422-0.281-0.727t-0.703-0.305-0.703 0.305-0.281 0.727v0.469q-1.453 0.328-2.227 1.547t-0.773 2.859v2.625l-1.031 0.984v0.984h10.031zM13.5 20.016h-3q0 0.609 0.445 1.055t1.055 0.445 1.055-0.445 0.445-1.055z"></path>
</svg>
