<!-- Generated by IcoMoon.io -->
<svg version="1.1" xmlns="http://www.w3.org/2000/svg" width="24" height="24" viewBox="0 0 24 24">
<title>bell_sleep</title>
<path d="M9.984 24h4.031q0 0.844-0.586 1.43t-1.43 0.586-1.43-0.586-0.586-1.43zM21 21.984v1.031h-18v-1.031l2.016-1.969v-6q0-2.344 1.383-4.195t3.586-2.508v-0.328q0-0.797 0.586-1.383t1.43-0.586 1.43 0.586 0.586 1.383v0.328q2.203 0.656 3.586 2.508t1.383 4.195v6zM15 12h-6v2.016h3.234l-3.234 2.672v2.297h6v-1.969h-3.234l3.234-2.719v-2.297z"></path>
</svg>
