<!-- Generated by IcoMoon.io -->
<svg version="1.1" xmlns="http://www.w3.org/2000/svg" width="24" height="24" viewBox="0 0 24 24">
<title>bicycle</title>
<path d="M18.984 12.984q-0.75 0-1.594 0.281l-2.953-5.766h-3.422v1.5h2.531l0.891 1.734-2.438 5.391-1.781-4.172q0.234-0.094 0.375-0.281t0.141-0.469-0.211-0.492-0.539-0.211h-1.969q-0.328 0-0.563 0.211t-0.234 0.539 0.234 0.539 0.563 0.211h0.609l2.25 5.25h-0.938q-0.281-1.828-1.688-3.047t-3.234-1.219q-1.359 0-2.508 0.68t-1.828 1.828-0.68 2.508 0.68 2.508 1.828 1.828 2.508 0.68q1.828 0 3.234-1.219t1.688-3.047h2.578l2.766-6.328 0.797 1.547q-0.984 0.703-1.523 1.758t-0.539 2.273q0 1.359 0.656 2.508t1.805 1.828 2.508 0.68 2.508-0.68 1.828-1.828 0.68-2.508-0.68-2.508-1.828-1.828-2.508-0.68zM5.016 21.516q-1.453 0-2.484-1.031t-1.031-2.484 1.031-2.484 2.484-1.031q1.219 0 2.18 0.797t1.195 1.969h-4.406v1.5h4.406q-0.234 1.172-1.195 1.969t-2.18 0.797zM18.984 21.516q-1.453 0-2.461-1.031t-1.008-2.484q0-0.797 0.328-1.477t0.938-1.195l1.781 3.516 1.313-0.703-1.781-3.516q0.563-0.141 0.891-0.141 1.453 0 2.484 1.031t1.031 2.484-1.031 2.484-2.484 1.031z"></path>
</svg>
