<!-- Generated by IcoMoon.io -->
<svg version="1.1" xmlns="http://www.w3.org/2000/svg" width="24" height="24" viewBox="0 0 24 24">
<title>bike</title>
<path d="M5.016 23.484q-1.453 0-2.484-1.008t-1.031-2.461 1.031-2.484 2.484-1.031 2.461 1.031 1.008 2.484-1.008 2.461-2.461 1.008zM5.016 15q-1.359 0-2.508 0.68t-1.828 1.828-0.68 2.508q0 0.984 0.375 1.898t1.078 1.617 1.617 1.078 1.945 0.375q1.359 0 2.508-0.656t1.805-1.805 0.656-2.508-0.656-2.508-1.805-1.828-2.508-0.68zM14.813 12.984h4.172v-1.781h-3.188l-1.922-3.281q-0.234-0.375-0.633-0.609t-0.82-0.234q-0.75 0-1.219 0.516l-3.703 3.703q-0.516 0.516-0.516 1.219 0 0.938 0.844 1.453l3.375 2.016v5.016h1.781v-6.516l-2.25-1.641 2.344-2.344zM18.984 23.484q-1.453 0-2.461-1.008t-1.008-2.461 1.008-2.484 2.461-1.031 2.484 1.031 1.031 2.484-1.031 2.461-2.484 1.008zM18.984 15q-1.359 0-2.508 0.68t-1.805 1.828-0.656 2.508q0 0.984 0.375 1.898t1.078 1.617 1.617 1.078 1.922 0.375 1.922-0.375 1.617-1.078 1.078-1.617 0.375-1.898q0-1.359-0.68-2.508t-1.828-1.828-2.508-0.68zM15.984 7.781q0.75 0 1.289-0.516t0.539-1.266-0.539-1.266-1.289-0.516-1.266 0.516-0.516 1.266 0.516 1.266 1.266 0.516z"></path>
</svg>
