<!-- Generated by IcoMoon.io -->
<svg version="1.1" xmlns="http://www.w3.org/2000/svg" width="24" height="24" viewBox="0 0 24 24">
<title>bike_fast</title>
<path d="M15.984 4.219q-0.75 0-1.266 0.516t-0.516 1.266 0.516 1.266 1.266 0.516 1.289-0.516 0.539-1.266-0.539-1.266-1.289-0.516zM12.422 7.078q-0.75 0-1.219 0.516l-3.703 3.703q-0.516 0.516-0.516 1.219 0 0.938 0.844 1.453l3.375 2.016v5.016h1.781v-6.516l-2.25-1.641 2.344-2.344 1.734 2.484h4.172v-1.781h-3.188l-1.922-3.281q-0.234-0.375-0.633-0.609t-0.82-0.234zM9.984 6h-6.984q-0.422 0-0.703-0.305t-0.281-0.703 0.281-0.703 0.703-0.305h9.797q-0.375 0.563-0.469 1.125-1.313 0.047-2.344 0.891zM5.016 15q-1.359 0-2.508 0.68t-1.828 1.828-0.68 2.508 0.68 2.508 1.828 1.805 2.508 0.656 2.508-0.656 1.805-1.805 0.656-2.508-0.656-2.508-1.805-1.828-2.508-0.68zM5.016 23.484q-1.453 0-2.484-1.008t-1.031-2.461 1.031-2.484 2.484-1.031 2.461 1.031 1.008 2.484-1.008 2.461-2.461 1.008zM18.984 15q-1.359 0-2.508 0.68t-1.805 1.828-0.656 2.508 0.656 2.508 1.805 1.805 2.508 0.656 2.508-0.656 1.828-1.805 0.68-2.508-0.68-2.508-1.828-1.828-2.508-0.68zM18.984 23.484q-1.453 0-2.461-1.008t-1.008-2.461 1.008-2.484 2.461-1.031 2.484 1.031 1.031 2.484-1.031 2.461-2.484 1.008zM5.297 14.016h-4.313q-0.375 0-0.68-0.305t-0.305-0.703 0.305-0.703 0.68-0.305h4.078l-0.047 0.516q0 0.75 0.281 1.5zM6 9.984h-3.984q-0.422 0-0.727-0.281t-0.305-0.703 0.305-0.703 0.727-0.281h5.953l-1.875 1.875q-0.094 0.047-0.094 0.094z"></path>
</svg>
