<!-- Generated by IcoMoon.io -->
<svg version="1.1" xmlns="http://www.w3.org/2000/svg" width="24" height="24" viewBox="0 0 24 24">
<title>billboard</title>
<path d="M20.016 24.984h-2.016v-4.969h2.016v4.969zM6 24.984h-2.016v-4.969h2.016v4.969zM23.016 6.984v9q0 0.844-0.586 1.43t-1.43 0.586h-18q-0.844 0-1.43-0.586t-0.586-1.43v-9q0-0.797 0.586-1.383t1.43-0.586h18q0.844 0 1.43 0.586t0.586 1.383zM21 6.984h-18v9h18v-9zM20.016 9h-5.016v2.016h5.016v-2.016zM18 12h-3v2.016h3v-2.016zM14.016 14.016h-10.031l2.766-3.656 1.969 2.719 0.75-0.516-1.266-1.734 1.688-2.297z"></path>
</svg>
