<!-- Generated by IcoMoon.io -->
<svg version="1.1" xmlns="http://www.w3.org/2000/svg" width="24" height="24" viewBox="0 0 24 24">
<title>block_helper</title>
<path d="M12 3q3.281 0 6.023 1.617t4.359 4.359 1.617 6.023-1.617 6.023-4.359 4.359-6.023 1.617-6.023-1.617-4.359-4.359-1.617-6.023 1.617-6.023 4.359-4.359 6.023-1.617zM12 5.016q-1.969 0-3.82 0.75t-3.258 2.156-2.156 3.258-0.75 3.82q0 1.781 0.586 3.398t1.664 2.93l14.063-14.063q-1.313-1.078-2.93-1.664t-3.398-0.586zM12 24.984q1.969 0 3.82-0.75t3.258-2.156 2.156-3.258 0.75-3.82q0-1.781-0.586-3.398t-1.664-2.93l-14.063 14.063q1.313 1.078 2.93 1.664t3.398 0.586z"></path>
</svg>
