<!-- Generated by IcoMoon.io -->
<svg version="1.1" xmlns="http://www.w3.org/2000/svg" width="24" height="24" viewBox="0 0 24 24">
<title>blood_bag</title>
<path d="M21 9.984q-0.422 0-0.703-0.234-0.188-0.188-0.281-0.469v-1.266h-2.016v1.969h-2.016v-0.984q0-1.031-0.469-2.063-0.656-1.266-1.828-2.016-1.5-0.938-3.68-0.938t-3.68 0.938q-1.219 0.75-1.828 2.016-0.516 1.031-0.516 2.063v12.984q0 0.656-0.281 1.125-0.469 0.891-1.688 0.891v2.016q1.969 0 3.094-1.406 0.891-1.125 0.891-2.625v-12.984q0-0.797 0.516-1.547 0.984-1.453 3.445-1.453t3.492 1.406q0.563 0.75 0.563 1.594v0.984h-2.016v-1.969h-2.016v1.266q-0.094 0.281-0.281 0.469-0.281 0.234-0.703 0.234-0.609 0-0.891 0.516-0.094 0.234-0.094 0.516v12l0.047 0.281q0.188 0.375 0.563 0.703 0.563 0.422 1.5 0.703 1.172 0.281 2.859 0.281h4.031q1.688 0 2.859-0.281 0.938-0.281 1.5-0.703 0.375-0.328 0.563-0.703l0.047-0.281v-12.281q-0.094-0.281-0.281-0.469-0.281-0.281-0.703-0.281zM15 22.406q-1.266 0-2.133-0.891t-0.867-2.109q0-0.891 0.797-2.297 0.516-0.984 1.406-2.156l0.797-0.938 0.797 0.938q0.891 1.172 1.406 2.156 0.797 1.406 0.797 2.297 0 1.219-0.867 2.109t-2.133 0.891z"></path>
</svg>
