<!-- Generated by IcoMoon.io -->
<svg version="1.1" xmlns="http://www.w3.org/2000/svg" width="24" height="24" viewBox="0 0 24 24">
<title>book_open_page_variant</title>
<path d="M18.984 5.016l-4.969 4.5v10.969l4.969-4.5v-10.969zM6.516 8.016q-3.516 0-5.531 1.5v14.625q0 0.188 0.164 0.352t0.352 0.164l0.234-0.047q1.031-0.516 2.344-0.82t2.438-0.305q3.516 0 5.484 1.5 0.984-0.609 2.602-1.055t2.883-0.445q2.766 0 4.781 1.078 0.047 0.047 0.188 0.047h0.047q0.188 0 0.352-0.164t0.164-0.352v-14.578q-0.797-0.609-2.016-1.031v13.5q-1.594-0.469-3.516-0.469-1.266 0-2.883 0.422t-2.602 1.078v-13.5q-1.969-1.5-5.484-1.5v0z"></path>
</svg>
