<!-- Generated by IcoMoon.io -->
<svg version="1.1" xmlns="http://www.w3.org/2000/svg" width="24" height="24" viewBox="0 0 24 24">
<title>book_remove</title>
<path d="M18 24.984h-12q-0.844 0-1.43-0.586t-0.586-1.383v-16.031q0-0.797 0.586-1.383t1.43-0.586h0.984v6.984l2.531-1.5 2.484 1.5v-6.984h6q0.844 0 1.43 0.586t0.586 1.383v16.031q0 0.797-0.586 1.383t-1.43 0.586zM16.406 22.828l1.406-1.406-1.406-1.406 1.406-1.406-1.406-1.453-1.406 1.453-1.406-1.453-1.406 1.453 1.406 1.406-1.406 1.406 1.406 1.406 1.406-1.406z"></path>
</svg>
