<!-- Generated by IcoMoon.io -->
<svg version="1.1" xmlns="http://www.w3.org/2000/svg" width="24" height="24" viewBox="0 0 24 24">
<title>book_open_outline</title>
<path d="M21 6.984h-18q-0.844 0-1.43 0.586t-0.586 1.43v12.984q0 0.844 0.586 1.43t1.43 0.586h18q0.844 0 1.43-0.586t0.586-1.43v-12.984q0-0.844-0.586-1.43t-1.43-0.586zM3 21.984v-12.984h8.016v12.984h-8.016zM21 21.984h-8.016v-12.984h8.016v12.984zM14.016 12.516h6v1.5h-6v-1.5zM14.016 15h6v1.5h-6v-1.5zM14.016 17.484h6v1.5h-6v-1.5z"></path>
</svg>
