<!-- Generated by IcoMoon.io -->
<svg version="1.1" xmlns="http://www.w3.org/2000/svg" width="24" height="24" viewBox="0 0 24 24">
<title>book_open_variant</title>
<path d="M21 8.016q-1.594-0.516-3.516-0.516-3.516 0-5.484 1.5-1.969-1.5-5.484-1.5t-5.531 1.5v14.672q0 0.188 0.164 0.328t0.352 0.141l0.234-0.047q1.031-0.469 2.344-0.773t2.438-0.305q3.516 0 5.484 1.5 0.984-0.656 2.602-1.078t2.883-0.422q2.813 0 4.781 1.031 0.094 0.047 0.258 0.047t0.328-0.164 0.164-0.352v-14.578q-0.797-0.609-2.016-0.984zM21 21.516q-1.594-0.516-3.516-0.516-1.266 0-2.883 0.445t-2.602 1.055v-11.484q0.984-0.656 2.602-1.078t2.883-0.422q1.922 0 3.516 0.469v11.531z"></path>
</svg>
