<!-- Generated by IcoMoon.io -->
<svg version="1.1" xmlns="http://www.w3.org/2000/svg" width="24" height="24" viewBox="0 0 24 24">
<title>book_plus_multiple</title>
<path d="M9 5.016q-0.844 0-1.43 0.586t-0.586 1.383v12q0 0.844 0.586 1.43t1.43 0.586h9.984q0.844 0 1.43-0.586t0.586-1.43v-12q0-0.797-0.586-1.383t-1.43-0.586h-4.969v4.969l-2.016-1.5-2.016 1.5v-4.969h-0.984zM3 9v14.016q0 0.797 0.586 1.383t1.43 0.586h12v-1.969h-12v-14.016h-2.016zM15 12.984h2.016v2.016h1.969v2.016h-1.969v1.969h-2.016v-1.969h-2.016v-2.016h2.016v-2.016z"></path>
</svg>
