<!-- Generated by IcoMoon.io -->
<svg version="1.1" xmlns="http://www.w3.org/2000/svg" width="24" height="24" viewBox="0 0 24 24">
<title>book_search</title>
<path d="M15.516 15q1.875 0 3.188 1.313t1.313 3.188q0 1.313-0.703 2.391l3.094 3.094-1.406 1.406-3.141-3.094q-1.078 0.703-2.344 0.703-1.875 0-3.188-1.313t-1.313-3.188 1.313-3.188 3.188-1.313zM15.516 17.016q-1.031 0-1.781 0.727t-0.75 1.758 0.75 1.758 1.781 0.727 1.758-0.727 0.727-1.758-0.727-1.758-1.758-0.727zM6 24.984q-0.844 0-1.43-0.586t-0.586-1.383v-16.031q0-0.797 0.586-1.383t1.43-0.586h0.984v6.984l2.531-1.5 2.484 1.5v-6.984h6q0.844 0 1.43 0.586t0.586 1.383v7.828q-0.891-0.844-2.063-1.336t-2.461-0.492-2.484 0.492-2.109 1.406-1.406 2.109-0.492 2.508q0 1.688 0.82 3.164t2.227 2.32h-6.047z"></path>
</svg>
