<!-- Generated by IcoMoon.io -->
<svg version="1.1" xmlns="http://www.w3.org/2000/svg" width="24" height="24" viewBox="0 0 24 24">
<title>border_left_variant</title>
<path d="M15 8.016h2.016v-2.016h-2.016v2.016zM18.984 24h2.016v-2.016h-2.016v2.016zM18.984 15.984h2.016v-1.969h-2.016v1.969zM18.984 8.016h2.016v-2.016h-2.016v2.016zM18.984 20.016h2.016v-2.016h-2.016v2.016zM15 24h2.016v-2.016h-2.016v2.016zM18.984 12h2.016v-2.016h-2.016v2.016zM3 24h2.016v-18h-2.016v18zM6.984 8.016h2.016v-2.016h-2.016v2.016zM6.984 24h2.016v-2.016h-2.016v2.016zM11.016 8.016h1.969v-2.016h-1.969v2.016zM11.016 24h1.969v-2.016h-1.969v2.016z"></path>
</svg>
