<!-- Generated by IcoMoon.io -->
<svg version="1.1" xmlns="http://www.w3.org/2000/svg" width="24" height="24" viewBox="0 0 24 24">
<title>border_inside</title>
<path d="M18.984 20.016h2.016v-2.016h-2.016v2.016zM18.984 24h2.016v-2.016h-2.016v2.016zM12.984 6h-1.969v8.016h-8.016v1.969h8.016v8.016h1.969v-8.016h8.016v-1.969h-8.016v-8.016zM15 24h2.016v-2.016h-2.016v2.016zM18.984 8.016h2.016v-2.016h-2.016v2.016zM18.984 12h2.016v-2.016h-2.016v2.016zM17.016 6h-2.016v2.016h2.016v-2.016zM5.016 6h-2.016v2.016h2.016v-2.016zM9 6h-2.016v2.016h2.016v-2.016zM3 20.016h2.016v-2.016h-2.016v2.016zM5.016 9.984h-2.016v2.016h2.016v-2.016zM6.984 24h2.016v-2.016h-2.016v2.016zM3 24h2.016v-2.016h-2.016v2.016z"></path>
</svg>
