<!-- Generated by IcoMoon.io -->
<svg version="1.1" xmlns="http://www.w3.org/2000/svg" width="24" height="24" viewBox="0 0 24 24">
<title>box_shadow</title>
<path d="M3 6h15v15h-15v-15zM18.984 21.984h2.016v2.016h-2.016v-2.016zM18.984 18.984h2.016v2.016h-2.016v-2.016zM18.984 15.984h2.016v2.016h-2.016v-2.016zM18.984 12.984h2.016v2.016h-2.016v-2.016zM18.984 9.984h2.016v2.016h-2.016v-2.016zM15.984 21.984h2.016v2.016h-2.016v-2.016zM12.984 21.984h2.016v2.016h-2.016v-2.016zM9.984 21.984h2.016v2.016h-2.016v-2.016zM6.984 21.984h2.016v2.016h-2.016v-2.016z"></path>
</svg>
