<!-- Generated by IcoMoon.io -->
<svg version="1.1" xmlns="http://www.w3.org/2000/svg" width="24" height="24" viewBox="0 0 24 24">
<title>brain</title>
<path d="M21.328 15.891q0.047 1.172-0.445 2.227t-1.43 1.758l0.75 1.453q0.375 0.75 0.070 1.477t-1.055 1.008l-0.797 0.234q-0.234 0.094-0.563 0.094-0.797 0-1.313-0.656l-2.109-2.484q-1.359-0.234-2.438-1.078-0.75 0.188-1.5 0.188-1.359 0-2.484-0.75-0.797 0.234-1.641 0.188-1.172 0.047-2.273-0.445t-1.758-1.453-0.703-2.133q-0.094-1.125 0.375-2.109-0.469-1.172-0.094-2.344 0.563-1.453 1.969-2.25 0.422-1.266 1.523-2.016t2.461-0.656q1.219-1.125 2.859-1.242t2.953 0.867q0.656-0.188 1.313-0.188 1.031 0 1.945 0.422t1.57 1.219q1.5 0.422 2.508 1.641t1.055 2.813q0.094 1.734-0.844 3.141 0.094 0.563 0.094 1.078zM16.313 14.484q0.469 0.047 0.75 0.352t0.281 0.727-0.281 0.703-0.703 0.281h-0.656q-0.469 1.406-1.594 2.297l0.75 0.234q3.141-0.047 4.125-1.547 0.516-0.797 0.422-1.688v-0.047q-0.047-1.031-0.844-1.781t-1.875-0.703q-0.375 0-0.68-0.281t-0.305-0.703 0.305-0.703 0.68-0.281q1.922 0.047 3.375 1.266 0.047-0.422 0.047-0.891-0.047-1.031-0.609-1.641-0.703-0.703-2.25-0.891-0.422-0.984-1.219-1.406-0.656-0.375-1.453-0.234-0.703 0.141-1.219 0.516t-0.516 0.75v0q0 0.141 0.094 0.422t0.141 0.328q0.422 0 0.727 0.281t0.305 0.703-0.305 0.727-0.727 0.305v0q-0.797-0.047-1.406-0.563-0.703 0.469-1.594 0.563v0q-0.422 0-0.75-0.258t-0.352-0.656 0.234-0.727 0.68-0.375q0.281-0.047 0.516-0.141 0.422-0.234 0.422-0.609v0q0-1.031 0.656-1.828-1.5-0.375-2.906 1.313-1.406-0.234-2.063 0.117t-1.078 1.805q-0.797 0.375-1.078 0.703-0.422 0.375-0.563 1.078 1.641-0.328 3.188 0.234 0.375 0.141 0.563 0.516t0.047 0.773-0.516 0.563-0.797 0.023q-1.125-0.469-2.297-0.047-0.188 0.188-0.281 0.563v0.75t0.258 1.008 0.727 0.773q0.797 0.422 1.688 0.422-0.188-0.375-0.352-0.797t0.023-0.82 0.586-0.539 0.797 0.047 0.539 0.609q0.281 0.844 0.984 1.406t1.641 0.656q1.031-0.047 1.875-0.633t1.313-1.523q0.141-0.938 0.891-1.266 0.516-0.234 1.641-0.234zM18.328 21.984l-0.609-1.313-0.703 0.141 0.984 1.266zM13.688 13.359q0-0.375-0.258-0.68t-0.68-0.352q-1.078-0.047-1.922 0.656-0.891 0.938-0.844 2.203 0 0.422 0.305 0.703t0.727 0.281 0.703-0.281 0.281-0.703 0.234-0.75q0.188-0.141 0.422-0.141 0.422 0 0.727-0.258t0.305-0.68z"></path>
</svg>
