<!-- Generated by IcoMoon.io -->
<svg version="1.1" xmlns="http://www.w3.org/2000/svg" width="24" height="24" viewBox="0 0 24 24">
<title>bridge</title>
<path d="M6.984 17.016v-3.094q-1.078-0.516-1.969-1.219v4.313h1.969zM5.016 21h-2.016v-2.016h-2.016v-1.969h2.016v-7.031h2.016v1.453q1.359 1.219 3.164 1.898t3.82 0.68 3.82-0.68 3.164-1.898v-1.453h2.016v7.031h2.016v1.969h-2.016v2.016h-2.016v-2.016h-13.969v2.016zM17.016 13.922v3.094h1.969v-4.313q-0.891 0.703-1.969 1.219zM15.984 17.016v-2.719q-0.891 0.375-1.969 0.563v2.156h1.969zM12.984 17.016v-2.063l-0.984 0.047-0.984-0.047v2.063h1.969zM9.984 17.016v-2.156q-1.078-0.188-1.969-0.563v2.719h1.969z"></path>
</svg>
