<!-- Generated by IcoMoon.io -->
<svg version="1.1" xmlns="http://www.w3.org/2000/svg" width="24" height="24" viewBox="0 0 24 24">
<title>briefcase_search</title>
<path d="M16.5 15q1.875 0 3.188 1.313t1.313 3.188q0 1.313-0.703 2.391l3.094 3.094-1.406 1.406-3.094-3.094q-1.125 0.703-2.391 0.703-1.875 0-3.188-1.313t-1.313-3.188 1.313-3.188 3.188-1.313zM16.5 17.016q-1.031 0-1.758 0.727t-0.727 1.758 0.727 1.758 1.758 0.727 1.758-0.727 0.727-1.758-0.727-1.758-1.758-0.727zM9.984 5.016h4.031q0.797 0 1.383 0.586t0.586 1.383v2.016h4.031q0.797 0 1.383 0.586t0.586 1.43v5.016q-0.844-1.406-2.32-2.227t-3.164-0.82q-1.313 0-2.508 0.492t-2.109 1.406-1.406 2.109-0.492 2.484 0.492 2.461 1.336 2.063h-7.828q-0.797 0-1.383-0.586t-0.586-1.43v-10.969q0-0.844 0.586-1.43t1.383-0.586h4.031v-2.016q0-0.797 0.586-1.383t1.383-0.586zM14.016 9v-2.016h-4.031v2.016h4.031z"></path>
</svg>
