<!-- Generated by IcoMoon.io -->
<svg version="1.1" xmlns="http://www.w3.org/2000/svg" width="24" height="24" viewBox="0 0 24 24">
<title>briefcase_account</title>
<path d="M20.016 9h-4.031v-2.016q0-0.797-0.586-1.383t-1.383-0.586h-4.031q-0.797 0-1.383 0.586t-0.586 1.383v2.016h-4.031q-0.797 0-1.383 0.586t-0.586 1.43v10.969q0 0.844 0.586 1.43t1.383 0.586h16.031q0.797 0 1.383-0.586t0.586-1.43v-10.969q0-0.844-0.586-1.43t-1.383-0.586zM9.984 6.984h4.031v2.016h-4.031v-2.016zM12 12q1.031 0 1.758 0.727t0.727 1.758-0.727 1.781-1.758 0.75-1.758-0.75-0.727-1.781 0.727-1.758 1.758-0.727zM17.016 21.984h-10.031v-1.219q0-1.031 1.477-1.781t3.539-0.75 3.539 0.75 1.477 1.781v1.219z"></path>
</svg>
