<!-- Generated by IcoMoon.io -->
<svg version="1.1" xmlns="http://www.w3.org/2000/svg" width="24" height="24" viewBox="0 0 24 24">
<title>briefcase_edit_outline</title>
<path d="M21.047 15.141q0.188 0 0.375 0.141l1.266 1.313q0.188 0.141 0.188 0.375t-0.188 0.375l-0.984 0.984-2.063-2.016 1.031-1.031q0.141-0.141 0.375-0.141zM19.078 16.875l2.063 2.063-6.094 6.047h-2.063v-2.063zM9.984 5.016h4.031q0.797 0 1.383 0.586t0.586 1.383v2.016h4.031q0.797 0 1.383 0.586t0.586 1.43l-1.969 1.969v-1.969h-16.031v10.969h7.031v2.016h-7.031q-0.797 0-1.383-0.586t-0.586-1.43v-10.969q0-0.844 0.586-1.43t1.383-0.586h4.031v-2.016q0-0.797 0.586-1.383t1.383-0.586zM14.016 9v-2.016h-4.031v2.016h4.031z"></path>
</svg>
