<!-- Generated by IcoMoon.io -->
<svg version="1.1" xmlns="http://www.w3.org/2000/svg" width="24" height="24" viewBox="0 0 24 24">
<title>briefcase_account_outline</title>
<path d="M20.016 9q0.844 0 1.406 0.609t0.563 1.406v10.969q0 0.797-0.563 1.406t-1.406 0.609h-16.031q-0.844 0-1.406-0.609t-0.563-1.406v-10.969q0-0.797 0.563-1.406t1.406-0.609h4.031v-2.016q0-0.844 0.563-1.406t1.406-0.563h4.031q0.844 0 1.406 0.563t0.563 1.406v2.016h4.031zM3.984 11.016v10.969h16.031v-10.969h-16.031zM14.016 9v-2.016h-4.031v2.016h4.031zM12 12q0.938 0 1.594 0.656t0.656 1.594-0.656 1.594-1.594 0.656-1.594-0.656-0.656-1.594 0.656-1.594 1.594-0.656zM16.5 21h-9v-1.125q0-0.938 1.313-1.594t3.188-0.656 3.188 0.656 1.313 1.594v1.125z"></path>
</svg>
