<!-- Generated by IcoMoon.io -->
<svg version="1.1" xmlns="http://www.w3.org/2000/svg" width="24" height="24" viewBox="0 0 24 24">
<title>briefcase_upload</title>
<path d="M9.984 5.016h4.031q0.797 0 1.383 0.586t0.586 1.383v2.016h4.031q0.797 0 1.383 0.586t0.586 1.43v10.969q0 0.844-0.586 1.43t-1.383 0.586h-16.031q-0.797 0-1.383-0.586t-0.586-1.43v-10.969q0-0.844 0.586-1.43t1.383-0.586h4.031v-2.016q0-0.797 0.586-1.383t1.383-0.586zM14.016 9v-2.016h-4.031v2.016h4.031zM12 12l-5.016 5.016h3v3.984h4.031v-3.984h3z"></path>
</svg>
