<!-- Generated by IcoMoon.io -->
<svg version="1.1" xmlns="http://www.w3.org/2000/svg" width="24" height="24" viewBox="0 0 24 24">
<title>briefcase_minus_outline</title>
<path d="M9.984 5.016h4.031q0.797 0 1.383 0.586t0.586 1.383v2.016h4.031q0.797 0 1.383 0.586t0.586 1.43v5.531q-0.844-0.797-1.969-1.219v-4.313h-16.031v10.969h8.109q0.141 1.078 0.703 2.016h-8.813q-0.797 0-1.383-0.586t-0.586-1.43v-10.969q0-0.844 0.586-1.43t1.383-0.586h4.031v-2.016q0-0.797 0.586-1.383t1.383-0.586zM14.016 9v-2.016h-4.031v2.016h4.031zM14.016 20.016h7.969v1.969h-7.969v-1.969z"></path>
</svg>
