<!-- Generated by IcoMoon.io -->
<svg version="1.1" xmlns="http://www.w3.org/2000/svg" width="24" height="24" viewBox="0 0 24 24">
<title>briefcase_clock</title>
<path d="M21 14.109v-4.125q0-0.797-0.586-1.383t-1.43-0.586h-3.984v-2.016q0-0.844-0.586-1.43t-1.43-0.586h-3.984q-0.844 0-1.43 0.586t-0.586 1.43v2.016h-3.984q-0.844 0-1.43 0.586t-0.586 1.383v11.016q0 0.844 0.586 1.43t1.43 0.586h7.266q1.125 1.641 2.953 2.438t3.797 0.516 3.492-1.547 2.156-3.141 0.188-3.82-1.852-3.352zM9 6h3.984v2.016h-3.984v-2.016zM18.984 23.016q-1.313 0.984-2.977 0.984t-2.977-0.984-1.805-2.531 0.023-3.070 1.828-2.461 2.93-0.938 2.93 0.938 1.805 2.461 0.023 3.070-1.781 2.531zM15 15.984h1.5v2.813l2.438 1.453-0.75 1.266-3.188-1.828v-3.703z"></path>
</svg>
