<!-- Generated by IcoMoon.io -->
<svg version="1.1" xmlns="http://www.w3.org/2000/svg" width="24" height="24" viewBox="0 0 24 24">
<title>briefcase_edit</title>
<path d="M14.016 5.016q0.797 0 1.383 0.586t0.586 1.383v2.016h4.031q0.797 0 1.383 0.586t0.586 1.43l-11.156 10.969v2.016h-6.844q-0.797 0-1.383-0.586t-0.586-1.43v-10.969q0-0.844 0.586-1.43t1.383-0.586h4.031v-2.016q0-0.797 0.586-1.383t1.383-0.586h4.031zM14.016 9v-2.016h-4.031v2.016h4.031zM21.047 15.141q-0.234 0-0.375 0.141l-1.031 1.031 2.063 2.016 0.984-0.984q0.188-0.141 0.188-0.375t-0.188-0.375l-1.266-1.313q-0.188-0.141-0.375-0.141zM19.078 16.875l-6.094 6.047v2.063h2.063l6.094-6.047z"></path>
</svg>
