<!-- Generated by IcoMoon.io -->
<svg version="1.1" xmlns="http://www.w3.org/2000/svg" width="24" height="24" viewBox="0 0 24 24">
<title>brightness_7</title>
<path d="M12 11.016q-1.641 0-2.813 1.172t-1.172 2.813 1.172 2.813 2.813 1.172 2.813-1.172 1.172-2.813-1.172-2.813-2.813-1.172zM12 21q-1.641 0-3.023-0.797t-2.18-2.18-0.797-3.023 0.797-3.023 2.18-2.18 3.023-0.797 3.023 0.797 2.18 2.18 0.797 3.023-0.797 3.023-2.18 2.18-3.023 0.797zM20.016 11.672v-4.688h-4.688l-3.328-3.281-3.328 3.281h-4.688v4.688l-3.281 3.328 3.281 3.328v4.688h4.688l3.328 3.281 3.328-3.281h4.688v-4.688l3.281-3.328z"></path>
</svg>
