<!-- Generated by IcoMoon.io -->
<svg version="1.1" xmlns="http://www.w3.org/2000/svg" width="24" height="24" viewBox="0 0 24 24">
<title>buffer</title>
<path d="M12.609 5.859l8.109 3.797q0.281 0.141 0.281 0.305t-0.281 0.258l-8.109 3.797q-0.609 0.281-1.219 0l-8.109-3.797q-0.281-0.094-0.281-0.258t0.234-0.305l8.203-3.797q0.234-0.094 0.586-0.094t0.586 0.094zM12 24.141q-0.141 0-0.422-0.094l-0.188-0.094-8.156-3.75q-0.234-0.141-0.234-0.305t0.281-0.258l1.406-0.703q0.656-0.281 1.313 0.047l5.344 2.484q0.656 0.281 1.313 0l5.344-2.531q0.656-0.281 1.313 0l1.406 0.656q0.094 0.047 0.188 0.141t0.094 0.188-0.094 0.164-0.234 0.164q-2.297 1.078-6.844 3.188l-1.172 0.516q-0.375 0.188-0.656 0.188zM12 19.172q-0.188 0-0.656-0.188l-8.063-3.75q-0.281-0.141-0.281-0.305t0.281-0.305l1.406-0.656q0.656-0.281 1.313 0.047l5.391 2.484q0.609 0.281 1.219 0l5.438-2.531q0.609-0.281 1.266 0l1.406 0.656 0.188 0.094q0.234 0.188 0 0.422l-0.188 0.094q-3.234 1.5-8.109 3.75-0.375 0.188-0.609 0.188z"></path>
</svg>
