<!-- Generated by IcoMoon.io -->
<svg version="1.1" xmlns="http://www.w3.org/2000/svg" width="24" height="24" viewBox="0 0 24 24">
<title>bug</title>
<path d="M14.016 15h-4.031v-2.016h4.031v2.016zM14.016 18.984h-4.031v-1.969h4.031v1.969zM20.016 11.016h-2.813q-0.703-1.219-1.828-1.969l1.641-1.641-1.406-1.406-2.203 2.156q-0.703-0.141-1.406-0.141t-1.406 0.141l-2.203-2.156-1.406 1.406 1.641 1.641q-1.125 0.75-1.828 1.969h-2.813v1.969h2.109q-0.094 0.609-0.094 1.031v0.984h-2.016v2.016h2.016v0.984q0 0.422 0.094 0.984h-2.109v2.016h2.813q0.797 1.359 2.18 2.18t3.023 0.82 3.023-0.82 2.18-2.18h2.813v-2.016h-2.109q0.094-0.563 0.094-0.984v-0.984h2.016v-2.016h-2.016v-0.984q0-0.422-0.094-1.031h2.109v-1.969z"></path>
</svg>
