<!-- Generated by IcoMoon.io -->
<svg version="1.1" xmlns="http://www.w3.org/2000/svg" width="24" height="24" viewBox="0 0 24 24">
<title>bug_check</title>
<path d="M18 9.984h-2.813q-0.703-1.266-1.828-1.969l1.641-1.594-1.406-1.406-2.156 2.156q-0.75-0.188-1.453-0.188t-1.406 0.188l-2.156-2.156-1.406 1.406 1.594 1.594q-1.078 0.703-1.781 1.969h-2.813v2.016h2.063q-0.094 0.516-0.094 0.984v1.031h-1.969v1.969h1.969v1.031q0 0.469 0.094 0.984h-2.063v2.016h2.813q1.078 1.875 3.094 2.625t4.078 0v-0.656q0-1.875 1.102-3.445t2.883-2.18v-0.375h2.016v-1.969h-2.016v-1.031q0-0.469-0.094-0.984h2.109v-2.016zM12 18h-3.984v-2.016h3.984v2.016zM12 14.016h-3.984v-2.016h3.984v2.016zM17.766 25.172l-2.766-3 1.172-1.172 1.594 1.594 3.563-3.609 1.172 1.406z"></path>
</svg>
