<!-- Generated by IcoMoon.io -->
<svg version="1.1" xmlns="http://www.w3.org/2000/svg" width="24" height="24" viewBox="0 0 24 24">
<title>bug_outline</title>
<path d="M20.016 11.016h-2.813q-0.703-1.266-1.828-2.016l1.641-1.594-1.406-1.406-2.203 2.156q-0.703-0.141-1.406-0.141t-1.406 0.141l-2.203-2.156-1.406 1.406 1.641 1.594q-1.078 0.703-1.828 2.016h-2.813v1.969h2.109q-0.094 0.516-0.094 1.031v0.984h-2.016v2.016h2.016v0.984q0 0.516 0.094 0.984h-2.109v2.016h2.813q0.844 1.406 2.227 2.203t2.977 0.797 3-0.797 2.203-2.203h2.813v-2.016h-2.109q0.094-0.469 0.094-0.984v-0.984h2.016v-2.016h-2.016v-0.984q0-0.516-0.094-1.031h2.109v-1.969zM15.984 18q0 1.641-1.172 2.813t-2.813 1.172-2.813-1.172-1.172-2.813v-3.984q0-1.688 1.172-2.859t2.813-1.172 2.813 1.172 1.172 2.859v3.984zM14.016 12.984v2.016h-4.031v-2.016h4.031zM9.984 17.016h4.031v1.969h-4.031v-1.969z"></path>
</svg>
