<!-- Generated by IcoMoon.io -->
<svg version="1.1" xmlns="http://www.w3.org/2000/svg" width="24" height="24" viewBox="0 0 24 24">
<title>bullseye</title>
<path d="M12 5.016q-1.969 0-3.82 0.75t-3.258 2.156-2.156 3.258-0.75 3.82 0.75 3.82 2.156 3.258 3.258 2.156 3.82 0.75 3.82-0.75 3.258-2.156 2.156-3.258 0.75-3.82-0.75-3.82-2.156-3.258-3.258-2.156-3.82-0.75zM12 6.984q1.594 0 3.070 0.609t2.602 1.734 1.734 2.602 0.609 3.070q0 2.156-1.078 4.008t-2.93 2.93-4.008 1.078-4.008-1.078-2.93-2.93-1.078-4.008q0-1.594 0.609-3.070t1.734-2.602 2.602-1.734 3.070-0.609zM12 9q-1.641 0-3.023 0.797t-2.18 2.18-0.797 3.023 0.797 3.023 2.18 2.18 3.023 0.797 3.023-0.797 2.18-2.18 0.797-3.023-0.797-3.023-2.18-2.18-3.023-0.797zM12 11.016q1.641 0 2.813 1.172t1.172 2.813-1.172 2.813-2.813 1.172-2.813-1.172-1.172-2.813 1.172-2.813 2.813-1.172zM12 12.984q-0.844 0-1.43 0.586t-0.586 1.43 0.586 1.43 1.43 0.586 1.43-0.586 0.586-1.43-0.586-1.43-1.43-0.586z"></path>
</svg>
