<!-- Generated by IcoMoon.io -->
<svg version="1.1" xmlns="http://www.w3.org/2000/svg" width="24" height="24" viewBox="0 0 24 24">
<title>bulletin_board</title>
<path d="M12.047 5.484l-2.531 2.531h5.016zM3.984 9.984v13.031h16.031v-13.031h-16.031zM12 3l5.016 5.016h3q0.797 0 1.383 0.586t0.586 1.383v13.031q0 0.797-0.586 1.383t-1.383 0.586h-16.031q-0.797 0-1.383-0.586t-0.586-1.383v-13.031q0-0.797 0.586-1.383t1.383-0.586h3zM6.984 21v-3.984h5.016v3.984h-5.016zM14.016 20.016v-7.031h3.984v7.031h-3.984zM6 15v-3h5.016v3h-5.016z"></path>
</svg>
