<!-- Generated by IcoMoon.io -->
<svg version="1.1" xmlns="http://www.w3.org/2000/svg" width="24" height="24" viewBox="0 0 24 24">
<title>bullhorn_outline</title>
<path d="M12 11.016h-8.016q-0.797 0-1.383 0.586t-0.586 1.383v4.031q0 0.797 0.586 1.383t1.383 0.586h1.031v4.031q0 0.422 0.281 0.703t0.703 0.281h2.016q0.422 0 0.703-0.281t0.281-0.703v-4.031h3l5.016 4.031v-16.031zM15 18.609l-2.016-1.594h-9v-4.031h9l2.016-1.594v7.219zM21.516 15q0 1.266-0.68 2.367t-1.852 1.617v-7.969q1.172 0.563 1.852 1.641t0.68 2.344z"></path>
</svg>
