<!-- Generated by IcoMoon.io -->
<svg version="1.1" xmlns="http://www.w3.org/2000/svg" width="24" height="24" viewBox="0 0 24 24">
<title>bullseye_arrow</title>
<path d="M12 5.016q-1.969 0-3.82 0.75t-3.258 2.156-2.156 3.258-0.75 3.82 0.75 3.82 2.156 3.258 3.258 2.156 3.82 0.75 3.82-0.75 3.258-2.156 2.156-3.258 0.75-3.82q0-1.734-0.609-3.375l-1.594 1.594q0.234 0.891 0.234 1.781 0 2.156-1.078 4.008t-2.93 2.93-4.008 1.078-4.008-1.078-2.93-2.93-1.078-4.008q0-1.594 0.609-3.070t1.734-2.602 2.602-1.734 3.070-0.609q0.891 0 1.781 0.234l1.641-1.641q-1.688-0.563-3.422-0.563zM18.984 5.016l-3.984 3.984v1.5l-2.531 2.531q-0.188-0.047-0.469-0.047-0.844 0-1.43 0.586t-0.586 1.43 0.586 1.43 1.43 0.586 1.43-0.586 0.586-1.43q0-0.281-0.047-0.469l2.531-2.531h1.5l3.984-3.984h-3v-3zM12 9q-1.641 0-3.023 0.797t-2.18 2.18-0.797 3.023 0.797 3.023 2.18 2.18 3.023 0.797 3.023-0.797 2.18-2.18 0.797-3.023h-2.016q0 1.641-1.172 2.813t-2.813 1.172-2.813-1.172-1.172-2.813 1.172-2.813 2.813-1.172v-2.016z"></path>
</svg>
