<!-- Generated by IcoMoon.io -->
<svg version="1.1" xmlns="http://www.w3.org/2000/svg" width="24" height="24" viewBox="0 0 24 24">
<title>bus</title>
<path d="M18 14.016h-12v-5.016h12v5.016zM16.5 20.016q-0.609 0-1.055-0.445t-0.445-1.078 0.445-1.055 1.055-0.422 1.055 0.422 0.445 1.055-0.445 1.078-1.055 0.445zM7.5 20.016q-0.609 0-1.055-0.445t-0.445-1.078 0.445-1.055 1.055-0.422 1.055 0.422 0.445 1.055-0.445 1.078-1.055 0.445zM3.984 18.984q0 1.313 1.031 2.25v1.781q0 0.422 0.281 0.703t0.703 0.281h0.984q0.422 0 0.727-0.281t0.305-0.703v-1.031h7.969v1.031q0 0.422 0.305 0.703t0.727 0.281h0.984q0.422 0 0.703-0.281t0.281-0.703v-1.781q1.031-0.938 1.031-2.25v-9.984q0-2.391-2.344-3.328-1.781-0.656-5.672-0.656t-5.672 0.656q-2.344 0.938-2.344 3.328v9.984z"></path>
</svg>
