<!-- Generated by IcoMoon.io -->
<svg version="1.1" xmlns="http://www.w3.org/2000/svg" width="24" height="24" viewBox="0 0 24 24">
<title>bus_clock</title>
<path d="M16.5 6.984v4.266l2.859 1.688-0.75 1.219-3.609-2.156v-5.016h1.5zM15.984 15.984q2.063 0 3.539-1.453t1.477-3.516-1.477-3.539-3.539-1.477-3.516 1.477-1.453 3.539 1.453 3.516 3.516 1.453zM13.5 21.984q0.656 0 1.078-0.445t0.422-1.055-0.422-1.055-1.078-0.445-1.078 0.445-0.422 1.055 0.422 1.055 1.078 0.445zM3 15.984h8.109q-2.109-2.016-2.109-4.969h-6v4.969zM4.5 21.984q0.656 0 1.078-0.445t0.422-1.055-0.422-1.055-1.078-0.445-1.078 0.445-0.422 1.055 0.422 1.055 1.078 0.445zM15.984 3.984q2.953 0 4.992 2.039t2.039 4.992q0 2.625-1.734 4.57t-4.266 2.32v3.094q0 1.266-1.031 2.203v1.781q0 0.375-0.281 0.703t-0.703 0.328h-0.984q-0.422 0-0.727-0.305t-0.305-0.727v-0.984h-7.969v0.984q0 0.422-0.305 0.727t-0.727 0.305h-0.984q-0.422 0-0.703-0.328t-0.281-0.703v-1.781q-1.031-0.938-1.031-2.203v-9.984q0-2.391 2.039-3.211t5.977-0.82h0.609l0.609 0.047q2.109-3.047 5.766-3.047z"></path>
</svg>
