<!-- Generated by IcoMoon.io -->
<svg version="1.1" xmlns="http://www.w3.org/2000/svg" width="24" height="24" viewBox="0 0 24 24">
<title>bus_alert1</title>
<path d="M15.984 3.984q1.922 0 3.516 0.961t2.555 2.555 0.961 3.516q0 1.734-0.797 3.234t-2.18 2.461-3.023 1.242v3.047q0 1.266-1.078 2.203v1.781q0 0.422-0.258 0.727t-0.68 0.305h-0.984q-0.469 0-0.773-0.305t-0.305-0.727v-0.984h-7.875v0.984q0 0.422-0.305 0.727t-0.773 0.305h-0.984q-0.422 0-0.68-0.305t-0.258-0.727v-1.781q-1.078-0.938-1.078-2.203v-9.984q0-2.391 2.063-3.211t5.953-0.82l1.219 0.047q0.984-1.406 2.508-2.227t3.258-0.82zM15.984 6q-1.359 0-2.508 0.68t-1.805 1.828-0.656 2.508 0.656 2.508 1.805 1.805 2.508 0.656q1.031 0 1.945-0.375t1.617-1.078 1.078-1.617 0.375-1.898q0-1.359-0.68-2.508t-1.828-1.828-2.508-0.68zM15 12.984h2.016v2.016h-2.016v-2.016zM15 6.984h2.016v5.016h-2.016v-5.016zM3 15.984h8.109q-0.984-0.984-1.547-2.273t-0.563-2.695h-6v4.969zM4.5 18.984q-0.609 0-1.055 0.445t-0.445 1.078 0.445 1.055 1.078 0.422 1.055-0.422 0.422-1.055-0.445-1.078-1.055-0.445zM13.5 18.984q-0.656 0-1.078 0.445t-0.422 1.078 0.445 1.055 1.055 0.422 1.055-0.422 0.445-1.055-0.445-1.078-1.055-0.445z"></path>
</svg>
