<!-- Generated by IcoMoon.io -->
<svg version="1.1" xmlns="http://www.w3.org/2000/svg" width="24" height="24" viewBox="0 0 24 24">
<title>bus_double_decker</title>
<path d="M3 6.984q-0.844 0-1.43 0.586t-0.586 1.43v11.016h2.016q0 1.219 0.867 2.109t2.133 0.891 2.133-0.891 0.867-2.109h6q0 1.219 0.867 2.109t2.133 0.891 2.133-0.891 0.867-2.109h2.016v-3q0-0.844-0.586-1.43t-1.43-0.586h-2.016v-2.484h4.031v-3.516q0-0.844-0.586-1.43t-1.43-0.586h-18zM2.484 8.484h4.031v2.531h-4.031v-2.531zM8.016 8.484h3.984v2.531h-3.984v-2.531zM13.5 8.484h3.984v2.531h-3.984v-2.531zM18.984 8.484h2.531v2.531h-2.531v-2.531zM13.5 12.516h3.984v2.484h-3.984v-2.484zM2.484 12.516h4.031v2.484h-4.031v-2.484zM8.016 12.516h3.984v2.484h-3.984v-2.484zM6 18.516q0.609 0 1.055 0.422t0.445 1.055-0.445 1.078-1.055 0.445-1.055-0.445-0.445-1.078 0.445-1.055 1.055-0.422zM18 18.516q0.609 0 1.055 0.422t0.445 1.055-0.445 1.078-1.055 0.445-1.055-0.445-0.445-1.078 0.445-1.055 1.055-0.422z"></path>
</svg>
