<!-- Generated by IcoMoon.io -->
<svg version="1.1" xmlns="http://www.w3.org/2000/svg" width="24" height="24" viewBox="0 0 24 24">
<title>bus_school</title>
<path d="M3 9q-0.844 0-1.43 0.586t-0.586 1.43v6.984h2.016q0 1.266 0.867 2.133t2.133 0.867 2.133-0.867 0.867-2.133h6q0 1.266 0.867 2.133t2.133 0.867 2.133-0.867 0.867-2.133h2.016v-3q0-0.844-0.586-1.43t-1.43-0.586h-2.016v-1.969q0-0.844-0.586-1.43t-1.383-0.586h-14.016zM13.5 10.5h3.984v2.484h-3.984v-2.484zM2.484 10.5h4.031v2.484h-4.031v-2.484zM8.016 10.5h3.984v2.484h-3.984v-2.484zM6 16.5q0.609 0 1.055 0.445t0.445 1.055-0.445 1.055-1.055 0.445-1.055-0.445-0.445-1.055 0.445-1.055 1.055-0.445zM18 16.5q0.609 0 1.055 0.445t0.445 1.055-0.445 1.055-1.055 0.445-1.055-0.445-0.445-1.055 0.445-1.055 1.055-0.445z"></path>
</svg>
