<!-- Generated by IcoMoon.io -->
<svg version="1.1" xmlns="http://www.w3.org/2000/svg" width="24" height="24" viewBox="0 0 24 24">
<title>bus_multiple</title>
<path d="M9.984 8.016q-3.891 0-5.625 0.656-2.344 0.938-2.344 3.328v9.984q0 1.359 0.984 2.25v1.781q0 0.375 0.305 0.68t0.68 0.305h1.031q0.375 0 0.68-0.305t0.305-0.68v-1.031h8.016v1.031q0 0.375 0.281 0.68t0.703 0.305h0.984q0.422 0 0.727-0.305t0.305-0.68v-1.781q0.984-0.891 0.984-2.25v-9.984q0-2.391-2.344-3.328-1.781-0.656-5.672-0.656zM5.484 23.016q-0.609 0-1.055-0.445t-0.445-1.078 0.445-1.055 1.078-0.422 1.055 0.422 0.422 1.055-0.422 1.078-1.078 0.445zM14.484 23.016q-0.609 0-1.055-0.445t-0.445-1.078 0.445-1.055 1.078-0.422 1.055 0.422 0.422 1.055-0.422 1.078-1.078 0.445zM15.984 17.016h-12v-5.016h12v5.016zM21.984 8.016v9.984q0 1.313-0.984 2.203v1.781q0 0.422-0.305 0.727t-0.68 0.305h-0.141q0.141-0.563 0.141-1.031v-9.984q0-2.719-1.922-4.219-1.5-1.172-4.172-1.547-1.5-0.234-3.938-0.234-2.203 0-3.516 0.188 0.75-1.313 2.859-1.781 1.641-0.422 4.688-0.422 3.891 0 5.625 0.703 2.344 0.891 2.344 3.328z"></path>
</svg>
