<!-- Generated by IcoMoon.io -->
<svg version="1.1" xmlns="http://www.w3.org/2000/svg" width="24" height="24" viewBox="0 0 24 24">
<title>bus_stop</title>
<path d="M21.984 9.984v9q0 0.563-0.258 1.008t-0.727 0.727v1.547q0 0.281-0.211 0.516t-0.539 0.234h-0.516q-0.281 0-0.516-0.234t-0.234-0.516v-1.266h-6.984v1.266q0 0.281-0.211 0.516t-0.539 0.234h-0.516q-0.281 0-0.516-0.234t-0.234-0.516v-1.547q-0.422-0.281-0.703-0.727t-0.281-1.008v-9q0-1.406 0.891-2.109 0.797-0.563 2.391-0.75 0.938-0.141 3.211-0.141t3.258 0.141q1.594 0.188 2.344 0.75 0.891 0.703 0.891 2.109zM12.984 18q0-0.422-0.281-0.703t-0.703-0.281-0.703 0.281-0.281 0.703 0.281 0.703 0.703 0.281 0.703-0.281 0.281-0.703zM20.016 18q0-0.422-0.305-0.703t-0.703-0.281-0.703 0.281-0.305 0.703 0.305 0.703 0.703 0.281 0.703-0.281 0.305-0.703zM20.016 9.984h-9v4.031h9v-4.031zM6.984 12.516q0-1.078-0.75-1.781t-1.781-0.68-1.758 0.773-0.68 1.781q0 0.891 0.563 1.547t1.406 0.844v8.016h1.031v-8.016q0.844-0.188 1.406-0.891t0.563-1.594z"></path>
</svg>
