<!-- Generated by IcoMoon.io -->
<svg version="1.1" xmlns="http://www.w3.org/2000/svg" width="24" height="24" viewBox="0 0 24 24">
<title>cached1</title>
<path d="M18.984 11.016l-3.984 3.984h3q0 1.641-0.797 3.023t-2.18 2.18-3.023 0.797q-1.5 0-2.813-0.703l-1.453 1.453q1.969 1.266 4.266 1.266 2.156 0 4.008-1.078t2.93-2.93 1.078-4.008h3zM6 15q0-1.641 0.797-3.023t2.18-2.18 3.023-0.797q1.5 0 2.813 0.703l1.453-1.453q-1.969-1.266-4.266-1.266-1.594 0-3.070 0.609t-2.602 1.734-1.734 2.602-0.609 3.070h-3l4.031 3.984 3.984-3.984h-3z"></path>
</svg>
