<!-- Generated by IcoMoon.io -->
<svg version="1.1" xmlns="http://www.w3.org/2000/svg" width="24" height="24" viewBox="0 0 24 24">
<title>calendar_weekend_outline</title>
<path d="M18.984 6.984q0.844 0 1.43 0.586t0.586 1.43v14.016q0 0.797-0.586 1.383t-1.43 0.586h-13.969q-0.844 0-1.43-0.586t-0.586-1.383v-14.016q0-0.844 0.586-1.43t1.43-0.586h0.984v-1.969h2.016v1.969h7.969v-1.969h2.016v1.969h0.984zM18.984 23.016v-10.031h-13.969v10.031h13.969zM18.984 11.016v-2.016h-13.969v2.016h13.969zM6.984 15h2.016v6h-2.016v-6zM15 15h2.016v6h-2.016v-6z"></path>
</svg>
