<!-- Generated by IcoMoon.io -->
<svg version="1.1" xmlns="http://www.w3.org/2000/svg" width="24" height="24" viewBox="0 0 24 24">
<title>calendar_range_outline</title>
<path d="M6.984 15h2.016v2.016h-2.016v-2.016zM21 9v14.016q0 0.797-0.586 1.383t-1.43 0.586h-13.969q-0.844 0-1.43-0.586t-0.586-1.383v-14.016q0-0.844 0.586-1.43t1.43-0.586h0.984v-1.969h2.016v1.969h7.969v-1.969h2.016v1.969h0.984q0.844 0 1.43 0.586t0.586 1.43zM5.016 11.016h13.969v-2.016h-13.969v2.016zM18.984 23.016v-10.031h-13.969v10.031h13.969zM15 17.016h2.016v-2.016h-2.016v2.016zM11.016 17.016h1.969v-2.016h-1.969v2.016z"></path>
</svg>
