<!-- Generated by IcoMoon.io -->
<svg version="1.1" xmlns="http://www.w3.org/2000/svg" width="24" height="24" viewBox="0 0 24 24">
<title>calendar_check_outline</title>
<path d="M18.984 6.984h-0.984v-1.969h-2.016v1.969h-7.969v-1.969h-2.016v1.969h-0.984q-0.844 0-1.43 0.586t-0.586 1.43v14.016q0 0.797 0.586 1.383t1.43 0.586h13.969q0.844 0 1.43-0.586t0.586-1.383v-14.016q0-0.844-0.586-1.43t-1.43-0.586zM18.984 23.016h-13.969v-10.031h13.969v10.031zM5.016 11.016v-2.016h13.969v2.016h-13.969zM10.547 21.469l5.953-5.953-1.078-1.031-4.875 4.875-2.109-2.109-1.031 1.031z"></path>
</svg>
