<!-- Generated by IcoMoon.io -->
<svg version="1.1" xmlns="http://www.w3.org/2000/svg" width="24" height="24" viewBox="0 0 24 24">
<title>calendar_heart</title>
<path d="M18.984 23.016v-11.016h-13.969v11.016h13.969zM15.984 5.016h2.016v1.969h0.984q0.844 0 1.43 0.586t0.586 1.43v14.016q0 0.797-0.586 1.383t-1.43 0.586h-13.969q-0.844 0-1.43-0.586t-0.586-1.383v-14.016q0-0.844 0.586-1.43t1.43-0.586h0.984v-1.969h2.016v1.969h7.969v-1.969zM12 21.188l-0.563-0.563h-0.047q-1.875-1.688-2.438-2.438-0.938-1.125-0.938-2.109t0.633-1.617 1.57-0.633q1.078 0 1.781 0.844 0.703-0.844 1.781-0.844 0.938 0 1.57 0.633t0.633 1.617-0.938 2.109q-0.563 0.75-2.438 2.438z"></path>
</svg>
