<!-- Generated by IcoMoon.io -->
<svg version="1.1" xmlns="http://www.w3.org/2000/svg" width="24" height="24" viewBox="0 0 24 24">
<title>calendar_account_outline</title>
<path d="M18.984 6.984h-0.984v-1.969h-2.016v1.969h-7.969v-1.969h-2.016v1.969h-0.984q-0.844 0-1.43 0.586t-0.586 1.43v14.016q0 0.797 0.586 1.383t1.43 0.586h13.969q0.844 0 1.43-0.586t0.586-1.383v-14.016q0-0.844-0.586-1.43t-1.43-0.586zM18.984 23.016h-13.969v-10.031h13.969v10.031zM18.984 11.016h-13.969v-2.016h13.969v2.016zM12 14.016q0.984 0 1.617 0.656t0.633 1.57-0.68 1.594-1.594 0.656-1.57-0.656-0.656-1.57 0.656-1.594 1.594-0.656zM16.5 21.891v0.094h-9v-0.094q0-0.938 1.313-1.594t3.188-0.656 3.188 0.656 1.313 1.594z"></path>
</svg>
