<!-- Generated by IcoMoon.io -->
<svg version="1.1" xmlns="http://www.w3.org/2000/svg" width="24" height="24" viewBox="0 0 24 24">
<title>calendar_repeat</title>
<path d="M18 14.016v1.5q1.547 0 2.648 0.984t1.313 2.461-0.633 2.742l-1.078-1.078q0.375-0.797 0.188-1.664t-0.867-1.406-1.57-0.539v1.5l-2.25-2.25zM18 24.984v-1.5q-1.547 0-2.648-0.984t-1.313-2.461 0.633-2.742l1.078 1.078q-0.375 0.797-0.188 1.664t0.867 1.406 1.57 0.539v-1.5l2.25 2.25zM18.984 6h-0.984v-2.016h-2.016v2.016h-7.969v-2.016h-2.016v2.016h-0.984q-0.844 0-1.43 0.586t-0.586 1.43v13.969q0 0.844 0.586 1.43t1.43 0.586h9q-0.938-0.797-1.5-2.016h-7.5v-10.969h13.969v2.578q1.125 0.188 2.016 0.703v-6.281q0-0.844-0.586-1.43t-1.43-0.586z"></path>
</svg>
