<!-- Generated by IcoMoon.io -->
<svg version="1.1" xmlns="http://www.w3.org/2000/svg" width="24" height="24" viewBox="0 0 24 24">
<title>calendar_star</title>
<path d="M18.984 23.016h-13.969v-11.016h13.969v11.016zM15.984 5.016v1.969h-7.969v-1.969h-2.016v1.969h-0.984q-0.844 0-1.43 0.586t-0.586 1.43v14.016q0 0.797 0.586 1.383t1.43 0.586h13.969q0.844 0 1.43-0.586t0.586-1.383v-14.016q0-0.844-0.586-1.43t-1.43-0.586h-0.984v-1.969h-2.016zM10.875 15.984h-3.609l2.906 2.109-1.078 3.469 2.906-2.109 2.906 2.109-1.125-3.422 2.953-2.156h-3.609l-1.125-3.422z"></path>
</svg>
