<!-- Generated by IcoMoon.io -->
<svg version="1.1" xmlns="http://www.w3.org/2000/svg" width="24" height="24" viewBox="0 0 24 24">
<title>calendar_search</title>
<path d="M15.516 15q1.875 0 3.188 1.313t1.313 3.188q0 1.313-0.703 2.391l3.094 3.094-1.406 1.406-3.141-3.094q-1.078 0.703-2.344 0.703-1.875 0-3.188-1.313t-1.313-3.188 1.313-3.188 3.188-1.313zM15.516 17.016q-1.031 0-1.781 0.727t-0.75 1.758 0.75 1.758 1.781 0.727 1.758-0.727 0.727-1.758-0.727-1.758-1.758-0.727zM18.984 11.016h-13.969v10.969h4.5q0.422 1.125 1.313 2.016h-5.813q-0.844 0-1.43-0.586t-0.586-1.43v-13.969q0-0.844 0.586-1.43t1.43-0.586h0.984v-2.016h2.016v2.016h7.969v-2.016h2.016v2.016h0.984q0.844 0 1.43 0.586t0.586 1.43v8.016q-0.703-1.172-2.016-2.016v-3z"></path>
</svg>
