<!-- Generated by IcoMoon.io -->
<svg version="1.1" xmlns="http://www.w3.org/2000/svg" width="24" height="24" viewBox="0 0 24 24">
<title>calendar_clock</title>
<path d="M15 15.984h1.5v2.813l2.438 1.453-0.75 1.266-3.188-1.828v-3.703zM18.984 11.016h-13.969v10.969h4.641q-0.656-1.406-0.656-3 0-1.875 0.938-3.492t2.555-2.555 3.492-0.938q1.594 0 3 0.656v-1.641zM5.016 24q-0.844 0-1.43-0.586t-0.586-1.43v-13.969q0-0.844 0.586-1.43t1.43-0.586h0.984v-2.016h2.016v2.016h7.969v-2.016h2.016v2.016h0.984q0.844 0 1.43 0.586t0.586 1.43v6.094q0.938 0.938 1.477 2.203t0.539 2.672q0 1.922-0.961 3.516t-2.555 2.555-3.516 0.961q-1.406 0-2.672-0.539t-2.203-1.477h-6.094zM15.984 14.156q-2.016 0-3.422 1.406t-1.406 3.422 1.406 3.445 3.422 1.43q0.984 0 1.875-0.375t1.57-1.055 1.055-1.57 0.375-1.875q0-2.016-1.43-3.422t-3.445-1.406z"></path>
</svg>
