<!-- Generated by IcoMoon.io -->
<svg version="1.1" xmlns="http://www.w3.org/2000/svg" width="24" height="24" viewBox="0 0 24 24">
<title>calendar_question</title>
<path d="M6 3.984v2.016h-0.984q-0.844 0-1.43 0.586t-0.586 1.43v13.969q0 0.844 0.586 1.43t1.43 0.586h13.969q0.844 0 1.43-0.586t0.586-1.43v-13.969q0-0.844-0.586-1.43t-1.43-0.586h-0.984v-2.016h-2.016v2.016h-7.969v-2.016h-2.016zM5.016 11.016h13.969v10.969h-13.969v-10.969zM12.188 12q-1.313 0-2.109 0.609t-0.75 1.734v0.047h1.922q0-0.469 0.281-0.703t0.703-0.234 0.703 0.281 0.281 0.773-0.234 0.82-0.609 0.563q-0.797 0.516-1.078 0.914t-0.281 1.195h1.969q0-0.469 0.141-0.75t0.516-0.516q0.703-0.375 1.125-0.961t0.422-1.289q0-1.125-0.797-1.805t-2.203-0.68zM11.016 18.984v2.016h1.969v-2.016h-1.969z"></path>
</svg>
