<!-- Generated by IcoMoon.io -->
<svg version="1.1" xmlns="http://www.w3.org/2000/svg" width="24" height="24" viewBox="0 0 24 24">
<title>calendar_multiple_check</title>
<path d="M21 20.016v-9h-14.016v9h14.016zM21 6q0.844 0 1.43 0.586t0.586 1.43v12q0 0.797-0.586 1.383t-1.43 0.586h-14.016q-0.797 0-1.383-0.586t-0.586-1.383v-12q0-0.844 0.586-1.43t1.383-0.586h1.031v-2.016h1.969v2.016h8.016v-2.016h2.016v2.016h0.984zM17.531 14.063l-4.453 4.453-2.672-2.719 1.078-1.031 1.594 1.594 3.375-3.375zM3 24h14.016v2.016h-14.016q-0.844 0-1.43-0.586t-0.586-1.43v-12h2.016v12z"></path>
</svg>
