<!-- Generated by IcoMoon.io -->
<svg version="1.1" xmlns="http://www.w3.org/2000/svg" width="24" height="24" viewBox="0 0 24 24">
<title>calendar_month</title>
<path d="M9 12.984v2.016h-2.016v-2.016h2.016zM12.984 12.984v2.016h-1.969v-2.016h1.969zM17.016 12.984v2.016h-2.016v-2.016h2.016zM18.984 6q0.844 0 1.43 0.586t0.586 1.43v13.969q0 0.844-0.586 1.43t-1.43 0.586h-13.969q-0.844 0-1.43-0.586t-0.586-1.43v-13.969q0-0.844 0.586-1.43t1.43-0.586h0.984v-2.016h2.016v2.016h7.969v-2.016h2.016v2.016h0.984zM18.984 21.984v-10.969h-13.969v10.969h13.969zM9 17.016v1.969h-2.016v-1.969h2.016zM12.984 17.016v1.969h-1.969v-1.969h1.969zM17.016 17.016v1.969h-2.016v-1.969h2.016z"></path>
</svg>
