<!-- Generated by IcoMoon.io -->
<svg version="1.1" xmlns="http://www.w3.org/2000/svg" width="24" height="24" viewBox="0 0 24 24">
<title>calendar_edit</title>
<path d="M18.984 6h-0.984v-2.016h-2.016v2.016h-7.969v-2.016h-2.016v2.016h-0.984q-0.844 0-1.43 0.586t-0.586 1.43v13.969q0 0.844 0.586 1.43t1.43 0.586h4.969v-2.016h-4.969v-10.969h13.969v0.984h2.016v-3.984q0-0.844-0.586-1.43t-1.43-0.586zM21.703 16.359l-0.984 0.984-2.063-2.016 0.984-0.984q0.141-0.141 0.375-0.141t0.422 0.141l1.266 1.266q0.141 0.188 0.141 0.398t-0.141 0.352zM12 21.938l6.047-6.047 2.063 1.969-6.047 6.141h-2.063v-2.063z"></path>
</svg>
