<!-- Generated by IcoMoon.io -->
<svg version="1.1" xmlns="http://www.w3.org/2000/svg" width="24" height="24" viewBox="0 0 24 24">
<title>camera_plus_outline</title>
<path d="M21 9h-3.188l-1.828-2.016h-6v2.016h5.109l1.922 2.016h3.984v12h-15.984v-9h-2.016v9q0 0.797 0.586 1.383t1.43 0.586h15.984q0.844 0 1.43-0.586t0.586-1.383v-12q0-0.844-0.586-1.43t-1.43-0.586zM8.016 17.016q0 1.594 0.891 2.859 0.797 1.172 2.18 1.734t2.789 0.328q1.547-0.281 2.672-1.406t1.406-2.672q0.234-1.406-0.328-2.766t-1.734-2.203q-1.266-0.891-2.906-0.891-1.359 0-2.508 0.68t-1.805 1.828-0.656 2.508zM12.984 14.016q1.266 0 2.133 0.867t0.867 2.109-0.867 2.109-2.109 0.867-2.109-0.867-0.867-2.109 0.867-2.109 2.086-0.867zM5.016 9h3v-2.016h-3v-3h-2.016v3h-3v2.016h3v3h2.016v-3z"></path>
</svg>
