<!-- Generated by IcoMoon.io -->
<svg version="1.1" xmlns="http://www.w3.org/2000/svg" width="24" height="24" viewBox="0 0 24 24">
<title>camera_plus</title>
<path d="M3 6.984v-3h2.016v3h3v2.016h-3v3h-2.016v-3h-3v-2.016h3zM6 12.984v-3h3v-3h6.984l1.828 2.016h3.188q0.844 0 1.43 0.586t0.586 1.43v12q0 0.797-0.586 1.383t-1.43 0.586h-15.984q-0.844 0-1.43-0.586t-0.586-1.383v-10.031h3zM12.984 21.984q1.641 0 2.859-0.844t1.781-2.227 0.328-2.789q-0.281-1.5-1.406-2.648t-2.672-1.43q-1.406-0.234-2.789 0.328t-2.18 1.734q-0.891 1.266-0.891 2.906 0 1.359 0.656 2.508t1.805 1.805 2.508 0.656zM9.797 17.016q0 1.359 0.938 2.25t2.25 0.938 2.273-0.938 0.938-2.273-0.914-2.25-2.25-0.961-2.297 0.961-0.938 2.273z"></path>
</svg>
