<!-- Generated by IcoMoon.io -->
<svg version="1.1" xmlns="http://www.w3.org/2000/svg" width="24" height="24" viewBox="0 0 24 24">
<title>camera_timer</title>
<path d="M4.922 9.328q-0.281-0.281-0.281-0.703t0.305-0.703 0.703-0.281 0.68 0.281l7.078 5.672q0.609 0.563 0.609 1.406t-0.586 1.43-1.43 0.586-1.406-0.609zM12 23.016q2.156 0 4.008-1.078t2.93-2.93 1.078-4.008q0-1.641-0.633-3.094t-1.711-2.578l1.406-1.406q1.359 1.406 2.133 3.234t0.773 3.82-0.75 3.844-2.156 3.258-3.258 2.156-3.82 0.75-3.82-0.75-3.258-2.156-2.156-3.258-0.75-3.82h1.969q0 2.156 1.078 4.008t2.93 2.93 4.008 1.078zM12 3.984q0.844 0 1.43 0.586t0.586 1.43-0.586 1.43-1.43 0.586-1.43-0.586-0.586-1.43 0.586-1.43 1.43-0.586z"></path>
</svg>
