<!-- Generated by IcoMoon.io -->
<svg version="1.1" xmlns="http://www.w3.org/2000/svg" width="24" height="24" viewBox="0 0 24 24">
<title>camera_off</title>
<path d="M1.219 7.453l1.266-1.266 17.531 17.531-1.266 1.266-2.016-1.969h-12.75q-0.797 0-1.383-0.586t-0.586-1.43v-12q0-0.281 0.094-0.609zM6.984 6.984l2.016-1.969h6l2.016 1.969h3q0.797 0 1.383 0.586t0.586 1.43v12q0 0.891-0.656 1.5l-5.016-5.016q0.703-1.125 0.703-2.484 0-0.984-0.398-1.898t-1.102-1.617-1.617-1.102-1.898-0.398q-1.359 0-2.484 0.703l-3.703-3.703h1.172zM6.984 15q0 1.359 0.68 2.508t1.828 1.828 2.508 0.68q0.797 0 1.5-0.234l-1.781-1.781q-1.078-0.094-1.852-0.867t-0.867-1.852l-1.781-1.781q-0.234 0.703-0.234 1.5zM12 12q1.266 0 2.133 0.867t0.867 2.133q0 0.516-0.188 0.984l-3.797-3.797q0.469-0.188 0.984-0.188z"></path>
</svg>
