<!-- Generated by IcoMoon.io -->
<svg version="1.1" xmlns="http://www.w3.org/2000/svg" width="24" height="24" viewBox="0 0 24 24">
<title>camera_wireless_outline</title>
<path d="M20.016 12v11.016h-16.031v-12h4.078l1.828-2.016h5.109v-2.016h-6l-1.828 2.016h-3.188q-0.797 0-1.383 0.586t-0.586 1.43v12q0 0.797 0.586 1.383t1.383 0.586h16.031q0.797 0 1.383-0.586t0.586-1.383v-11.016h-1.969zM20.672 11.016h1.313q0-1.641-0.797-3.023t-2.18-2.18-3.023-0.797v1.313q1.969 0 3.328 1.359t1.359 3.328zM18 11.016h1.313q0-1.406-0.961-2.367t-2.367-0.961v1.313q0.844 0 1.43 0.586t0.586 1.43zM6.984 17.016q0 0.984 0.398 1.898t1.102 1.617 1.617 1.078 1.898 0.375 1.898-0.375 1.617-1.078 1.102-1.617 0.398-1.898q0-1.359-0.68-2.508t-1.828-1.828-2.508-0.68-2.508 0.68-1.828 1.828-0.68 2.508zM15 17.016q0 1.219-0.867 2.109t-2.133 0.891-2.133-0.891-0.867-2.133 0.867-2.109 2.133-0.867 2.133 0.867 0.867 2.133z"></path>
</svg>
