<!-- Generated by IcoMoon.io -->
<svg version="1.1" xmlns="http://www.w3.org/2000/svg" width="24" height="24" viewBox="0 0 24 24">
<title>camera_enhance1</title>
<path d="M9 6l-1.828 2.016h-3.188q-0.797 0-1.383 0.586t-0.586 1.383v12q0 0.844 0.586 1.43t1.383 0.586h16.031q0.797 0 1.383-0.586t0.586-1.43v-12q0-0.797-0.586-1.383t-1.383-0.586h-3.188l-1.828-2.016h-6zM12 21q-0.984 0-1.898-0.375t-1.617-1.078-1.102-1.617-0.398-1.922 0.398-1.922 1.102-1.617 1.617-1.078 1.898-0.375 1.898 0.375 1.617 1.078 1.102 1.617 0.398 1.922-0.398 1.922-1.102 1.617-1.617 1.078-1.898 0.375zM12 20.016l1.266-2.766 2.719-1.266-2.719-1.219-1.266-2.766-1.266 2.766-2.719 1.219 2.719 1.266z"></path>
</svg>
