<!-- Generated by IcoMoon.io -->
<svg version="1.1" xmlns="http://www.w3.org/2000/svg" width="24" height="24" viewBox="0 0 24 24">
<title>camera_iris</title>
<path d="M13.734 18l-3.891 6.75q1.125 0.234 2.156 0.234 1.781 0 3.398-0.586t2.93-1.664l-3.656-6.328zM2.438 18q0.703 2.203 2.297 3.867t3.703 2.461l3.703-6.328h-9.703zM8.531 15l-3.891-6.75q-1.266 1.313-1.945 3.070t-0.68 3.68q0 0.984 0.188 2.016h7.5zM21.797 12.984h-7.5l5.063 8.766q1.266-1.359 1.945-3.094t0.68-3.656q0-1.031-0.188-2.016zM21.563 12q-0.703-2.203-2.297-3.867t-3.703-2.461l-3.703 6.328h9.703zM9.422 13.5l4.734-8.25q-1.125-0.234-2.156-0.234-1.781 0-3.398 0.586t-2.93 1.664l3.656 6.328z"></path>
</svg>
