<!-- Generated by IcoMoon.io -->
<svg version="1.1" xmlns="http://www.w3.org/2000/svg" width="24" height="24" viewBox="0 0 24 24">
<title>camera1</title>
<path d="M3.984 6.984h3l2.016-1.969h6l2.016 1.969h3q0.797 0 1.383 0.586t0.586 1.43v12q0 0.844-0.586 1.43t-1.383 0.586h-16.031q-0.797 0-1.383-0.586t-0.586-1.43v-12q0-0.844 0.586-1.43t1.383-0.586zM12 9.984q-0.984 0-1.898 0.398t-1.617 1.102-1.102 1.617-0.398 1.898q0 1.359 0.68 2.508t1.828 1.828 2.508 0.68 2.508-0.68 1.828-1.828 0.68-2.508q0-0.984-0.398-1.898t-1.102-1.617-1.617-1.102-1.898-0.398zM12 12q1.266 0 2.133 0.867t0.867 2.133-0.867 2.133-2.133 0.867-2.133-0.867-0.867-2.133 0.867-2.133 2.133-0.867z"></path>
</svg>
