<!-- Generated by IcoMoon.io -->
<svg version="1.1" xmlns="http://www.w3.org/2000/svg" width="24" height="24" viewBox="0 0 24 24">
<title>camera_retake</title>
<path d="M20.016 8.016h-3l-2.016-2.016h-6l-2.016 2.016h-3q-0.797 0-1.383 0.586t-0.586 1.383v12q0 0.844 0.586 1.43t1.383 0.586h16.031q0.797 0 1.383-0.586t0.586-1.43v-12q0-0.797-0.586-1.383t-1.383-0.586zM12 21q-1.688 0-3-0.984l1.453-1.453q0.703 0.422 1.547 0.422 1.266 0 2.133-0.867t0.867-2.109-0.867-2.133-2.133-0.891q-0.938 0-1.711 0.563t-1.102 1.453h1.828l-3 3-3-3h2.063q0.281-1.313 1.172-2.32t2.156-1.43 2.602-0.141 2.32 1.148 1.406 2.133 0.188 2.625q-0.375 1.734-1.758 2.859t-3.164 1.125z"></path>
</svg>
