<!-- Generated by IcoMoon.io -->
<svg version="1.1" xmlns="http://www.w3.org/2000/svg" width="24" height="24" viewBox="0 0 24 24">
<title>camera_wireless</title>
<path d="M12 13.781q1.313 0 2.25 0.938t0.938 2.273-0.938 2.273-2.25 0.938-2.25-0.938-0.938-2.273 0.938-2.273 2.25-0.938zM15.984 6.328v-1.313q1.641 0 3.023 0.797t2.18 2.18 0.797 3.023h-1.313q0-1.969-1.359-3.328t-3.328-1.359zM15.984 9v-1.313q1.406 0 2.367 0.961t0.961 2.367h-1.313q0-0.844-0.586-1.43t-1.43-0.586zM17.016 12h4.969v11.016q0 0.797-0.586 1.383t-1.383 0.586h-16.031q-0.797 0-1.383-0.586t-0.586-1.383v-12q0-0.844 0.586-1.43t1.383-0.586h3.188l1.828-2.016h6v3q0.844 0 1.43 0.586t0.586 1.43zM12 21.984q0.984 0 1.898-0.375t1.617-1.078 1.102-1.617 0.398-1.898q0-1.359-0.68-2.508t-1.828-1.828-2.508-0.68-2.508 0.68-1.828 1.828-0.68 2.508q0 0.984 0.398 1.898t1.102 1.617 1.617 1.078 1.898 0.375z"></path>
</svg>
