<!-- Generated by IcoMoon.io -->
<svg version="1.1" xmlns="http://www.w3.org/2000/svg" width="24" height="24" viewBox="0 0 24 24">
<title>camera_party_mode</title>
<path d="M12 20.016q-1.219 0-2.25-0.539t-1.734-1.477h3.984q1.266 0 2.133-0.867t0.867-2.133q0-0.516-0.188-0.984h2.109q0.094 0.516 0.094 0.984 0 1.359-0.68 2.508t-1.828 1.828-2.508 0.68zM12 9.984q1.219 0 2.25 0.539t1.734 1.477h-3.984q-1.266 0-2.133 0.867t-0.867 2.133q0 0.469 0.188 0.984h-2.109q-0.094-0.422-0.094-0.984 0-0.984 0.398-1.898t1.102-1.617 1.617-1.102 1.898-0.398zM20.016 6.984h-3.188l-1.828-1.969h-6l-1.828 1.969h-3.188q-0.797 0-1.383 0.586t-0.586 1.43v12q0 0.844 0.586 1.43t1.383 0.586h16.031q0.797 0 1.383-0.586t0.586-1.43v-12q0-0.844-0.586-1.43t-1.383-0.586z"></path>
</svg>
