<!-- Generated by IcoMoon.io -->
<svg version="1.1" xmlns="http://www.w3.org/2000/svg" width="24" height="24" viewBox="0 0 24 24">
<title>camera_enhance_outline</title>
<path d="M12 12.984l-0.938 2.063-2.063 0.938 2.063 0.938 0.938 2.063 0.938-2.063 2.063-0.938-2.063-0.938zM20.016 8.016h-3.188l-1.828-2.016h-6l-1.828 2.016h-3.188q-0.797 0-1.383 0.586t-0.586 1.383v12q0 0.844 0.586 1.43t1.383 0.586h16.031q0.797 0 1.383-0.586t0.586-1.43v-12q0-0.797-0.586-1.383t-1.383-0.586zM20.016 21.984h-16.031v-12h4.078l1.828-1.969h4.219l1.828 1.969h4.078v12zM12 11.016q-0.984 0-1.898 0.375t-1.617 1.078-1.102 1.617-0.398 1.922 0.398 1.922 1.102 1.617 1.617 1.078 1.898 0.375 1.898-0.375 1.617-1.078 1.102-1.617 0.398-1.922-0.398-1.922-1.102-1.617-1.617-1.078-1.898-0.375zM12 18.984q-1.266 0-2.133-0.867t-0.867-2.109 0.867-2.133 2.133-0.891 2.133 0.891 0.867 2.133-0.867 2.109-2.133 0.867z"></path>
</svg>
