<!-- Generated by IcoMoon.io -->
<svg version="1.1" xmlns="http://www.w3.org/2000/svg" width="24" height="24" viewBox="0 0 24 24">
<title>campfire</title>
<path d="M15.891 21.516l6 1.594-0.375 1.875-9.422-2.484-9.375 2.484-0.516-1.875 6-1.594-6.094-1.594 0.469-1.922 9.422 2.484 9.422-2.484 0.469 1.922zM16.078 10.922q-0.234-0.328-0.563-0.609-0.234-0.188-0.656-0.516-0.563-0.422-0.797-0.656-0.797-0.797-0.961-1.969t0.352-2.156q-0.891 0.234-1.781 0.938-1.406 1.125-1.875 2.93t0.188 3.492l0.047 0.234q0 0.234-0.234 0.352t-0.469-0.070q-0.047-0.047-0.094-0.141-0.609-0.75-0.703-1.758t0.328-1.945q-0.891 0.75-1.359 1.898t-0.375 2.367q0 0.563 0.188 1.031 0.141 0.703 0.516 1.266 0.563 0.938 1.5 1.57t1.969 0.773q1.219 0.141 2.297-0.094 1.219-0.328 2.016-1.078 0.984-0.891 1.289-2.203t-0.211-2.578l-0.094-0.188q-0.188-0.469-0.563-0.891h0.047zM13.828 15.469q-0.328 0.328-0.797 0.422-0.516 0.234-1.078 0.023t-0.938-0.586q0.563-0.141 0.961-0.563t0.539-0.938q0.047-0.422-0.141-1.125l-0.094-0.469q-0.141-0.844 0.141-1.5 0.234 0.516 0.422 0.773t0.633 0.633 0.633 0.609q0.281 0.328 0.328 0.75l0.047 0.328q0 0.469-0.164 0.914t-0.492 0.727z"></path>
</svg>
