<!-- Generated by IcoMoon.io -->
<svg version="1.1" xmlns="http://www.w3.org/2000/svg" width="24" height="24" viewBox="0 0 24 24">
<title>cannabis</title>
<path d="M11.484 24.984v-4.641q-0.984 1.547-3.469 2.484l0.188-0.516q0.281-0.563 0.609-1.125 0.516-0.703 1.125-1.219-2.578 0.516-5.953-0.984l0.75-0.328q0.938-0.375 1.922-0.609 1.359-0.234 2.625-0.094-3.234-1.969-5.109-6.844l0.75 0.234q0.891 0.375 1.781 0.844 1.219 0.703 2.203 1.547 1.219 1.078 2.016 2.391-1.266-3.047-0.234-7.406 0.516-2.156 1.313-3.703v0q1.641 3.656 1.781 6.844 0.094 2.344-0.656 4.219 1.406-2.344 4.172-3.891 1.406-0.75 2.531-1.078v0q-1.875 4.875-5.109 6.844 1.266-0.141 2.625 0.094 0.984 0.234 1.922 0.609l0.75 0.328q-3.375 1.5-5.953 0.984 0.891 0.703 1.5 1.828 0.281 0.563 0.422 1.031v0q-2.484-0.938-3.469-2.484v4.641h-1.031z"></path>
</svg>
