<!-- Generated by IcoMoon.io -->
<svg version="1.1" xmlns="http://www.w3.org/2000/svg" width="24" height="24" viewBox="0 0 24 24">
<title>car_multiple</title>
<path d="M8.016 14.016l1.5-4.5h9l1.5 4.5h-12zM18.516 18.984q-0.656 0-1.078-0.422t-0.422-1.055 0.422-1.078 1.055-0.445 1.078 0.445 0.445 1.078-0.445 1.055-1.055 0.422zM9.516 18.984q-0.656 0-1.078-0.422t-0.422-1.055 0.422-1.078 1.055-0.445 1.078 0.445 0.445 1.078-0.445 1.055-1.055 0.422zM19.922 9q-0.141-0.469-0.539-0.727t-0.867-0.258h-9q-0.516 0-0.891 0.258t-0.563 0.727l-2.063 6v8.016q0 0.422 0.281 0.703t0.703 0.281h1.031q0.422 0 0.703-0.281t0.281-0.703v-1.031h9.984v1.031q0 0.422 0.305 0.703t0.727 0.281h0.984q0.422 0 0.703-0.281t0.281-0.703v-8.016zM14.906 6q-0.141-0.469-0.539-0.727t-0.867-0.258h-9q-0.469 0-0.867 0.258t-0.539 0.727l-2.109 6v8.016q0 0.422 0.305 0.703t0.727 0.281h0.984q0.422 0 0.703-0.281t0.281-0.703v-4.125q-0.563-0.188-0.82-0.75t-0.070-1.125q0.188-0.469 0.563-0.75t0.844-0.281h0.047l0.703-1.969h-2.25l1.5-4.5h10.594z"></path>
</svg>
