<!-- Generated by IcoMoon.io -->
<svg version="1.1" xmlns="http://www.w3.org/2000/svg" width="24" height="24" viewBox="0 0 24 24">
<title>car_side</title>
<path d="M15.984 9l3 3.984h2.016q0.844 0 1.43 0.586t0.586 1.43v3h-2.016q0 1.266-0.867 2.133t-2.133 0.867-2.133-0.867-0.867-2.133h-6q0 1.266-0.867 2.133t-2.133 0.867-2.133-0.867-0.867-2.133h-2.016v-3q0-0.844 0.586-1.43t1.43-0.586l3-3.984h9.984zM10.5 10.5h-3.75l-1.875 2.484h5.625v-2.484zM12 10.5v2.484h5.156l-1.922-2.484h-3.234zM6 16.5q-0.609 0-1.055 0.445t-0.445 1.055 0.445 1.055 1.055 0.445 1.055-0.445 0.445-1.055-0.445-1.055-1.055-0.445zM18 16.5q-0.609 0-1.055 0.445t-0.445 1.055 0.445 1.055 1.055 0.445 1.055-0.445 0.445-1.055-0.445-1.055-1.055-0.445z"></path>
</svg>
