<!-- Generated by IcoMoon.io -->
<svg version="1.1" xmlns="http://www.w3.org/2000/svg" width="24" height="24" viewBox="0 0 24 24">
<title>car_off</title>
<path d="M20.484 22.828l-14.063-14.063-4.031-3.984-1.266 1.219 3.422 3.469-1.547 4.547v7.969q0 0.422 0.281 0.727t0.703 0.305h1.031q0.422 0 0.703-0.305t0.281-0.727v-0.984h10.125l4.734 4.734 1.266-1.266zM6.516 18q-0.656 0-1.078-0.445t-0.422-1.055 0.422-1.055 1.055-0.445 1.078 0.445 0.445 1.055-0.445 1.055-1.055 0.445zM5.016 12.984l0.75-2.297 2.344 2.297h-3.094zM17.484 8.484l1.5 4.5h-5.766l2.906 2.953q0.281-0.563 0.867-0.773t1.148 0.047 0.75 0.844-0.070 1.125-0.68 0.727l2.859 2.906v-6.797l-2.063-6q-0.188-0.469-0.563-0.75t-0.891-0.281h-10.266l1.5 1.5h8.766z"></path>
</svg>
