<!-- Generated by IcoMoon.io -->
<svg version="1.1" xmlns="http://www.w3.org/2000/svg" width="24" height="24" viewBox="0 0 24 24">
<title>car_pickup</title>
<path d="M15.984 9h-5.484v3.984h-9.516v5.016h2.016q0 1.266 0.867 2.133t2.133 0.867 2.133-0.867 0.867-2.133h6q0 1.266 0.867 2.133t2.133 0.867 2.133-0.867 0.867-2.133h2.016v-3q0-0.844-0.586-1.43t-1.43-0.586h-2.016zM12 10.5h3.516l1.922 2.484h-5.438v-2.484zM6 16.5q0.609 0 1.055 0.445t0.445 1.055-0.445 1.055-1.055 0.445-1.055-0.445-0.445-1.055 0.445-1.055 1.055-0.445zM18 16.5q0.609 0 1.055 0.445t0.445 1.055-0.445 1.055-1.055 0.445-1.055-0.445-0.445-1.055 0.445-1.055 1.055-0.445z"></path>
</svg>
