<!-- Generated by IcoMoon.io -->
<svg version="1.1" xmlns="http://www.w3.org/2000/svg" width="24" height="24" viewBox="0 0 24 24">
<title>car_back</title>
<path d="M6 14.016l0.984-4.031h10.031l0.984 4.031h-12zM18.938 9q-0.188-0.469-0.563-0.727t-0.891-0.258h-10.969q-0.516 0-0.891 0.258t-0.563 0.727l-2.063 6v8.016q0 0.422 0.281 0.703t0.703 0.281h1.031q0.422 0 0.703-0.281t0.281-0.703v-2.016h12v2.016q0 0.422 0.281 0.703t0.703 0.281h1.031q0.422 0 0.703-0.281t0.281-0.703v-8.016zM6.984 18.984h-1.969v-1.969h1.969v1.969zM18.984 18.984h-1.969v-1.969h1.969v1.969zM14.016 18.984h-4.031v-1.969h4.031v1.969z"></path>
</svg>
