<!-- Generated by IcoMoon.io -->
<svg version="1.1" xmlns="http://www.w3.org/2000/svg" width="24" height="24" viewBox="0 0 24 24">
<title>cards</title>
<path d="M21.469 7.359l-1.359-0.563v9l2.438-5.859q0.328-0.75 0-1.523t-1.078-1.055zM1.969 11.063l4.969 11.953q0.234 0.563 0.727 0.891t1.055 0.375q0.422 0 0.797-0.188l7.406-3.047q0.516-0.234 0.844-0.727t0.375-1.055q0-0.375-0.141-0.797l-5.016-11.953q-0.188-0.563-0.703-0.914t-1.078-0.352q-0.375 0-0.797 0.141l-7.359 3.047q-0.75 0.328-1.078 1.102t0 1.523zM18.141 7.266q0-0.844-0.586-1.43t-1.43-0.586h-1.453l3.469 8.344v-6.328z"></path>
</svg>
