<!-- Generated by IcoMoon.io -->
<svg version="1.1" xmlns="http://www.w3.org/2000/svg" width="24" height="24" viewBox="0 0 24 24">
<title>card_search_outline</title>
<path d="M11.484 18.984q1.313 0 2.391-0.703l2.438 2.438 1.406-1.406-2.438-2.438q0.703-1.078 0.703-2.391 0-1.875-1.313-3.188t-3.188-1.313-3.188 1.313-1.313 3.188 1.313 3.188 3.188 1.313zM11.484 12q1.031 0 1.781 0.727t0.75 1.758-0.75 1.781-1.781 0.75-1.758-0.75-0.727-1.781 0.727-1.758 1.758-0.727zM20.016 6.984h-16.031q-0.797 0-1.383 0.586t-0.586 1.43v12q0 0.844 0.586 1.43t1.383 0.586h16.031q0.797 0 1.383-0.586t0.586-1.43v-12q0-0.844-0.586-1.43t-1.383-0.586zM20.016 21h-16.031v-12h16.031v12z"></path>
</svg>
