<!-- Generated by IcoMoon.io -->
<svg version="1.1" xmlns="http://www.w3.org/2000/svg" width="24" height="24" viewBox="0 0 24 24">
<title>cart_arrow_right</title>
<path d="M9 23.016q0 0.797-0.586 1.383t-1.406 0.586-1.406-0.586-0.586-1.406 0.586-1.406 1.406-0.586 1.406 0.586 0.586 1.43zM17.016 21q-0.844 0-1.43 0.586t-0.586 1.406 0.586 1.406 1.406 0.586 1.406-0.586 0.586-1.406-0.586-1.406-1.383-0.586zM7.219 17.625q-0.047 0.047-0.023 0.141t0.094 0.164 0.164 0.070h11.531v2.016h-12q-0.797 0-1.383-0.586t-0.586-1.43q0-0.563 0.234-0.984l1.359-2.438-3.609-7.594h-2.016v-1.969h3.281l0.938 1.969h14.813q0.422 0 0.703 0.305t0.281 0.727q0 0.188-0.141 0.469l-3.563 6.516q-0.281 0.469-0.75 0.727t-0.984 0.258h-7.453zM9 12.516h3.984v1.969l3-3-3-3v2.016h-3.984v2.016z"></path>
</svg>
