<!-- Generated by IcoMoon.io -->
<svg version="1.1" xmlns="http://www.w3.org/2000/svg" width="24" height="24" viewBox="0 0 24 24">
<title>cart_remove</title>
<path d="M14.109 11.531l-2.109-2.109-2.109 2.109-1.453-1.406 2.156-2.109-2.109-2.156 1.406-1.406 2.109 2.156 2.109-2.156 1.453 1.406-2.156 2.156 2.109 2.109zM6.984 21q0.844 0 1.43 0.586t0.586 1.406-0.586 1.406-1.406 0.586-1.406-0.586-0.586-1.406 0.586-1.406 1.383-0.586zM17.016 21q0.797 0 1.383 0.586t0.586 1.406-0.586 1.406-1.406 0.586-1.406-0.586-0.586-1.406 0.586-1.406 1.43-0.586zM7.172 17.766q0 0.094 0.070 0.164t0.164 0.070h11.578v2.016h-12q-0.797 0-1.383-0.586t-0.586-1.43q0-0.516 0.234-0.938l1.359-2.484-3.609-7.594h-2.016v-1.969h3.281l4.266 9h7.031l3.844-7.031 1.734 0.984-3.844 6.984q-0.234 0.469-0.703 0.75t-1.031 0.281h-7.453l-0.891 1.641z"></path>
</svg>
