<!-- Generated by IcoMoon.io -->
<svg version="1.1" xmlns="http://www.w3.org/2000/svg" width="24" height="24" viewBox="0 0 24 24">
<title>cart_outline</title>
<path d="M17.016 21q0.797 0 1.383 0.586t0.586 1.406-0.586 1.406-1.406 0.586-1.406-0.586-0.586-1.406 0.586-1.406 1.43-0.586zM0.984 5.016h3.281l0.938 1.969h14.813q0.422 0 0.703 0.305t0.281 0.727q0 0.188-0.141 0.469l-3.563 6.469q-0.234 0.469-0.703 0.75t-1.031 0.281h-7.453l-0.891 1.641-0.047 0.141q0 0.094 0.070 0.164t0.164 0.070h11.578v2.016h-12q-0.797 0-1.383-0.586t-0.586-1.43q0-0.516 0.234-0.938l1.359-2.484-3.609-7.594h-2.016v-1.969zM6.984 21q0.844 0 1.43 0.586t0.586 1.406-0.586 1.406-1.406 0.586-1.406-0.586-0.586-1.406 0.586-1.406 1.383-0.586zM15.984 14.016l2.813-5.016h-12.656l2.344 5.016h7.5z"></path>
</svg>
