<!-- Generated by IcoMoon.io -->
<svg version="1.1" xmlns="http://www.w3.org/2000/svg" width="24" height="24" viewBox="0 0 24 24">
<title>cart_off</title>
<path d="M22.734 25.734l-21.469-21.469-1.266 1.266 4.406 4.406 2.203 4.641-1.359 2.484q-0.234 0.422-0.234 0.938 0 0.844 0.586 1.43t1.383 0.586h7.453l1.406 1.359q-0.844 0.609-0.844 1.641 0 0.797 0.586 1.383t1.43 0.586q1.031 0 1.594-0.844l2.859 2.859zM7.406 18q-0.094 0-0.164-0.070t-0.070-0.164l0.047-0.141 0.891-1.641h2.344l2.016 2.016h-5.063zM15.563 15.984q0.563 0 1.031-0.281t0.703-0.75l3.563-6.469q0.141-0.234 0.141-0.469 0-0.422-0.281-0.727t-0.703-0.305h-13.453zM6.984 21q-0.797 0-1.383 0.586t-0.586 1.406 0.586 1.406 1.406 0.586 1.406-0.586 0.586-1.406-0.586-1.406-1.43-0.586z"></path>
</svg>
