<!-- Generated by IcoMoon.io -->
<svg version="1.1" xmlns="http://www.w3.org/2000/svg" width="24" height="24" viewBox="0 0 24 24">
<title>cart_arrow_up</title>
<path d="M12 3l-3.984 3.984h1.969v4.031h4.031v-4.031h1.969zM0.984 5.016v1.969h2.016l3.609 7.594-1.359 2.484q-0.234 0.422-0.234 0.938 0 0.844 0.586 1.43t1.383 0.586h12v-2.016h-11.578q-0.094 0-0.164-0.070t-0.070-0.164l0.047-0.141 0.891-1.641h7.453q0.563 0 1.031-0.281t0.703-0.75l3.844-6.984-1.734-0.984-3.844 7.031h-7.031l-4.266-9h-3.281zM6.984 21q-0.797 0-1.383 0.586t-0.586 1.406 0.586 1.406 1.406 0.586 1.406-0.586 0.586-1.406-0.586-1.406-1.43-0.586zM17.016 21q-0.844 0-1.43 0.586t-0.586 1.406 0.586 1.406 1.406 0.586 1.406-0.586 0.586-1.406-0.586-1.406-1.383-0.586z"></path>
</svg>
