<!-- Generated by IcoMoon.io -->
<svg version="1.1" xmlns="http://www.w3.org/2000/svg" width="24" height="24" viewBox="0 0 24 24">
<title>cash_multiple</title>
<path d="M5.016 9h18v12h-18v-12zM14.016 12q1.219 0 2.109 0.867t0.891 2.133-0.891 2.133-2.133 0.867-2.109-0.867-0.867-2.133 0.867-2.133 2.133-0.867zM9 11.016q0 0.797-0.586 1.383t-1.43 0.586v4.031q0.844 0 1.43 0.586t0.586 1.383h9.984q0-0.797 0.586-1.383t1.43-0.586v-4.031q-0.844 0-1.43-0.586t-0.586-1.383h-9.984zM0.984 12.984h2.016v10.031h15.984v1.969h-18v-12z"></path>
</svg>
