<!-- Generated by IcoMoon.io -->
<svg version="1.1" xmlns="http://www.w3.org/2000/svg" width="24" height="24" viewBox="0 0 24 24">
<title>cash_register</title>
<path d="M2.016 20.016h19.969v3.984h-19.969v-3.984zM6.234 9.984h2.766v-0.984h-3v-3h8.016v3h-3v0.984h6.797q0.703 0 1.359 0.633t0.844 1.383l0.469 6.984h-16.969l0.516-6.984q0-0.75 0.656-1.383t1.547-0.633zM12.984 12v2.016h5.016v-2.016h-5.016zM6 12v0.984h2.016v-0.984h-2.016zM9 12v0.984h2.016v-0.984h-2.016zM6 14.016v0.984h2.016v-0.984h-2.016zM9 14.016v0.984h2.016v-0.984h-2.016zM6 15.984v1.031h2.016v-1.031h-2.016zM9 15.984v1.031h2.016v-1.031h-2.016zM6.984 6.984v1.031h6v-1.031h-6z"></path>
</svg>
