<!-- Generated by IcoMoon.io -->
<svg version="1.1" xmlns="http://www.w3.org/2000/svg" width="24" height="24" viewBox="0 0 24 24">
<title>cash_usd_outline</title>
<path d="M20.016 21h-16.031v-12h16.031v12zM20.016 6.984h-16.031q-0.797 0-1.383 0.586t-0.586 1.43v12q0 0.844 0.586 1.43t1.383 0.586h16.031q0.797 0 1.383-0.586t0.586-1.43v-12q0-0.844-0.586-1.43t-1.383-0.586zM11.016 20.016h1.969v-1.031h1.031q0.422 0 0.703-0.281t0.281-0.703v-3q0-0.422-0.281-0.703t-0.703-0.281h-3v-1.031h3.984v-1.969h-2.016v-1.031h-1.969v1.031h-1.031q-0.422 0-0.703 0.281t-0.281 0.703v3q0 0.422 0.281 0.703t0.703 0.281h3v1.031h-3.984v1.969h2.016v1.031z"></path>
</svg>
