<!-- Generated by IcoMoon.io -->
<svg version="1.1" xmlns="http://www.w3.org/2000/svg" width="24" height="24" viewBox="0 0 24 24">
<title>cctv</title>
<path d="M18.141 7.922q-0.563-0.047-1.125 0.281l-8.672 5.016q-0.703 0.422-0.914 1.219t0.211 1.5l1.5 2.578q0.375 0.75 1.172 0.961t1.547-0.211l1.781-1.031q0.422 0.703 1.172 1.031v1.781q0 0.797 0.586 1.383t1.43 0.586h5.156v-1.969h-5.156v-1.781q0.656-0.281 1.078-0.914t0.422-1.336-0.375-1.266l2.531-1.5q0.75-0.422 0.961-1.219t-0.211-1.5l-1.5-2.578q-0.516-0.891-1.594-1.031zM6.234 16.172l-4.219 0.703 3.469 6.047 2.719-3.281z"></path>
</svg>
