<!-- Generated by IcoMoon.io -->
<svg version="1.1" xmlns="http://www.w3.org/2000/svg" width="24" height="24" viewBox="0 0 24 24">
<title>chart_bubble</title>
<path d="M7.219 14.203q1.313 0 2.25 0.938t0.938 2.273-0.938 2.25-2.273 0.914-2.273-0.914-0.938-2.25 0.938-2.273 2.297-0.938zM14.813 18.984q0.797 0 1.383 0.586t0.586 1.43-0.586 1.43-1.406 0.586-1.406-0.586-0.586-1.43 0.586-1.43 1.43-0.586zM15.188 6.984q2.016 0 3.422 1.406t1.406 3.398-1.406 3.398-3.398 1.406-3.398-1.406-1.406-3.398 1.406-3.398 3.375-1.406z"></path>
</svg>
