<!-- Generated by IcoMoon.io -->
<svg version="1.1" xmlns="http://www.w3.org/2000/svg" width="24" height="24" viewBox="0 0 24 24">
<title>chart_bell_curve</title>
<path d="M9.938 14.297q0.797-2.813 1.313-3.844 0.703-1.453 1.734-1.453t1.781 1.453q0.516 1.031 1.266 3.844 0.656 2.438 1.125 3.609 0.75 1.922 1.781 2.906 1.266 1.172 3.047 1.172v-1.969q-1.5 0-2.438-1.734-0.656-1.172-1.594-4.5-0.563-2.203-0.984-3.234-0.609-1.688-1.5-2.531-0.984-1.031-2.461-1.031t-2.508 1.031q-0.844 0.844-1.5 2.531-0.375 1.031-0.984 3.234-0.844 3.281-1.547 4.5-0.938 1.734-2.484 1.734v-15h-1.969v19.969h19.969v-1.969h-18v-1.031q1.828 0 3.094-1.172 1.031-0.984 1.781-2.906 0.469-1.172 1.078-3.609z"></path>
</svg>
