<!-- Generated by IcoMoon.io -->
<svg version="1.1" xmlns="http://www.w3.org/2000/svg" width="24" height="24" viewBox="0 0 24 24">
<title>chart_scatter_plot</title>
<path d="M2.016 5.016h1.969v18h18v1.969h-19.969v-19.969zM9 12.984q1.266 0 2.133 0.891t0.867 2.133-0.867 2.109-2.133 0.867-2.133-0.867-0.867-2.109 0.867-2.133 2.133-0.891zM12.984 5.016q1.266 0 2.133 0.867t0.867 2.109-0.867 2.133-2.109 0.891-2.133-0.891-0.891-2.133 0.891-2.109 2.109-0.867zM18 15q1.266 0 2.133 0.867t0.867 2.133-0.867 2.133-2.133 0.867-2.133-0.867-0.867-2.133 0.867-2.133 2.133-0.867z"></path>
</svg>
