<!-- Generated by IcoMoon.io -->
<svg version="1.1" xmlns="http://www.w3.org/2000/svg" width="24" height="24" viewBox="0 0 24 24">
<title>chart_arc</title>
<path d="M16.172 22.594l-2.016-3.469q0.75-0.563 1.219-1.359t0.609-1.781h4.031q-0.141 2.063-1.172 3.797t-2.672 2.813zM12.984 10.031v-4.031q2.156 0.141 3.938 1.219t2.859 2.859 1.219 3.938h-4.031q-0.188-1.594-1.289-2.695t-2.695-1.289zM6.984 15.516q0 0.938 0.375 1.781l-3.469 2.016q-0.891-1.781-0.891-3.797 0-2.25 1.055-4.148t2.906-3.070 4.055-1.313v4.031q-1.734 0.188-2.883 1.477t-1.148 3.023zM11.484 24q-2.203 0-4.055-1.031t-3.023-2.766l3.469-2.016q0.656 0.844 1.594 1.336t2.016 0.492q0.984 0 1.828-0.375l2.016 3.469q-1.781 0.891-3.844 0.891z"></path>
</svg>
