<!-- Generated by IcoMoon.io -->
<svg version="1.1" xmlns="http://www.w3.org/2000/svg" width="24" height="24" viewBox="0 0 24 24">
<title>chart_donut_variant</title>
<path d="M12.984 5.063q2.531 0.234 4.57 1.617t3.234 3.586 1.195 4.734q0 2.109-0.844 4.078l-2.625-1.547q0.469-1.219 0.469-2.531 0-1.734-0.773-3.234t-2.156-2.461-3.070-1.242v-3zM12 21.984q1.641 0 3.047-0.68t2.391-1.945l2.625 1.547q-1.406 1.922-3.516 3t-4.547 1.078q-2.719 0-5.016-1.336t-3.633-3.633-1.336-5.016q0-2.531 1.172-4.734t3.234-3.586 4.594-1.617v3q-1.688 0.281-3.070 1.242t-2.156 2.461-0.773 3.234q0 1.922 0.938 3.516t2.531 2.531 3.516 0.938zM12 9q1.641 0 3.023 0.797t2.18 2.18 0.797 3.023q0 2.203-1.43 3.891t-3.586 2.016v-3.094q0.891-0.281 1.453-1.055t0.563-1.758q0-1.266-0.867-2.133t-2.133-0.867l-0.563 0.047-1.547-2.672q0.984-0.375 2.109-0.375zM6 15q0-1.359 0.586-2.555t1.617-2.086l1.5 2.672q-0.703 0.844-0.703 1.969 0 0.984 0.563 1.758t1.453 1.055v3.094q-2.156-0.328-3.586-2.016t-1.43-3.891z"></path>
</svg>
