<!-- Generated by IcoMoon.io -->
<svg version="1.1" xmlns="http://www.w3.org/2000/svg" width="24" height="24" viewBox="0 0 24 24">
<title>chart_donut</title>
<path d="M12.984 5.063v3q1.688 0.281 3.070 1.242t2.156 2.461 0.773 3.234q0 1.313-0.469 2.531l2.625 1.547q0.844-1.969 0.844-4.078 0-2.531-1.195-4.734t-3.234-3.586-4.57-1.617zM12 21.984q-1.922 0-3.516-0.938t-2.531-2.531-0.938-3.516q0-1.734 0.773-3.234t2.156-2.461 3.070-1.242v-3q-2.531 0.234-4.594 1.617t-3.234 3.586-1.172 4.734q0 1.969 0.75 3.82t2.156 3.258 3.258 2.156 3.82 0.75q2.438 0 4.547-1.078t3.516-3l-2.625-1.547q-0.984 1.266-2.391 1.945t-3.047 0.68z"></path>
</svg>
