<!-- Generated by IcoMoon.io -->
<svg version="1.1" xmlns="http://www.w3.org/2000/svg" width="24" height="24" viewBox="0 0 24 24">
<title>charity</title>
<path d="M12.75 6.938q1.5-1.078 3.469-1.078 1.125 0 2.391 0.586t2.016 1.383q1.547 1.922 1.313 4.477t-1.688 3.961l-7.594 7.594q-0.281 0.281-0.703 0.281t-0.703-0.281-0.281-0.703 0.281-0.703l4.594-4.594q0.375-0.328 0-0.703t-0.703 0l-4.594 4.594q-0.281 0.281-0.703 0.281t-0.703-0.281-0.281-0.703 0.281-0.703l4.594-4.594q0.422-0.375 0.047-0.75t-0.75 0l-4.594 4.641q-0.281 0.281-0.703 0.281t-0.727-0.281-0.305-0.703 0.328-0.75l4.594-4.594q0.375-0.375 0-0.703t-0.703 0l-4.641 4.594q-0.328 0.328-0.727 0.328t-0.68-0.305-0.281-0.727 0.281-0.703q4.078-4.078 5.672-5.625l3.563 3.516q0.609 0.563 1.406 0.563 1.031 0 1.641-0.844 0.422-0.609 0.305-1.359t-0.633-1.266zM14.813 13.266l-4.266-4.266-7.078 7.078q-1.266-1.266-1.43-3.914t1.43-4.57q1.781-1.781 4.266-1.781t4.219 1.781l4.266 4.266q0.281 0.281 0.281 0.703t-0.281 0.703-0.703 0.281-0.703-0.281v0z"></path>
</svg>
