<!-- Generated by IcoMoon.io -->
<svg version="1.1" xmlns="http://www.w3.org/2000/svg" width="24" height="24" viewBox="0 0 24 24">
<title>chart_timeline_variant</title>
<path d="M3 17.016l0.516 0.047 4.547-4.547q-0.141-0.516 0-1.031t0.516-0.891q0.609-0.609 1.43-0.609t1.383 0.609q0.422 0.375 0.539 0.891t0.023 1.031l2.531 2.531 0.516-0.047q0.328 0 0.516 0.047l3.563-3.563q-0.094-0.141-0.094-0.469 0-0.844 0.586-1.43t1.43-0.586 1.43 0.586 0.586 1.406-0.586 1.406-1.43 0.586q-0.328 0-0.516-0.047l-3.563 3.563q0.094 0.141 0.094 0.516 0 0.797-0.586 1.383t-1.43 0.586-1.43-0.586-0.586-1.383l0.094-0.516-2.578-2.578q-0.516 0.141-0.984 0l-4.594 4.594 0.094 0.469q0 0.844-0.586 1.43t-1.43 0.586-1.43-0.586-0.586-1.406 0.586-1.406 1.43-0.586z"></path>
</svg>
