<!-- Generated by IcoMoon.io -->
<svg version="1.1" xmlns="http://www.w3.org/2000/svg" width="24" height="24" viewBox="0 0 24 24">
<title>chat_outline</title>
<path d="M12 6q-2.719 0-5.016 1.078t-3.633 2.906-1.336 4.031q0 1.594 0.727 3.047t1.992 2.438q0 0.656-0.469 1.594-0.75 1.359-2.25 2.906 1.734-0.094 3.398-0.727t3.070-1.758q1.734 0.469 3.516 0.469 2.719 0 5.016-1.078t3.633-2.906 1.336-4.008-1.336-4.008-3.633-2.906-5.016-1.078zM12 20.016q-2.156 0-4.008-0.82t-2.93-2.203-1.078-3 1.078-3 2.93-2.18 4.008-0.797 4.008 0.797 2.93 2.18 1.078 3-1.078 3-2.93 2.203-4.008 0.82z"></path>
</svg>
