<!-- Generated by IcoMoon.io -->
<svg version="1.1" xmlns="http://www.w3.org/2000/svg" width="24" height="24" viewBox="0 0 24 24">
<title>chat_alert</title>
<path d="M12 6q2.719 0 5.016 1.078t3.633 2.906 1.336 4.008-1.336 4.008-3.633 2.906-5.016 1.078q-1.828 0-3.516-0.469-1.031 0.844-2.25 1.406-0.984 0.469-2.109 0.75-0.75 0.188-1.547 0.281l-0.563 0.047q1.5-1.5 2.203-2.906 0.469-0.891 0.516-1.594-1.266-1.078-1.992-2.508t-0.727-2.977q0-2.203 1.336-4.031t3.633-2.906 5.016-1.078zM11.016 17.016v1.969h1.969v-1.969h-1.969zM11.016 15h1.969v-6h-1.969v6z"></path>
</svg>
