<!-- Generated by IcoMoon.io -->
<svg version="1.1" xmlns="http://www.w3.org/2000/svg" width="24" height="24" viewBox="0 0 24 24">
<title>checkbox_multiple_blank_circle_outline</title>
<path d="M14.016 5.016q-2.203 0-4.031 1.078t-2.906 2.906-1.078 3.984q0 1.594 0.609 3.070t1.734 2.602 2.602 1.734 3.070 0.609q2.156 0 3.984-1.078t2.906-2.906 1.078-4.008-1.078-4.008-2.906-2.906-3.984-1.078zM14.016 6.984q1.594 0 2.977 0.82t2.203 2.203 0.82 3-0.82 3-2.18 2.18-3 0.797-3.023-0.797-2.18-2.18-0.797-3 0.797-3 2.18-2.203 3.023-0.82zM4.922 8.813q-1.359 1.125-2.133 2.766t-0.773 3.422q0 2.156 1.078 4.008t2.906 2.93 3.984 1.078q0.938 0 1.875-0.234-2.625-0.609-4.688-2.484-1.453-0.797-2.32-2.227t-0.867-3.070q0-0.375 0.094-0.891-0.094-0.656-0.094-1.125 0-2.156 0.938-4.172z"></path>
</svg>
