<!-- Generated by IcoMoon.io -->
<svg version="1.1" xmlns="http://www.w3.org/2000/svg" width="24" height="24" viewBox="0 0 24 24">
<title>checkbox_multiple_marked_circle_outline</title>
<path d="M14.016 5.016q-2.203 0-4.031 1.078t-2.906 2.906-1.078 3.984q0 1.594 0.609 3.070t1.734 2.602 2.602 1.734 3.070 0.609q2.156 0 3.984-1.078t2.906-2.906 1.078-4.031h-1.969q0 1.641-0.82 3.023t-2.18 2.18-3 0.797-3.023-0.797-2.18-2.18-0.797-3 0.797-3 2.18-2.203 3.023-0.82q0.609 0 1.266 0.141l1.594-1.594q-1.359-0.516-2.859-0.516zM20.578 6.563l-6.563 6.609-2.391-2.391-1.406 1.406 3.797 3.797 7.969-7.969zM4.922 8.813q-1.359 1.125-2.133 2.766t-0.773 3.422q0 2.156 1.078 4.008t2.906 2.93 3.984 1.078q0.938 0 1.875-0.234-2.625-0.609-4.688-2.484-1.453-0.797-2.32-2.227t-0.867-3.070q0-0.375 0.094-0.891-0.094-0.656-0.094-1.125 0-2.156 0.938-4.172z"></path>
</svg>
