<!-- Generated by IcoMoon.io -->
<svg version="1.1" xmlns="http://www.w3.org/2000/svg" width="24" height="24" viewBox="0 0 24 24">
<title>checkbox_marked_circle_outline</title>
<path d="M20.016 15q0 2.156-1.078 4.008t-2.93 2.93-4.008 1.078-4.008-1.078-2.93-2.93-1.078-4.008q0-1.594 0.609-3.070t1.734-2.602 2.602-1.734 3.070-0.609q1.125 0 2.203 0.328l1.547-1.594q-1.781-0.703-3.75-0.703t-3.82 0.75-3.258 2.156-2.156 3.258-0.75 3.82 0.75 3.82 2.156 3.258 3.258 2.156 3.82 0.75 3.82-0.75 3.258-2.156 2.156-3.258 0.75-3.82h-1.969zM7.922 13.078l-1.406 1.406 4.5 4.5 9.984-9.984-1.406-1.406-8.578 8.578z"></path>
</svg>
