<!-- Generated by IcoMoon.io -->
<svg version="1.1" xmlns="http://www.w3.org/2000/svg" width="24" height="24" viewBox="0 0 24 24">
<title>check_box_multiple_outline</title>
<path d="M20.016 5.016h-12q-0.844 0-1.43 0.586t-0.586 1.383v12q0 0.844 0.586 1.43t1.43 0.586h12q0.797 0 1.383-0.586t0.586-1.43v-12q0-0.797-0.586-1.383t-1.383-0.586zM20.016 18.984h-12v-12h12v12zM15.984 23.016v1.969h-12q-0.797 0-1.383-0.586t-0.586-1.383v-13.031h1.969v13.031h12zM18.516 11.063l-1.031-1.078-4.875 4.875-2.156-2.109-1.031 1.078 3.188 3.188z"></path>
</svg>
