<!-- Generated by IcoMoon.io -->
<svg version="1.1" xmlns="http://www.w3.org/2000/svg" width="24" height="24" viewBox="0 0 24 24">
<title>check_circle_outline1</title>
<path d="M12 5.016q-2.719 0-5.016 1.336t-3.633 3.633-1.336 5.016 1.336 5.016 3.633 3.633 5.016 1.336 5.016-1.336 3.633-3.633 1.336-5.016-1.336-5.016-3.633-3.633-5.016-1.336zM12 23.016q-2.156 0-4.008-1.078t-2.93-2.93-1.078-4.008 1.078-4.008 2.93-2.93 4.008-1.078 4.008 1.078 2.93 2.93 1.078 4.008-1.078 4.008-2.93 2.93-4.008 1.078zM16.594 10.594l-6.609 6.563-2.578-2.578-1.406 1.406 3.984 4.031 8.016-8.016z"></path>
</svg>
