<!-- Generated by IcoMoon.io -->
<svg version="1.1" xmlns="http://www.w3.org/2000/svg" width="24" height="24" viewBox="0 0 24 24">
<title>check_network_outline</title>
<path d="M15 23.016q0-0.422-0.281-0.727t-0.703-0.305h-1.031v-1.969h4.031q0.797 0 1.383-0.586t0.586-1.43v-9.984q0-0.844-0.586-1.43t-1.383-0.586h-10.031q-0.797 0-1.383 0.586t-0.586 1.43v9.984q0 0.844 0.586 1.43t1.383 0.586h4.031v1.969h-1.031q-0.422 0-0.703 0.305t-0.281 0.727h-6.984v1.969h6.984q0 0.422 0.281 0.727t0.703 0.305h4.031q0.422 0 0.703-0.305t0.281-0.727h6.984v-1.969h-6.984zM6.984 18v-9.984h10.031v9.984h-10.031zM8.016 13.359l1.219-1.219 1.688 1.688 3.844-3.844 1.219 1.5-5.063 5.063z"></path>
</svg>
