<!-- Generated by IcoMoon.io -->
<svg version="1.1" xmlns="http://www.w3.org/2000/svg" width="24" height="24" viewBox="0 0 24 24">
<title>chevron_left_circle_outline</title>
<path d="M21.984 15q0 1.969-0.75 3.82t-2.156 3.258-3.258 2.156-3.82 0.75-3.82-0.75-3.258-2.156-2.156-3.258-0.75-3.82 0.75-3.82 2.156-3.258 3.258-2.156 3.82-0.75 3.82 0.75 3.258 2.156 2.156 3.258 0.75 3.82zM20.016 15q0-1.594-0.609-3.070t-1.734-2.602-2.602-1.734-3.070-0.609-3.070 0.609-2.602 1.734-1.734 2.602-0.609 3.070q0 2.156 1.078 4.008t2.93 2.93 4.008 1.078 4.008-1.078 2.93-2.93 1.078-4.008zM15.422 19.594l-4.641-4.594 4.641-4.594-1.406-1.406-6 6 6 6z"></path>
</svg>
