<!-- Generated by IcoMoon.io -->
<svg version="1.1" xmlns="http://www.w3.org/2000/svg" width="24" height="24" viewBox="0 0 24 24">
<title>circle_slice_8</title>
<path d="M12 5.016q1.969 0 3.82 0.75t3.258 2.156 2.156 3.258 0.75 3.82-0.75 3.82-2.156 3.258-3.258 2.156-3.82 0.75-3.82-0.75-3.258-2.156-2.156-3.258-0.75-3.82 0.75-3.82 2.156-3.258 3.258-2.156 3.82-0.75zM12 6.984q-1.594 0-3.070 0.609t-2.602 1.734-1.734 2.602-0.609 3.070q0 2.156 1.078 4.008t2.93 2.93 4.008 1.078 4.008-1.078 2.93-2.93 1.078-4.008q0-1.594-0.609-3.070t-1.734-2.602-2.602-1.734-3.070-0.609zM12 21.984q-1.406 0-2.695-0.539t-2.227-1.523q-2.063-2.297-2.063-4.922 0-1.406 0.539-2.695t1.523-2.227q2.297-2.063 4.922-2.063 1.406 0 2.695 0.539t2.227 1.523q2.063 2.297 2.063 4.922 0 1.406-0.539 2.695t-1.523 2.227q-2.297 2.063-4.922 2.063z"></path>
</svg>
