<!-- Generated by IcoMoon.io -->
<svg version="1.1" xmlns="http://www.w3.org/2000/svg" width="24" height="24" viewBox="0 0 24 24">
<title>circle_slice_7</title>
<path d="M12 5.016q1.969 0 3.82 0.75t3.258 2.156 2.156 3.258 0.75 3.82-0.75 3.82-2.156 3.258-3.258 2.156-3.82 0.75-3.82-0.75-3.258-2.156-2.156-3.258-0.75-3.82 0.75-3.82 2.156-3.258 3.258-2.156 3.82-0.75zM12 6.984q-1.594 0-3.070 0.609t-2.602 1.734-1.734 2.602-0.609 3.070q0 2.156 1.078 4.008t2.93 2.93 4.008 1.078 4.008-1.078 2.93-2.93 1.078-4.008q0-1.594-0.609-3.070t-1.734-2.602-2.602-1.734-3.070-0.609zM16.922 10.078q0.984 0.938 1.523 2.227t0.539 2.695q0 2.625-2.063 4.922-0.938 0.984-2.227 1.523t-2.695 0.539q-2.625 0-4.922-2.063-0.984-0.938-1.523-2.227t-0.539-2.695 0.539-2.695 1.523-2.227l4.922 4.922v-6.984q1.406 0 2.695 0.539t2.227 1.523z"></path>
</svg>
