<!-- Generated by IcoMoon.io -->
<svg version="1.1" xmlns="http://www.w3.org/2000/svg" width="24" height="24" viewBox="0 0 24 24">
<title>circle_expand</title>
<path d="M15.984 6.984l4.031 4.031v-4.031h-4.031zM20.016 18.984l-4.031 4.031h4.031v-4.031zM8.016 23.016l-4.031-4.031v4.031h4.031zM3.984 11.016l4.031-4.031h-4.031v4.031zM16.969 10.031q-1.359-1.313-3.164-1.781t-3.609 0-3.141 1.805-1.805 3.141 0 3.609 1.805 3.141 3.141 1.805 3.609 0 3.141-1.805 1.805-3.141 0-3.609-1.781-3.164zM15.844 18.844q-1.031 1.078-2.438 1.43t-2.813 0-2.461-1.406-1.406-2.461 0-2.813 1.406-2.461 2.461-1.406 2.813 0 2.461 1.406 1.406 2.461 0 2.813-1.43 2.438z"></path>
</svg>
