<!-- Generated by IcoMoon.io -->
<svg version="1.1" xmlns="http://www.w3.org/2000/svg" width="24" height="24" viewBox="0 0 24 24">
<title>city</title>
<path d="M18.984 18h-1.969v-2.016h1.969v2.016zM18.984 21.984h-1.969v-1.969h1.969v1.969zM12.984 9.984h-1.969v-1.969h1.969v1.969zM12.984 14.016h-1.969v-2.016h1.969v2.016zM12.984 18h-1.969v-2.016h1.969v2.016zM12.984 21.984h-1.969v-1.969h1.969v1.969zM6.984 14.016h-1.969v-2.016h1.969v2.016zM6.984 18h-1.969v-2.016h1.969v2.016zM6.984 21.984h-1.969v-1.969h1.969v1.969zM15 14.016v-6l-3-3-3 3v1.969h-6v14.016h18v-9.984h-6z"></path>
</svg>
