<!-- Generated by IcoMoon.io -->
<svg version="1.1" xmlns="http://www.w3.org/2000/svg" width="24" height="24" viewBox="0 0 24 24">
<title>city_variant_outline</title>
<path d="M15 26.016h-2.016v-2.016h2.016v2.016zM18.984 24h-1.969v2.016h1.969v-2.016zM15 20.016h-2.016v1.969h2.016v-1.969zM6.984 24h-1.969v2.016h1.969v-2.016zM6.984 20.016h-1.969v1.969h1.969v-1.969zM18.984 20.016h-1.969v1.969h1.969v-1.969zM15 15.984h-2.016v2.016h2.016v-2.016zM18.984 15.984h-1.969v2.016h1.969v-2.016zM21 12q0.844 0 1.43 0.586t0.586 1.43v12h-2.016v-12h-9.984v12h-2.016v-8.016h-6v8.016h-2.016v-8.016q0-0.844 0.586-1.43t1.43-0.586h6v-1.969q0-0.844 0.586-1.43t1.43-0.586v-2.016q0-0.797 0.586-1.383t1.383-0.586h2.016v-4.031h2.016v4.031h1.969q0.844 0 1.43 0.586t0.586 1.383v2.016zM18.984 12v-2.016h-6v2.016h6z"></path>
</svg>
