<!-- Generated by IcoMoon.io -->
<svg version="1.1" xmlns="http://www.w3.org/2000/svg" width="24" height="24" viewBox="0 0 24 24">
<title>clipboard_arrow_left_outline</title>
<path d="M18.984 6q0.844 0 1.43 0.586t0.586 1.43v13.969q0 0.844-0.586 1.43t-1.43 0.586h-13.969q-0.844 0-1.43-0.586t-0.586-1.43v-13.969q0-0.844 0.586-1.43t1.43-0.586h4.172q0.328-0.891 1.102-1.453t1.711-0.563 1.711 0.563 1.102 1.453h4.172zM12 6q-0.422 0-0.703 0.281t-0.281 0.703 0.281 0.727 0.703 0.305 0.703-0.305 0.281-0.727-0.281-0.703-0.703-0.281zM6.984 9.984v-1.969h-1.969v13.969h13.969v-13.969h-1.969v1.969h-10.031zM6.984 15.984l5.016 5.016v-3h3.984v-3.984h-3.984v-3z"></path>
</svg>
