<!-- Generated by IcoMoon.io -->
<svg version="1.1" xmlns="http://www.w3.org/2000/svg" width="24" height="24" viewBox="0 0 24 24">
<title>clipboard_arrow_left</title>
<path d="M15.984 18h-3.984v3l-5.016-5.016 5.016-4.969v3h3.984v3.984zM12 6q0.422 0 0.703 0.281t0.281 0.703-0.281 0.727-0.703 0.305-0.703-0.305-0.281-0.727 0.281-0.703 0.703-0.281zM18.984 6h-4.172q-0.328-0.891-1.102-1.453t-1.711-0.563-1.711 0.563-1.102 1.453h-4.172q-0.844 0-1.43 0.586t-0.586 1.43v13.969q0 0.844 0.586 1.43t1.43 0.586h13.969q0.844 0 1.43-0.586t0.586-1.43v-13.969q0-0.844-0.586-1.43t-1.43-0.586z"></path>
</svg>
