<!-- Generated by IcoMoon.io -->
<svg version="1.1" xmlns="http://www.w3.org/2000/svg" width="24" height="24" viewBox="0 0 24 24">
<title>clipboard_account</title>
<path d="M18 21.984h-12v-1.406q0-0.891 1.125-1.688 0.938-0.609 2.438-1.031 1.359-0.375 2.438-0.375t2.438 0.375q1.5 0.422 2.438 1.031 1.125 0.797 1.125 1.688v1.406zM12 9.984q1.266 0 2.133 0.891t0.867 2.133-0.867 2.109-2.133 0.867-2.133-0.867-0.867-2.109 0.867-2.133 2.133-0.891zM12 6q0.422 0 0.703 0.281t0.281 0.703-0.281 0.727-0.703 0.305-0.703-0.305-0.281-0.727 0.281-0.703 0.703-0.281zM18.984 6h-4.172q-0.328-0.891-1.102-1.453t-1.711-0.563-1.711 0.563-1.102 1.453h-4.172q-0.844 0-1.43 0.586t-0.586 1.43v13.969q0 0.844 0.586 1.43t1.43 0.586h13.969q0.844 0 1.43-0.586t0.586-1.43v-13.969q0-0.844-0.586-1.43t-1.43-0.586z"></path>
</svg>
