<!-- Generated by IcoMoon.io -->
<svg version="1.1" xmlns="http://www.w3.org/2000/svg" width="24" height="24" viewBox="0 0 24 24">
<title>clipboard_pulse_outline</title>
<path d="M18.984 6h-4.172q-0.328-0.891-1.102-1.453t-1.711-0.563-1.711 0.563-1.102 1.453h-4.172q-0.844 0-1.43 0.586t-0.586 1.43v13.969q0 0.844 0.586 1.43t1.43 0.586h13.969q0.844 0 1.43-0.586t0.586-1.43v-13.969q0-0.844-0.586-1.43t-1.43-0.586zM12 6q0.422 0 0.703 0.281t0.281 0.703-0.281 0.727-0.703 0.305-0.703-0.305-0.281-0.727 0.281-0.703 0.703-0.281zM5.016 18h3.094l1.5-2.859 0.75 5.766 3.703-4.688 1.828 1.781h3.094v3.984h-13.969v-3.984zM18.984 16.453h-2.438l-2.625-2.578-2.484 3.188-0.938-6.984-3.328 6.375h-2.156v-8.438h1.969v0.984h10.031v-0.984h1.969v8.438z"></path>
</svg>
