<!-- Generated by IcoMoon.io -->
<svg version="1.1" xmlns="http://www.w3.org/2000/svg" width="24" height="24" viewBox="0 0 24 24">
<title>clipboard_check_outline</title>
<path d="M18.984 6h-4.172q-0.328-0.891-1.102-1.453t-1.711-0.563-1.711 0.563-1.102 1.453h-4.172q-0.844 0-1.43 0.586t-0.586 1.43v13.969q0 0.844 0.586 1.43t1.43 0.586h13.969q0.844 0 1.43-0.586t0.586-1.43v-13.969q0-0.844-0.586-1.43t-1.43-0.586zM12 6q0.422 0 0.703 0.281t0.281 0.703-0.281 0.727-0.703 0.305-0.703-0.305-0.281-0.727 0.281-0.703 0.703-0.281zM6.984 9.984h10.031v-1.969h1.969v13.969h-13.969v-13.969h1.969v1.969zM7.5 16.5l1.5-1.5 2.016 2.016 4.5-4.5 1.5 1.5-6 6z"></path>
</svg>
