<!-- Generated by IcoMoon.io -->
<svg version="1.1" xmlns="http://www.w3.org/2000/svg" width="24" height="24" viewBox="0 0 24 24">
<title>clipboard_flow_outline</title>
<path d="M18.984 6h-4.172q-0.328-0.891-1.102-1.453t-1.711-0.563-1.711 0.563-1.102 1.453h-4.172q-0.844 0-1.43 0.586t-0.586 1.43v13.969q0 0.844 0.586 1.43t1.43 0.586h13.969q0.844 0 1.43-0.586t0.586-1.43v-13.969q0-0.844-0.586-1.43t-1.43-0.586zM12 6q0.422 0 0.703 0.305t0.281 0.703-0.281 0.703-0.703 0.305-0.703-0.305-0.281-0.703 0.281-0.703 0.703-0.305zM6.984 9.984h10.031v-1.969h1.969v13.969h-13.969v-13.969h1.969v1.969zM9.984 18.984h-1.969v-4.969h-2.016l3-3 3 3h-2.016v4.969zM14.016 12.984h1.969v5.016h2.016l-3 3-3-3h2.016v-5.016z"></path>
</svg>
