<!-- Generated by IcoMoon.io -->
<svg version="1.1" xmlns="http://www.w3.org/2000/svg" width="24" height="24" viewBox="0 0 24 24">
<title>clipboard_text_play</title>
<path d="M18.984 6q0.844 0 1.43 0.586t0.586 1.43v8.344q-0.938-0.375-2.016-0.375-1.594 0-2.977 0.82t-2.203 2.203-0.82 2.977q0 1.078 0.375 2.016h-8.344q-0.844 0-1.43-0.586t-0.586-1.43v-13.969q0-0.844 0.586-1.43t1.43-0.586h4.172q0.516-1.359 1.828-1.781 1.125-0.422 2.25 0.094t1.547 1.688h4.172zM12 6q-0.422 0-0.703 0.281t-0.281 0.703 0.281 0.727 0.703 0.305 0.703-0.305 0.281-0.727-0.281-0.703-0.703-0.281zM11.016 20.016v-2.016h-4.031v2.016h4.031zM12.984 15.984v-1.969h-6v1.969h6zM17.016 12v-2.016h-10.031v2.016h10.031zM17.016 18.984l4.969 3-4.969 3v-6z"></path>
</svg>
