<!-- Generated by IcoMoon.io -->
<svg version="1.1" xmlns="http://www.w3.org/2000/svg" width="24" height="24" viewBox="0 0 24 24">
<title>clipboard_alert</title>
<path d="M12 8.016q-0.422 0-0.703-0.305t-0.281-0.727 0.281-0.703 0.703-0.281 0.703 0.281 0.281 0.703-0.281 0.727-0.703 0.305zM12.984 17.016h-1.969v-6h1.969v6zM12.984 21h-1.969v-2.016h1.969v2.016zM18.984 6h-4.172q-0.328-0.891-1.102-1.453t-1.711-0.563-1.711 0.563-1.102 1.453h-4.172q-0.844 0-1.43 0.586t-0.586 1.43v13.969q0 0.844 0.586 1.43t1.43 0.586h13.969q0.844 0 1.43-0.586t0.586-1.43v-13.969q0-0.844-0.586-1.43t-1.43-0.586z"></path>
</svg>
