<!-- Generated by IcoMoon.io -->
<svg version="1.1" xmlns="http://www.w3.org/2000/svg" width="24" height="24" viewBox="0 0 24 24">
<title>clipboard_list</title>
<path d="M18.984 6h-4.172q-0.328-0.891-1.102-1.453t-1.711-0.563-1.711 0.563-1.102 1.453h-4.172q-0.844 0-1.43 0.586t-0.586 1.43v13.969q0 0.844 0.586 1.43t1.43 0.586h13.969q0.844 0 1.43-0.586t0.586-1.43v-13.969q0-0.844-0.586-1.43t-1.43-0.586zM6.984 11.016h2.016v3.984h-0.984v-3h-1.031v-0.984zM9.984 20.016v0.984h-3v-0.938l2.016-2.063h-2.016v-0.984h2.25q0.328 0 0.539 0.211t0.211 0.516-0.188 0.539l-1.688 1.734h1.875zM11.016 6.984q0-0.375 0.281-0.68t0.703-0.305 0.703 0.305 0.281 0.703-0.281 0.703-0.703 0.305-0.703-0.305-0.281-0.727zM17.016 20.016h-5.016v-2.016h5.016v2.016zM17.016 14.016h-5.016v-2.016h5.016v2.016z"></path>
</svg>
