<!-- Generated by IcoMoon.io -->
<svg version="1.1" xmlns="http://www.w3.org/2000/svg" width="24" height="24" viewBox="0 0 24 24">
<title>clock_alert_outline</title>
<path d="M12 5.016q-2.719 0-5.016 1.336t-3.633 3.633-1.336 5.016q0 1.969 0.75 3.82t2.156 3.258 3.258 2.156 3.82 0.75q3.328 0 6-1.969v-2.719q-1.125 1.266-2.695 1.992t-3.305 0.727q-2.156 0-4.008-1.078t-2.93-2.93-1.078-4.008q0-1.594 0.609-3.070t1.734-2.602 2.602-1.734 3.070-0.609q2.484 0 4.5 1.383t2.906 3.633h2.156q-0.984-3.094-3.609-5.039t-5.953-1.945zM11.016 9.984v6l5.25 3.188 0.75-1.266-4.5-2.672v-5.25h-1.5zM20.016 14.016v6.984h1.969v-6.984h-1.969zM20.016 23.016v1.969h1.969v-1.969h-1.969z"></path>
</svg>
