<!-- Generated by IcoMoon.io -->
<svg version="1.1" xmlns="http://www.w3.org/2000/svg" width="24" height="24" viewBox="0 0 24 24">
<title>clock_check</title>
<path d="M23.484 20.016l-4.969 4.969-3.516-3.469 1.5-1.5 2.016 1.969 3.469-3.469zM12.984 21.984q0-2.156 1.406-3.891l-3.375-2.109v-6h1.5v5.203l3.094 1.922q1.547-1.125 3.375-1.125 1.406 0 2.813 0.703l0.047-0.234q0.141-0.938 0.141-1.453 0-2.719-1.336-5.016t-3.633-3.633-5.016-1.336-5.016 1.336-3.633 3.633-1.336 5.016 1.336 5.016 3.633 3.633 5.016 1.336q0.703 0 1.688-0.188-0.703-1.406-0.703-2.813z"></path>
</svg>
