<!-- Generated by IcoMoon.io -->
<svg version="1.1" xmlns="http://www.w3.org/2000/svg" width="24" height="24" viewBox="0 0 24 24">
<title>clock_fast</title>
<path d="M15 6.984q2.156 0 4.008 1.078t2.93 2.93 1.078 4.008-1.078 4.008-2.93 2.93-4.008 1.078-4.008-1.078-2.93-2.93-1.078-4.008q0-1.594 0.609-3.070t1.734-2.602 2.602-1.734 3.070-0.609zM15 9q-1.641 0-3.023 0.797t-2.18 2.18-0.797 3.023 0.797 3.023 2.18 2.18 3.023 0.797 3.023-0.797 2.18-2.18 0.797-3.023-0.797-3.023-2.18-2.18-3.023-0.797zM14.016 11.016h1.5v3.75l2.297 2.344-1.031 1.078-2.766-2.766v-4.406zM2.016 21q-0.422 0-0.727-0.281t-0.305-0.703 0.305-0.727 0.727-0.305h3.797q0.469 1.031 1.172 2.016h-4.969zM3 15.984q-0.422 0-0.703-0.281t-0.281-0.703 0.281-0.703 0.703-0.281h2.063l-0.047 0.984 0.047 0.984h-2.063zM3.984 11.016q-0.422 0-0.703-0.305t-0.281-0.727 0.281-0.703 0.703-0.281h3q-0.703 0.984-1.172 2.016h-1.828z"></path>
</svg>
