<!-- Generated by IcoMoon.io -->
<svg version="1.1" xmlns="http://www.w3.org/2000/svg" width="24" height="24" viewBox="0 0 24 24">
<title>clock_check_outline</title>
<path d="M23.484 20.016l-4.969 4.969-3.516-3.469 1.5-1.5 2.016 1.969 3.469-3.469zM13.078 22.922q-0.375 0.094-1.078 0.094-2.156 0-4.008-1.078t-2.93-2.93-1.078-4.008 1.078-4.008 2.93-2.93 4.008-1.078 4.008 1.078 2.93 2.93 1.078 4.008q0 0.703-0.094 1.078 0.938 0.141 1.875 0.609l0.047-0.234q0.141-0.938 0.141-1.453 0-2.719-1.336-5.016t-3.633-3.633-5.016-1.336-5.016 1.336-3.633 3.633-1.336 5.016 1.336 5.016 3.633 3.633 5.016 1.336q0.703 0 1.688-0.188-0.422-0.703-0.609-1.875zM15.609 17.109l-3.094-1.828v-5.297h-1.5v6l3.469 2.109q0.328-0.375 1.125-0.984z"></path>
</svg>
