<!-- Generated by IcoMoon.io -->
<svg version="1.1" xmlns="http://www.w3.org/2000/svg" width="24" height="24" viewBox="0 0 24 24">
<title>closed_caption_outline</title>
<path d="M5.016 6.984q-0.844 0-1.43 0.586t-0.586 1.43v12q0 0.844 0.586 1.43t1.43 0.586h13.969q0.844 0 1.43-0.609t0.586-1.406v-12q0-0.797-0.586-1.406t-1.43-0.609h-13.969zM4.5 8.484h15v13.031h-15v-13.031zM6.984 12q-0.422 0-0.703 0.281t-0.281 0.703v4.031q0 0.422 0.281 0.703t0.703 0.281h3q0.422 0 0.727-0.281t0.305-0.703v-1.031h-1.5v0.516h-2.016v-3h2.016v0.516h1.5v-1.031q0-0.422-0.305-0.703t-0.727-0.281h-3zM14.016 12q-0.422 0-0.727 0.281t-0.305 0.703v4.031q0 0.422 0.305 0.703t0.727 0.281h3q0.422 0 0.703-0.281t0.281-0.703v-1.031h-1.5v0.516h-2.016v-3h2.016v0.516h1.5v-1.031q0-0.422-0.281-0.703t-0.703-0.281h-3z"></path>
</svg>
