<!-- Generated by IcoMoon.io -->
<svg version="1.1" xmlns="http://www.w3.org/2000/svg" width="24" height="24" viewBox="0 0 24 24">
<title>close_box_multiple_outline</title>
<path d="M20.016 5.016h-12q-0.844 0-1.43 0.586t-0.586 1.383v12q0 0.844 0.586 1.43t1.43 0.586h12q0.797 0 1.383-0.586t0.586-1.43v-12q0-0.797-0.586-1.383t-1.383-0.586zM20.016 18.984h-12v-12h12v12zM3.984 9v14.016h14.016v1.969h-14.016q-0.797 0-1.383-0.586t-0.586-1.383v-14.016h1.969zM9.75 15.844l2.859-2.859-2.859-2.813 1.406-1.406 2.859 2.813 2.813-2.813 1.406 1.406-2.813 2.813 2.813 2.859-1.406 1.406-2.813-2.859-2.859 2.859z"></path>
</svg>
