<!-- Generated by IcoMoon.io -->
<svg version="1.1" xmlns="http://www.w3.org/2000/svg" width="24" height="24" viewBox="0 0 24 24">
<title>close_box_multiple</title>
<path d="M3.984 23.016h14.016v1.969h-14.016q-0.797 0-1.383-0.586t-0.586-1.383v-14.016h1.969v14.016zM20.203 5.016h-12.422q-0.75 0-1.266 0.516t-0.516 1.266v12.422q0 0.75 0.516 1.266t1.266 0.516h12.422q0.75 0 1.266-0.516t0.516-1.266v-12.422q0-0.75-0.516-1.266t-1.266-0.516zM18.984 16.594l-1.406 1.406-3.563-3.609-3.609 3.609-1.406-1.406 3.609-3.609-3.609-3.563 1.406-1.406 3.609 3.563 3.563-3.563 1.406 1.406-3.563 3.563z"></path>
</svg>
