<!-- Generated by IcoMoon.io -->
<svg version="1.1" xmlns="http://www.w3.org/2000/svg" width="24" height="24" viewBox="0 0 24 24">
<title>cloud_print_outline</title>
<path d="M18.984 18.984q1.266 0 2.133-0.867t0.867-2.109-0.867-2.133-2.133-0.891h-1.5v-0.469q0-1.5-0.727-2.766t-1.992-2.016-2.766-0.75q-1.875 0-3.328 1.125t-1.969 2.906h-0.703q-1.641 0-2.813 1.172t-1.172 2.813 1.172 2.813 2.813 1.172v-4.969h12v4.969h0.984zM19.359 11.063q1.969 0.094 3.305 1.523t1.336 3.398q0 1.031-0.375 1.945t-1.078 1.617-1.617 1.078-1.945 0.375h-0.984v3.984h-12v-3.984q-1.641 0-3.023-0.797t-2.18-2.18-0.797-3.023q0-2.297 1.547-4.008t3.797-1.945q0.938-1.828 2.719-2.93t3.938-1.102q2.719 0 4.781 1.711t2.578 4.336zM8.016 15.984v7.031h7.969v-7.031h-7.969zM9 21h6v0.984h-6v-0.984zM15 20.016h-6v-1.031h6v1.031zM9 17.016h6v0.984h-6v-0.984z"></path>
</svg>
