<!-- Generated by IcoMoon.io -->
<svg version="1.1" xmlns="http://www.w3.org/2000/svg" width="24" height="24" viewBox="0 0 24 24">
<title>cloud_search</title>
<path d="M15.516 15q1.875 0 3.188 1.313t1.313 3.188q0 1.313-0.703 2.391l3.094 3.094-1.406 1.406-3.141-3.094q-1.078 0.703-2.344 0.703-1.875 0-3.188-1.313t-1.313-3.188 1.313-3.188 3.188-1.313zM15.516 17.016q-1.031 0-1.781 0.727t-0.75 1.758 0.75 1.758 1.781 0.727 1.758-0.727 0.727-1.758-0.727-1.758-1.758-0.727zM19.359 11.016q1.969 0.141 3.305 1.57t1.336 3.398q0 1.219-0.539 2.273t-1.477 1.758v-0.516q0-1.781-0.867-3.258t-2.367-2.367-3.234-0.891q-1.313 0-2.508 0.492t-2.109 1.406-1.406 2.109-0.492 2.508q0 0.75 0.188 1.5h-3.188q-1.641 0-3.023-0.797t-2.18-2.18-0.797-3.023q0-2.297 1.547-4.008t3.797-1.945q0.938-1.828 2.742-2.93t3.914-1.102q2.719 0 4.781 1.711t2.578 4.289z"></path>
</svg>
