<!-- Generated by IcoMoon.io -->
<svg version="1.1" xmlns="http://www.w3.org/2000/svg" width="24" height="24" viewBox="0 0 24 24">
<title>cloud_search_outline</title>
<path d="M15.516 15q1.875 0 3.188 1.313t1.313 3.188q0 1.313-0.703 2.391l3.094 3.094-1.406 1.406-3.141-3.094q-1.078 0.703-2.344 0.703-1.875 0-3.188-1.313t-1.313-3.188 1.313-3.188 3.188-1.313zM15.516 17.016q-1.031 0-1.781 0.727t-0.75 1.758 0.75 1.758 1.781 0.727 1.758-0.727 0.727-1.758-0.727-1.758-1.758-0.727zM21.984 15.984q0-1.219-0.867-2.109t-2.133-0.891h-1.5v-0.469q0-1.5-0.727-2.766t-1.992-2.016-2.766-0.75q-1.875 0-3.328 1.125t-1.969 2.906h-0.703q-1.641 0-2.813 1.172t-1.172 2.813 1.172 2.813 2.813 1.172h3v0.516q0 0.75 0.188 1.5h-3.188q-1.641 0-3.023-0.797t-2.18-2.18-0.797-3.023q0-2.297 1.547-4.008t3.797-1.945q0.938-1.828 2.719-2.93t3.938-1.102q2.719 0 4.781 1.711t2.578 4.336q1.969 0.094 3.305 1.523t1.336 3.398q0 1.219-0.539 2.273t-1.477 1.758v-0.516q0-1.078-0.328-2.109 0.328-0.609 0.328-1.406z"></path>
</svg>
