<!-- Generated by IcoMoon.io -->
<svg version="1.1" xmlns="http://www.w3.org/2000/svg" width="24" height="24" viewBox="0 0 24 24">
<title>cloud_circle1</title>
<path d="M16.5 18.984h-8.484q-1.266 0-2.133-0.867t-0.867-2.109 0.867-2.133 2.133-0.891h0.141q0.328-1.313 1.383-2.156t2.461-0.844q1.641 0 2.813 1.172t1.172 2.859h0.516q1.031 0 1.758 0.727t0.727 1.758-0.727 1.758-1.758 0.727zM12 5.016q-1.969 0-3.82 0.75t-3.258 2.156-2.156 3.258-0.75 3.82 0.75 3.82 2.156 3.258 3.258 2.156 3.82 0.75 3.82-0.75 3.258-2.156 2.156-3.258 0.75-3.82-0.75-3.82-2.156-3.258-3.258-2.156-3.82-0.75z"></path>
</svg>
