<!-- Generated by IcoMoon.io -->
<svg version="1.1" xmlns="http://www.w3.org/2000/svg" width="24" height="24" viewBox="0 0 24 24">
<title>code_braces</title>
<path d="M8.016 6q-0.844 0-1.43 0.586t-0.586 1.43v3.984q0 0.844-0.586 1.43t-1.43 0.586h-0.984v1.969h0.984q0.844 0 1.43 0.586t0.586 1.43v3.984q0 0.844 0.586 1.43t1.43 0.586h1.969v-2.016h-1.969v-4.969q0-0.844-0.586-1.43t-1.43-0.586q0.844 0 1.43-0.586t0.586-1.43v-4.969h1.969v-2.016h-1.969zM15.984 6q0.844 0 1.43 0.586t0.586 1.43v3.984q0 0.844 0.586 1.43t1.43 0.586h0.984v1.969h-0.984q-0.844 0-1.43 0.586t-0.586 1.43v3.984q0 0.844-0.586 1.43t-1.43 0.586h-1.969v-2.016h1.969v-4.969q0-0.844 0.586-1.43t1.43-0.586q-0.844 0-1.43-0.586t-0.586-1.43v-4.969h-1.969v-2.016h1.969z"></path>
</svg>
