<!-- Generated by IcoMoon.io -->
<svg version="1.1" xmlns="http://www.w3.org/2000/svg" width="24" height="24" viewBox="0 0 24 24">
<title>coffee_off_outline</title>
<path d="M2.016 6.281l1.969 1.969v7.734q0 1.688 1.172 2.859t2.859 1.172h6q0.703 0 1.406-0.328l2.297 2.297h-15.703v2.016h17.719l0.984 0.984 1.266-1.266-18.703-18.703zM8.016 18q-0.844 0-1.43-0.586t-0.586-1.43v-5.719l7.734 7.734h-5.719zM20.016 6h-13.219l2.016 2.016h7.172v7.172l1.875 1.875q0.141-0.609 0.141-1.078v-3h2.016q0.797 0 1.383-0.586t0.586-1.383v-3q0-0.844-0.586-1.43t-1.383-0.586zM20.016 11.016h-2.016v-3h2.016v3z"></path>
</svg>
