<!-- Generated by IcoMoon.io -->
<svg version="1.1" xmlns="http://www.w3.org/2000/svg" width="24" height="24" viewBox="0 0 24 24">
<title>coffee_maker</title>
<path d="M21 3.984v3h-14.016v17.016h14.016v2.016h-18.984v-20.016q0-0.844 0.586-1.43t1.383-0.586h17.016zM21.984 15.984v2.016q0 0.844-0.586 1.43t-1.383 0.586h-2.016q0 1.922-1.641 2.625-0.844 0.375-2.344 0.375t-2.391-0.375q-1.641-0.703-1.641-2.625v-6h10.031q0.797 0 1.383 0.586t0.586 1.383zM20.016 15.984h-2.016v2.016h2.016v-2.016zM17.016 12l1.969-3.984h-9.984l2.016 3.984h6z"></path>
</svg>
