<!-- Generated by IcoMoon.io -->
<svg version="1.1" xmlns="http://www.w3.org/2000/svg" width="24" height="24" viewBox="0 0 24 24">
<title>coffee_outline</title>
<path d="M2.016 24v-2.016h18v2.016h-18zM20.016 11.016v-3h-2.016v3h2.016zM20.016 6q0.797 0 1.383 0.586t0.586 1.43v3q0 0.797-0.586 1.383t-1.383 0.586h-2.016v3q0 1.688-1.172 2.859t-2.813 1.172h-6q-1.688 0-2.859-1.172t-1.172-2.859v-9.984h16.031zM15.984 8.016h-9.984v7.969q0 0.844 0.586 1.43t1.43 0.586h6q0.797 0 1.383-0.586t0.586-1.43v-7.969z"></path>
</svg>
