<!-- Generated by IcoMoon.io -->
<svg version="1.1" xmlns="http://www.w3.org/2000/svg" width="24" height="24" viewBox="0 0 24 24">
<title>cog_counterclockwise</title>
<path d="M12 6q-2.438 0-4.5 1.219t-3.281 3.281-1.219 4.5h-3l3.984 3.984 4.031-3.984h-3q0-1.922 0.938-3.516t2.531-2.531 3.516-0.938 3.516 0.938 2.531 2.531 0.938 3.516-0.938 3.516-2.531 2.531-3.516 0.938q-2.203 0-4.078-1.266l-1.406 1.406q2.438 1.875 5.484 1.875 2.438 0 4.5-1.219t3.281-3.281 1.219-4.5-1.219-4.5-3.281-3.281-4.5-1.219zM16.313 16.172l-1.031-0.703q0.047-0.234 0.047-0.469t-0.047-0.469l1.031-0.703q0.094-0.141 0.047-0.328l-0.938-1.5q-0.047-0.188-0.281-0.141l-1.125 0.422q-0.328-0.234-0.797-0.422l-0.141-1.172q-0.047-0.188-0.234-0.188h-1.734q-0.188 0-0.234 0.188l-0.188 1.172q-0.469 0.234-0.75 0.422l-1.125-0.422q-0.188-0.094-0.281 0.094l-0.891 1.547q-0.094 0.188 0.047 0.281l0.984 0.75q-0.047 0.469 0 0.938l-0.984 0.703q-0.141 0.141-0.047 0.328l0.891 1.5q0.094 0.188 0.281 0.141l1.125-0.469q0.328 0.281 0.75 0.469l0.188 1.172q0 0.094 0.070 0.141t0.164 0h1.781q0.234 0 0.234-0.188l0.188-1.172q0.375-0.188 0.75-0.422l1.125 0.469q0.234 0 0.281-0.141l0.891-1.547q0.094-0.188-0.047-0.281zM12 16.5q-0.609 0-1.055-0.445t-0.445-1.055 0.445-1.055 1.055-0.445 1.055 0.445 0.445 1.055-0.445 1.055-1.055 0.445v0z"></path>
</svg>
