<!-- Generated by IcoMoon.io -->
<svg version="1.1" xmlns="http://www.w3.org/2000/svg" width="24" height="24" viewBox="0 0 24 24">
<title>cogs</title>
<path d="M15.891 21.469q1.031 0 1.734-0.727t0.703-1.734-0.703-1.734-1.734-0.727-1.734 0.727-0.703 1.734 0.703 1.734 1.734 0.727zM21.094 19.688l1.5 1.172q0.234 0.188 0.047 0.422l-1.359 2.438q-0.188 0.234-0.469 0.141l-1.734-0.703q-0.516 0.422-1.172 0.703l-0.281 1.828q0 0.141-0.094 0.234t-0.234 0.094h-2.813q-0.281 0-0.328-0.328l-0.281-1.828q-0.609-0.281-1.172-0.703l-1.734 0.703q-0.141 0.047-0.258 0t-0.164-0.141l-1.406-2.438q-0.141-0.234 0.094-0.422l1.453-1.172-0.047-0.703 0.047-0.656-1.453-1.172q-0.234-0.188-0.094-0.469l1.406-2.391q0.047-0.141 0.164-0.188t0.258 0l1.734 0.75q0.609-0.469 1.172-0.703l0.281-1.875q0.047-0.281 0.328-0.281h2.813q0.141 0 0.234 0.094t0.094 0.188l0.281 1.875q0.609 0.234 1.172 0.703l1.734-0.75q0.281-0.094 0.469 0.188l1.359 2.391q0.188 0.281-0.047 0.469l-1.5 1.172 0.047 0.656zM6.703 11.063q0.656 0 1.102-0.445t0.445-1.102-0.445-1.125-1.102-0.469-1.125 0.469-0.469 1.125 0.469 1.102 1.125 0.445zM10.031 9.938l0.984 0.75q0.094 0.141 0 0.281l-0.891 1.547q-0.094 0.188-0.281 0.094l-1.125-0.422-0.703 0.422-0.188 1.219q-0.047 0.188-0.234 0.188h-1.781q-0.234 0-0.234-0.188l-0.188-1.219-0.75-0.422-1.125 0.422q-0.188 0.094-0.281-0.094l-0.891-1.547q-0.094-0.141 0.047-0.281l0.938-0.75v-0.891l-0.938-0.75q-0.141-0.094-0.047-0.281l0.891-1.547q0.094-0.188 0.281-0.094l1.125 0.422 0.75-0.422 0.188-1.172q0-0.188 0.234-0.188h1.781q0.188 0 0.234 0.188l0.188 1.172 0.703 0.422 1.125-0.422q0.188-0.094 0.281 0.094l0.891 1.547q0.094 0.188 0 0.281l-0.984 0.75 0.047 0.469z"></path>
</svg>
