<!-- Generated by IcoMoon.io -->
<svg version="1.1" xmlns="http://www.w3.org/2000/svg" width="24" height="24" viewBox="0 0 24 24">
<title>coins</title>
<path d="M15 6.984q2.156 0 4.008 1.078t2.93 2.93 1.078 4.008-1.078 4.008-2.93 2.93-4.008 1.078-4.008-1.078-2.93-2.93-1.078-4.008q0-1.594 0.609-3.070t1.734-2.602 2.602-1.734 3.070-0.609zM15 21q1.641 0 3.023-0.797t2.18-2.18 0.797-3.023-0.797-3.023-2.18-2.18-3.023-0.797-3.023 0.797-2.18 2.18-0.797 3.023 0.797 3.023 2.18 2.18 3.023 0.797zM3 15q0 1.922 1.125 3.469t2.859 2.203v2.063q-2.578-0.656-4.289-2.813t-1.711-4.922 1.711-4.922 4.289-2.813v2.063q-1.734 0.656-2.859 2.203t-1.125 3.469z"></path>
</svg>
