<!-- Generated by IcoMoon.io -->
<svg version="1.1" xmlns="http://www.w3.org/2000/svg" width="24" height="24" viewBox="0 0 24 24">
<title>collapse_all</title>
<path d="M14.016 6.984h-10.031v10.031h-1.969v-10.031q0-0.797 0.586-1.383t1.383-0.586h10.031v1.969zM18 9h-9.984q-0.844 0-1.43 0.586t-0.586 1.43v9.984h2.016v-9.984h9.984v-2.016zM21.984 15v8.016q0 0.797-0.586 1.383t-1.383 0.586h-8.016q-0.844 0-1.43-0.586t-0.586-1.383v-8.016q0-0.844 0.586-1.43t1.43-0.586h8.016q0.797 0 1.383 0.586t0.586 1.43zM20.016 18h-8.016v2.016h8.016v-2.016z"></path>
</svg>
