<!-- Generated by IcoMoon.io -->
<svg version="1.1" xmlns="http://www.w3.org/2000/svg" width="24" height="24" viewBox="0 0 24 24">
<title>collapse_all_outline</title>
<path d="M3.984 5.016q-0.797 0-1.383 0.586t-0.586 1.383v10.031h1.969v-10.031h10.031v-1.969h-10.031zM8.016 9q-0.844 0-1.43 0.586t-0.586 1.43v9.984h2.016v-9.984h9.984v-2.016h-9.984zM20.016 15v8.016h-8.016v-8.016h8.016zM20.016 12.984h-8.016q-0.844 0-1.43 0.586t-0.586 1.43v8.016q0 0.797 0.586 1.383t1.43 0.586h8.016q0.797 0 1.383-0.586t0.586-1.383v-8.016q0-0.844-0.586-1.43t-1.383-0.586zM18.984 20.016h-6v-2.016h6v2.016z"></path>
</svg>
