<!-- Generated by IcoMoon.io -->
<svg version="1.1" xmlns="http://www.w3.org/2000/svg" width="24" height="24" viewBox="0 0 24 24">
<title>comment_edit</title>
<path d="M9 24.984q-0.422 0-0.703-0.281t-0.281-0.703v-3h-4.031q-0.797 0-1.383-0.586t-0.586-1.43v-12q0-0.797 0.586-1.383t1.383-0.586h16.031q0.797 0 1.383 0.586t0.586 1.383v12q0 0.844-0.586 1.43t-1.383 0.586h-6.094l-3.703 3.703q-0.328 0.281-0.703 0.281h-0.516zM18 17.016v-2.016h-5.484l-2.016 2.016h7.5zM6 17.016h2.484l6.844-6.891q0.188-0.141 0.188-0.352t-0.188-0.352l-1.734-1.781q-0.141-0.141-0.352-0.141t-0.352 0.141l-6.891 6.891v2.484z"></path>
</svg>
