<!-- Generated by IcoMoon.io -->
<svg version="1.1" xmlns="http://www.w3.org/2000/svg" width="24" height="24" viewBox="0 0 24 24">
<title>comment_search_outline</title>
<path d="M3.984 6.984h5.531q-0.422 0.984-0.469 2.016h-5.063v9.984h6v3.094l3.094-3.094h4.922v-2.766l2.016 2.016v0.75q0 0.844-0.586 1.43t-1.43 0.586h-4.078l-3.703 3.703q-0.328 0.281-0.703 0.281h-0.516q-0.422 0-0.703-0.281t-0.281-0.703v-3h-4.031q-0.797 0-1.383-0.586t-0.586-1.43v-9.984q0-0.844 0.586-1.43t1.383-0.586zM15.516 5.016q1.875 0 3.188 1.313t1.313 3.188q0 1.313-0.703 2.391l3.094 3.094-1.406 1.406-3.094-3.094q-1.078 0.703-2.391 0.703-1.875 0-3.188-1.313t-1.313-3.188 1.313-3.188 3.188-1.313zM15.516 6.984q-1.031 0-1.781 0.75t-0.75 1.781 0.75 1.758 1.781 0.727 1.758-0.727 0.727-1.758-0.727-1.781-1.758-0.75z"></path>
</svg>
