<!-- Generated by IcoMoon.io -->
<svg version="1.1" xmlns="http://www.w3.org/2000/svg" width="24" height="24" viewBox="0 0 24 24">
<title>comment_check_outline</title>
<path d="M9 24.984q-0.422 0-0.703-0.281t-0.281-0.703v-3h-4.031q-0.797 0-1.383-0.586t-0.586-1.43v-12q0-0.797 0.586-1.383t1.383-0.586h16.031q0.797 0 1.383 0.586t0.586 1.383v12q0 0.844-0.586 1.43t-1.383 0.586h-6.094l-3.703 3.703q-0.328 0.281-0.703 0.281h-0.516zM9.984 18.984v3.094l3.094-3.094h6.938v-12h-16.031v12h6zM16.5 11.016l-5.484 5.484-3.516-3.516 1.406-1.406 2.109 2.109 4.078-4.078z"></path>
</svg>
