<!-- Generated by IcoMoon.io -->
<svg version="1.1" xmlns="http://www.w3.org/2000/svg" width="24" height="24" viewBox="0 0 24 24">
<title>comment_text_multiple_outline</title>
<path d="M12 26.016q-0.422 0-0.703-0.305t-0.281-0.727v-3h-4.031q-0.797 0-1.383-0.586t-0.586-1.383v-10.031q0-0.797 0.586-1.383t1.383-0.586h14.016q0.844 0 1.43 0.586t0.586 1.383v10.031q0 0.797-0.586 1.383t-1.43 0.586h-4.078l-3.703 3.703q-0.328 0.328-0.703 0.328h-0.516zM12.984 20.016v3.047l3.094-3.047h4.922v-10.031h-14.016v10.031h6zM3 18h-2.016v-12q0-0.844 0.586-1.43t1.43-0.586h15.984v2.016h-15.984v12zM9 12h9.984v2.016h-9.984v-2.016zM9 15.984h8.016v2.016h-8.016v-2.016z"></path>
</svg>
