<!-- Generated by IcoMoon.io -->
<svg version="1.1" xmlns="http://www.w3.org/2000/svg" width="24" height="24" viewBox="0 0 24 24">
<title>comment_text_multiple</title>
<path d="M3 18h-2.016v-12q0-0.844 0.586-1.43t1.43-0.586h15.984v2.016h-15.984v12zM12 26.016q-0.422 0-0.703-0.305t-0.281-0.727v-3h-4.031q-0.797 0-1.383-0.586t-0.586-1.383v-10.031q0-0.797 0.586-1.383t1.383-0.586h14.016q0.844 0 1.43 0.586t0.586 1.383v10.031q0 0.797-0.586 1.383t-1.43 0.586h-4.078l-3.703 3.703q-0.328 0.328-0.703 0.328h-0.516zM9 12v2.016h9.984v-2.016h-9.984zM9 15.984v2.016h8.016v-2.016h-8.016z"></path>
</svg>
