<!-- Generated by IcoMoon.io -->
<svg version="1.1" xmlns="http://www.w3.org/2000/svg" width="24" height="24" viewBox="0 0 24 24">
<title>comment_text</title>
<path d="M9 24.984q-0.422 0-0.703-0.281t-0.281-0.703v-3h-4.031q-0.797 0-1.383-0.586t-0.586-1.43v-12q0-0.797 0.586-1.383t1.383-0.586h16.031q0.797 0 1.383 0.586t0.586 1.383v12q0 0.844-0.586 1.43t-1.383 0.586h-6.094l-3.703 3.703q-0.328 0.281-0.703 0.281h-0.516zM5.016 8.016v1.969h13.969v-1.969h-13.969zM5.016 12v2.016h7.969v-2.016h-7.969zM5.016 15.984v2.016h9.984v-2.016h-9.984z"></path>
</svg>
