<!-- Generated by IcoMoon.io -->
<svg version="1.1" xmlns="http://www.w3.org/2000/svg" width="24" height="24" viewBox="0 0 24 24">
<title>comment_eye</title>
<path d="M20.016 15v3.984q0 0.844-0.586 1.43t-1.43 0.586h-4.078l-3.703 3.703q-0.328 0.281-0.703 0.281h-0.516q-0.422 0-0.703-0.281t-0.281-0.703v-3h-4.031q-0.797 0-1.383-0.586t-0.586-1.43v-9.984q0-0.844 0.586-1.43t1.383-0.586h5.531q-0.844 0.984-1.359 2.25l-0.328 0.75 0.328 0.75q0.938 2.391 3.070 3.82t4.758 1.43q2.109 0 4.031-0.984zM15.984 9q0.422 0 0.727 0.281t0.305 0.703-0.305 0.727-0.727 0.305-0.703-0.305-0.281-0.727 0.281-0.703 0.703-0.281zM15.984 6q2.016 0 3.656 1.102t2.344 2.883q-0.703 1.781-2.344 2.906t-3.656 1.125-3.633-1.125-2.367-2.906q0.75-1.781 2.367-2.883t3.633-1.102zM15.984 7.5q-1.031 0-1.758 0.727t-0.727 1.758 0.727 1.781 1.758 0.75 1.781-0.75 0.75-1.781-0.75-1.758-1.781-0.727z"></path>
</svg>
