<!-- Generated by IcoMoon.io -->
<svg version="1.1" xmlns="http://www.w3.org/2000/svg" width="24" height="24" viewBox="0 0 24 24">
<title>comment_eye_outline</title>
<path d="M15.984 9q0.422 0 0.727 0.281t0.305 0.703-0.305 0.727-0.727 0.305-0.703-0.305-0.281-0.727 0.281-0.703 0.703-0.281zM15.984 6q2.016 0 3.656 1.102t2.344 2.883q-0.703 1.781-2.344 2.906t-3.656 1.125-3.633-1.125-2.367-2.906q0.75-1.781 2.367-2.883t3.633-1.102zM15.984 7.5q-1.031 0-1.758 0.727t-0.727 1.758 0.727 1.781 1.758 0.75 1.781-0.75 0.75-1.781-0.75-1.758-1.781-0.727zM18 15.75v3.234h-4.922l-3.094 3.094v-3.094h-6v-9.984h4.266q0.516-1.125 1.266-2.016h-5.531q-0.797 0-1.383 0.586t-0.586 1.43v9.984q0 0.844 0.586 1.43t1.383 0.586h4.031v3q0 0.422 0.281 0.703t0.703 0.281h0.516q0.375 0 0.703-0.281l3.703-3.703h4.078q0.844 0 1.43-0.586t0.586-1.43v-3.984q-0.938 0.516-2.016 0.75z"></path>
</svg>
