<!-- Generated by IcoMoon.io -->
<svg version="1.1" xmlns="http://www.w3.org/2000/svg" width="24" height="24" viewBox="0 0 24 24">
<title>comment_arrow_left_outline</title>
<path d="M3.984 5.016q-0.797 0-1.383 0.586t-0.586 1.383v12q0 0.844 0.586 1.43t1.383 0.586h4.031v3q0 0.422 0.281 0.703t0.703 0.281h0.516q0.375 0 0.703-0.281l3.703-3.703h6.094q0.797 0 1.383-0.586t0.586-1.43v-12q0-0.797-0.586-1.383t-1.383-0.586h-16.031zM3.984 6.984h16.031v12h-6.938l-3.094 3.094v-3.094h-6v-12zM16.172 14.109v-2.063h-4.641l1.781-1.781-1.219-1.266-4.078 4.078 4.078 4.078 1.219-1.219-1.781-1.828h4.641z"></path>
</svg>
