<!-- Generated by IcoMoon.io -->
<svg version="1.1" xmlns="http://www.w3.org/2000/svg" width="24" height="24" viewBox="0 0 24 24">
<title>compass_off</title>
<path d="M0.984 6.516l1.313-1.266 19.453 19.453-1.266 1.313-2.766-2.813q-2.578 1.781-5.719 1.781-1.969 0-3.82-0.75t-3.258-2.156-2.156-3.258-0.75-3.82q0-3.141 1.781-5.719zM6 21l6.469-3-3.469-3.469zM18 9l-6.422 3-5.25-5.25q2.531-1.734 5.672-1.734 1.969 0 3.82 0.75t3.258 2.156 2.156 3.258 0.75 3.82q0 3.141-1.734 5.672l-5.25-5.25z"></path>
</svg>
