<!-- Generated by IcoMoon.io -->
<svg version="1.1" xmlns="http://www.w3.org/2000/svg" width="24" height="24" viewBox="0 0 24 24">
<title>compass_off_outline</title>
<path d="M0.984 6.516l1.313-1.266 19.453 19.453-1.266 1.313-2.766-2.813q-2.578 1.781-5.719 1.781-1.969 0-3.82-0.75t-3.258-2.156-2.156-3.258-0.75-3.82q0-3.141 1.781-5.719zM6.984 20.016l2.391-5.109-4.125-4.172q-1.266 2.016-1.266 4.219t1.078 4.055 2.93 2.93 4.055 1.078 4.219-1.266l-4.172-4.125zM17.016 9.984l-2.391 5.063-2.672-2.672zM12 5.016q1.969 0 3.82 0.75t3.258 2.156 2.156 3.258 0.75 3.82q0 3.141-1.734 5.672l-1.453-1.453q1.219-1.922 1.219-4.219 0-1.594-0.609-3.070t-1.734-2.602-2.602-1.734-3.070-0.609q-2.297 0-4.219 1.219l-1.453-1.453q2.531-1.734 5.672-1.734z"></path>
</svg>
