<!-- Generated by IcoMoon.io -->
<svg version="1.1" xmlns="http://www.w3.org/2000/svg" width="24" height="24" viewBox="0 0 24 24">
<title>compass</title>
<path d="M14.203 17.203l-8.203 3.797 3.797-8.203 8.203-3.797zM12 5.016q-1.969 0-3.82 0.75t-3.258 2.156-2.156 3.258-0.75 3.82 0.75 3.82 2.156 3.258 3.258 2.156 3.82 0.75 3.82-0.75 3.258-2.156 2.156-3.258 0.75-3.82-0.75-3.82-2.156-3.258-3.258-2.156-3.82-0.75zM12 13.922q-0.469 0-0.773 0.305t-0.305 0.773 0.305 0.773 0.773 0.305 0.773-0.305 0.305-0.773-0.305-0.773-0.773-0.305z"></path>
</svg>
