<!-- Generated by IcoMoon.io -->
<svg version="1.1" xmlns="http://www.w3.org/2000/svg" width="24" height="24" viewBox="0 0 24 24">
<title>contact_mail1</title>
<path d="M21 11.016v-1.031l-3 2.016-3-2.016v1.031l3 1.969zM21.984 6h-19.969q-0.844 0-1.43 0.586t-0.586 1.43v13.969q0 0.844 0.586 1.43t1.43 0.586h19.969q0.844 0 1.43-0.586t0.586-1.43v-13.969q0-0.844-0.586-1.43t-1.43-0.586zM8.016 9q1.219 0 2.109 0.867t0.891 2.133-0.891 2.133-2.133 0.867-2.109-0.867-0.867-2.133 0.867-2.133 2.133-0.867zM14.016 21h-12v-0.984q0-0.938 1.078-1.688 0.938-0.656 2.484-1.078 1.313-0.328 2.414-0.328t2.461 0.328q1.5 0.422 2.438 1.078 1.125 0.75 1.125 1.688v0.984zM21.984 15h-7.969v-6h7.969v6z"></path>
</svg>
