<!-- Generated by IcoMoon.io -->
<svg version="1.1" xmlns="http://www.w3.org/2000/svg" width="24" height="24" viewBox="0 0 24 24">
<title>content_save_move</title>
<path d="M17.016 6h-12q-0.844 0-1.43 0.586t-0.586 1.43v13.969q0 0.844 0.586 1.43t1.43 0.586h6.797q-0.609-0.984-0.75-2.156-1.172-0.422-1.711-1.523t-0.164-2.273q0.328-0.938 1.102-1.5t1.711-0.563q0.656 0 1.266 0.328 1.734-1.359 3.914-1.289t3.82 1.523v-6.563zM15 12h-9.984v-3.984h9.984v3.984zM12.984 20.016h4.031v-3l4.969 4.5-4.969 4.5v-3h-4.031v-3z"></path>
</svg>
