<!-- Generated by IcoMoon.io -->
<svg version="1.1" xmlns="http://www.w3.org/2000/svg" width="24" height="24" viewBox="0 0 24 24">
<title>content_duplicate</title>
<path d="M11.016 20.016h-7.031q-0.797 0-1.383-0.586t-0.586-1.43v-12q0-0.844 0.586-1.43t1.383-0.586h12v2.016h-12v12h7.031v-2.016l3.984 3-3.984 3v-1.969zM18.984 24v-14.016h-10.969v6h-2.016v-6q0-0.797 0.586-1.383t1.43-0.586h10.969q0.844 0 1.43 0.586t0.586 1.383v14.016q0 0.844-0.586 1.43t-1.43 0.586h-10.969q-0.844 0-1.43-0.586t-0.586-1.43v-2.016h2.016v2.016h10.969z"></path>
</svg>
