<!-- Generated by IcoMoon.io -->
<svg version="1.1" xmlns="http://www.w3.org/2000/svg" width="24" height="24" viewBox="0 0 24 24">
<title>content_save_alert_outline</title>
<path d="M21.984 9.984v5.016h-1.969v-5.016h1.969zM20.016 18.984h1.969v-1.969h-1.969v1.969zM18 11.016v9.984q0 0.844-0.586 1.43t-1.43 0.586h-12q-0.797 0-1.383-0.586t-0.586-1.43v-12q0-0.844 0.586-1.43t1.383-0.586h10.031zM15.984 11.813l-2.813-2.813h-9.188v12h12v-9.188zM12 9.984h-6.984v3h6.984v-3zM9.75 15.234q-0.938 0-1.594 0.656t-0.656 1.594 0.656 1.617 1.594 0.68 1.594-0.68 0.656-1.617-0.656-1.594-1.594-0.656z"></path>
</svg>
