<!-- Generated by IcoMoon.io -->
<svg version="1.1" xmlns="http://www.w3.org/2000/svg" width="24" height="24" viewBox="0 0 24 24">
<title>content_save_all</title>
<path d="M17.016 9.984v-3.984h-10.031v3.984h10.031zM14.016 20.016q1.219 0 2.109-0.891t0.891-2.133-0.891-2.109-2.133-0.867-2.109 0.867-0.867 2.109 0.867 2.133 2.133 0.891zM18.984 3.984l4.031 4.031v12q0 0.797-0.586 1.383t-1.43 0.586h-14.016q-0.797 0-1.383-0.586t-0.586-1.383v-14.016q0-0.844 0.586-1.43t1.383-0.586h12zM0.984 9.984h2.016v14.016h14.016v2.016h-14.016q-0.844 0-1.43-0.586t-0.586-1.43v-14.016z"></path>
</svg>
