<!-- Generated by IcoMoon.io -->
<svg version="1.1" xmlns="http://www.w3.org/2000/svg" width="24" height="24" viewBox="0 0 24 24">
<title>contact_phone_outline</title>
<path d="M21.984 6h-19.969q-0.844 0-1.43 0.586t-0.586 1.43v13.969q0 0.844 0.586 1.43t1.43 0.586h19.969q0.844 0 1.43-0.586t0.586-1.43v-13.969q0-0.844-0.586-1.43t-1.43-0.586zM21.984 21.984h-19.969v-13.969h19.969v13.969zM18.984 21l2.016-2.016-1.5-1.969h-1.641q-0.375-1.031-0.375-2.016t0.375-2.016h1.641l1.5-1.969-2.016-2.016q-2.016 1.594-2.719 3.984-0.281 1.031-0.281 2.016t0.281 2.016q0.703 2.438 2.719 3.984zM9 15q1.266 0 2.133-0.867t0.867-2.133-0.867-2.133-2.133-0.867-2.133 0.867-0.867 2.133 0.867 2.133 2.133 0.867zM9 11.016q0.422 0 0.703 0.281t0.281 0.703-0.281 0.703-0.703 0.281-0.703-0.281-0.281-0.703 0.281-0.703 0.703-0.281zM15 19.594q0-1.172-1.125-2.063-0.891-0.703-2.438-1.172-1.313-0.375-2.438-0.375t-2.438 0.375q-1.547 0.469-2.438 1.172-1.125 0.891-1.125 2.063v1.406h12v-1.406zM5.484 18.984q0.609-0.375 1.594-0.68t1.922-0.305 1.922 0.305 1.594 0.68h-7.031z"></path>
</svg>
