<!-- Generated by IcoMoon.io -->
<svg version="1.1" xmlns="http://www.w3.org/2000/svg" width="24" height="24" viewBox="0 0 24 24">
<title>content_save_edit_outline</title>
<path d="M3.984 21.984h6v2.016h-6q-0.797 0-1.383-0.586t-0.586-1.43v-13.969q0-0.844 0.586-1.43t1.383-0.586h12l4.031 3.984v2.156l-2.016 1.969v-3.281l-2.813-2.813h-11.203v13.969zM14.016 12.984v-3.984h-9v3.984h9zM20.438 15.281q-0.188-0.141-0.398-0.141t-0.398 0.141l-0.984 1.031 2.063 2.016 0.984-0.984q0.141-0.141 0.141-0.375t-0.141-0.375zM12 22.922v2.063h2.063l6.047-6.047-2.063-2.063zM14.016 18q0-1.266-0.891-2.133t-2.133-0.867-2.109 0.867-0.867 2.133 0.867 2.133 2.133 0.867h0.094l2.906-2.859v-0.141z"></path>
</svg>
