<!-- Generated by IcoMoon.io -->
<svg version="1.1" xmlns="http://www.w3.org/2000/svg" width="24" height="24" viewBox="0 0 24 24">
<title>content_save_edit</title>
<path d="M9.984 21.984l0.141-0.141q-0.938-0.234-1.523-1.031t-0.586-1.828q0-1.219 0.867-2.109t2.133-0.891q0.984 0 1.781 0.609t1.078 1.547l6.141-6.141v-2.016l-4.031-3.984h-12q-0.797 0-1.383 0.586t-0.586 1.43v13.969q0 0.844 0.586 1.43t1.383 0.586h6v-2.016zM3.984 8.016h10.031v3.984h-10.031v-3.984zM20.063 15.141q-0.234 0-0.422 0.141l-0.984 1.031 2.063 2.016 0.984-0.984q0.141-0.141 0.141-0.375t-0.141-0.375l-1.266-1.313q-0.188-0.141-0.375-0.141zM18.047 16.875l-6.047 6.047v2.063h2.063l6.047-6.047z"></path>
</svg>
