<!-- Generated by IcoMoon.io -->
<svg version="1.1" xmlns="http://www.w3.org/2000/svg" width="24" height="24" viewBox="0 0 24 24">
<title>content_save_move_outline</title>
<path d="M12.984 20.016h4.031v-3l4.969 4.5-4.969 4.5v-3h-4.031v-3zM14.016 15.797q-0.844-0.797-2.063-0.797t-2.086 0.867-0.867 2.133q0 0.984 0.563 1.734t1.453 1.078q0.047-1.594 0.844-2.93t2.156-2.086zM11.109 21.984h-6.094v-13.969h11.156l2.813 2.813v4.5q1.172 0.422 2.016 1.219v-6.563l-3.984-3.984h-12q-0.844 0-1.43 0.586t-0.586 1.43v13.969q0 0.844 0.586 1.43t1.43 0.586h6.797q-0.563-0.938-0.703-2.016zM6 12.984h9v-3.984h-9v3.984z"></path>
</svg>
