<!-- Generated by IcoMoon.io -->
<svg version="1.1" xmlns="http://www.w3.org/2000/svg" width="24" height="24" viewBox="0 0 24 24">
<title>content_paste1</title>
<path d="M18.984 23.016h-13.969v-16.031h1.969v3h10.031v-3h1.969v16.031zM12 5.016q0.422 0 0.703 0.281t0.281 0.703-0.281 0.703-0.703 0.281-0.703-0.281-0.281-0.703 0.281-0.703 0.703-0.281zM18.984 5.016h-4.172q-0.328-0.891-1.102-1.453t-1.711-0.563-1.711 0.563-1.102 1.453h-4.172q-0.844 0-1.43 0.586t-0.586 1.383v16.031q0 0.797 0.586 1.383t1.43 0.586h13.969q0.844 0 1.43-0.586t0.586-1.383v-16.031q0-0.797-0.586-1.383t-1.43-0.586z"></path>
</svg>
