<!-- Generated by IcoMoon.io -->
<svg version="1.1" xmlns="http://www.w3.org/2000/svg" width="24" height="24" viewBox="0 0 24 24">
<title>content_save_all_outline</title>
<path d="M0.984 9.984h2.016v14.016h14.016v2.016h-14.016q-0.844 0-1.43-0.586t-0.586-1.43v-14.016zM18.984 3.984h-12q-0.797 0-1.383 0.586t-0.586 1.43v14.016q0 0.797 0.586 1.383t1.383 0.586h14.016q0.844 0 1.43-0.586t0.586-1.383v-12zM21 20.016h-14.016v-14.016h11.203l2.813 2.813v11.203zM14.016 12.984q-1.266 0-2.133 0.891t-0.867 2.133 0.867 2.109 2.109 0.867 2.133-0.867 0.891-2.109-0.891-2.133-2.109-0.891zM8.016 6.984h9v4.031h-9v-4.031z"></path>
</svg>
