<!-- Generated by IcoMoon.io -->
<svg version="1.1" xmlns="http://www.w3.org/2000/svg" width="24" height="24" viewBox="0 0 24 24">
<title>content_save_alert</title>
<path d="M21.984 15h-1.969v-5.016h1.969v5.016zM21.984 17.016h-1.969v1.969h1.969v-1.969zM14.016 6.984h-10.031q-0.797 0-1.383 0.586t-0.586 1.43v12q0 0.844 0.586 1.43t1.383 0.586h12q0.844 0 1.43-0.586t0.586-1.43v-9.984zM3.984 9h8.016v3h-8.016v-3zM9.984 21q-1.031 0-1.758-0.727t-0.727-1.758 0.727-1.781 1.758-0.75 1.781 0.75 0.75 1.781-0.75 1.758-1.781 0.727z"></path>
</svg>
