<!-- Generated by IcoMoon.io -->
<svg version="1.1" xmlns="http://www.w3.org/2000/svg" width="24" height="24" viewBox="0 0 24 24">
<title>contrast_circle</title>
<path d="M12 23.016q-1.641 0-3.094-0.633t-2.578-1.711l11.344-11.344q1.078 1.125 1.711 2.578t0.633 3.094q0 2.156-1.078 4.008t-2.93 2.93-4.008 1.078zM6 11.016h2.016v-2.016h1.5v2.016h1.969v1.5h-1.969v1.969h-1.5v-1.969h-2.016v-1.5zM12 5.016q-1.969 0-3.82 0.75t-3.258 2.156-2.156 3.258-0.75 3.82 0.75 3.82 2.156 3.258 3.258 2.156 3.82 0.75 3.82-0.75 3.258-2.156 2.156-3.258 0.75-3.82-0.75-3.82-2.156-3.258-3.258-2.156-3.82-0.75zM12 18.984h5.016v-1.5h-5.016v1.5z"></path>
</svg>
