<!-- Generated by IcoMoon.io -->
<svg version="1.1" xmlns="http://www.w3.org/2000/svg" width="24" height="24" viewBox="0 0 24 24">
<title>content_save_settings</title>
<path d="M15 11.016v-4.031h-9.984v4.031h9.984zM12 21q1.266 0 2.133-0.867t0.867-2.133-0.867-2.133-2.133-0.867-2.133 0.867-0.867 2.133 0.867 2.133 2.133 0.867zM17.016 5.016l3.984 3.984v12q0 0.844-0.586 1.43t-1.43 0.586h-13.969q-0.844 0-1.43-0.586t-0.586-1.43v-14.016q0-0.797 0.586-1.383t1.43-0.586h12zM11.016 24.984h1.969v2.016h-1.969v-2.016zM6.984 24.984h2.016v2.016h-2.016v-2.016zM15 24.984h2.016v2.016h-2.016v-2.016z"></path>
</svg>
