<!-- Generated by IcoMoon.io -->
<svg version="1.1" xmlns="http://www.w3.org/2000/svg" width="24" height="24" viewBox="0 0 24 24">
<title>content_save_settings_outline</title>
<path d="M6.984 24.984h2.016v2.016h-2.016v-2.016zM11.016 24.984h1.969v2.016h-1.969v-2.016zM15 24.984h2.016v2.016h-2.016v-2.016zM17.016 5.016h-12q-0.844 0-1.43 0.586t-0.586 1.383v14.016q0 0.844 0.586 1.43t1.43 0.586h13.969q0.844 0 1.43-0.586t0.586-1.43v-12zM18.984 21h-13.969v-14.016h11.156l2.813 2.859v11.156zM12 14.016q-1.266 0-2.133 0.867t-0.867 2.109 0.867 2.133 2.133 0.891 2.133-0.891 0.867-2.133-0.867-2.109-2.133-0.867zM6 8.016h9v3.984h-9v-3.984z"></path>
</svg>
