<!-- Generated by IcoMoon.io -->
<svg version="1.1" xmlns="http://www.w3.org/2000/svg" width="24" height="24" viewBox="0 0 24 24">
<title>coolant_temperature</title>
<path d="M11.484 3.984q-0.609 0-1.055 0.445t-0.445 1.055v12q-0.469 0.375-0.727 0.891t-0.258 1.125q0 1.031 0.727 1.758t1.758 0.727 1.781-0.727 0.75-1.758q0-1.219-1.031-2.016v-1.5h4.031v-1.969h-4.031v-2.016h4.031v-2.016h-4.031v-1.969h4.031v-2.016h-4.031v-0.516q0-0.609-0.422-1.055t-1.078-0.445zM0 18v2.016q0.422 0 0.609 0.094t0.516 0.422l0.188 0.188q1.266 1.266 2.695 1.266t2.695-1.266l0.281-0.328v-2.25q-0.844 0.281-1.688 1.172l-0.141 0.141q-0.328 0.328-0.539 0.445t-0.609 0.117-0.609-0.117-0.539-0.445l-0.141-0.141q-1.313-1.313-2.719-1.313zM15.984 18v2.016q0.422 0 0.633 0.094t0.539 0.422l0.141 0.188q1.266 1.266 2.695 1.266t2.695-1.266l0.188-0.188q0.328-0.328 0.516-0.422t0.609-0.094v-2.016q-1.406 0-2.719 1.313l-0.141 0.141q-0.328 0.328-0.539 0.445t-0.609 0.117-0.609-0.117-0.539-0.445l-0.141-0.141q-1.266-1.313-2.719-1.313zM8.016 23.016q-1.453 0-2.719 1.266l-0.141 0.188q-0.328 0.328-0.539 0.422t-0.609 0.094-0.609-0.094-0.539-0.422l-0.141-0.188q-0.844-0.844-1.734-1.125v2.25l0.328 0.281q1.266 1.313 2.695 1.313t2.695-1.313l0.141-0.141q0.328-0.328 0.539-0.445t0.609-0.117 0.609 0.117 0.539 0.445l0.141 0.141q1.125 1.125 2.203 1.266 0.188 0.047 0.516 0.047 1.406 0 2.719-1.313l0.141-0.141q0.328-0.328 0.539-0.445t0.609-0.117 0.609 0.117 0.539 0.445l0.141 0.141q1.266 1.313 2.695 1.313t2.695-1.313l0.328-0.281v-2.25q-0.891 0.281-1.734 1.125l-0.141 0.188q-0.328 0.328-0.539 0.422t-0.609 0.094-0.609-0.094-0.539-0.422l-0.141-0.188q-1.266-1.266-2.695-1.266t-2.695 1.266l-0.188 0.188q-0.328 0.328-0.516 0.422t-0.609 0.094q-0.281 0-0.516-0.070t-0.703-0.539l-0.094-0.094q-1.266-1.266-2.672-1.266z"></path>
</svg>
