<!-- Generated by IcoMoon.io -->
<svg version="1.1" xmlns="http://www.w3.org/2000/svg" width="24" height="24" viewBox="0 0 24 24">
<title>copyright1</title>
<path d="M10.078 13.875q0.094-0.469 0.281-0.844t0.563-0.633 0.938-0.258q0.375 0 0.633 0.117t0.492 0.352 0.375 0.539 0.141 0.633h1.781q0-0.703-0.258-1.289t-0.727-1.008-1.055-0.656-1.383-0.234q-0.984 0-1.688 0.352t-1.219 0.938-0.727 1.383-0.211 1.594v0.281q0 0.844 0.211 1.617t0.727 1.359 1.219 0.914 1.688 0.328q0.656 0 1.289-0.211t1.078-0.609 0.75-0.984 0.305-1.102h-1.781q0 0.234-0.141 0.516t-0.375 0.492-0.492 0.305-0.633 0.094q-0.563 0-0.938-0.234t-0.563-0.609-0.281-0.891-0.094-0.984v-0.281q0-0.469 0.094-0.984zM12 5.016q-1.969 0-3.82 0.75t-3.258 2.156-2.156 3.258-0.75 3.82 0.75 3.82 2.156 3.258 3.258 2.156 3.82 0.75 3.82-0.75 3.258-2.156 2.156-3.258 0.75-3.82-0.75-3.82-2.156-3.258-3.258-2.156-3.82-0.75zM12 23.016q-2.156 0-4.008-1.078t-2.93-2.93-1.078-4.008 1.078-4.008 2.93-2.93 4.008-1.078 4.008 1.078 2.93 2.93 1.078 4.008-1.078 4.008-2.93 2.93-4.008 1.078z"></path>
</svg>
