<!-- Generated by IcoMoon.io -->
<svg version="1.1" xmlns="http://www.w3.org/2000/svg" width="24" height="24" viewBox="0 0 24 24">
<title>crane</title>
<path d="M20.016 9v-0.984q0-0.422-0.305-0.727t-0.727-0.305h-9.984v-0.984h-3v0.984h-0.984v2.016h0.984v9h-0.984v-2.016h-2.016v2.016h-0.984v2.016h0.984v3.984h2.016v-3.984h4.969v3.984h2.016v-3.984h0.984v-2.016h-0.984v-2.016h-2.016v2.016h-0.984v-9h8.016v4.641q-0.375 0.094-0.609 0.422t-0.234 0.703q0 0.703 0.609 1.031v1.219h0.656q0.234 0 0.422 0.164t0.188 0.422-0.188 0.445-0.492 0.188-0.469-0.258-0.398-0.328-0.445 0.047-0.281 0.375 0.023 0.492q0.281 0.422 0.703 0.656t0.938 0.234q0.75 0 1.289-0.539t0.539-1.289q0-0.609-0.352-1.078t-0.867-0.656v-0.094q0.609-0.328 0.609-1.031t-0.656-1.078v-4.688h2.016zM8.016 16.641l-1.031 1.031v-1.453l1.031-0.984v1.406zM8.016 13.688l-1.031 1.031v-1.406l1.031-1.031v1.406zM6.984 11.719v-1.406l1.031-1.031v1.406z"></path>
</svg>
