<!-- Generated by IcoMoon.io -->
<svg version="1.1" xmlns="http://www.w3.org/2000/svg" width="24" height="24" viewBox="0 0 24 24">
<title>creative_commons</title>
<path d="M11.906 13.359l-1.359 0.703q-0.188-0.469-0.516-0.656t-0.563-0.188q-1.359 0-1.359 1.781 0 0.797 0.328 1.289t1.031 0.492q0.844 0 1.219-0.891l1.219 0.656q-0.375 0.703-1.078 1.125t-1.547 0.422q-1.359 0-2.18-0.82t-0.82-2.25 0.844-2.273 2.109-0.844q1.875 0 2.672 1.453zM17.672 13.359l-1.313 0.703q-0.234-0.422-0.539-0.633t-0.633-0.211q-1.313 0-1.313 1.781 0 0.75 0.352 1.266t0.961 0.516q0.891 0 1.266-0.891l1.266 0.656q-0.422 0.703-1.125 1.125t-1.547 0.422q-1.359 0-2.156-0.82t-0.797-2.25 0.82-2.273 2.086-0.844q1.875 0 2.672 1.453zM12 6.516q1.688 0 3.258 0.633t2.766 1.828 1.828 2.766 0.633 3.258q0 2.297-1.125 4.266t-3.094 3.094-4.266 1.125-4.266-1.125-3.094-3.094-1.125-4.266q0-1.688 0.633-3.258t1.828-2.766 2.766-1.828 3.258-0.633zM12 5.016q-1.969 0-3.82 0.75t-3.258 2.156-2.156 3.258-0.75 3.82 0.75 3.82 2.156 3.258 3.258 2.156 3.82 0.75 3.82-0.75 3.258-2.156 2.156-3.258 0.75-3.82-0.75-3.82-2.156-3.258-3.258-2.156-3.82-0.75z"></path>
</svg>
