<!-- Generated by IcoMoon.io -->
<svg version="1.1" xmlns="http://www.w3.org/2000/svg" width="24" height="24" viewBox="0 0 24 24">
<title>credit_card_clock</title>
<path d="M15.984 17.016h1.5v2.813l2.438 1.406-0.75 1.313-3.188-1.875v-3.656zM24 20.016q0 1.875-0.938 3.492t-2.555 2.555-3.492 0.938q-2.063 0-3.773-1.102t-2.555-2.883h-6.703q-0.797 0-1.383-0.586t-0.586-1.43v-12q0-0.844 0.586-1.43t1.383-0.586h16.031q0.797 0 1.383 0.586t0.586 1.43v6.094q0.984 0.984 1.5 2.25t0.516 2.672zM17.016 15q-1.359 0-2.508 0.68t-1.828 1.828-0.68 2.508q0 0.984 0.375 1.898t1.078 1.617 1.617 1.078 1.922 0.375 1.922-0.375 1.617-1.078 1.078-1.617 0.375-1.898q0-1.359-0.656-2.508t-1.805-1.828-2.508-0.68zM20.016 12.984v-3h-16.031v3h16.031z"></path>
</svg>
