<!-- Generated by IcoMoon.io -->
<svg version="1.1" xmlns="http://www.w3.org/2000/svg" width="24" height="24" viewBox="0 0 24 24">
<title>credit_card_off_outline</title>
<path d="M0.938 7.219l1.266-1.266 17.813 17.766-1.266 1.266-2.016-1.969h-12.75q-0.797 0-1.383-0.586t-0.586-1.43v-12q0-0.328 0.094-0.609zM20.016 11.016v-2.016h-12.188l-2.016-2.016h14.203q0.797 0 1.383 0.586t0.586 1.43v12q0 0.891-0.656 1.5l-1.5-1.5h0.188v-6h-6.188l-4.031-3.984h10.219zM3.984 11.016h0.75l-0.75-0.75v0.75zM3.984 15v6h10.734l-6-6h-4.734z"></path>
</svg>
