<!-- Generated by IcoMoon.io -->
<svg version="1.1" xmlns="http://www.w3.org/2000/svg" width="24" height="24" viewBox="0 0 24 24">
<title>credit_card_remove_outline</title>
<path d="M12.984 21.984q0-0.375 0.094-0.984h-10.078v-6h15.984v0.984q1.031 0 2.016 0.375v-7.359q0-0.844-0.586-1.43t-1.43-0.586h-15.984q-0.844 0-1.43 0.586t-0.586 1.43v12q0 0.844 0.586 1.43t1.43 0.586h10.078q-0.094-0.609-0.094-1.031zM3 9h15.984v2.016h-15.984v-2.016zM22.547 19.875l-2.156 2.109 2.156 2.156-1.406 1.406-2.156-2.156-2.109 2.156-1.406-1.406 2.109-2.156-2.109-2.109 1.406-1.406 2.109 2.109 2.156-2.109z"></path>
</svg>
