<!-- Generated by IcoMoon.io -->
<svg version="1.1" xmlns="http://www.w3.org/2000/svg" width="24" height="24" viewBox="0 0 24 24">
<title>credit_card_settings_outline</title>
<path d="M20.016 11.016h-16.031v-2.016h16.031v2.016zM20.016 21h-16.031v-6h16.031v6zM20.016 6.984h-16.031q-0.797 0-1.383 0.586t-0.586 1.43v12q0 0.844 0.586 1.43t1.383 0.586h16.031q0.797 0 1.383-0.586t0.586-1.43v-12q0-0.844-0.586-1.43t-1.383-0.586zM6.984 24.984h2.016v2.016h-2.016v-2.016zM11.016 24.984h1.969v2.016h-1.969v-2.016zM15 24.984h2.016v2.016h-2.016v-2.016z"></path>
</svg>
