<!-- Generated by IcoMoon.io -->
<svg version="1.1" xmlns="http://www.w3.org/2000/svg" width="24" height="24" viewBox="0 0 24 24">
<title>credit_card_marker</title>
<path d="M18.516 15q-1.453 0-2.484 1.031t-1.031 2.484q0 1.125 0.891 2.813 0.656 1.219 1.688 2.578l0.938 1.078 0.891-1.078q1.031-1.359 1.688-2.578 0.891-1.688 0.891-2.813 0-1.453-1.031-2.484t-2.438-1.031zM18.516 19.781q-0.516 0-0.867-0.352t-0.352-0.844 0.375-0.844 0.82-0.352 0.82 0.375 0.422 0.82-0.328 0.82-0.891 0.375zM14.531 23.016h-10.547q-0.797 0-1.383-0.586t-0.586-1.43v-12q0-0.844 0.586-1.43t1.383-0.586h16.031q0.797 0 1.383 0.586t0.586 1.43v5.297q-0.891-0.75-1.969-1.078v-2.203h-16.031v3h11.391q-1.078 0.75-1.734 1.945t-0.656 2.555q0 1.875 1.547 4.5z"></path>
</svg>
