<!-- Generated by IcoMoon.io -->
<svg version="1.1" xmlns="http://www.w3.org/2000/svg" width="24" height="24" viewBox="0 0 24 24">
<title>credit_card_marker_outline</title>
<path d="M13.5 21h-9.516v-6h10.313q0.797-0.938 1.875-1.477t2.344-0.539q1.875 0 3.469 1.313v-5.297q0-0.844-0.586-1.43t-1.383-0.586h-16.031q-0.797 0-1.383 0.586t-0.586 1.43v12q0 0.844 0.586 1.43t1.383 0.586h10.594q-0.656-1.031-1.078-2.016zM3.984 9h16.031v2.016h-16.031v-2.016zM18.516 15q-1.453 0-2.484 1.031t-1.031 2.484q0 1.125 0.891 2.813 0.656 1.219 1.688 2.578l0.938 1.078 0.891-1.078q1.031-1.359 1.688-2.578 0.891-1.688 0.891-2.813 0-1.453-1.031-2.484t-2.438-1.031zM18.516 19.781q-0.516 0-0.867-0.352t-0.352-0.844 0.375-0.844 0.82-0.352 0.82 0.375 0.422 0.82-0.328 0.82-0.891 0.375z"></path>
</svg>
