<!-- Generated by IcoMoon.io -->
<svg version="1.1" xmlns="http://www.w3.org/2000/svg" width="24" height="24" viewBox="0 0 24 24">
<title>credit_card_scan</title>
<path d="M18 9h-12q-0.844 0-1.43 0.586t-0.586 1.43v7.969q0 0.844 0.586 1.43t1.43 0.586h12q0.844 0 1.43-0.586t0.586-1.43v-7.969q0-0.844-0.586-1.43t-1.43-0.586zM18 15h-12v-3h12v3zM2.016 6.984h3.984v-1.969h-3.984q-0.844 0-1.43 0.586t-0.586 1.383v4.031h2.016v-4.031zM21.984 5.016h-3.984v1.969h3.984v4.031h2.016v-4.031q0-0.797-0.586-1.383t-1.43-0.586zM2.016 18.984h-2.016v4.031q0 0.797 0.586 1.383t1.43 0.586h3.984v-1.969h-3.984v-4.031zM21.984 23.016h-3.984v1.969h3.984q0.844 0 1.43-0.586t0.586-1.383v-4.031h-2.016v4.031z"></path>
</svg>
