<!-- Generated by IcoMoon.io -->
<svg version="1.1" xmlns="http://www.w3.org/2000/svg" width="24" height="24" viewBox="0 0 24 24">
<title>cup_water</title>
<path d="M18.328 11.016h-12.656l-0.422-4.031h13.5zM12 21.984q-1.266 0-2.133-0.867t-0.867-2.133q0-0.891 0.797-2.25 0.516-1.031 1.406-2.156l0.797-0.984 0.797 0.984q0.891 1.125 1.406 2.156 0.797 1.359 0.797 2.25 0 1.266-0.867 2.133t-2.133 0.867zM3 5.016l2.016 18.234q0.094 0.75 0.656 1.242t1.313 0.492h10.031q0.75 0 1.313-0.492t0.656-1.242l2.016-18.234h-18z"></path>
</svg>
