<!-- Generated by IcoMoon.io -->
<svg version="1.1" xmlns="http://www.w3.org/2000/svg" width="24" height="24" viewBox="0 0 24 24">
<title>cupboard</title>
<path d="M17.016 5.016h-10.031q-0.797 0-1.383 0.586t-0.586 1.383v15q0 0.844 0.586 1.43t1.383 0.586v0.984h2.016v-0.984h6v0.984h2.016v-0.984q0.797 0 1.383-0.586t0.586-1.43v-15q0-0.797-0.586-1.383t-1.383-0.586zM9.984 21h-1.969v-3h1.969v3zM15.984 21h-1.969v-3h1.969v3zM17.016 15h-10.031v-3h10.031v3zM17.016 9.984h-10.031v-3h10.031v3z"></path>
</svg>
