<!-- Generated by IcoMoon.io -->
<svg version="1.1" xmlns="http://www.w3.org/2000/svg" width="24" height="24" viewBox="0 0 24 24">
<title>cupboard_outline</title>
<path d="M6.984 5.016q-0.797 0-1.383 0.586t-0.586 1.383v15q0 0.844 0.586 1.43t1.383 0.586v0.984h2.016v-0.984h6v0.984h2.016v-0.984q0.797 0 1.383-0.586t0.586-1.43v-15q0-0.797-0.586-1.383t-1.383-0.586h-10.031zM6.984 6.984h10.031v3h-10.031v-3zM6.984 12h10.031v3h-10.031v-3zM6.984 17.016h4.031v4.969h-4.031v-4.969zM12.984 17.016h4.031v4.969h-4.031v-4.969zM8.016 18v3h1.969v-3h-1.969zM14.016 18v3h1.969v-3h-1.969z"></path>
</svg>
