<!-- Generated by IcoMoon.io -->
<svg version="1.1" xmlns="http://www.w3.org/2000/svg" width="24" height="24" viewBox="0 0 24 24">
<title>currency_gbp</title>
<path d="M6 24v-2.016q2.484-1.219 3.234-3.75 0.375-1.219 0.281-2.25v0h-2.531v-1.969h2.531q-0.797-3.516 0.375-5.719 1.172-2.297 4.125-2.297 0.891 0 1.641 0.141 0.563 0.094 1.031 0.234l0.328 0.141v1.969q-3.984-1.313-5.203 0.891-0.844 1.5-0.328 4.641h4.5v1.969h-4.5l0.047 0.656q0 0.844-0.094 1.594-0.188 1.125-0.563 1.969-0.516 1.125-1.359 1.781h8.484v2.016h-12z"></path>
</svg>
