<!-- Generated by IcoMoon.io -->
<svg version="1.1" xmlns="http://www.w3.org/2000/svg" width="24" height="24" viewBox="0 0 24 24">
<title>currency_eur</title>
<path d="M7.078 14.016l-0.094 0.984 0.094 0.984h10.266l-0.844 2.016h-8.813q0.844 1.781 2.555 2.883t3.773 1.102q1.641 0 3.070-0.703t2.414-1.969v2.813q-1.125 0.891-2.555 1.383t-2.93 0.492q-2.906 0-5.227-1.664t-3.305-4.336h-3.469l0.984-2.016h2.063l-0.047-0.984 0.047-0.984h-3.047l0.984-2.016h2.484q0.984-2.672 3.305-4.336t5.227-1.664q1.828 0 3.492 0.727t2.93 1.992l-0.891 2.016q-0.938-1.266-2.414-1.992t-3.117-0.727q-2.063 0-3.773 1.102t-2.555 2.883h11.344l-0.844 2.016h-11.109z"></path>
</svg>
