<!-- Generated by IcoMoon.io -->
<svg version="1.1" xmlns="http://www.w3.org/2000/svg" width="24" height="24" viewBox="0 0 24 24">
<title>database_remove</title>
<path d="M15.469 18.891l1.406-1.453 2.109 2.156 2.156-2.109 1.406 1.406-2.156 2.109 2.156 2.109-1.406 1.453-2.156-2.156-2.109 2.109-1.406-1.406 2.109-2.109zM12 6q2.156 0 4.008 0.539t2.93 1.453 1.078 2.016-1.078 2.016-2.93 1.453-4.008 0.539-4.008-0.539-2.93-1.453-1.078-2.016 1.078-2.016 2.93-1.453 4.008-0.539zM3.984 12q0 1.078 1.078 1.992t2.93 1.453 4.008 0.539 4.008-0.539 2.93-1.453 1.078-1.992v3.094l-1.031-0.094q-1.922 0-3.445 1.102t-2.18 2.836l-1.359 0.047q-2.156 0-4.008-0.539t-2.93-1.453-1.078-1.992v-3zM3.984 17.016q0 1.078 1.078 1.992t2.93 1.453 4.008 0.539h0.984q0 1.547 0.75 2.906l-1.734 0.094q-2.156 0-4.008-0.539t-2.93-1.453-1.078-1.992v-3z"></path>
</svg>
