<!-- Generated by IcoMoon.io -->
<svg version="1.1" xmlns="http://www.w3.org/2000/svg" width="24" height="24" viewBox="0 0 24 24">
<title>database_minus</title>
<path d="M15 20.016h8.016v1.969h-8.016v-1.969zM12 6q2.156 0 4.008 0.539t2.93 1.453 1.078 2.016-1.078 2.016-2.93 1.453-4.008 0.539-4.008-0.539-2.93-1.453-1.078-2.016 1.078-2.016 2.93-1.453 4.008-0.539zM3.984 12q0 1.078 1.078 1.992t2.93 1.453 4.008 0.539 4.008-0.539 2.93-1.453 1.078-1.992v3q0 0.891-0.727 1.664t-1.992 1.336h-4.313v0.984h-0.984q-2.156 0-4.008-0.539t-2.93-1.453-1.078-1.992v-3zM3.984 17.016q0 1.078 1.078 1.992t2.93 1.453 4.008 0.539l0.984-0.047v3l-0.984 0.047q-2.156 0-4.008-0.539t-2.93-1.453-1.078-1.992v-3zM20.016 17.016v0.984h-0.281q0.281-0.516 0.281-0.984z"></path>
</svg>
