<!-- Generated by IcoMoon.io -->
<svg version="1.1" xmlns="http://www.w3.org/2000/svg" width="24" height="24" viewBox="0 0 24 24">
<title>database_settings</title>
<path d="M6.984 24.984h2.016v2.016h-2.016v-2.016zM11.016 24.984h1.969v2.016h-1.969v-2.016zM15 24.984h2.016v2.016h-2.016v-2.016zM12 6q2.156 0 4.008 0.539t2.93 1.453 1.078 2.016-1.078 2.016-2.93 1.453-4.008 0.539-4.008-0.539-2.93-1.453-1.078-2.016 1.078-2.016 2.93-1.453 4.008-0.539zM3.984 12q0 1.078 1.078 1.992t2.93 1.453 4.008 0.539 4.008-0.539 2.93-1.453 1.078-1.992v3q0 1.078-1.078 1.992t-2.93 1.453-4.008 0.539-4.008-0.539-2.93-1.453-1.078-1.992v-3zM3.984 17.016q0 1.078 1.078 1.992t2.93 1.453 4.008 0.539 4.008-0.539 2.93-1.453 1.078-1.992v3q0 0.844-0.727 1.641t-1.992 1.359h-10.594q-1.266-0.563-1.992-1.359t-0.727-1.641v-3z"></path>
</svg>
