<!-- Generated by IcoMoon.io -->
<svg version="1.1" xmlns="http://www.w3.org/2000/svg" width="24" height="24" viewBox="0 0 24 24">
<title>database_edit</title>
<path d="M3.984 17.016v3q0 0.984 0.938 1.852t2.531 1.43 3.563 0.703v-2.906l0.094-0.094q-1.969-0.141-3.586-0.68t-2.578-1.43-0.961-1.875zM12 15.984q-2.156 0-4.008-0.539t-2.93-1.453-1.078-1.992v3q0 1.078 1.078 1.992t2.93 1.453 4.008 0.539h1.172l3.844-3.844q-2.344 0.844-5.016 0.844zM12 6q-2.156 0-4.008 0.539t-2.93 1.453-1.078 2.016 1.078 2.016 2.93 1.453 4.008 0.539 4.008-0.539 2.93-1.453 1.078-2.016-1.078-2.016-2.93-1.453-4.008-0.539zM21 14.109q-0.234 0-0.375 0.188l-1.031 0.984 2.063 2.016 0.984-0.984q0.188-0.188 0.188-0.398t-0.188-0.398l-1.219-1.219q-0.141-0.188-0.375-0.188h-0.047zM19.031 15.891l-6.047 6.047v2.063h2.063l6.094-6.047z"></path>
</svg>
