<!-- Generated by IcoMoon.io -->
<svg version="1.1" xmlns="http://www.w3.org/2000/svg" width="24" height="24" viewBox="0 0 24 24">
<title>database_refresh</title>
<path d="M18.984 15v1.5q1.688 0 2.859 1.172t1.172 2.813q0 1.219-0.703 2.203l-1.078-1.078q0.281-0.516 0.281-1.125 0-1.031-0.75-1.758t-1.781-0.727v1.5l-2.25-2.25zM18.984 26.016v-1.5q-1.641 0-2.813-1.172t-1.172-2.859q0-1.172 0.656-2.203l1.125 1.078q-0.281 0.563-0.281 1.125 0 1.031 0.727 1.781t1.758 0.75v-1.5l2.25 2.25zM12 6q2.156 0 4.008 0.539t2.93 1.453 1.078 2.016-1.078 2.016-2.93 1.453-4.008 0.539-4.008-0.539-2.93-1.453-1.078-2.016 1.078-2.016 2.93-1.453 4.008-0.539zM3.984 12q0 1.078 1.078 1.992t2.93 1.453 4.008 0.539q1.641 0 3.141-0.281-1.5 1.313-1.969 3.234l-1.172 0.047q-2.156 0-4.008-0.539t-2.93-1.453-1.078-1.992v-3zM20.016 12v2.016h-1.125q1.125-0.938 1.125-2.016zM3.984 17.016q0 1.078 1.078 1.992t2.93 1.453 4.008 0.539l0.984-0.047q0.141 1.547 0.984 2.906l-1.969 0.141q-2.156 0-4.008-0.539t-2.93-1.453-1.078-1.992v-3z"></path>
</svg>
