<!-- Generated by IcoMoon.io -->
<svg version="1.1" xmlns="http://www.w3.org/2000/svg" width="24" height="24" viewBox="0 0 24 24">
<title>database_search</title>
<path d="M18.703 15.328q-1.359-1.313-3.211-1.313t-3.164 1.313-1.313 3.188 1.313 3.188q1.125 1.078 2.672 1.266t2.906-0.656l3.094 3.094 1.406-1.406-3.094-3.094q0.844-1.359 0.656-2.906t-1.266-2.672zM17.25 20.25q-0.703 0.75-1.734 0.75t-1.781-0.727-0.75-1.758 0.75-1.781 1.781-0.75 1.758 0.75 0.727 1.781-0.75 1.734zM10.922 23.109q-1.031-1.031-1.5-2.344-2.391-0.375-3.914-1.43t-1.523-2.32v3q0 1.078 1.078 1.992t2.93 1.453 4.008 0.539v0q-0.609-0.422-1.078-0.891zM3.984 12v3q0 1.266 1.383 2.273t3.633 1.43v-0.188q0-1.406 0.563-2.719-2.438-0.375-4.008-1.43t-1.57-2.367zM12 6q-2.156 0-4.008 0.539t-2.93 1.453-1.078 1.992q0 1.5 1.969 2.648t4.875 1.383h0.094q0.891-0.984 2.086-1.5t2.531-0.516 2.602 0.563q0.75-0.375 1.266-1.055t0.609-1.523q0-1.078-1.078-1.992t-2.93-1.453-4.008-0.539z"></path>
</svg>
