<!-- Generated by IcoMoon.io -->
<svg version="1.1" xmlns="http://www.w3.org/2000/svg" width="24" height="24" viewBox="0 0 24 24">
<title>database</title>
<path d="M12 6q-2.156 0-4.008 0.539t-2.93 1.453-1.078 2.016 1.078 2.016 2.93 1.453 4.008 0.539 4.008-0.539 2.93-1.453 1.078-2.016-1.078-2.016-2.93-1.453-4.008-0.539zM3.984 12v3q0 1.078 1.078 1.992t2.93 1.453 4.008 0.539 4.008-0.539 2.93-1.453 1.078-1.992v-3q0 1.078-1.078 1.992t-2.93 1.453-4.008 0.539-4.008-0.539-2.93-1.453-1.078-1.992zM3.984 17.016v3q0 1.078 1.078 1.992t2.93 1.453 4.008 0.539 4.008-0.539 2.93-1.453 1.078-1.992v-3q0 1.078-1.078 1.992t-2.93 1.453-4.008 0.539-4.008-0.539-2.93-1.453-1.078-1.992z"></path>
</svg>
