<!-- Generated by IcoMoon.io -->
<svg version="1.1" xmlns="http://www.w3.org/2000/svg" width="24" height="24" viewBox="0 0 24 24">
<title>database_lock</title>
<path d="M11.016 6q2.156 0 3.984 0.539t2.906 1.453 1.078 2.016-1.078 2.016-2.906 1.453-4.008 0.539-4.008-0.539-2.906-1.453-1.078-2.016 1.078-2.016 2.906-1.453 4.031-0.539zM18.984 15.047q-1.406 0.141-2.461 1.078t-1.383 2.297q-1.922 0.563-4.125 0.563t-4.031-0.539-2.906-1.453-1.078-1.992v-3q0 1.078 1.078 1.992t2.906 1.453 4.008 0.539 4.008-0.539 2.906-1.453 1.078-1.992v3.047zM14.016 20.719v3q-1.453 0.281-3 0.281-2.203 0-4.031-0.539t-2.906-1.453-1.078-1.992v-3q0 1.078 1.078 1.992t2.906 1.453 4.031 0.539q1.547 0 3-0.281zM19.5 17.016q1.031 0 1.758 0.727t0.727 1.758v0.516q0.422 0 0.727 0.281t0.305 0.703v3.984q0 0.422-0.305 0.727t-0.727 0.305h-4.969q-0.422 0-0.727-0.305t-0.305-0.727v-3.984q0-0.422 0.305-0.703t0.727-0.281v-0.516q0-1.031 0.727-1.758t1.758-0.727zM19.5 18q-0.609 0-1.055 0.445t-0.445 1.055v0.516h3v-0.516q0-0.609-0.445-1.055t-1.055-0.445z"></path>
</svg>
