<!-- Generated by IcoMoon.io -->
<svg version="1.1" xmlns="http://www.w3.org/2000/svg" width="24" height="24" viewBox="0 0 24 24">
<title>database_export</title>
<path d="M12 6q-2.156 0-4.008 0.539t-2.93 1.453-1.078 2.016 1.078 2.016 2.93 1.453 4.008 0.539q0.703 0 1.5-0.094v-1.406h2.906l-1.031-1.031 3.516-3.469q-1.078-0.938-2.906-1.477t-3.984-0.539zM18.938 10.078l-1.453 1.406 2.531 2.531h-5.016v1.969h5.016l-2.531 2.531 1.453 1.406 4.922-4.922zM3.984 12v3q0 1.078 1.078 1.992t2.93 1.453 4.008 0.539q1.594 0 3.234-0.375l1.125-1.125h-2.859v-1.547q-0.797 0.047-1.5 0.047-2.156 0-4.008-0.539t-2.93-1.453-1.078-1.992zM3.984 17.016v3q0 1.078 1.078 1.992t2.93 1.453 4.008 0.539 3.984-0.539 2.906-1.477l-1.875-1.875q-2.25 0.891-5.016 0.891-2.156 0-4.008-0.539t-2.93-1.453-1.078-1.992z"></path>
</svg>
