<!-- Generated by IcoMoon.io -->
<svg version="1.1" xmlns="http://www.w3.org/2000/svg" width="24" height="24" viewBox="0 0 24 24">
<title>database_check</title>
<path d="M17.766 25.172l-2.766-3 1.172-1.172 1.594 1.594 3.563-3.609 1.172 1.406zM12 6q2.156 0 4.008 0.539t2.93 1.453 1.078 2.016-1.078 2.016-2.93 1.453-4.008 0.539-4.008-0.539-2.93-1.453-1.078-2.016 1.078-2.016 2.93-1.453 4.008-0.539zM3.984 12q0 1.078 1.078 1.992t2.93 1.453 4.008 0.539 4.008-0.539 2.93-1.453 1.078-1.992v3q0 0.656-0.375 1.219-0.844-0.234-1.641-0.234-1.641 0-3.023 0.82t-2.18 2.18h-0.797q-2.156 0-4.008-0.539t-2.93-1.453-1.078-1.992v-3zM3.984 17.016q0 1.078 1.078 1.992t2.953 1.453 4.078 0.539l-0.094 0.984q0 1.031 0.328 2.016h-0.328q-2.156 0-4.008-0.539t-2.93-1.453-1.078-1.992v-3z"></path>
</svg>
