<!-- Generated by IcoMoon.io -->
<svg version="1.1" xmlns="http://www.w3.org/2000/svg" width="24" height="24" viewBox="0 0 24 24">
<title>database_import</title>
<path d="M12 6q-2.531 0-4.547 0.703t-2.906 1.875l5.25 5.25q1.172 0.188 2.203 0.188 2.156 0 4.008-0.539t2.93-1.453 1.078-2.016-1.078-2.016-2.93-1.453-4.008-0.539zM3.938 10.078l-1.453 1.406 2.531 2.531h-5.016v1.969h5.016l-2.531 2.531 1.453 1.406 4.922-4.922zM20.016 12q0 1.078-1.078 1.992t-2.93 1.453-4.008 0.539q-0.938 0-1.922-0.094l-2.438 2.438q2.016 0.656 4.359 0.656 2.156 0 4.008-0.539t2.93-1.453 1.078-1.992v-3zM20.016 17.016q0 1.078-1.078 1.992t-2.93 1.453-4.008 0.539q-1.641 0-3.141-0.328t-2.672-0.938l-1.641 1.688q0.844 1.172 2.883 1.875t4.57 0.703q2.156 0 4.008-0.539t2.93-1.453 1.078-1.992v-3z"></path>
</svg>
