<!-- Generated by IcoMoon.io -->
<svg version="1.1" xmlns="http://www.w3.org/2000/svg" width="24" height="24" viewBox="0 0 24 24">
<title>debug_step_over</title>
<path d="M12 17.016q0.844 0 1.43 0.586t0.586 1.406-0.586 1.406-1.43 0.586-1.43-0.586-0.586-1.406 0.586-1.406 1.43-0.586zM23.438 11.859l-1.547 6.891-6.891-1.594 3.797-2.391q-1.078-1.734-2.883-2.742t-3.914-1.008q-1.922 0-3.609 0.867t-2.813 2.367-1.453 3.375l-1.969-0.328q0.375-2.344 1.781-4.242t3.516-2.977 4.547-1.078q2.625 0 4.875 1.289t3.609 3.445z"></path>
</svg>
