<!-- Generated by IcoMoon.io -->
<svg version="1.1" xmlns="http://www.w3.org/2000/svg" width="24" height="24" viewBox="0 0 24 24">
<title>decimal_comma_increase</title>
<path d="M9 8.016q-1.266 0-2.133 0.867t-0.867 2.133v3q0 1.219 0.867 2.109t2.133 0.891 2.133-0.891 0.867-2.109v-3q0-1.266-0.867-2.133t-2.133-0.867zM9.984 14.016q0 0.422-0.281 0.703t-0.703 0.281-0.703-0.281-0.281-0.703v-3q0-0.422 0.281-0.727t0.703-0.305 0.703 0.305 0.281 0.727v3zM15.984 17.016q1.266 0 2.133-0.891t0.867-2.109v-3q0-1.266-0.867-2.133t-2.109-0.867-2.133 0.867-0.891 2.133v3q0 1.219 0.891 2.109t2.109 0.891zM15 11.016q0-0.422 0.281-0.727t0.703-0.305 0.727 0.305 0.305 0.727v3q0 0.422-0.305 0.703t-0.727 0.281-0.703-0.281-0.281-0.703v-3zM18.984 23.016v-2.016h-6v-2.016h6v-1.969l3 3zM5.016 15.984v3h-1.031l-0.984-3q0-0.422 0.281-0.703t0.703-0.281 0.727 0.281 0.305 0.703z"></path>
</svg>
