<!-- Generated by IcoMoon.io -->
<svg version="1.1" xmlns="http://www.w3.org/2000/svg" width="24" height="24" viewBox="0 0 24 24">
<title>decimal_comma_decrease</title>
<path d="M5.016 15.984v3h-1.031l-0.984-3q0-0.422 0.281-0.703t0.703-0.281 0.727 0.281 0.305 0.703zM15 18.984v-1.969l-3 3 3 3v-2.016h6v-2.016h-6zM12 14.016q0 1.219-0.867 2.109t-2.133 0.891-2.133-0.891-0.867-2.109v-3q0-1.266 0.867-2.133t2.133-0.867 2.133 0.867 0.867 2.133v3zM9.984 11.016q0-0.422-0.281-0.727t-0.703-0.305-0.703 0.305-0.281 0.727v3q0 0.422 0.281 0.703t0.703 0.281 0.703-0.281 0.281-0.703v-3z"></path>
</svg>
