<!-- Generated by IcoMoon.io -->
<svg version="1.1" xmlns="http://www.w3.org/2000/svg" width="24" height="24" viewBox="0 0 24 24">
<title>decimal</title>
<path d="M9.984 9.984q-1.219 0-2.109 0.891t-0.891 2.109v3q0 1.266 0.891 2.133t2.133 0.867 2.109-0.867 0.867-2.133v-3q0-1.219-0.867-2.109t-2.133-0.891zM11.016 15.984q0 0.422-0.305 0.727t-0.727 0.305-0.703-0.305-0.281-0.727v-3q0-0.422 0.281-0.703t0.703-0.281 0.727 0.281 0.305 0.703v3zM17.016 9.984q-1.266 0-2.133 0.891t-0.867 2.109v3q0 1.266 0.867 2.133t2.109 0.867 2.133-0.867 0.891-2.133v-3q0-1.219-0.891-2.109t-2.109-0.891zM18 15.984q0 0.422-0.281 0.727t-0.703 0.305-0.727-0.305-0.305-0.727v-3q0-0.422 0.305-0.703t0.727-0.281 0.703 0.281 0.281 0.703v3zM6 18q0 0.422-0.281 0.703t-0.703 0.281-0.727-0.281-0.305-0.703 0.305-0.703 0.727-0.281 0.703 0.281 0.281 0.703z"></path>
</svg>
