<!-- Generated by IcoMoon.io -->
<svg version="1.1" xmlns="http://www.w3.org/2000/svg" width="24" height="24" viewBox="0 0 24 24">
<title>decimal_decrease</title>
<path d="M12 20.016l3 3v-2.016h6v-2.016h-6v-1.969zM9 8.016q1.266 0 2.133 0.867t0.867 2.133v3q0 1.219-0.867 2.109t-2.133 0.891-2.133-0.891-0.867-2.109v-3q0-1.266 0.867-2.133t2.133-0.867zM9 9.984q-0.422 0-0.703 0.305t-0.281 0.727v3q0 0.422 0.281 0.703t0.703 0.281 0.703-0.281 0.281-0.703v-3q0-0.422-0.281-0.727t-0.703-0.305zM3.984 15q0.422 0 0.727 0.281t0.305 0.703-0.305 0.727-0.727 0.305-0.703-0.305-0.281-0.727 0.281-0.703 0.703-0.281z"></path>
</svg>
