<!-- Generated by IcoMoon.io -->
<svg version="1.1" xmlns="http://www.w3.org/2000/svg" width="24" height="24" viewBox="0 0 24 24">
<title>delete_circle</title>
<path d="M12 5.016q2.719 0 5.016 1.336t3.633 3.633 1.336 5.016-1.336 5.016-3.633 3.633-5.016 1.336-5.016-1.336-3.633-3.633-1.336-5.016 1.336-5.016 3.633-3.633 5.016-1.336zM17.016 9.984h-2.531l-0.984-0.984h-3l-0.984 0.984h-2.531v2.016h10.031v-2.016zM9 21h6q0.422 0 0.703-0.281t0.281-0.703v-7.031h-7.969v7.031q0 0.422 0.281 0.703t0.703 0.281z"></path>
</svg>
