<!-- Generated by IcoMoon.io -->
<svg version="1.1" xmlns="http://www.w3.org/2000/svg" width="24" height="24" viewBox="0 0 24 24">
<title>delete_forever_outline</title>
<path d="M14.109 13.453l-2.109 2.156-2.109-2.156-1.453 1.406 2.156 2.156-2.109 2.109 1.406 1.406 2.109-2.109 2.109 2.109 1.406-1.406-2.109-2.109 2.109-2.156zM15.516 6.984l-1.031-0.984h-4.969l-1.031 0.984h-3.469v2.016h13.969v-2.016h-3.469zM6 21.984q0 0.844 0.586 1.43t1.43 0.586h7.969q0.844 0 1.43-0.586t0.586-1.43v-12h-12v12zM8.016 12h7.969v9.984h-7.969v-9.984z"></path>
</svg>
