<!-- Generated by IcoMoon.io -->
<svg version="1.1" xmlns="http://www.w3.org/2000/svg" width="24" height="24" viewBox="0 0 24 24">
<title>deskphone</title>
<path d="M5.016 6h13.969q0.844 0 1.43 0.586t0.586 1.43v13.969q0 0.844-0.586 1.43t-1.43 0.586h-13.969q-0.844 0-1.43-0.586t-0.586-1.43v-13.969q0-0.844 0.586-1.43t1.43-0.586zM15 8.016v13.969h3.984v-13.969h-3.984zM5.016 8.016v3.984h7.969v-3.984h-7.969zM5.016 14.016v1.969h1.969v-1.969h-1.969zM8.016 14.016v1.969h1.969v-1.969h-1.969zM11.016 14.016v1.969h1.969v-1.969h-1.969zM5.016 17.016v1.969h1.969v-1.969h-1.969zM8.016 17.016v1.969h1.969v-1.969h-1.969zM11.016 17.016v1.969h1.969v-1.969h-1.969zM11.016 20.016v1.969h1.969v-1.969h-1.969zM8.016 20.016v1.969h1.969v-1.969h-1.969zM5.016 20.016v1.969h1.969v-1.969h-1.969z"></path>
</svg>
