<!-- Generated by IcoMoon.io -->
<svg version="1.1" xmlns="http://www.w3.org/2000/svg" width="24" height="24" viewBox="0 0 24 24">
<title>developer_board1</title>
<path d="M21.984 12v-2.016h-1.969v-1.969q0-0.844-0.586-1.43t-1.43-0.586h-14.016q-0.797 0-1.383 0.586t-0.586 1.43v13.969q0 0.844 0.586 1.43t1.383 0.586h14.016q0.844 0 1.43-0.586t0.586-1.43v-1.969h1.969v-2.016h-1.969v-2.016h1.969v-1.969h-1.969v-2.016h1.969zM18 21.984h-14.016v-13.969h14.016v13.969zM6 15.984h5.016v4.031h-5.016v-4.031zM12 9.984h3.984v3h-3.984v-3zM6 9.984h5.016v5.016h-5.016v-5.016zM12 14.016h3.984v6h-3.984v-6z"></path>
</svg>
