<!-- Generated by IcoMoon.io -->
<svg version="1.1" xmlns="http://www.w3.org/2000/svg" width="24" height="24" viewBox="0 0 24 24">
<title>dip_switch</title>
<path d="M3 6.984h3.984q0.422 0 0.727 0.305t0.305 0.727v13.969q0 0.422-0.305 0.727t-0.727 0.305h-3.984q-0.422 0-0.703-0.305t-0.281-0.727v-13.969q0-0.422 0.281-0.727t0.703-0.305zM9.984 6.984h4.031q0.422 0 0.703 0.305t0.281 0.727v13.969q0 0.422-0.281 0.727t-0.703 0.305h-4.031q-0.422 0-0.703-0.305t-0.281-0.727v-13.969q0-0.422 0.281-0.727t0.703-0.305zM17.016 6.984h3.984q0.422 0 0.703 0.305t0.281 0.727v13.969q0 0.422-0.281 0.727t-0.703 0.305h-3.984q-0.422 0-0.727-0.305t-0.305-0.727v-13.969q0-0.422 0.305-0.727t0.727-0.305zM3.984 21h2.016v-5.016h-2.016v5.016zM11.016 14.016h1.969v-5.016h-1.969v5.016zM18 21h2.016v-5.016h-2.016v5.016z"></path>
</svg>
