<!-- Generated by IcoMoon.io -->
<svg version="1.1" xmlns="http://www.w3.org/2000/svg" width="24" height="24" viewBox="0 0 24 24">
<title>disc_alert</title>
<path d="M9.984 17.016q-0.797 0-1.383-0.586t-0.586-1.43 0.586-1.43 1.406-0.586 1.406 0.586 0.586 1.43-0.586 1.43-1.43 0.586zM9.984 6.984q-2.156 0-3.984 1.078t-2.906 2.93-1.078 4.008 1.078 4.008 2.906 2.93 4.008 1.078 4.008-1.078 2.906-2.93 1.078-4.008q0-1.594-0.609-3.070t-1.734-2.602-2.602-1.734-3.070-0.609zM20.016 15h1.969v-5.016h-1.969v5.016zM20.016 18.984h1.969v-1.969h-1.969v1.969z"></path>
</svg>
