<!-- Generated by IcoMoon.io -->
<svg version="1.1" xmlns="http://www.w3.org/2000/svg" width="24" height="24" viewBox="0 0 24 24">
<title>dishwasher_off</title>
<path d="M22.125 24.469l-19.734-19.734-1.266 1.266 2.859 2.906v14.109q0 0.797 0.586 1.383t1.43 0.586h12q0.891 0 1.453-0.656l1.406 1.406zM18 23.016h-12v-12h0.094l4.406 4.359q-0.281 0.469-0.516 0.938-0.563 0.938-0.633 2.016t0.727 1.875 1.922 0.797 1.922-0.797q0.328-0.328 0.563-0.844l3.516 3.516v0.141zM11.203 11.016h6.797v6.797l2.016 1.969v-12.797q0-0.797-0.586-1.383t-1.43-0.586h-12q-0.328 0-0.656 0.094zM9.984 6.984q0.422 0 0.727 0.305t0.305 0.703-0.305 0.703-0.703 0.305-0.703-0.305-0.305-0.703 0.305-0.703 0.68-0.305z"></path>
</svg>
