<!-- Generated by IcoMoon.io -->
<svg version="1.1" xmlns="http://www.w3.org/2000/svg" width="24" height="24" viewBox="0 0 24 24">
<title>dns_outline</title>
<path d="M18.984 18v3.984h-13.969v-3.984h13.969zM20.016 15.984h-16.031q-0.422 0-0.703 0.305t-0.281 0.727v6q0 0.422 0.281 0.703t0.703 0.281h16.031q0.422 0 0.703-0.281t0.281-0.703v-6q0-0.422-0.281-0.727t-0.703-0.305zM6.984 21.516q-0.609 0-1.055-0.445t-0.445-1.078 0.445-1.055 1.078-0.422 1.055 0.422 0.422 1.055-0.422 1.078-1.078 0.445zM18.984 8.016v3.984h-13.969v-3.984h13.969zM20.016 6h-16.031q-0.422 0-0.703 0.281t-0.281 0.703v6q0 0.422 0.281 0.727t0.703 0.305h16.031q0.422 0 0.703-0.305t0.281-0.727v-6q0-0.422-0.281-0.703t-0.703-0.281zM6.984 11.484q-0.609 0-1.055-0.422t-0.445-1.055 0.445-1.078 1.078-0.445 1.055 0.445 0.422 1.078-0.422 1.055-1.078 0.422z"></path>
</svg>
