<!-- Generated by IcoMoon.io -->
<svg version="1.1" xmlns="http://www.w3.org/2000/svg" width="24" height="24" viewBox="0 0 24 24">
<title>do_not_disturb_off1</title>
<path d="M17.016 14.016v1.969h-1.453l4.641 4.688q1.781-2.531 1.781-5.672 0-1.969-0.75-3.82t-2.156-3.258-3.258-2.156-3.82-0.75q-3.141 0-5.672 1.781l7.219 7.219h3.469zM2.25 5.25l-1.266 1.313 2.813 2.766q-1.781 2.531-1.781 5.672 0 1.969 0.75 3.82t2.156 3.258 3.258 2.156 3.82 0.75q3.141 0 5.672-1.781l2.766 2.813 1.313-1.266zM6.984 15.984v-1.969h1.453l2.016 1.969h-3.469z"></path>
</svg>
