<!-- Generated by IcoMoon.io -->
<svg version="1.1" xmlns="http://www.w3.org/2000/svg" width="24" height="24" viewBox="0 0 24 24">
<title>domain_plus</title>
<path d="M12 9.984v-3.984h-9.984v18h11.344q-0.375-0.984-0.375-2.016h-0.984v-1.969h1.359q0.234-0.703 0.656-1.313v-0.703h-2.016v-2.016h2.016v-1.969h-2.016v-2.016h8.016v4.078q1.031 0.188 1.969 0.75v-6.844h-9.984zM6 21.984h-2.016v-1.969h2.016v1.969zM6 18h-2.016v-2.016h2.016v2.016zM6 14.016h-2.016v-2.016h2.016v2.016zM6 9.984h-2.016v-1.969h2.016v1.969zM9.984 21.984h-1.969v-1.969h1.969v1.969zM9.984 18h-1.969v-2.016h1.969v2.016zM9.984 14.016h-1.969v-2.016h1.969v2.016zM9.984 9.984h-1.969v-1.969h1.969v1.969zM15.984 15.984h2.016v-1.969h-2.016v1.969zM15.984 14.016v1.969h2.016v-1.969h-2.016zM15.984 14.016v1.969h2.016v-1.969h-2.016zM20.016 18v3h3v2.016h-3v3h-2.016v-3h-3v-2.016h3v-3h2.016z"></path>
</svg>
