<!-- Generated by IcoMoon.io -->
<svg version="1.1" xmlns="http://www.w3.org/2000/svg" width="24" height="24" viewBox="0 0 24 24">
<title>door_closed_lock</title>
<path d="M15.984 14.016h2.016v1.969h-2.016v-1.969zM12 6h6.984q0.844 0 1.43 0.586t0.586 1.43v13.969h0.984v2.016h-19.969v-2.016h7.969v-13.969q0-0.844 0.586-1.43t1.43-0.586zM12 8.016v13.969h6.984v-13.969h-6.984zM6.188 8.016h-3.375v-0.516q0-0.703 0.492-1.195t1.195-0.492 1.195 0.492 0.492 1.195v0.516zM6.984 8.016v-0.516q0-1.031-0.727-1.758t-1.758-0.727-1.758 0.727-0.727 1.758v0.516q-0.422 0-0.727 0.281t-0.305 0.703v3.984q0 0.422 0.305 0.727t0.727 0.305h4.969q0.422 0 0.727-0.305t0.305-0.727v-3.984q0-0.422-0.305-0.703t-0.727-0.281z"></path>
</svg>
