<!-- Generated by IcoMoon.io -->
<svg version="1.1" xmlns="http://www.w3.org/2000/svg" width="24" height="24" viewBox="0 0 24 24">
<title>download_network</title>
<path d="M17.016 6q0.797 0 1.383 0.586t0.586 1.43v9.984q0 0.844-0.586 1.43t-1.383 0.586h-4.031v1.969h1.031q0.422 0 0.703 0.305t0.281 0.727h6.984v1.969h-6.984q0 0.422-0.281 0.727t-0.703 0.305h-4.031q-0.422 0-0.703-0.305t-0.281-0.727h-6.984v-1.969h6.984q0-0.422 0.281-0.727t0.703-0.305h1.031v-1.969h-4.031q-0.797 0-1.383-0.586t-0.586-1.43v-9.984q0-0.844 0.586-1.43t1.383-0.586h10.031zM12 17.484l4.5-4.5h-3.516v-3.984h-1.969v3.984h-3.516z"></path>
</svg>
