<!-- Generated by IcoMoon.io -->
<svg version="1.1" xmlns="http://www.w3.org/2000/svg" width="24" height="24" viewBox="0 0 24 24">
<title>drag_horizontal</title>
<path d="M3 18v-2.016h2.016v2.016h-2.016zM3 14.016v-2.016h2.016v2.016h-2.016zM6.984 18v-2.016h2.016v2.016h-2.016zM6.984 14.016v-2.016h2.016v2.016h-2.016zM11.016 18v-2.016h1.969v2.016h-1.969zM11.016 14.016v-2.016h1.969v2.016h-1.969zM15 18v-2.016h2.016v2.016h-2.016zM15 14.016v-2.016h2.016v2.016h-2.016zM18.984 18v-2.016h2.016v2.016h-2.016zM18.984 14.016v-2.016h2.016v2.016h-2.016z"></path>
</svg>
