<!-- Generated by IcoMoon.io -->
<svg version="1.1" xmlns="http://www.w3.org/2000/svg" width="24" height="24" viewBox="0 0 24 24">
<title>drag_variant</title>
<path d="M22.688 15l-4.5 4.5-2.531-2.484 2.016-2.016-2.016-1.969 2.531-2.484zM12 4.313l4.453 4.5-2.484 2.531-1.969-2.016-2.016 2.016-2.484-2.531zM12 25.688l-4.453-4.5 2.484-2.531 1.969 2.016 2.016-2.016 2.484 2.531zM1.313 15l4.5-4.5 2.531 2.484-2.016 2.016 2.016 1.969-2.531 2.484zM12 12.984q0.844 0 1.43 0.586t0.586 1.43-0.586 1.43-1.43 0.586-1.43-0.586-0.586-1.43 0.586-1.43 1.43-0.586z"></path>
</svg>
