<!-- Generated by IcoMoon.io -->
<svg version="1.1" xmlns="http://www.w3.org/2000/svg" width="24" height="24" viewBox="0 0 24 24">
<title>drag_vertical</title>
<path d="M9 6h2.016v2.016h-2.016v-2.016zM12.984 6h2.016v2.016h-2.016v-2.016zM9 9.984h2.016v2.016h-2.016v-2.016zM12.984 9.984h2.016v2.016h-2.016v-2.016zM9 14.016h2.016v1.969h-2.016v-1.969zM12.984 14.016h2.016v1.969h-2.016v-1.969zM9 18h2.016v2.016h-2.016v-2.016zM12.984 18h2.016v2.016h-2.016v-2.016zM9 21.984h2.016v2.016h-2.016v-2.016zM12.984 21.984h2.016v2.016h-2.016v-2.016z"></path>
</svg>
