<!-- Generated by IcoMoon.io -->
<svg version="1.1" xmlns="http://www.w3.org/2000/svg" width="24" height="24" viewBox="0 0 24 24">
<title>drag</title>
<path d="M6.984 21.984v-1.969h2.016v1.969h-2.016zM11.016 21.984v-1.969h1.969v1.969h-1.969zM15 21.984v-1.969h2.016v1.969h-2.016zM6.984 18v-2.016h2.016v2.016h-2.016zM11.016 18v-2.016h1.969v2.016h-1.969zM15 18v-2.016h2.016v2.016h-2.016zM6.984 14.016v-2.016h2.016v2.016h-2.016zM11.016 14.016v-2.016h1.969v2.016h-1.969zM15 14.016v-2.016h2.016v2.016h-2.016zM6.984 9.984v-1.969h2.016v1.969h-2.016zM11.016 9.984v-1.969h1.969v1.969h-1.969zM15 9.984v-1.969h2.016v1.969h-2.016z"></path>
</svg>
