<!-- Generated by IcoMoon.io -->
<svg version="1.1" xmlns="http://www.w3.org/2000/svg" width="24" height="24" viewBox="0 0 24 24">
<title>drama_masks</title>
<path d="M8.109 22.453q-1.641-0.609-2.836-1.969t-1.57-3.141l-1.641-7.781q-0.188-0.844 0.258-1.523t1.242-0.867l9.797-2.063q0.844-0.188 1.523 0.258t0.82 1.242l0.375 1.688 4.359 0.938q0.797 0.188 1.242 0.867t0.258 1.477l-1.641 7.828q-0.375 1.875-1.641 3.234t-3.023 1.945-3.633 0.211q-2.344-0.516-3.891-2.344v0zM20.016 11.203l-9.797-2.109-1.641 7.875q-0.281 1.313 0.141 2.555t1.406 2.133 2.297 1.172 2.578-0.141 2.156-1.383 1.172-2.32zM15.984 19.5q-0.469 0.797-1.336 1.195t-1.805 0.188-1.594-0.914-0.75-1.641zM8.484 8.156l-4.5 0.984 1.688 7.828q0.234 1.031 0.844 1.922-0.141-1.219 0.094-2.391l0.422-2.016q-0.703-0.094-1.031-0.656 0.047-0.469 0.398-0.844t0.867-0.469h0.234l0.797-3.844q0.047-0.281 0.188-0.516zM15.047 15.234q0.234-0.422 0.703-0.609t0.984-0.070 0.867 0.469 0.398 0.82q-0.234 0.422-0.703 0.609t-0.984 0.070-0.867-0.469-0.398-0.82zM10.172 14.203q0.234-0.422 0.68-0.609t0.961-0.070 0.867 0.469 0.445 0.82q-0.281 0.422-0.727 0.609t-0.961 0.070-0.867-0.469-0.398-0.82zM11.953 7.453l1.969 0.375-0.141-0.797z"></path>
</svg>
