<!-- Generated by IcoMoon.io -->
<svg version="1.1" xmlns="http://www.w3.org/2000/svg" width="24" height="24" viewBox="0 0 24 24">
<title>draw</title>
<path d="M9.75 23.859q1.219-0.516 1.266-1.734 0-1.078-0.797-2.109-0.563-0.844-1.547-1.641-0.609-0.516-1.781-1.313-1.406-0.891-2.344-2.063l-0.047-0.047q-0.328-0.422-0.422-0.609-0.141-0.328 0.188-0.422 0.469-0.094 1.781 0.516l0.375 0.188q1.453 0.609 2.625 1.313l1.031-1.688q-1.266-0.797-2.625-1.359-1.5-0.656-2.813-0.844-0.891-0.141-1.547 0.094-0.75 0.328-0.984 1.125-0.422 1.219 0.75 2.766 0.563 0.703 1.359 1.406l1.547 1.125q1.547 1.078 2.203 1.734v0.047q0.75 0.703 0.938 1.172 0.141 0.328 0.094 0.398t-0.422 0.070q-0.797 0-1.969-0.563-0.703-0.328-1.828-1.078l-0.984 1.734q1.688 1.031 2.859 1.453 1.875 0.75 3.094 0.328zM20.859 8.25q0.141-0.188 0.141-0.398t-0.141-0.398l-1.313-1.313q-0.188-0.141-0.398-0.141t-0.398 0.141l-1.031 1.031 2.109 2.109zM11.016 13.922v2.063h2.063l6.141-6.141-2.063-2.063z"></path>
</svg>
