<!-- Generated by IcoMoon.io -->
<svg version="1.1" xmlns="http://www.w3.org/2000/svg" width="24" height="24" viewBox="0 0 24 24">
<title>dresser_outline</title>
<path d="M3.984 6q-0.797 0-1.383 0.586t-0.586 1.43v12.984q0 0.844 0.586 1.43t1.383 0.586v0.984h2.016v-0.984h12v0.984h2.016v-0.984q0.797 0 1.383-0.586t0.586-1.43v-12.984q0-0.844-0.586-1.43t-1.383-0.586h-16.031zM3.984 8.016h16.031v3h-16.031v-3zM9.984 9v0.984h4.031v-0.984h-4.031zM3.984 12.984h16.031v3h-16.031v-3zM9.984 14.016v0.984h4.031v-0.984h-4.031zM3.984 18h16.031v3h-16.031v-3zM9.984 18.984v1.031h4.031v-1.031h-4.031z"></path>
</svg>
