<!-- Generated by IcoMoon.io -->
<svg version="1.1" xmlns="http://www.w3.org/2000/svg" width="24" height="24" viewBox="0 0 24 24">
<title>dresser</title>
<path d="M3.984 6q-0.797 0-1.383 0.586t-0.586 1.43v3h19.969v-3q0-0.844-0.586-1.43t-1.383-0.586h-16.031zM9.984 8.016h4.031v0.984h-4.031v-0.984zM2.016 12v5.016h19.969v-5.016h-19.969zM9.984 14.016h4.031v0.984h-4.031v-0.984zM2.016 18v3q0 0.844 0.586 1.43t1.383 0.586v0.984h2.016v-0.984h12v0.984h2.016v-0.984q0.797 0 1.383-0.586t0.586-1.43v-3h-19.969zM9.984 20.016h4.031v0.984h-4.031v-0.984z"></path>
</svg>
