<!-- Generated by IcoMoon.io -->
<svg version="1.1" xmlns="http://www.w3.org/2000/svg" width="24" height="24" viewBox="0 0 24 24">
<title>dump_truck</title>
<path d="M20.016 11.016h-5.016v6h-12.984v3h0.984q0 1.219 0.867 2.109t2.133 0.891 2.133-0.891 0.867-2.109h6q0 1.219 0.867 2.109t2.133 0.891 2.133-0.891 0.867-2.109h2.016v-5.016zM6 21.516q-0.609 0-1.055-0.445t-0.445-1.078 0.445-1.055 1.055-0.422 1.055 0.422 0.445 1.055-0.445 1.078-1.055 0.445zM18 21.516q-0.609 0-1.055-0.445t-0.445-1.078 0.445-1.055 1.055-0.422 1.055 0.422 0.445 1.055-0.445 1.078-1.055 0.445zM17.016 15v-2.484h2.484l1.969 2.484h-4.453zM18 9.984h-3.984v6h-11.016l-1.453-4.969h-0.563v-2.016h12l1.031-0.984h3.984v1.969z"></path>
</svg>
