<!-- Generated by IcoMoon.io -->
<svg version="1.1" xmlns="http://www.w3.org/2000/svg" width="24" height="24" viewBox="0 0 24 24">
<title>ear_hearing</title>
<path d="M17.016 23.016q-0.422 0-0.797-0.188-0.563-0.281-0.938-0.797t-0.75-1.547-1.031-1.828q-0.422-0.469-1.359-1.172v0q-0.797-0.656-1.219-1.031-0.609-0.656-1.125-1.5-0.797-1.453-0.797-2.953 0-2.109 1.453-3.563t3.539-1.453 3.539 1.453 1.453 3.563h2.016q0-1.922-0.938-3.539t-2.531-2.531-3.539-0.914-3.539 0.914-2.531 2.531-0.938 3.563 1.078 3.867q0.609 1.125 1.453 1.969 0.516 0.516 1.406 1.172 0.75 0.609 1.031 0.891 0.469 0.516 0.656 1.172 0.469 1.359 1.102 2.203t1.664 1.359q0.75 0.328 1.641 0.328 1.641 0 2.813-1.172t1.172-2.813h-2.016q0 0.844-0.586 1.43t-1.383 0.586zM7.641 5.625l-1.406-1.406q-1.547 1.5-2.391 3.516t-0.844 4.266 0.844 4.266 2.391 3.516l1.406-1.406q-1.266-1.266-1.945-2.906t-0.68-3.469 0.68-3.469 1.945-2.906zM11.484 12q0 1.031 0.75 1.758t1.781 0.727 1.758-0.727 0.727-1.758-0.727-1.758-1.758-0.727-1.781 0.727-0.75 1.758z"></path>
</svg>
