<!-- Generated by IcoMoon.io -->
<svg version="1.1" xmlns="http://www.w3.org/2000/svg" width="24" height="24" viewBox="0 0 24 24">
<title>ear_hearing_off</title>
<path d="M0.984 7.266l1.313-1.266 17.719 17.719-1.266 1.266-5.859-5.813q-0.609 0.516-0.891 0.844-0.422 0.469-0.609 1.078-0.469 1.359-1.102 2.203t-1.664 1.359q-0.75 0.328-1.641 0.328-1.641 0-2.813-1.172t-1.172-2.813h2.016q0 0.844 0.586 1.43t1.383 0.586q0.422 0 0.797-0.188 0.563-0.281 0.938-0.797t0.75-1.547q0.281-0.938 0.891-1.641 0.422-0.516 1.125-1.078l-6.422-6.469q-0.047 0.234-0.047 0.703h-2.016q0-1.219 0.375-2.344zM14.203 14.953q0.797-1.453 0.797-2.953 0-2.109-1.453-3.563t-3.563-1.453q-1.734 0-3.094 1.078l-1.453-1.453q1.969-1.594 4.547-1.594 1.969 0 3.563 0.914t2.531 2.531 0.938 3.563-1.078 3.867l-0.469 0.75-1.453-1.453zM16.359 5.625l1.406-1.406q1.547 1.5 2.391 3.516t0.844 4.266q0 2.063-0.75 3.961t-2.063 3.398l-1.406-1.406q1.031-1.219 1.617-2.742t0.586-3.211q0-1.828-0.68-3.469t-1.945-2.906zM12.516 12q0 0.703-0.375 1.313l-3.469-3.422q0.609-0.375 1.313-0.375 1.031 0 1.781 0.727t0.75 1.758z"></path>
</svg>
