<!-- Generated by IcoMoon.io -->
<svg version="1.1" xmlns="http://www.w3.org/2000/svg" width="24" height="24" viewBox="0 0 24 24">
<title>electric_switch</title>
<path d="M0.984 14.016h2.203q0.281-0.891 1.055-1.453t1.734-0.563 1.758 0.563l6.703-4.688 1.125 1.641-6.656 4.688q0.094 0.375 0.094 0.797 0 1.266-0.867 2.133t-2.133 0.867q-0.984 0-1.758-0.563t-1.055-1.453h-2.203v-1.969zM23.016 14.016v1.969h-2.203q-0.281 0.891-1.055 1.453t-1.758 0.563q-1.266 0-2.133-0.867t-0.867-2.133 0.867-2.133 2.133-0.867q0.984 0 1.758 0.563t1.055 1.453h2.203zM6 14.016q-0.422 0-0.703 0.281t-0.281 0.703 0.281 0.703 0.703 0.281 0.703-0.281 0.281-0.703-0.281-0.703-0.703-0.281zM18 14.016q-0.422 0-0.703 0.281t-0.281 0.703 0.281 0.703 0.703 0.281 0.703-0.281 0.281-0.703-0.281-0.703-0.703-0.281z"></path>
</svg>
