<!-- Generated by IcoMoon.io -->
<svg version="1.1" xmlns="http://www.w3.org/2000/svg" width="24" height="24" viewBox="0 0 24 24">
<title>electric_switch_closed</title>
<path d="M20.813 14.016q-0.281-0.891-1.078-1.453t-1.734-0.563-1.711 0.563-1.102 1.453h-6.375q-0.328-0.891-1.102-1.453t-1.711-0.563-1.734 0.563-1.078 1.453h-2.203v1.969h2.203q0.281 0.891 1.078 1.453t1.734 0.563 1.711-0.563 1.102-1.453h6.375q0.328 0.891 1.102 1.453t1.711 0.563 1.734-0.563 1.078-1.453h2.203v-1.969h-2.203zM6 15.984q-0.281 0-0.539-0.164t-0.375-0.445-0.070-0.586 0.258-0.516 0.516-0.258 0.586 0.070 0.445 0.375 0.164 0.539q0 0.422-0.281 0.703t-0.703 0.281zM18 15.984q-0.281 0-0.539-0.164t-0.375-0.445-0.070-0.586 0.258-0.516 0.516-0.258 0.586 0.070 0.445 0.375 0.164 0.539q0 0.422-0.281 0.703t-0.703 0.281z"></path>
</svg>
