<!-- Generated by IcoMoon.io -->
<svg version="1.1" xmlns="http://www.w3.org/2000/svg" width="24" height="24" viewBox="0 0 24 24">
<title>email_check</title>
<path d="M21 16.359q-0.984-0.375-2.016-0.375-1.594 0-2.977 0.82t-2.203 2.203-0.82 2.977q0 0.469 0.094 1.031h-10.078q-0.844 0-1.43-0.586t-0.586-1.43v-12q0-0.844 0.586-1.43t1.43-0.586h15.984q0.844 0 1.43 0.586t0.586 1.43v7.359zM23.484 20.016l-4.969 4.969-3.516-3.469 1.5-1.5 2.016 1.969 3.469-3.469zM3 9v2.016l8.016 4.969 7.969-4.969v-2.016l-7.969 5.016z"></path>
</svg>
