<!-- Generated by IcoMoon.io -->
<svg version="1.1" xmlns="http://www.w3.org/2000/svg" width="24" height="24" viewBox="0 0 24 24">
<title>email_search</title>
<path d="M3 6.984h15.984q0.844 0 1.43 0.586t0.586 1.43v4.828q-1.547-1.5-3.703-1.781l1.688-1.031v-2.016l-7.969 5.016-8.016-5.016v2.016l7.641 4.734q-0.656 1.313-0.656 2.766 0 1.266 0.469 2.414t1.359 2.086h-8.813q-0.844 0-1.43-0.586t-0.586-1.43v-12q0-0.844 0.586-1.43t1.43-0.586zM16.5 14.016q1.875 0 3.188 1.313t1.313 3.188q0 1.313-0.703 2.391l3.094 3.094-1.406 1.406-3.094-3.094q-1.125 0.703-2.391 0.703-1.875 0-3.188-1.313t-1.313-3.188 1.313-3.188 3.188-1.313zM16.5 15.984q-1.031 0-1.758 0.75t-0.727 1.781 0.727 1.758 1.758 0.727 1.758-0.727 0.727-1.758-0.727-1.781-1.758-0.75z"></path>
</svg>
