<!-- Generated by IcoMoon.io -->
<svg version="1.1" xmlns="http://www.w3.org/2000/svg" width="24" height="24" viewBox="0 0 24 24">
<title>email_send</title>
<path d="M12.984 20.016h4.031v-3l4.969 4.5-4.969 4.5v-3h-4.031v-3zM20.016 6.984h-16.031q-0.797 0-1.383 0.586t-0.586 1.43v12q0 0.844 0.586 1.43t1.383 0.586h7.359q-0.328-0.984-0.328-2.016 0-1.969 1.172-3.563t3.070-2.18 3.773 0.094 2.953 2.32v-8.672q0-0.844-0.586-1.43t-1.383-0.586zM20.016 11.016l-8.016 4.969-8.016-4.969v-2.016l8.016 5.016 8.016-5.016v2.016z"></path>
</svg>
