<!-- Generated by IcoMoon.io -->
<svg version="1.1" xmlns="http://www.w3.org/2000/svg" width="24" height="24" viewBox="0 0 24 24">
<title>email_plus</title>
<path d="M3 6.984q-0.844 0-1.43 0.586t-0.586 1.43v12q0 0.844 0.586 1.43t1.43 0.586h11.109q-0.094-0.516-0.094-1.031 0-1.594 0.797-2.977t2.18-2.203 3.023-0.82q0.469 0 0.984 0.094v-7.078q0-0.844-0.586-1.43t-1.43-0.586h-15.984zM3 9l8.016 5.016 7.969-5.016v2.016l-7.969 4.969-8.016-4.969v-2.016zM18.984 18v3h-3v2.016h3v3h2.016v-3h3v-2.016h-3v-3h-2.016z"></path>
</svg>
