<!-- Generated by IcoMoon.io -->
<svg version="1.1" xmlns="http://www.w3.org/2000/svg" width="24" height="24" viewBox="0 0 24 24">
<title>email_search_outline</title>
<path d="M16.5 14.016q1.875 0 3.188 1.313t1.313 3.188q0 1.313-0.703 2.391l3.094 3.094-1.406 1.406-3.094-3.094q-1.125 0.703-2.391 0.703-1.875 0-3.188-1.313t-1.313-3.188 1.313-3.188 3.188-1.313zM16.5 15.984q-1.031 0-1.758 0.75t-0.727 1.781 0.727 1.758 1.758 0.727 1.758-0.727 0.727-1.758-0.727-1.781-1.758-0.75zM10.5 21h-7.5v-9.984l7.641 4.734q0.75-1.688 2.344-2.719t3.516-1.031q0.563 0 0.797 0.047l1.688-1.031v1.5q1.078 0.422 2.016 1.313v-4.828q0-0.844-0.586-1.43t-1.43-0.586h-15.984q-0.844 0-1.43 0.586t-0.586 1.43v12q0 0.844 0.586 1.43t1.43 0.586h8.813q-0.844-0.891-1.313-2.016zM18.984 9l-7.969 5.016-8.016-5.016h15.984z"></path>
</svg>
