<!-- Generated by IcoMoon.io -->
<svg version="1.1" xmlns="http://www.w3.org/2000/svg" width="24" height="24" viewBox="0 0 24 24">
<title>email_edit_outline</title>
<path d="M19.078 16.875l-6.094 6.047v2.063h2.063l6.094-6.047zM22.688 16.594l-1.266-1.313q-0.141-0.141-0.375-0.141t-0.375 0.141l-1.031 1.031 2.063 1.969 0.984-0.984q0.141-0.141 0.141-0.352t-0.141-0.352zM11.016 21h-7.031v-9.984l8.016 4.969 8.016-4.969v1.969h1.969v-3.984q0-0.844-0.586-1.43t-1.383-0.586h-16.031q-0.797 0-1.383 0.586t-0.586 1.43v12q0 0.844 0.586 1.43t1.383 0.586h7.031v-2.016zM20.016 9l-8.016 5.016-8.016-5.016h16.031z"></path>
</svg>
