<!-- Generated by IcoMoon.io -->
<svg version="1.1" xmlns="http://www.w3.org/2000/svg" width="24" height="24" viewBox="0 0 24 24">
<title>email_multiple_outline</title>
<path d="M2.016 9v14.016h18v1.969h-18q-0.844 0-1.43-0.586t-0.586-1.383v-14.016h2.016zM24 6.984q0-0.797-0.586-1.383t-1.43-0.586h-15.984q-0.844 0-1.43 0.586t-0.586 1.383v12q0 0.844 0.586 1.43t1.43 0.586h15.984q0.844 0 1.43-0.586t0.586-1.43v-12zM21.984 6.984l-7.969 5.016-8.016-5.016h15.984zM21.984 18.984h-15.984v-9.984l8.016 5.016 7.969-5.016v9.984z"></path>
</svg>
