<!-- Generated by IcoMoon.io -->
<svg version="1.1" xmlns="http://www.w3.org/2000/svg" width="24" height="24" viewBox="0 0 24 24">
<title>email_box</title>
<path d="M5.016 6q-0.844 0-1.43 0.586t-0.586 1.43v13.969q0 0.844 0.586 1.43t1.43 0.586h13.969q0.844 0 1.43-0.586t0.586-1.43v-13.969q0-0.844-0.586-1.43t-1.43-0.586h-13.969zM6.422 9.516h11.156q0.609 0 1.008 0.398t0.398 1.008v8.156q0 0.609-0.398 1.008t-1.008 0.398h-11.156q-0.609 0-1.008-0.398t-0.398-1.008v-8.156q0-0.609 0.398-1.008t1.008-0.398zM6 11.016v1.969l6 4.031 6-4.031v-1.969l-6 3.984z"></path>
</svg>
