<!-- Generated by IcoMoon.io -->
<svg version="1.1" xmlns="http://www.w3.org/2000/svg" width="24" height="24" viewBox="0 0 24 24">
<title>email_lock</title>
<path d="M20.484 3q1.031 0 1.781 0.727t0.75 1.758v0.516q0.422 0 0.703 0.281t0.281 0.703v4.031q0 0.422-0.281 0.703t-0.703 0.281h-5.016q-0.422 0-0.703-0.281t-0.281-0.703v-4.031q0-0.422 0.281-0.703t0.703-0.281v-0.516q0-1.031 0.727-1.758t1.758-0.727zM12 14.016l-8.016-5.016v2.016l8.016 4.969 4.172-2.578q0.844 0.609 1.828 0.609h3.984v6.984q0 0.844-0.586 1.43t-1.383 0.586h-16.031q-0.797 0-1.383-0.586t-0.586-1.43v-12q0-0.844 0.586-1.43t1.383-0.586h11.016v4.031q0 0.516 0.188 0.984zM20.484 3.984q-0.609 0-1.055 0.445t-0.445 1.055v0.516h3v-0.516q0-0.609-0.422-1.055t-1.078-0.445z"></path>
</svg>
