<!-- Generated by IcoMoon.io -->
<svg version="1.1" xmlns="http://www.w3.org/2000/svg" width="24" height="24" viewBox="0 0 24 24">
<title>email_edit</title>
<path d="M21 15.141q-0.234 0-0.375 0.141l-1.031 1.031 2.063 1.969 0.984-0.984q0.188-0.141 0.188-0.375t-0.188-0.375l-1.219-1.266q-0.141-0.141-0.375-0.141h-0.047zM19.031 16.875l-6.047 6.047v2.063h2.063l6.094-6.047zM20.016 6.984h-16.031q-0.797 0-1.383 0.586t-0.586 1.43v12q0 0.844 0.586 1.43t1.383 0.586h7.031v-0.891l8.203-8.25q0.75-0.75 1.828-0.75 0.516 0 0.984 0.188v-4.313q0-0.844-0.586-1.43t-1.43-0.586zM20.016 11.016l-8.016 4.969-8.016-4.969v-2.016l8.016 5.016 8.016-5.016v2.016z"></path>
</svg>
