<!-- Generated by IcoMoon.io -->
<svg version="1.1" xmlns="http://www.w3.org/2000/svg" width="24" height="24" viewBox="0 0 24 24">
<title>email_mark_as_unread</title>
<path d="M18.844 9.984h-2.625l-5.719-3-6.516 3.422v9.609q-0.797 0-1.383-0.586t-0.586-1.43v-7.828q0-0.984 0.797-1.359l7.688-3.797 7.547 3.797q0.703 0.422 0.797 1.172zM6.984 11.016h13.031q0.797 0 1.383 0.586t0.586 1.383v9q0 0.844-0.586 1.43t-1.383 0.586h-13.031q-0.797 0-1.383-0.586t-0.586-1.43v-9q0-0.797 0.586-1.383t1.383-0.586zM20.016 14.672v-1.688l-6.516 3.328-6.516-3.328v1.688l6.516 3.328z"></path>
</svg>
