<!-- Generated by IcoMoon.io -->
<svg version="1.1" xmlns="http://www.w3.org/2000/svg" width="24" height="24" viewBox="0 0 24 24">
<title>emoticon</title>
<path d="M12 5.016q-2.719 0-5.016 1.336t-3.633 3.633-1.336 5.016q0 1.969 0.75 3.82t2.156 3.258 3.258 2.156 3.82 0.75 3.82-0.75 3.258-2.156 2.156-3.258 0.75-3.82-0.75-3.82-2.156-3.258-3.258-2.156-3.82-0.75zM15.516 11.016q0.609 0 1.055 0.422t0.445 1.055-0.445 1.078-1.078 0.445-1.055-0.445-0.422-1.078 0.422-1.055 1.078-0.422zM8.484 11.016q0.656 0 1.078 0.422t0.422 1.055-0.422 1.078-1.055 0.445-1.078-0.445-0.445-1.078 0.445-1.055 1.055-0.422zM12 20.484q-1.734 0-3.117-0.961t-1.992-2.508h10.219q-0.609 1.547-1.992 2.508t-3.117 0.961z"></path>
</svg>
