<!-- Generated by IcoMoon.io -->
<svg version="1.1" xmlns="http://www.w3.org/2000/svg" width="24" height="24" viewBox="0 0 24 24">
<title>emoticon_confused</title>
<path d="M12 5.016q-2.719 0-5.016 1.336t-3.633 3.633-1.336 5.016 1.336 5.016 3.633 3.633 5.016 1.336 5.016-1.336 3.633-3.633 1.336-5.016q0-1.969-0.75-3.82t-2.156-3.258-3.258-2.156-3.82-0.75zM8.484 11.016q0.656 0 1.078 0.422t0.422 1.055-0.422 1.078-1.055 0.445-1.078-0.445-0.422-1.055 0.445-1.055 1.031-0.445zM17.016 18.984h-4.031q-1.078 0-1.992 0.539t-1.477 1.477l-1.734-0.984q0.844-1.406 2.227-2.203t2.977-0.797h4.031v1.969zM15.516 14.016q-0.656 0-1.078-0.445t-0.422-1.078 0.422-1.055 1.055-0.422 1.078 0.422 0.422 1.055-0.445 1.055-1.031 0.469z"></path>
</svg>
