<!-- Generated by IcoMoon.io -->
<svg version="1.1" xmlns="http://www.w3.org/2000/svg" width="24" height="24" viewBox="0 0 24 24">
<title>emoticon_happy_outline</title>
<path d="M20.016 15q0-1.594-0.609-3.070t-1.734-2.602-2.602-1.734-3.070-0.609-3.070 0.609-2.602 1.734-1.734 2.602-0.609 3.070q0 2.156 1.078 4.008t2.93 2.93 4.008 1.078 4.008-1.078 2.93-2.93 1.078-4.008zM21.984 15q0 1.969-0.75 3.82t-2.156 3.258-3.258 2.156-3.82 0.75-3.82-0.75-3.258-2.156-2.156-3.258-0.75-3.82 0.75-3.82 2.156-3.258 3.258-2.156 3.82-0.75 3.82 0.75 3.258 2.156 2.156 3.258 0.75 3.82zM9.984 12.516q0 0.563-0.445 1.031t-1.031 0.469-1.055-0.469-0.469-1.055 0.469-1.031 1.055-0.445 1.031 0.445 0.445 1.055zM17.016 12.516q0 0.563-0.469 1.031t-1.055 0.469-1.031-0.469-0.445-1.055 0.445-1.031 1.031-0.445 1.055 0.445 0.469 1.055zM12 20.25q-1.266 0-2.391-0.492t-1.781-1.336l1.406-1.406q0.328 0.516 1.078 0.867t1.688 0.352 1.688-0.352 1.078-0.867l1.406 1.406q-0.656 0.844-1.781 1.336t-2.391 0.492z"></path>
</svg>
