<!-- Generated by IcoMoon.io -->
<svg version="1.1" xmlns="http://www.w3.org/2000/svg" width="24" height="24" viewBox="0 0 24 24">
<title>emoticon_outline</title>
<path d="M12 20.484q1.734 0 3.117-0.961t1.992-2.508h-10.219q0.609 1.547 1.992 2.508t3.117 0.961zM8.484 14.016q0.656 0 1.078-0.445t0.422-1.078-0.422-1.055-1.055-0.422-1.078 0.422-0.445 1.055 0.445 1.078 1.055 0.445zM15.516 14.016q0.609 0 1.055-0.445t0.445-1.078-0.445-1.055-1.078-0.422-1.055 0.422-0.422 1.055 0.422 1.078 1.078 0.445zM12 23.016q-2.156 0-4.008-1.078t-2.93-2.93-1.078-4.008q0-1.594 0.609-3.070t1.734-2.602 2.602-1.734 3.070-0.609 3.070 0.609 2.602 1.734 1.734 2.602 0.609 3.070q0 2.156-1.078 4.008t-2.93 2.93-4.008 1.078zM12 5.016q-2.719 0-5.016 1.336t-3.633 3.633-1.336 5.016q0 1.969 0.75 3.82t2.156 3.258 3.258 2.156 3.82 0.75 3.82-0.75 3.258-2.156 2.156-3.258 0.75-3.82-0.75-3.82-2.156-3.258-3.258-2.156-3.82-0.75z"></path>
</svg>
