<!-- Generated by IcoMoon.io -->
<svg version="1.1" xmlns="http://www.w3.org/2000/svg" width="24" height="24" viewBox="0 0 24 24">
<title>emoticon_neutral</title>
<path d="M12 5.016q-1.969 0-3.82 0.75t-3.258 2.156-2.156 3.258-0.75 3.82 0.75 3.82 2.156 3.258 3.258 2.156 3.82 0.75 3.82-0.75 3.258-2.156 2.156-3.258 0.75-3.82-0.75-3.82-2.156-3.258-3.258-2.156-3.82-0.75zM6.984 12.516q0-0.656 0.445-1.078t1.078-0.422 1.055 0.422 0.422 1.055-0.422 1.078-1.055 0.445-1.078-0.445-0.445-1.055zM15.984 18.984h-7.969v-1.969h7.969v1.969zM15.516 14.016q-0.656 0-1.078-0.445t-0.422-1.078 0.422-1.055 1.055-0.422 1.078 0.422 0.445 1.055-0.445 1.078-1.055 0.445z"></path>
</svg>
