<!-- Generated by IcoMoon.io -->
<svg version="1.1" xmlns="http://www.w3.org/2000/svg" width="24" height="24" viewBox="0 0 24 24">
<title>emoticon_neutral_outline</title>
<path d="M12 5.016q-1.969 0-3.82 0.75t-3.258 2.156-2.156 3.258-0.75 3.82 0.75 3.82 2.156 3.258 3.258 2.156 3.82 0.75 3.82-0.75 3.258-2.156 2.156-3.258 0.75-3.82-0.75-3.82-2.156-3.258-3.258-2.156-3.82-0.75zM12 23.016q-2.156 0-4.008-1.078t-2.93-2.93-1.078-4.008q0-1.594 0.609-3.070t1.734-2.602 2.602-1.734 3.070-0.609 3.070 0.609 2.602 1.734 1.734 2.602 0.609 3.070q0 2.156-1.078 4.008t-2.93 2.93-4.008 1.078zM8.484 14.016q-0.609 0-1.055-0.445t-0.445-1.078 0.445-1.055 1.078-0.422 1.055 0.422 0.422 1.055-0.422 1.078-1.078 0.445zM17.016 12.516q0 0.609-0.445 1.055t-1.078 0.445-1.055-0.445-0.422-1.078 0.422-1.055 1.055-0.422 1.078 0.422 0.445 1.078zM15.984 17.016v1.969h-7.969v-1.969h7.969z"></path>
</svg>
