<!-- Generated by IcoMoon.io -->
<svg version="1.1" xmlns="http://www.w3.org/2000/svg" width="24" height="24" viewBox="0 0 24 24">
<title>emoticon_confused_outline</title>
<path d="M20.016 15q0-2.156-1.078-4.008t-2.93-2.93-4.008-1.078-4.008 1.078-2.93 2.93-1.078 4.008 1.078 4.008 2.93 2.93 4.008 1.078 4.008-1.078 2.93-2.93 1.078-4.008zM21.984 15q0 2.719-1.336 5.016t-3.633 3.633-5.016 1.336-5.016-1.336-3.633-3.633-1.336-5.016 1.336-5.016 3.633-3.633 5.016-1.336q1.969 0 3.82 0.75t3.258 2.156 2.156 3.258 0.75 3.82zM15.516 11.016q0.609 0 1.055 0.422t0.445 1.055-0.445 1.078-1.078 0.445-1.055-0.445-0.422-1.055 0.445-1.055 1.055-0.445zM9.984 12.516q0 0.609-0.422 1.055t-1.055 0.445-1.078-0.445-0.445-1.078 0.445-1.055 1.055-0.422 1.055 0.445 0.445 1.055zM17.016 18h-4.031q-1.078 0-1.992 0.539t-1.477 1.477l-1.734-1.031q0.844-1.359 2.227-2.18t2.977-0.82h4.031v2.016z"></path>
</svg>
