<!-- Generated by IcoMoon.io -->
<svg version="1.1" xmlns="http://www.w3.org/2000/svg" width="24" height="24" viewBox="0 0 24 24">
<title>emoticon_frown</title>
<path d="M12 5.016q-2.719 0-5.016 1.336t-3.633 3.633-1.336 5.016 1.336 5.016 3.633 3.633 5.016 1.336 5.016-1.336 3.633-3.633 1.336-5.016-1.336-5.016-3.633-3.633-5.016-1.336zM15.516 11.016q0.609 0 1.055 0.422t0.445 1.055-0.445 1.078-1.078 0.445-1.055-0.445-0.422-1.078 0.422-1.055 1.078-0.422zM8.484 11.016q0.656 0 1.078 0.422t0.422 1.055-0.422 1.078-1.055 0.445-1.078-0.445-0.445-1.078 0.445-1.055 1.055-0.422zM6.891 20.016q0.609-1.594 1.992-2.555t3.117-0.961 3.117 0.961 1.992 2.555h-10.219z"></path>
</svg>
