<!-- Generated by IcoMoon.io -->
<svg version="1.1" xmlns="http://www.w3.org/2000/svg" width="24" height="24" viewBox="0 0 24 24">
<title>emoticon_frown_outline</title>
<path d="M12 5.016q-2.719 0-5.016 1.336t-3.633 3.633-1.336 5.016 1.336 5.016 3.633 3.633 5.016 1.336 5.016-1.336 3.633-3.633 1.336-5.016-1.336-5.016-3.633-3.633-5.016-1.336zM12 23.016q-2.156 0-4.008-1.078t-2.93-2.93-1.078-4.008 1.078-4.008 2.93-2.93 4.008-1.078 4.008 1.078 2.93 2.93 1.078 4.008-1.078 4.008-2.93 2.93-4.008 1.078zM15.516 14.016q0.609 0 1.055-0.445t0.445-1.078-0.445-1.055-1.078-0.422-1.055 0.422-0.422 1.055 0.422 1.078 1.078 0.445zM8.484 14.016q0.656 0 1.078-0.445t0.422-1.078-0.422-1.055-1.055-0.422-1.078 0.422-0.445 1.055 0.445 1.078 1.055 0.445zM12 16.5q-1.734 0-3.117 0.961t-1.992 2.555h10.219q-0.609-1.594-1.992-2.555t-3.117-0.961z"></path>
</svg>
