<!-- Generated by IcoMoon.io -->
<svg version="1.1" xmlns="http://www.w3.org/2000/svg" width="24" height="24" viewBox="0 0 24 24">
<title>emoticon_happy</title>
<path d="M12 5.016q-1.969 0-3.82 0.75t-3.258 2.156-2.156 3.258-0.75 3.82 0.75 3.82 2.156 3.258 3.258 2.156 3.82 0.75 3.82-0.75 3.258-2.156 2.156-3.258 0.75-3.82-0.75-3.82-2.156-3.258-3.258-2.156-3.82-0.75zM6.984 12.516q0-0.609 0.469-1.055t1.055-0.445 1.031 0.445 0.445 1.031-0.445 1.055-1.031 0.469-1.055-0.469-0.469-1.031zM12 20.25q-1.266 0-2.391-0.492t-1.781-1.336l1.406-1.406q0.328 0.516 1.078 0.867t1.688 0.352 1.688-0.352 1.078-0.867l1.406 1.406q-0.656 0.844-1.781 1.336t-2.391 0.492zM15.516 14.016q-0.609 0-1.055-0.469t-0.445-1.055 0.445-1.031 1.031-0.445 1.055 0.445 0.469 1.031-0.469 1.055-1.031 0.469z"></path>
</svg>
