<!-- Generated by IcoMoon.io -->
<svg version="1.1" xmlns="http://www.w3.org/2000/svg" width="24" height="24" viewBox="0 0 24 24">
<title>engine_off_outline</title>
<path d="M2.484 6.75l4.406 4.406-1.875 1.828v3h-2.016v-3h-2.016v8.016h2.016v-3h2.016v3h3l1.969 2.016h8.016v-0.75l3.234 3.234 1.266-1.266-18.703-18.75zM15.984 21h-4.969l-2.016-2.016h-2.016v-4.969l1.031-1.031h0.703l7.266 7.266v0.75zM23.016 12v9.984h-0.188l-6.844-6.797v-2.203h-2.156l-6-6h7.172v2.016h-3v2.016h6v3.984h2.016v-3h3z"></path>
</svg>
