<!-- Generated by IcoMoon.io -->
<svg version="1.1" xmlns="http://www.w3.org/2000/svg" width="24" height="24" viewBox="0 0 24 24">
<title>escalator</title>
<path d="M20.016 11.016h-1.078l-12 12h-2.953q-0.797 0-1.383-0.586t-0.586-1.43 0.586-1.43 1.383-0.586h1.313l1.688-1.688v-4.313q0-0.422 0.305-0.703t0.727-0.281h0.984q0.422 0 0.703 0.281t0.281 0.703v1.313l7.313-7.313h2.719q0.797 0 1.383 0.586t0.586 1.43-0.586 1.43-1.383 0.586zM8.484 8.016q0.656 0 1.078 0.422t0.422 1.055-0.422 1.078-1.055 0.445-1.078-0.445-0.445-1.078 0.445-1.055 1.055-0.422z"></path>
</svg>
