<!-- Generated by IcoMoon.io -->
<svg version="1.1" xmlns="http://www.w3.org/2000/svg" width="24" height="24" viewBox="0 0 24 24">
<title>exit_run</title>
<path d="M13.359 11.156q-0.703 0-1.195-0.492t-0.492-1.195 0.492-1.195 1.195-0.492 1.195 0.492 0.492 1.195-0.492 1.195-1.195 0.492zM10.313 22.922l-5.953-1.172 0.328-1.688 4.172 0.844 1.359-6.844-1.547 0.563v2.859h-1.688v-3.938l4.406-1.875 0.656-0.094q0.891 0 1.453 0.844l0.844 1.359q0.516 0.938 1.5 1.477t2.156 0.539v1.688q-1.359 0-2.578-0.563t-2.063-1.5l-0.516 2.531 1.781 1.688v6.375h-1.688v-5.109l-1.781-1.688zM21 26.016h-2.016v-20.016h-12.984v13.125l-2.016-0.422v-14.719h17.016v22.031zM6 26.016h-2.016v-3.234l2.016 0.422v2.813z"></path>
</svg>
