<!-- Generated by IcoMoon.io -->
<svg version="1.1" xmlns="http://www.w3.org/2000/svg" width="24" height="24" viewBox="0 0 24 24">
<title>expand_all</title>
<path d="M18 11.016h-9.984v9.984h-2.016v-9.984q0-0.844 0.586-1.43t1.43-0.586h9.984v2.016zM14.016 5.016h-10.031q-0.797 0-1.383 0.586t-0.586 1.383v10.031h1.969v-10.031h10.031v-1.969zM21.984 15v8.016q0 0.797-0.586 1.383t-1.383 0.586h-8.016q-0.844 0-1.43-0.586t-0.586-1.383v-8.016q0-0.844 0.586-1.43t1.43-0.586h8.016q0.797 0 1.383 0.586t0.586 1.43zM20.016 18h-3v-3h-2.016v3h-3v2.016h3v3h2.016v-3h3v-2.016z"></path>
</svg>
