<!-- Generated by IcoMoon.io -->
<svg version="1.1" xmlns="http://www.w3.org/2000/svg" width="24" height="24" viewBox="0 0 24 24">
<title>face_woman_outline</title>
<path d="M12 5.016q-2.719 0-5.016 1.336t-3.633 3.633-1.336 5.016v9.984h19.969v-9.984q0-2.719-1.336-5.016t-3.633-3.633-5.016-1.336zM12 6.984q2.156 0 3.961 1.055t2.883 2.836q-0.75 0.141-1.359 0.141-2.109 0-3.938-1.055t-2.906-2.836q0.75-0.141 1.359-0.141zM8.063 8.016q-0.469 1.406-1.406 2.555t-2.25 1.898q0.469-1.406 1.43-2.555t2.227-1.898zM3.984 14.859q1.969-0.75 3.469-2.18t2.297-3.352q1.406 1.688 3.422 2.672t4.313 0.984q1.078 0 2.203-0.234 0.328 1.125 0.328 2.25 0 2.156-1.078 4.008t-2.93 2.93-4.008 1.078-4.008-1.078-2.93-2.93-1.078-4.008v-0.141zM3.984 23.016v-2.016q0.891 1.125 2.016 2.016h-2.016zM20.016 23.016h-2.016q1.125-0.891 2.016-2.016v2.016zM13.734 15.984q0-0.516 0.375-0.867t0.891-0.352 0.891 0.352 0.375 0.867-0.375 0.891-0.891 0.375-0.891-0.375-0.375-0.891zM7.734 15.984q0-0.516 0.375-0.867t0.891-0.352 0.891 0.352 0.375 0.867-0.375 0.891-0.891 0.375-0.891-0.375-0.375-0.891z"></path>
</svg>
