<!-- Generated by IcoMoon.io -->
<svg version="1.1" xmlns="http://www.w3.org/2000/svg" width="24" height="24" viewBox="0 0 24 24">
<title>face_recognition</title>
<path d="M9 14.766q-0.516 0-0.891 0.352t-0.375 0.867 0.375 0.891 0.891 0.375 0.891-0.375 0.375-0.891-0.375-0.867-0.891-0.352zM15 14.766q-0.516 0-0.891 0.352t-0.375 0.867 0.375 0.891 0.891 0.375 0.891-0.375 0.375-0.891-0.375-0.867-0.891-0.352zM12 5.016q-1.969 0-3.82 0.75t-3.258 2.156-2.156 3.258-0.75 3.82 0.75 3.82 2.156 3.258 3.258 2.156 3.82 0.75 3.82-0.75 3.258-2.156 2.156-3.258 0.75-3.82-0.75-3.82-2.156-3.258-3.258-2.156-3.82-0.75zM12 23.016q-2.156 0-4.008-1.078t-2.93-2.93-1.078-4.008q-0.047-0.422 0-0.844 1.781-0.797 3.164-2.203t2.133-3.188q1.359 2.016 3.539 3.117t4.617 1.102q1.078 0 2.25-0.234 0.609 2.063 0.094 4.148t-1.969 3.633-3.563 2.156q-1.125 0.328-2.25 0.328zM0 5.016q0-0.844 0.586-1.43t1.43-0.586h3.984v2.016h-3.984v3.984h-2.016v-3.984zM24 24.984q0 0.844-0.586 1.43t-1.43 0.586h-3.984v-2.016h3.984v-3.984h2.016v3.984zM2.016 27q-0.844 0-1.43-0.586t-0.586-1.43v-3.984h2.016v3.984h3.984v2.016h-3.984zM21.984 3q0.844 0 1.43 0.586t0.586 1.43v3.984h-2.016v-3.984h-3.984v-2.016h3.984z"></path>
</svg>
