<!-- Generated by IcoMoon.io -->
<svg version="1.1" xmlns="http://www.w3.org/2000/svg" width="24" height="24" viewBox="0 0 24 24">
<title>fast_forward_10</title>
<path d="M9.984 15v9.984h-1.969v-7.969h-2.016v-2.016h3.984zM18 17.016v6q0 0.797-0.586 1.383t-1.43 0.586h-1.969q-0.844 0-1.43-0.586t-0.586-1.383v-6q0-0.844 0.586-1.43t1.43-0.586h1.969q0.844 0 1.43 0.586t0.586 1.43zM14.016 17.016v6h1.969v-6h-1.969zM11.484 6q1.969 0 3.727 0.68t3.211 1.898l2.578-2.578v6.984h-6.984l2.625-2.625q-2.25-1.875-5.156-1.875-2.625 0-4.711 1.547t-2.883 3.984l-2.344-0.797q1.031-3.188 3.773-5.203t6.164-2.016z"></path>
</svg>
