<!-- Generated by IcoMoon.io -->
<svg version="1.1" xmlns="http://www.w3.org/2000/svg" width="24" height="24" viewBox="0 0 24 24">
<title>fast_forward_30</title>
<path d="M11.484 6q-3.422 0-6.164 2.016t-3.773 5.203l2.344 0.797q0.797-2.438 2.883-3.984t4.711-1.547q2.906 0 5.156 1.875l-2.625 2.625h6.984v-6.984l-2.578 2.578q-1.453-1.219-3.211-1.898t-3.727-0.68zM18.984 17.016v6q0 0.797-0.586 1.383t-1.383 0.586h-2.016q-0.844 0-1.43-0.586t-0.586-1.383v-6q0-0.844 0.586-1.43t1.43-0.586h2.016q0.797 0 1.383 0.586t0.586 1.43zM15 17.016v6h2.016v-6h-2.016zM11.016 23.016q0 0.797-0.586 1.383t-1.43 0.586h-3.984v-1.969h3.984v-2.016h-2.016v-2.016h2.016v-1.969h-3.984v-2.016h3.984q0.844 0 1.43 0.586t0.586 1.43v1.5q0 0.609-0.445 1.055t-1.055 0.445q0.609 0 1.055 0.422t0.445 1.078v1.5z"></path>
</svg>
