<!-- Generated by IcoMoon.io -->
<svg version="1.1" xmlns="http://www.w3.org/2000/svg" width="24" height="24" viewBox="0 0 24 24">
<title>fax</title>
<path d="M11.016 9h4.969v2.016h-4.969v-2.016zM8.016 12v-6h10.969v6q1.266 0 2.133 0.867t0.867 2.133v6h-3v3h-10.969v-3h-1.031v-9h1.031zM9.984 8.016v3.984h7.031v-3.984h-7.031zM9.984 18v3.984h7.031v-3.984h-7.031zM18.984 14.016q-0.422 0-0.703 0.281t-0.281 0.703 0.281 0.703 0.703 0.281 0.727-0.281 0.305-0.703-0.305-0.703-0.727-0.281zM3.984 12h1.031q0.422 0 0.703 0.281t0.281 0.703v7.031q0 0.422-0.281 0.703t-0.703 0.281h-1.031q-0.797 0-1.383-0.586t-0.586-1.43v-4.969q0-0.844 0.586-1.43t1.383-0.586z"></path>
</svg>
