<!-- Generated by IcoMoon.io -->
<svg version="1.1" xmlns="http://www.w3.org/2000/svg" width="24" height="24" viewBox="0 0 24 24">
<title>feature_search_outline</title>
<path d="M15.516 5.016q-1.875 0-3.188 1.313t-1.313 3.188 1.313 3.188 3.188 1.313q1.172 0 2.391-0.703l3.094 3.094 1.406-1.406-3.094-3.094q0.703-1.219 0.703-2.391 0-1.875-1.313-3.188t-3.188-1.313zM3.984 6.984q-0.797 0-1.383 0.586t-0.586 1.43v14.016q0 0.797 0.586 1.383t1.383 0.586h14.016q0.844 0 1.43-0.586t0.586-1.383v-5.016l-2.016-2.016v7.031h-14.016v-14.016h5.063q0.047-0.938 0.469-2.016h-5.531zM15.516 6.984q1.031 0 1.758 0.727t0.727 1.781-0.727 1.781-1.781 0.727-1.781-0.727-0.727-1.781 0.727-1.781 1.805-0.727z"></path>
</svg>
