<!-- Generated by IcoMoon.io -->
<svg version="1.1" xmlns="http://www.w3.org/2000/svg" width="24" height="24" viewBox="0 0 24 24">
<title>ferry</title>
<path d="M6 9h12v3.938l-6-1.922-6 1.922v-3.938zM3.938 21.984h0.047q1.172 0 2.25-0.563 0.938-0.516 1.781-1.406 0.797 0.891 1.781 1.406 1.078 0.563 2.203 0.563t2.203-0.563q0.984-0.516 1.781-1.406 0.844 0.891 1.781 1.406 1.078 0.563 2.25 0.563h0.047l1.875-6.656q0.141-0.375-0.047-0.773t-0.609-0.492l-1.266-0.422v-4.641q0-0.844-0.586-1.43t-1.43-0.586h-3v-3h-6v3h-3q-0.844 0-1.43 0.586t-0.586 1.43v4.641l-1.266 0.422q-0.422 0.094-0.609 0.492t-0.047 0.773zM20.016 24q-2.109 0-4.031-1.313-1.828 1.266-3.984 1.266t-3.984-1.266q-1.922 1.313-4.031 1.313h-1.969v2.016h1.969q2.063 0 4.031-1.031 1.875 0.984 3.984 0.984t3.984-0.984q1.969 1.031 4.031 1.031h1.969v-2.016h-1.969z"></path>
</svg>
