<!-- Generated by IcoMoon.io -->
<svg version="1.1" xmlns="http://www.w3.org/2000/svg" width="24" height="24" viewBox="0 0 24 24">
<title>file_lock</title>
<path d="M6 5.016q-0.844 0-1.43 0.586t-0.586 1.383v16.031q0 0.797 0.586 1.383t1.43 0.586h12q0.844 0 1.43-0.586t0.586-1.383v-12l-6-6h-8.016zM12.984 6.516l5.531 5.484h-5.531v-5.484zM12 14.016q1.266 0 2.133 0.867t0.867 2.133v0.984h0.984v3.984h-7.969v-3.984h0.984v-0.984q0-1.266 0.891-2.133t2.109-0.867zM12 15.984q-0.422 0-0.703 0.305t-0.281 0.727v0.984h1.969v-0.984q0-0.422-0.281-0.727t-0.703-0.305z"></path>
</svg>
