<!-- Generated by IcoMoon.io -->
<svg version="1.1" xmlns="http://www.w3.org/2000/svg" width="24" height="24" viewBox="0 0 24 24">
<title>file_document_edit</title>
<path d="M6 5.016q-0.844 0-1.43 0.586t-0.586 1.383v16.031q0 0.797 0.586 1.383t1.43 0.586h3.984v-1.875l2.109-2.109h-6.094v-2.016h8.109l1.969-1.969h-10.078v-2.016h12.094l1.922-1.922v-2.063l-6-6h-8.016zM12.984 6.516l5.531 5.484h-5.531v-5.484zM20.156 15.984q-0.234 0-0.422 0.188l-0.984 1.031 2.063 2.063 1.031-1.031q0.141-0.141 0.141-0.375t-0.141-0.422l-1.313-1.266q-0.141-0.188-0.375-0.188zM18.141 17.766l-6.141 6.141v2.109h2.063l6.188-6.188z"></path>
</svg>
