<!-- Generated by IcoMoon.io -->
<svg version="1.1" xmlns="http://www.w3.org/2000/svg" width="24" height="24" viewBox="0 0 24 24">
<title>file_edit_outline</title>
<path d="M9.984 23.016h-3.984v-16.031h6.984v5.016h5.016v3.094l2.016-2.016v-2.063l-6-6h-8.016q-0.844 0-1.43 0.586t-0.586 1.383v16.031q0 0.797 0.586 1.383t1.43 0.586h3.984v-1.969zM20.203 15.984q0.188 0 0.375 0.234l1.313 1.266q0.141 0.188 0.141 0.422t-0.141 0.375l-0.984 1.031-2.109-2.109 0.984-0.984q0.234-0.234 0.422-0.234zM20.203 19.922l-6.094 6.094h-2.109v-2.109l6.094-6.094z"></path>
</svg>
