<!-- Generated by IcoMoon.io -->
<svg version="1.1" xmlns="http://www.w3.org/2000/svg" width="24" height="24" viewBox="0 0 24 24">
<title>file_find</title>
<path d="M9 15.984q0 1.266 0.867 2.133t2.133 0.867 2.133-0.867 0.867-2.109-0.867-2.133-2.133-0.891-2.133 0.891-0.867 2.109zM20.016 22.594v-11.578l-6-6h-8.016q-0.844 0-1.43 0.586t-0.586 1.383v16.031q0 0.797 0.586 1.383t1.43 0.586h12q0.656 0 1.172-0.375l-4.406-4.453q-1.266 0.844-2.766 0.844-0.984 0-1.898-0.375t-1.617-1.078-1.102-1.617-0.398-1.922 0.398-1.922 1.102-1.617 1.617-1.078 1.898-0.375 1.898 0.375 1.617 1.078 1.102 1.617 0.398 1.898q0 1.5-0.844 2.766z"></path>
</svg>
