<!-- Generated by IcoMoon.io -->
<svg version="1.1" xmlns="http://www.w3.org/2000/svg" width="24" height="24" viewBox="0 0 24 24">
<title>file_pdf_outline</title>
<path d="M14.016 5.016l6 6v12q0 0.797-0.586 1.383t-1.43 0.586h-12q-0.844 0-1.43-0.586t-0.586-1.383v-16.031q0-0.797 0.586-1.383t1.43-0.586h8.016zM18 23.016v-11.016h-5.016v-5.016h-6.984v16.031h12zM10.922 15.328q-0.328-1.031-0.281-1.922 0-1.359 0.891-1.359 0.656-0.047 0.75 0.797 0.094 0.563-0.047 1.5l-0.188 0.797q0.141 0.703 0.703 1.359 0.328 0.469 0.844 0.891l0.469 0.328q0.375-0.094 1.078-0.141 0.891-0.047 1.406 0.188 0.656 0.281 0.469 0.938-0.281 0.938-1.922 0.609-0.844-0.141-1.594-0.516v0q-1.219 0.094-2.438 0.375l-0.984 0.281q-0.844 1.594-1.711 2.203t-1.289-0.047q-0.281-0.516 0.281-1.172 0.375-0.469 1.172-0.938l0.703-0.422q1.313-2.109 1.688-3.703v-0.047zM11.578 16.172q-0.422 1.266-1.219 2.672v0q0.563-0.234 1.688-0.516l1.031-0.234q-0.984-0.844-1.5-1.875v-0.047zM14.719 18.328q0.422 0.141 0.891 0.281 0.844 0.281 0.891 0.094t-0.68-0.328-1.102-0.047zM9.047 19.828q-0.328 0.141-0.68 0.492t-0.539 0.703-0.070 0.375 0.563-0.445 0.727-1.125zM11.578 14.25v-0.094q0.375-1.594 0-1.641-0.188 0-0.141 0.844 0.047 0.656 0.141 0.891z"></path>
</svg>
