<!-- Generated by IcoMoon.io -->
<svg version="1.1" xmlns="http://www.w3.org/2000/svg" width="24" height="24" viewBox="0 0 24 24">
<title>file_restore</title>
<path d="M14.016 5.016h-8.016q-0.844 0-1.43 0.586t-0.586 1.383v16.031q0 0.797 0.586 1.383t1.43 0.586h12q0.844 0 1.43-0.586t0.586-1.383v-12zM12 21q-1.5 0-2.742-0.82t-1.852-2.18h1.734q0.469 0.703 1.219 1.102t1.641 0.398q1.453 0 2.484-1.031t1.031-2.484-1.031-2.461-2.484-1.008q-0.984 0-1.805 0.516t-1.289 1.359l1.594 1.594h-3.984v-3.984l1.266 1.313q0.703-1.078 1.805-1.688t2.414-0.609q0.984 0 1.898 0.375t1.617 1.078 1.102 1.617 0.398 1.922-0.398 1.922-1.102 1.617-1.617 1.078-1.898 0.375z"></path>
</svg>
