<!-- Generated by IcoMoon.io -->
<svg version="1.1" xmlns="http://www.w3.org/2000/svg" width="24" height="24" viewBox="0 0 24 24">
<title>file_powerpoint_outline</title>
<path d="M14.016 5.016h-8.016q-0.844 0-1.43 0.586t-0.586 1.383v16.031q0 0.797 0.586 1.383t1.43 0.586h12q0.844 0 1.43-0.586t0.586-1.383v-12zM18 23.016h-12v-16.031h6.984v5.016h5.016v11.016zM15.188 13.781q-0.375-0.375-0.914-0.586t-1.477-0.211h-3.797v9h1.594v-3.281h2.203q0.938 0 1.43-0.164t0.961-0.539q0.797-0.656 0.797-2.109 0-0.703-0.164-1.172t-0.633-0.938zM13.922 17.016q-0.516 0.469-1.219 0.469h-2.109v-3.188h2.016q0.797 0 1.313 0.516 0.375 0.375 0.375 1.078t-0.375 1.125z"></path>
</svg>
