<!-- Generated by IcoMoon.io -->
<svg version="1.1" xmlns="http://www.w3.org/2000/svg" width="24" height="24" viewBox="0 0 24 24">
<title>file_pdf_box</title>
<path d="M18.984 6q0.844 0 1.43 0.586t0.586 1.43v13.969q0 0.844-0.586 1.43t-1.43 0.586h-13.969q-0.844 0-1.43-0.586t-0.586-1.43v-13.969q0-0.844 0.586-1.43t1.43-0.586h13.969zM10.594 13.078v0.047q-0.422 1.969-2.109 4.641l-0.844 0.516q-0.984 0.656-1.5 1.219-0.656 0.844-0.328 1.406t0.961 0.398 1.359-0.961 1.43-2.063l1.219-0.375q1.5-0.328 3-0.469l1.031 0.375q1.172 0.422 1.969 0.375 1.172-0.047 1.406-0.867t-0.609-1.148q-0.609-0.281-1.734-0.234-0.891 0-1.359 0.141l-0.516-0.422q-0.656-0.516-1.125-1.125-0.656-0.797-0.844-1.641l0.234-1.031q0.188-1.172 0.094-1.875-0.188-0.984-0.938-0.984-1.125 0.047-1.172 1.688 0 1.125 0.375 2.391zM11.391 14.109l0.047 0.094q0.656 1.313 1.875 2.391l-1.313 0.281q-1.453 0.328-2.109 0.609l0.563-1.078q0.656-1.266 0.938-2.297zM15.328 16.828q0.469-0.094 1.383 0.094t0.867 0.398-1.172-0.117q-0.563-0.141-1.078-0.375v0zM8.25 18.703q-0.328 0.797-0.938 1.453-0.516 0.516-0.68 0.516t0.094-0.445 0.633-0.867q0.469-0.469 0.891-0.656zM11.391 11.766q-0.094-0.422-0.141-1.125-0.094-1.078 0.141-1.031 0.469 0.047 0.047 2.063z"></path>
</svg>
