<!-- Generated by IcoMoon.io -->
<svg version="1.1" xmlns="http://www.w3.org/2000/svg" width="24" height="24" viewBox="0 0 24 24">
<title>file_table_outline</title>
<path d="M14.016 5.016h-8.016q-0.844 0-1.43 0.586t-0.586 1.383v16.031q0 0.797 0.586 1.383t1.43 0.586h12q0.844 0 1.43-0.586t0.586-1.383v-12zM18 23.016h-12v-16.031h6.984v5.016h5.016v11.016zM9.984 15.984h-3v-1.969h3v1.969zM14.016 15.984h-3v-1.969h3v1.969zM9.984 18.984h-3v-1.969h3v1.969zM14.016 18.984h-3v-1.969h3v1.969zM9.984 21.984h-3v-1.969h3v1.969zM14.016 21.984h-3v-1.969h3v1.969z"></path>
</svg>
