<!-- Generated by IcoMoon.io -->
<svg version="1.1" xmlns="http://www.w3.org/2000/svg" width="24" height="24" viewBox="0 0 24 24">
<title>file_percent_outline</title>
<path d="M14.016 5.016h-8.016q-0.844 0-1.43 0.586t-0.586 1.383v16.031q0 0.797 0.586 1.383t1.43 0.586h12q0.844 0 1.43-0.586t0.586-1.383v-12zM18 23.016h-12v-16.031h6.984v5.016h5.016v11.016zM9.984 14.484q0 0.656-0.422 1.078t-1.055 0.422-1.078-0.422-0.445-1.055 0.445-1.078 1.078-0.445 1.055 0.445 0.422 1.055zM15.984 20.484q0 0.656-0.422 1.078t-1.055 0.422-1.078-0.422-0.445-1.055 0.445-1.078 1.078-0.445 1.055 0.445 0.422 1.055zM15.984 14.344l-7.594 7.641-1.406-1.313 7.688-7.688z"></path>
</svg>
