<!-- Generated by IcoMoon.io -->
<svg version="1.1" xmlns="http://www.w3.org/2000/svg" width="24" height="24" viewBox="0 0 24 24">
<title>file_word_box_outline</title>
<path d="M5.016 6q-0.844 0-1.43 0.586t-0.586 1.43v13.969q0 0.844 0.586 1.43t1.43 0.586h13.969q0.844 0 1.43-0.586t0.586-1.43v-13.969q0-0.844-0.586-1.43t-1.43-0.586h-13.969zM5.016 8.016h13.969v13.969h-13.969v-13.969zM17.906 9.984l-2.391 10.031h-1.5l-2.016-7.5-2.016 7.5h-1.5l-2.391-10.031h1.688l1.547 7.5 1.969-7.5h1.406l1.969 7.5 1.547-7.5h1.688z"></path>
</svg>
