<!-- Generated by IcoMoon.io -->
<svg version="1.1" xmlns="http://www.w3.org/2000/svg" width="24" height="24" viewBox="0 0 24 24">
<title>file_phone_outline</title>
<path d="M14.016 5.016h-8.016q-0.844 0-1.43 0.586t-0.586 1.383v16.031q0 0.797 0.586 1.383t1.43 0.586h12q0.844 0 1.43-0.586t0.586-1.383v-12zM18 23.016h-12v-16.031h6.984v5.016h5.016v11.016zM9 16.313q1.266 2.438 3.656 3.703l1.219-1.266q0.281-0.234 0.563-0.141 1.031 0.328 2.016 0.328 0.234 0 0.398 0.164t0.164 0.398v1.969q0 0.188-0.164 0.352t-0.398 0.164q-2.578 0-4.734-1.266t-3.445-3.422-1.289-4.734q0-0.234 0.164-0.398t0.398-0.164h1.969q0.234 0 0.398 0.164t0.164 0.398q0 1.031 0.281 1.969 0.094 0.328-0.141 0.563z"></path>
</svg>
