<!-- Generated by IcoMoon.io -->
<svg version="1.1" xmlns="http://www.w3.org/2000/svg" width="24" height="24" viewBox="0 0 24 24">
<title>file_question</title>
<path d="M6 5.016q-0.844 0-1.43 0.586t-0.586 1.383v16.031q0 0.797 0.586 1.383t1.43 0.586h12q0.844 0 1.43-0.586t0.586-1.383v-12l-6-6h-8.016zM12.984 6.516l5.531 5.484h-5.531v-5.484zM12 14.016q1.266 0 2.133 0.867t0.867 2.133q0 0.609-0.375 1.172-0.234 0.281-0.797 0.773t-0.75 0.773q-0.328 0.469-0.328 1.031h-1.5q0-0.938 0.422-1.547 0.281-0.375 0.891-0.844 0.469-0.375 0.656-0.563 0.281-0.375 0.281-0.797 0-0.656-0.445-1.078t-1.055-0.422-1.055 0.422-0.445 1.078h-1.5q0-1.266 0.867-2.133t2.133-0.867zM11.25 21.516h1.5v1.5h-1.5v-1.5z"></path>
</svg>
