<!-- Generated by IcoMoon.io -->
<svg version="1.1" xmlns="http://www.w3.org/2000/svg" width="24" height="24" viewBox="0 0 24 24">
<title>file_search</title>
<path d="M14.016 5.016h-8.016q-0.844 0-1.43 0.586t-0.586 1.383v16.031q0 0.797 0.586 1.383t1.43 0.586h6.984q-0.609-0.375-1.125-0.891-1.313-1.172-1.805-2.836t-0.117-3.352 1.547-3q1.641-1.781 4.078-2.039t4.453 1.148v-3zM12.984 12v-5.484l5.531 5.484h-5.531zM20.297 21.891q1.031-1.594 0.609-3.398t-1.992-2.813-3.398-0.586-2.836 1.992-0.586 3.398 2.016 2.813q1.078 0.703 2.367 0.703t2.414-0.703l3.094 3.094 1.406-1.406zM16.5 21.984q-1.031 0-1.758-0.727t-0.727-1.758 0.727-1.758 1.758-0.727 1.758 0.727 0.727 1.758-0.727 1.758-1.758 0.727z"></path>
</svg>
