<!-- Generated by IcoMoon.io -->
<svg version="1.1" xmlns="http://www.w3.org/2000/svg" width="24" height="24" viewBox="0 0 24 24">
<title>file_percent</title>
<path d="M14.016 5.016l6 6v12q0 0.797-0.586 1.383t-1.43 0.586h-12q-0.844 0-1.43-0.586t-0.586-1.383v-16.031q0-0.797 0.586-1.383t1.43-0.586h8.016zM7.359 23.016l7.641-7.688-1.359-1.313-7.641 7.641zM12.984 12h5.531l-5.531-5.484v5.484zM7.5 14.016q-0.609 0-1.055 0.422t-0.445 1.055 0.445 1.078 1.055 0.445 1.055-0.445 0.445-1.078-0.445-1.055-1.055-0.422zM13.5 20.016q-0.609 0-1.055 0.422t-0.445 1.055 0.445 1.078 1.055 0.445 1.055-0.445 0.445-1.078-0.445-1.055-1.055-0.422z"></path>
</svg>
