<!-- Generated by IcoMoon.io -->
<svg version="1.1" xmlns="http://www.w3.org/2000/svg" width="24" height="24" viewBox="0 0 24 24">
<title>file_cloud_outline</title>
<path d="M14.016 5.016h-8.016q-0.844 0-1.43 0.586t-0.586 1.383v16.031q0 0.797 0.586 1.383t1.43 0.586h12q0.844 0 1.43-0.586t0.586-1.383v-12zM18 23.016h-12v-16.031h6.984v5.016h5.016v11.016zM17.016 19.922q0 0.844-0.609 1.453t-1.5 0.609h-5.391q-1.031 0-1.781-0.727t-0.75-1.711 0.656-1.711 1.594-0.82q0.375-0.797 1.125-1.242t1.641-0.445q1.125 0 1.992 0.727t1.055 1.758q0.844 0.094 1.406 0.703t0.563 1.406z"></path>
</svg>
