<!-- Generated by IcoMoon.io -->
<svg version="1.1" xmlns="http://www.w3.org/2000/svg" width="24" height="24" viewBox="0 0 24 24">
<title>file_lock_outline</title>
<path d="M14.016 5.016h-8.016q-0.844 0-1.43 0.586t-0.586 1.383v16.031q0 0.797 0.586 1.383t1.43 0.586h12q0.844 0 1.43-0.586t0.586-1.383v-12zM18 23.016h-12v-16.031h6.984v5.016h5.016v11.016zM15 18v-0.984q0-1.266-0.867-2.133t-2.109-0.867-2.133 0.867-0.891 2.133v0.984h-0.984v3.984h7.969v-3.984h-0.984zM12.984 18h-1.969v-0.984q0-0.422 0.281-0.727t0.703-0.305 0.703 0.305 0.281 0.727v0.984z"></path>
</svg>
