<!-- Generated by IcoMoon.io -->
<svg version="1.1" xmlns="http://www.w3.org/2000/svg" width="24" height="24" viewBox="0 0 24 24">
<title>file_powerpoint</title>
<path d="M12.609 15.281h-2.016v3.234h2.109q0.703 0 1.219-0.516 0.375-0.422 0.375-1.102t-0.375-1.102q-0.516-0.516-1.313-0.516zM14.016 5.016h-8.016q-0.844 0-1.43 0.586t-0.586 1.383v16.031q0 0.797 0.586 1.383t1.43 0.586h12q0.844 0 1.43-0.586t0.586-1.383v-12zM15.188 18.984q-0.469 0.422-0.961 0.563t-1.43 0.141h-2.203v3.328h-1.594v-9h3.797q0.938 0 1.477 0.188t0.961 0.609 0.586 0.914 0.164 1.195q0 1.406-0.797 2.063zM12.984 12v-5.484l5.531 5.484h-5.531z"></path>
</svg>
