<!-- Generated by IcoMoon.io -->
<svg version="1.1" xmlns="http://www.w3.org/2000/svg" width="24" height="24" viewBox="0 0 24 24">
<title>file_cloud</title>
<path d="M12.984 12h5.531l-5.531-5.484v5.484zM6 5.016h8.016l6 6v12q0 0.797-0.586 1.383t-1.43 0.586h-12q-0.844 0-1.43-0.586t-0.586-1.383v-16.031q0-0.797 0.586-1.383t1.43-0.586zM15.703 18q-0.281-1.266-1.313-2.133t-2.391-0.867q-1.078 0-1.969 0.539t-1.359 1.477q-1.125 0.141-1.898 0.984t-0.773 2.039 0.867 2.086 2.133 0.891h6.516q1.031 0 1.758-0.75t0.727-1.758-0.68-1.711-1.617-0.797z"></path>
</svg>
