<!-- Generated by IcoMoon.io -->
<svg version="1.1" xmlns="http://www.w3.org/2000/svg" width="24" height="24" viewBox="0 0 24 24">
<title>file_image_outline</title>
<path d="M14.016 5.016l6 6v12q0 0.797-0.586 1.383t-1.43 0.586h-12q-0.844 0-1.43-0.586t-0.586-1.383v-16.031q0-0.797 0.586-1.383t1.43-0.586h8.016zM18 23.016v-11.016h-5.016v-5.016h-6.984v16.031h12zM17.016 15.984v6h-10.031l5.016-4.969 2.016 1.969zM9.984 13.5q0 0.609-0.422 1.055t-1.055 0.445-1.078-0.445-0.445-1.055 0.445-1.055 1.078-0.445 1.055 0.445 0.422 1.055z"></path>
</svg>
