<!-- Generated by IcoMoon.io -->
<svg version="1.1" xmlns="http://www.w3.org/2000/svg" width="24" height="24" viewBox="0 0 24 24">
<title>file_compare</title>
<path d="M9.984 21h-3.984v-2.016h3.984v2.016zM9.984 17.016h-3.984v-2.016h3.984v2.016zM9.984 3.984v1.031h-3.984q-0.844 0-1.43 0.586t-0.586 1.383v16.031q0 0.797 0.586 1.383t1.43 0.586h3.984v1.031h2.016v-22.031h-2.016zM20.016 11.016v12q0 0.797-0.586 1.383t-1.43 0.586h-3.984v-1.969h3.984v-9h-3.984v-2.016h4.5l-4.5-4.5v-2.484zM15.984 17.016h-1.969v-2.016h1.969v2.016zM15.984 21h-1.969v-2.016h1.969v2.016z"></path>
</svg>
