<!-- Generated by IcoMoon.io -->
<svg version="1.1" xmlns="http://www.w3.org/2000/svg" width="24" height="24" viewBox="0 0 24 24">
<title>file_eye_outline</title>
<path d="M17.016 21q0.422 0 0.703 0.281t0.281 0.703-0.281 0.727-0.703 0.305-0.727-0.305-0.305-0.727 0.305-0.703 0.727-0.281zM17.016 18q-2.016 0-3.656 1.102t-2.344 2.883q0.703 1.781 2.344 2.906t3.656 1.125 3.633-1.125 2.367-2.906q-0.75-1.781-2.367-2.883t-3.633-1.102zM17.016 24.516q-1.031 0-1.781-0.75t-0.75-1.781 0.75-1.758 1.781-0.727 1.758 0.727 0.727 1.758-0.727 1.781-1.758 0.75zM9.281 23.016h-3.281v-16.031h6.984v5.016h5.016v4.078q0.984 0.094 2.016 0.469v-5.531l-6-6h-8.016q-0.844 0-1.43 0.586t-0.586 1.383v16.031q0 0.797 0.586 1.383t1.43 0.586h4.5q-0.75-0.844-1.219-1.969z"></path>
</svg>
