<!-- Generated by IcoMoon.io -->
<svg version="1.1" xmlns="http://www.w3.org/2000/svg" width="24" height="24" viewBox="0 0 24 24">
<title>file_table</title>
<path d="M14.016 5.016h-8.016q-0.844 0-1.43 0.586t-0.586 1.383v16.031q0 0.797 0.586 1.383t1.43 0.586h12q0.844 0 1.43-0.586t0.586-1.383v-12zM9.984 21.984h-3v-1.969h3v1.969zM9.984 18.984h-3v-1.969h3v1.969zM9.984 15.984h-3v-1.969h3v1.969zM14.016 21.984h-3v-1.969h3v1.969zM14.016 18.984h-3v-1.969h3v1.969zM14.016 15.984h-3v-1.969h3v1.969zM12.984 12v-5.484l5.531 5.484h-5.531z"></path>
</svg>
