<!-- Generated by IcoMoon.io -->
<svg version="1.1" xmlns="http://www.w3.org/2000/svg" width="24" height="24" viewBox="0 0 24 24">
<title>file_undo</title>
<path d="M12.984 12h5.531l-5.531-5.484v5.484zM6 5.016h8.016l6 6v12q0 0.797-0.586 1.383t-1.43 0.586h-12q-0.844 0-1.43-0.586t-0.586-1.383v-16.031q0-0.797 0.586-1.383t1.43-0.586zM12.141 17.297q-2.297 0-4.031 1.547l-2.109-2.109v5.25h5.297l-2.156-2.109q1.313-1.078 3-1.078 1.547 0 2.766 0.891t1.688 2.297l1.406-0.422q-0.609-1.875-2.227-3.070t-3.633-1.195z"></path>
</svg>
