<!-- Generated by IcoMoon.io -->
<svg version="1.1" xmlns="http://www.w3.org/2000/svg" width="24" height="24" viewBox="0 0 24 24">
<title>file_link</title>
<path d="M14.016 5.016h-8.016q-0.844 0-1.43 0.586t-0.586 1.383v16.031q0 0.797 0.586 1.383t1.43 0.586h12q0.844 0 1.43-0.586t0.586-1.383v-12zM11.016 23.016h-1.031q-1.453 0-2.578-0.891-1.406-1.125-1.406-3.117t1.406-3.117q1.125-0.891 2.578-0.891h1.031v2.016h-1.031q-0.656 0-1.172 0.281-0.797 0.516-0.797 1.711t0.844 1.711q0.516 0.281 1.125 0.281h1.031v2.016zM15 18v2.016h-6v-2.016h6zM14.016 23.016h-1.031v-2.016h1.031q0.656 0 1.172-0.328 0.797-0.516 0.797-1.711t-0.844-1.664q-0.516-0.281-1.125-0.281h-1.031v-2.016h1.031q1.453 0 2.578 0.891 1.406 1.125 1.406 3.117t-1.406 3.117q-1.125 0.891-2.578 0.891zM12.984 12v-5.484l5.531 5.484h-5.531z"></path>
</svg>
