<!-- Generated by IcoMoon.io -->
<svg version="1.1" xmlns="http://www.w3.org/2000/svg" width="24" height="24" viewBox="0 0 24 24">
<title>file_find_outline</title>
<path d="M14.016 5.016h-8.016q-0.844 0-1.43 0.586t-0.586 1.383v16.031q0 0.797 0.586 1.383t1.43 0.586h12q0.844 0 1.43-0.586t0.586-1.383v-12zM6 6.984h6.984l5.016 5.016v8.578l-1.828-1.828q0.938-1.5 0.773-3.258t-1.43-3.023q-0.703-0.703-1.617-1.078t-1.898-0.375q-2.063 0-3.516 1.453-0.984 0.938-1.313 2.227t0 2.578 1.313 2.227q1.406 1.453 3.516 1.453 1.5 0 2.766-0.797l2.813 2.859h-11.578v-16.031zM14.109 18.094q-0.891 0.891-2.109 0.891t-2.109-0.891-0.891-2.109 0.867-2.109 2.133-0.891 2.133 0.891 0.867 2.109-0.891 2.109z"></path>
</svg>
