<!-- Generated by IcoMoon.io -->
<svg version="1.1" xmlns="http://www.w3.org/2000/svg" width="24" height="24" viewBox="0 0 24 24">
<title>file_hidden</title>
<path d="M12.984 12h1.031v2.016h-3v-4.031h1.969v2.016zM18.516 12l-2.156-2.109 1.266-1.266 2.391 2.391v1.969h-2.016v1.031h-3v-2.016h3.516zM12.984 6.516v-1.5h-0.984v1.969h0.984v2.016h-1.969v-2.016h-2.016v-1.969h-0.984v1.969h-2.016v1.031h-2.016v-1.031q0-0.797 0.586-1.383t1.43-0.586h8.016l2.344 2.344-1.266 1.266zM20.016 23.016q0 0.797-0.586 1.383t-1.43 0.586h-2.016v-1.969h2.016v-1.031h2.016v1.031zM18 18h2.016v3h-2.016v-3zM12 24.984v-1.969h3v1.969h-3zM8.016 24.984v-1.969h3v1.969h-3zM6 24.984q-0.844 0-1.43-0.586t-0.586-1.383v-2.016h2.016v2.016h0.984v1.969h-0.984zM3.984 17.016h2.016v3h-2.016v-3zM3.984 12.984h2.016v3h-2.016v-3zM18 14.016h2.016v3h-2.016v-3zM3.984 9h2.016v3h-2.016v-3z"></path>
</svg>
