<!-- Generated by IcoMoon.io -->
<svg version="1.1" xmlns="http://www.w3.org/2000/svg" width="24" height="24" viewBox="0 0 24 24">
<title>file_phone</title>
<path d="M14.016 5.016h-8.016q-0.844 0-1.43 0.586t-0.586 1.383v16.031q0 0.797 0.586 1.383t1.43 0.586h12q0.844 0 1.43-0.586t0.586-1.383v-12zM17.016 22.453q0 0.234-0.164 0.398t-0.398 0.164q-2.578 0-4.734-1.289t-3.445-3.445-1.289-4.734q0-0.234 0.164-0.398t0.398-0.164h1.969q0.234 0 0.398 0.164t0.164 0.398q0 1.031 0.281 2.016 0.094 0.281-0.141 0.563l-1.219 1.219q1.266 2.391 3.656 3.656l1.266-1.219q0.188-0.234 0.516-0.141 1.031 0.328 2.016 0.328 0.234 0 0.398 0.141t0.164 0.375v1.969zM12.984 12v-5.484l5.531 5.484h-5.531z"></path>
</svg>
