<!-- Generated by IcoMoon.io -->
<svg version="1.1" xmlns="http://www.w3.org/2000/svg" width="24" height="24" viewBox="0 0 24 24">
<title>file_delimited_outline</title>
<path d="M14.016 5.016l6 6v12q0 0.797-0.586 1.383t-1.43 0.586h-12q-0.844 0-1.43-0.586t-0.586-1.383v-16.031q0-0.797 0.586-1.383t1.43-0.586h8.016zM18 23.016v-11.016h-5.016v-5.016h-6.984v16.031h12zM14.016 12.984v4.031q0 0.563-0.375 1.5-0.375 1.125-1.031 2.016-0.75 1.125-1.781 1.688l-1.125-0.844q1.734-1.031 2.273-1.945t0.305-2.414h-2.297v-4.031h4.031z"></path>
</svg>
