<!-- Generated by IcoMoon.io -->
<svg version="1.1" xmlns="http://www.w3.org/2000/svg" width="24" height="24" viewBox="0 0 24 24">
<title>file_restore_outline</title>
<path d="M14.016 5.016h-8.016q-0.844 0-1.43 0.586t-0.586 1.383v16.031q0 0.797 0.586 1.383t1.43 0.586h12q0.844 0 1.43-0.586t0.586-1.383v-12zM18 23.016h-12v-16.031h6.984l5.016 5.016v11.016zM17.016 16.219q0 1.969-1.406 3.375t-3.375 1.406q-1.453 0-2.625-0.797t-1.734-2.063h1.641q0.469 0.656 1.172 1.031t1.547 0.375q1.406 0 2.367-0.961t0.961-2.344-0.961-2.367-2.367-0.984q-0.938 0-1.711 0.492t-1.242 1.336l1.547 1.5h-3.844v-3.797l1.266 1.266q0.656-1.031 1.688-1.617t2.297-0.586q1.969 0 3.375 1.383t1.406 3.352z"></path>
</svg>
