<!-- Generated by IcoMoon.io -->
<svg version="1.1" xmlns="http://www.w3.org/2000/svg" width="24" height="24" viewBox="0 0 24 24">
<title>file_powerpoint_box_outline</title>
<path d="M5.016 6q-0.844 0-1.43 0.586t-0.586 1.43v13.969q0 0.844 0.586 1.43t1.43 0.586h13.969q0.844 0 1.43-0.586t0.586-1.43v-13.969q0-0.844-0.586-1.43t-1.43-0.586h-13.969zM5.016 8.016h13.969v13.969h-13.969v-13.969zM15.094 10.875q-0.516-0.469-1.102-0.68t-1.711-0.211h-4.266v10.031h1.781v-3.609h2.484q1.078 0 1.688-0.188t1.125-0.656q0.891-0.75 0.891-2.297t-0.891-2.391zM13.594 14.484q-0.516 0.516-1.359 0.516h-2.438v-3.609h2.297q0.938 0 1.477 0.563t0.539 1.313-0.516 1.219z"></path>
</svg>
