<!-- Generated by IcoMoon.io -->
<svg version="1.1" xmlns="http://www.w3.org/2000/svg" width="24" height="24" viewBox="0 0 24 24">
<title>file_powerpoint_box</title>
<path d="M9.797 16.406h2.484q1.078 0 1.688-0.188t1.125-0.656q0.891-0.75 0.891-2.297t-0.891-2.391q-0.516-0.469-1.102-0.68t-1.711-0.211h-4.266v10.031h1.781v-3.609zM18.984 6q0.844 0 1.43 0.586t0.586 1.43v13.969q0 0.844-0.586 1.43t-1.43 0.586h-13.969q-0.844 0-1.43-0.586t-0.586-1.43v-13.969q0-0.844 0.586-1.43t1.43-0.586h13.969zM9.797 15v-3.609h2.297q0.938 0 1.477 0.563t0.539 1.313-0.516 1.242-1.359 0.492h-2.438z"></path>
</svg>
