<!-- Generated by IcoMoon.io -->
<svg version="1.1" xmlns="http://www.w3.org/2000/svg" width="24" height="24" viewBox="0 0 24 24">
<title>file_table_box_outline</title>
<path d="M18.984 6h-13.969q-0.844 0-1.43 0.586t-0.586 1.43v13.969q0 0.844 0.586 1.43t1.43 0.586h13.969q0.844 0 1.43-0.586t0.586-1.43v-13.969q0-0.844-0.586-1.43t-1.43-0.586zM18.984 21.984h-13.969v-13.969h13.969v13.969zM9 21h-3v-2.016h3v2.016zM12.984 21h-3v-2.016h3v2.016zM9 18h-3v-2.016h3v2.016zM12.984 18h-3v-2.016h3v2.016zM9 15h-3v-2.016h3v2.016zM12.984 15h-3v-2.016h3v2.016z"></path>
</svg>
