<!-- Generated by IcoMoon.io -->
<svg version="1.1" xmlns="http://www.w3.org/2000/svg" width="24" height="24" viewBox="0 0 24 24">
<title>file_undo_outline</title>
<path d="M14.016 5.016h-8.016q-0.844 0-1.43 0.586t-0.586 1.383v16.031q0 0.797 0.586 1.383t1.43 0.586h12q0.844 0 1.43-0.586t0.586-1.383v-12zM18 23.016h-12v-16.031h6.984v5.016h5.016v11.016zM17.016 20.625l-1.172 0.375q-0.375-1.172-1.406-1.922t-2.297-0.75q-1.406 0-2.531 0.891l1.781 1.781h-4.406v-4.406l1.781 1.781q1.453-1.266 3.375-1.266 1.688 0 3.023 0.984t1.852 2.531z"></path>
</svg>
