<!-- Generated by IcoMoon.io -->
<svg version="1.1" xmlns="http://www.w3.org/2000/svg" width="24" height="24" viewBox="0 0 24 24">
<title>file_pdf</title>
<path d="M12.984 12h5.531l-5.531-5.484v5.484zM6 5.016h8.016l6 6v12q0 0.797-0.586 1.383t-1.43 0.586h-12q-0.844 0-1.43-0.586t-0.586-1.383v-16.031q0-0.797 0.586-1.383t1.43-0.586zM10.078 14.391v0.047q-0.422 1.969-2.063 4.641l-0.891 0.516q-0.984 0.656-1.453 1.266-0.703 0.797-0.352 1.359t0.961 0.422 1.359-0.961 1.406-2.086l1.219-0.328q1.547-0.375 3.047-0.516l1.031 0.422q1.172 0.375 1.969 0.328 1.172 0 1.406-0.844t-0.609-1.172q-0.609-0.281-1.734-0.234-0.891 0-1.359 0.141l-0.563-0.422q-0.609-0.516-1.078-1.125-0.656-0.797-0.891-1.641l0.234-1.031q0.234-1.172 0.094-1.875-0.141-1.031-0.938-0.984-1.125 0-1.172 1.688 0 1.125 0.375 2.391zM10.922 15.422l0.047 0.094q0.609 1.313 1.828 2.391l-1.313 0.281q-1.406 0.328-2.063 0.609l0.563-1.078q0.609-1.266 0.938-2.297zM14.859 18.141q0.422-0.094 1.359 0.094t0.891 0.398-1.172-0.117q-0.563-0.141-1.078-0.375v0zM7.781 20.016q-0.375 0.797-0.938 1.453-0.516 0.516-0.68 0.516t0.070-0.422 0.609-0.844q0.469-0.516 0.938-0.703zM10.922 13.078l-0.047-0.141q-0.281-2.063 0.047-2.016 0.469 0.047 0 2.016v0.141z"></path>
</svg>
