<!-- Generated by IcoMoon.io -->
<svg version="1.1" xmlns="http://www.w3.org/2000/svg" width="24" height="24" viewBox="0 0 24 24">
<title>file_document_box_plus_outline</title>
<path d="M17.016 17.016h1.969v3h3v1.969h-3v3h-1.969v-3h-3v-1.969h3v-3zM5.016 6h13.969q0.844 0 1.43 0.586t0.586 1.43v7.781q-0.938-0.563-2.016-0.703v-7.078h-13.969v13.969h7.078q0.141 1.078 0.703 2.016h-7.781q-0.844 0-1.43-0.586t-0.586-1.43v-13.969q0-0.844 0.586-1.43t1.43-0.586zM6.984 9.984h10.031v2.016h-10.031v-2.016zM6.984 14.016h10.031v1.078q-1.266 0.188-2.344 0.891h-7.688v-1.969zM6.984 18h5.016v2.016h-5.016v-2.016z"></path>
</svg>
