<!-- Generated by IcoMoon.io -->
<svg version="1.1" xmlns="http://www.w3.org/2000/svg" width="24" height="24" viewBox="0 0 24 24">
<title>file_replace</title>
<path d="M14.016 15h5.484l-5.484-5.484v5.484zM8.016 8.016h6.984l6 6v9.984q0 0.844-0.586 1.43t-1.43 0.586h-10.969q-0.844 0-1.43-0.586t-0.586-1.43v-3h5.016v2.016l3.984-3-3.984-3v1.969h-5.016v-9q0-0.797 0.586-1.383t1.43-0.586zM13.5 6h-9.516v12.984h2.016v2.016h-2.016q-0.797 0-1.383-0.586t-0.586-1.43v-12.984q0-0.844 0.586-1.43t1.383-0.586h7.5z"></path>
</svg>
