<!-- Generated by IcoMoon.io -->
<svg version="1.1" xmlns="http://www.w3.org/2000/svg" width="24" height="24" viewBox="0 0 24 24">
<title>file_delimited</title>
<path d="M12.984 12h5.531l-5.531-5.484v5.484zM6 5.016h8.016l6 6v12q0 0.797-0.586 1.383t-1.43 0.586h-12q-0.844 0-1.43-0.586t-0.586-1.383v-16.031q0-0.797 0.586-1.383t1.43-0.586zM14.016 18v-3.984h-4.031v3.984h2.297q0.234 1.5-0.305 2.414t-2.273 1.945l1.125 0.844q1.031-0.563 1.781-1.641 0.656-0.938 1.031-2.016 0.375-0.984 0.375-1.547z"></path>
</svg>
