<!-- Generated by IcoMoon.io -->
<svg version="1.1" xmlns="http://www.w3.org/2000/svg" width="24" height="24" viewBox="0 0 24 24">
<title>file_pdf_box_outline</title>
<path d="M18.984 6h-13.969q-0.844 0-1.43 0.586t-0.586 1.43v13.969q0 0.844 0.586 1.43t1.43 0.586h13.969q0.844 0 1.43-0.586t0.586-1.43v-13.969q0-0.844-0.586-1.43t-1.43-0.586zM18.984 8.016v13.969h-13.969v-13.969h13.969zM17.906 16.5q-0.422-0.703-2.203-0.703-0.797 0-1.219 0.094-0.563-0.375-0.797-0.609-0.469-0.375-0.867-1.031t-0.633-1.453v-0.094q0.328-1.266 0.328-1.969 0.094-1.078-0.328-1.547l-0.188-0.047q-0.375-0.141-0.516-0.141h-0.188q-0.281 0-0.492 0.211t-0.305 0.492q-0.234 0.75-0.188 1.453 0.047 0.422 0.281 1.266l0.094 0.469q-0.141 0.75-0.797 2.297l-0.188 0.516-0.984 1.781-0.328 0.141q-0.422 0.234-0.609 0.375-0.75 0.516-1.219 1.055t-0.563 0.961v0.469l0.516 0.328q0.141 0.141 0.234 0.164t0.234 0.023q1.219 0 2.906-3h0.094q1.359-0.375 3.938-0.703 0.656 0.328 1.547 0.563 0.75 0.141 1.336 0.141t0.891-0.305 0.305-0.586q0-0.516-0.094-0.609zM6.797 20.297q0-0.563 1.219-1.594 0.094-0.094 0.469-0.281v0q-1.078 1.734-1.688 1.875zM11.297 9.703q0-0.047 0.023-0.070t0.070-0.023h0.094q0.141 0.141 0.164 0.375t-0.070 0.703v0.234q-0.047 0.094-0.094 0.375l-0.094 0.422q-0.422-1.359-0.094-2.016zM10.078 17.297h-0.094q0.094-0.188 0.328-0.609l0.188-0.375q0.797-1.594 0.984-2.297 0.609 1.313 1.5 2.063l0.422 0.328q-1.547 0.188-3.328 0.891zM17.297 17.203h-0.188q-0.656 0-1.828-0.516 0.094-0.047 0.141-0.094h0.094q1.5 0 1.781 0.328l0.094 0.094v0.141q0 0.047-0.094 0.047z"></path>
</svg>
