<!-- Generated by IcoMoon.io -->
<svg version="1.1" xmlns="http://www.w3.org/2000/svg" width="24" height="24" viewBox="0 0 24 24">
<title>file_question_outline</title>
<path d="M14.016 5.016h-8.016q-0.844 0-1.43 0.586t-0.586 1.383v16.031q0 0.797 0.586 1.383t1.43 0.586h12q0.844 0 1.43-0.586t0.586-1.383v-12zM18 23.016h-12v-16.031h6.984v5.016h5.016v11.016zM15 15.984q0 0.656-0.375 1.172-0.234 0.328-0.797 0.82t-0.75 0.773q-0.328 0.469-0.328 1.031h-1.5q0-0.938 0.422-1.547 0.281-0.375 0.891-0.844 0.469-0.375 0.656-0.609 0.281-0.328 0.281-0.797 0-0.609-0.445-1.055t-1.055-0.445-1.055 0.445-0.445 1.055h-1.5q0-1.219 0.867-2.109t2.133-0.891 2.133 0.891 0.867 2.109zM12.75 20.484v1.5h-1.5v-1.5h1.5z"></path>
</svg>
