<!-- Generated by IcoMoon.io -->
<svg version="1.1" xmlns="http://www.w3.org/2000/svg" width="24" height="24" viewBox="0 0 24 24">
<title>file_search_outline</title>
<path d="M14.016 5.016h-8.016q-0.844 0-1.43 0.586t-0.586 1.383v16.031q0 0.797 0.586 1.383t1.43 0.586h6.984q-0.609-0.375-1.102-0.867t-0.867-1.102h-5.016v-16.031h6.984v5.016h5.016v1.172q1.125 0.234 2.016 0.844v-3zM20.297 21.891q1.031-1.594 0.609-3.398t-1.992-2.813-3.398-0.586-2.836 1.992-0.586 3.398 2.016 2.813q1.078 0.703 2.367 0.703t2.414-0.703l3.094 3.094 1.406-1.406zM16.5 21.984q-1.031 0-1.758-0.727t-0.727-1.758 0.727-1.758 1.758-0.727 1.758 0.727 0.727 1.758-0.727 1.758-1.758 0.727z"></path>
</svg>
