<!-- Generated by IcoMoon.io -->
<svg version="1.1" xmlns="http://www.w3.org/2000/svg" width="24" height="24" viewBox="0 0 24 24">
<title>file_document_box_search_outline</title>
<path d="M15.516 15q1.875 0 3.188 1.313t1.313 3.188q0 1.313-0.703 2.391l3.094 3.094-1.406 1.406-3.141-3.094q-1.078 0.703-2.344 0.703-1.875 0-3.188-1.313t-1.313-3.188 1.313-3.188 3.188-1.313zM15.516 17.016q-1.031 0-1.781 0.727t-0.75 1.758 0.75 1.758 1.781 0.727 1.758-0.727 0.727-1.758-0.727-1.758-1.758-0.727zM5.016 6h13.969q0.844 0 1.43 0.586t0.586 1.43v8.016q-0.75-1.219-2.016-2.016v-6h-13.969v13.969h4.5q0.422 1.125 1.313 2.016h-5.813q-0.844 0-1.43-0.586t-0.586-1.43v-13.969q0-0.844 0.586-1.43t1.43-0.586zM6.984 9.984h10.031v2.016h-10.031v-2.016zM6.984 14.016h5.063q-1.219 0.75-2.063 1.969h-3v-1.969zM6.984 18h2.203q-0.188 0.75-0.188 1.5v0.516h-2.016v-2.016z"></path>
</svg>
