<!-- Generated by IcoMoon.io -->
<svg version="1.1" xmlns="http://www.w3.org/2000/svg" width="24" height="24" viewBox="0 0 24 24">
<title>file_document_box_multiple_outline</title>
<path d="M15.984 18h-6.984v-2.016h6.984v2.016zM18.984 14.016h-9.984v-2.016h9.984v2.016zM18.984 9.984h-9.984v-1.969h9.984v1.969zM3 8.016v15.984h15.984v2.016h-15.984q-0.844 0-1.43-0.586t-0.586-1.43v-15.984h2.016zM21 3.984q0.844 0 1.43 0.586t0.586 1.43v14.016q0 0.797-0.586 1.383t-1.43 0.586h-14.016q-0.797 0-1.383-0.586t-0.586-1.383v-14.016q0-0.844 0.586-1.43t1.383-0.586h14.016zM6.984 6v14.016h14.016v-14.016h-14.016z"></path>
</svg>
