<!-- Generated by IcoMoon.io -->
<svg version="1.1" xmlns="http://www.w3.org/2000/svg" width="24" height="24" viewBox="0 0 24 24">
<title>file_link_outline</title>
<path d="M14.016 5.016h-8.016q-0.844 0-1.43 0.586t-0.586 1.383v16.031q0 0.797 0.586 1.383t1.43 0.586h12q0.844 0 1.43-0.586t0.586-1.383v-12zM18 23.016h-12v-16.031h6.984v5.016h5.016v11.016zM11.016 21.984h-0.281q-1.313 0-2.344-0.75-1.406-1.031-1.406-3t1.406-2.953q1.031-0.797 2.344-0.797h0.281v1.5h-0.281q-0.656 0-1.266 0.328-0.984 0.563-0.984 1.945t1.031 1.945q0.563 0.281 1.219 0.281h0.281v1.5zM14.016 18.984h-4.031v-1.5h4.031v1.5zM12.984 14.484h0.281q1.313 0 2.344 0.797 1.406 0.984 1.406 2.953t-1.406 3q-1.031 0.75-2.344 0.75h-0.281v-1.5h0.281q0.656 0 1.266-0.328 0.984-0.563 0.984-1.922t-1.031-1.922q-0.563-0.328-1.219-0.328h-0.281v-1.5z"></path>
</svg>
