<!-- Generated by IcoMoon.io -->
<svg version="1.1" xmlns="http://www.w3.org/2000/svg" width="24" height="24" viewBox="0 0 24 24">
<title>file_replace_outline</title>
<path d="M14.016 6l-2.016-2.016h-8.016q-0.797 0-1.383 0.586t-0.586 1.43v12q0 0.844 0.586 1.43t1.383 0.586h7.031v1.969l3.984-3-3.984-3v2.016h-7.031v-12h10.031zM21 12.984v11.016q0 0.844-0.586 1.43t-1.43 0.586h-10.969q-0.844 0-1.43-0.586t-0.586-1.43v-2.016h2.016v2.016h10.969v-9h-4.969v-5.016h-6v6h-2.016v-6q0-0.797 0.586-1.383t1.43-0.586h7.969z"></path>
</svg>
