<!-- Generated by IcoMoon.io -->
<svg version="1.1" xmlns="http://www.w3.org/2000/svg" width="24" height="24" viewBox="0 0 24 24">
<title>file_key</title>
<path d="M11.016 18.984q0 0.422-0.305 0.727t-0.727 0.305-0.703-0.305-0.281-0.727 0.281-0.703 0.703-0.281 0.727 0.281 0.305 0.703zM20.016 11.016v12q0 0.797-0.586 1.383t-1.43 0.586h-12q-0.844 0-1.43-0.586t-0.586-1.383v-16.031q0-0.797 0.586-1.383t1.43-0.586h8.016zM17.016 18h-4.172q-0.375-1.031-1.313-1.594t-2.016-0.375-1.805 1.031-0.727 1.945 0.727 1.922 1.805 1.008 2.016-0.352 1.313-1.57h1.172v1.969h1.969v-1.969h1.031v-2.016zM18.516 12l-5.531-5.484v5.484h5.531z"></path>
</svg>
