<!-- Generated by IcoMoon.io -->
<svg version="1.1" xmlns="http://www.w3.org/2000/svg" width="24" height="24" viewBox="0 0 24 24">
<title>file_document_box_check_outline</title>
<path d="M17.016 24l-2.766-3 1.172-1.172 1.594 1.594 3.563-3.563 1.172 1.406zM12.797 24h-7.781q-0.844 0-1.43-0.586t-0.586-1.43v-13.969q0-0.844 0.586-1.43t1.43-0.586h13.969q0.844 0 1.43 0.586t0.586 1.43v7.781q-0.938-0.563-2.016-0.703v-7.078h-13.969v13.969h7.078q0.141 1.078 0.703 2.016zM12 20.016h-5.016v-2.016h5.016v2.016zM14.672 15.984h-7.688v-1.969h10.031v1.078q-1.266 0.188-2.344 0.891zM17.016 12h-10.031v-2.016h10.031v2.016z"></path>
</svg>
