<!-- Generated by IcoMoon.io -->
<svg version="1.1" xmlns="http://www.w3.org/2000/svg" width="24" height="24" viewBox="0 0 24 24">
<title>file_document_box_check</title>
<path d="M17.016 24l-2.766-3 1.172-1.172 1.594 1.594 3.563-3.563 1.172 1.406zM12.797 24h-7.781q-0.844 0-1.43-0.586t-0.586-1.43v-13.969q0-0.844 0.586-1.43t1.43-0.586h13.969q0.844 0 1.43 0.586t0.586 1.43v7.781q-1.359-0.797-3-0.797l-0.984 0.094v-1.078h-10.031v1.969h7.688q-1.219 0.844-1.945 2.156t-0.727 2.906 0.797 2.953zM12 18h-5.016v2.016h5.016v-2.016zM17.016 9.984h-10.031v2.016h10.031v-2.016z"></path>
</svg>
