<!-- Generated by IcoMoon.io -->
<svg version="1.1" xmlns="http://www.w3.org/2000/svg" width="24" height="24" viewBox="0 0 24 24">
<title>file_key_outline</title>
<path d="M14.016 5.016h-8.016q-0.844 0-1.43 0.586t-0.586 1.383v16.031q0 0.797 0.586 1.383t1.43 0.586h12q0.844 0 1.43-0.586t0.586-1.383v-12zM18 23.016h-12v-16.031h6.984v5.016h5.016v11.016zM12.844 18q-0.375-1.031-1.313-1.594t-2.016-0.375-1.805 1.031-0.727 1.945 0.727 1.922 1.805 1.008 2.016-0.352 1.313-1.57h1.172v1.969h1.969v-1.969h1.031v-2.016h-4.172zM9.984 20.016q-0.422 0-0.703-0.305t-0.281-0.727 0.281-0.703 0.703-0.281 0.727 0.281 0.305 0.703-0.305 0.727-0.727 0.305z"></path>
</svg>
