<!-- Generated by IcoMoon.io -->
<svg version="1.1" xmlns="http://www.w3.org/2000/svg" width="24" height="24" viewBox="0 0 24 24">
<title>filter_plus_outline</title>
<path d="M15 20.016h3v-3h2.016v3h3v1.969h-3v3h-2.016v-3h-3v-1.969zM12.984 22.875q0.094 0.516-0.234 0.82t-0.75 0.305-0.703-0.281l-3.984-4.031q-0.375-0.328-0.328-0.797v-5.156l-4.781-6.094q-0.234-0.328-0.188-0.75t0.352-0.656 0.633-0.234h14.016q0.328 0 0.633 0.234t0.352 0.656-0.188 0.75l-4.828 6.094v9.141zM5.063 8.016l3.938 5.063v5.484l2.016 2.016v-7.547l3.938-5.016h-9.891z"></path>
</svg>
