<!-- Generated by IcoMoon.io -->
<svg version="1.1" xmlns="http://www.w3.org/2000/svg" width="24" height="24" viewBox="0 0 24 24">
<title>filter_remove</title>
<path d="M14.766 23.813l2.813-2.813-2.813-2.813 1.406-1.406 2.813 2.766 2.859-2.766 1.406 1.406-2.813 2.813 2.813 2.813-1.406 1.406-2.859-2.813-2.813 2.813zM12 15v7.875q0.047 0.516-0.258 0.82t-0.727 0.305-0.703-0.281l-2.016-2.016q-0.375-0.375-0.281-0.844v-5.859h-0.047l-5.766-7.359q-0.234-0.328-0.188-0.75t0.352-0.656 0.633-0.234h14.016q0.328 0 0.633 0.234t0.352 0.656-0.188 0.75l-5.766 7.359h-0.047z"></path>
</svg>
