<!-- Generated by IcoMoon.io -->
<svg version="1.1" xmlns="http://www.w3.org/2000/svg" width="24" height="24" viewBox="0 0 24 24">
<title>fingerprint1</title>
<path d="M17.813 7.453q-0.141 0-0.234-0.047-1.453-0.75-2.766-1.078t-2.813-0.328q-3 0-5.578 1.406-0.141 0.094-0.352 0.047t-0.305-0.234-0.047-0.398 0.234-0.305q2.766-1.5 6.047-1.5 3.047 0 6.047 1.5 0.188 0.094 0.234 0.305t-0.047 0.352q-0.141 0.281-0.422 0.281zM3.516 12.703q-0.188 0-0.328-0.094t-0.188-0.305 0.094-0.352q1.5-2.156 3.75-3.281 2.391-1.219 5.18-1.219t5.086 1.172 3.797 3.281q0.094 0.141 0.070 0.352t-0.188 0.328-0.375 0.094-0.352-0.164q-1.313-1.922-3.375-2.953-2.156-1.125-4.711-1.125t-4.664 1.125q-2.063 1.031-3.422 2.953-0.141 0.188-0.375 0.188zM9.75 24.797q-0.188 0-0.328-0.141-0.703-0.703-1.125-1.242t-0.891-1.43q-1.078-1.875-1.078-4.313 0-1.453 0.773-2.695t2.063-1.969 2.836-0.727 2.836 0.727 2.063 1.969 0.773 2.695q0 0.188-0.164 0.328t-0.352 0.141-0.352-0.141-0.164-0.328q0-1.828-1.359-3.117t-3.281-1.289-3.281 1.289-1.359 3.117q0 2.203 0.891 3.844 0.469 0.797 0.891 1.359 0.328 0.422 0.984 1.078 0.141 0.141 0.141 0.328t-0.164 0.352-0.352 0.164zM16.922 22.922q-1.781 0-3.094-0.891-1.125-0.75-1.758-1.898t-0.633-2.461q0-0.234 0.141-0.375t0.352-0.141 0.352 0.141 0.141 0.375q0 1.031 0.516 1.992t1.453 1.57q1.031 0.703 2.531 0.703 0.469 0 1.031-0.094 0.234-0.047 0.398 0.070t0.188 0.328-0.094 0.375-0.305 0.211q-0.609 0.094-1.219 0.094zM14.906 24.984h-0.141q-1.172-0.328-2.039-0.82t-1.664-1.289q-1.031-1.031-1.594-2.391t-0.563-2.813q0-1.219 0.891-2.086t2.18-0.867 2.18 0.867 0.891 2.086q0 0.797 0.609 1.359t1.477 0.563 1.477-0.563 0.609-1.359q0-1.875-0.984-3.445t-2.648-2.484-3.633-0.914q-2.109 0-3.938 1.102t-2.672 2.93q-0.563 1.219-0.563 2.813 0 1.828 0.656 3.609 0.047 0.188-0.023 0.375t-0.281 0.258-0.398-0.023-0.234-0.281q-0.75-1.922-0.75-3.938 0-1.828 0.703-3.234 0.984-2.109 3.023-3.375t4.477-1.266q2.25 0 4.148 1.055t3 2.859 1.102 3.961q0 1.172-0.891 2.039t-2.18 0.867-2.18-0.867-0.891-2.039q0-0.844-0.609-1.406t-1.477-0.563-1.477 0.563-0.609 1.406q0 1.266 0.492 2.438t1.383 2.063q0.703 0.703 1.453 1.125t1.828 0.703q0.188 0.047 0.281 0.234t0.047 0.375-0.164 0.281-0.305 0.094z"></path>
</svg>
