<!-- Generated by IcoMoon.io -->
<svg version="1.1" xmlns="http://www.w3.org/2000/svg" width="24" height="24" viewBox="0 0 24 24">
<title>fire_hydrant</title>
<path d="M5.016 18v-0.984h-1.031v-2.016h1.031v-0.984h1.969v3.984h-1.969zM18.984 15v-0.984h-1.969v3.984h1.969v-0.984h1.031v-2.016h-1.031zM18 9h-2.156q-0.234-1.031-1.008-1.805t-1.852-1.055v-1.125h-1.969v1.125q-1.078 0.281-1.852 1.055t-1.008 1.805h-2.156v2.016h12v-2.016zM18 24.984h-12q0-0.797 0.586-1.383t1.43-0.586v-11.016h7.969v11.016q0.844 0 1.43 0.586t0.586 1.383zM9.984 15.984q0 0.844 0.586 1.43t1.43 0.586 1.43-0.586 0.586-1.406-0.586-1.406-1.43-0.586-1.43 0.586-0.586 1.383z"></path>
</svg>
