<!-- Generated by IcoMoon.io -->
<svg version="1.1" xmlns="http://www.w3.org/2000/svg" width="24" height="24" viewBox="0 0 24 24">
<title>fire_hydrant_alert</title>
<path d="M21.984 9.984h-1.969v6h1.969v-6zM21.984 18h-1.969v2.016h1.969v-2.016zM3 18v-0.984h-0.984v-2.016h0.984v-0.984h2.016v3.984h-2.016zM17.016 15v-0.984h-2.016v3.984h2.016v-0.984h0.984v-2.016h-0.984zM15.984 9h-2.109q-0.281-1.031-1.055-1.805t-1.805-1.055v-1.125h-2.016v1.125q-1.031 0.281-1.805 1.055t-1.055 1.805h-2.156v2.016h12v-2.016zM15.984 24.984h-12q0-0.797 0.586-1.383t1.43-0.586v-11.016h8.016v11.016q0.797 0 1.383 0.586t0.586 1.383zM8.016 15.984q0 0.844 0.586 1.43t1.406 0.586 1.406-0.586 0.586-1.406-0.586-1.406-1.406-0.586-1.406 0.586-0.586 1.383z"></path>
</svg>
