<!-- Generated by IcoMoon.io -->
<svg version="1.1" xmlns="http://www.w3.org/2000/svg" width="24" height="24" viewBox="0 0 24 24">
<title>fire_hydrant_off</title>
<path d="M20.859 25.734l1.266-1.266-19.734-19.734-1.266 1.266 6.891 6.891v10.125q-0.844 0-1.43 0.586t-0.586 1.383h12q0-0.797-0.586-1.383t-1.43-0.586v-2.109zM10.219 15.094l2.672 2.672q-0.422 0.234-0.891 0.234-0.844 0-1.43-0.586t-0.586-1.43q0-0.469 0.234-0.891zM11.203 11.016l-2.766-2.766q0.375-0.797 1.055-1.336t1.523-0.773v-1.125h1.969v1.125q1.078 0.281 1.852 1.055t1.008 1.805h2.156v2.016h-6.797zM18.984 14.016v0.984h1.031v2.016h-1.031v0.984h-0.797l-1.172-1.219v-2.766h1.969zM5.016 18v-0.984h-1.031v-2.016h1.031v-0.984h1.969v3.984h-1.969zM15.984 15.797l-3.797-3.797h3.797v3.797z"></path>
</svg>
