<!-- Generated by IcoMoon.io -->
<svg version="1.1" xmlns="http://www.w3.org/2000/svg" width="24" height="24" viewBox="0 0 24 24">
<title>fit_to_page_outline</title>
<path d="M20.016 5.016h-16.031q-0.797 0-1.383 0.586t-0.586 1.383v16.031q0 0.797 0.586 1.383t1.383 0.586h16.031q0.797 0 1.383-0.586t0.586-1.383v-16.031q0-0.797-0.586-1.383t-1.383-0.586zM20.016 23.016h-16.031v-16.031h16.031v16.031zM12.984 11.016v1.969h-1.969v-1.969h-2.016l3-3 3 3h-2.016zM15.984 18v-2.016h-1.969v-1.969h1.969v-2.016l3 3zM9.984 15.984h-1.969v2.016l-3-3 3-3v2.016h1.969v1.969zM15 18.984l-3 3-3-3h2.016v-1.969h1.969v1.969h2.016z"></path>
</svg>
