<!-- Generated by IcoMoon.io -->
<svg version="1.1" xmlns="http://www.w3.org/2000/svg" width="24" height="24" viewBox="0 0 24 24">
<title>flag_remove_outline</title>
<path d="M12.984 18.984l-0.375-1.969h-5.625v6.984h-1.969v-17.016h9l0.375 2.016h5.625v7.078q-0.609-0.094-1.008-0.094t-1.008 0.094v-5.063h-5.25l-0.375-2.016h-5.391v6h7.266l0.375 2.016h1.078q-1.172 0.75-1.875 1.969h-0.844zM21.141 18.469l-2.156 2.109-2.109-2.109-1.406 1.406 2.109 2.109-2.109 2.156 1.406 1.406 2.109-2.156 2.156 2.156 1.406-1.406-2.156-2.156 2.156-2.109z"></path>
</svg>
