<!-- Generated by IcoMoon.io -->
<svg version="1.1" xmlns="http://www.w3.org/2000/svg" width="24" height="24" viewBox="0 0 24 24">
<title>flare1</title>
<path d="M6.984 14.016h-6v1.969h6v-1.969zM9.188 10.781l-2.156-2.156-1.406 1.406 2.156 2.156zM12.984 3.984h-1.969v6h1.969v-6zM18.375 10.031l-1.406-1.406-2.156 2.156 1.406 1.406zM17.016 14.016v1.969h6v-1.969h-6zM12 12q-1.266 0-2.133 0.867t-0.867 2.133 0.867 2.133 2.133 0.867 2.133-0.867 0.867-2.133-0.867-2.133-2.133-0.867zM14.813 19.219l2.156 2.156 1.406-1.406-2.156-2.156zM5.625 19.969l1.406 1.406 2.156-2.156-1.406-1.406zM11.016 26.016h1.969v-6h-1.969v6z"></path>
</svg>
