<!-- Generated by IcoMoon.io -->
<svg version="1.1" xmlns="http://www.w3.org/2000/svg" width="24" height="24" viewBox="0 0 24 24">
<title>flip_horizontal</title>
<path d="M15 24h2.016v-2.016h-2.016v2.016zM18.984 12h2.016v-2.016h-2.016v2.016zM3 8.016v13.969q0 0.844 0.586 1.43t1.43 0.586h3.984v-2.016h-3.984v-13.969h3.984v-2.016h-3.984q-0.844 0-1.43 0.586t-0.586 1.43zM18.984 6v2.016h2.016q0-0.844-0.586-1.43t-1.43-0.586zM11.016 26.016h1.969v-22.031h-1.969v22.031zM18.984 20.016h2.016v-2.016h-2.016v2.016zM15 8.016h2.016v-2.016h-2.016v2.016zM18.984 15.984h2.016v-1.969h-2.016v1.969zM18.984 24q0.844 0 1.43-0.586t0.586-1.43h-2.016v2.016z"></path>
</svg>
