<!-- Generated by IcoMoon.io -->
<svg version="1.1" xmlns="http://www.w3.org/2000/svg" width="24" height="24" viewBox="0 0 24 24">
<title>flip_vertical</title>
<path d="M3 18v2.016h2.016v-2.016h-2.016zM15 21.984v2.016h2.016v-2.016h-2.016zM18.984 6h-13.969q-0.844 0-1.43 0.586t-0.586 1.43v3.984h2.016v-3.984h13.969v3.984h2.016v-3.984q0-0.844-0.586-1.43t-1.43-0.586zM21 21.984h-2.016v2.016q0.844 0 1.43-0.586t0.586-1.43zM0.984 14.016v1.969h22.031v-1.969h-22.031zM6.984 21.984v2.016h2.016v-2.016h-2.016zM18.984 18v2.016h2.016v-2.016h-2.016zM11.016 21.984v2.016h1.969v-2.016h-1.969zM3 21.984q0 0.844 0.586 1.43t1.43 0.586v-2.016h-2.016z"></path>
</svg>
