<!-- Generated by IcoMoon.io -->
<svg version="1.1" xmlns="http://www.w3.org/2000/svg" width="24" height="24" viewBox="0 0 24 24">
<title>flip_to_back1</title>
<path d="M15 20.016h2.016v-2.016h-2.016v2.016zM15 8.016h2.016v-2.016h-2.016v2.016zM5.016 9.984h-2.016v12q0 0.844 0.586 1.43t1.43 0.586h12v-2.016h-12v-12zM18.984 20.016q0.844 0 1.43-0.586t0.586-1.43h-2.016v2.016zM18.984 12h2.016v-2.016h-2.016v2.016zM18.984 15.984h2.016v-1.969h-2.016v1.969zM9 20.016v-2.016h-2.016q0 0.844 0.586 1.43t1.43 0.586zM12.984 6h-1.969v2.016h1.969v-2.016zM18.984 6v2.016h2.016q0-0.844-0.586-1.43t-1.43-0.586zM12.984 18h-1.969v2.016h1.969v-2.016zM9 6q-0.844 0-1.43 0.586t-0.586 1.43h2.016v-2.016zM9 14.016h-2.016v1.969h2.016v-1.969zM9 9.984h-2.016v2.016h2.016v-2.016z"></path>
</svg>
