<!-- Generated by IcoMoon.io -->
<svg version="1.1" xmlns="http://www.w3.org/2000/svg" width="24" height="24" viewBox="0 0 24 24">
<title>flip_to_front1</title>
<path d="M6.984 24h2.016v-2.016h-2.016v2.016zM11.016 24h1.969v-2.016h-1.969v2.016zM18.984 18h-9.984v-9.984h9.984v9.984zM18.984 6h-9.984q-0.844 0-1.43 0.586t-0.586 1.43v9.984q0 0.844 0.586 1.43t1.43 0.586h9.984q0.844 0 1.43-0.586t0.586-1.43v-9.984q0-0.844-0.586-1.43t-1.43-0.586zM15 24h2.016v-2.016h-2.016v2.016zM3 12h2.016v-2.016h-2.016v2.016zM5.016 24v-2.016h-2.016q0 0.844 0.586 1.43t1.43 0.586zM3 20.016h2.016v-2.016h-2.016v2.016zM3 15.984h2.016v-1.969h-2.016v1.969z"></path>
</svg>
