<!-- Generated by IcoMoon.io -->
<svg version="1.1" xmlns="http://www.w3.org/2000/svg" width="24" height="24" viewBox="0 0 24 24">
<title>folder_information</title>
<path d="M21 14.109v-3.094q0-0.844-0.586-1.43t-1.43-0.586h-7.969l-2.016-2.016h-6q-0.844 0-1.43 0.586t-0.586 1.43v12q0 0.844 0.586 1.43t1.43 0.586h7.313q0.938 1.406 2.484 2.203t3.188 0.797q1.922 0 3.539-0.938t2.555-2.555 0.938-3.539q0-1.359-0.516-2.648t-1.5-2.227zM15.984 24q-2.063 0-3.516-1.453t-1.453-3.539 1.453-3.539 3.539-1.453 3.539 1.453 1.453 3.539-1.453 3.539-3.563 1.453zM17.016 23.016h-2.016v-5.016h2.016v5.016zM17.016 17.016h-2.016v-2.016h2.016v2.016z"></path>
</svg>
