<!-- Generated by IcoMoon.io -->
<svg version="1.1" xmlns="http://www.w3.org/2000/svg" width="24" height="24" viewBox="0 0 24 24">
<title>folder_key</title>
<path d="M3.984 6.984q-0.797 0-1.383 0.586t-0.586 1.43v12q0 0.844 0.586 1.43t1.383 0.586h16.031q0.797 0 1.383-0.586t0.586-1.43v-9.984q0-0.844-0.586-1.43t-1.383-0.586h-8.016l-2.016-2.016h-6zM11.016 12.984q0.938 0 1.711 0.563t1.102 1.453h5.156v2.016h-0.984v1.969h-2.016v-1.969h-2.156q-0.328 0.891-1.102 1.43t-1.711 0.539q-1.266 0-2.133-0.867t-0.867-2.109 0.867-2.133 2.133-0.891zM11.016 15q-0.422 0-0.727 0.281t-0.305 0.703 0.305 0.727 0.727 0.305 0.703-0.305 0.281-0.727-0.281-0.703-0.703-0.281z"></path>
</svg>
