<!-- Generated by IcoMoon.io -->
<svg version="1.1" xmlns="http://www.w3.org/2000/svg" width="24" height="24" viewBox="0 0 24 24">
<title>folder_sync_outline</title>
<path d="M9.984 6.984l2.016 2.016h8.016q0.797 0 1.383 0.586t0.586 1.43v3.469q-0.938-0.375-1.969-0.469v-3h-16.031v9.984h9q0.141 1.078 0.516 2.016h-9.516q-0.797 0-1.383-0.586t-0.586-1.43v-12q0-0.844 0.586-1.43t1.383-0.586h6zM18.984 15v1.5q1.688 0 2.859 1.172t1.172 2.813q0 1.219-0.703 2.203l-1.078-1.078q0.281-0.516 0.281-1.125 0-1.031-0.75-1.758t-1.781-0.727v1.5l-2.25-2.297q0.234-0.188 2.25-2.203zM18.984 26.016v-1.5q-1.641 0-2.813-1.172t-1.172-2.859q0-1.172 0.656-2.203l1.125 1.078q-0.281 0.563-0.281 1.125 0 1.031 0.727 1.781t1.758 0.75v-1.5l2.297 2.25q-0.234 0.188-2.297 2.25z"></path>
</svg>
