<!-- Generated by IcoMoon.io -->
<svg version="1.1" xmlns="http://www.w3.org/2000/svg" width="24" height="24" viewBox="0 0 24 24">
<title>folder_edit</title>
<path d="M3 6.984q-0.844 0-1.43 0.586t-0.586 1.43v12q0 0.844 0.586 1.43t1.43 0.586h8.016v-1.922l9.984-9.984v-0.094q0-0.844-0.586-1.43t-1.43-0.586h-7.969l-2.016-2.016h-6zM21.047 14.109q-0.234 0-0.375 0.188l-1.031 0.984 2.063 2.063 0.984-0.984q0.188-0.188 0.188-0.398t-0.188-0.398l-1.266-1.266q-0.188-0.188-0.375-0.188zM19.078 15.891l-6.094 6.047v2.063h2.063l6.094-6.047z"></path>
</svg>
