<!-- Generated by IcoMoon.io -->
<svg version="1.1" xmlns="http://www.w3.org/2000/svg" width="24" height="24" viewBox="0 0 24 24">
<title>folder_key_outline</title>
<path d="M20.016 21h-16.031v-9.984h16.031v9.984zM20.016 9h-8.016l-2.016-2.016h-6q-0.797 0-1.383 0.586t-0.586 1.43v12q0 0.844 0.586 1.43t1.383 0.586h16.031q0.797 0 1.383-0.586t0.586-1.43v-9.984q0-0.844-0.586-1.43t-1.383-0.586zM13.828 15q-0.328-0.891-1.102-1.453t-1.711-0.563q-1.266 0-2.133 0.891t-0.867 2.133 0.867 2.109 2.133 0.867q0.938 0 1.711-0.539t1.102-1.43h2.156v1.969h2.016v-1.969h0.984v-2.016h-5.156zM11.016 17.016q-0.422 0-0.727-0.305t-0.305-0.703 0.305-0.703 0.703-0.305 0.703 0.305 0.305 0.703-0.305 0.703-0.68 0.305z"></path>
</svg>
