<!-- Generated by IcoMoon.io -->
<svg version="1.1" xmlns="http://www.w3.org/2000/svg" width="24" height="24" viewBox="0 0 24 24">
<title>folder_lock</title>
<path d="M20.016 9q0.797 0 1.383 0.586t0.586 1.43v9.984q0 0.844-0.586 1.43t-1.383 0.586h-16.031q-0.797 0-1.383-0.586t-0.586-1.43v-12q0-0.844 0.586-1.43t1.383-0.586h6l2.016 2.016h8.016zM18.984 20.016v-4.031h-0.984v-0.984q0-1.266-0.867-2.133t-2.133-0.867-2.133 0.867-0.867 2.133v0.984h-0.984v4.031h7.969zM15 14.016q0.422 0 0.703 0.281t0.281 0.703v0.984h-1.969v-0.984q0-0.422 0.281-0.703t0.703-0.281z"></path>
</svg>
