<!-- Generated by IcoMoon.io -->
<svg version="1.1" xmlns="http://www.w3.org/2000/svg" width="24" height="24" viewBox="0 0 24 24">
<title>folder_remove_outline</title>
<path d="M11.438 13.875l1.453-1.406 2.109 2.109 2.109-2.109 1.453 1.406-2.156 2.109 2.156 2.156-1.453 1.406-2.109-2.156-2.109 2.156-1.453-1.406 2.156-2.156zM21.984 11.016v9.984q0 0.844-0.586 1.43t-1.383 0.586h-16.031q-0.797 0-1.383-0.586t-0.586-1.43v-12q0-0.844 0.586-1.43t1.383-0.586h6l2.016 2.016h8.016q0.797 0 1.383 0.586t0.586 1.43zM20.016 11.016h-16.031v9.984h16.031v-9.984z"></path>
</svg>
