<!-- Generated by IcoMoon.io -->
<svg version="1.1" xmlns="http://www.w3.org/2000/svg" width="24" height="24" viewBox="0 0 24 24">
<title>folder_information_outline</title>
<path d="M21 14.109v-3.094q0-0.844-0.586-1.43t-1.43-0.586h-7.969l-2.016-2.016h-6q-0.844 0-1.43 0.586t-0.586 1.43v12q0 0.844 0.586 1.43t1.43 0.586h7.219q0.891 1.359 2.438 2.18t3.328 0.82q1.922 0 3.539-0.938t2.555-2.555 0.938-3.539q0-1.359-0.539-2.625t-1.477-2.25zM9.281 21h-6.281v-9.984h15.984v1.688q-1.266-0.703-3-0.703-1.922 0-3.516 0.938t-2.531 2.531-0.938 3.516q0 1.125 0.281 2.016zM15.984 24q-2.063 0-3.516-1.453t-1.453-3.539 1.453-3.539 3.539-1.453 3.539 1.453 1.453 3.539-1.453 3.539-3.563 1.453zM17.016 17.016h-2.016v-2.016h2.016v2.016zM17.016 23.016h-2.016v-5.016h2.016v5.016z"></path>
</svg>
