<!-- Generated by IcoMoon.io -->
<svg version="1.1" xmlns="http://www.w3.org/2000/svg" width="24" height="24" viewBox="0 0 24 24">
<title>folder_clock_outline</title>
<path d="M15 15h1.5v4.266l2.859 1.688-0.75 1.219-3.609-2.156v-5.016zM18.984 11.016h-15.984v9.984h6.281q-0.281-0.984-0.281-2.016 0-1.875 0.938-3.492t2.555-2.555 3.492-0.938q1.594 0 3 0.656v-1.641zM3 23.016q-0.844 0-1.43-0.586t-0.586-1.43v-12q0-0.844 0.586-1.43t1.43-0.586h6l2.016 2.016h7.969q0.844 0 1.43 0.586t0.586 1.43v3.094q0.938 0.938 1.477 2.203t0.539 2.672q0 1.922-0.961 3.516t-2.555 2.555-3.516 0.961q-1.734 0-3.258-0.82t-2.461-2.18h-7.266zM15.984 14.016q-1.359 0-2.508 0.656t-1.805 1.805-0.656 2.508 0.656 2.508 1.805 1.828 2.508 0.68q1.031 0 1.945-0.375t1.617-1.078 1.078-1.617 0.375-1.922-0.375-1.922-1.078-1.617-1.617-1.078-1.945-0.375z"></path>
</svg>
