<!-- Generated by IcoMoon.io -->
<svg version="1.1" xmlns="http://www.w3.org/2000/svg" width="24" height="24" viewBox="0 0 24 24">
<title>folder_edit_outline</title>
<path d="M21 14.109q-0.188 0-0.375 0.188l-0.984 1.031 2.063 2.109 1.031-1.031q0.141-0.141 0.141-0.398t-0.141-0.398l-1.313-1.313q-0.188-0.188-0.422-0.188zM19.125 15.891l-6.141 6.047v2.063h2.156l6.094-6.094zM21 11.016v0.094l-2.016 2.016v-2.109h-15.984v9.984h8.016v2.016h-8.016q-0.844 0-1.43-0.586t-0.586-1.43v-12q0-0.797 0.586-1.406t1.43-0.609h6l2.016 2.016h7.969q0.844 0 1.43 0.586t0.586 1.43z"></path>
</svg>
