<!-- Generated by IcoMoon.io -->
<svg version="1.1" xmlns="http://www.w3.org/2000/svg" width="24" height="24" viewBox="0 0 24 24">
<title>folder_settings_variant_outline</title>
<path d="M3.984 6.984q-0.797 0-1.383 0.586t-0.586 1.43v12q0 0.844 0.586 1.43t1.383 0.586h8.016v-2.016h-8.016v-9.984h16.031v3.984h1.969v-3.984q0-0.844-0.586-1.43t-1.383-0.586h-8.016l-2.016-2.016h-6zM18 17.016q-0.234 0-0.281 0.188l-0.188 1.313-0.844 0.469-1.219-0.469q-0.234 0-0.328 0.094l-0.984 1.734q-0.094 0.188 0.047 0.328l1.078 0.844q-0.047 0.234-0.047 0.492t0.047 0.492l-1.078 0.797q-0.141 0.141-0.047 0.328l0.984 1.734q0.047 0.141 0.328 0.141l1.219-0.516q0.469 0.328 0.844 0.469l0.188 1.359q0.047 0.188 0.281 0.188h2.016q0.188 0 0.234-0.188l0.188-1.359q0.375-0.141 0.844-0.469l1.219 0.516q0.281 0 0.328-0.141l0.984-1.734q0.094-0.188-0.047-0.328l-1.078-0.797 0.047-0.516q0-0.234-0.047-0.469l1.078-0.844q0.141-0.141 0.047-0.328l-0.984-1.734q-0.047-0.094-0.328-0.094l-1.219 0.469q-0.516-0.328-0.844-0.469l-0.188-1.313q-0.047-0.188-0.234-0.188h-2.016zM18.984 20.484q0.656 0 1.078 0.445t0.422 1.078-0.422 1.055-1.055 0.422-1.078-0.422-0.445-1.055 0.445-1.078 1.055-0.445z"></path>
</svg>
