<!-- Generated by IcoMoon.io -->
<svg version="1.1" xmlns="http://www.w3.org/2000/svg" width="24" height="24" viewBox="0 0 24 24">
<title>folder_search_outline</title>
<path d="M16.5 15q1.875 0 3.188 1.313t1.313 3.188q0 1.313-0.703 2.391l3.094 3.094-1.406 1.406-3.094-3.094q-1.125 0.703-2.391 0.703-1.875 0-3.188-1.313t-1.313-3.188 1.313-3.188 3.188-1.313zM16.5 17.016q-1.031 0-1.758 0.727t-0.727 1.758 0.727 1.758 1.758 0.727 1.758-0.727 0.727-1.758-0.727-1.758-1.758-0.727zM18.984 11.016h-15.984v9.984h7.172q0.234 1.031 0.844 2.016h-8.016q-0.844 0-1.43-0.586t-0.586-1.43v-12q0-0.844 0.586-1.43t1.43-0.586h6l2.016 2.016h7.969q0.844 0 1.43 0.586t0.586 1.43v3.797q-0.891-0.844-2.016-1.313v-2.484z"></path>
</svg>
