<!-- Generated by IcoMoon.io -->
<svg version="1.1" xmlns="http://www.w3.org/2000/svg" width="24" height="24" viewBox="0 0 24 24">
<title>folder_pound_outline</title>
<path d="M20.016 21h-16.031v-9.984h16.031v9.984zM20.016 9h-8.016l-2.016-2.016h-6q-0.797 0-1.383 0.586t-0.586 1.43v12q0 0.844 0.586 1.43t1.383 0.586h16.031q0.797 0 1.383-0.586t0.586-1.43v-9.984q0-0.844-0.586-1.43t-1.383-0.586zM18.984 15v-0.984h-1.5l0.516-2.016h-0.984l-0.516 2.016h-2.016l0.516-2.016h-0.984l-0.516 2.016h-1.5v0.984h1.266l-0.516 2.016h-1.734v0.984h1.5l-0.516 2.016h0.984l0.516-2.016h2.016l-0.516 2.016h0.984l0.516-2.016h1.5v-0.984h-1.266l0.516-2.016h1.734zM15.75 17.016h-2.016l0.516-2.016h2.016z"></path>
</svg>
