<!-- Generated by IcoMoon.io -->
<svg version="1.1" xmlns="http://www.w3.org/2000/svg" width="24" height="24" viewBox="0 0 24 24">
<title>folder_star_outline</title>
<path d="M10.781 15.047l3.047-0.234 1.172-2.813 1.172 2.813 3.047 0.234-2.297 2.016 0.703 2.953-2.625-1.547-2.625 1.547 0.703-2.953zM21.984 11.016v9.984q0 0.844-0.586 1.43t-1.383 0.586h-16.031q-0.797 0-1.383-0.586t-0.586-1.43v-12q0-0.844 0.586-1.43t1.383-0.586h6l2.016 2.016h8.016q0.797 0 1.383 0.586t0.586 1.43zM20.016 11.016h-16.031v9.984h16.031v-9.984z"></path>
</svg>
