<!-- Generated by IcoMoon.io -->
<svg version="1.1" xmlns="http://www.w3.org/2000/svg" width="24" height="24" viewBox="0 0 24 24">
<title>folder_pound</title>
<path d="M15.234 15.984h2.016l-0.516 2.016h-1.969zM21.984 11.016v9.984q0 0.844-0.586 1.43t-1.383 0.586h-16.031q-0.797 0-1.383-0.586t-0.586-1.43v-12q0-0.844 0.586-1.43t1.383-0.586h6l2.016 2.016h8.016q0.797 0 1.383 0.586t0.586 1.43zM20.016 15h-1.5l0.469-2.016h-0.984l-0.516 2.016h-1.969l0.469-2.016h-0.984l-0.516 2.016h-1.5v0.984h1.266l-0.516 2.016h-1.734v0.984h1.5l-0.516 2.016h1.031l0.469-2.016h2.016l-0.516 2.016h1.031l0.469-2.016h1.5v-0.984h-1.219l0.469-2.016h1.781v-0.984z"></path>
</svg>
