<!-- Generated by IcoMoon.io -->
<svg version="1.1" xmlns="http://www.w3.org/2000/svg" width="24" height="24" viewBox="0 0 24 24">
<title>folder_clock</title>
<path d="M3 6.984q-0.844 0-1.43 0.586t-0.586 1.43v12q0 0.844 0.586 1.43t1.43 0.586h7.266q0.984 1.406 2.508 2.203t3.211 0.797q1.922 0 3.516-0.961t2.555-2.555 0.961-3.516q0-1.359-0.516-2.625t-1.5-2.25v-3.094q0-0.844-0.586-1.43t-1.43-0.586h-7.969l-2.016-2.016h-6zM15.984 14.016q1.031 0 1.945 0.375t1.617 1.078 1.078 1.617 0.375 1.922-0.375 1.922-1.078 1.617-1.617 1.078-1.945 0.375q-1.359 0-2.508-0.68t-1.805-1.828-0.656-2.508 0.656-2.508 1.805-1.805 2.508-0.656zM15 15v5.016l3.609 2.156 0.75-1.219-2.859-1.688v-4.266h-1.5z"></path>
</svg>
