<!-- Generated by IcoMoon.io -->
<svg version="1.1" xmlns="http://www.w3.org/2000/svg" width="24" height="24" viewBox="0 0 24 24">
<title>format_page_break</title>
<path d="M18 23.016h-12v-2.016h-2.016v2.016q0 0.797 0.586 1.383t1.43 0.586h12q0.844 0 1.43-0.586t0.586-1.383v-2.016h-2.016v2.016zM14.016 5.016h-8.016q-0.844 0-1.43 0.586t-0.586 1.383v8.016h2.016v-8.016h8.016v4.031h3.984v3.984h2.016v-3.984zM11.016 18.984h-3v-1.969h3v1.969zM15.984 18.984h-3v-1.969h3v1.969zM3 17.016h3v1.969h-3v-1.969zM21 18.984h-3v-1.969h3v1.969z"></path>
</svg>
