<!-- Generated by IcoMoon.io -->
<svg version="1.1" xmlns="http://www.w3.org/2000/svg" width="24" height="24" viewBox="0 0 24 24">
<title>frequently_asked_questions</title>
<path d="M18 18h-12l-3.984 3.984v-15.984q0-0.422 0.281-0.703t0.703-0.281h15q0.422 0 0.703 0.281t0.281 0.703v11.016q0 0.422-0.281 0.703t-0.703 0.281zM23.016 12v14.016l-4.031-4.031h-10.969q-0.422 0-0.727-0.281t-0.305-0.703v-0.984h14.016v-9h0.984q0.422 0 0.727 0.281t0.305 0.703zM8.203 6.984q-1.313 0-2.109 0.609t-0.797 1.781v0h1.969q0-0.422 0.281-0.656t0.703-0.234 0.68 0.281 0.258 0.75-0.211 0.797-0.633 0.609q-0.75 0.516-1.055 0.914t-0.305 1.148h2.016q0-0.469 0.141-0.75t0.516-0.516q0.703-0.375 1.125-0.938t0.422-1.266q0-1.172-0.82-1.852t-2.18-0.68zM6.984 14.016v1.969h2.016v-1.969h-2.016zM12.984 15.984h2.016v-1.969h-2.016v1.969zM12.984 6.984v6h2.016v-6h-2.016z"></path>
</svg>
