<!-- Generated by IcoMoon.io -->
<svg version="1.1" xmlns="http://www.w3.org/2000/svg" width="24" height="24" viewBox="0 0 24 24">
<title>function</title>
<path d="M15.609 8.297q-0.844-0.094-1.477 0.445t-0.68 1.383l-0.281 2.859h2.813v2.016h-3l-0.422 5.063q-0.141 1.641-1.406 2.719t-2.906 0.938q-0.984-0.094-1.781-0.586t-1.313-1.289l1.5-1.5q0.188 0.563 0.656 0.938t1.078 0.422q0.844 0.094 1.477-0.445t0.68-1.383l0.469-4.875h-3v-2.016h3.141l0.281-3.047q0.141-1.641 1.406-2.719t2.906-0.938q0.984 0.094 1.781 0.586t1.313 1.289l-1.5 1.5q-0.188-0.563-0.656-0.938t-1.078-0.422z"></path>
</svg>
