<!-- Generated by IcoMoon.io -->
<svg version="1.1" xmlns="http://www.w3.org/2000/svg" width="24" height="24" viewBox="0 0 24 24">
<title>function_variant</title>
<path d="M12.422 8.297q-0.844-0.094-1.477 0.445t-0.68 1.383l-0.281 2.859h2.813v2.016h-3l-0.422 5.063q-0.141 1.641-1.406 2.719t-2.906 0.938q-0.984-0.094-1.781-0.586t-1.266-1.289l1.5-1.5q0.234 0.797 0.961 1.172t1.523 0.094q0.563-0.141 0.961-0.633t0.445-1.102l0.422-4.875h-3v-2.016h3.188l0.234-3.047q0.141-1.641 1.406-2.719t2.953-0.938q0.938 0.094 1.758 0.586t1.289 1.289l-1.5 1.5q-0.188-0.563-0.656-0.938t-1.078-0.422zM21.984 16.641l-1.406-1.406-2.813 2.813-2.813-2.813-1.453 1.406 2.859 2.859-2.859 2.813 1.453 1.406 2.813-2.813 2.813 2.813 1.406-1.406-2.813-2.813z"></path>
</svg>
