<!-- Generated by IcoMoon.io -->
<svg version="1.1" xmlns="http://www.w3.org/2000/svg" width="24" height="24" viewBox="0 0 24 24">
<title>gamepad_circle_outline</title>
<path d="M5.016 11.016q1.641 0 2.813 1.172t1.172 2.813-1.172 2.813-2.836 1.172-2.836-1.172-1.172-2.813 1.172-2.813 2.859-1.172zM5.016 12.984q-0.844 0-1.43 0.586t-0.586 1.43 0.586 1.43 1.406 0.586 1.406-0.586 0.586-1.43-0.586-1.43-1.383-0.586zM12 3.984q1.641 0 2.813 1.172t1.172 2.836-1.172 2.836-2.813 1.172-2.813-1.172-1.172-2.836 1.172-2.836 2.813-1.172zM12 6q-0.844 0-1.43 0.586t-0.586 1.406 0.586 1.406 1.43 0.586 1.43-0.586 0.586-1.406-0.586-1.406-1.43-0.586zM12 18q1.641 0 2.813 1.172t1.172 2.836-1.172 2.836-2.813 1.172-2.813-1.172-1.172-2.836 1.172-2.836 2.813-1.172zM12 20.016q-0.844 0-1.43 0.586t-0.586 1.406 0.586 1.406 1.43 0.586 1.43-0.586 0.586-1.406-0.586-1.406-1.43-0.586zM18.984 11.016q1.688 0 2.859 1.172t1.172 2.813-1.172 2.813-2.836 1.172-2.836-1.172-1.172-2.813 1.172-2.813 2.813-1.172zM18.984 12.984q-0.797 0-1.383 0.586t-0.586 1.43 0.586 1.43 1.406 0.586 1.406-0.586 0.586-1.43-0.586-1.43-1.43-0.586z"></path>
</svg>
