<!-- Generated by IcoMoon.io -->
<svg version="1.1" xmlns="http://www.w3.org/2000/svg" width="24" height="24" viewBox="0 0 24 24">
<title>gamepad_round</title>
<path d="M3.984 11.016h4.031v-4.031q0-0.797 0.586-1.383t1.383-0.586h4.031q0.797 0 1.383 0.586t0.586 1.383v4.031h4.031q0.797 0 1.383 0.586t0.586 1.383v4.031q0 0.797-0.586 1.383t-1.383 0.586h-4.031v4.031q0 0.797-0.586 1.383t-1.383 0.586h-4.031q-0.797 0-1.383-0.586t-0.586-1.383v-4.031h-4.031q-0.797 0-1.383-0.586t-0.586-1.383v-4.031q0-0.797 0.586-1.383t1.383-0.586z"></path>
</svg>
