<!-- Generated by IcoMoon.io -->
<svg version="1.1" xmlns="http://www.w3.org/2000/svg" width="24" height="24" viewBox="0 0 24 24">
<title>gas_station_outline</title>
<path d="M19.781 10.219v0l-3.703-3.703-1.078 1.031 2.109 2.109q-0.703 0.281-1.148 0.914t-0.445 1.43q0 1.031 0.727 1.758t1.758 0.727q0.516 0 0.984-0.188v7.219q0 0.422-0.281 0.703t-0.703 0.281-0.703-0.281-0.281-0.703v-4.5q0-0.844-0.586-1.43t-1.43-0.586h-0.984v-6.984q0-0.844-0.586-1.43t-1.43-0.586h-6q-0.844 0-1.43 0.586t-0.586 1.43v15.984h10.031v-7.5h1.5v5.016q0 1.031 0.727 1.758t1.758 0.727 1.758-0.727 0.727-1.758v-9.516q0-1.031-0.703-1.781zM12 16.5v5.484h-6v-6.984h6v1.5zM12 12.984h-6v-4.969h6v4.969zM18 12.984q-0.422 0-0.703-0.281t-0.281-0.703 0.281-0.703 0.703-0.281 0.703 0.281 0.281 0.703-0.281 0.703-0.703 0.281z"></path>
</svg>
