<!-- Generated by IcoMoon.io -->
<svg version="1.1" xmlns="http://www.w3.org/2000/svg" width="24" height="24" viewBox="0 0 24 24">
<title>gate</title>
<path d="M9 8.016v4.969h-2.016v-3.984h-1.969v3.984h-2.016v-1.969h-2.016v12h2.016v-2.016h2.016v2.016h1.969v-2.016h2.016v2.016h2.016v-2.016h1.969v2.016h2.016v-2.016h2.016v2.016h1.969v-2.016h2.016v2.016h2.016v-12h-2.016v1.969h-2.016v-3.984h-1.969v3.984h-2.016v-4.969h-2.016v4.969h-1.969v-4.969h-2.016zM3 15h2.016v3.984h-2.016v-3.984zM6.984 15h2.016v3.984h-2.016v-3.984zM11.016 15h1.969v3.984h-1.969v-3.984zM15 15h2.016v3.984h-2.016v-3.984zM18.984 15h2.016v3.984h-2.016v-3.984z"></path>
</svg>
