<!-- Generated by IcoMoon.io -->
<svg version="1.1" xmlns="http://www.w3.org/2000/svg" width="24" height="24" viewBox="0 0 24 24">
<title>gauge_empty</title>
<path d="M12 5.016q1.969 0 3.82 0.75t3.258 2.156 2.156 3.258 0.75 3.82-0.75 3.82-2.156 3.258-3.258 2.156-3.82 0.75-3.82-0.75-3.258-2.156-2.156-3.258-0.75-3.82 0.75-3.82 2.156-3.258 3.258-2.156 3.82-0.75zM12 6.984q-1.594 0-3.070 0.609t-2.602 1.734-1.734 2.602-0.609 3.070q0 1.781 0.703 3.328t2.016 2.672q1.031-0.984 2.414-1.5t2.883-0.516q3 0 5.297 2.016 1.313-1.125 2.016-2.672t0.703-3.328q0-1.594-0.609-3.070t-1.734-2.602-2.602-1.734-3.070-0.609zM14.016 9q0.422 0 0.703 0.281t0.281 0.703-0.281 0.727-0.703 0.305-0.727-0.305-0.305-0.727 0.305-0.703 0.727-0.281zM9.984 9q0.422 0 0.727 0.281t0.305 0.703-0.305 0.727-0.727 0.305-0.703-0.305-0.281-0.727 0.281-0.703 0.703-0.281zM6.891 11.953q0.141 0 0.375 0.047l3.516 1.453q0.422-0.328 0.961-0.422t1.008 0.141q0.75 0.281 1.078 1.055t0.023 1.523-1.078 1.078-1.523 0q-0.516-0.188-0.844-0.609t-0.422-0.938l-3.469-1.406q-0.375-0.141-0.539-0.539t-0.023-0.773q0.141-0.281 0.398-0.445t0.539-0.164v0zM17.016 12q0.422 0 0.703 0.281t0.281 0.703-0.281 0.727-0.703 0.305-0.727-0.305-0.305-0.727 0.305-0.703 0.727-0.281z"></path>
</svg>
