<!-- Generated by IcoMoon.io -->
<svg version="1.1" xmlns="http://www.w3.org/2000/svg" width="24" height="24" viewBox="0 0 24 24">
<title>gauge</title>
<path d="M12 5.016q-1.969 0-3.82 0.75t-3.258 2.156-2.156 3.258-0.75 3.82 0.75 3.82 2.156 3.258 3.258 2.156 3.82 0.75 3.82-0.75 3.258-2.156 2.156-3.258 0.75-3.82-0.75-3.82-2.156-3.258-3.258-2.156-3.82-0.75zM12 6.984q1.594 0 3.070 0.609t2.602 1.734 1.734 2.602 0.609 3.070q0 1.781-0.703 3.328t-2.016 2.672q-1.031-0.984-2.414-1.5t-2.883-0.516q-3 0-5.297 2.016-1.313-1.125-2.016-2.672t-0.703-3.328q0-1.594 0.609-3.070t1.734-2.602 2.602-1.734 3.070-0.609zM14.016 8.906q-0.281 0-0.539 0.164t-0.398 0.492l-1.359 3.422q-0.563 0.094-0.961 0.445t-0.633 0.82q-0.281 0.797 0.047 1.547t1.102 1.055 1.523-0.023 1.078-1.078q0.188-0.516 0.094-1.031t-0.422-0.938l1.406-3.516q0.188-0.375 0.023-0.75t-0.586-0.563q-0.141-0.047-0.375-0.047zM9.984 9q-0.422 0-0.703 0.281t-0.281 0.703 0.281 0.727 0.703 0.305 0.727-0.305 0.305-0.727-0.305-0.703-0.727-0.281zM6.984 12q-0.422 0-0.703 0.281t-0.281 0.703 0.281 0.727 0.703 0.305 0.727-0.305 0.305-0.727-0.305-0.703-0.727-0.281zM17.016 12q-0.422 0-0.727 0.281t-0.305 0.703 0.305 0.727 0.727 0.305 0.703-0.305 0.281-0.727-0.281-0.703-0.703-0.281z"></path>
</svg>
