<!-- Generated by IcoMoon.io -->
<svg version="1.1" xmlns="http://www.w3.org/2000/svg" width="24" height="24" viewBox="0 0 24 24">
<title>gavel1</title>
<path d="M2.297 23.297l9.609-9.609-1.406-1.406-0.703 0.703q-0.328 0.281-0.727 0.281t-0.68-0.281l-0.75-0.703q-0.281-0.328-0.281-0.727t0.281-0.727l5.672-5.625q0.281-0.328 0.703-0.328t0.703 0.328l0.703 0.703q0.328 0.281 0.328 0.703t-0.328 0.703l-0.703 0.703 1.453 1.406q0.281-0.281 0.68-0.281t0.703 0.281 0.305 0.703-0.281 0.703l1.406 1.453 0.703-0.75q0.281-0.281 0.703-0.281t0.703 0.281l0.703 0.75q0.281 0.281 0.281 0.703t-0.281 0.703l-5.625 5.625q-0.328 0.328-0.75 0.328t-0.703-0.328l-0.703-0.703q-0.281-0.281-0.281-0.703t0.281-0.703l0.703-0.703-1.406-1.406-9.609 9.609q-0.281 0.281-0.703 0.281t-0.703-0.281-0.281-0.703 0.281-0.703zM20.016 21.984q0.797 0 1.383 0.586t0.586 1.43v0.984h-9.984v-0.984q0-0.844 0.586-1.43t1.43-0.586h6z"></path>
</svg>
