<!-- Generated by IcoMoon.io -->
<svg version="1.1" xmlns="http://www.w3.org/2000/svg" width="24" height="24" viewBox="0 0 24 24">
<title>gender_male</title>
<path d="M9 12q1.922 0 3.469 1.125l5.109-5.109h-4.594v-2.016h8.016v8.016h-2.016v-4.594l-5.109 5.063q1.125 1.594 1.125 3.516 0 1.641-0.797 3.023t-2.18 2.18-3.023 0.797-3.023-0.797-2.18-2.18-0.797-3.023 0.797-3.023 2.18-2.18 3.023-0.797zM9 14.016q-1.641 0-2.813 1.172t-1.172 2.813 1.172 2.813 2.813 1.172 2.813-1.172 1.172-2.813-1.172-2.813-2.813-1.172z"></path>
</svg>
