<!-- Generated by IcoMoon.io -->
<svg version="1.1" xmlns="http://www.w3.org/2000/svg" width="24" height="24" viewBox="0 0 24 24">
<title>gender_female</title>
<path d="M12 6.984q1.641 0 3.023 0.82t2.18 2.203 0.797 2.977q0 2.25-1.43 3.914t-3.586 2.039v2.063h2.016v2.016h-2.016v1.969h-1.969v-1.969h-2.016v-2.016h2.016v-2.063q-2.156-0.375-3.586-2.039t-1.43-3.914q0-1.594 0.797-2.977t2.18-2.203 3.023-0.82zM12 9q-1.641 0-2.813 1.172t-1.172 2.836 1.172 2.836 2.813 1.172 2.813-1.172 1.172-2.836-1.172-2.836-2.813-1.172z"></path>
</svg>
