<!-- Generated by IcoMoon.io -->
<svg version="1.1" xmlns="http://www.w3.org/2000/svg" width="24" height="24" viewBox="0 0 24 24">
<title>gender_male_female</title>
<path d="M17.578 6.984h-3.563v-1.969h6.984v6.984h-2.016v-3.609l-3.797 3.844q0.797 1.266 0.797 2.766 0 1.781-1.125 3.164t-2.859 1.758v2.063h2.016v2.016h-2.016v2.016h-2.016v-2.016h-1.969v-2.016h1.969v-2.063q-1.688-0.375-2.836-1.758t-1.148-3.164q0-0.984 0.375-1.898t1.078-1.617 1.617-1.102 1.945-0.398q1.5 0 2.719 0.844zM11.016 12q-1.266 0-2.133 0.867t-0.867 2.133 0.867 2.133 2.109 0.867 2.133-0.867 0.891-2.133-0.891-2.133-2.109-0.867z"></path>
</svg>
