<!-- Generated by IcoMoon.io -->
<svg version="1.1" xmlns="http://www.w3.org/2000/svg" width="24" height="24" viewBox="0 0 24 24">
<title>gesture_tap</title>
<path d="M9.984 12q0-0.422 0.305-0.703t0.727-0.281 0.703 0.281 0.281 0.703v4.453l1.219 0.141 4.922 2.203q0.422 0.188 0.633 0.539t0.211 0.82v4.359q0 0.609-0.445 1.031t-1.055 0.469h-6.469q-0.609 0-1.031-0.469l-4.875-4.172 0.75-0.797q0.281-0.281 0.703-0.281h0.234l3.188 1.688v-9.984zM11.016 8.016q1.641 0 2.813 1.172t1.172 2.813q0 1.125-0.539 2.039t-1.477 1.43v-1.219q1.031-0.891 1.031-2.203t-0.891-2.18-2.133-0.867-2.109 0.867-0.867 2.18 0.984 2.203v1.219q-0.938-0.516-1.477-1.43t-0.539-2.039q0-1.641 1.172-2.813t2.859-1.172z"></path>
</svg>
