<!-- Generated by IcoMoon.io -->
<svg version="1.1" xmlns="http://www.w3.org/2000/svg" width="24" height="24" viewBox="0 0 24 24">
<title>gesture_spread</title>
<path d="M3.984 3.984l3 3h-1.969v3h-2.016v-3h-2.016zM3.984 18l-3-3h2.016v-3h2.016v3h1.969zM12.984 12q0-0.422 0.305-0.703t0.727-0.281 0.703 0.281 0.281 0.703v4.453l1.219 0.141 4.922 2.203q0.422 0.188 0.633 0.539t0.211 0.82v4.359q0 0.609-0.445 1.031t-1.055 0.469h-6.469q-0.609 0-1.031-0.469l-4.875-4.172 0.75-0.797q0.281-0.281 0.703-0.281h0.234l3.188 1.688v-9.984zM14.016 8.016q1.031 0 1.969 0.539t1.453 1.43q0.844 1.453 0.422 3.047t-1.875 2.438v-1.219q1.031-0.891 1.031-2.25 0-1.266-0.891-2.133t-2.133-0.867-2.109 0.867-0.867 2.133q0 1.359 0.984 2.25v1.219q-0.938-0.563-1.477-1.477t-0.539-1.992q0-1.641 1.172-2.813t2.859-1.172zM9 17.016q1.078 0 2.016 0.516v1.219q-0.891-0.75-2.086-0.75t-2.063 0.867-0.867 2.133q0 0.75 0.328 1.383t0.891 1.055l2.109 1.547h-0.328q-1.641 0-2.813-1.172t-1.172-2.813 1.172-2.813 2.813-1.172z"></path>
</svg>
