<!-- Generated by IcoMoon.io -->
<svg version="1.1" xmlns="http://www.w3.org/2000/svg" width="24" height="24" viewBox="0 0 24 24">
<title>gesture_two_double_tap</title>
<path d="M18.984 18.141v6.375q0 0.609-0.445 1.031t-1.055 0.469h-6.469q-0.609 0-1.031-0.469l-4.875-4.172 0.75-0.797q0.281-0.281 0.703-0.281h0.234l3.188 1.688v-9.984q0-0.422 0.305-0.703t0.727-0.281 0.703 0.281 0.281 0.703v-2.016q0-0.422 0.281-0.703t0.703-0.281 0.727 0.281 0.305 0.703v5.016l4.125 1.828q0.375 0.188 0.609 0.539t0.234 0.773zM12.984 6q1.688 0 2.859 1.172t1.172 2.813q0 1.125-0.539 2.039t-1.477 1.43v-1.219q0.984-0.891 0.984-2.18t-0.867-2.18-2.133-0.891q-0.984 0-1.781 0.609t-1.078 1.547q-0.938 0.281-1.523 1.078t-0.586 1.781q0 1.359 0.984 2.25v1.219q-0.938-0.516-1.477-1.43t-0.539-2.063 0.656-2.133 1.688-1.5q0.516-1.031 1.5-1.688t2.156-0.656zM12.984 3.984q1.641 0 3.023 0.82t2.18 2.203 0.797 2.977q0 1.547-0.703 2.859t-1.922 2.109l-1.078-0.516q1.219-0.609 1.969-1.805t0.75-2.648q0-0.984-0.375-1.898t-1.078-1.617-1.617-1.078-1.945-0.375q-1.359 0-2.555 0.703t-1.805 1.875q-1.219 0.656-1.922 1.828t-0.703 2.578q0 1.5 0.82 2.742t2.18 1.852v1.078q-1.781-0.656-2.883-2.203t-1.102-3.469q0-1.594 0.773-2.953t2.086-2.156q0.797-1.313 2.156-2.109t2.953-0.797z"></path>
</svg>
