<!-- Generated by IcoMoon.io -->
<svg version="1.1" xmlns="http://www.w3.org/2000/svg" width="24" height="24" viewBox="0 0 24 24">
<title>gesture_swipe_vertical</title>
<path d="M3.984 6l-3 3h2.016v3h-2.016l3 3 3-3h-1.969v-3h1.969zM11.016 11.016q-0.422 0-0.727 0.281t-0.305 0.703v9.984l-3.188-1.688h-0.234q-0.422 0-0.703 0.281l-0.75 0.797 4.875 4.172q0.422 0.469 1.031 0.469h6.469q0.656 0 1.078-0.445t0.422-1.055v-4.359q0-0.469-0.211-0.82t-0.633-0.539l-4.922-2.203-1.219-0.141v-4.453q0-0.422-0.281-0.703t-0.703-0.281z"></path>
</svg>
