<!-- Generated by IcoMoon.io -->
<svg version="1.1" xmlns="http://www.w3.org/2000/svg" width="24" height="24" viewBox="0 0 24 24">
<title>gesture_two_tap</title>
<path d="M18.984 18.141v6.375q0 0.609-0.445 1.031t-1.055 0.469h-6.469q-0.609 0-1.031-0.469l-4.875-4.172 0.75-0.797q0.281-0.281 0.703-0.281h0.234l3.188 1.688v-9.984q0-0.422 0.305-0.703t0.727-0.281 0.703 0.281 0.281 0.703v-2.016q0-0.422 0.281-0.703t0.703-0.281 0.727 0.281 0.305 0.703v5.016l4.125 1.828q0.375 0.188 0.609 0.539t0.234 0.773zM15 13.453v-1.219q0.328-0.281 0.563-0.703 0.422-0.703 0.422-1.547 0-1.219-0.867-2.109t-2.063-0.891-2.086 0.844l-0.141 0.141q-0.234 0.188-0.375 0.422t-0.234 0.516l-0.094 0.234q-0.938 0.281-1.523 1.078t-0.586 1.805 0.609 1.805q0.094 0.141 0.328 0.375l0.047 0.047v1.219q-0.938-0.516-1.477-1.43t-0.539-2.063 0.656-2.133 1.688-1.5q0.516-1.031 1.5-1.688t2.156-0.656q1.688 0 2.859 1.172t1.172 2.813q0 1.125-0.539 2.039t-1.477 1.43v0z"></path>
</svg>
