<!-- Generated by IcoMoon.io -->
<svg version="1.1" xmlns="http://www.w3.org/2000/svg" width="24" height="24" viewBox="0 0 24 24">
<title>gesture_swipe_down</title>
<path d="M9.984 12q0-0.422 0.305-0.703t0.727-0.281 0.703 0.281 0.281 0.703v4.453l1.219 0.141 4.922 2.203q0.422 0.188 0.633 0.539t0.211 0.82v4.359q0 0.609-0.445 1.031t-1.055 0.469h-6.469q-0.609 0-1.031-0.469l-4.875-4.172 0.75-0.797q0.281-0.281 0.703-0.281h0.234l3.188 1.688v-9.984zM0.984 12l3 3 3-3h-1.969v-6h-2.016v6h-2.016z"></path>
</svg>
