<!-- Generated by IcoMoon.io -->
<svg version="1.1" xmlns="http://www.w3.org/2000/svg" width="24" height="24" viewBox="0 0 24 24">
<title>gift</title>
<path d="M9.047 4.922q-0.938 0-1.758 0.563t-1.172 1.5 0.070 2.016h-3.188q-0.844 0-1.43 0.586t-0.586 1.43v1.969q0 0.422 0.305 0.727t0.727 0.305h9v-3h1.969v3h9q0.422 0 0.727-0.305t0.305-0.727v-1.969q0-0.844-0.586-1.43t-1.43-0.586h-3.188q0.422-1.172 0-2.156t-1.406-1.5-2.039-0.305-1.805 1.195l-0.563 0.75-0.563-0.75q-0.891-1.266-2.391-1.313zM9 6.984q0.422 0 0.703 0.305t0.305 0.703-0.281 0.703-0.727 0.305-0.703-0.281-0.281-0.703 0.281-0.727 0.703-0.305zM15 6.984q0.422 0 0.703 0.305t0.305 0.703-0.281 0.703-0.727 0.305-0.703-0.281-0.281-0.703 0.281-0.727 0.703-0.305zM2.016 15v8.016q0 0.797 0.586 1.383t1.383 0.586h16.031q0.797 0 1.383-0.586t0.586-1.383v-8.016h-9v8.016h-1.969v-8.016h-9z"></path>
</svg>
