<!-- Generated by IcoMoon.io -->
<svg version="1.1" xmlns="http://www.w3.org/2000/svg" width="24" height="24" viewBox="0 0 24 24">
<title>gift_outline</title>
<path d="M21.984 15v8.016q0 0.797-0.586 1.383t-1.383 0.586h-16.031q-0.797 0-1.383-0.586t-0.586-1.383v-8.016q-0.422 0-0.727-0.281t-0.305-0.703v-3q0-0.844 0.586-1.43t1.43-0.586h3.188q-0.188-0.469-0.188-0.984 0-1.266 0.867-2.133t2.133-0.867q0.75 0 1.383 0.328t1.055 0.891v0l0.563 0.75 0.563-0.75q0.422-0.563 1.055-0.891t1.383-0.328q1.266 0 2.133 0.867t0.867 2.133q0 0.516-0.188 0.984h3.188q0.844 0 1.43 0.586t0.586 1.43v3q0 0.422-0.305 0.703t-0.727 0.281zM3.984 23.016h7.031v-8.016h-7.031v8.016zM20.016 23.016v-8.016h-7.031v8.016h7.031zM9 6.984q-0.422 0-0.703 0.305t-0.281 0.727 0.281 0.703 0.703 0.281 0.703-0.281 0.281-0.703-0.281-0.727-0.703-0.305zM15 6.984q-0.422 0-0.703 0.305t-0.281 0.727 0.281 0.703 0.703 0.281 0.703-0.281 0.281-0.703-0.281-0.727-0.703-0.305zM3 11.016v1.969h8.016v-1.969h-8.016zM12.984 11.016v1.969h8.016v-1.969h-8.016z"></path>
</svg>
