<!-- Generated by IcoMoon.io -->
<svg version="1.1" xmlns="http://www.w3.org/2000/svg" width="24" height="24" viewBox="0 0 24 24">
<title>glass_tulip</title>
<path d="M8.016 5.016h7.969q-0.328 0.656-0.422 1.125-0.141 0.75 0 1.875 0.094 0.469 0.328 1.547 0.328 1.547 0.422 2.25 0.141 1.266-0.047 1.922-0.141 0.469-0.563 0.891-0.234 0.234-0.797 0.633t-0.844 0.68q-0.469 0.422-0.75 0.938-0.563 1.125-0.633 3.023t0.398 3.023q0.328 0.797 0.984 1.078 0.375 0.188 1.078 0.234h0.281q0.375 0.047 0.516 0.281 0.047 0.141 0.047 0.469h-7.969q0-0.328 0.047-0.469 0.141-0.234 0.516-0.281h0.281q0.703-0.047 1.078-0.234 0.656-0.281 0.984-1.078 0.469-1.125 0.398-3.023t-0.633-3.023q-0.281-0.516-0.75-0.938-0.281-0.281-0.844-0.68t-0.797-0.633q-0.422-0.422-0.563-0.891-0.188-0.656-0.047-1.922 0.094-0.703 0.422-2.25 0.234-1.078 0.328-1.547 0.141-1.125 0-1.875-0.094-0.469-0.422-1.125v0zM9.984 6.984q0 1.453-0.328 3h4.594q-0.234-1.594-0.234-3h-4.031z"></path>
</svg>
