<!-- Generated by IcoMoon.io -->
<svg version="1.1" xmlns="http://www.w3.org/2000/svg" width="24" height="24" viewBox="0 0 24 24">
<title>glass_mug_variant</title>
<path d="M9.516 6q-1.453 0-2.625 0.844t-1.641 2.25q-1.406 0.234-2.32 1.359t-0.914 2.531q0 1.688 1.172 2.859t2.813 1.172v7.969h11.016v-1.969h3q0.375 0 0.68-0.305t0.305-0.727v-7.969q0-0.422-0.305-0.727t-0.68-0.305h-2.016v-1.969q0-1.688-1.172-2.859t-2.813-1.172h-1.688q-1.266-0.984-2.813-0.984zM9.516 8.016q0.563 0 1.102 0.258t0.867 0.727h2.531q0.797 0 1.383 0.586t0.586 1.43h-3.984q-1.359 0-2.203 0.75-0.563 0.469-1.313 1.875-0.516 0.938-1.547 1.219-0.516 0.188-0.938 0.141v0q-0.844 0-1.43-0.586t-0.586-1.406 0.586-1.406 1.43-0.586h0.984v-0.516q0-1.031 0.75-1.758t1.781-0.727zM17.016 15h1.969v6h-1.969v-6z"></path>
</svg>
