<!-- Generated by IcoMoon.io -->
<svg version="1.1" xmlns="http://www.w3.org/2000/svg" width="24" height="24" viewBox="0 0 24 24">
<title>glass_wine</title>
<path d="M15.516 24.281l-0.844-0.094q-0.563-0.047-1.031-0.398t-0.656-0.914q-0.797-3 0-6 1.781-0.375 2.906-1.734t1.125-3.141q0-0.891-0.516-2.719-0.375-1.266-0.984-2.906l-0.516-1.359h-6l-0.516 1.359q-0.609 1.641-0.984 2.906-0.516 1.828-0.516 2.719 0 1.781 1.125 3.164t2.906 1.758q0.797 3 0 6-0.188 0.516-0.633 0.867t-1.008 0.398l-0.984 0.141q-0.188 0.047-0.281 0.211t-0.094 0.445h7.969q0-0.422-0.234-0.609-0.141-0.094-0.234-0.094v0zM9.422 9.984l1.031-3h3.094l1.031 3h-5.156z"></path>
</svg>
