<!-- Generated by IcoMoon.io -->
<svg version="1.1" xmlns="http://www.w3.org/2000/svg" width="24" height="24" viewBox="0 0 24 24">
<title>glass_flute</title>
<path d="M8.016 5.016h7.969q-0.328 2.906-0.516 4.359-0.328 2.25-0.703 3.469-0.281 0.844-0.938 2.016-0.703 1.313-0.891 2.203-0.328 1.359-0.305 3.164t0.445 2.789q0.328 0.703 0.984 0.984 0.375 0.188 1.031 0.234h0.328q0.375 0.047 0.516 0.281 0.047 0.141 0.047 0.469h-7.969q0-0.328 0.047-0.469 0.141-0.234 0.516-0.281h0.328q0.656-0.047 1.031-0.234 0.656-0.281 0.984-0.984 0.422-0.984 0.445-2.789t-0.305-3.164q-0.188-0.891-0.891-2.203-0.656-1.172-0.938-2.016-0.375-1.219-0.703-3.469-0.188-1.453-0.516-4.359zM9.984 6.984q0.141 1.781 0.234 3h3.563q0.094-1.219 0.234-3h-4.031z"></path>
</svg>
