<!-- Generated by IcoMoon.io -->
<svg version="1.1" xmlns="http://www.w3.org/2000/svg" width="24" height="24" viewBox="0 0 24 24">
<title>google_circles_communities</title>
<path d="M15 15q-0.844 0-1.43 0.586t-0.586 1.406 0.586 1.406 1.43 0.586 1.43-0.586 0.586-1.406-0.586-1.406-1.43-0.586zM12 23.016q-2.156 0-4.008-1.078t-2.93-2.93-1.078-4.008q0-1.594 0.609-3.070t1.734-2.602 2.602-1.734 3.070-0.609 3.070 0.609 2.602 1.734 1.734 2.602 0.609 3.070q0 2.156-1.078 4.008t-2.93 2.93-4.008 1.078zM12 5.016q-1.969 0-3.82 0.75t-3.258 2.156-2.156 3.258-0.75 3.82 0.75 3.82 2.156 3.258 3.258 2.156 3.82 0.75 3.82-0.75 3.258-2.156 2.156-3.258 0.75-3.82-0.75-3.82-2.156-3.258-3.258-2.156-3.82-0.75zM14.016 12q0-0.844-0.586-1.43t-1.43-0.586-1.43 0.586-0.586 1.43 0.586 1.43 1.43 0.586 1.43-0.586 0.586-1.43zM9 15q-0.844 0-1.43 0.586t-0.586 1.406 0.586 1.406 1.43 0.586 1.43-0.586 0.586-1.406-0.586-1.406-1.43-0.586z"></path>
</svg>
