<!-- Generated by IcoMoon.io -->
<svg version="1.1" xmlns="http://www.w3.org/2000/svg" width="24" height="24" viewBox="0 0 24 24">
<title>google_circles_extended</title>
<path d="M18 21.984q-0.844 0-1.43-0.586t-0.586-1.406 0.586-1.406 1.43-0.586 1.43 0.586 0.586 1.406-0.586 1.406-1.43 0.586zM18 15.984q-1.641 0-2.813 1.172t-1.172 2.836 1.172 2.836 2.813 1.172 2.813-1.172 1.172-2.836-1.172-2.836-2.813-1.172zM12 14.109q-0.797 0-1.359 0.563t-0.563 1.336 0.563 1.336 1.359 0.563 1.359-0.563 0.563-1.336-0.563-1.336-1.359-0.563zM6 21.984q-0.844 0-1.43-0.586t-0.586-1.406 0.586-1.406 1.43-0.586 1.43 0.586 0.586 1.406-0.586 1.406-1.43 0.586zM6 15.984q-1.641 0-2.813 1.172t-1.172 2.836 1.172 2.836 2.813 1.172 2.813-1.172 1.172-2.836-1.172-2.836-2.813-1.172zM12 6.984q0.844 0 1.43 0.586t0.586 1.43-0.586 1.43-1.43 0.586-1.43-0.586-0.586-1.43 0.586-1.43 1.43-0.586zM12 12.984q1.641 0 2.813-1.172t1.172-2.813-1.172-2.813-2.813-1.172-2.813 1.172-1.172 2.813 1.172 2.813 2.813 1.172z"></path>
</svg>
