<!-- Generated by IcoMoon.io -->
<svg version="1.1" xmlns="http://www.w3.org/2000/svg" width="24" height="24" viewBox="0 0 24 24">
<title>google_assistant</title>
<path d="M6.984 5.016q-1.594 0-2.977 0.797t-2.203 2.18-0.82 3.023q0 1.172 0.469 2.273t1.313 1.945 1.945 1.313 2.297 0.469 2.297-0.469 1.945-1.313 1.289-1.945 0.445-2.273q0-1.641-0.797-3.023t-2.18-2.18-3.023-0.797zM21.516 9q-0.656 0-1.078 0.445t-0.422 1.055 0.422 1.055 1.055 0.445 1.078-0.445 0.445-1.055-0.445-1.055-1.055-0.445zM17.016 11.016q-1.266 0-2.133 0.867t-0.867 2.109 0.867 2.133 2.109 0.891 2.133-0.891 0.891-2.133-0.891-2.109-2.109-0.867zM17.016 18q-1.453 0-2.484 1.031t-1.031 2.484 1.031 2.461 2.484 1.008 2.461-1.008 1.008-2.461-1.008-2.484-2.461-1.031z"></path>
</svg>
