<!-- Generated by IcoMoon.io -->
<svg version="1.1" xmlns="http://www.w3.org/2000/svg" width="24" height="24" viewBox="0 0 24 24">
<title>graph_outline</title>
<path d="M19.5 20.016q-0.281 0-0.375 0.047l-1.641-3.281q0.75-0.75 0.75-1.781t-0.727-1.758-1.758-0.727q-0.234 0-0.422 0.047l-1.594-3.281q0.75-0.703 0.75-1.758t-0.727-1.781-1.758-0.727-1.758 0.727-0.727 1.781 0.75 1.758l-1.594 3.281q-0.188-0.047-0.422-0.047-1.031 0-1.758 0.727t-0.727 1.781 0.75 1.758l-1.641 3.281q-0.094-0.047-0.375-0.047-1.031 0-1.758 0.727t-0.727 1.758 0.727 1.758 1.758 0.727 1.758-0.727 0.727-1.781-0.75-1.758l1.641-3.281q0.141 0.047 0.375 0.047t0.375-0.047l1.641 3.281q-0.75 0.703-0.75 1.758t0.727 1.781 1.758 0.727 1.758-0.727 0.727-1.758-0.727-1.758-1.758-0.727q-0.281 0-0.375 0.047l-1.641-3.281q0.75-0.75 0.75-1.781t-0.75-1.781l1.641-3.281q0.094 0.047 0.375 0.047t0.375-0.047l1.641 3.281q-0.75 0.703-0.75 1.758t0.727 1.781 1.758 0.727q0.234 0 0.375-0.047l1.641 3.281q-0.75 0.703-0.75 1.758t0.727 1.781 1.758 0.727 1.758-0.727 0.727-1.758-0.727-1.758-1.758-0.727zM4.5 23.484q-0.422 0-0.703-0.281t-0.281-0.703 0.281-0.703 0.703-0.281 0.703 0.281 0.281 0.703-0.281 0.703-0.703 0.281zM12.984 22.5q0 0.422-0.281 0.703t-0.703 0.281-0.703-0.281-0.281-0.703 0.281-0.703 0.703-0.281 0.703 0.281 0.281 0.703zM7.266 15q0-0.422 0.281-0.703t0.703-0.281 0.703 0.281 0.281 0.703-0.281 0.703-0.703 0.281-0.703-0.281-0.281-0.703zM11.016 7.5q0-0.422 0.281-0.703t0.703-0.281 0.703 0.281 0.281 0.703-0.281 0.703-0.703 0.281-0.703-0.281-0.281-0.703zM14.766 15q0-0.422 0.281-0.703t0.703-0.281 0.703 0.281 0.281 0.703-0.281 0.703-0.703 0.281-0.703-0.281-0.281-0.703zM19.5 23.484q-0.422 0-0.703-0.281t-0.281-0.703 0.281-0.703 0.703-0.281 0.703 0.281 0.281 0.703-0.281 0.703-0.703 0.281z"></path>
</svg>
