<!-- Generated by IcoMoon.io -->
<svg version="1.1" xmlns="http://www.w3.org/2000/svg" width="24" height="24" viewBox="0 0 24 24">
<title>grid_off1</title>
<path d="M0 5.766l1.266-1.266 21.234 21.234-1.266 1.266-2.016-2.016h-15.234q-0.797 0-1.383-0.586t-0.586-1.383v-15.234zM9.984 6.984v3.703l-1.969-2.016v-1.688h-1.688l-2.016-1.969h15.703q0.797 0 1.383 0.586t0.586 1.383v15.703l-1.969-1.969v-1.734h-1.688l-2.016-1.969h3.703v-4.031h-4.031v3.703l-1.969-2.016v-1.688h-1.688l-2.016-1.969h3.703v-4.031h-4.031zM15.984 6.984v4.031h4.031v-4.031h-4.031zM15.984 23.016h1.266l-1.266-1.266v1.266zM3.984 11.016h1.266l-1.266-1.266v1.266zM9.984 17.016h1.266l-1.266-1.266v1.266zM14.016 23.016v-3.234l-0.797-0.797h-3.234v4.031h4.031zM8.016 23.016v-4.031h-4.031v4.031h4.031zM8.016 17.016v-3.234l-0.797-0.797h-3.234v4.031h4.031z"></path>
</svg>
