<!-- Generated by IcoMoon.io -->
<svg version="1.1" xmlns="http://www.w3.org/2000/svg" width="24" height="24" viewBox="0 0 24 24">
<title>grid</title>
<path d="M9.984 6.984v4.031h4.031v-4.031h-4.031zM15.984 6.984v4.031h4.031v-4.031h-4.031zM15.984 12.984v4.031h4.031v-4.031h-4.031zM15.984 18.984v4.031h4.031v-4.031h-4.031zM14.016 23.016v-4.031h-4.031v4.031h4.031zM8.016 23.016v-4.031h-4.031v4.031h4.031zM8.016 17.016v-4.031h-4.031v4.031h4.031zM8.016 11.016v-4.031h-4.031v4.031h4.031zM9.984 17.016h4.031v-4.031h-4.031v4.031zM3.984 5.016h16.031q0.797 0 1.383 0.586t0.586 1.383v16.031q0 0.797-0.586 1.383t-1.383 0.586h-16.031q-0.797 0-1.383-0.586t-0.586-1.383v-16.031q0-0.797 0.586-1.383t1.383-0.586z"></path>
</svg>
