<!-- Generated by IcoMoon.io -->
<svg version="1.1" xmlns="http://www.w3.org/2000/svg" width="24" height="24" viewBox="0 0 24 24">
<title>guy_fawkes_mask</title>
<path d="M21 15.984q0 2.438-1.219 4.523t-3.281 3.281-4.5 1.195-4.5-1.195-3.281-3.281-1.219-4.523l0.047-8.531q4.125-2.438 8.953-2.438t9 2.344v8.625zM12.984 22.922q1.688-0.234 3.070-1.219t2.156-2.484 0.773-3.234v-7.406q-3.281-1.594-6.984-1.594t-7.078 1.688l0.094 7.313q0 1.734 0.797 3.234t2.156 2.484 3.047 1.219v-1.922h1.969v1.922zM11.016 18.984h-3l-2.016-3 3 1.031h0.984l1.031-1.031h1.969l1.031 1.031h0.984l3-1.031-2.016 3h-3l-0.984-0.984zM6 12.047q0.984-0.984 2.484-0.984t2.531 0.984q-1.031 0.938-2.531 0.938t-2.484-0.938zM12.984 12.047q1.031-0.984 2.508-0.984t2.508 0.984q-1.031 0.938-2.508 0.938t-2.508-0.938z"></path>
</svg>
