<!-- Generated by IcoMoon.io -->
<svg version="1.1" xmlns="http://www.w3.org/2000/svg" width="24" height="24" viewBox="0 0 24 24">
<title>hamburger</title>
<path d="M2.016 18.984h19.969v2.016q0 0.844-0.586 1.43t-1.383 0.586h-16.031q-0.797 0-1.383-0.586t-0.586-1.43v-2.016zM6 6.984h12q1.688 0 2.836 1.172t1.148 2.859v1.969h-19.969v-1.969q0-1.688 1.148-2.859t2.836-1.172zM3.984 14.016h11.016l2.016 1.969 1.969-1.969h1.031q0.797 0 1.383 0.586t0.586 1.406-0.586 1.406-1.383 0.586h-16.031q-0.797 0-1.383-0.586t-0.586-1.406 0.586-1.406 1.383-0.586z"></path>
</svg>
