<!-- Generated by IcoMoon.io -->
<svg version="1.1" xmlns="http://www.w3.org/2000/svg" width="24" height="24" viewBox="0 0 24 24">
<title>hand_left</title>
<path d="M3 9.563v12.094q0 1.406 0.984 2.367t2.344 0.961h6.094q1.406 0 2.391-0.984l6.516-6.656-1.078-1.031q-0.281-0.234-0.656-0.234-0.281 0-0.516 0.141l-3.563 2.063v-9.938q0-0.516-0.375-0.891t-0.891-0.375-0.891 0.375-0.375 0.891v5.813h-0.797v-7.922q0-0.516-0.375-0.867t-0.891-0.352-0.891 0.352-0.375 0.867v7.922h-0.844v-7.078q0-0.516-0.352-0.891t-0.867-0.375-0.891 0.375-0.375 0.891v7.078h-0.844v-4.594q0-0.516-0.352-0.867t-0.867-0.352-0.891 0.352-0.375 0.867z"></path>
</svg>
