<!-- Generated by IcoMoon.io -->
<svg version="1.1" xmlns="http://www.w3.org/2000/svg" width="24" height="24" viewBox="0 0 24 24">
<title>hand</title>
<path d="M6.563 21.984h8.016v3h-8.016v-3zM19.734 14.578q-0.281-0.281-0.75-0.281h-0.188l-3.234 1.688v-1.172l0.516-8.906q0.047-0.422-0.234-0.727t-0.703-0.328-0.727 0.258-0.305 0.656l-0.281 4.688h-0.234l-1.031 0.141v-5.578q0-0.422-0.305-0.727t-0.703-0.305-0.703 0.305-0.305 0.727v6.375l-0.844 0.375-0.656-5.438q-0.047-0.422-0.375-0.68t-0.75-0.211-0.68 0.375-0.211 0.75l0.797 6.047-0.375 0.188q-0.141 0.047-0.375 0.188v0l-1.125-3.891q-0.094-0.422-0.469-0.633t-0.773-0.117-0.586 0.492-0.094 0.82l2.672 9.328q0.141 0.469 0.539 0.75t0.82 0.281h6.516q0.609 0 0.984-0.469l4.922-4.172z"></path>
</svg>
