<!-- Generated by IcoMoon.io -->
<svg version="1.1" xmlns="http://www.w3.org/2000/svg" width="24" height="24" viewBox="0 0 24 24">
<title>hand_peace</title>
<path d="M6.984 21.984h8.016v3h-8.016v-3zM16.172 15v0l-3.188-1.641q-0.234 0-0.375 0.141l-0.328 0.328 0.609 2.391-0.984 0.234-1.172-4.969-1.5 0.703 1.078 4.266-0.984 0.234-1.031-4.078-0.469 0.188q-0.375 0.141-0.609 0.516t-0.234 0.844v4.359q0 0.563 0.469 1.031t1.031 0.469h6.516q0.563 0 0.984-0.469l0.516-0.375 0.234-0.234q0.281-0.328 0.281-0.563v-1.688l-0.047-0.281q-0.047-0.422-0.234-0.703-0.188-0.469-0.563-0.703zM16.922 3.984q-0.375-0.047-0.727 0.188t-0.445 0.609l-1.078 6.188-0.234-0.047q-0.188-0.094-0.375-0.094l-0.422 0.047-1.219-6.094q-0.094-0.375-0.445-0.609t-0.75-0.164-0.633 0.422-0.141 0.773l1.219 5.906 0.328 1.547q0.469-0.328 0.984-0.328h0.328l3 1.641 1.406-8.766q0.094-0.422-0.141-0.773t-0.656-0.445z"></path>
</svg>
