<!-- Generated by IcoMoon.io -->
<svg version="1.1" xmlns="http://www.w3.org/2000/svg" width="24" height="24" viewBox="0 0 24 24">
<title>hand_okay</title>
<path d="M13.313 22.266l5.625-5.672 2.156 2.156-5.672 5.625zM16.5 14.109l-3.094-3.047q-0.188-0.188-0.422-0.281l-1.125-4.313q-0.094-0.422-0.445-0.633t-0.75-0.094-0.609 0.469-0.117 0.727l1.078 4.078-2.344-4.828q-0.188-0.375-0.563-0.516t-0.75 0.047-0.516 0.563 0.047 0.75l1.688 3.563-3.375-3.328q-0.328-0.328-0.727-0.328t-0.703 0.305-0.305 0.727 0.328 0.703l3.703 3.703-1.781 0.703-1.922 1.313-0.422 0.563q-0.422 0.656-0.469 0.938t0.375 1.5l0.469 1.219q0.234 0.563 0.891 0.563 0.422 0 0.703-0.281t0.281-0.703q0-0.094-0.047-0.234v-0.047l-0.563-1.734 1.219-0.984 1.969 0.141q0.938 0.844 1.172 1.547 0.188 0.609-0.094 1.078-0.188 0.328-0.563 0.609l-0.375 0.188-3.469 1.031-0.141 0.141q-0.328 0.281-0.328 0.75l0.047 1.078 6.422-0.516q0.563 0.047 1.031-0.375l4.594-4.594q0.422-0.422 0.422-1.078t-0.422-1.078z"></path>
</svg>
