<!-- Generated by IcoMoon.io -->
<svg version="1.1" xmlns="http://www.w3.org/2000/svg" width="24" height="24" viewBox="0 0 24 24">
<title>hand_right</title>
<path d="M21 9.563v12.094q0 1.406-0.984 2.367t-2.344 0.961h-6.094q-1.406 0-2.391-0.984l-6.516-6.656 1.078-1.031q0.281-0.234 0.656-0.234 0.281 0 0.516 0.141l3.563 2.063v-9.938q0-0.516 0.375-0.891t0.891-0.375 0.891 0.375 0.375 0.891v5.813h0.797v-7.922q0-0.516 0.375-0.867t0.891-0.352 0.891 0.352 0.375 0.867v7.922h0.844v-7.078q0-0.516 0.352-0.891t0.867-0.375 0.891 0.375 0.375 0.891v7.078h0.844v-4.594q0-0.516 0.352-0.867t0.867-0.352 0.891 0.352 0.375 0.867z"></path>
</svg>
