<!-- Generated by IcoMoon.io -->
<svg version="1.1" xmlns="http://www.w3.org/2000/svg" width="24" height="24" viewBox="0 0 24 24">
<title>hat_fedora</title>
<path d="M19.125 14.906v-0.609q0-1.688-0.398-3.352t-1.078-2.742-1.383-1.078q-0.469 0-1.078 0.234-0.328 0.141-1.055 0.492t-1.055 0.492q-0.609 0.234-1.078 0.234t-1.078-0.234q-0.375-0.141-1.078-0.492t-1.078-0.492q-0.563-0.234-1.078-0.234-0.656 0-1.336 1.055t-1.078 2.719-0.398 3.398v0.609q3.563 0.797 7.172 0.797t7.078-0.797zM3.469 21.188q4.172 1.266 8.531 1.266t8.531-1.266q0.656-0.234 1.055-0.797t0.398-1.219-0.398-1.242-1.008-0.773q-4.125 1.313-8.578 1.313t-8.578-1.313q-0.609 0.188-1.008 0.75t-0.398 1.266 0.398 1.242 1.055 0.773v0z"></path>
</svg>
