<!-- Generated by IcoMoon.io -->
<svg version="1.1" xmlns="http://www.w3.org/2000/svg" width="24" height="24" viewBox="0 0 24 24">
<title>headset_off1</title>
<path d="M1.5 7.781l2.063 2.063q-0.563 1.5-0.563 3.141v10.031q0 1.219 0.867 2.109t2.133 0.891h6v-2.016h-6.984v-0.984h3.984v-7.734l6 6v1.734h1.734l2.484 2.484 1.266-1.266-17.719-17.719zM12 3.984q-1.875 0-3.539 0.727t-2.93 1.992l1.406 1.453q0.984-1.031 2.297-1.594t2.766-0.563q1.922 0 3.516 0.938t2.531 2.555 0.938 3.492v2.016h-3.984v1.172l5.484 5.484q0.516-0.75 0.516-1.641v-7.031q0-2.438-1.219-4.5t-3.281-3.281-4.5-1.219zM5.016 15v-2.016q0-0.75 0.141-1.547l3.563 3.563h-3.703z"></path>
</svg>
