<!-- Generated by IcoMoon.io -->
<svg version="1.1" xmlns="http://www.w3.org/2000/svg" width="24" height="24" viewBox="0 0 24 24">
<title>headset1</title>
<path d="M12 3.984q-2.438 0-4.523 1.219t-3.281 3.281-1.195 4.5v7.031q0 1.219 0.867 2.109t2.133 0.891h3v-8.016h-3.984v-2.016q0-1.875 0.938-3.492t2.531-2.555 3.516-0.938 3.516 0.938 2.531 2.555 0.938 3.492v2.016h-3.984v8.016h3.984v0.984h-6.984v2.016h6q1.266 0 2.133-0.891t0.867-2.109v-10.031q0-2.438-1.219-4.5t-3.281-3.281-4.5-1.219z"></path>
</svg>
