<!-- Generated by IcoMoon.io -->
<svg version="1.1" xmlns="http://www.w3.org/2000/svg" width="24" height="24" viewBox="0 0 24 24">
<title>headphones_off</title>
<path d="M12 3.984q2.438 0 4.5 1.219t3.281 3.281 1.219 4.5v7.031q0 0.891-0.516 1.641l-5.484-5.484v-1.172h3.984v-2.016q0-1.875-0.938-3.492t-2.531-2.555-3.516-0.938q-1.453 0-2.766 0.563t-2.297 1.594l-1.406-1.453q1.266-1.266 2.93-1.992t3.539-0.727zM2.766 6.516l17.719 17.719-1.266 1.266-2.484-2.484h-1.734v-1.734l-6-6v7.734h-3q-1.266 0-2.133-0.891t-0.867-2.109v-7.031q0-1.641 0.563-3.141l-2.063-2.063zM5.156 11.438q-0.141 0.797-0.141 1.547v2.016h3.703z"></path>
</svg>
