<!-- Generated by IcoMoon.io -->
<svg version="1.1" xmlns="http://www.w3.org/2000/svg" width="24" height="24" viewBox="0 0 24 24">
<title>help1</title>
<path d="M9.984 21.984h3v3h-3v-3zM12 5.016q2.578 0.094 4.266 1.688 1.547 1.5 1.664 3.75t-1.43 4.219q-0.422 0.516-1.5 1.313-0.984 0.797-1.313 1.172-0.469 0.563-0.609 1.359-0.094 0.469-0.094 1.5h-3q0-1.641 0.094-2.297 0.141-1.125 0.609-1.781 0.281-0.469 0.844-0.938 0.328-0.234 1.008-0.68t0.961-0.633q1.172-1.125 1.406-2.414t-0.539-2.227-2.367-1.031q-1.266 0-2.133 0.867t-0.867 2.133h-3q0-1.641 0.797-3.023t2.18-2.18 3.023-0.797z"></path>
</svg>
