<!-- Generated by IcoMoon.io -->
<svg version="1.1" xmlns="http://www.w3.org/2000/svg" width="24" height="24" viewBox="0 0 24 24">
<title>help_box</title>
<path d="M11.016 21h1.969v-2.016h-1.969v2.016zM12 9q-1.641 0-2.813 1.172t-1.172 2.813h1.969q0-0.797 0.586-1.383t1.43-0.586 1.43 0.586 0.586 1.383q0 0.609-0.375 1.078-0.234 0.281-0.891 0.75-0.844 0.656-1.172 1.172-0.563 0.797-0.563 2.016h1.969q0-0.75 0.469-1.359 0.281-0.375 1.031-1.031t1.031-1.078q0.469-0.656 0.469-1.547 0-1.641-1.172-2.813t-2.813-1.172zM5.016 6h13.969q0.844 0 1.43 0.586t0.586 1.43v13.969q0 0.844-0.586 1.43t-1.43 0.586h-13.969q-0.844 0-1.43-0.586t-0.586-1.43v-13.969q0-0.844 0.586-1.43t1.43-0.586z"></path>
</svg>
