<!-- Generated by IcoMoon.io -->
<svg version="1.1" xmlns="http://www.w3.org/2000/svg" width="24" height="24" viewBox="0 0 24 24">
<title>hexagon_multiple_outline</title>
<path d="M9.375 6.984l1.406 2.531-1.406 2.484h-2.766l-1.359-2.484 1.359-2.531h2.766zM10.266 5.016h-4.5q-0.328 0-0.469 0.234l-2.203 3.984-0.094 0.281 0.094 0.281 2.203 3.938q0.141 0.281 0.469 0.281h4.5q0.281 0 0.422-0.281l2.203-3.938 0.094-0.281-0.094-0.281-2.203-3.984q-0.141-0.234-0.422-0.234zM18.609 12.516l1.406 2.484-1.406 2.484h-2.719l-1.406-2.484 1.406-2.484h2.719zM19.5 10.5h-4.5q-0.281 0-0.422 0.281l-2.25 3.938-0.094 0.281 0.094 0.281 2.25 3.938q0.141 0.281 0.422 0.281h4.5q0.281 0 0.422-0.281l2.25-3.938 0.094-0.281-0.094-0.281-2.25-3.938q-0.141-0.281-0.422-0.281zM9.375 18l1.406 2.484-1.406 2.531h-2.766l-1.359-2.531 1.359-2.484h2.766zM10.266 15.984h-4.5q-0.328 0-0.469 0.281l-2.203 3.938-0.094 0.281 0.094 0.281 2.203 3.984q0.141 0.234 0.469 0.234h4.5q0.281 0 0.422-0.234l2.203-3.984 0.094-0.281-0.094-0.281-2.203-3.938q-0.141-0.281-0.422-0.281z"></path>
</svg>
