<!-- Generated by IcoMoon.io -->
<svg version="1.1" xmlns="http://www.w3.org/2000/svg" width="24" height="24" viewBox="0 0 24 24">
<title>hexagon_multiple</title>
<path d="M10.266 5.016q0.281 0 0.422 0.234l2.203 3.984 0.094 0.281-0.094 0.281-2.203 3.938q-0.141 0.281-0.422 0.281h-4.5q-0.328 0-0.469-0.281l-2.203-3.938-0.094-0.281 0.094-0.281 2.203-3.984q0.141-0.234 0.469-0.234h4.5zM10.266 15.984q0.281 0 0.422 0.281l2.203 3.938 0.094 0.281-0.094 0.281-2.203 3.984q-0.141 0.234-0.422 0.234h-4.5q-0.328 0-0.469-0.234l-2.203-3.984-0.094-0.281 0.094-0.281 2.203-3.938q0.141-0.281 0.469-0.281h4.5zM19.5 10.5q0.281 0 0.422 0.281l2.25 3.938 0.094 0.281-0.094 0.281-2.25 3.938q-0.141 0.281-0.422 0.281h-4.5q-0.281 0-0.422-0.281l-2.25-3.938-0.094-0.281 0.094-0.281 2.25-3.938q0.141-0.281 0.422-0.281h4.5z"></path>
</svg>
