<!-- Generated by IcoMoon.io -->
<svg version="1.1" xmlns="http://www.w3.org/2000/svg" width="24" height="24" viewBox="0 0 24 24">
<title>hiking</title>
<path d="M9.797 11.906l-2.813 14.109h2.109l1.828-8.016 2.063 2.016v6h2.016v-7.5l-2.109-2.016 0.609-3q0.844 0.984 2.063 1.641t2.578 0.797l-2.156 10.078h1.031l3-14.016-0.984-0.188-0.469 2.203q-1.266-0.141-2.273-0.773t-1.57-1.664l-1.031-1.594q-0.281-0.516-0.797-0.773t-1.172-0.164-1.102 0.516-0.539 1.031zM7.078 9.938l2.344 0.422-1.031 5.109-2.297-0.469zM13.5 8.484q0.844 0 1.43-0.586t0.586-1.406-0.586-1.406-1.43-0.586-1.43 0.586-0.586 1.406 0.586 1.406 1.43 0.586z"></path>
</svg>
