<!-- Generated by IcoMoon.io -->
<svg version="1.1" xmlns="http://www.w3.org/2000/svg" width="24" height="24" viewBox="0 0 24 24">
<title>history</title>
<path d="M13.5 11.016h-1.5v4.969l4.266 2.578 0.75-1.219-3.516-2.109v-4.219zM12.984 6q-2.438 0-4.5 1.219t-3.281 3.281-1.219 4.5h-3l3.984 4.031 4.031-4.031h-3q0-1.406 0.539-2.695t1.523-2.273 2.273-1.5 2.672-0.516 2.672 0.516 2.273 1.5 1.523 2.273 0.539 2.695q0 1.922-0.961 3.516t-2.555 2.531-3.516 0.938q-1.406 0-2.672-0.539t-2.25-1.523l-1.406 1.453q1.219 1.219 2.859 1.922t3.469 0.703q2.438 0 4.523-1.219t3.281-3.281 1.195-4.5-1.195-4.5-3.281-3.281-4.523-1.219z"></path>
</svg>
