<!-- Generated by IcoMoon.io -->
<svg version="1.1" xmlns="http://www.w3.org/2000/svg" width="24" height="24" viewBox="0 0 24 24">
<title>hockey_puck</title>
<path d="M12 8.016q-2.719 0-5.016 0.469t-3.633 1.266-1.336 1.758 1.336 1.758 3.633 1.266 5.016 0.469 5.016-0.469 3.633-1.266 1.336-1.758-1.336-1.758-3.633-1.266-5.016-0.469zM2.016 14.766v4.734q0 0.938 1.336 1.758t3.633 1.289 5.016 0.469 5.016-0.469 3.633-1.289 1.336-1.758v-4.734q-0.938 0.656-2.25 1.078-3.234 1.172-7.734 1.172t-7.734-1.172q-1.313-0.422-2.25-1.078z"></path>
</svg>
