<!-- Generated by IcoMoon.io -->
<svg version="1.1" xmlns="http://www.w3.org/2000/svg" width="24" height="24" viewBox="0 0 24 24">
<title>home_assistant</title>
<path d="M21.797 15.984h-1.781v8.016h-7.031v-3.328l2.813-2.813 0.703 0.141q0.891 0 1.5-0.609t0.609-1.477-0.609-1.5-1.5-0.633-1.5 0.633-0.609 1.477l0.094 0.703-1.5 1.547v-5.484q0.516-0.281 0.82-0.773t0.305-1.102q0-0.844-0.609-1.453t-1.5-0.609-1.5 0.609-0.609 1.453q0 0.609 0.305 1.102t0.82 0.773v5.484l-1.5-1.547 0.094-0.703q0-0.844-0.609-1.477t-1.5-0.633-1.5 0.633-0.609 1.5 0.609 1.477 1.5 0.609l0.703-0.141 2.813 2.813v3.328h-7.031v-8.016h-2.297q-0.281-0.047-0.258-0.234t0.867-1.031l8.719-8.719q0.656-0.656 0.984-0.656t0.984 0.656l4.031 3.984v-0.984h1.969v3l2.813 2.766q0.797 0.844 0.797 1.008t-0.188 0.188-0.609 0.023zM7.5 15q0.375 0 0.633 0.258t0.258 0.633-0.258 0.633-0.633 0.258-0.633-0.258-0.258-0.633 0.258-0.633 0.633-0.258zM16.5 15q0.375 0 0.633 0.258t0.258 0.633-0.258 0.633-0.633 0.258-0.633-0.258-0.258-0.633 0.258-0.633 0.633-0.258zM12 9.891q0.375 0 0.633 0.258t0.258 0.633-0.258 0.656-0.633 0.281-0.633-0.281-0.258-0.656 0.258-0.633 0.633-0.258z"></path>
</svg>
