<!-- Generated by IcoMoon.io -->
<svg version="1.1" xmlns="http://www.w3.org/2000/svg" width="24" height="24" viewBox="0 0 24 24">
<title>home_circle_outline</title>
<path d="M12 23.016q-2.156 0-4.008-1.078t-2.93-2.93-1.078-4.008 1.078-4.008 2.93-2.93 4.008-1.078 4.008 1.078 2.93 2.93 1.078 4.008-1.078 4.008-2.93 2.93-4.008 1.078zM12 5.016q-2.719 0-5.016 1.336t-3.633 3.633-1.336 5.016 1.336 5.016 3.633 3.633 5.016 1.336 5.016-1.336 3.633-3.633 1.336-5.016-1.336-5.016-3.633-3.633-5.016-1.336zM11.016 17.016h1.969v3h3v-5.016h2.016l-6-5.016-6 5.016h2.016v5.016h3v-3z"></path>
</svg>
