<!-- Generated by IcoMoon.io -->
<svg version="1.1" xmlns="http://www.w3.org/2000/svg" width="24" height="24" viewBox="0 0 24 24">
<title>home_map_marker</title>
<path d="M12 6l-9.984 9h3v8.016h13.969v-8.016h3zM12 10.688q1.594 0 2.695 1.125t1.102 2.672q0 1.875-1.875 4.406-0.984 1.219-1.922 2.109l-0.609-0.609q-0.703-0.75-1.313-1.5-0.797-1.125-1.266-2.109-0.609-1.266-0.609-2.297 0-1.547 1.102-2.672t2.695-1.125zM12 12.984q-0.609 0-1.055 0.445t-0.445 1.078 0.445 1.055 1.055 0.422 1.055-0.422 0.445-1.055-0.445-1.078-1.055-0.445z"></path>
</svg>
