<!-- Generated by IcoMoon.io -->
<svg version="1.1" xmlns="http://www.w3.org/2000/svg" width="24" height="24" viewBox="0 0 24 24">
<title>home_currency_usd</title>
<path d="M12 6l9.984 9h-3v8.016h-13.969v-8.016h-3zM9.234 11.953q-0.75 0.703-0.75 1.805t1.172 1.805q0.656 0.422 2.063 0.891h0.047q1.5 0.469 1.734 0.797 0 0.469-0.703 0.656-0.328 0.094-0.797 0.094v0q-0.75 0-1.125-0.211t-0.375-0.773h-2.016q0 1.734 1.359 2.484 0.516 0.281 1.172 0.422v1.078h1.969v-1.078q1.172-0.234 1.852-0.938t0.68-1.758-1.031-1.758q-0.656-0.469-2.109-0.914t-1.875-0.773v-0.047q0-0.234 0.141-0.375 0.328-0.375 1.359-0.375v0q1.5 0 1.5 0.75h2.016q0-1.031-0.68-1.734t-1.852-0.891v-1.125h-1.969v1.078q-1.125 0.234-1.781 0.891z"></path>
</svg>
