<!-- Generated by IcoMoon.io -->
<svg version="1.1" xmlns="http://www.w3.org/2000/svg" width="24" height="24" viewBox="0 0 24 24">
<title>home_automation</title>
<path d="M12 6l-9.984 9h3v8.016h13.969v-8.016h3zM12 11.484q1.734 0 3.281 0.656t2.719 1.781l-1.219 1.219q-0.891-0.938-2.133-1.453t-2.648-0.516-2.648 0.516-2.133 1.453l-1.219-1.219q1.172-1.125 2.719-1.781t3.281-0.656zM12 14.813q2.109 0 3.609 1.5l-1.219 1.172q-0.984-0.984-2.391-0.984t-2.391 0.984l-1.219-1.172q1.5-1.5 3.609-1.5zM12 18.188q0.703 0 1.195 0.469t0.492 1.172-0.492 1.195-1.195 0.492-1.195-0.492-0.492-1.195 0.492-1.172 1.195-0.469z"></path>
</svg>
