<!-- Generated by IcoMoon.io -->
<svg version="1.1" xmlns="http://www.w3.org/2000/svg" width="24" height="24" viewBox="0 0 24 24">
<title>hops</title>
<path d="M21 15q-0.422-0.141-0.891-0.281-1.078-0.375-2.109-0.938-1.406-0.797-2.531-1.828-1.359-1.266-2.063-2.859-0.891-1.875-0.891-4.078l0.891 0.047q1.078 0.188 2.063 0.563 1.453 0.563 2.531 1.547 1.359 1.172 2.109 2.953 0.891 2.063 0.891 4.875zM3 15q0-2.813 0.891-4.875 0.75-1.781 2.109-2.953 1.078-0.984 2.531-1.547 0.984-0.375 2.063-0.563l0.891-0.047q0 3.563-2.203 6.141-1.547 1.828-4.078 3.047-1.266 0.563-2.203 0.797v0zM12 9.516q0.188 0.281 0.328 0.609 0.469 0.797 0.984 1.5 0.797 1.078 1.688 1.875-0.094 1.266-0.563 2.391-0.375 0.938-1.031 1.734-0.469 0.563-0.984 1.031l-0.422 0.328-0.422-0.328q-0.516-0.469-0.984-1.031-0.656-0.797-1.031-1.734-0.469-1.125-0.563-2.391 1.266-1.172 2.25-2.672 0.516-0.797 0.75-1.313v0zM20.766 16.266l-0.281 1.031q-0.375 1.266-0.891 2.344-0.703 1.453-1.594 2.344l-0.703-0.516q-0.797-0.656-1.5-1.453-0.938-1.078-1.453-2.203 0.844-1.5 1.406-3.703 2.344 1.828 5.016 2.156zM15.516 21.234q-0.469 0.891-1.359 1.828-0.656 0.609-1.453 1.219l-0.703 0.469-0.703-0.469q-0.797-0.609-1.453-1.219-0.891-0.938-1.359-1.828l0.328-0.281q0.375-0.375 0.703-0.844 0.516-0.609 0.844-1.313 0.75 0.938 1.641 1.219 0.891-0.281 1.641-1.219 0.469 0.984 1.219 1.828 0.375 0.375 0.656 0.609v0zM3.234 16.266q2.672-0.328 5.016-2.156 0.563 2.203 1.406 3.703-0.75 1.594-2.25 3.047-0.797 0.75-1.406 1.125v0q-1.266-1.219-2.109-3.609-0.469-1.172-0.656-2.109v0z"></path>
</svg>
