<!-- Generated by IcoMoon.io -->
<svg version="1.1" xmlns="http://www.w3.org/2000/svg" width="24" height="24" viewBox="0 0 24 24">
<title>horizontal_rotate_clockwise</title>
<path d="M12 17.016l-3.984-4.031-4.031 4.031h3.094q0.234 2.25 0.938 4.078t1.758 2.859 2.227 1.031 2.227-1.031 1.758-2.859 0.938-4.078h-2.016q-0.234 2.625-1.055 4.313t-1.852 1.688-1.852-1.688-1.055-4.313h2.906zM12 6.984q1.031 0 1.852 1.688t1.055 4.313h2.016q-0.234-2.25-0.938-4.078t-1.758-2.859-2.227-1.031q-1.594 0-2.883 1.828t-1.805 4.734l0.703-0.703 1.172 1.219q0.328-2.25 1.102-3.68t1.711-1.43zM21.984 15.984v-1.969h-10.969l1.969 1.969h9zM2.016 15.984h0.984l2.016-1.969h-3v1.969z"></path>
</svg>
