<!-- Generated by IcoMoon.io -->
<svg version="1.1" xmlns="http://www.w3.org/2000/svg" width="24" height="24" viewBox="0 0 24 24">
<title>horizontal_rotate_counterclockwise</title>
<path d="M12 12.984h-2.906q0.234-2.625 1.055-4.313t1.852-1.688 1.852 1.688 1.055 4.313h2.016q-0.234-2.25-0.938-4.078t-1.758-2.859-2.227-1.031-2.227 1.031-1.758 2.859-0.938 4.078h-3.094l4.031 4.031zM12 23.016q-0.938 0-1.711-1.43t-1.102-3.68l-1.172 1.219-0.703-0.703q0.516 2.906 1.805 4.734t2.883 1.828q1.172 0 2.227-1.031t1.758-2.859 0.938-4.078h-2.016q-0.234 2.625-1.055 4.313t-1.852 1.688zM21.984 14.016h-9l-1.969 1.969h10.969v-1.969zM2.016 15.984h3l-2.016-1.969h-0.984v1.969z"></path>
</svg>
