<!-- Generated by IcoMoon.io -->
<svg version="1.1" xmlns="http://www.w3.org/2000/svg" width="24" height="24" viewBox="0 0 24 24">
<title>hospital_building</title>
<path d="M2.016 24.984v-15q0-0.422 0.281-0.703t0.703-0.281h3.984v-3.984h10.031v3.984h3.984q0.422 0 0.703 0.281t0.281 0.703v15h-7.969v-4.969h-4.031v4.969h-7.969zM9 6.984v6h2.016v-1.969h1.969v1.969h2.016v-6h-2.016v2.016h-1.969v-2.016h-2.016zM3.984 23.016h4.031v-3h-4.031v3zM3.984 18h4.031v-3h-4.031v3zM15.984 23.016h4.031v-3h-4.031v3zM15.984 18h4.031v-3h-4.031v3zM9.984 18h4.031v-3h-4.031v3z"></path>
</svg>
