<!-- Generated by IcoMoon.io -->
<svg version="1.1" xmlns="http://www.w3.org/2000/svg" width="24" height="24" viewBox="0 0 24 24">
<title>human_male_height_variant</title>
<path d="M6.984 5.016q0.891 0 1.453 0.586t0.586 1.406-0.586 1.43-1.43 0.586-1.406-0.586-0.586-1.406 0.586-1.43 1.383-0.586zM5.484 9.984h3q0.844 0 1.43 0.586t0.586 1.43v5.484h-1.5v7.5h-3.984v-7.5h-1.5v-5.484q0-0.844 0.586-1.43t1.383-0.586zM18.984 11.016h2.016l-3-4.031-3 4.031h2.016v7.969h-2.016l3 4.031 3-4.031h-2.016v-7.969zM21.984 5.016h-7.969v1.969h7.969v-1.969zM21.984 23.016h-7.969v1.969h7.969v-1.969z"></path>
</svg>
