<!-- Generated by IcoMoon.io -->
<svg version="1.1" xmlns="http://www.w3.org/2000/svg" width="24" height="24" viewBox="0 0 24 24">
<title>human_handsup</title>
<path d="M5.016 3.984q0 2.063 1.078 3.773t2.906 2.555v14.672h2.016v-6.984h1.969v6.984h2.016v-14.672q1.828-0.844 2.906-2.555t1.078-3.773h-1.969q0 1.031-0.398 1.945t-1.102 1.617-1.617 1.078-1.898 0.375-1.898-0.375-1.617-1.078-1.102-1.617-0.398-1.945h-1.969zM12 3.984q-0.844 0-1.43 0.586t-0.586 1.43 0.586 1.43 1.43 0.586 1.43-0.586 0.586-1.43-0.586-1.43-1.43-0.586z"></path>
</svg>
