<!-- Generated by IcoMoon.io -->
<svg version="1.1" xmlns="http://www.w3.org/2000/svg" width="24" height="24" viewBox="0 0 24 24">
<title>human_female_girl</title>
<path d="M7.5 5.016q0.844 0 1.43 0.586t0.586 1.406-0.586 1.406-1.43 0.586-1.43-0.586-0.586-1.406 0.586-1.406 1.43-0.586zM6 24.984v-6h-3l2.578-7.594q0.234-0.609 0.75-1.008t1.172-0.398 1.195 0.398 0.727 1.008l2.578 7.594h-3v6h-3zM14.484 15q0-0.844 0.586-1.43t1.43-0.586 1.43 0.586 0.586 1.43-0.586 1.43-1.43 0.586-1.43-0.586-0.586-1.43zM15 18h3l1.5 3.984h-1.5v3h-3v-3h-1.5z"></path>
</svg>
