<!-- Generated by IcoMoon.io -->
<svg version="1.1" xmlns="http://www.w3.org/2000/svg" width="24" height="24" viewBox="0 0 24 24">
<title>iframe_braces_outline</title>
<path d="M21 5.016h-18q-0.844 0-1.43 0.586t-0.586 1.383v16.031q0 0.797 0.586 1.383t1.43 0.586h18q0.844 0 1.43-0.586t0.586-1.383v-16.031q0-0.797-0.586-1.383t-1.43-0.586zM21 23.016h-18v-14.016h18v14.016zM9 11.016q-0.844 0-1.43 0.586t-0.586 1.406-0.586 1.406-1.383 0.586v2.016q0.797 0 1.383 0.586t0.586 1.406 0.586 1.406 1.43 0.586h2.016v-2.016h-2.016v-0.984q0-0.844-0.586-1.43t-1.43-0.586q0.844 0 1.43-0.586t0.586-1.383v-1.031h2.016v-1.969h-2.016zM15 11.016q0.844 0 1.43 0.586t0.586 1.406 0.586 1.406 1.383 0.586v2.016q-0.797 0-1.383 0.586t-0.586 1.406-0.586 1.406-1.43 0.586h-2.016v-2.016h2.016v-0.984q0-0.844 0.586-1.43t1.43-0.586q-0.844 0-1.43-0.586t-0.586-1.383v-1.031h-2.016v-1.969h2.016z"></path>
</svg>
