<!-- Generated by IcoMoon.io -->
<svg version="1.1" xmlns="http://www.w3.org/2000/svg" width="24" height="24" viewBox="0 0 24 24">
<title>iframe_parentheses_outline</title>
<path d="M21 5.016h-18q-0.844 0-1.43 0.586t-0.586 1.383v16.031q0 0.797 0.586 1.383t1.43 0.586h18q0.844 0 1.43-0.586t0.586-1.383v-16.031q0-0.797-0.586-1.383t-1.43-0.586zM21 23.016h-18v-14.016h18v14.016zM15.609 11.016q1.125 0.984 1.758 2.273t0.633 2.695-0.633 2.719-1.758 2.297l-1.594-0.609q0.938-0.703 1.453-1.898t0.516-2.484-0.516-2.484-1.453-1.945zM8.391 11.016l1.594 0.563q-0.938 0.75-1.453 1.945t-0.516 2.484 0.516 2.484 1.453 1.898l-1.594 0.609q-1.125-0.984-1.758-2.297t-0.633-2.719 0.633-2.695 1.758-2.273z"></path>
</svg>
