<!-- Generated by IcoMoon.io -->
<svg version="1.1" xmlns="http://www.w3.org/2000/svg" width="24" height="24" viewBox="0 0 24 24">
<title>image_search_outline</title>
<path d="M15.516 12q1.031 0 1.758-0.727t0.727-1.758-0.727-1.781-1.781-0.75-1.781 0.727-0.727 1.781 0.75 1.781 1.781 0.727zM19.313 11.906l3.094 3.094-1.406 1.406-3.141-3.094q-1.125 0.703-2.391 0.703-1.875 0-3.164-1.313t-1.289-3.188 1.313-3.188 3.188-1.313 3.188 1.289 1.313 3.211q0 1.266-0.703 2.391zM16.5 21h-11.016l2.766-3.516 1.969 2.344 2.719-3.516zM18 15.984l2.016 2.016v5.016q0 0.797-0.609 1.383t-1.406 0.586h-14.016q-0.75 0-1.359-0.609t-0.609-1.359v-14.016q0-0.797 0.586-1.406t1.383-0.609h5.531q-0.469 0.984-0.516 2.016h-5.016v14.016h14.016v-7.031z"></path>
</svg>
