<!-- Generated by IcoMoon.io -->
<svg version="1.1" xmlns="http://www.w3.org/2000/svg" width="24" height="24" viewBox="0 0 24 24">
<title>image_search1</title>
<path d="M15.516 5.016q1.875 0 3.188 1.313t1.313 3.188q0 1.313-0.703 2.391l3.094 3.094-1.406 1.406-3.141-3.094q-1.078 0.703-2.344 0.703-1.875 0-3.188-1.313t-1.313-3.188 1.313-3.188 3.188-1.313zM15.516 6.984q-1.031 0-1.781 0.75t-0.75 1.781 0.75 1.758 1.781 0.727 1.758-0.727 0.727-1.758-0.727-1.781-1.758-0.75zM7.5 17.484l-3.516 4.5h14.016l-4.5-6-3.516 4.5zM20.016 23.016q0 0.797-0.586 1.383t-1.43 0.586h-14.016q-0.797 0-1.383-0.586t-0.586-1.383v-14.016q0-0.844 0.586-1.43t1.383-0.586h5.531q-0.516 1.219-0.516 2.508t0.492 2.484 1.406 2.109 2.109 1.406 2.508 0.492q0.984 0 1.922-0.281l2.578 2.531v4.781z"></path>
</svg>
