<!-- Generated by IcoMoon.io -->
<svg version="1.1" xmlns="http://www.w3.org/2000/svg" width="24" height="24" viewBox="0 0 24 24">
<title>image_size_select_small</title>
<path d="M23.016 18h-2.016v2.016h2.016v-2.016zM23.016 14.016h-2.016v1.969h2.016v-1.969zM23.016 21.984h-2.016v2.016q0.75 0 1.383-0.633t0.633-1.383zM15 6h-2.016v2.016h2.016v-2.016zM23.016 9.984h-2.016v2.016h2.016v-2.016zM21 6v2.016h2.016q0-0.75-0.633-1.383t-1.383-0.633zM3 24h8.016v-6h-10.031v3.984q0 0.844 0.586 1.43t1.43 0.586zM3 9.984h-2.016v2.016h2.016v-2.016zM15 21.984h-2.016v2.016h2.016v-2.016zM18.984 6h-1.969v2.016h1.969v-2.016zM18.984 21.984h-1.969v2.016h1.969v-2.016zM3 6q-0.75 0-1.383 0.633t-0.633 1.383h2.016v-2.016zM3 14.016h-2.016v1.969h2.016v-1.969zM11.016 6h-2.016v2.016h2.016v-2.016zM6.984 6h-1.969v2.016h1.969v-2.016z"></path>
</svg>
