<!-- Generated by IcoMoon.io -->
<svg version="1.1" xmlns="http://www.w3.org/2000/svg" width="24" height="24" viewBox="0 0 24 24">
<title>image_size_select_large</title>
<path d="M21 18h2.016v2.016h-2.016v-2.016zM21 14.016h2.016v1.969h-2.016v-1.969zM23.016 21.984h-2.016v2.016q0.75 0 1.383-0.633t0.633-1.383zM12.984 6h2.016v2.016h-2.016v-2.016zM21 9.984h2.016v2.016h-2.016v-2.016zM21 6v2.016h2.016q0-0.75-0.633-1.383t-1.383-0.633zM0.984 9.984h2.016v2.016h-2.016v-2.016zM17.016 6h1.969v2.016h-1.969v-2.016zM17.016 21.984h1.969v2.016h-1.969v-2.016zM3 6q-0.75 0-1.383 0.633t-0.633 1.383h2.016v-2.016zM9 6h2.016v2.016h-2.016v-2.016zM5.016 6h1.969v2.016h-1.969v-2.016zM0.984 14.016v7.969q0 0.844 0.586 1.43t1.43 0.586h12v-9.984h-14.016zM3 21.984l2.484-3.188 1.828 2.156 2.484-3.234 3.188 4.266h-9.984z"></path>
</svg>
