<!-- Generated by IcoMoon.io -->
<svg version="1.1" xmlns="http://www.w3.org/2000/svg" width="24" height="24" viewBox="0 0 24 24">
<title>image_move</title>
<path d="M15 6h3.984v-3l5.016 5.016-5.016 4.969v-3h-3.984v-3.984zM21 14.953v7.031q0 0.844-0.586 1.43t-1.43 0.586h-13.969q-0.844 0-1.43-0.586t-0.586-1.43v-13.969q0-0.844 0.586-1.43t1.43-0.586h7.031q-0.047 0.328-0.047 0.984 0 1.594 0.609 3.070t1.734 2.602 2.602 1.734 3.070 0.609q0.656 0 0.984-0.047zM18.984 21l-4.5-6-3.469 4.5-2.531-3-3.469 4.5h13.969z"></path>
</svg>
