<!-- Generated by IcoMoon.io -->
<svg version="1.1" xmlns="http://www.w3.org/2000/svg" width="24" height="24" viewBox="0 0 24 24">
<title>image_edit</title>
<path d="M22.688 17.297l-0.984 0.984-2.016-1.969 1.031-1.031q0.188-0.188 0.375-0.188t0.422 0.188l1.266 1.313q0.094 0.188 0.070 0.375t-0.164 0.328zM12.984 22.922v2.063h2.109l6.094-6.094-1.969-1.969zM21 8.016q0-0.844-0.586-1.43t-1.43-0.586h-13.969q-0.844 0-1.43 0.586t-0.586 1.43v13.969q0 0.844 0.586 1.43t1.43 0.586h6v-1.922l1.078-1.078h-7.078l3.469-4.5 2.531 3 3.469-4.5 1.594 2.109 4.922-5.016v-4.078z"></path>
</svg>
