<!-- Generated by IcoMoon.io -->
<svg version="1.1" xmlns="http://www.w3.org/2000/svg" width="24" height="24" viewBox="0 0 24 24">
<title>inbox_multiple</title>
<path d="M18.984 11.016v-3h-13.969v3h3.984q0 1.219 0.867 2.109t2.133 0.891 2.133-0.891 0.867-2.109h3.984zM18.984 6q0.844 0 1.43 0.586t0.586 1.43v6.984q0 0.844-0.586 1.43t-1.43 0.586h-13.969q-0.844 0-1.43-0.586t-0.586-1.43v-6.984q0-0.844 0.586-1.43t1.43-0.586h13.969zM3 18h6q0 1.266 0.867 2.133t2.133 0.867 2.133-0.867 0.867-2.133h6v3.984q0 0.844-0.586 1.43t-1.43 0.586h-13.969q-0.844 0-1.43-0.586t-0.586-1.43v-3.984z"></path>
</svg>
