<!-- Generated by IcoMoon.io -->
<svg version="1.1" xmlns="http://www.w3.org/2000/svg" width="24" height="24" viewBox="0 0 24 24">
<title>inbox_multiple_outline</title>
<path d="M18.984 6q0.844 0 1.43 0.586t0.586 1.43v6.984q0 0.844-0.586 1.43t-1.43 0.586h-13.969q-0.844 0-1.43-0.586t-0.586-1.43v-6.984q0-0.844 0.586-1.43t1.43-0.586h13.969zM5.016 12.984v2.016h4.406q-0.984-0.844-1.313-2.016h-3.094zM18.984 15v-2.016h-3.094q-0.328 1.172-1.313 2.016h4.406zM18.984 11.016v-3h-13.969v3h4.969v0.984q0 0.797 0.609 1.406t1.406 0.609 1.406-0.609 0.609-1.406v-0.984h4.969zM21 21.984q0 0.844-0.586 1.43t-1.43 0.586h-13.969q-0.844 0-1.43-0.586t-0.586-1.43v-3.984h6.984v0.984q0 0.797 0.609 1.406t1.406 0.609 1.406-0.609 0.609-1.406v-0.984h6.984v3.984zM5.016 20.016v1.969h4.406q-0.984-0.844-1.313-1.969h-3.094zM18.984 21.984v-1.969h-3.094q-0.328 1.125-1.313 1.969h4.406z"></path>
</svg>
