<!-- Generated by IcoMoon.io -->
<svg version="1.1" xmlns="http://www.w3.org/2000/svg" width="24" height="24" viewBox="0 0 24 24">
<title>key_link</title>
<path d="M6.516 6q-1.875 0-3.188 1.313t-1.313 3.188 1.313 3.188 3.188 1.313q1.453 0 2.602-0.844t1.617-2.156h4.266v3h3v-3h3.984v-3h-11.25q-0.469-1.313-1.617-2.156t-2.602-0.844zM6.516 9q0.609 0 1.055 0.445t0.445 1.055-0.445 1.055-1.078 0.445-1.055-0.445-0.422-1.055 0.422-1.055 1.078-0.445zM9.984 17.016q-1.453 0-2.578 0.891-1.406 1.125-1.406 3.117t1.406 3.070q1.125 0.891 2.578 0.891h1.031v-1.969h-1.031q-0.609 0-1.125-0.281-0.844-0.516-0.844-1.711t0.797-1.711q0.516-0.328 1.172-0.328h1.031v-1.969h-1.031zM12.984 17.016v1.969h1.031q0.609 0 1.125 0.281 0.844 0.516 0.844 1.711t-0.797 1.711q-0.516 0.328-1.172 0.328h-1.031v1.969h1.031q1.453 0 2.578-0.891 1.406-1.078 1.406-3.070t-1.406-3.117q-1.125-0.891-2.578-0.891h-1.031zM9 20.016v1.969h6v-1.969h-6z"></path>
</svg>
