<!-- Generated by IcoMoon.io -->
<svg version="1.1" xmlns="http://www.w3.org/2000/svg" width="24" height="24" viewBox="0 0 24 24">
<title>key_wireless</title>
<path d="M4.922 8.906l1.406 1.406q1.125-1.125 2.602-1.734t3.070-0.609 3.070 0.609 2.602 1.734l1.406-1.406q-1.922-1.922-4.5-2.578t-5.156 0-4.5 2.578zM7.781 11.766l1.406 1.406q1.172-1.172 2.813-1.172t2.813 1.172l1.406-1.406q-1.125-1.172-2.672-1.57t-3.094 0-2.672 1.57zM10.781 18q-0.563-1.547-1.992-2.391t-3.047-0.563-2.672 1.547-1.055 2.906 1.055 2.906 2.672 1.547 3.047-0.563 1.992-2.391h4.219v3h3v-3h3.984v-3h-11.203zM6.516 21q-0.656 0-1.078-0.445t-0.422-1.055 0.422-1.055 1.055-0.445 1.078 0.445 0.445 1.055-0.445 1.055-1.055 0.445z"></path>
</svg>
