<!-- Generated by IcoMoon.io -->
<svg version="1.1" xmlns="http://www.w3.org/2000/svg" width="24" height="24" viewBox="0 0 24 24">
<title>key_variant</title>
<path d="M21.984 21v3.984h-3.984v-3h-3v-3h-3l-2.25-2.25q-0.844 0.281-1.734 0.281-1.219 0-2.32-0.469t-1.945-1.313-1.289-1.945-0.445-2.273q0-1.641 0.797-3.023t2.18-2.18 3-0.797 3 0.797 2.203 2.18 0.82 3.023q0 0.891-0.281 1.734zM6.984 8.016q-0.797 0-1.383 0.586t-0.586 1.406 0.586 1.406 1.406 0.586 1.406-0.586 0.586-1.406-0.586-1.406-1.43-0.586z"></path>
</svg>
