<!-- Generated by IcoMoon.io -->
<svg version="1.1" xmlns="http://www.w3.org/2000/svg" width="24" height="24" viewBox="0 0 24 24">
<title>key_outline</title>
<path d="M21.984 21.984h-6v-3.984h-2.672q-0.844 1.828-2.555 2.906t-3.773 1.078q-1.875 0-3.492-0.938t-2.555-2.555-0.938-3.492 0.938-3.492 2.555-2.555 3.492-0.938q2.063 0 3.773 1.078t2.555 2.906h10.688v6h-2.016v3.984zM18 20.016h2.016v-4.031h1.969v-1.969h-10.031l-0.234-0.703q-0.563-1.453-1.852-2.391t-2.883-0.938q-1.359 0-2.508 0.68t-1.805 1.828-0.656 2.508 0.656 2.508 1.805 1.828 2.508 0.68q1.594 0 2.883-0.938t1.852-2.391l0.234-0.703h6.047v4.031zM6.984 18q-1.219 0-2.109-0.867t-0.891-2.133 0.891-2.133 2.133-0.867 2.109 0.867 0.867 2.133-0.867 2.133-2.133 0.867zM6.984 14.016q-0.422 0-0.703 0.281t-0.281 0.703 0.281 0.703 0.703 0.281 0.727-0.281 0.305-0.703-0.305-0.703-0.727-0.281z"></path>
</svg>
