<!-- Generated by IcoMoon.io -->
<svg version="1.1" xmlns="http://www.w3.org/2000/svg" width="24" height="24" viewBox="0 0 24 24">
<title>key_star</title>
<path d="M6.516 6q-1.875 0-3.188 1.313t-1.313 3.188 1.313 3.188 3.188 1.313q1.453 0 2.602-0.844t1.617-2.156h4.266v3h3v-3h3.984v-3h-11.25q-0.469-1.313-1.617-2.156t-2.602-0.844zM6.516 9q0.609 0 1.055 0.445t0.445 1.055-0.445 1.055-1.078 0.445-1.055-0.445-0.422-1.055 0.422-1.055 1.078-0.445zM12 17.016l-1.125 2.625-2.859 0.234 2.156 1.875-0.656 2.813 2.484-1.453 2.438 1.453-0.656-2.813 2.203-1.875-2.859-0.234z"></path>
</svg>
