<!-- Generated by IcoMoon.io -->
<svg version="1.1" xmlns="http://www.w3.org/2000/svg" width="24" height="24" viewBox="0 0 24 24">
<title>key_plus</title>
<path d="M6.516 6q1.453 0 2.602 0.844t1.617 2.156h11.25v3h-3.984v3h-3v-3h-4.266q-0.469 1.313-1.617 2.156t-2.602 0.844q-1.875 0-3.188-1.313t-1.313-3.188 1.313-3.188 3.188-1.313zM6.516 9q-0.656 0-1.078 0.445t-0.422 1.055 0.422 1.055 1.055 0.445 1.078-0.445 0.445-1.055-0.445-1.055-1.055-0.445zM8.016 20.016h3v-3h1.969v3h3v1.969h-3v3h-1.969v-3h-3v-1.969z"></path>
</svg>
