<!-- Generated by IcoMoon.io -->
<svg version="1.1" xmlns="http://www.w3.org/2000/svg" width="24" height="24" viewBox="0 0 24 24">
<title>keyboard1</title>
<path d="M18.984 12.984h-1.969v-1.969h1.969v1.969zM18.984 15.984h-1.969v-1.969h1.969v1.969zM15.984 12.984h-1.969v-1.969h1.969v1.969zM15.984 15.984h-1.969v-1.969h1.969v1.969zM15.984 20.016h-7.969v-2.016h7.969v2.016zM6.984 12.984h-1.969v-1.969h1.969v1.969zM6.984 15.984h-1.969v-1.969h1.969v1.969zM8.016 14.016h1.969v1.969h-1.969v-1.969zM8.016 11.016h1.969v1.969h-1.969v-1.969zM11.016 14.016h1.969v1.969h-1.969v-1.969zM11.016 11.016h1.969v1.969h-1.969v-1.969zM20.016 8.016h-16.031q-0.797 0-1.383 0.586t-0.586 1.383v10.031q0 0.797 0.586 1.383t1.383 0.586h16.031q0.797 0 1.383-0.586t0.586-1.383v-10.031q0-0.797-0.586-1.383t-1.383-0.586z"></path>
</svg>
