<!-- Generated by IcoMoon.io -->
<svg version="1.1" xmlns="http://www.w3.org/2000/svg" width="24" height="24" viewBox="0 0 24 24">
<title>lan</title>
<path d="M9.984 5.016q-0.797 0-1.383 0.586t-0.586 1.383v3q0 0.844 0.586 1.43t1.383 0.586h1.031v2.016h-9v1.969h3.984v2.016h-0.984q-0.844 0-1.43 0.586t-0.586 1.43v3q0 0.797 0.586 1.383t1.43 0.586h3.984q0.844 0 1.43-0.586t0.586-1.383v-3q0-0.844-0.586-1.43t-1.43-0.586h-0.984v-2.016h7.969v2.016h-0.984q-0.844 0-1.43 0.586t-0.586 1.43v3q0 0.797 0.586 1.383t1.43 0.586h3.984q0.844 0 1.43-0.586t0.586-1.383v-3q0-0.844-0.586-1.43t-1.43-0.586h-0.984v-2.016h3.984v-1.969h-9v-2.016h1.031q0.797 0 1.383-0.586t0.586-1.43v-3q0-0.797-0.586-1.383t-1.383-0.586h-4.031zM9.984 6.984h4.031v3h-4.031v-3zM5.016 20.016h3.984v3h-3.984v-3zM15 20.016h3.984v3h-3.984v-3z"></path>
</svg>
