<!-- Generated by IcoMoon.io -->
<svg version="1.1" xmlns="http://www.w3.org/2000/svg" width="24" height="24" viewBox="0 0 24 24">
<title>led_on</title>
<path d="M11.016 3v3.984h1.969v-3.984h-1.969zM18.281 5.297l-3.047 3 1.406 1.406 3.047-3zM5.719 5.297l-1.406 1.406 3 3 1.406-1.406zM12 9q-1.641 0-2.813 1.172t-1.172 2.813v6h-2.016v2.016h3v5.016h2.016v-5.016h1.969v5.016h2.016v-5.016h3v-2.016h-2.016v-6q0-1.641-1.172-2.813t-2.813-1.172zM2.016 12v2.016h3.984v-2.016h-3.984zM18 12v2.016h3.984v-2.016h-3.984z"></path>
</svg>
