<!-- Generated by IcoMoon.io -->
<svg version="1.1" xmlns="http://www.w3.org/2000/svg" width="24" height="24" viewBox="0 0 24 24">
<title>license</title>
<path d="M9 12.984q0-1.219 0.891-2.086t2.109-0.867 2.109 0.867 0.891 2.109-0.891 2.109-2.109 0.867-2.109-0.867-0.891-2.133zM12 21.984l3.984 1.031v-3.094q-1.828 1.125-3.984 1.125t-3.984-1.125v3.094zM12 6.984q-1.172 0-2.297 0.445t-1.969 1.289-1.289 1.969-0.445 2.32 0.445 2.297 1.289 1.945 1.945 1.313 2.32 0.469 2.32-0.469 1.945-1.313 1.289-1.945 0.445-2.297-0.445-2.32-1.289-1.969-1.969-1.289-2.297-0.445zM20.016 12.984q-0.047 1.453-0.563 2.813t-1.453 2.484v7.734l-6-2.016-6 2.016v-7.734q-0.984-1.078-1.5-2.461t-0.516-2.836q0-1.594 0.609-3.047t1.734-2.602 2.602-1.758 3.070-0.609 3.070 0.609 2.602 1.758 1.734 2.602 0.609 3.047z"></path>
</svg>
