<!-- Generated by IcoMoon.io -->
<svg version="1.1" xmlns="http://www.w3.org/2000/svg" width="24" height="24" viewBox="0 0 24 24">
<title>lifebuoy</title>
<path d="M19.781 18.422q0.703-1.641 0.703-3.422t-0.703-3.422l-2.719 1.266q0.422 1.031 0.422 2.156t-0.422 2.156zM15.422 7.219q-1.641-0.703-3.422-0.703t-3.422 0.703l1.266 2.719q1.031-0.422 2.156-0.422t2.203 0.422zM4.219 11.578q-0.703 1.641-0.703 3.422t0.703 3.422l2.719-1.266q-0.422-1.031-0.422-2.156t0.422-2.203zM8.578 22.781q1.641 0.703 3.422 0.703t3.422-0.703l-1.219-2.719q-1.078 0.422-2.203 0.422t-2.156-0.422zM12 5.016q1.969 0 3.82 0.75t3.258 2.156 2.156 3.258 0.75 3.82-0.75 3.82-2.156 3.258-3.258 2.156-3.82 0.75-3.82-0.75-3.258-2.156-2.156-3.258-0.75-3.82 0.75-3.82 2.156-3.258 3.258-2.156 3.82-0.75zM12 11.016q-1.641 0-2.813 1.172t-1.172 2.813 1.172 2.813 2.813 1.172 2.813-1.172 1.172-2.813-1.172-2.813-2.813-1.172z"></path>
</svg>
