<!-- Generated by IcoMoon.io -->
<svg version="1.1" xmlns="http://www.w3.org/2000/svg" width="24" height="24" viewBox="0 0 24 24">
<title>link_variant_minus</title>
<path d="M10.594 16.406q0.234 0.281 0.211 0.656t-0.281 0.633-0.633 0.305-0.703-0.188q-0.703-0.703-1.102-1.617t-0.398-1.898 0.398-1.898 1.102-1.617l3.516-3.563q1.5-1.453 3.563-1.453t3.516 1.453 1.453 3.516-1.453 3.563l-1.5 1.5q0.047-1.219-0.375-2.391l0.516-0.516q0.797-0.891 0.797-2.133t-0.797-2.18q-0.938-0.797-2.18-0.797t-2.133 0.797l-3.516 3.609q-0.891 0.891-0.891 2.133t0.891 2.086zM23.016 21v2.016h-8.016v-2.016h8.016zM16.219 16.688q0.234-1.219-0.141-2.414t-1.266-2.086q-0.328-0.234-0.703-0.188t-0.633 0.305-0.281 0.633 0.211 0.656q0.891 0.844 0.891 2.086t-0.891 2.133l-3.516 3.609q-0.891 0.797-2.133 0.797t-2.18-0.797q-0.797-0.938-0.797-2.18t0.797-2.133l0.516-0.422q-0.422-1.219-0.375-2.484l-1.5 1.5q-1.453 1.5-1.453 3.563t1.453 3.516 3.516 1.453 3.563-1.453l1.781-1.781q0.234-1.359 1.055-2.508t2.086-1.805z"></path>
</svg>
