<!-- Generated by IcoMoon.io -->
<svg version="1.1" xmlns="http://www.w3.org/2000/svg" width="24" height="24" viewBox="0 0 24 24">
<title>link_variant</title>
<path d="M10.594 16.406q0.281 0.281 0.281 0.703t-0.281 0.727-0.703 0.305-0.703-0.328q-0.984-0.938-1.313-2.227t0-2.578 1.313-2.227v0l3.516-3.563q0.984-0.938 2.273-1.289t2.578 0 2.227 1.289 1.289 2.227 0 2.578-1.289 2.273l-1.5 1.5q0.047-1.266-0.375-2.438l0.469-0.469q0.891-0.891 0.891-2.133t-0.891-2.133-2.133-0.891-2.133 0.891l-3.516 3.563q-0.891 0.844-0.891 2.086t0.891 2.133zM13.406 12.188q0.281-0.328 0.703-0.328t0.703 0.328q0.984 0.938 1.313 2.227t0 2.578-1.313 2.227l-3.516 3.563q-0.984 0.938-2.273 1.289t-2.578 0-2.227-1.289-1.289-2.227 0-2.578 1.289-2.273l1.5-1.5q-0.047 1.266 0.375 2.438l-0.469 0.469q-0.891 0.891-0.891 2.133t0.891 2.133 2.133 0.891 2.133-0.891l3.516-3.563q0.891-0.844 0.891-2.086t-0.891-2.133q-0.281-0.281-0.281-0.703t0.281-0.703z"></path>
</svg>
