<!-- Generated by IcoMoon.io -->
<svg version="1.1" xmlns="http://www.w3.org/2000/svg" width="24" height="24" viewBox="0 0 24 24">
<title>link_variant_off</title>
<path d="M2.016 8.25l1.266-1.266 16.734 16.734-1.266 1.266-4.828-4.828-2.625 2.625q-0.984 0.938-2.273 1.289t-2.578 0-2.227-1.289-1.289-2.227 0-2.578 1.289-2.273l1.5-1.5q-0.047 1.266 0.375 2.438l-0.469 0.469q-0.891 0.891-0.891 2.133t0.891 2.133 2.133 0.891 2.133-0.891l2.625-2.625-1.641-1.594q0 0.375-0.281 0.68t-0.703 0.305-0.703-0.328q-0.797-0.75-1.172-1.758t-0.281-2.039zM12.703 7.219q0.984-0.938 2.273-1.289t2.578 0 2.227 1.289 1.289 2.227 0 2.578-1.289 2.273l-1.5 1.5q0.047-1.266-0.375-2.438l0.469-0.469q0.891-0.891 0.891-2.133t-0.891-2.133-2.133-0.891-2.133 0.891l-3.328 3.328-1.406-1.406zM13.406 12.188q0.281-0.328 0.703-0.328t0.703 0.328q1.031 0.984 1.359 2.344t-0.094 2.719l-1.781-1.781q-0.094-1.125-0.891-1.875-0.281-0.281-0.281-0.703t0.281-0.703z"></path>
</svg>
