<!-- Generated by IcoMoon.io -->
<svg version="1.1" xmlns="http://www.w3.org/2000/svg" width="24" height="24" viewBox="0 0 24 24">
<title>link_plus</title>
<path d="M6.984 9.984h4.031v2.016h-4.031q-1.219 0-2.109 0.867t-0.891 2.133 0.891 2.133 2.109 0.867h4.031v2.016h-4.031q-1.359 0-2.508-0.68t-1.805-1.828-0.656-2.508 0.656-2.508 1.805-1.828 2.508-0.68zM17.016 9.984q0.984 0 1.898 0.398t1.617 1.102 1.078 1.617 0.375 1.898h-1.969q0-1.266-0.891-2.133t-2.109-0.867h-4.031v-2.016h4.031zM8.016 14.016h7.969v1.969h-7.969v-1.969zM17.016 15h1.969v3h3v2.016h-3v3h-1.969v-3h-3v-2.016h3v-3z"></path>
</svg>
