<!-- Generated by IcoMoon.io -->
<svg version="1.1" xmlns="http://www.w3.org/2000/svg" width="24" height="24" viewBox="0 0 24 24">
<title>link_lock</title>
<path d="M23.016 18.984v-0.469q0-1.031-0.75-1.781t-1.781-0.75-1.758 0.75-0.727 1.781v0.469q-0.422 0-0.703 0.305t-0.281 0.727v3.984q0 0.422 0.281 0.703t0.703 0.281h5.016q0.422 0 0.703-0.281t0.281-0.703v-3.984q0-0.422-0.281-0.727t-0.703-0.305zM21.984 18.984h-3v-0.469q0-0.656 0.445-1.078t1.078-0.422 1.055 0.422 0.422 1.078v0.469zM6.984 11.906h4.031v-1.922h-4.031q-1.359 0-2.508 0.68t-1.805 1.828-0.656 2.508 0.656 2.508 1.805 1.828 2.508 0.68h4.031v-1.922h-4.031q-1.266 0-2.18-0.914t-0.914-2.18 0.914-2.18 2.18-0.914zM8.016 14.016v1.969h7.969v-1.969h-7.969zM12.984 18.094v1.922h2.016v-1.922h-2.016zM17.016 9.984h-4.031v1.922h4.031q0.984 0 1.805 0.586t1.102 1.523q0.281-0.047 0.563 0h1.406q-0.328-1.781-1.711-2.906t-3.164-1.125z"></path>
</svg>
