<!-- Generated by IcoMoon.io -->
<svg version="1.1" xmlns="http://www.w3.org/2000/svg" width="24" height="24" viewBox="0 0 24 24">
<title>link_off1</title>
<path d="M17.016 9.984h-4.031v1.922h4.031q1.266 0 2.18 0.914t0.914 2.18q0 1.078-0.656 1.898t-1.641 1.102l1.453 1.453q1.219-0.656 1.969-1.828t0.75-2.625q0-0.984-0.375-1.898t-1.078-1.617-1.617-1.102-1.898-0.398zM15.984 14.016h-2.156l1.969 1.969h0.188v-1.969zM2.016 7.266l3.094 3.094q-1.406 0.563-2.25 1.828t-0.844 2.813q0 1.359 0.656 2.508t1.805 1.828 2.508 0.68h4.031v-1.922h-4.031q-1.266 0-2.18-0.914t-0.914-2.133 0.797-2.109 1.969-0.984l2.063 2.063h-0.703v1.969h2.719l2.25 2.297v1.734h1.734l4.031 3.984 1.266-1.266-16.734-16.734z"></path>
</svg>
