<!-- Generated by IcoMoon.io -->
<svg version="1.1" xmlns="http://www.w3.org/2000/svg" width="24" height="24" viewBox="0 0 24 24">
<title>location_enter</title>
<path d="M14.016 15l-4.031-3.984v3h-7.969v1.969h7.969v3zM21.984 15q0 2.438-1.102 4.57t-3.023 3.539-4.336 1.781-4.688-0.398-3.961-2.461-2.438-4.031h2.156q1.078 2.672 3.609 4.031t5.344 0.82 4.641-2.766 1.828-5.086-1.828-5.086-4.641-2.766-5.344 0.82-3.609 4.031h-2.156q0.75-2.344 2.438-4.031t3.961-2.461 4.688-0.398 4.336 1.781 3.023 3.539 1.102 4.57z"></path>
</svg>
