<!-- Generated by IcoMoon.io -->
<svg version="1.1" xmlns="http://www.w3.org/2000/svg" width="24" height="24" viewBox="0 0 24 24">
<title>lock_alert</title>
<path d="M12 3.984q-0.984 0-1.898 0.398t-1.617 1.102-1.102 1.617-0.398 1.898v2.016h-0.984q-0.844 0-1.43 0.586t-0.586 1.383v10.031q0 0.797 0.586 1.383t1.43 0.586h12q0.844 0 1.43-0.586t0.586-1.383v-10.031q0-0.797-0.586-1.383t-1.43-0.586h-0.984v-2.016q0-0.984-0.398-1.898t-1.102-1.617-1.617-1.102-1.898-0.398zM12 5.906q1.266 0 2.18 0.914t0.914 2.18v2.016h-6.188v-2.016q0-1.266 0.914-2.18t2.18-0.914zM11.016 14.016h1.969v3.984h-1.969v-3.984zM11.016 20.016h1.969v1.969h-1.969v-1.969z"></path>
</svg>
