<!-- Generated by IcoMoon.io -->
<svg version="1.1" xmlns="http://www.w3.org/2000/svg" width="24" height="24" viewBox="0 0 24 24">
<title>lock_reset</title>
<path d="M12.609 5.016q2.719 0 5.039 1.336t3.656 3.633 1.336 5.016-1.336 5.016-3.656 3.633-5.039 1.336q-2.578 0-4.781-1.219t-3.563-3.328l1.594-1.266q1.078 1.781 2.859 2.813t3.938 1.031 3.984-1.078 2.906-2.93 1.078-4.008q0-1.594-0.609-3.070t-1.734-2.602-2.578-1.734-3.047-0.609q-2.016 0-3.75 0.938t-2.836 2.531-1.383 3.563h2.766l-3.703 3.703-3.75-3.703h2.672q0.281-2.531 1.664-4.57t3.563-3.234 4.711-1.195zM15.609 13.219q0.375 0.047 0.633 0.305t0.258 0.633v4.594q0 0.375-0.281 0.656t-0.656 0.281h-5.531q-0.375 0-0.633-0.281t-0.258-0.656v-4.594q0-0.375 0.258-0.633t0.633-0.305v-0.984q0-1.172 0.82-1.969t1.969-0.797 1.969 0.797 0.82 1.969v0.984zM12.797 10.875q-0.563 0-0.961 0.398t-0.398 0.961v0.984h2.766v-0.984q0-0.563-0.422-0.961t-0.984-0.398z"></path>
</svg>
