<!-- Generated by IcoMoon.io -->
<svg version="1.1" xmlns="http://www.w3.org/2000/svg" width="24" height="24" viewBox="0 0 24 24">
<title>lock_plus</title>
<path d="M18 11.016h-0.984v-2.016q0-0.984-0.398-1.898t-1.102-1.617-1.617-1.102-1.898-0.398-1.898 0.398-1.617 1.102-1.102 1.617-0.398 1.898v2.016h-0.984q-0.844 0-1.43 0.586t-0.586 1.383v10.031q0 0.797 0.586 1.383t1.43 0.586h12q0.844 0 1.43-0.586t0.586-1.383v-10.031q0-0.797-0.586-1.383t-1.43-0.586zM8.906 9q0-1.266 0.914-2.18t2.18-0.914 2.18 0.914 0.914 2.18v2.016h-6.188v-2.016zM15.984 18.984h-3v3h-1.969v-3h-3v-1.969h3v-3h1.969v3h3v1.969z"></path>
</svg>
