<!-- Generated by IcoMoon.io -->
<svg version="1.1" xmlns="http://www.w3.org/2000/svg" width="24" height="24" viewBox="0 0 24 24">
<title>lock_question</title>
<path d="M12 3.984q-0.984 0-1.898 0.398t-1.617 1.102-1.102 1.617-0.398 1.898v2.016h-0.984q-0.844 0-1.43 0.586t-0.586 1.383v10.031q0 0.797 0.586 1.383t1.43 0.586h12q0.844 0 1.43-0.586t0.586-1.383v-10.031q0-0.797-0.586-1.383t-1.43-0.586h-0.984v-2.016q0-0.984-0.398-1.898t-1.102-1.617-1.617-1.102-1.898-0.398zM12 5.906q1.266 0 2.18 0.914t0.914 2.18v2.016h-6.188v-2.016q0-1.266 0.914-2.18t2.18-0.914zM12.188 13.5q1.406 0 2.227 0.633t0.82 1.664q0 0.656-0.445 1.195t-1.148 0.867q-0.375 0.234-0.516 0.492t-0.141 0.633h-1.969q0-0.703 0.305-1.078t1.055-0.844q0.375-0.188 0.609-0.516t0.234-0.75-0.258-0.68-0.773-0.258q-0.375 0-0.656 0.211t-0.281 0.633h-1.969q-0.094-1.078 0.75-1.641t2.156-0.563zM11.016 20.016h1.969v1.969h-1.969v-1.969z"></path>
</svg>
