<!-- Generated by IcoMoon.io -->
<svg version="1.1" xmlns="http://www.w3.org/2000/svg" width="24" height="24" viewBox="0 0 24 24">
<title>lock_clock</title>
<path d="M8.484 5.016q-1.875 0-3.188 1.313t-1.313 3.188v0.469q-0.797 0-1.383 0.586t-0.586 1.43v9q0 0.844 0.586 1.43t1.383 0.586h4.734q1.078 0.938 2.461 1.453t2.836 0.516q2.156 0 3.984-1.078t2.906-2.906 1.078-4.008-1.078-4.008-2.906-2.906-3.984-1.078q-0.516 0-1.031 0.094-0.188-1.734-1.477-2.906t-3.023-1.172zM8.484 6.984q1.031 0 1.781 0.75t0.75 1.781v0.469h-5.016v-0.469q0-1.031 0.727-1.781t1.758-0.75zM14.016 11.016q1.172 0 2.273 0.445t1.945 1.289 1.313 1.945 0.469 2.32q0 1.594-0.82 2.977t-2.203 2.203-3 0.82-3-0.82-2.18-2.203-0.797-3 0.797-3 2.18-2.18 3.023-0.797zM12.984 12.984v5.016l3.656 2.203 0.797-1.313-2.953-1.734v-4.172h-1.5z"></path>
</svg>
