<!-- Generated by IcoMoon.io -->
<svg version="1.1" xmlns="http://www.w3.org/2000/svg" width="24" height="24" viewBox="0 0 24 24">
<title>lock_pattern</title>
<path d="M6.984 6q1.688 0 2.859 1.172t1.172 2.813q0 1.406-0.844 2.484t-2.156 1.406v2.25q0.516 0.141 1.031 0.422l4.5-4.5q-0.563-0.938-0.563-2.063 0-1.641 1.172-2.813t2.836-1.172 2.836 1.172 1.172 2.836-1.172 2.836-2.813 1.172q-1.125 0-2.016-0.563l-4.547 4.547q0.563 0.891 0.563 2.016 0 1.641-1.172 2.813t-2.836 1.172-2.836-1.172-1.172-2.813q0-1.406 0.844-2.484t2.156-1.406v-2.25q-1.313-0.328-2.156-1.406t-0.844-2.484q0-1.641 1.172-2.813t2.813-1.172zM17.016 15.984q1.641 0 2.813 1.172t1.172 2.836-1.172 2.836-2.836 1.172-2.836-1.172-1.172-2.836 1.172-2.836 2.859-1.172zM17.016 18q-0.844 0-1.43 0.586t-0.586 1.406 0.586 1.406 1.406 0.586 1.406-0.586 0.586-1.406-0.586-1.406-1.383-0.586z"></path>
</svg>
