<!-- Generated by IcoMoon.io -->
<svg version="1.1" xmlns="http://www.w3.org/2000/svg" width="24" height="24" viewBox="0 0 24 24">
<title>looks1</title>
<path d="M12 9q-2.203 0-4.219 0.844t-3.563 2.391-2.391 3.563-0.844 4.219h2.016q0-2.438 1.219-4.523t3.281-3.281 4.5-1.195 4.5 1.195 3.281 3.281 1.219 4.523h2.016q0-3-1.477-5.531t-4.008-4.008-5.531-1.477zM12 12.984q-1.875 0-3.492 0.961t-2.555 2.555-0.938 3.516h1.969q0-1.359 0.68-2.508t1.828-1.828 2.508-0.68 2.508 0.68 1.828 1.828 0.68 2.508h1.969q0-1.922-0.938-3.516t-2.555-2.555-3.492-0.961z"></path>
</svg>
