<!-- Generated by IcoMoon.io -->
<svg version="1.1" xmlns="http://www.w3.org/2000/svg" width="24" height="24" viewBox="0 0 24 24">
<title>magnify_close</title>
<path d="M9 5.016q1.922 0 3.516 0.938t2.531 2.531 0.938 3.516q0 2.344-1.359 4.172l0.797 0.844h0.563l6 6-1.969 1.969-6-6v-0.563l-0.844-0.797q-1.828 1.359-4.172 1.359-1.922 0-3.516-0.938t-2.531-2.531-0.938-3.516 0.938-3.516 2.531-2.531 3.516-0.938zM11.109 8.438l-2.109 2.156-2.109-2.156-1.453 1.453 2.156 2.109-2.156 2.109 1.453 1.453 2.109-2.156 2.109 2.156 1.453-1.453-2.156-2.109 2.156-2.109z"></path>
</svg>
