<!-- Generated by IcoMoon.io -->
<svg version="1.1" xmlns="http://www.w3.org/2000/svg" width="24" height="24" viewBox="0 0 24 24">
<title>magnet_on</title>
<path d="M3 9.984v6q0 2.438 1.219 4.523t3.281 3.281 4.5 1.195 4.5-1.195 3.281-3.281 1.219-4.523v-6h-3.984v6q0 1.031-0.398 1.945t-1.102 1.617-1.617 1.078-1.898 0.375-1.898-0.375-1.617-1.078-1.102-1.617-0.398-1.945v-6h-3.984zM17.016 8.016h3.984v-3h-3.984v3zM3 8.016h3.984v-3h-3.984v3zM12.984 4.5l-3.984 7.5h2.016v5.484l3.984-7.5h-2.016v-5.484z"></path>
</svg>
