<!-- Generated by IcoMoon.io -->
<svg version="1.1" xmlns="http://www.w3.org/2000/svg" width="24" height="24" viewBox="0 0 24 24">
<title>mail_ru</title>
<path d="M15.469 14.906q-0.094-1.594-1.148-2.555t-2.602-0.961h-0.094q-1.641 0-2.625 1.125-0.891 1.078-0.891 2.742t0.984 2.672 2.578 1.008 2.648-1.031 1.148-2.531v-0.469zM11.672 9.375q1.125 0 2.156 0.469t1.828 1.266v0q0-0.375 0.234-0.633t0.609-0.258h0.094q0.516 0 0.75 0.422 0.141 0.234 0.141 0.516v7.922q0 0.375 0.328 0.539t0.563-0.117q0.703-0.75 1.125-2.438 0.516-1.922 0.141-3.75-0.422-2.203-2.039-3.609t-3.633-1.875q-1.781-0.422-3.609-0.094-1.688 0.281-2.977 1.172t-2.133 2.391-1.031 3.188q-0.141 1.875 0.609 3.609 0.797 1.875 2.578 3.047 1.594 1.078 3.516 1.313t3.422-0.375q0.703-0.281 1.148 0.094t0.328 1.008-0.82 0.914q-1.359 0.563-3.422 0.516-2.438-0.141-4.5-1.172-2.484-1.266-3.844-3.656-1.078-1.875-1.219-4.172-0.141-2.578 0.938-4.734 1.172-2.484 3.75-3.984 2.016-1.219 4.383-1.43t4.594 0.586 3.867 2.508 2.203 4.289q0.563 2.531-0.070 4.898t-2.273 3.68q-0.75 0.563-1.641 0.469t-1.5-0.727-0.609-1.477v-0.516q-0.797 0.75-1.828 1.195t-2.156 0.445q-1.5 0-2.813-0.797t-2.086-2.109-0.773-2.789 0.773-2.813 2.086-2.133 2.813-0.797z"></path>
</svg>
