<!-- Generated by IcoMoon.io -->
<svg version="1.1" xmlns="http://www.w3.org/2000/svg" width="24" height="24" viewBox="0 0 24 24">
<title>map_plus</title>
<path d="M9 6l-5.625 1.922q-0.375 0.094-0.375 0.469v15.094q0 0.234 0.141 0.375t0.375 0.141q0.094 0 0.141-0.047l5.344-2.063 4.172 1.453q-0.188-0.703-0.188-1.359 0-0.422 0.047-0.703l-4.031-1.359v-11.906l6 2.063v7.5q1.734-1.594 3.984-1.594 1.031 0 2.016 0.375v-9.844q0-0.234-0.141-0.375t-0.375-0.141h-0.141l-5.344 2.109zM18 18v3h-3v2.016h3v3h2.016v-3h3v-2.016h-3v-3h-2.016z"></path>
</svg>
