<!-- Generated by IcoMoon.io -->
<svg version="1.1" xmlns="http://www.w3.org/2000/svg" width="24" height="24" viewBox="0 0 24 24">
<title>map_marker_radius</title>
<path d="M12 5.016q1.641 0 3.023 0.797t2.18 2.156 0.797 2.93-0.938 3.68q-0.75 1.641-2.063 3.563-0.938 1.406-2.063 2.766l-0.938 1.078-0.938-1.078q-1.125-1.359-2.063-2.766-1.313-1.922-2.063-3.563-0.938-2.109-0.938-3.68t0.797-2.93 2.18-2.156 3.023-0.797zM12 9q-0.844 0-1.43 0.586t-0.586 1.406 0.586 1.406 1.43 0.586 1.43-0.586 0.586-1.406-0.586-1.406-1.43-0.586zM20.016 21.984q0 1.125-1.078 2.039t-2.93 1.453-4.008 0.539-4.008-0.539-2.93-1.453-1.078-2.039q0-0.938 0.844-1.758t2.297-1.383l0.609 0.891q-1.734 0.75-1.734 1.781t1.758 1.758 4.242 0.727 4.242-0.727 1.758-1.758-1.734-1.781l0.609-0.891q1.453 0.563 2.297 1.383t0.844 1.758z"></path>
</svg>
