<!-- Generated by IcoMoon.io -->
<svg version="1.1" xmlns="http://www.w3.org/2000/svg" width="24" height="24" viewBox="0 0 24 24">
<title>map_marker_path</title>
<path d="M18 18q1.266 0 2.133 0.867t0.867 2.133-0.867 2.133-2.133 0.867q-0.984 0-1.758-0.563t-1.055-1.453h-1.172v-1.969h1.172q0.281-0.891 1.055-1.453t1.758-0.563zM18 20.016q-0.422 0-0.703 0.281t-0.281 0.703 0.281 0.703 0.703 0.281 0.703-0.281 0.281-0.703-0.281-0.703-0.703-0.281zM18 11.016q0.609 0 1.031-0.422t0.422-1.008-0.422-1.008-1.031-0.422-1.031 0.422-0.422 1.008 0.422 1.008 1.031 0.422zM18 5.578q1.641 0 2.813 1.172t1.172 2.813q0 1.875-1.969 4.828-1.031 1.5-2.016 2.625v0l-1.031-1.266q-1.172-1.547-1.922-2.906-1.031-1.922-1.031-3.281 0-1.641 1.172-2.813t2.813-1.172zM8.813 20.016h1.172v1.969h-1.172q-0.281 0.891-1.055 1.453t-1.758 0.563q-1.266 0-2.133-0.867t-0.867-2.133q0-0.984 0.563-1.758t1.453-1.055v-1.172h1.969v1.172q0.656 0.188 1.148 0.68t0.68 1.148zM6 20.016q-0.422 0-0.703 0.281t-0.281 0.703 0.281 0.703 0.703 0.281 0.703-0.281 0.281-0.703-0.281-0.703-0.703-0.281zM6 6q1.266 0 2.133 0.867t0.867 2.133q0 0.984-0.563 1.758t-1.453 1.055v1.172h-1.969v-1.172q-0.891-0.281-1.453-1.055t-0.563-1.758q0-1.266 0.867-2.133t2.133-0.867zM6 8.016q-0.422 0-0.703 0.281t-0.281 0.703 0.281 0.703 0.703 0.281 0.703-0.281 0.281-0.703-0.281-0.703-0.703-0.281zM11.016 21.984v-1.969h1.969v1.969h-1.969zM6.984 15.984h-1.969v-1.969h1.969v1.969z"></path>
</svg>
