<!-- Generated by IcoMoon.io -->
<svg version="1.1" xmlns="http://www.w3.org/2000/svg" width="24" height="24" viewBox="0 0 24 24">
<title>map_marker_minus</title>
<path d="M9 14.484q1.031 0 1.758-0.727t0.727-1.758-0.727-1.758-1.758-0.727-1.758 0.727-0.727 1.758 0.727 1.758 1.758 0.727zM9 5.016q1.922 0 3.516 0.938t2.531 2.531 0.938 3.516q0 3.281-3.469 8.484-1.781 2.578-3.516 4.5v0l-1.078-1.266q-1.313-1.641-2.438-3.234-1.5-2.297-2.391-4.219-1.078-2.438-1.078-4.313t0.938-3.469 2.531-2.531 3.516-0.938zM15 20.016h8.016v1.969h-8.016v-1.969z"></path>
</svg>
