<!-- Generated by IcoMoon.io -->
<svg version="1.1" xmlns="http://www.w3.org/2000/svg" width="24" height="24" viewBox="0 0 24 24">
<title>map_marker_multiple</title>
<path d="M14.016 14.484q1.031 0 1.758-0.727t0.727-1.758-0.727-1.758-1.758-0.727-1.781 0.727-0.75 1.758 0.75 1.758 1.781 0.727zM14.016 5.016q1.875 0 3.492 0.938t2.555 2.531 0.938 3.516q0 3.281-3.516 8.484-1.734 2.578-3.469 4.5v0l-1.125-1.266q-1.313-1.641-2.391-3.234-1.547-2.297-2.391-4.219-1.125-2.438-1.125-4.313t0.961-3.469 2.555-2.531 3.516-0.938zM5.016 12q0 2.766 2.484 6.938 1.359 2.203 3.375 4.734l0.141 0.141-1.031 1.172-1.078-1.266q-1.313-1.641-2.391-3.234-1.547-2.297-2.438-4.219-1.078-2.438-1.078-4.266 0-2.344 1.406-4.195t3.609-2.508q-1.406 1.266-2.203 3t-0.797 3.703z"></path>
</svg>
