<!-- Generated by IcoMoon.io -->
<svg version="1.1" xmlns="http://www.w3.org/2000/svg" width="24" height="24" viewBox="0 0 24 24">
<title>map_clock_outline</title>
<path d="M15 15h1.5v4.266l2.859 1.688-0.75 1.219-3.609-2.156v-5.016zM15.984 12q1.031 0 2.016 0.281v-4.594l-3 1.172v3.188q0.328-0.047 0.984-0.047zM23.016 18.984q0 1.922-0.961 3.516t-2.555 2.555-3.516 0.961q-2.203 0-4.008-1.289t-2.555-3.305l-1.406-0.516-5.344 2.063-0.188 0.047q-0.188 0-0.328-0.164t-0.141-0.352v-15.141q0-0.328 0.328-0.469l5.672-1.875 6 2.063 5.344-2.063h0.141q0.188 0 0.352 0.141t0.164 0.328v7.781q1.359 0.938 2.18 2.461t0.82 3.258zM9 18.984q0-2.063 1.102-3.75t2.883-2.578v-3.797l-3.984-1.406v11.531zM15.984 14.016q-1.359 0-2.508 0.656t-1.805 1.805-0.656 2.508 0.656 2.508 1.805 1.828 2.508 0.68q1.031 0 1.945-0.375t1.617-1.078 1.078-1.617 0.375-1.922-0.375-1.922-1.078-1.617-1.617-1.078-1.945-0.375zM3.984 8.438v11.859l3-1.125v-11.719z"></path>
</svg>
