<!-- Generated by IcoMoon.io -->
<svg version="1.1" xmlns="http://www.w3.org/2000/svg" width="24" height="24" viewBox="0 0 24 24">
<title>map_marker_remove_variant</title>
<path d="M12 5.016q-1.875 0-3.492 0.938t-2.555 2.555-0.938 3.445 1.078 4.313q0.891 1.922 2.391 4.219 1.125 1.594 2.438 3.234l1.078 1.266 1.078-1.266q1.313-1.641 2.438-3.234 1.5-2.297 2.391-4.219 1.078-2.438 1.078-4.289t-0.938-3.469-2.555-2.555-3.492-0.938zM9.609 8.156l2.391 2.438 2.391-2.438 1.453 1.406-2.438 2.438 2.438 2.391-1.453 1.453-2.391-2.438-2.391 2.438-1.453-1.453 2.438-2.391-2.438-2.438z"></path>
</svg>
