<!-- Generated by IcoMoon.io -->
<svg version="1.1" xmlns="http://www.w3.org/2000/svg" width="24" height="24" viewBox="0 0 24 24">
<title>map_marker_question_outline</title>
<path d="M12 3.984q-2.156 0-4.008 1.078t-2.93 2.93-1.078 4.008q0 3.516 3.516 8.813 1.875 2.766 3.75 4.875l0.75 0.797 0.75-0.797q1.875-2.109 3.75-4.875 3.516-5.297 3.516-8.813 0-2.156-1.078-4.008t-2.93-2.93-4.008-1.078zM12 23.484q-2.203-2.672-3.797-5.391-2.203-3.75-2.203-6.094 0-1.641 0.797-3.023t2.18-2.18 3.023-0.797 3.023 0.797 2.18 2.18 0.797 3.023q0 2.484-2.344 6.375-1.5 2.484-3.656 5.109zM11.109 17.016h1.781v1.734h-1.781v-1.734zM12 8.016q-1.453 0-2.484 1.008t-1.031 2.461h1.781q0-0.703 0.516-1.219t1.219-0.516 1.219 0.516 0.516 1.219q0 0.516-0.328 0.938-0.188 0.234-0.75 0.703-0.75 0.563-1.031 0.984-0.516 0.703-0.516 1.781h1.781q0-0.656 0.375-1.172 0.234-0.328 0.891-0.914t0.938-0.961q0.422-0.609 0.422-1.359 0-1.453-1.031-2.461t-2.484-1.008z"></path>
</svg>
