<!-- Generated by IcoMoon.io -->
<svg version="1.1" xmlns="http://www.w3.org/2000/svg" width="24" height="24" viewBox="0 0 24 24">
<title>map_check</title>
<path d="M18.234 24.984l-2.719-3 1.125-1.172 1.594 1.594 3.609-3.609 1.172 1.453zM20.484 6q0.234 0 0.375 0.141t0.141 0.375v9.844q-0.984-0.375-2.016-0.375-2.25 0-3.984 1.594v-7.5l-6-2.063v11.906l4.031 1.359q-0.047 0.281-0.047 0.703 0 0.656 0.188 1.359l-4.172-1.453-5.344 2.063q-0.047 0.047-0.141 0.047-0.234 0-0.375-0.141t-0.141-0.375v-15.094q0-0.375 0.328-0.469l5.672-1.922 6 2.109 5.344-2.109h0.141z"></path>
</svg>
