<!-- Generated by IcoMoon.io -->
<svg version="1.1" xmlns="http://www.w3.org/2000/svg" width="24" height="24" viewBox="0 0 24 24">
<title>map_marker_question</title>
<path d="M12 5.016q-1.875 0-3.492 0.938t-2.555 2.555-0.938 3.445 1.078 4.313q0.891 1.922 2.391 4.219 1.125 1.594 2.438 3.234l1.078 1.266 1.078-1.266q1.313-1.641 2.438-3.234 1.5-2.297 2.391-4.219 1.078-2.438 1.078-4.289t-0.938-3.469-2.555-2.555-3.492-0.938zM12.891 18.75h-1.781v-1.734h1.781v1.734zM12.891 15.891h-1.781q0-1.078 0.516-1.781 0.281-0.422 1.031-0.984 0.563-0.469 0.75-0.703 0.328-0.422 0.328-0.938 0-0.703-0.516-1.219t-1.219-0.516-1.219 0.516-0.516 1.219h-1.781q0-1.453 1.031-2.461t2.484-1.008 2.484 1.008 1.031 2.461q0 0.75-0.422 1.359-0.281 0.375-0.938 0.961t-0.891 0.914q-0.375 0.516-0.375 1.172z"></path>
</svg>
