<!-- Generated by IcoMoon.io -->
<svg version="1.1" xmlns="http://www.w3.org/2000/svg" width="24" height="24" viewBox="0 0 24 24">
<title>map_legend</title>
<path d="M9 6l-5.625 1.922q-0.375 0.094-0.375 0.469v15.094q0 0.234 0.141 0.375t0.375 0.141l0.141-0.047 5.344-2.063 6 2.109 5.625-1.922q0.375-0.094 0.375-0.469v-15.094q0-0.234-0.141-0.375t-0.375-0.141l-0.141 0.047-5.344 2.063zM8.016 8.438v11.719l-3 1.172v-11.859zM9.984 8.484l4.031 1.406v11.625l-4.031-1.406v-11.625zM18.984 8.719v11.813l-3 1.031v-11.719zM7.453 9.281l-1.875 0.703v2.156l1.875-0.703v-2.156zM7.453 12.047l-1.875 0.656v2.156l1.875-0.656v-2.156zM7.453 14.813l-1.875 0.656v2.156l1.875-0.656v-2.156zM7.453 17.531l-1.875 0.703v2.156l1.875-0.703v-2.156z"></path>
</svg>
