<!-- Generated by IcoMoon.io -->
<svg version="1.1" xmlns="http://www.w3.org/2000/svg" width="24" height="24" viewBox="0 0 24 24">
<title>map_marker_alert_outline</title>
<path d="M12 5.016q1.922 0 3.516 0.938t2.531 2.531 0.938 3.516q0 3.281-3.469 8.484-1.781 2.578-3.516 4.5v0l-1.078-1.266q-1.313-1.641-2.438-3.234-1.5-2.297-2.391-4.219-1.078-2.438-1.078-4.313t0.938-3.469 2.531-2.531 3.516-0.938zM12 6.984q-0.984 0-1.898 0.398t-1.617 1.102-1.102 1.617-0.398 1.898q0 0.797 0.188 1.453 0.328 1.266 1.313 3 1.219 2.203 3.516 5.25 2.297-3.047 3.516-5.25 0.984-1.734 1.313-3 0.188-0.656 0.188-1.453 0-0.984-0.398-1.898t-1.102-1.617-1.617-1.102-1.898-0.398zM11.016 9h1.969v5.016h-1.969v-5.016zM11.016 15.984h1.969v2.016h-1.969v-2.016z"></path>
</svg>
