<!-- Generated by IcoMoon.io -->
<svg version="1.1" xmlns="http://www.w3.org/2000/svg" width="24" height="24" viewBox="0 0 24 24">
<title>map_marker_circle</title>
<path d="M12 23.016q-2.156 0-4.008-1.078t-2.93-2.93-1.078-4.008q0-1.594 0.609-3.070t1.734-2.602 2.602-1.734 3.070-0.609 3.070 0.609 2.602 1.734 1.734 2.602 0.609 3.070q0 2.156-1.078 4.008t-2.93 2.93-4.008 1.078zM12 5.016q-1.969 0-3.82 0.75t-3.258 2.156-2.156 3.258-0.75 3.82 0.75 3.82 2.156 3.258 3.258 2.156 3.82 0.75 3.82-0.75 3.258-2.156 2.156-3.258 0.75-3.82-0.75-3.82-2.156-3.258-3.258-2.156-3.82-0.75zM12 15.516q-0.609 0-1.055-0.445t-0.445-1.078 0.445-1.055 1.055-0.422 1.055 0.422 0.445 1.055-0.445 1.078-1.055 0.445zM12 10.219q-1.594 0-2.695 1.102t-1.102 2.695q0 1.031 0.609 2.25 0.469 1.031 1.266 2.109 0.609 0.797 1.313 1.547l0.609 0.563 0.609-0.563q0.703-0.75 1.313-1.547 0.797-1.078 1.266-2.109 0.609-1.219 0.609-2.25 0-1.594-1.102-2.695t-2.695-1.102z"></path>
</svg>
