<!-- Generated by IcoMoon.io -->
<svg version="1.1" xmlns="http://www.w3.org/2000/svg" width="24" height="24" viewBox="0 0 24 24">
<title>map_search_outline</title>
<path d="M15.516 15q1.875 0 3.188 1.313t1.313 3.188q0 1.313-0.703 2.391l3.094 3.094-1.406 1.406-3.141-3.094q-1.078 0.703-2.344 0.703-1.875 0-3.188-1.313t-1.313-3.188 1.313-3.188 3.188-1.313zM15.516 17.016q-1.031 0-1.781 0.727t-0.75 1.758 0.75 1.758 1.781 0.727 1.758-0.727 0.727-1.758-0.727-1.758-1.758-0.727zM19.5 5.016q0.188 0 0.352 0.141t0.164 0.328v9.328q-0.938-0.844-2.016-1.313v-5.813l-3 1.172v4.125q-1.078 0.141-2.016 0.516v-4.641l-3.984-1.406v12.047q0 0.938 0.281 1.828l-1.266-0.422-5.344 2.063-0.188 0.047q-0.188 0-0.328-0.164t-0.141-0.352v-15.141q0-0.328 0.328-0.469l5.672-1.875 6 2.063 5.344-2.063h0.141zM3.984 8.438v11.859l3-1.125v-11.719z"></path>
</svg>
