<!-- Generated by IcoMoon.io -->
<svg version="1.1" xmlns="http://www.w3.org/2000/svg" width="24" height="24" viewBox="0 0 24 24">
<title>map_marker_remove</title>
<path d="M9 5.016q-1.875 0-3.492 0.938t-2.555 2.555-0.938 3.445 1.078 4.313q0.891 1.922 2.391 4.219 1.125 1.594 2.438 3.234l1.078 1.266 1.078-1.266q1.313-1.641 2.438-3.234 1.5-2.297 2.391-4.219 1.078-2.438 1.078-4.313t-0.938-3.469-2.531-2.531-3.516-0.938zM9 9.516q1.031 0 1.758 0.727t0.727 1.758-0.727 1.758-1.758 0.727-1.758-0.727-0.727-1.758 0.727-1.758 1.758-0.727zM16.594 17.156l-1.406 1.406 2.391 2.438-2.391 2.391 1.406 1.406 2.391-2.391 2.438 2.391 1.406-1.406-2.438-2.391 2.438-2.438-1.406-1.406-2.438 2.438z"></path>
</svg>
