<!-- Generated by IcoMoon.io -->
<svg version="1.1" xmlns="http://www.w3.org/2000/svg" width="24" height="24" viewBox="0 0 24 24">
<title>map_marker_distance</title>
<path d="M6.516 11.109q-0.703 0-1.172-0.469t-0.469-1.148 0.469-1.148 1.148-0.469 1.148 0.469 0.469 1.172v0q0 0.656-0.469 1.125t-1.125 0.469zM6.516 5.016q-1.875 0-3.188 1.313t-1.313 3.188q0 2.109 2.25 5.438 1.125 1.641 2.25 2.906v0l0.703-0.844q0.844-1.031 1.547-2.063 0.984-1.453 1.547-2.719 0.703-1.594 0.703-2.719 0-1.875-1.313-3.188t-3.188-1.313zM17.484 11.109q-0.656 0-1.125-0.469t-0.469-1.148 0.469-1.148 1.148-0.469 1.148 0.469 0.469 1.148-0.469 1.148-1.172 0.469zM17.484 5.016q-1.875 0-3.188 1.313t-1.313 3.188q0 2.109 2.25 5.438 1.125 1.641 2.25 2.906v0l0.703-0.844q0.844-1.031 1.547-2.063 0.984-1.453 1.547-2.719 0.703-1.594 0.703-2.719 0-1.875-1.313-3.188t-3.188-1.313zM17.484 18.984q-0.938 0-1.711 0.563t-1.102 1.453h-5.344q-0.422-1.172-1.547-1.711t-2.297-0.117-1.711 1.547-0.117 2.297 1.547 1.688 2.297 0.141q1.313-0.469 1.828-1.828h5.344q0.422 1.172 1.547 1.711t2.297 0.117 1.711-1.547 0.117-2.297q-0.328-0.891-1.102-1.453t-1.758-0.563v0zM17.484 23.484q-0.609 0-1.055-0.422t-0.445-1.055 0.445-1.078 1.078-0.445 1.055 0.445 0.422 1.078-0.422 1.055-1.078 0.422z"></path>
</svg>
