<!-- Generated by IcoMoon.io -->
<svg version="1.1" xmlns="http://www.w3.org/2000/svg" width="24" height="24" viewBox="0 0 24 24">
<title>map_search</title>
<path d="M15.516 15q1.875 0 3.188 1.313t1.313 3.188q0 1.313-0.703 2.391l3.094 3.094-1.406 1.406-3.141-3.094q-1.078 0.703-2.344 0.703-1.875 0-3.188-1.313t-1.313-3.188 1.313-3.188 3.188-1.313zM15.516 17.016q-1.031 0-1.781 0.727t-0.75 1.758 0.75 1.758 1.781 0.727 1.758-0.727 0.727-1.758-0.727-1.758-1.758-0.727zM14.016 9.094l-6-2.109v11.906l0.984 0.328v0.281q0 0.938 0.281 1.828l-1.266-0.422-5.344 2.063-0.188 0.047q-0.188 0-0.328-0.164t-0.141-0.352v-15.141q0-0.328 0.328-0.469l5.672-1.875 6 2.063 5.344-2.063h0.141q0.188 0 0.352 0.141t0.164 0.328v9.328q-0.891-0.844-2.063-1.336t-2.438-0.492q-0.75 0-1.5 0.188v-4.078z"></path>
</svg>
