<!-- Generated by IcoMoon.io -->
<svg version="1.1" xmlns="http://www.w3.org/2000/svg" width="24" height="24" viewBox="0 0 24 24">
<title>mapbox</title>
<path d="M12 5.016q1.969 0 3.82 0.75t3.258 2.156 2.156 3.258 0.75 3.82-0.75 3.82-2.156 3.258-3.258 2.156-3.82 0.75-3.82-0.75-3.258-2.156-2.156-3.258-0.75-3.82 0.75-3.82 2.156-3.258 3.258-2.156 3.82-0.75zM16.734 17.438q0.938-0.938 1.242-2.203t-0.047-2.555-1.336-2.273-2.273-1.336-2.555-0.047-2.203 1.242q-1.172 1.172-1.828 2.906-0.516 1.406-0.656 3.141-0.094 1.219 0.047 2.438l0.094 1.031 1.031 0.094q1.219 0.141 2.438 0 1.734-0.094 3.141-0.609 1.734-0.656 2.906-1.828zM13.172 10.875l0.938 2.016 2.016 0.938-2.016 0.984-0.938 2.016-0.984-2.016-2.016-0.984 2.016-0.938z"></path>
</svg>
