<!-- Generated by IcoMoon.io -->
<svg version="1.1" xmlns="http://www.w3.org/2000/svg" width="24" height="24" viewBox="0 0 24 24">
<title>math_integral_box</title>
<path d="M18.984 6h-13.969q-0.844 0-1.43 0.586t-0.586 1.43v13.969q0 0.844 0.586 1.43t1.43 0.586h13.969q0.844 0 1.43-0.586t0.586-1.43v-13.969q0-0.844-0.586-1.43t-1.43-0.586zM15.891 9.891q-0.188-0.047-0.375-0.141-0.422-0.141-0.609-0.141-0.469-0.094-0.773 0.141t-0.445 0.938l-1.688 9.094q-0.328 1.266-0.984 1.828-0.563 0.375-1.313 0.375-0.516 0-1.313-0.234l-0.703-0.234 0.516-1.406 0.422 0.141q0.469 0.141 0.563 0.141 0.328 0.094 0.703-0.094 0.188-0.094 0.422-0.703l1.594-9.188q0.141-1.031 0.984-1.922 0.844-0.563 2.109-0.375 0.422 0.047 1.031 0.281l0.469 0.188z"></path>
</svg>
