<!-- Generated by IcoMoon.io -->
<svg version="1.1" xmlns="http://www.w3.org/2000/svg" width="24" height="24" viewBox="0 0 24 24">
<title>math_compass</title>
<path d="M20.016 22.875v2.109l-1.828-1.172-4.781-9q0.984-0.281 1.781-0.984zM15 9.984q0 1.266-0.867 2.133t-2.133 0.867h-0.422l-5.766 10.828-1.828 1.172v-2.109l5.813-10.875q-0.844-0.938-0.773-2.18t0.961-2.039 2.016-0.797v-1.969q0.422 0 0.703 0.281t0.281 0.703v1.172q0.938 0.328 1.477 1.102t0.539 1.711zM12.984 9.984q0-0.422-0.281-0.703t-0.703-0.281-0.703 0.281-0.281 0.703 0.281 0.727 0.703 0.305 0.703-0.305 0.281-0.727z"></path>
</svg>
