<!-- Generated by IcoMoon.io -->
<svg version="1.1" xmlns="http://www.w3.org/2000/svg" width="24" height="24" viewBox="0 0 24 24">
<title>message_text_lock_outline</title>
<path d="M23.016 6v-0.516q0-1.031-0.75-1.758t-1.781-0.727-1.758 0.727-0.727 1.758v0.516q-0.422 0-0.703 0.305t-0.281 0.68v4.031q0 0.375 0.281 0.68t0.703 0.305h5.016q0.375 0 0.68-0.305t0.305-0.68v-4.031q0-0.375-0.305-0.68t-0.68-0.305zM21.984 6h-3v-0.516q0-0.609 0.445-1.055t1.078-0.445 1.055 0.445 0.422 1.055v0.516zM6 14.016h9v1.969h-9v-1.969zM6 9.984h9v2.016h-9v-2.016zM21.984 14.016v4.969q0 0.844-0.586 1.43t-1.383 0.586h-14.016l-3.984 3.984v-18q0-0.797 0.586-1.383t1.383-0.586h11.016v1.969h-11.016v13.172l1.172-1.172h14.859v-4.969h1.969z"></path>
</svg>
