<!-- Generated by IcoMoon.io -->
<svg version="1.1" xmlns="http://www.w3.org/2000/svg" width="24" height="24" viewBox="0 0 24 24">
<title>message_text_clock_outline</title>
<path d="M21.984 15.422v-8.438q0-0.797-0.586-1.383t-1.383-0.586h-16.031q-0.797 0-1.383 0.586t-0.586 1.383v18l3.984-3.984h3.281q0.656 2.203 2.508 3.609t4.195 1.406q1.922 0 3.516-0.938t2.555-2.555 0.961-3.539-1.031-3.563zM5.156 18.984l-1.172 1.172v-13.172h16.031v6.281q-1.828-1.266-4.031-1.266-1.359 0-2.625 0.539t-2.25 1.477h-5.109v1.969h3.703q-0.703 1.453-0.703 3h-3.844zM15.984 23.859q-2.016 0-3.422-1.43t-1.406-3.445 1.406-3.422 3.422-1.406 3.445 1.406 1.43 3.422-1.43 3.445-3.445 1.43zM18 12h-12v-2.016h12v2.016zM16.5 18.797l2.438 1.453-0.75 1.266-3.188-1.828v-3.703h1.5v2.813z"></path>
</svg>
