<!-- Generated by IcoMoon.io -->
<svg version="1.1" xmlns="http://www.w3.org/2000/svg" width="24" height="24" viewBox="0 0 24 24">
<title>message_text_lock</title>
<path d="M20.484 3q-1.031 0-1.758 0.727t-0.727 1.758v0.516q-0.422 0-0.703 0.281t-0.281 0.703v4.031q0 0.422 0.281 0.703t0.703 0.281h5.016q0.422 0 0.703-0.281t0.281-0.703v-4.031q0-0.422-0.281-0.703t-0.703-0.281v-0.516q0-1.031-0.75-1.758t-1.781-0.727zM20.484 3.984q0.656 0 1.078 0.445t0.422 1.055v0.516h-3v-0.516q0-0.609 0.445-1.055t1.055-0.445zM3.984 5.016q-0.797 0-1.383 0.586t-0.586 1.383v18l3.984-3.984h14.016q0.797 0 1.383-0.586t0.586-1.43v-4.969h-4.969q-0.844 0-1.43-0.586t-0.586-1.43v-6.984h-11.016zM6 9h6.984v2.016h-6.984v-2.016zM6 12h6.984v2.016h-6.984v-2.016zM6 15h8.016v2.016h-8.016v-2.016z"></path>
</svg>
