<!-- Generated by IcoMoon.io -->
<svg version="1.1" xmlns="http://www.w3.org/2000/svg" width="24" height="24" viewBox="0 0 24 24">
<title>message_settings_variant</title>
<path d="M13.5 12.984q0 0.656-0.445 1.078t-1.055 0.422-1.055-0.422-0.445-1.055 0.445-1.078 1.055-0.445 1.055 0.445 0.445 1.055zM21.984 6.984v12q0 0.844-0.586 1.43t-1.383 0.586h-14.016l-3.984 3.984v-18q0-0.797 0.586-1.383t1.383-0.586h16.031q0.797 0 1.383 0.586t0.586 1.383zM16.781 14.297l-1.078-0.797q0-0.234 0.023-0.492t-0.023-0.492l1.078-0.844q0.141-0.141 0.047-0.328l-1.031-1.734q-0.047-0.141-0.281-0.094l-1.266 0.469q-0.422-0.328-0.844-0.469l-0.188-1.313q0-0.188-0.234-0.188h-1.969q-0.234 0-0.281 0.188l-0.188 1.313q-0.422 0.188-0.844 0.469l-1.266-0.469q-0.188-0.094-0.281 0.094l-0.984 1.734q-0.141 0.188 0.047 0.328l1.031 0.844q-0.047 0.469 0 0.984l-1.031 0.797q-0.188 0.141-0.047 0.328l0.984 1.734q0.094 0.188 0.281 0.141l1.266-0.516q0.422 0.328 0.844 0.516l0.188 1.313q0.047 0.188 0.281 0.188h1.969q0.234 0 0.281-0.188l0.188-1.359q0.328-0.141 0.844-0.469l1.219 0.516q0.281 0 0.328-0.141l0.984-1.734q0.094-0.188-0.047-0.328z"></path>
</svg>
