<!-- Generated by IcoMoon.io -->
<svg version="1.1" xmlns="http://www.w3.org/2000/svg" width="24" height="24" viewBox="0 0 24 24">
<title>microscope</title>
<path d="M9.469 9.281l1.594 2.719q-1.969 0.188-3.258 1.617t-1.289 3.398q0 1.359 0.656 2.508t1.805 1.805 2.508 0.656q1.547 0 2.789-0.82t1.805-2.18h-2.578v-1.969h8.016v1.969h-2.25q-0.656 2.391-2.484 4.031h2.719v1.969h-15.984v-1.969h2.672q-1.266-1.125-1.969-2.695t-0.703-3.305q0-2.719 1.664-4.875t4.289-2.859zM12.75 5.063l0.75 1.313 0.844-0.516 3.516 6.094-3.469 1.969-3.516-6.047 0.891-0.516-0.75-1.313z"></path>
</svg>
