<!-- Generated by IcoMoon.io -->
<svg version="1.1" xmlns="http://www.w3.org/2000/svg" width="24" height="24" viewBox="0 0 24 24">
<title>microphone_variant_off</title>
<path d="M2.016 8.25l1.266-1.266 16.734 16.734-1.266 1.266-2.766-2.719q-0.094 1.547-1.242 2.648t-2.766 1.102-2.789-1.172-1.172-2.859v-0.984h-1.031l-0.844-8.203q-0.516-0.516-0.797-1.219zM9 6q1.641 0 2.813 1.172t1.172 2.813h-4.172l-2.719-2.719q0.563-0.609 1.313-0.938t1.594-0.328zM11.859 12.797l-0.047 0.188-2.016-1.969h3.094q-0.281 1.031-1.031 1.781zM11.016 21h-1.031v0.984q0 0.844 0.586 1.43t1.43 0.586 1.43-0.586 0.586-1.43v-1.734l-2.672-2.625zM18 12.984h2.016l-1.031 1.031 1.031 0.984h-2.016q-0.844 0-1.43 0.586t-0.586 1.43v0.188l-1.688-1.688q0.469-1.172 1.453-1.852t2.25-0.68zM8.016 15q0 0.422 0.281 0.703t0.656 0.281 0.609-0.141l-1.406-1.406q-0.141 0.234-0.141 0.563z"></path>
</svg>
