<!-- Generated by IcoMoon.io -->
<svg version="1.1" xmlns="http://www.w3.org/2000/svg" width="24" height="24" viewBox="0 0 24 24">
<title>microphone_plus</title>
<path d="M9 5.016q1.266 0 2.133 0.867t0.867 2.133v6q0 1.219-0.867 2.109t-2.133 0.891-2.133-0.891-0.867-2.109v-6q0-1.266 0.867-2.133t2.133-0.867zM15.984 14.016q0 2.625-1.711 4.57t-4.289 2.367v3.047h-1.969v-3.047q-2.578-0.422-4.289-2.367t-1.711-4.57h1.969q0 0.984 0.398 1.898t1.102 1.617 1.617 1.078 1.898 0.375 1.898-0.375 1.617-1.078 1.102-1.617 0.398-1.898h1.969zM15 8.016h3v-3h2.016v3h3v1.969h-3v3h-2.016v-3h-3v-1.969z"></path>
</svg>
