<!-- Generated by IcoMoon.io -->
<svg version="1.1" xmlns="http://www.w3.org/2000/svg" width="24" height="24" viewBox="0 0 24 24">
<title>microphone_variant</title>
<path d="M9 6q1.641 0 2.813 1.172t1.172 2.813h-7.969q0-1.641 1.172-2.813t2.813-1.172zM11.859 12.797l-0.844 8.203h-1.031v0.984q0 0.844 0.586 1.43t1.43 0.586 1.43-0.586 0.586-1.43v-4.969q0-1.688 1.172-2.859t2.813-1.172h2.016l-1.031 1.031 1.031 0.984h-2.016q-0.844 0-1.43 0.586t-0.586 1.43v4.969q0 1.688-1.172 2.859t-2.813 1.172-2.813-1.172-1.172-2.859v-0.984h-1.031l-0.844-8.203q-0.75-0.75-1.031-1.781h7.781q-0.281 1.031-1.031 1.781zM9 14.016q-0.422 0-0.703 0.281t-0.281 0.703 0.281 0.703 0.703 0.281 0.703-0.281 0.281-0.703-0.281-0.703-0.703-0.281z"></path>
</svg>
