<!-- Generated by IcoMoon.io -->
<svg version="1.1" xmlns="http://www.w3.org/2000/svg" width="24" height="24" viewBox="0 0 24 24">
<title>microphone_settings</title>
<path d="M18.984 12.984h-1.688q0 1.453-0.727 2.625t-1.969 1.828-2.602 0.656-2.602-0.656-1.969-1.828-0.727-2.625h-1.688q0 1.688 0.797 3.141t2.18 2.391 3.023 1.219v3.281h1.969v-3.281q1.641-0.281 3.023-1.219t2.18-2.391 0.797-3.141zM15 27h2.016v-2.016h-2.016v2.016zM11.016 27h1.969v-2.016h-1.969v2.016zM12 15.984q1.266 0 2.133-0.867t0.867-2.133v-6q0-1.219-0.867-2.109t-2.133-0.891-2.133 0.891-0.867 2.109v6q0 1.266 0.867 2.133t2.133 0.867zM6.984 27h2.016v-2.016h-2.016v2.016z"></path>
</svg>
