<!-- Generated by IcoMoon.io -->
<svg version="1.1" xmlns="http://www.w3.org/2000/svg" width="24" height="24" viewBox="0 0 24 24">
<title>midi_port</title>
<path d="M12 5.016q1.969 0 3.82 0.75t3.258 2.156 2.156 3.258 0.75 3.82-0.75 3.82-2.156 3.258-3.258 2.156-3.82 0.75-3.82-0.75-3.258-2.156-2.156-3.258-0.75-3.82 0.75-3.82 2.156-3.258 3.258-2.156 3.82-0.75zM20.203 15q0-2.859-1.758-5.063t-4.43-2.859v1.922h-4.031v-1.922q-2.672 0.656-4.43 2.859t-1.758 5.063q0 1.641 0.633 3.141t1.781 2.648 2.648 1.781 3.141 0.633 3.141-0.633 2.648-1.781 1.781-2.648 0.633-3.141zM6.984 13.641q0.563 0 0.961 0.398t0.398 0.961-0.398 0.961-0.961 0.398-0.961-0.398-0.398-0.961 0.398-0.961 0.961-0.398zM17.016 13.641q0.563 0 0.961 0.398t0.398 0.961-0.398 0.961-0.961 0.398-0.961-0.398-0.398-0.961 0.398-0.961 0.961-0.398zM8.344 17.25q0.563 0 0.984 0.422t0.422 0.984-0.422 0.961-0.984 0.398-0.961-0.398-0.398-0.961 0.398-0.984 0.961-0.422zM15.656 17.25q0.563 0 0.961 0.422t0.398 0.984-0.398 0.961-0.961 0.398-0.984-0.398-0.422-0.961 0.422-0.984 0.984-0.422zM12 18.656q0.563 0 0.961 0.398t0.398 0.961-0.398 0.961-0.961 0.398-0.961-0.398-0.398-0.961 0.398-0.961 0.961-0.398z"></path>
</svg>
