<!-- Generated by IcoMoon.io -->
<svg version="1.1" xmlns="http://www.w3.org/2000/svg" width="24" height="24" viewBox="0 0 24 24">
<title>motorbike</title>
<path d="M17.438 12.984l-4.031-3.984h-4.406v2.016h3.609l1.969 1.969h-8.063q-1.875 0-3.188 1.313t-1.313 3.188 1.313 3.188 3.188 1.313q1.641 0 2.883-1.055t1.523-2.648l2.109-1.266q-0.047 0.141-0.047 0.469 0 1.875 1.313 3.188t3.188 1.313 3.188-1.313 1.313-3.188-1.313-3.188-3.188-1.313h-0.047zM8.859 18.281q-0.281 0.75-0.914 1.242t-1.477 0.492q-1.031 0-1.758-0.75t-0.727-1.781 0.727-1.758 1.758-0.727q0.844 0 1.477 0.492t0.914 1.242h-2.859v1.5zM17.484 20.016q-1.031 0-1.781-0.75t-0.75-1.781 0.75-1.758 1.781-0.727 1.758 0.727 0.727 1.758-0.727 1.781-1.758 0.75z"></path>
</svg>
