<!-- Generated by IcoMoon.io -->
<svg version="1.1" xmlns="http://www.w3.org/2000/svg" width="24" height="24" viewBox="0 0 24 24">
<title>mouse_variant_off</title>
<path d="M2.016 8.25l1.266-1.266 16.734 16.734-1.266 1.266-1.453-1.406q-0.656 1.078-1.805 1.758t-2.508 0.68-2.508-0.68-1.805-1.828-0.656-2.508v-1.078q-1.734-0.375-2.883-1.758t-1.148-3.164v-3h1.734zM14.016 9.984h-4.031v-4.875q1.734 0.328 2.883 1.711t1.148 3.164zM8.016 5.109v4.078l-2.625-2.625q1.078-1.125 2.625-1.453zM14.016 15v0.188l-3.188-3.188h3.188v3zM9.984 19.922v1.078q0 1.266 0.891 2.133t2.109 0.867q0.984 0 1.734-0.539t1.078-1.383l-3.375-3.422q-1.031 0.938-2.438 1.266zM15.984 15.984q0-1.641 1.172-2.813t2.859-1.172h1.969l-0.984 0.984 0.984 1.031h-1.969q-0.844 0-1.43 0.586t-0.586 1.383v3.188l-2.016-1.969v-1.219z"></path>
</svg>
