<!-- Generated by IcoMoon.io -->
<svg version="1.1" xmlns="http://www.w3.org/2000/svg" width="24" height="24" viewBox="0 0 24 24">
<title>mouse_variant</title>
<path d="M14.016 9.984h-4.031v-4.875q1.734 0.328 2.883 1.711t1.148 3.164zM3.984 9.984q0-1.781 1.148-3.164t2.883-1.711v4.875h-4.031zM14.016 15q0 1.781-1.148 3.164t-2.883 1.758v1.078q0 1.266 0.891 2.133t2.133 0.867 2.109-0.867 0.867-2.133v-5.016q0-1.641 1.172-2.813t2.859-1.172h1.969l-0.984 0.984 0.984 1.031h-1.969q-0.844 0-1.43 0.586t-0.586 1.383v5.016q0 1.359-0.68 2.508t-1.828 1.828-2.508 0.68-2.508-0.68-1.805-1.828-0.656-2.508v-1.078q-1.734-0.375-2.883-1.758t-1.148-3.164v-3h10.031v3z"></path>
</svg>
