<!-- Generated by IcoMoon.io -->
<svg version="1.1" xmlns="http://www.w3.org/2000/svg" width="24" height="24" viewBox="0 0 24 24">
<title>multiplication_box</title>
<path d="M18.984 6q0.844 0 1.43 0.586t0.586 1.43v13.969q0 0.844-0.586 1.43t-1.43 0.586h-13.969q-0.844 0-1.43-0.586t-0.586-1.43v-13.969q0-0.844 0.586-1.43t1.43-0.586h13.969zM11.016 20.016h1.969v-3.281l2.859 1.641 0.984-1.734-2.813-1.641 2.813-1.641-0.984-1.734-2.859 1.641v-3.281h-1.969v3.281l-2.859-1.641-0.984 1.734 2.813 1.641-2.813 1.641 0.984 1.734 2.859-1.641v3.281z"></path>
</svg>
