<!-- Generated by IcoMoon.io -->
<svg version="1.1" xmlns="http://www.w3.org/2000/svg" width="24" height="24" viewBox="0 0 24 24">
<title>nature_people1</title>
<path d="M4.5 14.016q0.609 0 1.055-0.445t0.445-1.078-0.445-1.055-1.055-0.422-1.055 0.422-0.445 1.055 0.445 1.078 1.055 0.445zM22.172 12.188q0-1.922-0.938-3.539t-2.555-2.555-3.492-0.938q-1.406 0-2.695 0.539t-2.273 1.523-1.523 2.273-0.539 2.695q0 2.578 1.664 4.523t4.195 2.367v3.938h-8.016v-3h0.984v-4.031q0-0.422-0.281-0.703t-0.703-0.281h-3q-0.422 0-0.703 0.281t-0.281 0.703v4.031h0.984v4.969h15.984v-1.969h-3v-3.891q1.734-0.188 3.141-1.172t2.227-2.508 0.82-3.258z"></path>
</svg>
