<!-- Generated by IcoMoon.io -->
<svg version="1.1" xmlns="http://www.w3.org/2000/svg" width="24" height="24" viewBox="0 0 24 24">
<title>office_building</title>
<path d="M5.016 6v18h6v-3.516h1.969v3.516h6v-18h-13.969zM6.984 8.016h2.016v1.969h-2.016v-1.969zM11.016 8.016h1.969v1.969h-1.969v-1.969zM15 8.016h2.016v1.969h-2.016v-1.969zM6.984 12h2.016v2.016h-2.016v-2.016zM11.016 12h1.969v2.016h-1.969v-2.016zM15 12h2.016v2.016h-2.016v-2.016zM6.984 15.984h2.016v2.016h-2.016v-2.016zM11.016 15.984h1.969v2.016h-1.969v-2.016zM15 15.984h2.016v2.016h-2.016v-2.016zM6.984 20.016h2.016v1.969h-2.016v-1.969zM15 20.016h2.016v1.969h-2.016v-1.969z"></path>
</svg>
