<!-- Generated by IcoMoon.io -->
<svg version="1.1" xmlns="http://www.w3.org/2000/svg" width="24" height="24" viewBox="0 0 24 24">
<title>oil</title>
<path d="M21.984 15.516q0.281 0.281 0.516 0.609 0.609 0.75 0.984 1.359 0.516 0.938 0.516 1.5 0 0.844-0.586 1.43t-1.406 0.586-1.406-0.586-0.586-1.43q0-0.563 0.516-1.5 0.375-0.609 0.938-1.359zM6 9h3.984q0.422 0 0.727 0.281t0.305 0.703-0.305 0.727-0.727 0.305h-0.984v1.969h2.016q0.516 0 0.984 0.281t0.75 0.75l6.469-3.797 3.281 1.922q0.375 0.188 0.469 0.586t-0.117 0.773-0.586 0.469-0.75-0.094l-2.109-1.219-3.656 6.328q-0.281 0.469-0.75 0.75t-0.984 0.281h-9q-0.844 0-1.43-0.586t-0.586-1.43v-3q0-0.844 0.586-1.43t1.43-0.586h1.969v-1.969h-0.984q-0.422 0-0.703-0.305t-0.281-0.727 0.281-0.703 0.703-0.281zM5.016 15v3h9l2.063-3.563-3.469 2.016-0.938-1.453h-6.656zM0.375 12.188l1.734-1.688q0.281-0.281 0.68-0.281t0.703 0.281 0.305 0.703-0.281 0.703l-1.734 1.734q-0.281 0.281-0.703 0.281t-0.703-0.305-0.281-0.703 0.281-0.727z"></path>
</svg>
