<!-- Generated by IcoMoon.io -->
<svg version="1.1" xmlns="http://www.w3.org/2000/svg" width="24" height="24" viewBox="0 0 24 24">
<title>oil_lamp</title>
<path d="M5.016 23.016h10.969v1.969h-10.969v-1.969zM11.016 8.016h-1.031q-0.797 0-1.383 0.586t-0.586 1.383h4.969q0-0.797-0.586-1.383t-1.383-0.586zM15.984 11.016h6q0 0.797-0.586 1.383t-1.383 0.586h-1.031q-1.641 0-2.813 1.172t-1.172 2.859v0.984q0 1.641-1.172 2.813t-2.813 1.172h-1.031q-1.641 0-2.813-1.172t-1.172-2.813h-2.016q-0.797 0-1.383-0.586t-0.586-1.43v-3q0-0.797 0.586-1.383t1.383-0.586h12zM6 12.984h-2.016v3h2.016v-3zM18.984 8.016q0.844 0 1.43 0.586t0.586 1.383h0.984q0.047-1.266-0.844-2.156t-2.156-0.844q-0.797 0-1.383-0.586t-0.586-1.383h-1.031q-0.047 1.266 0.844 2.156t2.156 0.844z"></path>
</svg>
