<!-- Generated by IcoMoon.io -->
<svg version="1.1" xmlns="http://www.w3.org/2000/svg" width="24" height="24" viewBox="0 0 24 24">
<title>oil_level</title>
<path d="M8.016 21q-1.453 0-2.719 1.313l-0.141 0.141q-0.328 0.328-0.539 0.445t-0.609 0.117-0.609-0.117-0.539-0.445l-0.141-0.141q-0.844-0.891-1.734-1.172v2.25l0.328 0.328q1.266 1.266 2.695 1.266t2.695-1.266l0.141-0.188q0.328-0.328 0.539-0.422t0.609-0.094 0.609 0.094 0.539 0.422l0.141 0.188q1.125 1.078 2.203 1.219 0.188 0.047 0.516 0.047 1.406 0 2.719-1.266l0.141-0.188q0.328-0.328 0.539-0.422t0.609-0.094 0.609 0.094 0.539 0.422l0.141 0.188q1.266 1.266 2.695 1.266t2.695-1.266l0.328-0.328v-2.25q-0.891 0.281-1.734 1.172l-0.141 0.141q-0.328 0.328-0.539 0.445t-0.609 0.117-0.609-0.117-0.539-0.445l-0.141-0.141q-1.266-1.313-2.695-1.313t-2.695 1.313l-0.188 0.141q-0.328 0.328-0.516 0.445t-0.609 0.117q-0.281 0-0.516-0.094t-0.703-0.563l-0.094-0.047q-1.266-1.313-2.672-1.313zM21.984 13.5q0.281 0.328 0.516 0.609 0.609 0.75 0.984 1.406 0.516 0.891 0.516 1.5 0 0.797-0.586 1.383t-1.406 0.586-1.406-0.586-0.586-1.406 0.984-2.227q0.516-0.703 0.984-1.266v0zM22.5 10.125l-3.281-1.875-6.469 3.75q-0.281-0.469-0.75-0.727t-0.984-0.258h-2.016v-2.016h0.984q0.422 0 0.727-0.305t0.305-0.703-0.305-0.703-0.727-0.305h-3.984q-0.422 0-0.703 0.305t-0.281 0.703 0.281 0.703 0.703 0.305h0.984v2.016h-1.969q-0.844 0-1.43 0.586t-0.586 1.383v3q0 0.844 0.586 1.43t1.43 0.586h9q0.516 0 0.984-0.281t0.75-0.75l3.656-6.328 2.109 1.219q0.375 0.188 0.75 0.094t0.586-0.469 0.117-0.773-0.469-0.586zM14.016 15.984h-9v-3h6.656l0.938 1.453 3.469-2.016zM3.516 9.938l-1.734 1.688q-0.281 0.234-0.68 0.234t-0.68-0.281-0.281-0.68 0.234-0.68l1.734-1.734q0.281-0.281 0.68-0.281t0.703 0.305 0.305 0.703-0.281 0.727z"></path>
</svg>
