<!-- Generated by IcoMoon.io -->
<svg version="1.1" xmlns="http://www.w3.org/2000/svg" width="24" height="24" viewBox="0 0 24 24">
<title>oil_temperature</title>
<path d="M9.984 8.016h3v-2.016h-3v-0.984q0-0.469-0.258-0.75t-0.727-0.281-0.727 0.281-0.258 0.75v13.266q-0.469 0.234-0.75 0.703t-0.281 1.031q0 0.797 0.586 1.383t1.43 0.586 1.43-0.586 0.586-1.383q0-0.563-0.281-1.031t-0.75-0.703v-2.297h3v-1.969h-3v-2.016h3v-2.016h-3v-1.969zM21.984 20.484q0.281 0.328 0.516 0.656 0.609 0.703 0.984 1.359 0.516 0.938 0.516 1.5 0 0.844-0.586 1.43t-1.406 0.586-1.406-0.586-0.586-1.43q0-0.563 0.516-1.5 0.375-0.656 0.938-1.359zM22.922 18.516q-0.234 0.328-0.633 0.445t-0.773-0.070l-2.109-1.172-3.609 6.281q-0.234 0.469-0.727 0.727t-1.055 0.258h-9q-0.844 0-1.43-0.586t-0.586-1.383v-3q0-0.844 0.586-1.43t1.43-0.586v5.016h9l2.063-3.609-3.094 1.781v-2.391l6.234-3.609 3.281 1.922q0.375 0.188 0.469 0.586t-0.047 0.82zM3.516 16.922l-1.734 1.688q-0.281 0.281-0.68 0.281t-0.703-0.305-0.305-0.703 0.328-0.68l1.688-1.688q0.281-0.328 0.68-0.328t0.703 0.305 0.305 0.703-0.281 0.727z"></path>
</svg>
