<!-- Generated by IcoMoon.io -->
<svg version="1.1" xmlns="http://www.w3.org/2000/svg" width="24" height="24" viewBox="0 0 24 24">
<title>orbit</title>
<path d="M8.109 4.734q1.781-0.75 3.891-0.75 3 0 5.531 1.477t4.008 4.008 1.477 5.531-1.477 5.531-4.008 4.008-5.531 1.477-5.531-1.477-4.008-4.008-1.477-5.531q0-2.063 0.75-3.938 0.703 0.75 1.734 1.125-0.469 1.359-0.469 2.813 0 2.438 1.219 4.5t3.281 3.281 4.5 1.219 4.5-1.219 3.281-3.281 1.219-4.5-1.219-4.5-3.281-3.281-4.5-1.219q-1.453 0-2.813 0.469-0.375-1.031-1.078-1.734zM4.922 5.953q0.844 0 1.43 0.563t0.586 1.406-0.586 1.43-1.43 0.586-1.406-0.586-0.563-1.43 0.563-1.406 1.406-0.563zM12 9.984q0.984 0 1.898 0.398t1.617 1.102 1.102 1.617 0.398 1.898q0 1.359-0.68 2.508t-1.828 1.828-2.508 0.68-2.508-0.68-1.828-1.828-0.68-2.508q0-0.984 0.398-1.898t1.102-1.617 1.617-1.102 1.898-0.398z"></path>
</svg>
