<!-- Generated by IcoMoon.io -->
<svg version="1.1" xmlns="http://www.w3.org/2000/svg" width="24" height="24" viewBox="0 0 24 24">
<title>package_variant</title>
<path d="M2.016 13.969q-0.375-0.234-0.492-0.633t0.117-0.727l1.5-2.625q0.141-0.281 0.469-0.422l7.828-4.359q0.234-0.188 0.563-0.188t0.563 0.188l7.922 4.406q0.281 0.188 0.422 0.469l1.453 2.531q0.188 0.328 0.094 0.727t-0.469 0.633l-0.984 0.563v4.969q0 0.609-0.516 0.891l-7.922 4.406q-0.234 0.188-0.563 0.188t-0.563-0.188l-7.922-4.406q-0.516-0.281-0.516-0.891v-5.531q-0.516 0.281-0.984 0zM12 7.172v0 6.656l5.953-3.328zM5.016 18.891l6 3.422v-6.75l-6-3.375v6.703zM18.984 18.891v-3.188l-4.969 2.906q-0.516 0.234-1.031 0v3.703zM13.828 16.359l6.281-3.609-0.563-1.031-6.281 3.609z"></path>
</svg>
