<!-- Generated by IcoMoon.io -->
<svg version="1.1" xmlns="http://www.w3.org/2000/svg" width="24" height="24" viewBox="0 0 24 24">
<title>package_variant_closed</title>
<path d="M21 19.5q0 0.609-0.516 0.891l-7.922 4.406q-0.234 0.188-0.563 0.188t-0.563-0.188l-7.922-4.406q-0.516-0.281-0.516-0.891v-9q0-0.609 0.516-0.891l7.922-4.406q0.234-0.188 0.563-0.188t0.563 0.188l7.922 4.406q0.516 0.281 0.516 0.891v9zM12 7.172l-1.875 1.031 5.859 3.422 1.969-1.125zM6.047 10.5l5.953 3.328 1.969-1.078-5.906-3.422zM5.016 18.891l6 3.422v-6.75l-6-3.375v6.703zM18.984 18.891v-6.703l-6 3.375v6.75z"></path>
</svg>
