<!-- Generated by IcoMoon.io -->
<svg version="1.1" xmlns="http://www.w3.org/2000/svg" width="24" height="24" viewBox="0 0 24 24">
<title>palette_advanced</title>
<path d="M21.984 24.984h-12v-1.969h12v1.969zM2.016 24.984v-1.969h6.984v1.969h-6.984zM18 21v-8.016h3.984v8.016h-3.984zM18 6h3.984v6h-3.984v-6zM2.016 21v-15h13.969v15h-13.969zM9 17.578q1.266 0 2.133-0.891t0.867-2.133-1.5-3.445q-0.75-1.078-1.5-1.922v0l-0.797 0.938q-0.891 1.172-1.406 2.156-0.797 1.406-0.797 2.297 0 1.219 0.867 2.109t2.133 0.891z"></path>
</svg>
