<!-- Generated by IcoMoon.io -->
<svg version="1.1" xmlns="http://www.w3.org/2000/svg" width="24" height="24" viewBox="0 0 24 24">
<title>paperclip</title>
<path d="M16.5 9v11.484q0 1.688-1.172 2.859t-2.836 1.172-2.836-1.172-1.172-2.859v-12.469q0-1.031 0.75-1.781t1.781-0.75 1.758 0.75 0.727 1.781v10.5q0 0.422-0.281 0.703t-0.703 0.281-0.727-0.281-0.305-0.703v-9.516h-1.5v9.516q0 1.031 0.75 1.758t1.781 0.727 1.758-0.727 0.727-1.758v-10.5q0-1.688-1.172-2.859t-2.836-1.172-2.836 1.172-1.172 2.859v12.469q0 1.125 0.422 2.133t1.195 1.781 1.781 1.195 2.133 0.422q1.5 0 2.742-0.75t1.992-2.016 0.75-2.766v-11.484h-1.5z"></path>
</svg>
