<!-- Generated by IcoMoon.io -->
<svg version="1.1" xmlns="http://www.w3.org/2000/svg" width="24" height="24" viewBox="0 0 24 24">
<title>party_popper</title>
<path d="M14.531 4.453l-1.078 1.078 1.594 1.594q0.328 0.375 0.328 0.891t-0.328 0.844l-3.563 3.609 1.031 1.078 3.609-3.609q0.797-0.891 0.797-1.945t-0.797-1.945zM10.547 6.469l-1.078 1.078 0.609 0.563q0.328 0.328 0.328 0.891t-0.328 0.891l-0.609 0.563 1.078 1.078 0.563-0.609q0.797-0.891 0.797-1.945t-0.797-1.945zM21 8.063q-1.031 0-1.922 0.797l-5.625 5.625 1.078 1.031 5.578-5.578q0.375-0.375 0.891-0.375t0.891 0.375l0.609 0.609 1.031-1.078-0.563-0.609q-0.891-0.797-1.969-0.797zM6.984 11.016l-4.969 13.969 13.969-4.969zM18.984 14.063q-1.031 0-1.922 0.797l-1.594 1.594 1.078 1.078 1.594-1.594q0.375-0.375 0.867-0.375t0.867 0.375l1.641 1.594 1.031-1.031-1.594-1.641q-0.891-0.797-1.969-0.797z"></path>
</svg>
