<!-- Generated by IcoMoon.io -->
<svg version="1.1" xmlns="http://www.w3.org/2000/svg" width="24" height="24" viewBox="0 0 24 24">
<title>pdf_box</title>
<path d="M12 13.5h0.984v3h-0.984v-3zM6.984 14.484h1.031v-0.984h-1.031v0.984zM20.016 9v12q0 0.844-0.586 1.43t-1.43 0.586h-12q-0.844 0-1.43-0.586t-0.586-1.43v-12q0-0.844 0.586-1.43t1.43-0.586h12q0.844 0 1.43 0.586t0.586 1.43zM9.516 13.5q0-0.609-0.445-1.055t-1.055-0.445h-2.531v6h1.5v-2.016h1.031q0.609 0 1.055-0.422t0.445-1.078v-0.984zM14.484 13.5q0-0.609-0.422-1.055t-1.078-0.445h-2.484v6h2.484q0.656 0 1.078-0.445t0.422-1.055v-3zM18.516 12h-3v6h1.5v-2.016h1.5v-1.5h-1.5v-0.984h1.5v-1.5z"></path>
</svg>
