<!-- Generated by IcoMoon.io -->
<svg version="1.1" xmlns="http://www.w3.org/2000/svg" width="24" height="24" viewBox="0 0 24 24">
<title>pencil_box</title>
<path d="M18.984 6q0.844 0 1.43 0.586t0.586 1.43v13.969q0 0.844-0.586 1.43t-1.43 0.586h-13.969q-0.844 0-1.43-0.586t-0.586-1.43v-13.969q0-0.844 0.586-1.43t1.43-0.586h13.969zM16.688 12.328q0.188-0.141 0.188-0.375t-0.188-0.375l-1.266-1.266q-0.141-0.188-0.375-0.188t-0.375 0.188l-1.031 0.984 2.063 2.063zM6.984 17.953v2.063h2.063l6.094-6.094-2.063-2.063z"></path>
</svg>
