<!-- Generated by IcoMoon.io -->
<svg version="1.1" xmlns="http://www.w3.org/2000/svg" width="24" height="24" viewBox="0 0 24 24">
<title>pencil_box_multiple_outline</title>
<path d="M3.984 9h-1.969v14.016q0 0.797 0.586 1.383t1.383 0.586h14.016v-1.969h-14.016v-14.016zM18.703 10.359l-0.984 0.984-2.063-2.063 0.984-0.984q0.188-0.141 0.398-0.141t0.398 0.141l1.266 1.266q0.141 0.188 0.141 0.398t-0.141 0.398zM9 15.938l6.047-6.047 2.063 2.063-6.047 6.047h-2.063v-2.063zM20.016 6.984v0 12h-12v-12h12zM20.016 5.016h-12q-0.844 0-1.43 0.586t-0.586 1.383v12q0 0.844 0.586 1.43t1.43 0.586h12q0.797 0 1.383-0.586t0.586-1.43v-12q0-0.797-0.586-1.383t-1.383-0.586z"></path>
</svg>
