<!-- Generated by IcoMoon.io -->
<svg version="1.1" xmlns="http://www.w3.org/2000/svg" width="24" height="24" viewBox="0 0 24 24">
<title>pencil_off_outline</title>
<path d="M9.984 13.219l4.031-4.031 3.797 3.797-4.031 4.031-1.359-1.406 2.578-2.719-0.891-0.891-2.625 2.578zM20.719 8.578l-2.297-2.297q-0.328-0.281-0.727-0.281t-0.68 0.281l-1.828 1.828 3.797 3.797 1.734-1.922q0.281-0.188 0.281-0.633t-0.281-0.773zM18.984 24.703l-1.266 1.313-6.516-6.516-4.406 4.5h-3.797v-3.797l4.5-4.5-6.516-6.422 1.313-1.266zM9.797 18.094l-0.891-0.891-3.891 3.891v0.891h0.891z"></path>
</svg>
