<!-- Generated by IcoMoon.io -->
<svg version="1.1" xmlns="http://www.w3.org/2000/svg" width="24" height="24" viewBox="0 0 24 24">
<title>pencil_lock</title>
<path d="M5.484 5.016q-1.031 0-1.758 0.727t-0.727 1.758v0.516q-0.422 0-0.703 0.281t-0.281 0.703v3.984q0 0.422 0.281 0.727t0.703 0.305h5.016q0.422 0 0.703-0.305t0.281-0.727v-3.984q0-0.422-0.281-0.703t-0.703-0.281v-0.516q0-1.031-0.75-1.758t-1.781-0.727zM5.484 6q0.656 0 1.078 0.445t0.422 1.055v0.516h-3v-0.516q0-0.609 0.445-1.055t1.055-0.445zM19.641 6q-0.375 0-0.656 0.281l-1.875 1.828 3.75 3.75 1.875-1.828q0.281-0.281 0.281-0.703t-0.281-0.703l-2.344-2.344q-0.328-0.281-0.75-0.281zM16.078 9.188l-11.063 11.063v3.75h3.75l11.063-11.063z"></path>
</svg>
