<!-- Generated by IcoMoon.io -->
<svg version="1.1" xmlns="http://www.w3.org/2000/svg" width="24" height="24" viewBox="0 0 24 24">
<title>pencil_remove_outline</title>
<path d="M17.719 6q-0.422 0-0.703 0.281l-1.828 1.828 3.703 3.797 1.828-1.922q0.281-0.281 0.281-0.68t-0.281-0.727l-2.297-2.297q-0.328-0.281-0.703-0.281zM14.109 9.188l-11.109 11.016v3.797h3.797l11.016-11.109zM5.906 21.984h-0.891v-0.891l9.094-9.094 0.891 0.891zM3.891 5.484l2.109 2.109 2.109-2.109 1.406 1.406-2.109 2.109 2.109 2.109-1.406 1.406-2.109-2.109-2.109 2.109-1.406-1.406 2.109-2.109-2.109-2.109z"></path>
</svg>
