<!-- Generated by IcoMoon.io -->
<svg version="1.1" xmlns="http://www.w3.org/2000/svg" width="24" height="24" viewBox="0 0 24 24">
<title>pencil_circle_outline</title>
<path d="M6.984 17.953l6.094-6.094 2.063 2.063-6.094 6.094h-2.063v-2.063zM12 23.016q2.156 0 4.008-1.078t2.93-2.93 1.078-4.008q0-1.594-0.609-3.070t-1.734-2.602-2.602-1.734-3.070-0.609-3.070 0.609-2.602 1.734-1.734 2.602-0.609 3.070q0 2.156 1.078 4.008t2.93 2.93 4.008 1.078zM16.688 12.328l-0.984 1.031-2.063-2.063 1.031-0.984q0.141-0.188 0.375-0.188t0.375 0.188l1.266 1.266q0.188 0.141 0.188 0.375t-0.188 0.375zM12 5.016q1.969 0 3.82 0.75t3.258 2.156 2.156 3.258 0.75 3.82-0.75 3.82-2.156 3.258-3.258 2.156-3.82 0.75-3.82-0.75-3.258-2.156-2.156-3.258-0.75-3.82 0.75-3.82 2.156-3.258 3.258-2.156 3.82-0.75z"></path>
</svg>
