<!-- Generated by IcoMoon.io -->
<svg version="1.1" xmlns="http://www.w3.org/2000/svg" width="24" height="24" viewBox="0 0 24 24">
<title>pencil_box_multiple</title>
<path d="M20.203 5.016h-12.422q-0.75 0-1.266 0.516t-0.516 1.266v12.422q0 0.75 0.516 1.266t1.266 0.516h12.422q0.75 0 1.266-0.516t0.516-1.266v-12.422q0-0.75-0.516-1.266t-1.266-0.516zM11.063 18h-2.063v-2.063l6.047-6.047 2.063 2.063zM18.703 10.359l-0.984 0.984-2.063-2.063 0.984-0.984q0.188-0.141 0.398-0.141t0.398 0.141l1.266 1.266q0.141 0.188 0.141 0.398t-0.141 0.398zM3.984 9h-1.969v14.016q0 0.797 0.586 1.383t1.383 0.586h14.016v-1.969h-14.016v-14.016z"></path>
</svg>
