<!-- Generated by IcoMoon.io -->
<svg version="1.1" xmlns="http://www.w3.org/2000/svg" width="24" height="24" viewBox="0 0 24 24">
<title>pencil_lock_outline</title>
<path d="M16.078 12l0.938 0.891-9.094 9.094h-0.938v-0.891zM19.688 6q-0.375 0-0.703 0.281l-1.781 1.828 3.703 3.797 1.781-1.922q0.328-0.281 0.328-0.68t-0.328-0.727l-2.297-2.297q-0.281-0.281-0.703-0.281zM16.078 9.188l-11.063 11.016v3.797h3.797l10.969-11.109zM8.016 8.016v-0.516q0-1.031-0.727-1.758t-1.781-0.727-1.781 0.727-0.727 1.758v0.516q-0.469 0-0.727 0.258t-0.258 0.727v3.984q0 0.469 0.258 0.75t0.727 0.281h5.016q0.422 0 0.703-0.281t0.281-0.75v-3.984q0-0.469-0.281-0.727t-0.703-0.258zM6.984 8.016h-3v-0.516q0-0.609 0.469-1.055t1.055-0.445 1.031 0.445 0.445 1.055v0.516z"></path>
</svg>
