<!-- Generated by IcoMoon.io -->
<svg version="1.1" xmlns="http://www.w3.org/2000/svg" width="24" height="24" viewBox="0 0 24 24">
<title>pencil_circle</title>
<path d="M12 5.016q-2.719 0-5.016 1.336t-3.633 3.633-1.336 5.016 1.336 5.016 3.633 3.633 5.016 1.336 5.016-1.336 3.633-3.633 1.336-5.016-1.336-5.016-3.633-3.633-5.016-1.336zM15.094 10.078q0.234 0 0.422 0.141l1.266 1.266q0.141 0.188 0.141 0.422t-0.141 0.375l-1.031 0.984-2.016-2.016 0.984-1.031q0.141-0.141 0.375-0.141zM13.125 11.813l2.063 2.063-6.047 6.047h-2.063v-2.063z"></path>
</svg>
