<!-- Generated by IcoMoon.io -->
<svg version="1.1" xmlns="http://www.w3.org/2000/svg" width="24" height="24" viewBox="0 0 24 24">
<title>pencil_box_outline</title>
<path d="M18.984 21.984v-13.969h-13.969v13.969h13.969zM18.984 6q0.844 0 1.43 0.586t0.586 1.43v13.969q0 0.844-0.586 1.43t-1.43 0.586h-13.969q-0.844 0-1.43-0.586t-0.586-1.43v-13.969q0-0.844 0.586-1.43t1.43-0.586h13.969zM16.688 12.328l-0.984 1.031-2.063-2.063 1.031-0.984q0.141-0.188 0.375-0.188t0.375 0.188l1.266 1.266q0.188 0.141 0.188 0.375t-0.188 0.375zM6.984 17.953l6.094-6.094 2.063 2.063-6.094 6.094h-2.063v-2.063z"></path>
</svg>
