<!-- Generated by IcoMoon.io -->
<svg version="1.1" xmlns="http://www.w3.org/2000/svg" width="24" height="24" viewBox="0 0 24 24">
<title>pier_crane</title>
<path d="M20.016 23.016q-2.109 0-4.031-1.359-1.828 1.313-3.984 1.313t-3.984-1.313q-1.922 1.359-4.031 1.359h-1.969v1.969h1.969q2.063 0 4.031-0.984 1.875 0.984 3.984 0.984t3.984-0.984q1.969 0.984 4.031 0.984h1.969v-1.969h-1.969zM20.016 6.984v-0.984q0-0.422-0.305-0.703t-0.727-0.281h-9.984v-1.031h-3v1.031h-0.984v1.969h0.984v9h-0.984v-1.969h-2.016v1.969h-0.984v2.016h0.984v3.984h0.984q0.469 0 1.031-0.047v-3.938h4.969v3.656q0.984 0.281 2.016 0.281v-3.938h0.984v-2.016h-0.984v-1.969h-2.016v1.969h-0.984v-9h8.016v4.641q-0.375 0.141-0.609 0.445t-0.234 0.68q0 0.703 0.609 1.078v1.172h0.656q0.234 0 0.422 0.188t0.188 0.445-0.188 0.422-0.492 0.164-0.492-0.281q-0.141-0.234-0.375-0.305t-0.445 0.070-0.281 0.375 0.023 0.469q0.281 0.422 0.703 0.68t0.938 0.258q0.75 0 1.289-0.539t0.539-1.336q0-0.563-0.352-1.055t-0.867-0.68v-0.047q0.609-0.375 0.609-1.078t-0.656-1.031v-4.734h2.016zM8.016 14.672l-1.031 0.984v-1.406l1.031-1.031v1.453zM8.016 11.719l-1.031 0.984v-1.406l1.031-0.984v1.406zM6.984 9.703v-1.406l1.031-0.984v1.406z"></path>
</svg>
