<!-- Generated by IcoMoon.io -->
<svg version="1.1" xmlns="http://www.w3.org/2000/svg" width="24" height="24" viewBox="0 0 24 24">
<title>pier</title>
<path d="M20.016 21q-2.063 0-4.031-1.313-1.781 1.266-3.984 1.266t-3.984-1.266q-1.969 1.313-4.031 1.313h-1.969v2.016h1.969q1.828 0 4.031-1.031 1.875 0.984 3.984 0.984t3.984-0.984q2.203 1.031 4.031 1.031h1.969v-2.016h-1.969zM20.016 15.984h-1.031v3.938q-1.172-0.188-1.969-0.703v-3.234h-5.016v4.031q-0.938 0-2.016-0.328v-3.703h-4.969v3.938q-0.328 0.094-1.031 0.094h-0.984v-4.031h-0.984v-1.969h0.984v-2.016h2.016v2.016h4.969v-2.016h2.016v2.016h5.016v-2.016h1.969v2.016h1.031v1.969z"></path>
</svg>
