<!-- Generated by IcoMoon.io -->
<svg version="1.1" xmlns="http://www.w3.org/2000/svg" width="24" height="24" viewBox="0 0 24 24">
<title>pipe_leak</title>
<path d="M2.016 8.016v7.969h1.969v-1.969h6l2.016-2.016-2.016-2.016h-6v-1.969h-1.969zM20.016 8.016v1.969h-8.016l2.016 2.016-2.016 2.016h8.016v1.969h1.969v-7.969h-1.969zM12 15.984q-0.281 0.328-0.516 0.609-0.609 0.75-0.984 1.406-0.516 0.891-0.516 1.5 0 0.844 0.586 1.43t1.43 0.586 1.43-0.586 0.586-1.43q0-0.609-0.516-1.5-0.375-0.656-0.984-1.406z"></path>
</svg>
