<!-- Generated by IcoMoon.io -->
<svg version="1.1" xmlns="http://www.w3.org/2000/svg" width="24" height="24" viewBox="0 0 24 24">
<title>pistol</title>
<path d="M6.984 8.016h16.031v3.984h-1.031v0.984h-6q-0.422 0-0.703 0.305t-0.281 0.727v0.984q0 0.844-0.586 1.43t-1.43 0.586h-3.375q-0.609 0-0.891 0.563l-2.438 4.875q-0.281 0.563-0.891 0.563h-3.375l-0.281-0.047q-0.328-0.094-0.516-0.375-0.281-0.328-0.281-0.891 0-0.703 0.422-1.781 0.516-1.219 1.641-2.906l0.422-0.656q0.422-0.75 0.563-1.359 0.234-0.891-0.141-1.359-0.469-0.656-1.828-0.656v-4.969h0.984l0.516-1.031h3zM14.016 15v-0.984q0-0.422-0.305-0.727t-0.727-0.305h-0.984l-0.234 0.328q-0.188 0.375-0.188 0.703 0 0.563 0.422 0.984-0.844 0-1.43-0.586t-0.586-1.43q-0.422 0-0.703 0.305t-0.281 0.727v0.984q0 0.422 0.281 0.703t0.703 0.281h3q0.422 0 0.727-0.281t0.305-0.703z"></path>
</svg>
