<!-- Generated by IcoMoon.io -->
<svg version="1.1" xmlns="http://www.w3.org/2000/svg" width="24" height="24" viewBox="0 0 24 24">
<title>plus_circle_multiple_outline</title>
<path d="M15.984 11.016h-1.969v3h-3v1.969h3v3h1.969v-3h3v-1.969h-3v-3zM2.016 15q0-2.063 1.102-3.773t2.883-2.555v-2.156q-2.672 0.938-4.336 3.258t-1.664 5.227 1.664 5.227 4.336 3.258v-2.156q-1.781-0.844-2.883-2.555t-1.102-3.773zM15 6q-2.438 0-4.5 1.219t-3.281 3.281-1.219 4.5 1.219 4.5 3.281 3.281 4.5 1.219 4.5-1.219 3.281-3.281 1.219-4.5-1.219-4.5-3.281-3.281-4.5-1.219zM15 21.984q-1.875 0-3.492-0.938t-2.555-2.555-0.938-3.492 0.938-3.492 2.555-2.555 3.492-0.938 3.492 0.938 2.555 2.555 0.938 3.492-0.938 3.492-2.555 2.555-3.492 0.938z"></path>
</svg>
