<!-- Generated by IcoMoon.io -->
<svg version="1.1" xmlns="http://www.w3.org/2000/svg" width="24" height="24" viewBox="0 0 24 24">
<title>podium</title>
<path d="M12 10.078l2.438 1.5-0.656-2.813 2.203-1.875-2.859-0.234-1.125-2.672-1.125 2.672-2.859 0.234 2.156 1.875-0.656 2.813zM3.984 16.078l2.484 1.5-0.656-2.813 2.203-1.875-2.906-0.234-1.125-2.672-1.125 2.672-2.859 0.234 2.203 1.875-0.703 2.813zM20.016 13.078l2.438 1.5-0.656-2.813 2.203-1.875-2.906-0.234-1.078-2.672-1.125 2.672-2.906 0.234 2.203 1.875-0.703 2.813zM15 26.016h-6v-13.031h6v13.031zM6.984 26.016h-6v-6h6v6zM23.016 26.016h-6v-10.031h6v10.031z"></path>
</svg>
