<!-- Generated by IcoMoon.io -->
<svg version="1.1" xmlns="http://www.w3.org/2000/svg" width="24" height="24" viewBox="0 0 24 24">
<title>point_of_sale</title>
<path d="M20.016 8.016q-0.469 0-0.75 0.305t-0.281 0.773v9.891q0 0.469 0.281 0.75t0.727 0.328 0.727-0.281 0.281-0.797v-9.891q0-0.469-0.281-0.773t-0.703-0.305zM16.406 5.016h-11.813q-0.656 0-1.125 0.445t-0.469 1.148v13.781q0 0.703 0.469 1.148t1.125 0.445h1.406v2.016q0 0.469 0.281 0.727t0.703 0.258h6q0.469 0 0.75-0.258t0.281-0.727v-2.016h2.391q0.656 0 1.125-0.445t0.469-1.148v-13.781q0-0.703-0.469-1.148t-1.125-0.445zM5.016 11.016h3v1.969h-3v-1.969zM12 14.016v1.969h-3v-1.969h3zM9 12.984v-1.969h3v1.969h-3zM12 17.016v1.969h-3v-1.969h3zM5.016 14.016h3v1.969h-3v-1.969zM5.016 18.984v-1.969h3v1.969h-3zM8.016 24h-1.031v-2.016h1.031v2.016zM12.984 24h-3v-2.016h3v2.016zM15.984 18.984h-3v-1.969h3v1.969zM15.984 15.984h-3v-1.969h3v1.969zM15.984 12.984h-3v-1.969h3v1.969zM15.984 9h-10.969v-2.016h10.969v2.016z"></path>
</svg>
