<!-- Generated by IcoMoon.io -->
<svg version="1.1" xmlns="http://www.w3.org/2000/svg" width="24" height="24" viewBox="0 0 24 24">
<title>pool1</title>
<path d="M2.016 18l0.047-0.047q1.641-0.703 2.484-1.031 1.359-0.516 2.438-0.75v-8.156q0-1.266 0.891-2.133t2.109-0.867q0.984 0 1.758 0.539t1.102 1.43h-2.859q-0.422 0-0.703 0.305t-0.281 0.727v0.984h5.016v-0.984q0-1.266 0.867-2.133t2.133-0.867q0.938 0 1.711 0.539t1.102 1.43h-2.813q-0.422 0-0.727 0.305t-0.305 0.727v9.938q0.891-0.141 2.719-0.984 1.078-0.469 1.641-0.656 0.938-0.328 1.641-0.328v2.016q-0.703 0-1.641 0.328-0.563 0.188-1.664 0.68t-1.664 0.68q-0.938 0.328-1.688 0.328t-1.641-0.328q-0.563-0.188-1.688-0.68t-1.688-0.68q-0.891-0.328-1.641-0.328-1.5 0-3.328 0.609-1.125 0.375-3.328 1.406v-2.016zM14.016 11.016h-5.016v1.969h5.016v-1.969zM14.016 15h-5.016v0.984q0.656 0.094 1.5 0.375 0.469 0.188 1.5 0.609 1.313 0.609 2.016 0.844v-2.813zM2.016 21.984q2.203-0.984 3.328-1.359 1.828-0.609 3.328-0.609 0.75 0 1.641 0.281 0.563 0.188 1.688 0.703t1.688 0.703q0.891 0.281 1.641 0.281t1.688-0.281q0.563-0.188 1.664-0.703t1.664-0.703q0.938-0.281 1.641-0.281v1.969q-0.703 0-1.641 0.328-0.563 0.188-1.664 0.68t-1.664 0.68q-0.938 0.328-1.688 0.328t-1.641-0.328q-0.563-0.188-1.688-0.68t-1.688-0.68q-0.891-0.328-1.641-0.328-1.5 0-3.328 0.656-1.125 0.375-3.328 1.359v-2.016z"></path>
</svg>
