<!-- Generated by IcoMoon.io -->
<svg version="1.1" xmlns="http://www.w3.org/2000/svg" width="24" height="24" viewBox="0 0 24 24">
<title>popcorn</title>
<path d="M6.984 24.984h-2.25l-0.188-0.047q-0.234-0.094-0.422-0.328-0.234-0.375-0.328-0.938l-1.781-17.156q0-0.656 0.586-1.078t1.406-0.422 1.406 0.422 0.586 1.078q0-0.656 0.586-1.078t1.406-0.422 1.406 0.422 0.586 1.078q0-0.656 0.586-1.078t1.43-0.422 1.43 0.422 0.586 1.078v0q0-0.656 0.586-1.078t1.406-0.422 1.406 0.422 0.586 1.078q0-0.656 0.586-1.078t1.406-0.422 1.406 0.422 0.586 1.078l-1.781 17.156q-0.141 0.844-0.563 1.172-0.188 0.141-0.375 0.141h-12.281zM17.859 7.922q-0.234-0.422-0.727-0.68t-1.125-0.258-1.195 0.258-0.797 0.633l-0.234 15.141h2.859zM9.984 7.875q-0.234-0.375-0.797-0.633t-1.195-0.258-1.125 0.258-0.727 0.68l1.219 15.094h2.859z"></path>
</svg>
