<!-- Generated by IcoMoon.io -->
<svg version="1.1" xmlns="http://www.w3.org/2000/svg" width="24" height="24" viewBox="0 0 24 24">
<title>pound_box_outline</title>
<path d="M18.984 21.984h-13.969v-13.969h13.969v13.969zM18.984 6h-13.969q-0.844 0-1.43 0.586t-0.586 1.43v13.969q0 0.844 0.586 1.43t1.43 0.586h13.969q0.844 0 1.43-0.586t0.586-1.43v-13.969q0-0.844-0.586-1.43t-1.43-0.586zM6.984 12h2.344l0.281-3h2.016l-0.328 3h2.016l0.328-3h1.969l-0.281 3h1.688v2.016h-1.922l-0.188 1.969h2.109v2.016h-2.344l-0.281 3h-2.016l0.328-3h-2.016l-0.328 3h-1.969l0.281-3h-1.688v-2.016h1.922l0.188-1.969h-2.109v-2.016zM11.109 14.016l-0.188 1.969h1.969l0.188-1.969h-1.969z"></path>
</svg>
