<!-- Generated by IcoMoon.io -->
<svg version="1.1" xmlns="http://www.w3.org/2000/svg" width="24" height="24" viewBox="0 0 24 24">
<title>pound_box</title>
<path d="M3 8.016q0-0.844 0.586-1.43t1.43-0.586h13.969q0.844 0 1.43 0.586t0.586 1.43v13.969q0 0.844-0.586 1.43t-1.43 0.586h-13.969q-0.844 0-1.43-0.586t-0.586-1.43v-13.969zM6.984 21h2.016l0.328-2.016h4.031l-0.375 2.016h2.016l0.328-2.016h2.016l0.375-1.969h-2.016l0.703-4.031h2.016l0.328-1.969h-1.969l0.328-2.016h-1.969l-0.375 2.016h-3.984l0.328-2.016h-1.969l-0.375 2.016h-2.016l-0.328 1.969h1.969l-0.703 4.031h-1.969l-0.375 1.969h2.016zM10.406 12.984h3.984l-0.703 4.031h-3.984z"></path>
</svg>
