<!-- Generated by IcoMoon.io -->
<svg version="1.1" xmlns="http://www.w3.org/2000/svg" width="24" height="24" viewBox="0 0 24 24">
<title>power_cycle</title>
<path d="M12 6q-2.438 0-4.5 1.219t-3.281 3.281-1.219 4.5 1.219 4.5 3.281 3.281 4.5 1.219 4.5-1.219 3.281-3.281 1.219-4.5-1.219-4.5-3.281-3.281-4.5-1.219zM12 21.984q-1.922 0-3.516-0.938t-2.531-2.531-0.938-3.516q0-1.406 0.516-2.695t1.5-2.273 2.273-1.5 2.695-0.516 2.695 0.516 2.273 1.5 1.5 2.273 0.516 2.695q0 1.922-0.938 3.516t-2.531 2.531-3.516 0.938zM12.984 20.016h-1.969v-10.031h1.969v10.031z"></path>
</svg>
