<!-- Generated by IcoMoon.io -->
<svg version="1.1" xmlns="http://www.w3.org/2000/svg" width="24" height="24" viewBox="0 0 24 24">
<title>power_socket_jp</title>
<path d="M9.984 12.516v4.969h-1.969v-4.969h1.969zM19.781 5.016q0.891 0 1.547 0.656t0.656 1.547v15.563q0 0.891-0.656 1.547t-1.547 0.656h-15.563q-0.891 0-1.547-0.656t-0.656-1.547v-15.563q0-0.891 0.656-1.547t1.547-0.656h15.563zM12 6.984q-2.156 0-4.008 1.078t-2.93 2.93-1.078 4.008 1.078 4.008 2.93 2.93 4.008 1.078 4.008-1.078 2.93-2.93 1.078-4.008-1.078-4.008-2.93-2.93-4.008-1.078zM15.984 12.516v4.969h-1.969v-4.969h1.969z"></path>
</svg>
