<!-- Generated by IcoMoon.io -->
<svg version="1.1" xmlns="http://www.w3.org/2000/svg" width="24" height="24" viewBox="0 0 24 24">
<title>power_standby</title>
<path d="M12.984 6h-1.969v9.984h1.969v-9.984zM17.813 8.156l-1.406 1.453q1.219 0.984 1.898 2.391t0.68 3q0 1.922-0.938 3.516t-2.531 2.531-3.516 0.938-3.516-0.938-2.531-2.531-0.938-3.516q0-1.547 0.68-2.977t1.898-2.461l-1.406-1.406q-1.875 1.594-2.672 3.867t-0.375 4.617 1.992 4.219 3.844 2.648 4.641 0.375 4.195-1.992q1.547-1.313 2.367-3.117t0.82-3.773-0.82-3.773-2.367-3.070z"></path>
</svg>
