<!-- Generated by IcoMoon.io -->
<svg version="1.1" xmlns="http://www.w3.org/2000/svg" width="24" height="24" viewBox="0 0 24 24">
<title>power_socket_fr</title>
<path d="M4.219 5.016q-0.938 0-1.57 0.633t-0.633 1.57v15.563q0 0.891 0.656 1.547t1.547 0.656h15.563q0.938 0 1.57-0.633t0.633-1.57v-15.563q0-0.891-0.656-1.547t-1.547-0.656h-15.563zM12 6.984q1.594 0 3.070 0.609t2.602 1.734 1.734 2.602 0.609 3.070q0 2.156-1.078 4.008t-2.93 2.93-4.008 1.078-4.008-1.078-2.93-2.93-1.078-4.008q0-1.594 0.609-3.070t1.734-2.602 2.602-1.734 3.070-0.609zM12 9q-0.609 0-1.055 0.445t-0.445 1.055 0.445 1.055 1.055 0.445 1.055-0.445 0.445-1.055-0.445-1.055-1.055-0.445zM7.5 13.5q-0.609 0-1.055 0.445t-0.445 1.055 0.445 1.055 1.055 0.445 1.055-0.445 0.445-1.055-0.445-1.055-1.055-0.445zM16.5 13.5q-0.609 0-1.055 0.445t-0.445 1.055 0.445 1.055 1.055 0.445 1.055-0.445 0.445-1.055-0.445-1.055-1.055-0.445z"></path>
</svg>
