<!-- Generated by IcoMoon.io -->
<svg version="1.1" xmlns="http://www.w3.org/2000/svg" width="24" height="24" viewBox="0 0 24 24">
<title>power1</title>
<path d="M16.547 8.438l-1.453 1.453q1.359 0.797 2.133 2.156t0.773 2.977-0.797 3-2.18 2.18-3.023 0.797-3.023-0.797-2.18-2.18-0.797-3 0.773-2.977 2.086-2.156l-1.406-1.453q-1.594 1.125-2.531 2.836t-0.938 3.727q0 2.156 1.078 4.008t2.93 2.93 4.008 1.078 4.008-1.078 2.93-2.93 1.078-4.008q0-2.016-0.938-3.727t-2.531-2.836zM12.984 6h-1.969v9.984h1.969v-9.984z"></path>
</svg>
