<!-- Generated by IcoMoon.io -->
<svg version="1.1" xmlns="http://www.w3.org/2000/svg" width="24" height="24" viewBox="0 0 24 24">
<title>power_socket_us</title>
<path d="M8.016 9.984h1.969v5.016h-1.969v-5.016zM4.219 5.016h15.563q0.891 0 1.547 0.656t0.656 1.547v15.563q0 0.938-0.633 1.57t-1.57 0.633h-15.563q-0.891 0-1.547-0.656t-0.656-1.547v-15.563q0-0.938 0.633-1.57t1.57-0.633zM12 6.984q-1.594 0-3.070 0.609t-2.602 1.734-1.734 2.602-0.609 3.070q0 2.156 1.078 4.008t2.93 2.93 4.008 1.078 4.008-1.078 2.93-2.93 1.078-4.008q0-1.594-0.609-3.070t-1.734-2.602-2.602-1.734-3.070-0.609zM14.016 10.5h1.969v3.984h-1.969v-3.984zM10.5 19.266q0-0.656 0.445-1.078t1.055-0.422 1.055 0.422 0.445 1.078v0.75h-3v-0.75z"></path>
</svg>
