<!-- Generated by IcoMoon.io -->
<svg version="1.1" xmlns="http://www.w3.org/2000/svg" width="24" height="24" viewBox="0 0 24 24">
<title>presentation_play</title>
<path d="M2.016 6h7.969q0-0.844 0.586-1.43t1.43-0.586 1.43 0.586 0.586 1.43h7.969v2.016h-0.984v10.969h-5.766l1.781 6h-2.016l-1.734-6h-2.531l-1.734 6h-2.016l1.781-6h-5.766v-10.969h-0.984v-2.016zM5.016 8.016v9h13.969v-9h-13.969zM11.859 14.859q-0.141 0.141-0.352 0.141t-0.352-0.141-0.141-0.375v-3.984q0-0.188 0.141-0.352t0.352-0.164 0.352 0.188l1.406 1.359q0.609 0.656 0.609 0.961t-0.609 0.961z"></path>
</svg>
