<!-- Generated by IcoMoon.io -->
<svg version="1.1" xmlns="http://www.w3.org/2000/svg" width="24" height="24" viewBox="0 0 24 24">
<title>printer_check</title>
<path d="M18 9.984h-12v-3.984h12v3.984zM6 24v-3.984h-3.984v-6q0-1.266 0.867-2.133t2.133-0.867h13.969q1.266 0 2.133 0.867t0.867 2.133v2.813q-1.359-0.844-3-0.844-1.781 0-3.281 1.031h-7.688v4.969h4.969q0 1.031 0.375 2.016h-7.359zM18 14.016q0 0.375 0.305 0.68t0.703 0.305 0.703-0.305 0.305-0.703-0.305-0.703-0.703-0.305-0.703 0.305-0.305 0.727zM23.484 20.016l-1.5-1.5-3.469 3.469-2.016-1.969-1.5 1.5 3.516 3.469z"></path>
</svg>
