<!-- Generated by IcoMoon.io -->
<svg version="1.1" xmlns="http://www.w3.org/2000/svg" width="24" height="24" viewBox="0 0 24 24">
<title>printer_wireless</title>
<path d="M4.922 6.938l1.406 1.406q1.547-1.547 3.609-2.086t4.125 0 3.609 2.086l1.406-1.406q-1.922-1.969-4.5-2.625t-5.156 0-4.5 2.625zM7.781 9.75l1.406 1.406q1.172-1.172 2.813-1.172t2.813 1.172l1.406-1.406q-1.125-1.172-2.672-1.57t-3.094 0-2.672 1.57zM18.984 17.016q-0.422 0-0.703-0.305t-0.281-0.727 0.281-0.703 0.703-0.281 0.727 0.281 0.305 0.703-0.305 0.727-0.727 0.305zM15.984 23.016h-7.969v-5.016h7.969v5.016zM18.984 12.984h-13.969q-1.266 0-2.133 0.891t-0.867 2.109v5.016h3.984v3.984h12v-3.984h3.984v-5.016q0-1.219-0.867-2.109t-2.133-0.891z"></path>
</svg>
