<!-- Generated by IcoMoon.io -->
<svg version="1.1" xmlns="http://www.w3.org/2000/svg" width="24" height="24" viewBox="0 0 24 24">
<title>printer_alert</title>
<path d="M14.016 6.984v4.031h-8.016v-4.031h8.016zM15 15.984q0.422 0 0.703-0.281t0.281-0.703-0.281-0.703-0.703-0.281-0.703 0.281-0.281 0.703 0.281 0.703 0.703 0.281zM12.984 21.984v-3.984h-6v3.984h6zM15 12q1.266 0 2.133 0.867t0.867 2.133v5.016h-3v3.984h-9.984v-3.984h-3v-5.016q0-1.266 0.867-2.133t2.133-0.867h9.984zM21.984 9.984v5.016h-1.969v-5.016h1.969zM21.984 17.016v1.969h-1.969v-1.969h1.969z"></path>
</svg>
