<!-- Generated by IcoMoon.io -->
<svg version="1.1" xmlns="http://www.w3.org/2000/svg" width="24" height="24" viewBox="0 0 24 24">
<title>printer_3d</title>
<path d="M18.984 9q0.422 0 0.727-0.281t0.305-0.703-0.305-0.727-0.727-0.305-0.703 0.305-0.281 0.727 0.281 0.703 0.703 0.281zM18.984 5.016q1.266 0 2.133 0.867t0.867 2.133v6h-3.984v-4.031h-12v4.031h-3.984v-6q0-1.266 0.867-2.133t2.133-0.867h13.969zM18 21.234q0 0.609-0.516 0.891l-4.922 2.672q-0.234 0.188-0.563 0.188t-0.563-0.188l-4.922-2.672q-0.516-0.281-0.516-0.891v-5.25q0-0.563 0.516-0.844l4.922-2.438q0.234-0.188 0.563-0.188t0.563 0.188l4.922 2.438q0.516 0.281 0.516 0.844v5.25zM12 14.672l-2.953 1.313 2.953 1.594 2.953-1.594zM8.016 20.672l3 1.641v-3l-3-1.594v2.953zM15.984 20.672v-2.953l-3 1.594v3z"></path>
</svg>
