<!-- Generated by IcoMoon.io -->
<svg version="1.1" xmlns="http://www.w3.org/2000/svg" width="24" height="24" viewBox="0 0 24 24">
<title>puzzle</title>
<path d="M20.484 14.016h-1.5v-4.031q0-0.797-0.586-1.383t-1.383-0.586h-4.031v-1.5q0-1.031-0.727-1.781t-1.758-0.75-1.758 0.75-0.727 1.781v1.5h-4.031q-0.797 0-1.383 0.586t-0.586 1.383v3.797h1.5q1.125 0 1.898 0.797t0.773 1.922-0.773 1.922-1.898 0.797h-1.5v3.797q0 0.797 0.586 1.383t1.383 0.586h3.797v-1.5q0-1.125 0.797-1.898t1.922-0.773 1.922 0.773 0.797 1.898v1.5h3.797q0.797 0 1.383-0.586t0.586-1.383v-4.031h1.5q1.031 0 1.781-0.727t0.75-1.758-0.75-1.758-1.781-0.727z"></path>
</svg>
