<!-- Generated by IcoMoon.io -->
<svg version="1.1" xmlns="http://www.w3.org/2000/svg" width="24" height="24" viewBox="0 0 24 24">
<title>puzzle_outline</title>
<path d="M21.984 16.5q0 1.313-0.844 2.297t-2.156 1.172v3.047q0 0.797-0.586 1.383t-1.383 0.586h-3.797v-0.281q0-1.125-0.797-1.922t-1.922-0.797-1.922 0.797-0.797 1.922v0.281h-3.797q-0.797 0-1.383-0.586t-0.586-1.383v-3.797h0.281q1.125 0 1.922-0.797t0.797-1.922-0.797-1.922-1.922-0.797h-0.281v-3.797q0-0.797 0.586-1.383t1.383-0.586h3.047q0.188-1.313 1.172-2.156t2.297-0.844 2.297 0.844 1.172 2.156h3.047q0.797 0 1.383 0.586t0.586 1.383v3.047q1.313 0.188 2.156 1.172t0.844 2.297zM17.016 18h1.5q0.609 0 1.055-0.445t0.445-1.055-0.445-1.055-1.055-0.445h-1.5v-5.016h-5.016v-1.5q0-0.609-0.445-1.055t-1.055-0.445-1.055 0.445-0.445 1.055v1.5h-5.016v2.156q1.359 0.516 2.18 1.688t0.82 2.672-0.82 2.672-2.18 1.688v2.156h2.156q0.516-1.359 1.688-2.18t2.672-0.82 2.672 0.82 1.688 2.18h2.156v-5.016z"></path>
</svg>
