<!-- Generated by IcoMoon.io -->
<svg version="1.1" xmlns="http://www.w3.org/2000/svg" width="24" height="24" viewBox="0 0 24 24">
<title>qrcode</title>
<path d="M3 14.016h2.016v1.969h-2.016v-1.969zM11.016 8.016h1.969v3.984h-1.969v-3.984zM9 14.016h3.984v3.984h-1.969v-2.016h-2.016v-1.969zM15 14.016h2.016v1.969h1.969v-1.969h2.016v1.969h-2.016v2.016h2.016v3.984h-2.016v2.016h-1.969v-2.016h-4.031v2.016h-1.969v-3.984h3.984v-2.016h2.016v-2.016h-2.016v-1.969zM18.984 21.984v-3.984h-1.969v3.984h1.969zM15 6h6v6h-6v-6zM17.016 8.016v1.969h1.969v-1.969h-1.969zM3 6h6v6h-6v-6zM5.016 8.016v1.969h1.969v-1.969h-1.969zM3 18h6v6h-6v-6zM5.016 20.016v1.969h1.969v-1.969h-1.969z"></path>
</svg>
