<!-- Generated by IcoMoon.io -->
<svg version="1.1" xmlns="http://www.w3.org/2000/svg" width="24" height="24" viewBox="0 0 24 24">
<title>qrcode_minus</title>
<path d="M5.016 8.016h1.969v1.969h-1.969v-1.969zM0.984 3.984h10.031v10.031h-10.031v-10.031zM3 6v6h6v-6h-6zM5.016 20.016h1.969v1.969h-1.969v-1.969zM0.984 15.984h10.031v10.031h-10.031v-10.031zM3 18v6h6v-6h-6zM12.984 15.984h4.031v2.016h1.969v-2.016h4.031v2.016h-4.031v2.016h4.031v6h-4.031v-2.016h-3.984v2.016h-2.016v-2.016h2.016v-2.016h-2.016v-6zM21 24v-2.016h-2.016v2.016h2.016zM18.984 20.016h-1.969v-2.016h-2.016v3.984h3.984v-1.969zM14.016 8.016v1.969h7.969v-1.969h-7.969z"></path>
</svg>
