<!-- Generated by IcoMoon.io -->
<svg version="1.1" xmlns="http://www.w3.org/2000/svg" width="24" height="24" viewBox="0 0 24 24">
<title>qrcode_scan</title>
<path d="M3.984 6.984h6v6h-6v-6zM20.016 6.984v6h-6v-6h6zM14.016 18h1.969v-2.016h-1.969v-1.969h1.969v1.969h2.016v-1.969h2.016v1.969h-2.016v2.016h2.016v3h-2.016v2.016h-2.016v-2.016h-3v2.016h-1.969v-4.031h3v-0.984zM15.984 18v3h2.016v-3h-2.016zM3.984 23.016v-6h6v6h-6zM6 9v2.016h2.016v-2.016h-2.016zM15.984 9v2.016h2.016v-2.016h-2.016zM6 18.984v2.016h2.016v-2.016h-2.016zM3.984 14.016h2.016v1.969h-2.016v-1.969zM9 14.016h3.984v3.984h-1.969v-2.016h-2.016v-1.969zM11.016 9h1.969v3.984h-1.969v-3.984zM2.016 5.016v3.984h-2.016v-3.984q0-0.844 0.586-1.43t1.43-0.586h3.984v2.016h-3.984zM21.984 3q0.844 0 1.43 0.586t0.586 1.43v3.984h-2.016v-3.984h-3.984v-2.016h3.984zM2.016 21v3.984h3.984v2.016h-3.984q-0.844 0-1.43-0.586t-0.586-1.43v-3.984h2.016zM21.984 24.984v-3.984h2.016v3.984q0 0.844-0.586 1.43t-1.43 0.586h-3.984v-2.016h3.984z"></path>
</svg>
