<!-- Generated by IcoMoon.io -->
<svg version="1.1" xmlns="http://www.w3.org/2000/svg" width="24" height="24" viewBox="0 0 24 24">
<title>quadcopter</title>
<path d="M5.484 3.984q1.875 0 3.188 1.313t1.313 3.188q0 1.313-0.656 2.438l0.094 0.094h5.156l0.094-0.094q-0.656-1.125-0.656-2.438 0-1.875 1.313-3.188t3.188-1.313 3.188 1.313 1.313 3.188-1.313 3.188-3.188 1.313q-1.313 0-2.438-0.656l-1.078 1.078v3.188l1.078 1.078q1.125-0.656 2.438-0.656 1.875 0 3.188 1.313t1.313 3.188-1.313 3.188-3.188 1.313-3.188-1.313-1.313-3.188q0-1.313 0.656-2.438l-0.094-0.094h-5.156l-0.094 0.094q0.656 1.125 0.656 2.438 0 1.875-1.313 3.188t-3.188 1.313-3.188-1.313-1.313-3.188 1.313-3.188 3.188-1.313q1.313 0 2.438 0.656l1.078-1.078v-3.188l-1.078-1.078q-1.125 0.656-2.438 0.656-1.875 0-3.188-1.313t-1.313-3.188 1.313-3.188 3.188-1.313zM5.484 6q-1.031 0-1.758 0.727t-0.727 1.758 0.727 1.781 1.758 0.75 1.781-0.75 0.75-1.781-0.75-1.758-1.781-0.727zM5.484 18.984q-1.031 0-1.758 0.75t-0.727 1.781 0.727 1.758 1.758 0.727 1.781-0.727 0.75-1.758-0.75-1.781-1.781-0.75zM18.516 6q-1.031 0-1.781 0.727t-0.75 1.758 0.75 1.781 1.781 0.75 1.758-0.75 0.727-1.781-0.727-1.758-1.758-0.727zM18.516 18.984q-1.031 0-1.781 0.75t-0.75 1.781 0.75 1.758 1.781 0.727 1.758-0.727 0.727-1.758-0.727-1.781-1.758-0.75zM3.891 20.25l1.172 0.656q0.188-0.141 0.469-0.141t0.492 0.211 0.211 0.539v0.094l1.125 0.656-0.281 0.469-1.125-0.656q-0.188 0.188-0.469 0.188t-0.516-0.234-0.234-0.516l0.047-0.094-1.172-0.656zM3.609 9.234l1.172-0.656-0.047-0.094q0-0.281 0.234-0.516t0.516-0.234 0.469 0.188l1.125-0.656 0.281 0.469-1.125 0.656v0.094q0 0.328-0.211 0.539t-0.492 0.211-0.469-0.141l-1.172 0.656zM16.922 7.266l1.125 0.656q0.188-0.188 0.469-0.188t0.516 0.234 0.234 0.516l-0.047 0.094 1.172 0.656-0.281 0.516-1.172-0.656q-0.188 0.141-0.469 0.141t-0.492-0.211-0.211-0.539v-0.094l-1.125-0.656zM16.641 22.266l1.125-0.75q0-0.328 0.211-0.539t0.492-0.211 0.469 0.141l1.172-0.656 0.281 0.516-1.125 0.75q0 0.281-0.234 0.516t-0.516 0.234-0.469-0.188l-1.125 0.656z"></path>
</svg>
