<!-- Generated by IcoMoon.io -->
<svg version="1.1" xmlns="http://www.w3.org/2000/svg" width="24" height="24" viewBox="0 0 24 24">
<title>radius</title>
<path d="M12 5.016q-1.969 0-3.82 0.75t-3.258 2.156-2.156 3.258-0.75 3.82 0.75 3.82 2.156 3.258 3.258 2.156 3.82 0.75 3.82-0.75 3.258-2.156 2.156-3.258 0.75-3.82-0.75-3.82-2.156-3.258-3.258-2.156-3.82-0.75zM17.016 18v-2.016h-3.281q-0.281 0.469-0.75 0.75t-0.984 0.281q-0.844 0-1.43-0.586t-0.586-1.43 0.586-1.43 1.43-0.586q0.516 0 0.984 0.281t0.75 0.75h3.281v-2.016l3 3z"></path>
</svg>
