<!-- Generated by IcoMoon.io -->
<svg version="1.1" xmlns="http://www.w3.org/2000/svg" width="24" height="24" viewBox="0 0 24 24">
<title>radioactive_off</title>
<path d="M0.984 7.266l1.313-1.266 18.703 18.703-1.266 1.313-2.484-2.531q-2.391 1.5-5.273 1.5t-5.273-1.5l3.281-5.016q0.938 0.516 2.016 0.516 0.469 0 0.656-0.047l-4.594-4.594q-0.047 0.188-0.047 0.656h-6q0-2.859 1.5-5.25zM12 12.984q0.844 0 1.43 0.586t0.586 1.43v0.188l-2.203-2.203h0.188zM8.109 5.766l2.109 5.625-4.313-4.313q0.984-0.797 2.203-1.313zM15.984 15q0-1.172-0.633-2.156t-1.711-1.5l2.25-5.578q2.766 1.172 4.43 3.68t1.664 5.555h-6z"></path>
</svg>
