<!-- Generated by IcoMoon.io -->
<svg version="1.1" xmlns="http://www.w3.org/2000/svg" width="24" height="24" viewBox="0 0 24 24">
<title>radioactive</title>
<path d="M12 12.984q0.844 0 1.43 0.586t0.586 1.43-0.586 1.43-1.43 0.586-1.43-0.586-0.586-1.43 0.586-1.43 1.43-0.586zM12 24.984q-2.906 0-5.297-1.5l3.281-5.016q0.938 0.516 2.016 0.516t2.016-0.516l3.281 5.016q-2.391 1.5-5.297 1.5zM2.016 15q0-3.047 1.664-5.555t4.43-3.68l2.25 5.578q-1.078 0.516-1.711 1.5t-0.633 2.156h-6zM15.984 15q0-1.172-0.633-2.156t-1.711-1.5l2.25-5.578q2.766 1.172 4.43 3.68t1.664 5.555h-6z"></path>
</svg>
