<!-- Generated by IcoMoon.io -->
<svg version="1.1" xmlns="http://www.w3.org/2000/svg" width="24" height="24" viewBox="0 0 24 24">
<title>recycle</title>
<path d="M21.797 18.422l-2.484 4.313q-0.375 0.656-0.984 0.984t-1.313 0.281h-2.016v2.016l-2.484-4.5 2.484-4.5v1.969h2.813l-2.203-3.844 4.313-2.484 1.828 3.094q0.375 0.609 0.398 1.336t-0.352 1.336zM9.188 6.047h5.016q0.75 0 1.336 0.398t0.914 1.008l0.984 1.734 1.734-0.984-2.625 4.406-5.156 0.094 1.734-1.031-1.406-2.438-2.203 3.844-4.359-2.484 1.781-3.141q0.328-0.609 0.938-1.008t1.313-0.398zM5.063 22.781l-2.531-4.359q-0.328-0.609-0.305-1.336t0.398-1.289l1.031-1.734-1.734-0.984 5.109 0.047 2.672 4.453-1.734-1.031-1.406 2.438h4.453v5.016h-3.609q-0.703 0.047-1.336-0.281t-1.008-0.938z"></path>
</svg>
