<!-- Generated by IcoMoon.io -->
<svg version="1.1" xmlns="http://www.w3.org/2000/svg" width="24" height="24" viewBox="0 0 24 24">
<title>refresh1</title>
<path d="M17.672 9.328q-1.125-1.078-2.578-1.711t-3.070-0.633-3.094 0.609-2.602 1.734-1.734 2.602-0.609 3.070q0 2.156 1.078 4.008t2.93 2.93 4.008 1.078q2.766 0 4.898-1.688t2.836-4.313h-2.063q-0.656 1.734-2.203 2.859t-3.469 1.125q-1.641 0-3.023-0.797t-2.18-2.18-0.797-3.023 0.797-3.023 2.18-2.18 3.023-0.797q1.219 0 2.297 0.469t1.922 1.313l-3.234 3.234h7.031v-7.031z"></path>
</svg>
