<!-- Generated by IcoMoon.io -->
<svg version="1.1" xmlns="http://www.w3.org/2000/svg" width="24" height="24" viewBox="0 0 24 24">
<title>reload</title>
<path d="M2.016 15q0 2.438 1.195 4.5t3.281 3.281 4.523 1.219q1.781 0 3.445-0.68t2.93-1.898l-1.5-1.5q-0.938 0.984-2.203 1.523t-2.672 0.539q-2.25 0-4.031-1.219-1.641-1.172-2.438-3.094t-0.469-3.891q0.375-2.156 1.969-3.75t3.75-1.922q1.969-0.375 3.891 0.422t3.047 2.438q1.266 1.781 1.266 4.031h-3l3.984 3.984h0.094l3.938-3.984h-3q0-2.438-1.219-4.5t-3.281-3.281-4.5-1.219-4.523 1.219-3.281 3.281-1.195 4.5z"></path>
</svg>
