<!-- Generated by IcoMoon.io -->
<svg version="1.1" xmlns="http://www.w3.org/2000/svg" width="24" height="24" viewBox="0 0 24 24">
<title>reload_alert</title>
<path d="M2.016 15q0 2.438 1.195 4.523t3.258 3.281 4.547 1.195q1.781 0 3.445-0.656t2.93-1.922l-1.5-1.5q-1.922 2.063-4.875 2.063-2.25 0-4.031-1.219-1.641-1.172-2.438-3.070t-0.469-3.867q0.375-2.156 2.016-3.727t3.75-1.945q2.016-0.375 3.891 0.422t3.047 2.438q1.219 1.734 1.219 3.984h-3l3.984 3.984h0.094l3.938-3.984h-3q0-2.438-1.219-4.523t-3.281-3.281-4.523-1.195-4.523 1.195-3.258 3.281-1.195 4.523zM9.984 18h2.016v2.016h-2.016v-2.016zM9.984 9.984h2.016v6h-2.016v-6z"></path>
</svg>
