<!-- Generated by IcoMoon.io -->
<svg version="1.1" xmlns="http://www.w3.org/2000/svg" width="24" height="24" viewBox="0 0 24 24">
<title>resistor_nodes</title>
<path d="M2.016 14.016h1.641q0.328-0.891 1.102-1.453t1.758-0.563q1.219 0 2.109 0.867t0.891 2.133q0 0.938-0.563 1.734l1.125 1.594 3.047-11.344 3.563 5.109 0.797-0.094q0.984 0 1.758 0.563t1.102 1.453h1.641v1.969h-1.641q-0.328 0.891-1.102 1.453t-1.758 0.563q-1.219 0-2.109-0.867t-0.891-2.133q0-0.938 0.563-1.734l-1.125-1.594-3.047 11.344-3.563-5.109q-0.422 0.094-0.797 0.094-0.984 0-1.758-0.563t-1.102-1.453h-1.641v-1.969zM17.484 13.5q-0.609 0-1.055 0.445t-0.445 1.055 0.445 1.055 1.078 0.445 1.055-0.445 0.422-1.055-0.422-1.055-1.078-0.445zM6.516 13.5q-0.656 0-1.078 0.445t-0.422 1.055 0.422 1.055 1.055 0.445 1.078-0.445 0.445-1.055-0.445-1.055-1.055-0.445z"></path>
</svg>
