<!-- Generated by IcoMoon.io -->
<svg version="1.1" xmlns="http://www.w3.org/2000/svg" width="24" height="24" viewBox="0 0 24 24">
<title>restart_alert</title>
<path d="M9.984 7.031v-3.375l-4.969 4.969 4.969 5.016v-4.594q1.172 0 2.297 0.445t1.922 1.242q1.125 1.172 1.523 2.719t0 3.094-1.523 2.672q-0.938 0.984-2.227 1.43t-2.555 0.305l-0.516 1.969q1.875 0.234 3.563-0.328 1.828-0.563 3.141-1.969 1.5-1.5 2.039-3.563t0-4.125-2.039-3.609q-1.125-1.125-2.578-1.711t-3.047-0.586zM4.313 20.625q1.219 1.219 2.672 1.828l0.609-2.016q-1.031-0.469-1.781-1.219-1.406-1.313-1.734-3.211t0.516-3.586l-1.5-1.5q-1.359 2.344-1.031 5.063t2.25 4.641zM20.016 15.984h1.969v-6h-1.969v6zM20.016 20.016h1.969v-2.016h-1.969v2.016z"></path>
</svg>
