<!-- Generated by IcoMoon.io -->
<svg version="1.1" xmlns="http://www.w3.org/2000/svg" width="24" height="24" viewBox="0 0 24 24">
<title>restart_off</title>
<path d="M20.813 25.688l-4.219-4.172q-1.266 0.891-2.742 1.242t-2.93 0.164l0.469-2.016q2.063 0.141 3.703-0.891l-14.016-14.016 1.313-1.313 19.688 19.734zM12 9q1.172 0 2.273 0.469t1.945 1.313q1.313 1.359 1.641 3.141t-0.375 3.469l1.5 1.5q1.313-2.25 0.938-4.898t-2.344-4.57q-1.078-1.172-2.555-1.805t-3.023-0.633v-3.281l-4.078 3.984 4.078 4.125v-2.813zM6.609 12.422l-1.5-1.5q-1.359 2.344-1.055 5.063t2.227 4.734q1.313 1.125 2.719 1.688l0.516-2.016q-0.938-0.422-1.828-1.172-1.313-1.359-1.617-3.258t0.539-3.539z"></path>
</svg>
