<!-- Generated by IcoMoon.io -->
<svg version="1.1" xmlns="http://www.w3.org/2000/svg" width="24" height="24" viewBox="0 0 24 24">
<title>restart</title>
<path d="M12 6.984q1.594 0 3.047 0.609t2.531 1.688q1.547 1.547 2.086 3.609t0 4.125-2.086 3.563q-1.266 1.406-3.094 2.016-1.734 0.563-3.563 0.328l0.469-2.016q1.313 0.141 2.578-0.305t2.25-1.383q1.125-1.172 1.523-2.695t0-3.094-1.523-2.742q-0.844-0.797-1.969-1.242t-2.25-0.445v4.594l-5.016-5.016 5.016-4.969v3.375zM6.281 20.578q-1.922-1.922-2.227-4.617t1.055-5.039l1.5 1.5q-0.844 1.641-0.539 3.539t1.711 3.258q0.75 0.75 1.828 1.172l-0.609 2.016q-1.5-0.609-2.719-1.828z"></path>
</svg>
