<!-- Generated by IcoMoon.io -->
<svg version="1.1" xmlns="http://www.w3.org/2000/svg" width="24" height="24" viewBox="0 0 24 24">
<title>restore_alert</title>
<path d="M12.984 6q-2.438 0-4.5 1.195t-3.281 3.281-1.219 4.523h-3l4.031 3.984 3.984-3.984h-3q0-1.922 0.938-3.516t2.531-2.531 3.516-0.938 3.539 0.938 2.555 2.531 0.938 3.516-0.938 3.516-2.555 2.531-3.539 0.938q-1.406 0-2.695-0.539t-2.18-1.523l-1.406 1.359q1.219 1.313 2.836 2.016t3.445 0.703q2.484 0 4.547-1.195t3.258-3.281 1.195-4.523-1.195-4.523-3.258-3.281-4.547-1.195zM12 18h2.016v2.016h-2.016v-2.016zM12 9.984h2.016v6h-2.016v-6z"></path>
</svg>
