<!-- Generated by IcoMoon.io -->
<svg version="1.1" xmlns="http://www.w3.org/2000/svg" width="24" height="24" viewBox="0 0 24 24">
<title>rocket</title>
<path d="M2.813 17.109l2.813-2.813 2.531-0.516q1.5-2.016 3.938-3.656 2.063-1.359 4.406-2.156 2.016-0.75 3.281-0.75 0 1.266-0.75 3.281-0.797 2.344-2.156 4.406-1.641 2.438-3.656 3.938l-0.516 2.531-2.813 2.813-0.703-3.516q-1.078 0-1.336-0.094t-0.797-0.633-0.633-0.797-0.094-1.336zM5.625 19.969l1.406 1.406-2.625 2.672h-1.453v-1.453zM4.219 18.563l1.219 0.141-2.438 2.438v-1.406zM8.297 21.563l0.141 1.219-1.172 1.219h-1.406zM12.984 12.516q-0.609 0-1.055 0.422t-0.445 1.055 0.445 1.078 1.078 0.445 1.055-0.445 0.422-1.078-0.422-1.055-1.078-0.422z"></path>
</svg>
