<!-- Generated by IcoMoon.io -->
<svg version="1.1" xmlns="http://www.w3.org/2000/svg" width="24" height="24" viewBox="0 0 24 24">
<title>rotate_right_variant</title>
<path d="M9.984 6.984v-3l4.031 4.031-4.031 3.984v-3q-1.594 0-2.977 0.797t-2.203 2.18-0.82 3.023l0.094 0.984h-2.016l-0.047-0.984q0-2.156 1.078-4.008t2.906-2.93 3.984-1.078zM17.016 5.016h3q0.797 0 1.383 0.586t0.586 1.383v16.031q0 0.797-0.586 1.383t-1.383 0.586h-3q-0.844 0-1.43-0.586t-0.586-1.383v-16.031q0-0.797 0.586-1.383t1.43-0.586zM3.984 18h9v6.984h-9q-0.797 0-1.383-0.586t-0.586-1.383v-3q0-0.844 0.586-1.43t1.383-0.586z"></path>
</svg>
