<!-- Generated by IcoMoon.io -->
<svg version="1.1" xmlns="http://www.w3.org/2000/svg" width="24" height="24" viewBox="0 0 24 24">
<title>rotate_left_variant</title>
<path d="M3.984 5.016h3q0.844 0 1.43 0.586t0.586 1.383v16.031q0 0.797-0.586 1.383t-1.43 0.586h-3q-0.797 0-1.383-0.586t-0.586-1.383v-16.031q0-0.797 0.586-1.383t1.383-0.586zM20.016 18q0.797 0 1.383 0.586t0.586 1.43v3q0 0.797-0.586 1.383t-1.383 0.586h-9v-6.984h9zM14.016 6.984q2.156 0 3.984 1.078t2.906 2.93 1.078 4.008l-0.047 0.984h-2.016l0.094-0.984q0-1.641-0.82-3.023t-2.203-2.18-2.977-0.797v3l-4.031-3.984 4.031-4.031v3z"></path>
</svg>
