<!-- Generated by IcoMoon.io -->
<svg version="1.1" xmlns="http://www.w3.org/2000/svg" width="24" height="24" viewBox="0 0 24 24">
<title>rotate_orbit</title>
<path d="M8.016 17.25l-3.281-3.234h2.25q0.141-2.766 0.844-5.063t1.805-3.633 2.367-1.336q1.5 0 2.719 1.781t1.828 4.688q2.906 0.609 4.688 1.828t1.781 2.719q0 1.359-1.477 2.508t-3.961 1.805l0.328-2.063q1.453-0.422 2.273-1.008t0.82-1.242q0-0.797-1.125-1.453t-3-1.031q0.141 1.266 0.141 2.484 0 3-0.68 5.531t-1.828 4.008-2.508 1.477-2.508-1.477-1.805-3.961l2.063 0.328q0.422 1.453 1.008 2.273t1.242 0.82q0.797 0 1.5-1.219t1.102-3.281 0.398-4.5q0-1.5-0.141-2.859-1.359-0.141-2.859-0.141l-1.875 0.047 0.328-2.016 1.547-0.047q1.219 0 2.484 0.141-0.375-1.875-1.031-3t-1.453-1.125q-1.172 0-2.016 2.297t-0.984 5.719h2.25zM14.25 18.984l-3.234 3.281v-2.25q-2.766-0.141-5.063-0.844t-3.633-1.805-1.336-2.414 1.477-2.461 3.961-1.805l-0.328 2.063q-1.453 0.422-2.273 1.008t-0.82 1.242q0 1.172 2.297 2.016t5.719 0.984v-2.25z"></path>
</svg>
