<!-- Generated by IcoMoon.io -->
<svg version="1.1" xmlns="http://www.w3.org/2000/svg" width="24" height="24" viewBox="0 0 24 24">
<title>routes_clock</title>
<path d="M16.5 15.984h-1.5v3.703l3.188 1.828 0.75-1.266-2.438-1.453v-2.813zM15.984 12q-1.406 0-2.719 0.563t-2.25 1.547v-4.125h6l1.969-1.969-1.969-2.016h-6v-0.984l-1.031-1.031-0.984 1.031v3.984h-6l-2.016 2.016 2.016 1.969h6v10.031q-0.844 0-1.43 0.586t-0.586 1.383h5.438q1.641 1.031 3.563 1.031t3.539-0.938 2.555-2.555 0.938-3.516-0.938-3.516-2.555-2.555-3.539-0.938zM15.984 23.859q-2.016 0-3.422-1.43t-1.406-3.445 1.406-3.422 3.422-1.406 3.445 1.406 1.43 3.422-1.43 3.445-3.445 1.43z"></path>
</svg>
