<!-- Generated by IcoMoon.io -->
<svg version="1.1" xmlns="http://www.w3.org/2000/svg" width="24" height="24" viewBox="0 0 24 24">
<title>rugby</title>
<path d="M16.219 19.219q3.047-3.047 3.234-8.016-1.641 3.609-4.641 6.609t-6.609 4.641q4.922-0.141 8.016-3.234zM7.781 10.781q-3.047 3.047-3.234 8.016 0.656-1.406 2.063-3.469 1.266-1.828 2.578-3.141 3-3 6.609-4.641-4.922 0.141-8.016 3.234zM20.484 6.516q0.797 0.844 0.984 3.211t-0.727 5.578-3.070 5.367q-1.922 1.969-4.641 2.883t-5.344 0.914q-3.188 0-4.172-0.984-0.797-0.844-0.984-3.211t0.727-5.578 3.070-5.367q1.922-1.969 4.641-2.883t5.344-0.914q3.188 0 4.172 0.984z"></path>
</svg>
