<!-- Generated by IcoMoon.io -->
<svg version="1.1" xmlns="http://www.w3.org/2000/svg" width="24" height="24" viewBox="0 0 24 24">
<title>ruler_square</title>
<path d="M3 8.016v15.984h6v-1.5h-2.016v-1.5h2.016v-1.5h-3.984v-1.5h3.984v-1.5h-2.016v-1.5h2.016v-1.5h-3.984v-1.5h3.984v-3.984h1.5v3.984h1.5v-2.016h1.5v2.016h1.5v-3.984h1.5v3.984h1.5v-2.016h1.5v2.016h1.5v-6h-15.984q-0.844 0-1.43 0.586t-0.586 1.43zM6 9.984q-0.422 0-0.703-0.281t-0.281-0.703 0.281-0.703 0.703-0.281 0.703 0.281 0.281 0.703-0.281 0.703-0.703 0.281z"></path>
</svg>
