<!-- Generated by IcoMoon.io -->
<svg version="1.1" xmlns="http://www.w3.org/2000/svg" width="24" height="24" viewBox="0 0 24 24">
<title>ruler_square_compass</title>
<path d="M20.016 22.875v2.109l-1.828-1.172-4.781-9q0.984-0.281 1.781-0.984zM15 9.984q0 1.266-0.867 2.133t-2.133 0.867q-0.234 0.047-0.422 0l-5.766 10.828-1.828 1.172v-2.109l5.813-10.875q-0.609-0.656-0.75-1.523t0.234-1.688 1.102-1.313 1.617-0.492v-1.969q0.422 0 0.703 0.281t0.281 0.703v1.172q0.891 0.328 1.453 1.102t0.563 1.711zM12.984 9.984q0-0.281-0.164-0.539t-0.445-0.375-0.586-0.047-0.516 0.281-0.258 0.516 0.070 0.563 0.375 0.445 0.539 0.188q0.422 0 0.703-0.305t0.281-0.727zM4.219 12.984l1.781 1.828-1.453 2.766-2.438-2.484zM12 20.766l-1.5-1.5-1.5 2.719 3 3 3-3-1.453-2.766zM19.781 12.984l-1.781 1.828 1.5 2.766 2.391-2.484z"></path>
</svg>
