<!-- Generated by IcoMoon.io -->
<svg version="1.1" xmlns="http://www.w3.org/2000/svg" width="24" height="24" viewBox="0 0 24 24">
<title>run</title>
<path d="M13.5 8.484q0.797 0 1.406-0.586t0.609-1.406-0.586-1.406-1.43-0.586-1.43 0.586-0.586 1.406 0.586 1.406 1.43 0.586zM9.891 22.359l0.984-4.359 2.109 2.016v6h2.016v-7.5l-2.109-2.016 0.609-3q0.984 1.172 2.438 1.828t3.047 0.656v-1.969q-1.406 0-2.531-0.68t-1.781-1.758l-0.984-1.594q-0.656-0.984-1.688-0.984-0.141 0-0.398 0.047t-0.398 0.047l-5.203 2.203v4.688h2.016v-3.422l1.781-0.703-1.594 8.156-4.922-1.031-0.375 2.016z"></path>
</svg>
