<!-- Generated by IcoMoon.io -->
<svg version="1.1" xmlns="http://www.w3.org/2000/svg" width="24" height="24" viewBox="0 0 24 24">
<title>run_fast</title>
<path d="M16.5 8.484q0.844 0 1.43-0.586t0.586-1.406-0.586-1.406-1.43-0.586-1.43 0.586-0.586 1.406 0.586 1.406 1.43 0.586zM12.891 22.406l1.031-4.406 2.063 2.016v6h2.016v-7.5l-2.109-2.016 0.609-3q1.031 1.172 2.484 1.828t3 0.656v-1.969q-1.313 0-2.461-0.633t-1.805-1.805l-1.031-1.594q-0.281-0.422-0.727-0.703t-0.961-0.281q-0.141 0-0.398 0.047t-0.398 0.047l-5.203 2.203v4.688h2.016v-3.375l1.781-0.703-1.594 8.109-4.922-1.031-0.375 2.016zM3.984 12q-0.422 0-0.703-0.281t-0.281-0.703 0.281-0.727 0.703-0.305h3v2.016h-3zM5.016 8.016q-0.422 0-0.727-0.305t-0.305-0.727 0.305-0.703 0.727-0.281h4.969v2.016h-4.969zM3 15.984q-0.422 0-0.703-0.281t-0.281-0.703 0.281-0.703 0.703-0.281h3.984v1.969h-3.984z"></path>
</svg>
