<!-- Generated by IcoMoon.io -->
<svg version="1.1" xmlns="http://www.w3.org/2000/svg" width="24" height="24" viewBox="0 0 24 24">
<title>rv_truck</title>
<path d="M20.016 11.016h1.969v-2.016l-1.969-2.016h-17.016q-0.844 0-1.43 0.586t-0.586 1.43v9q0 0.844 0.586 1.43t1.43 0.586h0.984q0 1.219 0.891 2.109t2.133 0.891 2.109-0.891 0.867-2.109h5.016q0 1.219 0.867 2.109t2.133 0.891 2.133-0.891 0.867-2.109h2.016v-5.016zM6.984 21.516q-0.609 0-1.055-0.445t-0.445-1.078 0.445-1.055 1.078-0.422 1.055 0.422 0.422 1.055-0.422 1.078-1.078 0.445zM9 15h-6v-3h6v3zM14.016 18h-3v-6h3v6zM18 21.516q-0.609 0-1.055-0.445t-0.445-1.078 0.445-1.055 1.055-0.422 1.055 0.422 0.445 1.055-0.445 1.055-1.055 0.469zM17.016 15v-2.484h2.484l2.016 2.484h-4.5z"></path>
</svg>
