<!-- Generated by IcoMoon.io -->
<svg version="1.1" xmlns="http://www.w3.org/2000/svg" width="24" height="24" viewBox="0 0 24 24">
<title>sack</title>
<path d="M15.984 12q1.406 0.703 2.484 2.25 0.891 1.266 1.547 3 0.469 1.266 0.75 2.625l0.234 1.125 0.047 0.422q0.047 0.516-0.094 0.984-0.141 0.656-0.609 1.172-0.563 0.656-1.5 0.984-1.172 0.422-2.859 0.422h-7.969q-1.688 0-2.859-0.422-0.938-0.328-1.5-0.984-0.469-0.516-0.609-1.172-0.141-0.469-0.094-0.984l0.047-0.422 0.234-1.125q0.281-1.359 0.75-2.625 0.656-1.734 1.547-3 1.078-1.547 2.484-2.25h7.969zM14.016 6.984l-2.016-1.969-2.016 1.969-3.984-1.969 2.016 4.969h7.969l2.016-4.969z"></path>
</svg>
