<!-- Generated by IcoMoon.io -->
<svg version="1.1" xmlns="http://www.w3.org/2000/svg" width="24" height="24" viewBox="0 0 24 24">
<title>satellite_uplink</title>
<path d="M11.859 5.016l-0.516 1.922q3.281 0.609 5.672 3t3.047 5.719l1.922-0.516q-0.75-3.844-3.516-6.609t-6.609-3.516zM10.828 8.859l-0.516 1.969q2.25 0.328 3.891 1.945t1.969 3.914l1.969-0.516q-0.516-2.813-2.531-4.828t-4.781-2.484zM3.703 12.703q-0.703 1.594-0.703 3.281 0 1.5 0.516 2.859t1.5 2.438v3.703h3v-1.594q1.406 0.609 3 0.609 1.688 0 3.281-0.703zM9.797 12.75l-0.516 1.969q1.219 0 2.109 0.891t0.891 2.109l1.969-0.516q-0.188-1.734-1.453-3t-3-1.453z"></path>
</svg>
