<!-- Generated by IcoMoon.io -->
<svg version="1.1" xmlns="http://www.w3.org/2000/svg" width="24" height="24" viewBox="0 0 24 24">
<title>saw_blade</title>
<path d="M20.016 18q-0.094 0.094-0.188 0.234-0.188 0.234-0.234 0.516 0 0.328 0.281 0.656 0.375 0.375 1.219 0.609l-2.813 2.766h-2.766l-0.281 0.047q-0.328 0.047-0.539 0.234t-0.211 0.609q0.047 0.516 0.516 1.313h-3.984l-2.016-1.969-0.234-0.188q-0.234-0.188-0.516-0.234-0.328 0-0.656 0.281-0.375 0.375-0.609 1.219l-2.766-2.813v-2.766l-0.047-0.281q-0.047-0.328-0.234-0.539t-0.609-0.211q-0.516 0.047-1.313 0.516v-3.984l1.969-2.016 0.188-0.234q0.188-0.234 0.211-0.539t-0.305-0.586q-0.375-0.328-1.266-0.563l2.766-2.859h2.906l0.281-0.047q0.328-0.047 0.539-0.234t0.211-0.609q-0.047-0.516-0.516-1.313h3.984l2.016 1.969 0.234 0.188q0.234 0.188 0.516 0.188 0.328 0.047 0.656-0.281 0.375-0.375 0.609-1.266l2.766 2.766v2.906l0.047 0.281q0.047 0.328 0.234 0.539t0.609 0.211q0.516-0.047 1.313-0.516v3.984zM14.016 15q0-0.844-0.586-1.43t-1.43-0.586-1.43 0.586-0.586 1.43 0.586 1.43 1.43 0.586 1.43-0.586 0.586-1.43z"></path>
</svg>
