<!-- Generated by IcoMoon.io -->
<svg version="1.1" xmlns="http://www.w3.org/2000/svg" width="24" height="24" viewBox="0 0 24 24">
<title>scale_off</title>
<path d="M22.125 24.469l-1.266 1.266-1.734-1.734h-1.125v-1.125l-5.906-5.859h-1.078v-1.125l-0.703-0.703q-1.781 0.375-3.234 1.5l1.359 1.359-1.406 1.406-1.359-1.359q-1.359 1.734-1.594 3.891h1.922v2.016h-3.984v-0.984q0-3.188 1.828-5.789t4.828-3.68l-4.828-4.828-1.828-0.703v-1.125l-0.891-0.891 1.266-1.266zM21.891 21.703q-0.375-3.188-2.555-5.531t-5.32-2.953v-2.016l7.969-3.188v-2.016h-15.797zM12 21q-0.469 0-0.891 0.188l-3.844 1.828 3.844 1.781q0.422 0.188 0.891 0.188 0.844 0 1.43-0.586t0.586-1.406-0.586-1.406-1.43-0.586z"></path>
</svg>
