<!-- Generated by IcoMoon.io -->
<svg version="1.1" xmlns="http://www.w3.org/2000/svg" width="24" height="24" viewBox="0 0 24 24">
<title>scale_balance</title>
<path d="M12 6q-0.938 0-1.711 0.539t-1.102 1.477h-6.188v1.969h1.969l-2.953 7.031q-0.375 1.453 0.586 2.227t2.906 0.773 2.93-0.773 0.563-2.227l-2.953-7.031h3.141q0.516 1.313 1.828 1.828v11.203h-9v1.969h19.969v-1.969h-9v-11.203q1.359-0.469 1.828-1.828h3.141l-2.953 7.031q-0.328 1.453 0.609 2.227t2.883 0.773 2.93-0.773 0.563-2.227l-2.953-7.031h1.969v-1.969h-6.188q-0.328-0.938-1.102-1.477t-1.711-0.539zM12 8.016q0.422 0 0.703 0.281t0.281 0.703-0.281 0.703-0.703 0.281-0.703-0.281-0.281-0.703 0.281-0.703 0.703-0.281zM5.484 13.266l1.5 3.75h-3zM18.516 13.266l1.5 3.75h-3z"></path>
</svg>
