<!-- Generated by IcoMoon.io -->
<svg version="1.1" xmlns="http://www.w3.org/2000/svg" width="24" height="24" viewBox="0 0 24 24">
<title>scale</title>
<path d="M8.438 18.047l-1.406 1.406-1.359-1.359q-1.359 1.734-1.594 3.891h1.922v2.016h-3.984v-0.984q0-2.391 1.031-4.453t2.859-3.492 4.078-1.852v-2.016l-7.969-3.188v-2.016h19.969v2.016l-7.969 3.188v2.016q2.25 0.422 4.078 1.852t2.859 3.492 1.031 4.453v0.984h-3.984v-2.016h1.922q-0.234-2.156-1.594-3.891l-1.359 1.359-1.406-1.406 1.359-1.359q-1.781-1.359-3.938-1.641v1.969h-1.969v-1.969q-2.156 0.281-3.938 1.641zM12 21q0.844 0 1.43 0.586t0.586 1.406-0.586 1.406-1.43 0.586q-0.469 0-0.891-0.188l-3.844-1.781 3.844-1.828q0.422-0.188 0.891-0.188z"></path>
</svg>
