<!-- Generated by IcoMoon.io -->
<svg version="1.1" xmlns="http://www.w3.org/2000/svg" width="24" height="24" viewBox="0 0 24 24">
<title>screw_machine_round_top</title>
<path d="M14.484 10.313l-0.984 0.703v-1.031h-3v3l-0.984 0.703v1.031l4.969-3.328v-1.078zM14.484 14.297l-0.984 0.703v-2.016l-3 2.016v2.016l-0.984 0.703v0.984l4.969-3.281v-1.125zM14.484 18.281l-0.984 0.703v-1.969l-3 1.969v2.016l-0.984 0.703v0.984l4.969-3.281v-1.125zM6.984 9h10.031l-0.234-0.469q-0.328-0.563-0.797-1.031-0.656-0.656-1.5-1.031-1.125-0.469-2.484-0.469t-2.484 0.469q-0.844 0.375-1.5 1.031-0.469 0.469-0.797 1.031zM13.5 21v3h-3v-0.984z"></path>
</svg>
