<!-- Generated by IcoMoon.io -->
<svg version="1.1" xmlns="http://www.w3.org/2000/svg" width="24" height="24" viewBox="0 0 24 24">
<title>screw_round_top</title>
<path d="M13.5 20.016v1.969l-1.5 3-1.5-3zM14.484 9.281l-0.984 0.703v-0.984h-3v3l-0.984 0.703v0.984l4.969-3.281v-1.125zM14.484 13.313l-0.984 0.703v-2.016l-3 2.016v1.969l-0.984 0.703v1.031l4.969-3.328v-1.078zM14.484 17.297l-0.984 0.703v-2.016l-3 2.016v2.016l-0.984 0.703v0.984l4.969-3.281v-1.125zM6.984 8.016h10.031l-0.234-0.469q-0.328-0.563-0.797-1.031-0.656-0.656-1.5-1.031-1.125-0.469-2.484-0.469-2.484 0-3.984 1.5-0.75 0.75-1.031 1.5v0z"></path>
</svg>
