<!-- Generated by IcoMoon.io -->
<svg version="1.1" xmlns="http://www.w3.org/2000/svg" width="24" height="24" viewBox="0 0 24 24">
<title>screw_flat_top</title>
<path d="M13.5 20.016v1.969l-1.5 3-1.5-3zM14.484 9.281l-0.984 0.703v-0.984h-3v3l-0.984 0.703v0.984l4.969-3.281v-1.125zM14.484 13.313l-0.984 0.703v-2.016l-3 2.016v1.969l-0.984 0.703v1.031l4.969-3.328v-1.078zM14.484 17.297l-0.984 0.703v-2.016l-3 2.016v2.016l-0.984 0.703v0.984l4.969-3.281v-1.125zM8.016 5.016h-0.281q-0.281 0.094-0.469 0.281-0.281 0.281-0.281 0.703l3 2.016h4.031l3-2.016-0.047-0.281q-0.094-0.281-0.281-0.469-0.234-0.234-0.703-0.234h-7.969z"></path>
</svg>
