<!-- Generated by IcoMoon.io -->
<svg version="1.1" xmlns="http://www.w3.org/2000/svg" width="24" height="24" viewBox="0 0 24 24">
<title>screw_machine_flat_top</title>
<path d="M14.484 10.313l-0.984 0.703v-1.031h-3v3l-0.984 0.703v1.031l4.969-3.328v-1.078zM14.484 14.297l-0.984 0.703v-2.016l-3 2.016v2.016l-0.984 0.703v0.984l4.969-3.281v-1.125zM14.484 18.281l-0.984 0.703v-1.969l-3 1.969v2.016l-0.984 0.703v0.984l4.969-3.281v-1.125zM8.016 6q-0.141 0-0.281 0.047-0.281 0.047-0.469 0.234-0.281 0.281-0.281 0.703l3 2.016h4.031l3-2.016-0.047-0.234q-0.094-0.328-0.281-0.469-0.234-0.281-0.703-0.281h-7.969zM13.5 21v3h-3v-0.984z"></path>
</svg>
