<!-- Generated by IcoMoon.io -->
<svg version="1.1" xmlns="http://www.w3.org/2000/svg" width="24" height="24" viewBox="0 0 24 24">
<title>search_web</title>
<path d="M15.516 17.016l4.969 4.969-1.5 1.5-4.969-4.969v-0.797l-0.281-0.281q-1.828 1.547-4.219 1.547-1.313 0-2.508-0.492t-2.109-1.406-1.406-2.109-0.492-2.461q0-1.781 0.867-3.281t2.367-2.367 3.258-0.867 3.258 0.867 2.367 2.367 0.867 3.281q0 2.391-1.547 4.219l0.281 0.281h0.797zM9.516 7.5l-0.563 0.047q-0.563 1.219-0.891 2.438h2.859q-0.328-1.219-0.891-2.438-0.141-0.047-0.516-0.047zM13.828 9.984q-0.938-1.594-2.672-2.203 0.516 1.125 0.797 2.203h1.875zM5.156 9.984h1.922q0.281-1.078 0.75-2.203-1.734 0.609-2.672 2.203zM4.5 12.516q0 0.75 0.234 1.5h2.156l-0.141-1.5 0.141-1.5h-2.156q-0.234 0.703-0.234 1.5zM14.25 14.016q0.234-0.75 0.234-1.523t-0.234-1.477h-2.109q0.094 0.75 0.094 1.5t-0.094 1.5h2.109zM7.875 11.016l-0.141 1.5 0.141 1.5h3.234q0.141-0.75 0.141-1.5t-0.141-1.5h-3.234zM9.516 17.484h0.516q0.563-1.219 0.891-2.484h-2.859q0.328 1.266 0.891 2.484h0.563zM13.828 15h-1.875q-0.281 1.125-0.797 2.203 1.734-0.563 2.672-2.203zM5.156 15q0.938 1.641 2.672 2.203-0.469-1.078-0.75-2.203h-1.922z"></path>
</svg>
