<!-- Generated by IcoMoon.io -->
<svg version="1.1" xmlns="http://www.w3.org/2000/svg" width="24" height="24" viewBox="0 0 24 24">
<title>seed</title>
<path d="M20.719 6.281q-0.516-0.047-0.984-0.141-1.219-0.141-2.531-0.141-3.609 0-6.422 1.125-3.938 1.547-5.906 5.063-2.391 4.406-1.688 11.625 2.203 0.188 3.234 0.188 3.188 0 5.719-0.75 2.297-0.703 4.031-2.016 1.547-1.172 2.625-2.813 0.938-1.453 1.453-3.281 0.469-1.5 0.656-3.234 0.141-1.406 0.094-2.859-0.047-1.031-0.188-1.969zM6.984 20.016q0.047-0.516 0.094-1.078 0.141-1.266 0.563-2.438 0.563-1.688 1.5-3 1.219-1.594 3-2.438 2.063-1.078 4.875-1.078l-0.656 0.281q-0.844 0.375-1.734 0.938-1.219 0.797-2.391 1.828-1.406 1.266-2.672 2.859-1.453 1.875-2.578 4.125z"></path>
</svg>
