<!-- Generated by IcoMoon.io -->
<svg version="1.1" xmlns="http://www.w3.org/2000/svg" width="24" height="24" viewBox="0 0 24 24">
<title>seed_outline</title>
<path d="M17.203 8.016v0q1.219 0 1.688 0.094 0.234 2.484-0.141 4.688-0.563 3.281-2.344 5.391-3.047 3.797-9.984 3.797h-1.313q-0.328-7.078 2.813-10.5 1.688-1.922 4.5-2.813 2.156-0.656 4.781-0.656zM17.203 6q-3.609 0-6.422 1.125-3.938 1.547-5.906 5.063-2.391 4.406-1.688 11.625 2.203 0.188 3.234 0.188 3.188 0 5.719-0.75 2.297-0.703 4.031-2.016 1.547-1.172 2.625-2.813 0.938-1.453 1.453-3.281 0.469-1.5 0.656-3.234 0.141-1.406 0.094-2.859-0.047-1.031-0.188-1.969l-0.094-0.797-0.984-0.141q-1.219-0.141-2.531-0.141zM17.016 9.984q-2.813 0-4.875 1.078-1.781 0.844-3 2.438-0.938 1.313-1.5 3-0.422 1.172-0.563 2.438l-0.094 1.078q1.125-2.25 2.578-4.125 1.266-1.594 2.672-2.859 1.172-1.031 2.391-1.828 0.891-0.563 1.734-0.938z"></path>
</svg>
