<!-- Generated by IcoMoon.io -->
<svg version="1.1" xmlns="http://www.w3.org/2000/svg" width="24" height="24" viewBox="0 0 24 24">
<title>send_clock</title>
<path d="M2.016 6v6.984l9 2.016-9 2.016v6.984l7.266-3.094q0.609 2.25 2.484 3.68t4.219 1.43q1.922 0 3.516-0.961t2.555-2.555 0.961-3.492-0.961-3.516-2.555-2.555-3.516-0.938zM15.984 14.016q1.031 0 1.945 0.375t1.617 1.078 1.078 1.617 0.375 1.922-0.375 1.922-1.078 1.617-1.617 1.078-1.945 0.375q-1.359 0-2.508-0.68t-1.805-1.828-0.656-2.508 0.656-2.508 1.805-1.805 2.508-0.656zM15 15.516v3.984l3 2.016 0.75-1.266-2.25-1.5v-3.234h-1.5z"></path>
</svg>
