<!-- Generated by IcoMoon.io -->
<svg version="1.1" xmlns="http://www.w3.org/2000/svg" width="24" height="24" viewBox="0 0 24 24">
<title>send_lock_outline</title>
<path d="M23.016 21v-0.516q0-1.031-0.75-1.758t-1.781-0.727-1.758 0.727-0.727 1.758v0.516q-0.422 0-0.703 0.305t-0.281 0.68v4.031q0 0.375 0.281 0.68t0.703 0.305h5.016q0.375 0 0.68-0.305t0.305-0.68v-4.031q0-0.375-0.305-0.68t-0.68-0.305zM21.984 21h-3v-0.516q0-0.609 0.445-1.055t1.078-0.445 1.055 0.445 0.422 1.055v0.516zM3.984 9.047l7.5 3.188-7.5-0.984v-2.203zM11.484 17.766l-7.5 3.188v-2.203zM2.016 6v6.984l15 2.016-15 2.016v6.984l21-9z"></path>
</svg>
