<!-- Generated by IcoMoon.io -->
<svg version="1.1" xmlns="http://www.w3.org/2000/svg" width="24" height="24" viewBox="0 0 24 24">
<title>send_lock</title>
<path d="M23.016 21v-0.516q0-1.031-0.75-1.758t-1.781-0.727-1.758 0.727-0.727 1.758v0.516q-0.422 0-0.703 0.281t-0.281 0.703v4.031q0 0.422 0.281 0.703t0.703 0.281h5.016q0.422 0 0.703-0.281t0.281-0.703v-4.031q0-0.422-0.281-0.703t-0.703-0.281zM21.984 21h-3v-0.516q0-0.609 0.445-1.055t1.078-0.445 1.055 0.445 0.422 1.055v0.516zM23.016 15l-21 9v-6.984l15-2.016-15-2.016v-6.984z"></path>
</svg>
