<!-- Generated by IcoMoon.io -->
<svg version="1.1" xmlns="http://www.w3.org/2000/svg" width="24" height="24" viewBox="0 0 24 24">
<title>server_security</title>
<path d="M3 3.984h15.984q0.422 0 0.727 0.305t0.305 0.727v3.984q0 0.422-0.305 0.703t-0.727 0.281h-15.984q-0.422 0-0.703-0.281t-0.281-0.703v-3.984q0-0.422 0.281-0.727t0.703-0.305zM3 12h15.984q0.422 0 0.727 0.281t0.305 0.703v0.703l-2.531-1.125-6.469 2.859v2.578h-8.016q-0.422 0-0.703-0.281t-0.281-0.703v-4.031q0-0.422 0.281-0.703t0.703-0.281zM3 20.016h8.016q0.047 1.641 0.68 3.211t1.758 2.789h-10.453q-0.422 0-0.703-0.305t-0.281-0.727v-3.984q0-0.422 0.281-0.703t0.703-0.281zM8.016 8.016h0.984v-2.016h-0.984v2.016zM8.016 15.984h0.984v-1.969h-0.984v1.969zM8.016 24h0.984v-2.016h-0.984v2.016zM3.984 6v2.016h2.016v-2.016h-2.016zM3.984 14.016v1.969h2.016v-1.969h-2.016zM3.984 21.984v2.016h2.016v-2.016h-2.016zM17.484 15l4.5 2.016v3q0 2.063-1.266 3.797t-3.234 2.203q-1.922-0.469-3.211-2.203t-1.289-3.797v-3zM17.484 16.922l-2.484 1.125v2.672q0 1.172 0.703 2.133t1.781 1.195v-7.125z"></path>
</svg>
