<!-- Generated by IcoMoon.io -->
<svg version="1.1" xmlns="http://www.w3.org/2000/svg" width="24" height="24" viewBox="0 0 24 24">
<title>server_off</title>
<path d="M3.984 3.984h16.031q0.422 0 0.703 0.305t0.281 0.727v3.984q0 0.422-0.281 0.703t-0.703 0.281h-11.203l-2.016-1.969h0.188v-2.016h-1.969v0.188l-1.828-1.781q0.328-0.422 0.797-0.422zM21.984 25.734l-1.266 1.266-0.984-0.984h-15.75q-0.422 0-0.703-0.305t-0.281-0.727v-3.984q0-0.422 0.281-0.703t0.703-0.281h9.75l-2.016-2.016h-7.734q-0.422 0-0.703-0.281t-0.281-0.703v-4.031q0-0.422 0.281-0.703t0.703-0.281h1.734l-2.016-2.063q-0.516-0.141-0.656-0.609l-2.063-2.063 1.313-1.266zM20.016 12q0.422 0 0.703 0.281t0.281 0.703v4.031q0 0.422-0.281 0.703t-0.703 0.281h-3.188l-6-6h9.188zM20.016 20.016q0.422 0 0.703 0.281t0.281 0.703v1.172l-2.203-2.156h1.219zM9 8.016h0.984v-2.016h-0.984v2.016zM9 15.984h0.75l-0.75-0.703v0.703zM9 24h0.984v-2.016h-0.984v2.016zM5.016 14.016v1.969h1.969v-1.969h-1.969zM5.016 21.984v2.016h1.969v-2.016h-1.969z"></path>
</svg>
