<!-- Generated by IcoMoon.io -->
<svg version="1.1" xmlns="http://www.w3.org/2000/svg" width="24" height="24" viewBox="0 0 24 24">
<title>server_remove</title>
<path d="M3.984 6.984h16.031q0.422 0 0.703 0.305t0.281 0.727v3.984q0 0.422-0.281 0.703t-0.703 0.281h-16.031q-0.422 0-0.703-0.281t-0.281-0.703v-3.984q0-0.422 0.281-0.727t0.703-0.305zM9 11.016h0.984v-2.016h-0.984v2.016zM5.016 9v2.016h1.969v-2.016h-1.969zM10.594 20.016l-2.578-2.625 1.406-1.406 2.578 2.625 2.578-2.625 1.406 1.406-2.578 2.625 2.578 2.578-1.406 1.406-2.578-2.578-2.578 2.578-1.406-1.406z"></path>
</svg>
