<!-- Generated by IcoMoon.io -->
<svg version="1.1" xmlns="http://www.w3.org/2000/svg" width="24" height="24" viewBox="0 0 24 24">
<title>set_top_box</title>
<path d="M5.016 18.516q0 0.188-0.164 0.328t-0.352 0.141h-0.984q-0.234 0-0.375-0.141t-0.141-0.328v-0.516h-0.984q-0.422 0-0.727-0.281t-0.305-0.703v-3q0-0.422 0.305-0.727t0.727-0.305h19.969q0.422 0 0.727 0.305t0.305 0.727v3q0 0.422-0.305 0.703t-0.727 0.281h-0.984v0.516q0 0.188-0.141 0.328t-0.375 0.141h-0.984q-0.188 0-0.352-0.141t-0.164-0.328v-0.516h-13.969v0.516zM3 15v0.984h2.016v-0.984h-2.016zM6 15v0.984h2.016v-0.984h-2.016zM20.484 14.484q-0.422 0-0.703 0.305t-0.281 0.727 0.281 0.703 0.703 0.281 0.727-0.281 0.305-0.703-0.305-0.727-0.727-0.305z"></path>
</svg>
