<!-- Generated by IcoMoon.io -->
<svg version="1.1" xmlns="http://www.w3.org/2000/svg" width="24" height="24" viewBox="0 0 24 24">
<title>set_all</title>
<path d="M9 8.016q1.547 0 3 0.656 1.453-0.656 3-0.656 1.406 0 2.695 0.516t2.273 1.5 1.5 2.273 0.516 2.695q0 1.922-0.938 3.516t-2.531 2.531-3.516 0.938q-1.547 0-3-0.656-1.453 0.656-3 0.656-1.922 0-3.516-0.938t-2.531-2.531-0.938-3.516q0-1.406 0.516-2.695t1.5-2.273 2.273-1.5 2.695-0.516zM8.484 15q0 1.359 0.563 2.602t1.5 2.133l1.031-0.422q-0.984-0.797-1.523-1.922t-0.539-2.391 0.539-2.391 1.523-1.922l-1.031-0.422q-0.938 0.891-1.5 2.133t-0.563 2.602zM15.516 15q0-1.359-0.563-2.602t-1.5-2.133l-1.031 0.422q0.984 0.797 1.523 1.922t0.539 2.391-0.539 2.391-1.523 1.922l1.031 0.422q0.938-0.891 1.5-2.133t0.563-2.602z"></path>
</svg>
