<!-- Generated by IcoMoon.io -->
<svg version="1.1" xmlns="http://www.w3.org/2000/svg" width="24" height="24" viewBox="0 0 24 24">
<title>set_center</title>
<path d="M9 8.016q-1.406 0-2.695 0.516t-2.273 1.5-1.5 2.273-0.516 2.695q0 1.922 0.938 3.516t2.531 2.531 3.516 0.938q1.547 0 3-0.656 1.453 0.656 3 0.656 1.922 0 3.516-0.938t2.531-2.531 0.938-3.516q0-1.406-0.516-2.695t-1.5-2.273-2.273-1.5-2.695-0.516q-1.547 0-3 0.656-1.453-0.656-3-0.656zM9 9.984q0.516 0 0.984 0.094-0.938 0.984-1.453 2.273t-0.516 2.648 0.516 2.648 1.453 2.227q-0.516 0.141-0.984 0.141-1.359 0-2.508-0.68t-1.828-1.828-0.68-2.508q0-0.984 0.398-1.898t1.102-1.617 1.617-1.102 1.898-0.398zM15 9.984q0.984 0 1.898 0.398t1.617 1.102 1.102 1.617 0.398 1.898q0 1.359-0.68 2.508t-1.828 1.828-2.508 0.68q-0.516 0-0.984-0.094 0.938-0.984 1.453-2.273t0.516-2.648-0.516-2.648-1.453-2.227q0.516-0.141 0.984-0.141z"></path>
</svg>
