<!-- Generated by IcoMoon.io -->
<svg version="1.1" xmlns="http://www.w3.org/2000/svg" width="24" height="24" viewBox="0 0 24 24">
<title>set_left_right</title>
<path d="M9 8.016q1.547 0 3 0.656 1.453-0.656 3-0.656 1.406 0 2.695 0.516t2.273 1.5 1.5 2.273 0.516 2.695q0 1.922-0.938 3.516t-2.531 2.531-3.516 0.938q-1.547 0-3-0.656-1.453 0.656-3 0.656-1.922 0-3.516-0.938t-2.531-2.531-0.938-3.516q0-1.406 0.516-2.695t1.5-2.273 2.273-1.5 2.695-0.516zM9 15q0 1.641 0.82 3.023t2.18 2.18q1.359-0.797 2.18-2.18t0.82-3.023-0.82-3.023-2.18-2.18q-1.359 0.797-2.18 2.18t-0.82 3.023z"></path>
</svg>
