<!-- Generated by IcoMoon.io -->
<svg version="1.1" xmlns="http://www.w3.org/2000/svg" width="24" height="24" viewBox="0 0 24 24">
<title>settings_box</title>
<path d="M17.25 15q0 0.328-0.047 0.703l1.5 1.125q0.188 0.188 0.047 0.469l-1.406 2.391q-0.141 0.281-0.422 0.188l-1.734-0.703q-0.516 0.422-1.172 0.656l-0.281 1.875q0 0.141-0.094 0.211t-0.234 0.070h-2.813q-0.141 0-0.234-0.070t-0.094-0.211l-0.281-1.875q-0.609-0.234-1.172-0.656l-1.734 0.703q-0.281 0.094-0.422-0.188l-1.406-2.391q-0.141-0.281 0.047-0.469l1.5-1.125q-0.047-0.375-0.047-0.703t0.047-0.703l-1.5-1.125q-0.188-0.188-0.047-0.469l1.406-2.391q0.141-0.281 0.422-0.188l1.734 0.703q0.563-0.469 1.172-0.656l0.281-1.875q0-0.141 0.094-0.211t0.234-0.070h2.813q0.141 0 0.234 0.070t0.094 0.211l0.281 1.875q0.609 0.234 1.172 0.656l1.734-0.703q0.281-0.094 0.422 0.188l1.406 2.391q0.141 0.281-0.047 0.469l-1.5 1.125q0.047 0.375 0.047 0.703zM18.984 6h-13.969q-0.844 0-1.43 0.586t-0.586 1.43v13.969q0 0.844 0.586 1.43t1.43 0.586h13.969q0.844 0 1.43-0.586t0.586-1.43v-13.969q0-0.844-0.586-1.43t-1.43-0.586zM12 12.984q-0.844 0-1.43 0.586t-0.586 1.43 0.586 1.43 1.43 0.586 1.43-0.586 0.586-1.43-0.586-1.43-1.43-0.586z"></path>
</svg>
