<!-- Generated by IcoMoon.io -->
<svg version="1.1" xmlns="http://www.w3.org/2000/svg" width="24" height="24" viewBox="0 0 24 24">
<title>settings_transfer</title>
<path d="M14.016 21v-2.016l-4.031 3.516 4.031 3.516v-2.016h3v-3h-3zM21.984 18.516l-3.984-3.516v2.016h-3v3h3v1.969zM21.656 11.719l-2.016-3.469q-0.047-0.141-0.234-0.211t-0.375 0.023l-2.484 0.984q-0.75-0.609-1.688-0.984l-0.375-2.625q0-0.188-0.141-0.305t-0.328-0.117h-4.031q-0.188 0-0.328 0.117t-0.141 0.305l-0.375 2.625q-0.891 0.375-1.688 0.984l-2.438-0.984q-0.188-0.094-0.375-0.023t-0.234 0.211l-2.016 3.469q-0.094 0.188-0.070 0.352t0.164 0.305l2.063 1.641q-0.047 0.563-0.047 0.984t0.047 0.984l-2.109 1.641q-0.141 0.094-0.164 0.281t0.070 0.375l2.016 3.469q0.047 0.188 0.234 0.258t0.422-0.023l2.484-0.984q0.375 0.281 0.75 0.516l3.516-3q-1.453-0.094-2.414-1.172t-0.844-2.531 1.219-2.414 2.508-0.867q1.078 0.094 1.945 0.773t1.148 1.711h4.125l2.109-1.641q0.141-0.094 0.164-0.281t-0.070-0.375z"></path>
</svg>
