<!-- Generated by IcoMoon.io -->
<svg version="1.1" xmlns="http://www.w3.org/2000/svg" width="24" height="24" viewBox="0 0 24 24">
<title>settings_transfer_outline</title>
<path d="M15 20.016v-3h3v-2.016l3.984 3.516-3.984 3.469v-1.969h-3zM17.016 21v3h-3v2.016l-4.031-3.516 4.031-3.516v2.016h3zM12 11.016q-1.641 0-2.813 1.172t-1.172 2.813q0 1.406 0.891 2.531t2.297 1.406l4.781-4.078q-0.047-1.594-1.195-2.719t-2.789-1.125zM12 17.016q-0.844 0-1.43-0.586t-0.586-1.43 0.586-1.43 1.43-0.586 1.43 0.586 0.586 1.43-0.586 1.43-1.43 0.586zM21.656 11.719l-2.016-3.469q-0.047-0.141-0.234-0.211t-0.375 0.023l-2.484 0.984q-0.75-0.609-1.688-0.984l-0.375-2.625q0-0.188-0.141-0.305t-0.328-0.117h-4.031q-0.188 0-0.328 0.117t-0.141 0.305l-0.375 2.625q-0.891 0.375-1.688 0.984l-2.438-0.984q-0.188-0.094-0.375-0.023t-0.234 0.211l-2.016 3.469q-0.094 0.188-0.070 0.352t0.164 0.305l2.063 1.641-0.047 0.984 0.047 0.984-2.109 1.641q-0.141 0.094-0.164 0.281t0.070 0.375l2.016 3.469q0.047 0.188 0.234 0.258t0.422-0.023l2.484-0.984q0.375 0.281 0.75 0.516l1.641-1.406q-1.172-0.469-1.969-1.406l-2.438 0.984-0.75-1.313 2.063-1.594q-0.609-1.781 0-3.563l-2.109-1.547 0.75-1.313 2.391 0.984q1.219-1.406 3-1.781l0.422-2.578h1.5l0.375 2.625q1.781 0.375 3 1.781l2.391-0.984 0.75 1.266-2.063 1.547q0.141 0.375 0.188 0.797h2.016l2.109-1.641q0.141-0.094 0.188-0.281t-0.047-0.375zM12 11.016q-1.641 0-2.813 1.172t-1.172 2.813q0 1.406 0.891 2.531t2.297 1.406l4.781-4.078q-0.047-1.594-1.195-2.719t-2.789-1.125zM12 17.016q-0.844 0-1.43-0.586t-0.586-1.43 0.586-1.43 1.43-0.586 1.43 0.586 0.586 1.43-0.586 1.43-1.43 0.586zM12 11.016q-1.641 0-2.813 1.172t-1.172 2.813q0 1.406 0.891 2.531t2.297 1.406l4.781-4.078q-0.047-1.594-1.195-2.719t-2.789-1.125zM12 17.016q-0.844 0-1.43-0.586t-0.586-1.43 0.586-1.43 1.43-0.586 1.43 0.586 0.586 1.43-0.586 1.43-1.43 0.586z"></path>
</svg>
