<!-- Generated by IcoMoon.io -->
<svg version="1.1" xmlns="http://www.w3.org/2000/svg" width="24" height="24" viewBox="0 0 24 24">
<title>shape_outline</title>
<path d="M11.016 16.5v8.016h-8.016v-8.016h8.016zM9 18.516h-3.984v3.984h3.984v-3.984zM12 5.016l5.484 9h-10.969zM12 8.859l-1.922 3.141h3.844zM17.484 15.984q1.875 0 3.188 1.313t1.313 3.188-1.313 3.188-3.188 1.313-3.188-1.313-1.313-3.188 1.313-3.188 3.188-1.313zM17.484 18q-1.031 0-1.758 0.727t-0.727 1.758 0.727 1.781 1.758 0.75 1.781-0.75 0.75-1.781-0.75-1.758-1.781-0.727z"></path>
</svg>
