<!-- Generated by IcoMoon.io -->
<svg version="1.1" xmlns="http://www.w3.org/2000/svg" width="24" height="24" viewBox="0 0 24 24">
<title>shape_circle_plus</title>
<path d="M11.016 21.984q1.594 0 2.977-0.797t2.203-2.18 0.82-3.023h1.969q0 2.203-1.078 4.031t-2.906 2.906-3.984 1.078q-1.594 0-3.070-0.609t-2.602-1.734-1.734-2.602-0.609-3.070 0.609-3.047 1.734-2.578 2.602-1.734 3.070-0.609v1.969q-1.641 0-3.023 0.82t-2.18 2.203-0.797 3 0.797 3 2.18 2.18 3.023 0.797zM18.984 8.016h3v1.969h-3v3h-1.969v-3h-3v-1.969h3v-3h1.969v3z"></path>
</svg>
