<!-- Generated by IcoMoon.io -->
<svg version="1.1" xmlns="http://www.w3.org/2000/svg" width="24" height="24" viewBox="0 0 24 24">
<title>shield_lock_outline</title>
<path d="M21 14.016q0 2.719-1.172 5.25t-3.234 4.313-4.594 2.438q-2.531-0.656-4.594-2.438t-3.234-4.313-1.172-5.25v-6l9-4.031 9 4.031v6zM12 24q1.828-0.516 3.445-2.016t2.578-3.563 0.961-4.219v-4.922l-6.984-3.094-6.984 3.094v4.922q0 2.156 0.961 4.219t2.578 3.563 3.445 2.016zM14.813 14.016v-1.5q0-1.031-0.867-1.781t-1.945-0.75-1.945 0.75-0.867 1.781v1.5q-0.422 0-0.797 0.375t-0.375 0.797v3.516q0 0.516 0.352 0.914t0.82 0.398h5.531q0.516 0 0.891-0.375t0.375-0.844v-3.516q0-0.516-0.352-0.891t-0.82-0.375zM13.5 14.016h-3v-1.5q0-0.609 0.445-0.961t1.055-0.352 1.055 0.352 0.445 0.961v1.5z"></path>
</svg>
