<!-- Generated by IcoMoon.io -->
<svg version="1.1" xmlns="http://www.w3.org/2000/svg" width="24" height="24" viewBox="0 0 24 24">
<title>shield_airplane</title>
<path d="M12 3.984l-9 4.031v6q0 2.719 1.172 5.25t3.234 4.313 4.594 2.438q2.531-0.656 4.594-2.438t3.234-4.313 1.172-5.25v-6zM12 8.672q0.375 0 0.656 0.281t0.281 0.656v3.516l5.063 3.141v1.266l-5.063-1.594v3.469l1.266 0.984v0.938l-2.203-0.656-2.203 0.656v-0.938l1.266-0.984v-3.469l-5.063 1.594v-1.266l5.063-3.141v-3.516q0-0.375 0.281-0.656t0.656-0.281z"></path>
</svg>
