<!-- Generated by IcoMoon.io -->
<svg version="1.1" xmlns="http://www.w3.org/2000/svg" width="24" height="24" viewBox="0 0 24 24">
<title>shield_lock</title>
<path d="M12 3.984l-9 4.031v6q0 2.719 1.172 5.25t3.234 4.313 4.594 2.438q2.531-0.656 4.594-2.438t3.234-4.313 1.172-5.25v-6zM12 9.984q1.078 0 1.945 0.75t0.867 1.781v1.5q0.469 0 0.82 0.375t0.352 0.891v3.516q0 0.469-0.375 0.844t-0.891 0.375h-5.531q-0.469 0-0.82-0.398t-0.352-0.914v-3.516q0-0.422 0.375-0.797t0.797-0.375v-1.5q0-1.031 0.867-1.781t1.945-0.75zM12 11.203q-0.609 0-1.055 0.352t-0.445 0.961v1.5h3v-1.5q0-0.609-0.445-0.961t-1.055-0.352z"></path>
</svg>
