<!-- Generated by IcoMoon.io -->
<svg version="1.1" xmlns="http://www.w3.org/2000/svg" width="24" height="24" viewBox="0 0 24 24">
<title>shield_off_outline</title>
<path d="M0.984 7.266l2.016 2.016v4.734q0 2.719 1.172 5.25t3.234 4.313 4.594 2.438q2.766-0.703 4.969-2.766l2.25 2.25 1.266-1.266-18.188-18.234zM12 24q-1.828-0.516-3.445-2.016t-2.578-3.563-0.961-4.219v-2.953l10.594 10.594q-1.688 1.641-3.609 2.156zM21 8.016v6q0 3.375-1.781 6.375l-1.453-1.453q1.219-2.297 1.219-4.734v-4.922l-6.984-3.094-4.828 2.156-1.5-1.547 6.328-2.813z"></path>
</svg>
