<!-- Generated by IcoMoon.io -->
<svg version="1.1" xmlns="http://www.w3.org/2000/svg" width="24" height="24" viewBox="0 0 24 24">
<title>shield_key</title>
<path d="M12 11.016q0.422 0 0.703 0.281t0.281 0.703-0.281 0.703-0.703 0.281-0.703-0.281-0.281-0.703 0.281-0.703 0.703-0.281zM21 14.016q0 2.719-1.172 5.25t-3.234 4.313-4.594 2.438q-2.531-0.656-4.594-2.438t-3.234-4.313-1.172-5.25v-6l9-4.031 9 4.031v6zM12 9q-1.266 0-2.133 0.867t-0.867 2.133q0 0.984 0.563 1.758t1.453 1.055v6.188h1.969v-2.016h2.016v-1.969h-2.016v-2.203q0.891-0.281 1.453-1.055t0.563-1.758q0-1.266-0.867-2.133t-2.133-0.867z"></path>
</svg>
