<!-- Generated by IcoMoon.io -->
<svg version="1.1" xmlns="http://www.w3.org/2000/svg" width="24" height="24" viewBox="0 0 24 24">
<title>shield_refresh</title>
<path d="M18 15q1.5 0 2.859 0.656 0.141-0.797 0.141-1.641v-6l-9-4.031-9 4.031v6q0 2.719 1.172 5.25t3.234 4.313 4.594 2.438q0.563-0.141 0.984-0.328-1.5-1.828-1.5-4.172 0-1.781 0.891-3.281t2.367-2.367 3.258-0.867zM18 17.484v-1.5l-2.25 2.25 2.25 2.25v-1.5q0.656 0 1.219 0.328t0.914 0.867 0.375 1.195-0.258 1.266l1.078 1.078q0.609-0.938 0.656-2.039t-0.469-2.063-1.453-1.547-2.063-0.586zM18 24q-0.656 0-1.219-0.305t-0.914-0.867-0.375-1.219 0.258-1.219l-1.078-1.078q-0.609 0.891-0.656 1.992t0.469 2.086 1.453 1.547 2.063 0.563v1.5l2.25-2.25-2.25-2.25v1.5z"></path>
</svg>
