<!-- Generated by IcoMoon.io -->
<svg version="1.1" xmlns="http://www.w3.org/2000/svg" width="24" height="24" viewBox="0 0 24 24">
<title>shield_remove_outline</title>
<path d="M19.453 21.984l2.063 2.109-1.406 1.406-2.063-2.109-2.156 2.156-1.406-1.453 2.109-2.109-2.109-2.109 1.406-1.406 2.109 2.109 2.109-2.109 1.453 1.453zM21 14.016q0 1.313-0.281 2.625-0.891-0.422-1.922-0.609 0.188-0.938 0.188-1.828v-4.922l-6.984-3.094-6.984 3.094v4.922q0 2.156 0.961 4.219t2.578 3.563 3.445 2.016l0.328-0.094q0.234 0.891 0.891 1.734l-1.219 0.375q-2.531-0.656-4.594-2.438t-3.234-4.313-1.172-5.25v-6l9-4.031 9 4.031v6z"></path>
</svg>
