<!-- Generated by IcoMoon.io -->
<svg version="1.1" xmlns="http://www.w3.org/2000/svg" width="24" height="24" viewBox="0 0 24 24">
<title>shield_star_outline</title>
<path d="M21 14.016q0 2.719-1.172 5.25t-3.234 4.313-4.594 2.438q-2.531-0.656-4.594-2.438t-3.234-4.313-1.172-5.25v-6l9-4.031 9 4.031v6zM12 24q1.828-0.516 3.445-2.016t2.578-3.563 0.961-4.219v-4.922l-6.984-3.094-6.984 3.094v4.922q0 2.156 0.961 4.219t2.578 3.563 3.445 2.016zM15.047 18.984l-3.094-1.828-3.047 1.828 0.797-3.469-2.719-2.344 3.609-0.328 1.359-3.281 1.406 3.281 3.609 0.328-2.719 2.344z"></path>
</svg>
