<!-- Generated by IcoMoon.io -->
<svg version="1.1" xmlns="http://www.w3.org/2000/svg" width="24" height="24" viewBox="0 0 24 24">
<title>shield_remove</title>
<path d="M19.453 21.984l2.063 2.109-1.406 1.406-2.063-2.109-2.156 2.156-1.406-1.453 2.109-2.109-2.109-2.109 1.406-1.406 2.109 2.109 2.109-2.109 1.453 1.453zM12 3.984l9 4.031v6q0 1.313-0.281 2.625-1.266-0.656-2.719-0.656-1.641 0-3.023 0.82t-2.18 2.203-0.797 2.977q0 2.063 1.219 3.656l-1.219 0.375q-2.531-0.656-4.594-2.438t-3.234-4.313-1.172-5.25v-6z"></path>
</svg>
