<!-- Generated by IcoMoon.io -->
<svg version="1.1" xmlns="http://www.w3.org/2000/svg" width="24" height="24" viewBox="0 0 24 24">
<title>shield_refresh_outline</title>
<path d="M12 24q-1.828-0.516-3.445-2.016t-2.578-3.563-0.961-4.219v-4.922l6.984-3.094 6.984 3.094v5.766q1.031 0.188 1.922 0.609 0.094-0.797 0.094-1.641v-6l-9-4.031-9 4.031v6q0 2.719 1.172 5.25t3.234 4.313 4.594 2.438q0.563-0.141 0.984-0.328-0.609-0.75-0.984-1.688zM18 17.484v-1.5l-2.25 2.25 2.25 2.25v-1.5q0.656 0 1.219 0.328t0.914 0.867 0.375 1.195-0.258 1.266l1.078 1.078q0.609-0.938 0.656-2.039t-0.469-2.063-1.453-1.547-2.063-0.586zM18 24q-0.656 0-1.219-0.305t-0.914-0.867-0.375-1.219 0.258-1.219l-1.078-1.078q-0.609 0.891-0.656 1.992t0.469 2.086 1.453 1.547 2.063 0.563v1.5l2.25-2.25-2.25-2.25v1.5z"></path>
</svg>
