<!-- Generated by IcoMoon.io -->
<svg version="1.1" xmlns="http://www.w3.org/2000/svg" width="24" height="24" viewBox="0 0 24 24">
<title>shield_airplane_outline</title>
<path d="M21 14.016q0 2.719-1.172 5.25t-3.234 4.313-4.594 2.438q-2.531-0.656-4.594-2.438t-3.234-4.313-1.172-5.25v-6l9-4.031 9 4.031v6zM12 24q1.828-0.516 3.445-2.016t2.578-3.563 0.961-4.219v-4.922l-6.984-3.094-6.984 3.094v4.922q0 2.156 0.961 4.219t2.578 3.563 3.445 2.016zM12 8.672q0.375 0 0.656 0.281t0.281 0.656v3.516l5.063 3.141v1.266l-5.063-1.594v3.469l1.266 0.984v0.938l-2.203-0.656-2.203 0.656v-0.938l1.266-0.984v-3.469l-5.063 1.594v-1.266l5.063-3.141v-3.516q0-0.375 0.281-0.656t0.656-0.281z"></path>
</svg>
