<!-- Generated by IcoMoon.io -->
<svg version="1.1" xmlns="http://www.w3.org/2000/svg" width="24" height="24" viewBox="0 0 24 24">
<title>shield_link_variant_outline</title>
<path d="M21 14.016q0 2.719-1.172 5.25t-3.234 4.313-4.594 2.438q-2.531-0.656-4.594-2.438t-3.234-4.313-1.172-5.25v-6l9-4.031 9 4.031v6zM12 24q1.828-0.516 3.445-2.016t2.578-3.563 0.961-4.219v-4.922l-6.984-3.094-6.984 3.094v4.922q0 2.156 0.961 4.219t2.578 3.563 3.445 2.016zM14.297 12.75q0.891 0.891 0.891 2.156t-0.891 2.156l-2.016 2.016q-0.938 0.938-2.203 0.938t-2.18-0.914-0.914-2.18 0.938-2.203l1.219-1.219v0.563q0 0.703 0.234 1.313l0.047 0.141-0.375 0.375q-0.469 0.422-0.469 1.031t0.445 1.031 1.055 0.422 1.031-0.422l2.016-2.016q0.469-0.422 0.469-1.031t-0.469-1.031q-0.234-0.281-0.234-0.586t0.234-0.539 0.586-0.234 0.586 0.234zM18 12.094q0 1.266-0.891 2.156l-1.266 1.266v-0.563q0-0.703-0.188-1.313l-0.047-0.141 0.328-0.375q0.469-0.422 0.469-1.031t-0.422-1.055-1.055-0.445-1.055 0.422l-2.016 2.016q-0.422 0.422-0.422 1.055t0.422 1.055q0.234 0.234 0.234 0.563t-0.234 0.563-0.563 0.234-0.563-0.234q-0.938-0.891-0.938-2.18t0.938-2.18l2.016-2.016q0.891-0.891 2.18-0.891t2.18 0.914 0.891 2.18z"></path>
</svg>
