<!-- Generated by IcoMoon.io -->
<svg version="1.1" xmlns="http://www.w3.org/2000/svg" width="24" height="24" viewBox="0 0 24 24">
<title>shield_car</title>
<path d="M14.438 10.5l1.547 3.516h-7.969l1.406-3.516h5.016zM9 15q-0.422 0-0.703 0.305t-0.281 0.703 0.281 0.703 0.703 0.305 0.703-0.305 0.281-0.703-0.281-0.703-0.703-0.305zM15 15q-0.422 0-0.703 0.305t-0.281 0.703 0.281 0.703 0.703 0.305 0.703-0.305 0.281-0.703-0.281-0.703-0.703-0.305zM21 8.016v6q0 2.719-1.172 5.25t-3.234 4.313-4.594 2.438q-2.531-0.656-4.594-2.438t-3.234-4.313-1.172-5.25v-6l9-4.031zM18 15l-2.156-5.016q-0.141-0.422-0.539-0.703t-0.867-0.281h-5.016q-0.469 0-0.867 0.281t-0.539 0.703l-2.016 5.016v3.984q0 0.422 0.305 0.727t0.68 0.305h1.031q0.375 0 0.68-0.305t0.305-0.727v-0.984h6v0.984q0 0.422 0.305 0.727t0.68 0.305h1.031q0.375 0 0.68-0.305t0.305-0.727v-3.984z"></path>
</svg>
