<!-- Generated by IcoMoon.io -->
<svg version="1.1" xmlns="http://www.w3.org/2000/svg" width="24" height="24" viewBox="0 0 24 24">
<title>shield_alert_outline</title>
<path d="M21 14.016q0 2.719-1.172 5.25t-3.234 4.313-4.594 2.438q-2.531-0.656-4.594-2.438t-3.234-4.313-1.172-5.25v-6l9-4.031 9 4.031v6zM12 24q1.828-0.516 3.445-2.016t2.578-3.563 0.961-4.219v-4.922l-6.984-3.094-6.984 3.094v4.922q0 2.156 0.961 4.219t2.578 3.563 3.445 2.016zM11.016 9.984h1.969v6h-1.969v-6zM11.016 18h1.969v2.016h-1.969v-2.016z"></path>
</svg>
