<!-- Generated by IcoMoon.io -->
<svg version="1.1" xmlns="http://www.w3.org/2000/svg" width="24" height="24" viewBox="0 0 24 24">
<title>shield_edit_outline</title>
<path d="M21.703 16.594l-1.313-1.313q-0.188-0.188-0.398-0.188t-0.398 0.188l-0.984 1.031 1.969 1.969 1.031-0.984q0.188-0.141 0.211-0.352t-0.117-0.352zM12 22.922v2.063h2.109l6.094-6.094-2.016-2.109zM9.984 25.313q-3.094-1.547-5.039-4.641t-1.945-6.656v-6l9-4.031 9 4.031v3.094l-2.016 1.969v-3.797l-6.984-3.094-6.984 3.094v4.922q0 2.578 1.406 5.039t3.563 3.867v2.203z"></path>
</svg>
