<!-- Generated by IcoMoon.io -->
<svg version="1.1" xmlns="http://www.w3.org/2000/svg" width="24" height="24" viewBox="0 0 24 24">
<title>shield_account</title>
<path d="M12 3.984l-9 4.031v6q0 2.719 1.172 5.25t3.234 4.313 4.594 2.438q2.531-0.656 4.594-2.438t3.234-4.313 1.172-5.25v-6zM12 8.016q1.266 0 2.133 0.867t0.867 2.109-0.867 2.133-2.133 0.891-2.133-0.891-0.867-2.133 0.867-2.109 2.133-0.867zM17.109 20.016q-0.891 1.359-2.203 2.367t-2.906 1.523q-1.594-0.516-2.906-1.523t-2.203-2.367q-0.563-0.797-0.891-1.547 0-0.797 0.82-1.5t2.18-1.102 3-0.398q2.484 0 4.242 0.867t1.758 2.133q-0.328 0.75-0.891 1.547z"></path>
</svg>
