<!-- Generated by IcoMoon.io -->
<svg version="1.1" xmlns="http://www.w3.org/2000/svg" width="24" height="24" viewBox="0 0 24 24">
<title>shield_link_variant</title>
<path d="M12 3.984l-9 4.031v6q0 2.719 1.172 5.25t3.234 4.313 4.594 2.438q2.531-0.656 4.594-2.438t3.234-4.313 1.172-5.25v-6zM14.297 17.063l-2.016 2.016q-0.938 0.938-2.203 0.938t-2.18-0.914-0.914-2.18 0.938-2.203l1.219-1.219v0.563q0 0.703 0.234 1.313l0.047 0.141-0.375 0.375q-0.469 0.422-0.469 1.031t0.445 1.031 1.055 0.422 1.031-0.422l2.016-2.016q0.469-0.422 0.469-1.031t-0.422-1.031q-0.281-0.281-0.281-0.586t0.234-0.539 0.586-0.234 0.586 0.234q0.891 0.891 0.891 2.156t-0.891 2.156zM17.109 14.25l-1.266 1.266v-0.563q0-0.703-0.188-1.313l-0.047-0.141 0.328-0.375q0.469-0.422 0.469-1.031t-0.422-1.055-1.055-0.445-1.055 0.469l-2.016 1.969q-0.422 0.469-0.422 1.078t0.422 1.031q0.234 0.234 0.234 0.563t-0.234 0.563-0.563 0.234-0.563-0.234q-0.938-0.891-0.938-2.18t0.938-2.18l2.016-2.016q0.891-0.891 2.18-0.891t2.18 0.914 0.891 2.18-0.891 2.156z"></path>
</svg>
