<!-- Generated by IcoMoon.io -->
<svg version="1.1" xmlns="http://www.w3.org/2000/svg" width="24" height="24" viewBox="0 0 24 24">
<title>shield_account_outline</title>
<path d="M12 3.984l-9 4.031v6q0 2.719 1.172 5.25t3.234 4.313 4.594 2.438q2.531-0.656 4.594-2.438t3.234-4.313 1.172-5.25v-6zM12 6.188l6.984 3.094v4.922q0 2.531-1.313 4.969-1.125-0.844-3-1.313-1.5-0.375-2.672-0.375t-2.672 0.375q-1.875 0.469-3 1.313-1.313-2.438-1.313-4.969v-4.922zM12 9q-1.453 0-2.484 1.031t-1.031 2.484 1.031 2.461 2.484 1.008 2.484-1.008 1.031-2.461-1.031-2.484-2.484-1.031zM12 11.016q0.609 0 1.055 0.422t0.445 1.055-0.445 1.078-1.055 0.445-1.055-0.445-0.445-1.078 0.445-1.055 1.055-0.422zM12 19.5q1.172 0 2.508 0.398t2.039 0.961q-2.016 2.484-4.547 3.141-2.531-0.656-4.547-3.141 0.703-0.563 2.039-0.961t2.508-0.398z"></path>
</svg>
