<!-- Generated by IcoMoon.io -->
<svg version="1.1" xmlns="http://www.w3.org/2000/svg" width="24" height="24" viewBox="0 0 24 24">
<title>shield_search</title>
<path d="M12 12q1.266 0 2.133 0.867t0.867 2.133-0.867 2.133-2.133 0.867-2.133-0.867-0.867-2.133 0.867-2.133 2.133-0.867zM17.859 22.313q-2.438 2.859-5.859 3.703-3.844-0.938-6.422-4.383t-2.578-7.617v-6l9-4.031 9 4.031v6q0 3.563-1.922 6.656l-2.906-2.906q0.844-1.266 0.844-2.766 0-0.984-0.398-1.898t-1.102-1.617-1.617-1.102-1.898-0.398-1.898 0.398-1.617 1.102-1.102 1.617-0.398 1.898q0 1.359 0.68 2.508t1.828 1.828 2.508 0.68q1.5 0 2.766-0.844z"></path>
</svg>
