<!-- Generated by IcoMoon.io -->
<svg version="1.1" xmlns="http://www.w3.org/2000/svg" width="24" height="24" viewBox="0 0 24 24">
<title>shovel</title>
<path d="M15.094 4.828l-2.813 2.813q-0.609 0.563-0.609 1.406t0.609 1.406l1.406 1.406-4.547 4.594-2.813-2.859-1.453 1.406q-2.203 2.203-2.531 4.406-0.281 1.594 0.422 3 0.328 0.703 0.75 1.078l0.375 0.328q0.563 0.375 1.172 0.609 0.844 0.328 1.781 0.281 1.172-0.047 2.344-0.563 1.406-0.656 2.813-2.063l1.406-1.406-2.813-2.813 4.547-4.5 1.406 1.359q0.563 0.609 1.406 0.609t1.406-0.609l2.859-2.813zM17.953 13.266l-1.406-1.359-2.859-2.859 1.453-1.406 4.219 4.219z"></path>
</svg>
