<!-- Generated by IcoMoon.io -->
<svg version="1.1" xmlns="http://www.w3.org/2000/svg" width="24" height="24" viewBox="0 0 24 24">
<title>shovel_off</title>
<path d="M15.094 4.828l-2.813 2.813q-0.609 0.609-0.609 1.43t0.609 1.383l1.406 1.453-0.703 0.703 1.453 1.453 0.75-0.75 1.359 1.406q0.609 0.609 1.43 0.609t1.43-0.609l2.813-2.859zM17.953 13.266l-4.266-4.219 1.406-1.406 4.266 4.219zM20.719 23.25l-1.406 1.406-7.828-7.781-0.984 0.984 2.813 2.813-1.313 1.406q-2.203 2.203-4.406 2.578-1.594 0.234-3-0.422-0.703-0.328-1.078-0.75l-0.328-0.375q-0.375-0.563-0.609-1.172-0.328-0.844-0.328-1.781 0.047-1.172 0.609-2.344 0.656-1.406 2.016-2.813l1.453-1.406 2.813 2.859 0.984-1.031-7.781-7.734 1.406-1.406z"></path>
</svg>
