<!-- Generated by IcoMoon.io -->
<svg version="1.1" xmlns="http://www.w3.org/2000/svg" width="24" height="24" viewBox="0 0 24 24">
<title>shower_head</title>
<path d="M20.016 23.016q0.422 0 0.703 0.281t0.281 0.703-0.281 0.703-0.703 0.281-0.727-0.281-0.305-0.703 0.305-0.703 0.727-0.281zM15.984 23.016q0.422 0 0.727 0.281t0.305 0.703-0.305 0.703-0.727 0.281-0.703-0.281-0.281-0.703 0.281-0.703 0.703-0.281zM12 23.016q0.422 0 0.703 0.281t0.281 0.703-0.281 0.703-0.703 0.281-0.703-0.281-0.281-0.703 0.281-0.703 0.703-0.281zM8.016 23.016q0.422 0 0.703 0.281t0.281 0.703-0.281 0.703-0.703 0.281-0.727-0.281-0.305-0.703 0.305-0.703 0.727-0.281zM3.984 23.016q0.422 0 0.727 0.281t0.305 0.703-0.305 0.703-0.727 0.281-0.703-0.281-0.281-0.703 0.281-0.703 0.703-0.281zM6 20.016q0.422 0 0.703 0.281t0.281 0.703-0.281 0.703-0.703 0.281v0q-0.422 0-0.703-0.281t-0.281-0.703 0.281-0.703 0.703-0.281v0zM9.984 20.016q0.422 0 0.727 0.281t0.305 0.703-0.305 0.703-0.727 0.281-0.703-0.281-0.281-0.703 0.281-0.703 0.703-0.281zM14.016 20.016q0.422 0 0.703 0.281t0.281 0.703-0.281 0.703-0.703 0.281-0.727-0.281-0.305-0.703 0.305-0.703 0.727-0.281zM18 20.016q0.422 0 0.703 0.281t0.281 0.703-0.281 0.703-0.703 0.281-0.703-0.281-0.281-0.703 0.281-0.703 0.703-0.281zM8.016 17.016q0.422 0 0.703 0.281t0.281 0.703-0.281 0.703-0.703 0.281-0.727-0.281-0.305-0.703 0.305-0.703 0.727-0.281zM12 17.016q0.422 0 0.703 0.281t0.281 0.703-0.281 0.703-0.703 0.281-0.703-0.281-0.281-0.703 0.281-0.703 0.703-0.281zM15.984 17.016q0.422 0 0.727 0.281t0.305 0.703-0.305 0.703-0.727 0.281-0.703-0.281-0.281-0.703 0.281-0.703 0.703-0.281zM18.984 15h-13.969v-2.016h13.969v2.016zM17.906 12h-11.813q0.281-1.875 1.664-3.234t3.258-1.688v-2.063h1.969v2.063q1.875 0.328 3.258 1.688t1.664 3.234z"></path>
</svg>
