<!-- Generated by IcoMoon.io -->
<svg version="1.1" xmlns="http://www.w3.org/2000/svg" width="24" height="24" viewBox="0 0 24 24">
<title>signal_distance_variant</title>
<path d="M3.984 9v-2.016q3.281 0 6.023 1.617t4.359 4.383 1.617 6h-1.969q0-1.969-0.773-3.82t-2.18-3.258-3.234-2.156-3.844-0.75zM3.984 12.984v-1.969q1.594 0 3.070 0.609t2.602 1.734 1.734 2.578 0.609 3.047h-2.016q0-1.594-0.797-2.977t-2.18-2.203-3.023-0.82zM3.984 15q1.688 0 2.859 1.172t1.172 2.813h-4.031v-3.984zM3 21h15.984v-2.016l3 3-3 3v-1.969h-15.984v-2.016z"></path>
</svg>
