<!-- Generated by IcoMoon.io -->
<svg version="1.1" xmlns="http://www.w3.org/2000/svg" width="24" height="24" viewBox="0 0 24 24">
<title>sign_text</title>
<path d="M11.016 6l0.984-0.984 0.984 0.984v2.016h7.031q0.422 0 0.703 0.281t0.281 0.703v9.984q0 0.422-0.281 0.727t-0.703 0.305h-7.031v3q0.844 0 1.43 0.586t0.586 1.383h-6q0-0.797 0.586-1.383t1.43-0.586v-3h-7.031q-0.422 0-0.703-0.305t-0.281-0.727v-9.984q0-0.422 0.281-0.703t0.703-0.281h7.031v-2.016zM6 11.016v1.969h12v-1.969h-12zM6 15v2.016h6.984v-2.016h-6.984z"></path>
</svg>
