<!-- Generated by IcoMoon.io -->
<svg version="1.1" xmlns="http://www.w3.org/2000/svg" width="24" height="24" viewBox="0 0 24 24">
<title>sign_direction_remove</title>
<path d="M12.984 23.016h0.094q0.188 1.078 0.75 1.969h-4.828q0-0.797 0.586-1.383t1.43-0.586v-8.016h-7.5l2.484-2.484-2.484-2.531h7.5v-3.984l0.984-0.984 0.984 0.984v3.984h5.016l2.484 2.531-2.484 2.484h-5.016v8.016zM21.141 18.469l-2.156 2.109-2.109-2.109-1.406 1.406 2.109 2.109-2.109 2.156 1.406 1.406 2.109-2.156 2.156 2.156 1.406-1.406-2.156-2.156 2.156-2.109z"></path>
</svg>
