<!-- Generated by IcoMoon.io -->
<svg version="1.1" xmlns="http://www.w3.org/2000/svg" width="24" height="24" viewBox="0 0 24 24">
<title>skate</title>
<path d="M21.094 19.5q-0.563-0.234-1.125-0.023t-0.773 0.773-0.68 0.75h-15.516v3h14.953q1.313 0 2.367-0.703t1.57-1.875q0.234-0.563 0-1.125t-0.797-0.797zM18.984 18q0 0.141-0.047 0.281-0.141 0.281-0.516 0.469-0.516 0.234-1.406 0.234h-13.031v-12.984h7.031l0.188 1.5h-1.969v1.5h2.203l0.188 1.5h-2.391v1.5h2.625l0.141 0.984h2.016l0.75 0.094q0.938 0.141 1.734 0.563 1.078 0.516 1.734 1.453 0.75 1.172 0.75 2.906z"></path>
</svg>
