<!-- Generated by IcoMoon.io -->
<svg version="1.1" xmlns="http://www.w3.org/2000/svg" width="24" height="24" viewBox="0 0 24 24">
<title>smoking_off</title>
<path d="M2.016 9l6.984 6.984h-6.984v3h9.984l6.984 7.031 1.266-1.266-17.016-17.016zM20.484 15.984h1.5v3h-1.5v-3zM18 15.984h1.5v3h-1.5v-3zM18.844 7.875q0.984-0.984 0.984-2.391h-1.5q0 0.75-0.539 1.313t-1.289 0.563v1.5q1.688 0 2.836 1.195t1.148 2.883v2.063h1.5v-2.063q0-1.688-0.867-3.023t-2.273-2.039zM14.484 11.719h1.547q0.844 0 1.406 0.539t0.563 1.477v1.266h1.5v-1.594q0-1.313-1.031-2.227t-2.438-0.914h-1.547q-0.703 0-1.266-0.609t-0.563-1.383 0.539-1.266 1.289-0.492v-1.5q-1.359 0-2.344 0.984t-0.984 2.367 0.984 2.367 2.344 0.984zM17.016 18.938v-2.953h-2.953z"></path>
</svg>
