<!-- Generated by IcoMoon.io -->
<svg version="1.1" xmlns="http://www.w3.org/2000/svg" width="24" height="24" viewBox="0 0 24 24">
<title>smoke_detector</title>
<path d="M12 21q1.641 0 3.023-0.797t2.18-2.18 0.797-3.023-0.797-3.023-2.18-2.18-3.023-0.797-3.023 0.797-2.18 2.18-0.797 3.023 0.797 3.023 2.18 2.18 3.023 0.797zM18.984 6q0.844 0 1.43 0.586t0.586 1.43v13.969q0 0.844-0.586 1.43t-1.43 0.586h-13.969q-0.844 0-1.43-0.586t-0.586-1.43v-13.969q0-0.844 0.586-1.43t1.43-0.586h13.969zM8.016 15q0-1.641 1.172-2.813t2.813-1.172 2.813 1.172 1.172 2.813-1.172 2.813-2.813 1.172-2.813-1.172-1.172-2.813z"></path>
</svg>
