<!-- Generated by IcoMoon.io -->
<svg version="1.1" xmlns="http://www.w3.org/2000/svg" width="24" height="24" viewBox="0 0 24 24">
<title>smoking</title>
<path d="M2.016 18.984h15v3h-15v-3zM20.484 18.984h1.5v3h-1.5v-3zM18 18.984h1.5v3h-1.5v-3zM18.844 10.734q0.984-0.984 0.984-2.367t-0.961-2.367-2.367-0.984v1.5q0.75 0 1.289 0.539t0.539 1.289-0.539 1.313-1.289 0.563v1.5q1.688 0 2.836 1.172t1.148 2.859v2.25h1.5v-2.25q0-1.641-0.867-3t-2.273-2.016zM16.031 13.219h-1.547q-0.703 0-1.266-0.633t-0.563-1.383 0.539-1.242 1.289-0.492v-1.5q-1.359 0-2.344 0.961t-0.984 2.367 0.984 2.391 2.344 0.984h1.547q0.844 0 1.406 0.539t0.563 1.477v1.313h1.5v-1.641q0-1.359-1.031-2.25t-2.438-0.891z"></path>
</svg>
