<!-- Generated by IcoMoon.io -->
<svg version="1.1" xmlns="http://www.w3.org/2000/svg" width="24" height="24" viewBox="0 0 24 24">
<title>soccer_field</title>
<path d="M3.984 6.984q-0.797 0-1.383 0.586t-0.586 1.43v12q0 0.844 0.586 1.43t1.383 0.586h16.031q0.797 0 1.383-0.586t0.586-1.43v-12q0-0.844-0.586-1.43t-1.383-0.586h-16.031zM3.984 9h7.031v2.109q-1.359 0.375-2.18 1.453t-0.82 2.438 0.82 2.438 2.18 1.453v2.109h-7.031v-2.016h3v-7.969h-3v-2.016zM12.984 9h7.031v2.016h-3v7.969h3v2.016h-7.031v-2.109q1.359-0.375 2.18-1.453t0.82-2.438-0.82-2.438-2.18-1.453v-2.109zM3.984 12.984h1.031v4.031h-1.031v-4.031zM18.984 12.984h1.031v4.031h-1.031v-4.031zM12.984 13.266q0.469 0.281 0.75 0.75t0.281 0.984-0.281 0.984-0.75 0.75v-3.469zM11.016 13.266v3.469q-0.469-0.281-0.75-0.75t-0.281-0.984 0.281-0.984 0.75-0.75z"></path>
</svg>
