<!-- Generated by IcoMoon.io -->
<svg version="1.1" xmlns="http://www.w3.org/2000/svg" width="24" height="24" viewBox="0 0 24 24">
<title>soccer</title>
<path d="M12 5.016q-1.969 0-3.82 0.75t-3.258 2.156-2.156 3.258-0.75 3.82 0.75 3.82 2.156 3.258 3.258 2.156 3.82 0.75 3.82-0.75 3.258-2.156 2.156-3.258 0.75-3.82-0.75-3.82-2.156-3.258-3.258-2.156-3.82-0.75zM12 6q2.578 0 4.781 1.406l-0.281 0.609h-4.5l-1.734-0.844 0.375-1.031q0.703-0.141 1.359-0.141zM9.516 6.375l-0.328 1.031-2.578 1.266-1.219 0.281q1.734-1.875 4.125-2.578zM12.984 9h3l2.719 3.609-1.266 2.531-2.625 0.656-3.281-3.844zM6.141 9.656l0.844 3.328-1.219 3.094-2.531 0.844q-0.234-0.984-0.234-1.922 0-2.766 1.594-5.109zM20.578 12.234q0.422 1.313 0.422 2.766 0 2.063-0.984 3.984h-1.031l-0.844-3.328 1.5-3zM8.016 12.984h3l2.813 3.281-1.828 2.719-3.141 0.797-2.344-3.094zM12 20.016l3 1.969-0.891 1.734q-1.172 0.281-2.109 0.281-2.578 0-4.734-1.359l1.125-1.734zM18.984 20.016h0.516q-1.5 2.25-4.172 3.328l0.656-1.359z"></path>
</svg>
