<!-- Generated by IcoMoon.io -->
<svg version="1.1" xmlns="http://www.w3.org/2000/svg" width="24" height="24" viewBox="0 0 24 24">
<title>sort_numeric</title>
<path d="M7.781 9.984q1.922 0.094 2.789 1.5t0.82 3.469q0 2.297-0.914 3.656t-2.789 1.406q-1.875-0.094-2.742-1.477t-0.867-3.563 0.891-3.539 2.813-1.453zM7.734 11.625q-0.656 0-1.031 0.82t-0.375 2.531 0.375 2.555 1.078 0.844q1.359 0 1.383-3.352t-1.43-3.398zM13.313 20.016v-1.781h0.984l1.031-0.188q0.609-0.188 0.938-0.469 0.516-0.328 0.82-0.797t0.445-0.984l-0.047-0.047q-0.656 0.656-1.969 0.656t-2.156-0.727-0.867-2.18 0.984-2.461 2.648-1.055q1.875 0.094 2.766 1.242t0.891 2.977q-0.047 1.453-0.469 2.578t-1.172 1.875q-0.703 0.609-1.664 0.938t-2.133 0.422h-1.031zM16.078 11.625q-0.609 0-1.008 0.469t-0.398 1.266q0 0.656 0.352 1.102t1.102 0.492q0.469 0 0.797-0.211t0.469-0.445q0.141-0.141 0.141-0.609 0-0.797-0.328-1.406t-1.125-0.656zM9.234 8.016l3.281-3.281 3.234 3.281h-6.516zM15.75 21.984l-3.234 3.281-3.281-3.281h6.516z"></path>
</svg>
