<!-- Generated by IcoMoon.io -->
<svg version="1.1" xmlns="http://www.w3.org/2000/svg" width="24" height="24" viewBox="0 0 24 24">
<title>source_branch</title>
<path d="M12.984 17.016q-2.203 0-3.516 0.75-0.938 0.563-1.266 1.453 0.797 0.375 1.289 1.125t0.492 1.641q0 1.266-0.867 2.133t-2.109 0.867-2.133-0.867-0.891-2.133q0-0.938 0.563-1.711t1.453-1.102v-8.344q-0.891-0.328-1.453-1.102t-0.563-1.711q0-1.266 0.891-2.133t2.133-0.867 2.109 0.867 0.867 2.133q0 0.938-0.539 1.711t-1.43 1.102v5.297q1.5-1.125 3.984-1.125 1.781 0 2.813-0.797 0.75-0.563 1.031-1.453-0.797-0.328-1.313-1.078t-0.516-1.688q0-1.219 0.867-2.109t2.109-0.891 2.133 0.891 0.891 2.109q0 1.031-0.586 1.828t-1.523 1.031q-0.281 1.594-1.172 2.625-1.313 1.547-3.75 1.547zM6.984 21q-0.422 0-0.703 0.281t-0.281 0.703 0.281 0.727 0.703 0.305 0.727-0.305 0.305-0.727-0.305-0.703-0.727-0.281zM6.984 6.984q-0.422 0-0.703 0.305t-0.281 0.727 0.281 0.703 0.703 0.281 0.727-0.281 0.305-0.703-0.305-0.727-0.727-0.305zM17.016 9q-0.422 0-0.727 0.281t-0.305 0.703 0.305 0.727 0.727 0.305 0.703-0.305 0.281-0.727-0.281-0.703-0.703-0.281z"></path>
</svg>
