<!-- Generated by IcoMoon.io -->
<svg version="1.1" xmlns="http://www.w3.org/2000/svg" width="24" height="24" viewBox="0 0 24 24">
<title>source_pull</title>
<path d="M6 6q1.266 0 2.133 0.867t0.867 2.133q0 0.984-0.563 1.758t-1.453 1.055v6.375q0.891 0.281 1.453 1.055t0.563 1.758q0 1.266-0.867 2.133t-2.133 0.867-2.133-0.867-0.867-2.133q0-0.984 0.563-1.758t1.453-1.055v-6.375q-0.891-0.281-1.453-1.055t-0.563-1.758q0-1.266 0.867-2.133t2.133-0.867zM6 8.016q-0.422 0-0.703 0.281t-0.281 0.703 0.281 0.703 0.703 0.281 0.703-0.281 0.281-0.703-0.281-0.703-0.703-0.281zM6 20.016q-0.422 0-0.703 0.281t-0.281 0.703 0.281 0.703 0.703 0.281 0.703-0.281 0.281-0.703-0.281-0.703-0.703-0.281zM21 21q0 1.266-0.867 2.133t-2.133 0.867-2.133-0.867-0.867-2.133q0-0.984 0.563-1.758t1.453-1.055v-8.203h-2.016v3.281l-4.266-4.266 4.266-4.266v3.281h2.016q0.797 0 1.383 0.586t0.586 1.383v8.203q0.891 0.281 1.453 1.055t0.563 1.758zM18 20.016q-0.422 0-0.703 0.281t-0.281 0.703 0.281 0.703 0.703 0.281 0.703-0.281 0.281-0.703-0.281-0.703-0.703-0.281z"></path>
</svg>
