<!-- Generated by IcoMoon.io -->
<svg version="1.1" xmlns="http://www.w3.org/2000/svg" width="24" height="24" viewBox="0 0 24 24">
<title>source_repository_multiple</title>
<path d="M8.016 3h12q0.797 0 1.383 0.586t0.586 1.43v15.984q0 0.844-0.586 1.43t-1.383 0.586h-12q-0.844 0-1.43-0.586t-0.586-1.43v-15.984q0-0.844 0.586-1.43t1.43-0.586zM14.766 14.484q1.781 0 2.766-1.125 0.703-0.797 0.891-1.969 0.703-0.234 1.148-0.82t0.445-1.336q0-0.938-0.656-1.594t-1.594-0.656-1.594 0.656-0.656 1.594q0 0.703 0.375 1.266t0.984 0.844q-0.188 0.656-0.75 1.078-0.797 0.563-2.109 0.563-1.875 0-3 0.844v-3.938q0.656-0.234 1.078-0.82t0.422-1.336q0-0.938-0.656-1.594t-1.594-0.656-1.594 0.656-0.656 1.594q0 0.75 0.422 1.336t1.078 0.82v6.234q-0.656 0.234-1.078 0.82t-0.422 1.289q0 0.938 0.656 1.594t1.594 0.656 1.594-0.656 0.656-1.594q0-0.656-0.398-1.242t-1.008-0.82q0.281-0.656 0.984-1.078 0.984-0.609 2.672-0.609zM10.266 17.484q0.281 0 0.516 0.234t0.234 0.539-0.234 0.516-0.539 0.211-0.516-0.211-0.211-0.516 0.211-0.539 0.539-0.234zM10.266 6.984q0.281 0 0.516 0.234t0.234 0.539-0.234 0.516-0.539 0.211-0.516-0.211-0.211-0.516 0.211-0.539 0.539-0.234zM17.766 8.484q0.281 0 0.516 0.234t0.234 0.539-0.234 0.516-0.539 0.211-0.516-0.211-0.211-0.516 0.211-0.539 0.539-0.234zM15.984 24.984v2.016h-12q-0.797 0-1.383-0.586t-0.586-1.43v-15.984h1.969v15.984h12z"></path>
</svg>
