<!-- Generated by IcoMoon.io -->
<svg version="1.1" xmlns="http://www.w3.org/2000/svg" width="24" height="24" viewBox="0 0 24 24">
<title>source_repository</title>
<path d="M6 5.016h12q0.844 0 1.43 0.586t0.586 1.383v16.031q0 0.797-0.586 1.383t-1.43 0.586h-12q-0.844 0-1.43-0.586t-0.586-1.383v-16.031q0-0.797 0.586-1.383t1.43-0.586zM12.75 16.5q1.828 0 2.813-1.172 0.656-0.75 0.891-1.922 0.656-0.234 1.102-0.82t0.445-1.336q0-0.938-0.656-1.594t-1.594-0.656-1.594 0.656-0.656 1.594q0 0.703 0.375 1.266t1.031 0.797q-0.234 0.703-0.797 1.125-0.797 0.563-2.109 0.563-1.875 0-3 0.844v-3.984q0.656-0.234 1.078-0.82t0.422-1.289q0-0.938-0.656-1.594t-1.594-0.656-1.594 0.656-0.656 1.594q0 0.703 0.422 1.289t1.078 0.82v6.281q-0.656 0.234-1.078 0.82t-0.422 1.289q0 0.938 0.656 1.594t1.594 0.656 1.594-0.656 0.656-1.594q0-0.703-0.375-1.266t-0.984-0.797q0.281-0.703 0.938-1.125 0.984-0.563 2.672-0.563zM8.25 19.5q0.328 0 0.539 0.211t0.211 0.539-0.211 0.539-0.539 0.211-0.539-0.211-0.211-0.539 0.211-0.539 0.539-0.211zM8.25 9q0.328 0 0.539 0.211t0.211 0.539-0.211 0.539-0.539 0.211-0.539-0.211-0.211-0.539 0.211-0.539 0.539-0.211zM15.75 10.5q0.328 0 0.539 0.211t0.211 0.539-0.211 0.539-0.539 0.211-0.539-0.211-0.211-0.539 0.211-0.539 0.539-0.211z"></path>
</svg>
