<!-- Generated by IcoMoon.io -->
<svg version="1.1" xmlns="http://www.w3.org/2000/svg" width="24" height="24" viewBox="0 0 24 24">
<title>source_commit_local</title>
<path d="M12 9.984q0.984 0 1.898 0.398t1.617 1.102 1.102 1.617 0.398 1.898q0 1.359-0.68 2.508t-1.828 1.828-2.508 0.68-2.508-0.68-1.828-1.828-0.68-2.508q0-0.984 0.398-1.898t1.102-1.617 1.617-1.102 1.898-0.398zM12 12q-1.266 0-2.133 0.867t-0.867 2.133 0.867 2.133 2.133 0.867 2.133-0.867 0.867-2.133-0.867-2.133-2.133-0.867zM11.016 8.016v-2.016h1.969v2.016h-1.969zM11.016 24v-2.016h1.969v2.016h-1.969z"></path>
</svg>
