<!-- Generated by IcoMoon.io -->
<svg version="1.1" xmlns="http://www.w3.org/2000/svg" width="24" height="24" viewBox="0 0 24 24">
<title>source_merge</title>
<path d="M6.984 6q1.266 0 2.133 0.867t0.867 2.133q0 0.938-0.539 1.711t-1.383 1.102q0.328 3.281 2.953 4.875 1.734 1.031 4.172 1.266 0.328-0.844 1.102-1.406t1.711-0.563q1.266 0 2.133 0.891t0.867 2.133-0.867 2.109-2.133 0.867q-0.984 0-1.758-0.563t-1.102-1.406q-1.969-0.094-3.422-0.656-1.219-0.422-2.156-1.266-0.656-0.563-1.547-1.688v1.781q0.891 0.281 1.43 1.055t0.539 1.758q0 1.266-0.867 2.133t-2.109 0.867-2.133-0.867-0.891-2.133q0-0.984 0.563-1.758t1.453-1.055v-6.375q-0.891-0.281-1.453-1.055t-0.563-1.758q0-1.266 0.891-2.133t2.109-0.867zM6.984 8.016q-0.422 0-0.703 0.281t-0.281 0.703 0.281 0.703 0.703 0.281 0.727-0.281 0.305-0.703-0.305-0.703-0.727-0.281zM6.984 20.016q-0.422 0-0.703 0.281t-0.281 0.703 0.281 0.703 0.703 0.281 0.727-0.281 0.305-0.703-0.305-0.703-0.727-0.281zM18 18q-0.422 0-0.703 0.281t-0.281 0.703 0.281 0.727 0.703 0.305 0.703-0.305 0.281-0.727-0.281-0.703-0.703-0.281z"></path>
</svg>
