<!-- Generated by IcoMoon.io -->
<svg version="1.1" xmlns="http://www.w3.org/2000/svg" width="24" height="24" viewBox="0 0 24 24">
<title>source_fork</title>
<path d="M6 5.016q1.266 0 2.133 0.867t0.867 2.133q0 0.938-0.539 1.711t-1.383 1.102q0.141 0.75 0.938 1.781 0.469 0.609 1.875 2.156 1.594 1.688 2.109 2.391 0.516-0.703 2.109-2.391 1.406-1.547 1.875-2.156 0.797-1.031 0.938-1.781-0.844-0.328-1.383-1.102t-0.539-1.711q0-1.266 0.867-2.133t2.133-0.867 2.133 0.867 0.867 2.133q0 0.984-0.563 1.758t-1.5 1.055q-0.141 0.938-0.938 2.016-0.516 0.703-2.109 2.391-1.406 1.5-1.875 2.156-0.797 0.984-0.938 1.781 0.844 0.328 1.383 1.102t0.539 1.711q0 1.266-0.867 2.133t-2.133 0.867-2.133-0.867-0.867-2.133q0-0.938 0.539-1.711t1.383-1.102q-0.141-0.797-0.938-1.781-0.469-0.656-1.875-2.156-1.594-1.688-2.109-2.391-0.797-1.078-0.938-2.016-0.938-0.281-1.5-1.055t-0.563-1.758q0-1.266 0.867-2.133t2.133-0.867zM6 6.984q-0.422 0-0.703 0.305t-0.281 0.727 0.281 0.703 0.703 0.281 0.703-0.281 0.281-0.703-0.281-0.727-0.703-0.305zM18 6.984q-0.422 0-0.703 0.305t-0.281 0.727 0.281 0.703 0.703 0.281 0.703-0.281 0.281-0.703-0.281-0.727-0.703-0.305zM12 21q-0.422 0-0.703 0.281t-0.281 0.703 0.281 0.727 0.703 0.305 0.703-0.305 0.281-0.727-0.281-0.703-0.703-0.281z"></path>
</svg>
