<!-- Generated by IcoMoon.io -->
<svg version="1.1" xmlns="http://www.w3.org/2000/svg" width="24" height="24" viewBox="0 0 24 24">
<title>speedometer_medium</title>
<path d="M12 4.359l-2.859 10.688q-0.281 0.797-0.094 1.617t0.797 1.477q0.891 0.844 2.133 0.844t2.133-0.844q0.563-0.609 0.773-1.383t0.023-1.57zM14.578 6.328l0.656 2.344q2.109 0.938 3.445 2.93t1.336 4.383q0 1.641-0.633 3.094t-1.711 2.578v0q-0.328 0.281-0.328 0.703t0.305 0.703 0.727 0.281 0.703-0.281q1.359-1.359 2.133-3.188t0.773-3.891q0-2.25-0.938-4.242t-2.625-3.398-3.844-2.016zM9.422 6.375q-2.156 0.563-3.82 1.969t-2.625 3.398-0.961 4.242q0 2.063 0.773 3.891t2.133 3.188q0.281 0.281 0.703 0.281t0.703-0.281 0.281-0.703-0.281-0.703q-1.078-1.125-1.711-2.578t-0.633-3.094q0-2.484 1.313-4.453t3.516-2.859z"></path>
</svg>
