<!-- Generated by IcoMoon.io -->
<svg version="1.1" xmlns="http://www.w3.org/2000/svg" width="24" height="24" viewBox="0 0 24 24">
<title>speedometer</title>
<path d="M12 18.984q-1.266 0-2.133-0.867t-0.867-2.133q0-0.797 0.398-1.5t1.102-1.078l9.703-5.625-5.531 9.563q-0.375 0.75-1.102 1.195t-1.57 0.445zM12 6q2.625 0 4.969 1.313l-2.109 1.219q-1.359-0.516-2.906-0.516t-3.023 0.609-2.602 1.734-1.734 2.578-0.609 3.070 0.633 3.070 1.711 2.578v0q0.328 0.281 0.328 0.703t-0.305 0.703-0.727 0.281-0.703-0.281v0q-1.359-1.359-2.133-3.188t-0.773-3.891q0-2.719 1.336-5.016t3.633-3.633 5.016-1.336zM21.984 15.984q0 2.063-0.773 3.891t-2.133 3.188v0q-0.281 0.281-0.703 0.281t-0.703-0.281-0.281-0.703 0.281-0.703v0q1.078-1.125 1.711-2.578t0.633-3.094q0-1.5-0.563-2.906l1.219-2.063q1.313 2.391 1.313 4.969z"></path>
</svg>
