<!-- Generated by IcoMoon.io -->
<svg version="1.1" xmlns="http://www.w3.org/2000/svg" width="24" height="24" viewBox="0 0 24 24">
<title>speedometer_slow</title>
<path d="M12 18.984q1.266 0 2.133-0.867t0.867-2.133q0-0.797-0.398-1.5t-1.102-1.078l-9.703-5.625 5.531 9.563q0.375 0.75 1.102 1.195t1.57 0.445zM12 6q-2.625 0-4.969 1.313l2.109 1.219q1.359-0.516 2.859-0.516 2.156 0 4.008 1.078t2.93 2.906 1.078 3.984q0 1.641-0.633 3.094t-1.711 2.578v0q-0.328 0.281-0.328 0.703t0.305 0.703 0.727 0.281 0.703-0.281q1.359-1.359 2.133-3.188t0.773-3.891q0-2.672-1.336-4.969t-3.633-3.656-5.016-1.359zM2.016 15.984q0 2.063 0.773 3.891t2.133 3.188q0.281 0.281 0.703 0.281t0.703-0.281 0.281-0.703-0.281-0.703q-1.078-1.125-1.711-2.578t-0.633-3.094q0-1.5 0.563-2.906l-1.219-2.063q-1.313 2.391-1.313 4.969z"></path>
</svg>
