<!-- Generated by IcoMoon.io -->
<svg version="1.1" xmlns="http://www.w3.org/2000/svg" width="24" height="24" viewBox="0 0 24 24">
<title>spray</title>
<path d="M9.984 6.984h2.016v2.016h-2.016v-2.016zM6.984 6h2.016v2.016h-2.016v-2.016zM6.984 9h2.016v2.016h-2.016v-2.016zM6 11.016v1.969h-2.016v-1.969h2.016zM6 8.016v1.969h-2.016v-1.969h2.016zM6 5.016v1.969h-2.016v-1.969h2.016zM12.984 24.984q-0.797 0-1.383-0.586t-0.586-1.383v-10.031q0-0.797 0.586-1.383t1.383-0.586v-1.031h1.031v-3h3v3h0.984v1.031q0.844 0 1.43 0.586t0.586 1.383v10.031q0 0.797-0.586 1.383t-1.43 0.586h-5.016zM12.984 12.984v10.031h5.016v-10.031h-5.016z"></path>
</svg>
