<!-- Generated by IcoMoon.io -->
<svg version="1.1" xmlns="http://www.w3.org/2000/svg" width="24" height="24" viewBox="0 0 24 24">
<title>square_inc</title>
<path d="M6 6h12q1.266 0 2.133 0.867t0.867 2.133v12q0 1.266-0.867 2.133t-2.133 0.867h-12q-1.266 0-2.133-0.867t-0.867-2.133v-12q0-1.266 0.867-2.133t2.133-0.867zM6.984 9q-0.422 0-0.703 0.281t-0.281 0.703v10.031q0 0.422 0.281 0.703t0.703 0.281h10.031q0.422 0 0.703-0.281t0.281-0.703v-10.031q0-0.422-0.281-0.703t-0.703-0.281h-10.031zM9.516 12h4.969q0.234 0 0.375 0.141t0.141 0.375v4.969q0 0.234-0.141 0.375t-0.375 0.141h-4.969q-0.234 0-0.375-0.141t-0.141-0.375v-4.969q0-0.234 0.141-0.375t0.375-0.141z"></path>
</svg>
