<!-- Generated by IcoMoon.io -->
<svg version="1.1" xmlns="http://www.w3.org/2000/svg" width="24" height="24" viewBox="0 0 24 24">
<title>square_edit_outline</title>
<path d="M5.016 6q-0.844 0-1.43 0.586t-0.586 1.43v13.969q0 0.844 0.586 1.43t1.43 0.586h13.969q0.844 0 1.43-0.586t0.586-1.43v-6.984h-2.016v6.984h-13.969v-13.969h6.984v-2.016h-6.984zM17.766 6.984q-0.281 0-0.469 0.234l-1.219 1.172 2.484 2.531 1.219-1.219q0.234-0.188 0.234-0.469t-0.234-0.469l-1.547-1.547q-0.188-0.234-0.469-0.234zM15.375 9.141l-7.359 7.359v2.484h2.484l7.359-7.359z"></path>
</svg>
