<!-- Generated by IcoMoon.io -->
<svg version="1.1" xmlns="http://www.w3.org/2000/svg" width="24" height="24" viewBox="0 0 24 24">
<title>stadium</title>
<path d="M21.984 16.5v3.984q0 0.844-1.336 1.523t-3.633 1.078-5.016 0.398q-2.203 0-3.984-0.281v-2.719l-4.031-0.984v2.813q-1.969-0.797-1.969-1.828v-6q0-0.75 1.242-1.359t2.742-0.609q2.109 0 4.031 0.938 1.125 0.516 3.094 1.969 1.781 1.313 2.719 1.781 1.547 0.797 3.141 0.797 0.891 0 1.688-0.375 0.563-0.281 0.984-0.75zM5.016 11.016l3.984 0.984v-3l-3.984-0.984v3zM18 9.516l3.984 0.984v-3l-3.984-0.984v3zM22.313 13.781q0-0.984-0.75-1.734-0.984-1.031-2.859-1.031-1.266 0-2.625 0.703-1.031 0.516-1.969 1.359-0.703 0.609-0.797 0.844l0.656 0.469q1.453 1.078 2.25 1.453 1.313 0.656 2.766 0.656 2.063 0 2.906-1.359 0.422-0.656 0.422-1.359v0z"></path>
</svg>
