<!-- Generated by IcoMoon.io -->
<svg version="1.1" xmlns="http://www.w3.org/2000/svg" width="24" height="24" viewBox="0 0 24 24">
<title>stadium_variant</title>
<path d="M5.016 6h1.969l3 2.016-3 1.969v1.359q2.344-0.328 5.016-0.328t5.016 0.328v-5.344h1.969l3 2.016-3 1.969v1.734q1.453 0.328 2.227 0.797t0.773 0.984q0 0.656-1.336 1.242t-3.633 0.914-5.016 0.328-5.016-0.328-3.633-0.914-1.336-1.242q0-0.516 0.773-0.984t2.227-0.797v-5.719zM12 12.516q-2.672 0-3.75 0.188-1.266 0.188-1.266 0.797t1.266 0.797q1.078 0.188 3.75 0.188t3.75-0.188q1.266-0.188 1.266-0.797t-1.266-0.797q-1.078-0.188-3.75-0.188zM12 17.766q2.813 0 5.273-0.469t4.148-1.266l-1.406 7.969h-5.016v-2.016q0-0.797-0.586-1.383t-1.43-0.586h-1.969q-0.844 0-1.43 0.586t-0.586 1.383v2.016h-5.016l-1.406-7.969q1.688 0.797 4.148 1.266t5.273 0.469z"></path>
</svg>
