<!-- Generated by IcoMoon.io -->
<svg version="1.1" xmlns="http://www.w3.org/2000/svg" width="24" height="24" viewBox="0 0 24 24">
<title>stamper</title>
<path d="M12 6q-1.266 0-2.133 0.867t-0.867 2.133q0 0.563 0.281 1.359 0.141 0.469 0.516 1.359 0.656 1.5 0.75 2.109 0.094 1.031-0.797 1.547-1.078 0.609-3.75 0.609-0.844 0-1.43 0.586t-0.586 1.43v2.016h16.031v-2.016q0-0.844-0.586-1.43t-1.43-0.586q-2.672 0-3.75-0.609-0.891-0.516-0.797-1.547 0.094-0.609 0.75-2.109 0.375-0.891 0.516-1.359 0.281-0.797 0.281-1.359 0-1.453-0.844-2.227t-2.156-0.773zM6 21.984v2.016h12v-2.016h-12z"></path>
</svg>
