<!-- Generated by IcoMoon.io -->
<svg version="1.1" xmlns="http://www.w3.org/2000/svg" width="24" height="24" viewBox="0 0 24 24">
<title>state_machine</title>
<path d="M6.281 20.063q0.703 0.844 0.703 1.922 0 1.266-0.867 2.133t-2.109 0.867-2.133-0.867-0.891-2.109 0.891-2.133 2.109-0.891q0.375 0 0.563 0.047l3.047-5.344-1.734-0.984 4.078-1.125 1.125 4.078-1.734-0.984zM20.016 18.984q-0.984 0-1.758 0.563t-1.055 1.453h-6.188v-2.016l-3 3 3 3v-1.969h6.188q0.281 0.891 1.055 1.43t1.758 0.539q1.219 0 2.109-0.867t0.891-2.109-0.891-2.133-2.109-0.891zM12 11.016q0.375 0 0.516-0.047l3.094 5.344-1.734 0.984 4.078 1.125 1.125-4.078-1.734 0.984-3.094-5.391q0.75-0.844 0.75-1.922 0-1.266-0.867-2.133t-2.133-0.867-2.133 0.867-0.867 2.109 0.867 2.133 2.133 0.891z"></path>
</svg>
