<!-- Generated by IcoMoon.io -->
<svg version="1.1" xmlns="http://www.w3.org/2000/svg" width="24" height="24" viewBox="0 0 24 24">
<title>stethoscope</title>
<path d="M18.984 11.016q0.422 0 0.727 0.281t0.305 0.703-0.305 0.703-0.727 0.281-0.703-0.281-0.281-0.703 0.281-0.703 0.703-0.281zM2.016 5.016v9q0 2.203 1.453 3.891t3.656 2.016q0.469 2.25 2.25 3.656t4.125 1.406q1.781 0 3.258-0.867t2.367-2.367 0.891-3.234v-3.703q0.891-0.328 1.43-1.102t0.539-1.711q0-1.266-0.867-2.133t-2.109-0.867-2.133 0.867-0.891 2.133q0 0.938 0.563 1.711t1.453 1.102v3.609q0 1.875-1.313 3.188t-3.188 1.313q-1.5 0-2.672-0.844t-1.594-2.156q2.063-0.469 3.422-2.133t1.359-3.773v-9h-4.031v3h2.016v6q0 1.641-1.172 2.813t-2.836 1.172-2.836-1.172-1.172-2.813v-6h2.016v-3h-3.984z"></path>
</svg>
