<!-- Generated by IcoMoon.io -->
<svg version="1.1" xmlns="http://www.w3.org/2000/svg" width="24" height="24" viewBox="0 0 24 24">
<title>stomach</title>
<path d="M3.984 21q0.656 1.781 2.063 2.672 1.969 1.313 5.953 1.313 2.344 0 3.656-0.281 2.063-0.422 3.328-1.688 0.797-0.797 1.219-1.453 0.797-1.172 1.219-2.766 0.563-2.063 0.563-4.781 0-4.078-1.219-5.766-0.938-1.266-2.766-1.266-1.453 0-2.156 0.281-1.172 0.422-1.828 1.734v0.047q-0.281 0.469-0.797 0.727t-1.078 0.164q-0.75-0.094-0.984-0.375-0.141-0.188-0.141-0.563v-3.984h-2.016v3.984q-0.047 1.266 0.844 2.156t2.156 0.844q0.656 0 0.891 1.031 0.094 0.609 0.094 1.969 0 1.5-0.422 2.438-0.469 1.031-1.547 1.547-1.781 0.891-3.305 0.75t-2.086-1.266q-0.281-0.797-1.078-0.984t-1.43 0.398-0.938 1.406-0.164 1.711v3.984h1.969v-3.984z"></path>
</svg>
