<!-- Generated by IcoMoon.io -->
<svg version="1.1" xmlns="http://www.w3.org/2000/svg" width="24" height="24" viewBox="0 0 24 24">
<title>stretch_to_page_outline</title>
<path d="M20.016 5.016h-16.031q-0.797 0-1.383 0.586t-0.586 1.383v16.031q0 0.797 0.586 1.383t1.383 0.586h16.031q0.797 0 1.383-0.586t0.586-1.383v-16.031q0-0.797-0.586-1.383t-1.383-0.586zM20.016 23.016h-16.031v-16.031h16.031v16.031zM8.813 13.266l-1.5-1.547-1.313 1.266v-3.984h3.984l-1.266 1.313 1.547 1.5zM13.734 11.813l1.547-1.5-1.266-1.313h3.984v3.984l-1.313-1.266-1.5 1.547zM15.188 16.734l1.5 1.547 1.313-1.266v3.984h-3.984l1.266-1.313-1.547-1.5zM10.266 18.188l-1.547 1.5 1.266 1.313h-3.984v-3.984l1.313 1.266 1.5-1.547z"></path>
</svg>
