<!-- Generated by IcoMoon.io -->
<svg version="1.1" xmlns="http://www.w3.org/2000/svg" width="24" height="24" viewBox="0 0 24 24">
<title>swap_horizontal_variant</title>
<path d="M3.984 9l4.031 3.984v-3h7.969q0.844 0 1.43 0.586t0.586 1.43-0.586 1.43-1.43 0.586h-7.969q-1.688 0-2.859 1.172t-1.172 2.813 1.172 2.813 2.859 1.172h7.969v3l4.031-3.984-4.031-3.984v3h-7.969q-0.844 0-1.43-0.586t-0.586-1.43 0.586-1.43 1.43-0.586h7.969q1.688 0 2.859-1.172t1.172-2.813-1.172-2.813-2.859-1.172h-7.969v-3z"></path>
</svg>
