<!-- Generated by IcoMoon.io -->
<svg version="1.1" xmlns="http://www.w3.org/2000/svg" width="24" height="24" viewBox="0 0 24 24">
<title>sync_alert</title>
<path d="M11.016 15.984h1.969v-6h-1.969v6zM21 6.984h-6v6l2.25-2.203q0.797 0.797 1.266 1.898t0.469 2.32q0 1.922-1.102 3.469t-2.883 2.203v2.063q2.625-0.656 4.313-2.813t1.688-4.922q0-1.641-0.633-3.094t-1.711-2.531zM11.016 20.016h1.969v-2.016h-1.969v2.016zM3 15q0 1.641 0.633 3.094t1.711 2.531l-2.344 2.391h6v-6l-2.25 2.203q-0.797-0.797-1.266-1.898t-0.469-2.32q0-1.922 1.102-3.469t2.883-2.203v-2.063q-2.625 0.656-4.313 2.813t-1.688 4.922z"></path>
</svg>
