<!-- Generated by IcoMoon.io -->
<svg version="1.1" xmlns="http://www.w3.org/2000/svg" width="24" height="24" viewBox="0 0 24 24">
<title>sync_off</title>
<path d="M20.016 6.984h-6v6l2.203-2.203q0.844 0.797 1.313 1.898t0.469 2.32q0 1.453-0.703 2.766l1.5 1.453q1.219-1.922 1.219-4.219 0-1.641-0.633-3.094t-1.758-2.531zM2.859 8.391l2.344 2.391q-1.219 1.922-1.219 4.219 0 1.641 0.633 3.094t1.758 2.531l-2.391 2.391h6v-6l-2.203 2.203q-0.844-0.797-1.313-1.898t-0.469-2.32q0-1.453 0.703-2.766l8.063 8.063q-0.516 0.281-0.75 0.375v2.063q1.172-0.328 2.203-0.938l2.344 2.344 1.266-1.266-15.703-15.75zM9.984 9.328v-2.063q-1.172 0.281-2.203 0.938l1.453 1.5 0.234-0.141q0.328-0.141 0.516-0.234z"></path>
</svg>
