<!-- Generated by IcoMoon.io -->
<svg version="1.1" xmlns="http://www.w3.org/2000/svg" width="24" height="24" viewBox="0 0 24 24">
<title>sync1</title>
<path d="M12 21q-1.641 0-3.023-0.797t-2.18-2.18-0.797-3.023q0-1.5 0.703-2.813l-1.453-1.453q-1.266 1.969-1.266 4.266 0 2.156 1.078 4.008t2.93 2.93 4.008 1.078v3l3.984-4.031-3.984-3.984v3zM12 6.984v-3l-3.984 4.031 3.984 3.984v-3q1.641 0 3.023 0.797t2.18 2.18 0.797 3.023q0 1.5-0.703 2.813l1.453 1.453q1.266-1.969 1.266-4.266 0-1.594-0.609-3.070t-1.734-2.602-2.602-1.734-3.070-0.609z"></path>
</svg>
