<!-- Generated by IcoMoon.io -->
<svg version="1.1" xmlns="http://www.w3.org/2000/svg" width="24" height="24" viewBox="0 0 24 24">
<title>tab_remove</title>
<path d="M7.453 14.859l1.406-1.406 2.156 2.156 2.109-2.156 1.406 1.406-2.109 2.156 2.109 2.109-1.406 1.406-2.109-2.109-2.156 2.109-1.406-1.406 2.156-2.109zM3 6h18q0.844 0 1.43 0.586t0.586 1.43v13.969q0 0.844-0.586 1.43t-1.43 0.586h-18q-0.844 0-1.43-0.586t-0.586-1.43v-13.969q0-0.844 0.586-1.43t1.43-0.586zM3 8.016v13.969h18v-9.984h-8.016v-3.984h-9.984z"></path>
</svg>
