<!-- Generated by IcoMoon.io -->
<svg version="1.1" xmlns="http://www.w3.org/2000/svg" width="24" height="24" viewBox="0 0 24 24">
<title>tab_unselected1</title>
<path d="M0.984 12h2.016v-2.016h-2.016v2.016zM0.984 15.984h2.016v-1.969h-2.016v1.969zM0.984 8.016h2.016v-2.016q-0.844 0-1.43 0.586t-0.586 1.43zM9 24h2.016v-2.016h-2.016v2.016zM0.984 20.016h2.016v-2.016h-2.016v2.016zM3 24v-2.016h-2.016q0 0.844 0.586 1.43t1.43 0.586zM21 6h-8.016v6h10.031v-3.984q0-0.844-0.586-1.43t-1.43-0.586zM21 20.016h2.016v-2.016h-2.016v2.016zM9 8.016h2.016v-2.016h-2.016v2.016zM5.016 24h1.969v-2.016h-1.969v2.016zM5.016 8.016h1.969v-2.016h-1.969v2.016zM21 24q0.844 0 1.43-0.586t0.586-1.43h-2.016v2.016zM21 15.984h2.016v-1.969h-2.016v1.969zM12.984 24h2.016v-2.016h-2.016v2.016zM17.016 24h1.969v-2.016h-1.969v2.016z"></path>
</svg>
