<!-- Generated by IcoMoon.io -->
<svg version="1.1" xmlns="http://www.w3.org/2000/svg" width="24" height="24" viewBox="0 0 24 24">
<title>table_settings</title>
<path d="M6.984 24.984h2.016v2.016h-2.016v-2.016zM11.016 24.984h1.969v2.016h-1.969v-2.016zM15 24.984h2.016v2.016h-2.016v-2.016zM5.016 6.984h13.969q0.844 0 1.43 0.586t0.586 1.43v12q0 0.844-0.586 1.43t-1.43 0.586h-13.969q-0.844 0-1.43-0.586t-0.586-1.43v-12q0-0.844 0.586-1.43t1.43-0.586zM5.016 11.016v3.984h6v-3.984h-6zM12.984 11.016v3.984h6v-3.984h-6zM5.016 17.016v3.984h6v-3.984h-6zM12.984 17.016v3.984h6v-3.984h-6z"></path>
</svg>
