<!-- Generated by IcoMoon.io -->
<svg version="1.1" xmlns="http://www.w3.org/2000/svg" width="24" height="24" viewBox="0 0 24 24">
<title>table_large</title>
<path d="M3.984 6h16.031q0.797 0 1.383 0.586t0.586 1.43v15q0 0.797-0.586 1.383t-1.383 0.586h-16.031q-0.797 0-1.383-0.586t-0.586-1.383v-15q0-0.844 0.586-1.43t1.383-0.586zM3.984 9.984v3h4.031v-3h-4.031zM9.984 9.984v3h4.031v-3h-4.031zM20.016 12.984v-3h-4.031v3h4.031zM3.984 15v3h4.031v-3h-4.031zM3.984 23.016h4.031v-3h-4.031v3zM9.984 15v3h4.031v-3h-4.031zM9.984 23.016h4.031v-3h-4.031v3zM20.016 23.016v-3h-4.031v3h4.031zM20.016 15h-4.031v3h4.031v-3z"></path>
</svg>
