<!-- Generated by IcoMoon.io -->
<svg version="1.1" xmlns="http://www.w3.org/2000/svg" width="24" height="24" viewBox="0 0 24 24">
<title>table_row_plus_before</title>
<path d="M21.984 17.016q0-0.844-0.586-1.43t-1.383-0.586h-16.031q-0.797 0-1.383 0.586t-0.586 1.43v6.984h1.969v-2.016h4.031v2.016h1.969v-2.016h4.031v2.016h1.969v-2.016h4.031v2.016h1.969v-6.984zM3.984 17.016h4.031v3h-4.031v-3zM9.984 17.016h4.031v3h-4.031v-3zM20.016 17.016v3h-4.031v-3h4.031zM11.016 12.984h1.969v-3h3v-1.969h-3v-3h-1.969v3h-3v1.969h3v3z"></path>
</svg>
