<!-- Generated by IcoMoon.io -->
<svg version="1.1" xmlns="http://www.w3.org/2000/svg" width="24" height="24" viewBox="0 0 24 24">
<title>table_edit</title>
<path d="M21.703 16.359l-0.984 0.984-2.063-2.063 0.984-0.984q0.188-0.141 0.398-0.141t0.398 0.141l1.266 1.266q0.141 0.188 0.141 0.398t-0.141 0.398zM12 21.938l6.047-6.047 2.063 2.063-6.047 6.047h-2.063v-2.063zM3.984 5.016h14.016q0.844 0 1.43 0.586t0.586 1.383v4.172l-3.844 3.844h-4.172v4.172l-1.828 1.828h-6.188q-0.797 0-1.383-0.586t-0.586-1.43v-12q0-0.797 0.586-1.383t1.383-0.586zM3.984 9v3.984h6v-3.984h-6zM12 9v3.984h6v-3.984h-6zM3.984 15v3.984h6v-3.984h-6z"></path>
</svg>
