<!-- Generated by IcoMoon.io -->
<svg version="1.1" xmlns="http://www.w3.org/2000/svg" width="24" height="24" viewBox="0 0 24 24">
<title>table_column_width</title>
<path d="M5.016 11.016h13.969q0.844 0 1.43 0.586t0.586 1.383v10.031q0 0.797-0.586 1.383t-1.43 0.586h-13.969q-0.844 0-1.43-0.586t-0.586-1.383v-10.031q0-0.797 0.586-1.383t1.43-0.586zM5.016 15v3h6v-3h-6zM12.984 15v3h6v-3h-6zM5.016 20.016v3h6v-3h-6zM12.984 20.016v3h6v-3h-6zM11.016 5.016h9.984v3.984h-2.016v-2.016h-6v2.016h-1.969v-3.984z"></path>
</svg>
