<!-- Generated by IcoMoon.io -->
<svg version="1.1" xmlns="http://www.w3.org/2000/svg" width="24" height="24" viewBox="0 0 24 24">
<title>table_eye</title>
<path d="M17.016 19.875q0.422 0 0.703 0.281t0.281 0.703-0.281 0.727-0.703 0.305-0.727-0.305-0.305-0.703 0.305-0.703 0.727-0.305zM17.016 16.875q2.016 0 3.633 1.102t2.367 2.883q-0.75 1.781-2.367 2.906t-3.633 1.125-3.656-1.125-2.344-2.906q0.703-1.781 2.344-2.883t3.656-1.102zM17.016 18.375q-1.031 0-1.781 0.727t-0.75 1.781 0.75 1.781 1.781 0.727 1.758-0.727 0.727-1.781-0.727-1.781-1.758-0.727zM18 6h-14.016q-0.797 0-1.383 0.586t-0.586 1.43v12q0 0.797 0.586 1.383t1.383 0.586h5.438q-0.234-0.422-0.422-0.984 0.188-0.563 0.422-0.984h-5.438v-4.031h6v3q0.844-1.266 2.016-2.203v-0.797h1.172q1.781-0.984 3.844-0.984 1.547 0 3 0.609v-7.594q0-0.844-0.586-1.43t-1.43-0.586zM9.984 14.016h-6v-4.031h6v4.031zM18 14.016h-6v-4.031h6v4.031z"></path>
</svg>
