<!-- Generated by IcoMoon.io -->
<svg version="1.1" xmlns="http://www.w3.org/2000/svg" width="24" height="24" viewBox="0 0 24 24">
<title>table_search</title>
<path d="M19.313 20.906q0.984-1.594 0.563-3.422t-1.992-2.813-3.398-0.563-2.813 1.992-0.563 3.398 1.969 2.813q1.125 0.656 2.414 0.656t2.414-0.656l3.094 3.094 1.406-1.406zM17.297 20.25q-0.75 0.75-1.781 0.75t-1.758-0.727-0.727-1.758 0.727-1.781 1.758-0.75 1.758 0.75 0.727 1.781-0.75 1.734h0.047zM18.984 6.984h-13.969q-0.844 0-1.43 0.586t-0.586 1.43v12q0 0.844 0.586 1.43t1.43 0.586h5.813q-0.891-0.891-1.313-2.016h-4.5v-3.984h4.172q0.234-1.125 0.797-2.016h-4.969v-3.984h6v2.813q0.891-0.891 1.969-1.313v-1.5h6v1.969q0.609 0.375 1.125 0.891t0.891 1.125v-6q0-0.844-0.586-1.43t-1.43-0.586z"></path>
</svg>
