<!-- Generated by IcoMoon.io -->
<svg version="1.1" xmlns="http://www.w3.org/2000/svg" width="24" height="24" viewBox="0 0 24 24">
<title>table_border</title>
<path d="M21 21.984q0 0.422-0.281 0.727t-0.703 0.305h-1.031v-2.016h2.016v0.984zM15 23.016v-2.016h2.016v2.016h-2.016zM11.016 23.016v-2.016h1.969v2.016h-1.969zM6.984 23.016v-2.016h2.016v2.016h-2.016zM3.984 23.016q-0.422 0-0.703-0.305t-0.281-0.727v-0.984h2.016v2.016h-1.031zM18.984 6.984h-13.969q-0.844 0-1.43 0.586t-0.586 1.43v2.016h18v-2.016q0-0.844-0.586-1.43t-1.43-0.586zM5.016 17.016h-2.016v1.969h2.016v-1.969zM5.016 12.984h-2.016v2.016h2.016v-2.016zM21 12.984h-2.016v2.016h2.016v-2.016zM21 17.016h-2.016v1.969h2.016v-1.969zM11.016 18.984v-1.969h1.969v1.969h-1.969zM11.016 15v-2.016h1.969v2.016h-1.969z"></path>
</svg>
