<!-- Generated by IcoMoon.io -->
<svg version="1.1" xmlns="http://www.w3.org/2000/svg" width="24" height="24" viewBox="0 0 24 24">
<title>table_column_remove</title>
<path d="M3.984 5.016h7.031q0.797 0 1.383 0.586t0.586 1.383v16.031q0 0.797-0.586 1.383t-1.383 0.586h-7.031q-0.797 0-1.383-0.586t-0.586-1.383v-16.031q0-0.797 0.586-1.383t1.383-0.586zM3.984 12.984v4.031h7.031v-4.031h-7.031zM3.984 18.984v4.031h7.031v-4.031h-7.031zM3.984 6.984v4.031h7.031v-4.031h-7.031zM17.578 15l-2.578-2.578 1.406-1.406 2.578 2.578 2.625-2.578 1.406 1.406-2.625 2.578 2.625 2.578-1.406 1.406-2.625-2.578-2.578 2.578-1.406-1.406z"></path>
</svg>
