<!-- Generated by IcoMoon.io -->
<svg version="1.1" xmlns="http://www.w3.org/2000/svg" width="24" height="24" viewBox="0 0 24 24">
<title>table_row_remove</title>
<path d="M9.422 15.984l2.578 2.625 2.578-2.625 1.406 1.406-2.578 2.625 2.578 2.578-1.406 1.406-2.578-2.578-2.578 2.578-1.406-1.406 2.578-2.578-2.578-2.625zM21.984 12q0 0.844-0.586 1.43t-1.383 0.586h-16.031q-0.797 0-1.383-0.586t-0.586-1.43v-3q0-0.844 0.586-1.43t1.383-0.586h16.031q0.797 0 1.383 0.586t0.586 1.43v3zM3.984 12h4.031v-3h-4.031v3zM9.984 12h4.031v-3h-4.031v3zM15.984 12h4.031v-3h-4.031v3z"></path>
</svg>
