<!-- Generated by IcoMoon.io -->
<svg version="1.1" xmlns="http://www.w3.org/2000/svg" width="24" height="24" viewBox="0 0 24 24">
<title>table_plus</title>
<path d="M18 17.016h2.016v3h3v1.969h-3v3h-2.016v-3h-3v-1.969h3v-3zM3.984 6h14.016q0.844 0 1.43 0.586t0.586 1.43v7.078q-1.172-0.188-2.273 0.047t-2.039 0.844h-3.703v4.031h1.078q-0.141 0.984 0 1.969h-9.094q-0.797 0-1.383-0.586t-0.586-1.383v-12q0-0.844 0.586-1.43t1.383-0.586zM3.984 9.984v4.031h6v-4.031h-6zM12 9.984v4.031h6v-4.031h-6zM3.984 15.984v4.031h6v-4.031h-6z"></path>
</svg>
