<!-- Generated by IcoMoon.io -->
<svg version="1.1" xmlns="http://www.w3.org/2000/svg" width="24" height="24" viewBox="0 0 24 24">
<title>table_large_remove</title>
<path d="M12.328 23.016h-2.344v-3h2.109q0.188-1.078 0.703-2.016h-2.813v-3h4.031v1.547q0.844-0.797 1.969-1.219v-0.328h4.031v0.328q1.125 0.422 1.969 1.219v-8.531q0-0.844-0.586-1.43t-1.383-0.586h-16.031q-0.797 0-1.383 0.586t-0.586 1.43v15q0 0.797 0.586 1.383t1.383 0.586h9.563q-0.797-0.844-1.219-1.969zM15.984 9.984h4.031v3h-4.031v-3zM9.984 9.984h4.031v3h-4.031v-3zM8.016 23.016h-4.031v-3h4.031v3zM8.016 18h-4.031v-3h4.031v3zM8.016 12.984h-4.031v-3h4.031v3zM14.438 18.891l1.453-1.453 2.109 2.156 2.109-2.156 1.453 1.453-2.156 2.109 2.156 2.109-1.453 1.453-2.109-2.156-2.109 2.156-1.453-1.453 2.156-2.109z"></path>
</svg>
