<!-- Generated by IcoMoon.io -->
<svg version="1.1" xmlns="http://www.w3.org/2000/svg" width="24" height="24" viewBox="0 0 24 24">
<title>tag_plus</title>
<path d="M21.422 14.578l-9-9q-0.609-0.563-1.406-0.563h-7.031q-0.797 0-1.383 0.586t-0.586 1.383v7.031q0 0.797 0.563 1.406l0.422 0.375q1.359-0.797 3-0.797t3.023 0.797 2.18 2.18 0.797 3.023-0.797 3l0.375 0.422q0.609 0.563 1.43 0.563t1.383-0.563l7.031-7.031q0.563-0.563 0.563-1.383t-0.563-1.43zM5.484 9.984q-0.609 0-1.055-0.422t-0.445-1.055 0.445-1.078 1.078-0.445 1.055 0.445 0.422 1.078-0.422 1.055-1.078 0.422zM9.984 21.984h-3v3h-1.969v-3h-3v-1.969h3v-3h1.969v3h3v1.969z"></path>
</svg>
