<!-- Generated by IcoMoon.io -->
<svg version="1.1" xmlns="http://www.w3.org/2000/svg" width="24" height="24" viewBox="0 0 24 24">
<title>tag_multiple</title>
<path d="M5.484 12q0.656 0 1.078-0.445t0.422-1.055-0.422-1.055-1.055-0.445-1.078 0.445-0.445 1.055 0.445 1.055 1.055 0.445zM17.391 14.578q0.609 0.609 0.609 1.43t-0.609 1.383l-4.969 5.016q-0.609 0.609-1.43 0.609t-1.43-0.609l-6.984-6.984q-0.563-0.609-0.563-1.406v-5.016q0-0.844 0.586-1.43t1.383-0.586h5.016q0.844 0 1.406 0.609zM13.547 8.719l0.984-1.031 6.891 6.891q0.563 0.563 0.563 1.406t-0.563 1.406l-5.391 5.391-0.984-0.984 5.719-5.813z"></path>
</svg>
