<!-- Generated by IcoMoon.io -->
<svg version="1.1" xmlns="http://www.w3.org/2000/svg" width="24" height="24" viewBox="0 0 24 24">
<title>target_variant</title>
<path d="M22.078 14.063h-2.016v-7.078h-7.031v-1.969h-1.969v1.969h-7.078v7.078h-1.969v1.969h1.969v7.031h7.078v2.016h1.969v-2.016h7.031v-7.031h2.016v-1.969zM18.047 21.047h-5.016v-1.969h-1.969v1.969h-5.063v-5.016h2.016v-1.969h-2.016v-5.063h5.063v2.016h1.969v-2.016h5.016v5.063h-1.969v1.969h1.969v5.016zM13.031 15.047q0 0.422-0.281 0.703t-0.703 0.281-0.703-0.281-0.281-0.703 0.281-0.703 0.703-0.281 0.703 0.281 0.281 0.703z"></path>
</svg>
