<!-- Generated by IcoMoon.io -->
<svg version="1.1" xmlns="http://www.w3.org/2000/svg" width="24" height="24" viewBox="0 0 24 24">
<title>target</title>
<path d="M11.016 5.016v2.063q-2.719 0.328-4.664 2.273t-2.273 4.664h-2.063v1.969h2.063q0.328 2.719 2.273 4.664t4.664 2.273v2.063h1.969v-2.063q2.719-0.328 4.664-2.273t2.273-4.664h2.063v-1.969h-2.063q-0.328-2.719-2.273-4.664t-4.664-2.273v-2.063h-1.969zM11.016 9.094v1.922h1.969v-1.922q1.875 0.281 3.258 1.664t1.664 3.258h-1.922v1.969h1.922q-0.281 1.875-1.664 3.258t-3.258 1.664v-1.922h-1.969v1.922q-1.875-0.281-3.258-1.664t-1.664-3.258h1.922v-1.969h-1.922q0.281-1.875 1.664-3.258t3.258-1.664zM12 14.016q-0.422 0-0.703 0.281t-0.281 0.703 0.281 0.703 0.703 0.281 0.703-0.281 0.281-0.703-0.281-0.703-0.703-0.281z"></path>
</svg>
