<!-- Generated by IcoMoon.io -->
<svg version="1.1" xmlns="http://www.w3.org/2000/svg" width="24" height="24" viewBox="0 0 24 24">
<title>target_account</title>
<path d="M20.953 14.016h1.547v1.969h-1.547q-0.234 2.063-1.336 3.797t-2.836 2.836-3.797 1.336v1.547h-1.969v-1.547q-2.063-0.234-3.797-1.336t-2.836-2.836-1.336-3.797h-1.547v-1.969h1.547q0.234-2.063 1.336-3.797t2.836-2.836 3.797-1.336v-1.547h1.969v1.547q2.063 0.234 3.797 1.336t2.836 2.836 1.336 3.797zM5.063 14.016h1.453v1.969h-1.453q0.328 2.297 1.992 3.961t3.961 1.992v-1.453h1.969v1.453q2.297-0.328 3.961-1.992t1.992-3.961h-1.453v-1.969h1.453q-0.328-2.297-1.992-3.961t-3.961-1.992v1.453h-1.969v-1.453q-2.297 0.328-3.961 1.992t-1.992 3.961zM15.984 18.984h-7.969v-0.984q0-0.891 1.5-1.5 1.219-0.516 2.484-0.516t2.484 0.516q1.5 0.609 1.5 1.5v0.984zM12 11.016q0.844 0 1.43 0.586t0.586 1.406-0.586 1.406-1.43 0.586-1.43-0.586-0.586-1.406 0.586-1.406 1.43-0.586z"></path>
</svg>
