<!-- Generated by IcoMoon.io -->
<svg version="1.1" xmlns="http://www.w3.org/2000/svg" width="24" height="24" viewBox="0 0 24 24">
<title>teach</title>
<path d="M20.016 20.016q0.797 0 1.383-0.586t0.586-1.43v-11.016q0-0.797-0.586-1.383t-1.383-0.586h-10.547q0.516 0.938 0.516 1.969h10.031v11.016h-9v2.016h9zM15 9.984v2.016h-6v12.984h-2.016v-6h-1.969v6h-2.016v-7.969h-1.5v-5.016q0-0.844 0.586-1.43t1.43-0.586h11.484zM8.016 6.984q0 0.844-0.586 1.43t-1.43 0.586-1.43-0.586-0.586-1.406 0.586-1.406 1.43-0.586 1.43 0.586 0.586 1.383z"></path>
</svg>
