<!-- Generated by IcoMoon.io -->
<svg version="1.1" xmlns="http://www.w3.org/2000/svg" width="24" height="24" viewBox="0 0 24 24">
<title>teamviewer</title>
<path d="M18.984 6q0.844 0 1.43 0.586t0.586 1.43v13.969q0 0.844-0.586 1.43t-1.43 0.586h-13.969q-0.844 0-1.43-0.586t-0.586-1.43v-13.969q0-0.844 0.586-1.43t1.43-0.586h13.969zM12 8.016q-1.406 0-2.695 0.516t-2.273 1.5-1.5 2.273-0.516 2.695q0 1.922 0.938 3.516t2.531 2.531 3.516 0.938 3.516-0.938 2.531-2.531 0.938-3.516q0-1.406-0.516-2.695t-1.5-2.273-2.273-1.5-2.695-0.516zM6.984 15l3-3v2.016h4.031v-2.016l3 3-3 3v-2.016h-4.031v2.016z"></path>
</svg>
