<!-- Generated by IcoMoon.io -->
<svg version="1.1" xmlns="http://www.w3.org/2000/svg" width="24" height="24" viewBox="0 0 24 24">
<title>television_guide</title>
<path d="M21 20.016v-12h-18v12h18zM21 6q0.844 0 1.43 0.586t0.586 1.43v12q0 0.797-0.586 1.383t-1.43 0.586h-5.016v2.016h-7.969v-2.016h-5.016q-0.844 0-1.43-0.586t-0.586-1.383v-12q0-0.844 0.586-1.43t1.43-0.586h18zM5.016 9.984h6v4.031h-6v-4.031zM5.016 15.984h6v2.016h-6v-2.016zM12.984 9.984h6v2.016h-6v-2.016zM12.984 14.016h6v3.984h-6v-3.984z"></path>
</svg>
