<!-- Generated by IcoMoon.io -->
<svg version="1.1" xmlns="http://www.w3.org/2000/svg" width="24" height="24" viewBox="0 0 24 24">
<title>telescope</title>
<path d="M21.891 11.906l-1.688 0.984-3.984-6.891 1.688-0.984zM9.797 10.922l3 5.156 6.094-3.469-3-5.203zM11.391 15.703l-1.969-3.516-4.313 2.531 1.969 3.469zM2.109 17.578l0.984 1.734 2.625-1.5-1.031-1.734zM12.094 17.016l-0.281-0.422-4.313 2.484 0.281 0.422q0.328 0.469 0.797 0.797l-1.594 4.688h2.016l1.406-4.266h0.094l1.5 4.266h2.016l-1.922-5.578q0.375-0.516 0.375-1.172t-0.375-1.219z"></path>
</svg>
