<!-- Generated by IcoMoon.io -->
<svg version="1.1" xmlns="http://www.w3.org/2000/svg" width="24" height="24" viewBox="0 0 24 24">
<title>tennis_ball</title>
<path d="M12 5.016q1.828 0 3.492 0.609t3.023 1.781q-1.641 1.406-2.578 3.375t-0.938 4.219 0.938 4.219 2.578 3.375q-1.359 1.172-3.023 1.781t-3.492 0.609-3.492-0.609-3.023-1.781q1.641-1.406 2.578-3.375t0.938-4.219-0.938-4.219-2.578-3.375q1.359-1.172 3.023-1.781t3.492-0.609zM21.984 15q0 3.422-2.109 6.141-1.359-1.125-2.109-2.719t-0.75-3.422 0.75-3.422 2.109-2.719q2.109 2.719 2.109 6.141zM2.016 15q0-3.422 2.109-6.141 1.359 1.125 2.109 2.719t0.75 3.422-0.75 3.422-2.109 2.719q-2.109-2.719-2.109-6.141z"></path>
</svg>
