<!-- Generated by IcoMoon.io -->
<svg version="1.1" xmlns="http://www.w3.org/2000/svg" width="24" height="24" viewBox="0 0 24 24">
<title>tennis</title>
<path d="M18 18q1.641 0 2.813 1.172t1.172 2.836-1.172 2.836-2.813 1.172-2.813-1.172-1.172-2.836 1.172-2.836 2.813-1.172zM18 20.016q-0.844 0-1.43 0.586t-0.586 1.406 0.586 1.406 1.43 0.586 1.43-0.586 0.586-1.406-0.586-1.406-1.43-0.586zM6.047 17.531l0.375-0.469q0.422-0.609 0.656-1.406 0.375-1.125 0.375-2.344-0.281-1.688 0.375-3.492t2.109-3.234 3.234-2.086 3.469-0.398 2.836 1.406 1.406 2.836-0.375 3.492-2.086 3.234-3.258 2.086-3.445 0.375q-1.266 0-2.391 0.375-0.75 0.281-1.406 0.656l-0.469 0.375-4.219 4.266-1.406-1.406zM18.047 6.938q-0.75-0.797-1.922-0.914t-2.438 0.398-2.32 1.57-1.57 2.32-0.398 2.438 0.891 1.945 1.945 0.914 2.438-0.375 2.32-1.57 1.57-2.344 0.398-2.461-0.914-1.922z"></path>
</svg>
