<!-- Generated by IcoMoon.io -->
<svg version="1.1" xmlns="http://www.w3.org/2000/svg" width="24" height="24" viewBox="0 0 24 24">
<title>thought_bubble_outline</title>
<path d="M3.516 21.984q0.609 0 1.055 0.445t0.445 1.078-0.445 1.055-1.078 0.422-1.055-0.422-0.422-1.055 0.422-1.078 1.078-0.445zM8.484 18.984q1.031 0 1.781 0.75t0.75 1.781-0.75 1.758-1.781 0.727-1.758-0.727-0.727-1.758 0.727-1.781 1.758-0.75zM14.484 18q-0.891 0-1.664-0.352t-1.336-1.008q-0.516 0.656-1.313 1.008t-1.688 0.352q-1.453 0-2.555-0.938t-1.383-2.344q-1.125-0.422-1.828-1.43t-0.703-2.273q0-1.688 1.172-2.859t2.813-1.172l0.75 0.094q1.219-1.078 2.766-1.078 0.891 0 1.664 0.352t1.336 1.008q0.516-0.656 1.313-1.008t1.688-0.352q1.453 0 2.555 0.938t1.383 2.344q1.125 0.422 1.828 1.43t0.703 2.273q0 1.688-1.172 2.859t-2.813 1.172l-0.75-0.094q-1.219 1.078-2.766 1.078zM6 9q-0.844 0-1.43 0.586t-0.586 1.406 0.586 1.406 1.43 0.586q0.469 0 0.938-0.188-0.422 0.516-0.422 1.219 0 0.797 0.586 1.383t1.453 0.586 1.43-0.656l1.5-1.688 1.5 1.688q0.656 0.656 1.5 0.656 0.75 0 1.313-0.469t0.703-1.219q0.563 0.703 1.5 0.703 0.844 0 1.43-0.586t0.586-1.406-0.586-1.406-1.43-0.586q-0.469 0-0.938 0.188 0.422-0.516 0.422-1.219 0-0.797-0.586-1.383t-1.43-0.586-1.453 0.656l-1.547 1.688-1.453-1.688q-0.609-0.656-1.5-0.656-0.75 0-1.313 0.469t-0.703 1.219q-0.563-0.703-1.5-0.703zM8.484 20.484q-0.422 0-0.703 0.305t-0.281 0.727 0.281 0.703 0.703 0.281 0.727-0.281 0.305-0.703-0.305-0.727-0.727-0.305z"></path>
</svg>
