<!-- Generated by IcoMoon.io -->
<svg version="1.1" xmlns="http://www.w3.org/2000/svg" width="24" height="24" viewBox="0 0 24 24">
<title>thought_bubble</title>
<path d="M3.516 21.984q0.609 0 1.055 0.445t0.445 1.078-0.445 1.055-1.078 0.422-1.055-0.422-0.422-1.055 0.422-1.078 1.078-0.445zM8.484 18.984q1.031 0 1.781 0.75t0.75 1.781-0.75 1.758-1.781 0.727-1.758-0.727-0.727-1.758 0.727-1.781 1.758-0.75zM14.484 18q-0.891 0-1.664-0.352t-1.336-1.008q-0.516 0.656-1.313 1.008t-1.688 0.352q-1.453 0-2.555-0.938t-1.383-2.344q-1.125-0.422-1.828-1.43t-0.703-2.273q0-1.688 1.172-2.859t2.813-1.172q0.281 0 0.75 0.094 1.219-1.078 2.766-1.078 0.891 0 1.664 0.352t1.336 1.008q0.516-0.656 1.313-1.008t1.688-0.352q1.453 0 2.555 0.938t1.383 2.344q1.125 0.422 1.828 1.43t0.703 2.273q0 1.688-1.172 2.859t-2.813 1.172l-0.75-0.094q-1.219 1.078-2.766 1.078z"></path>
</svg>
