<!-- Generated by IcoMoon.io -->
<svg version="1.1" xmlns="http://www.w3.org/2000/svg" width="24" height="24" viewBox="0 0 24 24">
<title>thumb_down_outline</title>
<path d="M18.984 18v-12h4.031v12h-4.031zM15 6q0.844 0 1.43 0.586t0.586 1.43v9.984q0 0.844-0.609 1.406l-6.563 6.609-1.078-1.078q-0.422-0.422-0.422-1.078v-0.281l0.984-4.594h-6.328q-0.844 0-1.43-0.586t-0.586-1.383v-2.016q0-0.375 0.141-0.75l3.047-7.031q0.234-0.563 0.727-0.891t1.102-0.328h9zM15 8.016h-9.047l-2.953 6.984v2.016h8.766l-1.125 5.297 4.359-4.359v-9.938z"></path>
</svg>
