<!-- Generated by IcoMoon.io -->
<svg version="1.1" xmlns="http://www.w3.org/2000/svg" width="24" height="24" viewBox="0 0 24 24">
<title>thumbs_up_down1</title>
<path d="M22.5 12.984h-6.75q-0.469 0-0.844 0.258t-0.516 0.68l-2.297 5.297q-0.094 0.234-0.094 0.516v1.266q0 0.422 0.281 0.703t0.703 0.281h5.203l-0.703 3.188v0.234q0 0.469 0.328 0.797l0.797 0.797 4.969-4.922q0.422-0.469 0.422-1.078v-6.516q0-0.609-0.445-1.055t-1.055-0.445zM12 9q0-0.422-0.281-0.703t-0.703-0.281h-5.203l0.703-3.188v-0.234q0-0.469-0.328-0.797l-0.797-0.797-4.969 4.922q-0.422 0.469-0.422 1.078v6.516q0 0.609 0.445 1.055t1.055 0.445h6.75q0.469 0 0.844-0.258t0.516-0.68l2.297-5.297q0.094-0.234 0.094-0.516v-1.266z"></path>
</svg>
