<!-- Generated by IcoMoon.io -->
<svg version="1.1" xmlns="http://www.w3.org/2000/svg" width="24" height="24" viewBox="0 0 24 24">
<title>thumb_up_outline</title>
<path d="M5.016 12v12h-4.031v-12h4.031zM9 24q-0.844 0-1.43-0.586t-0.586-1.43v-9.984q0-0.844 0.609-1.406l6.563-6.609 1.078 1.078q0.422 0.422 0.422 1.031v0.328l-0.984 4.594h6.328q0.844 0 1.43 0.586t0.586 1.383v2.016q0 0.375-0.141 0.75l-3.047 7.031q-0.234 0.563-0.727 0.891t-1.102 0.328h-9zM9 21.984h9.047l2.953-6.984v-2.016h-8.813l1.172-5.297-4.359 4.359v9.938z"></path>
</svg>
