<!-- Generated by IcoMoon.io -->
<svg version="1.1" xmlns="http://www.w3.org/2000/svg" width="24" height="24" viewBox="0 0 24 24">
<title>timer_off1</title>
<path d="M12 23.016q-1.922 0-3.516-0.961t-2.531-2.555-0.938-3.516 0.938-3.469l9.563 9.516q-1.594 0.984-3.516 0.984zM3 6.984l-1.266 1.266 2.766 2.766q-1.5 2.25-1.5 4.969 0 2.438 1.219 4.523t3.281 3.281 4.5 1.195q2.719 0 5.016-1.5l2.484 2.531 1.266-1.266-7.734-7.734zM11.016 12.422l1.969 2.016v-3.422h-1.969v1.406zM15 3.984h-6v2.016h6v-2.016zM19.031 7.547l-1.406 1.406q-2.484-1.969-5.625-1.969-2.719 0-4.969 1.5l1.453 1.453q1.641-0.938 3.539-0.938t3.492 0.938 2.531 2.555 0.938 3.492-0.938 3.516l1.453 1.453q1.5-2.25 1.5-4.969 0-3.141-1.969-5.578l1.406-1.453z"></path>
</svg>
