<!-- Generated by IcoMoon.io -->
<svg version="1.1" xmlns="http://www.w3.org/2000/svg" width="24" height="24" viewBox="0 0 24 24">
<title>timetable</title>
<path d="M14.016 15h1.5v2.813l2.438 1.406-0.75 1.313-3.188-1.828v-3.703zM3.984 5.016h14.016q0.844 0 1.43 0.586t0.586 1.383v6.094q0.938 0.984 1.453 2.25t0.516 2.672q0 1.922-0.938 3.516t-2.531 2.531-3.516 0.938q-1.406 0-2.672-0.516t-2.25-1.453h-6.094q-0.797 0-1.383-0.586t-0.586-1.43v-14.016q0-0.797 0.586-1.383t1.383-0.586zM3.984 18v3h4.688q-0.656-1.406-0.656-3h-4.031zM3.984 11.016h6v-3h-6v3zM18 11.016v-3h-6v3h6zM3.984 15.984h4.313q0.516-1.734 1.781-3h-6.094v3zM15 13.172q-0.984 0-1.875 0.352t-1.57 1.031-1.031 1.57-0.352 1.875q0 2.016 1.406 3.422t3.422 1.406q0.984 0 1.875-0.352t1.57-1.031 1.031-1.57 0.352-1.875q0-2.016-1.406-3.422t-3.422-1.406z"></path>
</svg>
