<!-- Generated by IcoMoon.io -->
<svg version="1.1" xmlns="http://www.w3.org/2000/svg" width="24" height="24" viewBox="0 0 24 24">
<title>timer1</title>
<path d="M12 23.016q-1.922 0-3.516-0.961t-2.531-2.555-0.938-3.492 0.938-3.516 2.531-2.555 3.516-0.938 3.516 0.938 2.531 2.555 0.938 3.516-0.938 3.492-2.531 2.555-3.516 0.961zM19.031 10.406l1.406-1.453q-0.703-0.797-1.406-1.406l-1.406 1.453q-2.484-2.016-5.625-2.016-2.438 0-4.5 1.219t-3.281 3.281-1.219 4.5 1.219 4.523 3.281 3.281 4.5 1.195 4.523-1.195 3.281-3.258 1.195-4.547q0-3.141-1.969-5.578zM11.016 17.016h1.969v-6h-1.969v6zM15 3.984h-6v2.016h6v-2.016z"></path>
</svg>
