<!-- Generated by IcoMoon.io -->
<svg version="1.1" xmlns="http://www.w3.org/2000/svg" width="24" height="24" viewBox="0 0 24 24">
<title>timelapse1</title>
<path d="M12 23.016q-2.156 0-4.008-1.078t-2.93-2.93-1.078-4.008q0-1.594 0.609-3.070t1.734-2.602 2.602-1.734 3.070-0.609 3.070 0.609 2.602 1.734 1.734 2.602 0.609 3.070q0 2.156-1.078 4.008t-2.93 2.93-4.008 1.078zM12 5.016q-1.969 0-3.82 0.75t-3.258 2.156-2.156 3.258-0.75 3.82 0.75 3.82 2.156 3.258 3.258 2.156 3.82 0.75 3.82-0.75 3.258-2.156 2.156-3.258 0.75-3.82-0.75-3.82-2.156-3.258-3.258-2.156-3.82-0.75zM16.219 10.781q-0.844-0.891-1.945-1.336t-2.273-0.445v6l-4.219 4.219q1.125 1.172 2.672 1.57t3.094 0 2.695-1.547 1.547-2.695 0-3.094-1.57-2.672z"></path>
</svg>
