<!-- Generated by IcoMoon.io -->
<svg version="1.1" xmlns="http://www.w3.org/2000/svg" width="24" height="24" viewBox="0 0 24 24">
<title>toggle_switch_outline</title>
<path d="M17.016 12.984q0.797 0 1.383 0.586t0.586 1.43-0.586 1.43-1.406 0.586-1.406-0.586-0.586-1.43 0.586-1.43 1.43-0.586zM17.016 9.984q0.984 0 1.898 0.398t1.617 1.102 1.078 1.617 0.375 1.898q0 1.359-0.656 2.508t-1.805 1.828-2.508 0.68h-10.031q-1.359 0-2.508-0.68t-1.805-1.828-0.656-2.508 0.656-2.508 1.805-1.828 2.508-0.68h10.031zM6.984 12q-1.219 0-2.109 0.867t-0.891 2.133 0.891 2.133 2.109 0.867h10.031q1.219 0 2.109-0.867t0.891-2.133-0.891-2.133-2.109-0.867h-10.031z"></path>
</svg>
