<!-- Generated by IcoMoon.io -->
<svg version="1.1" xmlns="http://www.w3.org/2000/svg" width="24" height="24" viewBox="0 0 24 24">
<title>tooltip_plus_outline</title>
<path d="M3.984 5.016h16.031q0.797 0 1.383 0.586t0.586 1.383v12q0 0.844-0.586 1.43t-1.383 0.586h-4.031l-3.984 3.984-3.984-3.984h-4.031q-0.797 0-1.383-0.586t-0.586-1.43v-12q0-0.797 0.586-1.383t1.383-0.586zM3.984 6.984v12h4.828l3.188 3.188 3.188-3.188h4.828v-12h-16.031zM11.016 9h1.969v3h3v2.016h-3v3h-1.969v-3h-3v-2.016h3v-3z"></path>
</svg>
