<!-- Generated by IcoMoon.io -->
<svg version="1.1" xmlns="http://www.w3.org/2000/svg" width="24" height="24" viewBox="0 0 24 24">
<title>toolbox_outline</title>
<path d="M20.016 21v-3.984h-3v0.984h-2.016v-0.984h-6v0.984h-2.016v-0.984h-3v3.984h16.031zM6.328 11.016l-1.734 3.984h2.391v-0.984h2.016v0.984h6v-0.984h2.016v0.984h2.391l-1.734-3.984h-11.344zM9 8.016v0.984h6v-0.984h-6zM21.844 15.609q0.141 0.375 0.141 0.797v4.594q0 0.797-0.586 1.406t-1.383 0.609h-16.031q-0.797 0-1.383-0.609t-0.586-1.406v-4.594q0-0.422 0.141-0.797l2.344-5.391q0.516-1.219 1.828-1.219h0.656v-0.984q0-0.844 0.586-1.43t1.43-0.586h6q0.844 0 1.43 0.586t0.586 1.43v0.984h0.656q1.313 0 1.828 1.219z"></path>
</svg>
