<!-- Generated by IcoMoon.io -->
<svg version="1.1" xmlns="http://www.w3.org/2000/svg" width="24" height="24" viewBox="0 0 24 24">
<title>tools</title>
<path d="M21.703 23.297l-1.406 1.406q-0.281 0.281-0.703 0.281t-0.703-0.281l-11.906-11.859q-0.469 0.141-0.984 0.141-0.984 0-1.828-0.445t-1.406-1.219-0.703-1.734 0.141-1.898l2.578 2.531 2.438-2.438-2.531-2.578q0.938-0.281 1.898-0.141t1.734 0.703 1.219 1.406 0.445 1.828q0 0.516-0.141 0.984l11.859 11.906q0.281 0.281 0.281 0.703t-0.281 0.703zM2.297 21.891q-0.281 0.281-0.281 0.703t0.281 0.703l1.406 1.406q0.281 0.281 0.703 0.281t0.703-0.281l5.484-5.438-2.813-2.859zM20.016 5.016l-4.031 1.969v2.016l-2.156 2.156 2.016 2.016 2.156-2.156h2.016l1.969-4.031z"></path>
</svg>
