<!-- Generated by IcoMoon.io -->
<svg version="1.1" xmlns="http://www.w3.org/2000/svg" width="24" height="24" viewBox="0 0 24 24">
<title>toolbox</title>
<path d="M9 8.016v0.984h6v-0.984h-6zM21.984 21q0 0.797-0.586 1.406t-1.383 0.609h-16.031q-0.797 0-1.383-0.609t-0.586-1.406v-3.984h4.969v0.984h2.016v-0.984h6v0.984h2.016v-0.984h4.969v3.984zM4.5 10.219q0.516-1.219 1.828-1.219h0.656v-0.984q0-0.844 0.586-1.43t1.43-0.586h6q0.844 0 1.43 0.586t0.586 1.43v0.984h0.656q1.313 0 1.828 1.219l2.063 4.781h-4.547v-0.984h-2.016v0.984h-6v-0.984h-2.016v0.984h-4.547z"></path>
</svg>
