<!-- Generated by IcoMoon.io -->
<svg version="1.1" xmlns="http://www.w3.org/2000/svg" width="24" height="24" viewBox="0 0 24 24">
<title>tooth_outline</title>
<path d="M6.984 5.016q-1.406 0-2.625 0.891-1.078 0.797-1.711 2.18t-0.633 2.93 0.609 3.375 1.359 2.625q0.281 0.234 0.563 1.078 0.188 0.516 0.609 1.828 0.75 2.438 1.219 3.422 0.797 1.641 1.641 1.641 1.266 0 1.969-0.703 0.563-0.609 0.797-1.734 0.141-0.703 0.234-2.109 0.094-1.266 0.234-1.734 0.234-0.703 0.75-0.703t0.75 0.703q0.141 0.469 0.234 1.734 0.094 1.406 0.234 2.109 0.234 1.125 0.797 1.734 0.703 0.703 1.969 0.703 0.844 0 1.641-1.641 0.469-0.984 1.219-3.422 0.422-1.313 0.609-1.828 0.281-0.844 0.563-1.078 0.75-0.797 1.359-2.625t0.609-3.375-0.633-2.93-1.711-2.18q-1.219-0.891-2.625-0.891-1.125 0-1.922 0.188-0.469 0.094-1.172 0.375-0.516 0.234-0.797 0.281-0.516 0.141-1.125 0.141t-1.125-0.141q-0.281-0.047-0.797-0.281-0.703-0.281-1.172-0.375-0.797-0.188-1.922-0.188zM6.984 6.984q0.703 0 1.359 0.188 0.422 0.094 1.172 0.328t1.125 0.328q0.703 0.188 1.359 0.188t1.359-0.188q0.375-0.094 1.125-0.328t1.172-0.328q0.656-0.188 1.359-0.188 1.219 0 2.109 1.242t0.891 2.789q0 1.313-0.563 2.813t-1.266 2.25q-0.281 0.281-0.703 1.453-0.281 0.703-0.797 2.344-0.469 1.594-0.656 2.156-0.328 0.891-0.516 0.891t-0.352-0.703-0.164-1.641q0-1.875-0.609-3.047-0.75-1.547-2.391-1.547t-2.391 1.547q-0.609 1.172-0.609 3.047 0 0.938-0.164 1.641t-0.352 0.703-0.516-0.891q-0.188-0.563-0.656-2.156-0.516-1.641-0.797-2.344-0.422-1.172-0.703-1.453-0.703-0.75-1.266-2.25t-0.563-2.813q0-1.547 0.891-2.789t2.109-1.242z"></path>
</svg>
