<!-- Generated by IcoMoon.io -->
<svg version="1.1" xmlns="http://www.w3.org/2000/svg" width="24" height="24" viewBox="0 0 24 24">
<title>tournament</title>
<path d="M2.016 5.016v1.969h4.969v4.031h-4.969v1.969h4.969q0.844 0 1.43-0.586t0.586-1.383v-1.031h5.016v10.031h-5.016v-1.031q0-0.797-0.586-1.383t-1.43-0.586h-4.969v1.969h4.969v4.031h-4.969v1.969h4.969q0.844 0 1.43-0.586t0.586-1.383v-1.031h5.016q0.797 0 1.383-0.586t0.586-1.383v-4.031h6v-1.969h-6v-4.031q0-0.797-0.586-1.383t-1.383-0.586h-5.016v-1.031q0-0.797-0.586-1.383t-1.43-0.586h-4.969z"></path>
</svg>
