<!-- Generated by IcoMoon.io -->
<svg version="1.1" xmlns="http://www.w3.org/2000/svg" width="24" height="24" viewBox="0 0 24 24">
<title>towing</title>
<path d="M15 12.984h5.391l-3.328-3.984h-2.063v3.984zM17.484 21.516q0.609 0 1.055-0.445t0.445-1.055-0.445-1.055-1.055-0.445-1.055 0.445-0.445 1.055 0.445 1.055 1.055 0.445zM6 21.516q0.656 0 1.078-0.445t0.422-1.055-0.422-1.055-1.078-0.445-1.078 0.445-0.422 1.055 0.422 1.055 1.078 0.445zM18 6.984l5.016 6v7.031h-2.531q0 1.219-0.891 2.109t-2.109 0.891-2.109-0.891-0.891-2.109h-5.484q0 1.219-0.891 2.109t-2.109 0.891-2.109-0.891-0.891-2.109h-2.016v-4.031h8.203l-6.188-4.875v2.906h-2.016v-6h1.031l10.969 6.047v-7.078h5.016z"></path>
</svg>
