<!-- Generated by IcoMoon.io -->
<svg version="1.1" xmlns="http://www.w3.org/2000/svg" width="24" height="24" viewBox="0 0 24 24">
<title>tractor</title>
<path d="M5.016 6.984v7.266q-1.359 0.469-2.18 1.641t-0.82 2.625q0 1.875 1.313 3.188t3.188 1.313q1.688 0 2.977-1.148t1.477-2.883h4.219q-0.188 0.516-0.188 1.031 0 1.219 0.867 2.109t2.133 0.891 2.133-0.891 0.867-2.109q0-0.516-0.188-1.031h1.172v-3q0-0.797-0.586-1.383t-1.383-0.586h-4.969l-1.406-7.031h-8.625zM6.984 9h5.016l0.984 5.016v3h-2.25q-0.422-1.219-1.43-2.016t-2.32-0.984v-5.016zM6.516 16.266q0.938 0 1.594 0.656t0.656 1.594-0.656 1.594-1.594 0.656-1.594-0.656-0.656-1.594 0.656-1.594 1.594-0.656zM18 18.516q0.609 0 1.055 0.422t0.445 1.055-0.445 1.078-1.055 0.445-1.055-0.445-0.445-1.078 0.445-1.055 1.055-0.422z"></path>
</svg>
