<!-- Generated by IcoMoon.io -->
<svg version="1.1" xmlns="http://www.w3.org/2000/svg" width="24" height="24" viewBox="0 0 24 24">
<title>trackpad_lock</title>
<path d="M3 3.984q-0.844 0-1.43 0.586t-0.586 1.43v14.016q0 0.797 0.586 1.383t1.43 0.586h11.016v-1.969h-2.016v-4.031h4.688q1.266-0.984 2.813-0.984 0.75 0 1.5 0.281v-9.281q0-0.844-0.586-1.43t-1.43-0.586h-15.984zM3 6h15.984v8.016h-15.984v-8.016zM3 15.984h6.984v4.031h-6.984v-4.031zM19.5 17.016q-1.031 0-1.758 0.727t-0.727 1.758v0.516q-0.422 0-0.727 0.281t-0.305 0.703v3.984q0 0.422 0.305 0.727t0.727 0.305h4.969q0.422 0 0.727-0.305t0.305-0.727v-3.984q0-0.422-0.305-0.703t-0.727-0.281v-0.516q0-1.031-0.727-1.758t-1.758-0.727zM19.5 18q0.609 0 1.055 0.445t0.445 1.055v0.516h-3v-0.516q0-0.609 0.445-1.055t1.055-0.445z"></path>
</svg>
