<!-- Generated by IcoMoon.io -->
<svg version="1.1" xmlns="http://www.w3.org/2000/svg" width="24" height="24" viewBox="0 0 24 24">
<title>traffic_light</title>
<path d="M12 12q-0.844 0-1.43-0.586t-0.586-1.406 0.586-1.406 1.43-0.586 1.43 0.586 0.586 1.406-0.586 1.406-1.43 0.586zM12 17.016q-0.844 0-1.43-0.586t-0.586-1.43 0.586-1.43 1.43-0.586 1.43 0.586 0.586 1.43-0.586 1.43-1.43 0.586zM12 21.984q-0.844 0-1.43-0.586t-0.586-1.406 0.586-1.406 1.43-0.586 1.43 0.586 0.586 1.406-0.586 1.406-1.43 0.586zM20.016 12.984h-3v-1.125q1.313-0.328 2.156-1.406t0.844-2.438h-3v-1.031q0-0.422-0.305-0.703t-0.727-0.281h-7.969q-0.422 0-0.727 0.281t-0.305 0.703v1.031h-3q0 1.359 0.844 2.438t2.156 1.406v1.125h-3q0 1.406 0.844 2.461t2.156 1.43v1.125h-3q0 1.359 0.844 2.438t2.156 1.406v1.172q0 0.422 0.305 0.703t0.727 0.281h7.969q0.422 0 0.727-0.281t0.305-0.703v-1.172q1.313-0.328 2.156-1.406t0.844-2.438h-3v-1.125q1.313-0.375 2.156-1.43t0.844-2.461z"></path>
</svg>
