<!-- Generated by IcoMoon.io -->
<svg version="1.1" xmlns="http://www.w3.org/2000/svg" width="24" height="24" viewBox="0 0 24 24">
<title>tram_side</title>
<path d="M9 3.984l-3.984 3 2.484 2.016h-2.484l-0.469 0.047q-0.563 0.094-1.031 0.328-0.656 0.328-1.031 0.891-0.469 0.703-0.469 1.734v9.984h4.969l0.094-0.516q0.141-0.563 0.516-0.938 0.516-0.516 1.406-0.516h12.984v-3h-3.984v-6h3.984v-2.016h-11.484l2.484-2.016zM3.984 11.016h5.016v6h-5.016v-6zM11.016 11.016h4.969v6h-4.969v-6zM3.984 18.984h1.031v2.016h-1.031v-2.016zM9 21.984v0.516q0 1.031 0.727 1.758t1.758 0.727q0.75 0 1.383-0.398t0.914-1.102h1.406q0.328 0.703 0.938 1.102t1.359 0.398q1.031 0 1.781-0.727t0.75-1.758v-0.516h-11.016z"></path>
</svg>
