<!-- Generated by IcoMoon.io -->
<svg version="1.1" xmlns="http://www.w3.org/2000/svg" width="24" height="24" viewBox="0 0 24 24">
<title>transcribe</title>
<path d="M20.016 8.016q0.797 0 1.383 0.586t0.586 1.383v10.031q0 0.797-0.586 1.383t-1.383 0.586h-16.031q-0.797 0-1.383-0.586t-0.586-1.383v-10.031q0-0.797 0.586-1.383t1.383-0.586h16.031zM18 20.016v-2.016h-5.484l-2.016 2.016h7.5zM6 20.016h2.484l6.844-6.891q0.188-0.141 0.188-0.352t-0.188-0.352l-1.734-1.781q-0.141-0.141-0.352-0.141t-0.352 0.141l-6.891 6.891v2.484z"></path>
</svg>
