<!-- Generated by IcoMoon.io -->
<svg version="1.1" xmlns="http://www.w3.org/2000/svg" width="24" height="24" viewBox="0 0 24 24">
<title>transit_detour</title>
<path d="M18.984 6q-0.703 0-1.336 0.328t-1.055 0.891q-1.406-0.281-2.859-0.234l0.141 2.016q1.078-0.047 2.109 0.141 0.047 1.219 0.961 2.063t2.133 0.797 2.086-0.938 0.844-2.109-0.891-2.086-2.133-0.867zM18.984 9.984q-0.422 0-0.703-0.281t-0.281-0.703 0.281-0.703 0.703-0.281 0.727 0.281 0.305 0.703-0.305 0.703-0.727 0.281zM8.859 10.875l-1.172-1.641q1.781-1.313 3.891-1.875l0.516 1.969q-1.781 0.422-3.234 1.547zM21 21q0 0.984-0.586 1.781t-1.523 1.102-1.875-0.023-1.5-1.172-0.516-1.828 0.703-1.734q-1.453-1.406-3.305-2.086t-3.82-0.586q-0.281 0-0.656 0.094-0.188 1.125-1.078 1.828t-2.016 0.633-1.945-0.867-0.891-1.922 0.609-2.039 1.805-1.102q0.656-1.313 1.641-2.391l1.453 1.359q-0.563 0.656-0.984 1.359 0.703 0.422 1.125 1.172 0.141-0.047 0.516-0.094l0.328-0.047q2.531-0.094 4.875 0.844t4.078 2.766q0.281-0.047 0.563-0.047 1.266 0 2.133 0.867t0.867 2.133z"></path>
</svg>
