<!-- Generated by IcoMoon.io -->
<svg version="1.1" xmlns="http://www.w3.org/2000/svg" width="24" height="24" viewBox="0 0 24 24">
<title>transit_transfer</title>
<path d="M16.5 18.516h5.484v1.5h-5.484v1.734l-2.484-2.484 2.484-2.531v1.781zM19.5 22.734v-1.734l2.484 2.484-2.484 2.531v-1.781h-5.484v-1.5h5.484zM9.516 8.484q-0.844 0-1.43-0.586t-0.586-1.406 0.586-1.406 1.406-0.586 1.406 0.586 0.586 1.406-0.586 1.406-1.383 0.586zM5.766 11.906l-1.781 0.75v3.328h-1.969v-4.688l5.25-2.156q0.375-0.141 0.75-0.141 0.516 0 0.961 0.258t0.727 0.68l0.938 1.594q0.703 1.125 1.852 1.805t2.508 0.68v1.969q-1.641 0-3.047-0.68t-2.391-1.898l-0.609 3 2.063 2.063v7.547h-2.016v-6l-2.156-2.016-1.734 8.016h-2.109z"></path>
</svg>
