<!-- Generated by IcoMoon.io -->
<svg version="1.1" xmlns="http://www.w3.org/2000/svg" width="24" height="24" viewBox="0 0 24 24">
<title>transit_connection_variant</title>
<path d="M18 14.016h-3.188q-0.328-0.891-1.102-1.453t-1.711-0.563-1.711 0.563-1.102 1.453h-3.188q-0.609 0-1.125-0.281-0.891-0.516-0.891-1.734v-0.984q0-1.172 0.844-1.688 0.516-0.328 1.172-0.328h10.172q0.328 0.891 1.102 1.453t1.711 0.563q1.266 0 2.133-0.891t0.867-2.133-0.867-2.109-2.133-0.867q-0.938 0-1.711 0.539t-1.102 1.43h-10.172q-1.453 0-2.625 0.891-1.359 1.125-1.359 3.141v0.984q0 2.016 1.359 3.094 1.172 0.891 2.625 0.891h3.188q0.328 0.891 1.102 1.453t1.711 0.563 1.711-0.563 1.102-1.453h3.188q0.609 0 1.125 0.281 0.891 0.516 0.891 1.734v0.984q0 1.172-0.844 1.688-0.516 0.328-1.172 0.328h-10.172q-0.328-0.891-1.102-1.453t-1.711-0.563q-1.266 0-2.133 0.891t-0.867 2.133 0.867 2.109 2.133 0.867q0.938 0 1.711-0.539t1.102-1.43h10.172q1.453 0 2.625-0.938 1.359-1.078 1.359-3.094v-0.984q0-1.969-1.359-3.094-1.172-0.891-2.625-0.891zM18.984 6.984q0.422 0 0.727 0.305t0.305 0.727-0.305 0.703-0.727 0.281-0.703-0.281-0.281-0.703 0.281-0.727 0.703-0.305zM5.016 23.016q-0.422 0-0.727-0.305t-0.305-0.727 0.305-0.703 0.727-0.281 0.703 0.281 0.281 0.703-0.281 0.727-0.703 0.305z"></path>
</svg>
