<!-- Generated by IcoMoon.io -->
<svg version="1.1" xmlns="http://www.w3.org/2000/svg" width="24" height="24" viewBox="0 0 24 24">
<title>transit_connection</title>
<path d="M15 15q0-0.938-0.563-1.711t-1.453-1.102v-2.391q0.891-0.281 1.453-1.055t0.563-1.758q0-1.219-0.867-2.109t-2.133-0.891-2.133 0.891-0.867 2.109q0 0.984 0.563 1.758t1.453 1.055v2.391q-0.891 0.328-1.453 1.102t-0.563 1.711 0.563 1.711 1.453 1.102v2.391q-0.891 0.281-1.453 1.055t-0.563 1.758q0 1.219 0.867 2.109t2.133 0.891 2.133-0.891 0.867-2.109q0-0.984-0.563-1.758t-1.453-1.055v-2.391q0.891-0.328 1.453-1.102t0.563-1.711zM12 6q0.422 0 0.703 0.281t0.281 0.703-0.281 0.727-0.703 0.305-0.703-0.305-0.281-0.727 0.281-0.703 0.703-0.281zM12 24q-0.422 0-0.703-0.281t-0.281-0.703 0.281-0.727 0.703-0.305 0.703 0.305 0.281 0.727-0.281 0.703-0.703 0.281z"></path>
</svg>
