<!-- Generated by IcoMoon.io -->
<svg version="1.1" xmlns="http://www.w3.org/2000/svg" width="24" height="24" viewBox="0 0 24 24">
<title>truck_check</title>
<path d="M3 6.984h14.016v4.031h3l3 3.984v5.016h-2.016q0 1.219-0.867 2.109t-2.133 0.891-2.133-0.891-0.867-2.109h-6q0 1.219-0.867 2.109t-2.133 0.891-2.133-0.891-0.867-2.109h-2.016v-11.016q0-0.844 0.586-1.43t1.43-0.586zM17.016 12.516v2.484h4.453l-1.969-2.484h-2.484zM6 18.516q-0.609 0-1.055 0.422t-0.445 1.055 0.445 1.078 1.055 0.445 1.055-0.445 0.445-1.078-0.445-1.055-1.055-0.422zM18 18.516q-0.609 0-1.055 0.422t-0.445 1.055 0.445 1.078 1.055 0.445 1.055-0.445 0.445-1.078-0.445-1.055-1.055-0.422zM8.016 17.016l6-6-1.406-1.453-4.594 4.594-2.109-2.063-1.406 1.406z"></path>
</svg>
