<!-- Generated by IcoMoon.io -->
<svg version="1.1" xmlns="http://www.w3.org/2000/svg" width="24" height="24" viewBox="0 0 24 24">
<title>truck_fast</title>
<path d="M3 16.5l-0.75-1.5h5.25l-0.609-1.5h-4.875l-0.75-1.5h7.781l-0.609-1.5h-7.313l-0.891-1.5h3.75q0-0.844 0.586-1.43t1.43-0.586h12v4.031h3l3 3.984v5.016h-2.016q0 1.219-0.867 2.109t-2.109 0.891-2.133-0.891-0.891-2.109h-3.984q0 1.219-0.867 2.109t-2.133 0.891-2.133-0.891-0.867-2.109h-2.016v-3.516h-0.984zM18.984 21.516q0.656 0 1.078-0.445t0.422-1.078-0.422-1.055-1.055-0.422-1.078 0.422-0.445 1.055 0.445 1.078 1.055 0.445zM20.484 12.516h-2.484v2.484h4.453zM9 21.516q0.609 0 1.055-0.445t0.445-1.078-0.445-1.055-1.055-0.422-1.055 0.422-0.445 1.055 0.445 1.078 1.055 0.445z"></path>
</svg>
