<!-- Generated by IcoMoon.io -->
<svg version="1.1" xmlns="http://www.w3.org/2000/svg" width="24" height="24" viewBox="0 0 24 24">
<title>truck</title>
<path d="M18 21.516q-0.609 0-1.055-0.445t-0.445-1.078 0.445-1.055 1.055-0.422 1.055 0.422 0.445 1.055-0.445 1.078-1.055 0.445zM19.5 12.516l1.969 2.484h-4.453v-2.484h2.484zM6 21.516q-0.609 0-1.055-0.445t-0.445-1.078 0.445-1.055 1.055-0.422 1.055 0.422 0.445 1.055-0.445 1.078-1.055 0.445zM20.016 11.016h-3v-4.031h-14.016q-0.844 0-1.43 0.586t-0.586 1.43v11.016h2.016q0 1.219 0.867 2.109t2.133 0.891 2.133-0.891 0.867-2.109h6q0 1.219 0.867 2.109t2.133 0.891 2.133-0.891 0.867-2.109h2.016v-5.016z"></path>
</svg>
