<!-- Generated by IcoMoon.io -->
<svg version="1.1" xmlns="http://www.w3.org/2000/svg" width="24" height="24" viewBox="0 0 24 24">
<title>truck_delivery</title>
<path d="M3 6.984q-0.844 0-1.43 0.586t-0.586 1.43v11.016h2.016q0 1.219 0.867 2.109t2.133 0.891 2.133-0.891 0.867-2.109h6q0 1.219 0.867 2.109t2.133 0.891 2.133-0.891 0.867-2.109h2.016v-5.016l-3-3.984h-3v-4.031h-14.016zM9.984 9l4.031 3.984-4.031 4.031v-3h-6v-2.016h6v-3zM17.016 12.516h2.484l1.969 2.484h-4.453v-2.484zM6 18.516q0.609 0 1.055 0.422t0.445 1.055-0.445 1.078-1.055 0.445-1.055-0.445-0.445-1.078 0.445-1.055 1.055-0.422zM18 18.516q0.609 0 1.055 0.422t0.445 1.055-0.445 1.078-1.055 0.445-1.055-0.445-0.445-1.078 0.445-1.055 1.055-0.422z"></path>
</svg>
