<!-- Generated by IcoMoon.io -->
<svg version="1.1" xmlns="http://www.w3.org/2000/svg" width="24" height="24" viewBox="0 0 24 24">
<title>ungroup</title>
<path d="M2.016 5.016h3.984v0.984h6.984v-0.984h4.031v3.984h-1.031v3h2.016v-0.984h3.984v3.984h-0.984v6h0.984v3.984h-3.984v-0.984h-6v0.984h-3.984v-3.984h0.984v-2.016h-3v1.031h-3.984v-4.031h0.984v-6.984h-0.984v-3.984zM18 15v-0.984h-2.016v1.969h1.031v4.031h-4.031v-1.031h-1.969v2.016h0.984v0.984h6v-0.984h0.984v-6h-0.984zM12.984 9v-0.984h-6.984v0.984h-0.984v6.984h0.984v1.031h3v-2.016h-0.984v-3.984h3.984v0.984h2.016v-3h-1.031zM12 15h-0.984v2.016h1.969v-1.031h1.031v-1.969h-2.016v0.984z"></path>
</svg>
