<!-- Generated by IcoMoon.io -->
<svg version="1.1" xmlns="http://www.w3.org/2000/svg" width="24" height="24" viewBox="0 0 24 24">
<title>update1</title>
<path d="M21 13.125h-6.797l2.766-2.813q-1.359-1.359-3.164-1.852t-3.586-0.047-3.141 1.781-1.828 3.117 0 3.563 1.828 3.117 3.141 1.805 3.586 0 3.164-1.781q2.016-2.063 2.016-4.922h2.016q0 1.594-0.656 3.234-0.703 1.828-1.969 3.047-1.734 1.734-4.055 2.32t-4.641 0-4.031-2.297-2.32-4.008-0.023-4.594 2.32-3.984 4.031-2.297 4.594 0 4.031 2.297l2.719-2.813v7.125zM12.516 11.016v4.219l3.469 2.109-0.703 1.219-4.266-2.578v-4.969h1.5z"></path>
</svg>
