<!-- Generated by IcoMoon.io -->
<svg version="1.1" xmlns="http://www.w3.org/2000/svg" width="24" height="24" viewBox="0 0 24 24">
<title>usb1</title>
<path d="M15 9.984v4.031h0.984v1.969h-3v-7.969h2.016l-3-4.031-3 4.031h2.016v7.969h-3v-2.063q0.516-0.281 0.844-0.797t0.328-1.125q0-0.891-0.633-1.547t-1.547-0.656-1.57 0.633-0.656 1.57q0 0.609 0.328 1.125t0.891 0.797v2.063q0 0.844 0.586 1.43t1.43 0.586h3v3.047q-0.563 0.281-0.891 0.797t-0.328 1.172q0 0.891 0.656 1.547t1.547 0.656 1.547-0.656 0.656-1.547q0-0.656-0.328-1.172t-0.891-0.797v-3.047h3q0.844 0 1.43-0.586t0.586-1.43v-1.969h0.984v-4.031h-3.984z"></path>
</svg>
