<!-- Generated by IcoMoon.io -->
<svg version="1.1" xmlns="http://www.w3.org/2000/svg" width="24" height="24" viewBox="0 0 24 24">
<title>van_utility</title>
<path d="M3 9.984q-0.844 0-1.43 0.586t-0.586 1.43v8.016h2.016q0 1.219 0.867 2.109t2.133 0.891 2.133-0.891 0.867-2.109h6q0 1.219 0.867 2.109t2.133 0.891 2.133-0.891 0.867-2.109h2.016v-4.031q0-0.797-0.586-1.383t-1.43-0.586l-3-4.031h-15zM15 11.484h2.484l1.969 2.531h-4.453v-2.531zM6 18.516q0.609 0 1.055 0.422t0.445 1.055-0.445 1.078-1.055 0.445-1.055-0.445-0.445-1.078 0.445-1.055 1.055-0.422zM18 18.516q0.609 0 1.055 0.422t0.445 1.055-0.445 1.078-1.055 0.445-1.055-0.445-0.445-1.078 0.445-1.055 1.055-0.422z"></path>
</svg>
