<!-- Generated by IcoMoon.io -->
<svg version="1.1" xmlns="http://www.w3.org/2000/svg" width="24" height="24" viewBox="0 0 24 24">
<title>vector_ellipse</title>
<path d="M23.016 12v6h-2.672q-0.703 1.594-2.109 2.789t-3.234 1.758v2.438h-6v-2.438q-2.672-0.844-4.336-2.906t-1.664-4.641q0-2.156 1.219-4.008t3.281-2.93 4.5-1.078q2.813 0 5.063 1.383t3.281 3.633h2.672zM17.016 18v-6h1.031q-0.891-1.359-2.508-2.18t-3.539-0.82-3.516 0.797-2.531 2.18-0.938 3.023q0 1.781 1.102 3.234t2.883 2.203v-1.453h6v1.453q1.969-0.797 3.047-2.438h-1.031zM18.984 15.984h2.016v-1.969h-2.016v1.969zM11.016 23.016h1.969v-2.016h-1.969v2.016z"></path>
</svg>
