<!-- Generated by IcoMoon.io -->
<svg version="1.1" xmlns="http://www.w3.org/2000/svg" width="24" height="24" viewBox="0 0 24 24">
<title>vector_arrange_below</title>
<path d="M20.016 24.984q0.797 0 1.383-0.586t0.586-1.383v-11.016q0-0.844-0.586-1.43t-1.383-0.586h-11.016q-0.844 0-1.43 0.586t-0.586 1.43v11.016q0 0.797 0.586 1.383t1.43 0.586h11.016zM20.016 23.016h-11.016v-11.016h11.016v11.016zM5.016 18.984v-1.969h-2.016v-11.016h11.016v2.016h1.969v-2.016q0-0.844-0.586-1.43t-1.383-0.586h-11.016q-0.844 0-1.43 0.586t-0.586 1.43v11.016q0 0.797 0.586 1.383t1.43 0.586h2.016z"></path>
</svg>
