<!-- Generated by IcoMoon.io -->
<svg version="1.1" xmlns="http://www.w3.org/2000/svg" width="24" height="24" viewBox="0 0 24 24">
<title>vector_difference_ba</title>
<path d="M20.016 24.984q0.797 0 1.383-0.586t0.586-1.383v-2.016h-1.969v2.016h-2.016v1.969h2.016zM15.984 24.984v-1.969h-3v1.969h3zM11.016 24.984v-1.969h-2.016v-2.016h-2.016v2.016q0 0.797 0.586 1.383t1.43 0.586h2.016zM21.984 18.984v-3h-1.969v3h1.969zM9 18.984v-6.984h6.984v-6q0-0.844-0.586-1.43t-1.383-0.586h-11.016q-0.844 0-1.43 0.586t-0.586 1.43v11.016q0 0.797 0.586 1.383t1.43 0.586h6zM6.984 17.016h-3.984v-11.016h11.016v3.984h-5.016q-0.844 0-1.43 0.586t-0.586 1.43v5.016zM21.984 14.016v-2.016q0-0.844-0.586-1.43t-1.383-0.586h-2.016v2.016h2.016v2.016h1.969z"></path>
</svg>
