<!-- Generated by IcoMoon.io -->
<svg version="1.1" xmlns="http://www.w3.org/2000/svg" width="24" height="24" viewBox="0 0 24 24">
<title>vector_combine</title>
<path d="M3 3.984q-0.844 0-1.43 0.586t-0.586 1.43v11.016q0 0.797 0.586 1.383t1.43 0.586h3.984v4.031q0 0.797 0.586 1.383t1.43 0.586h11.016q0.797 0 1.383-0.586t0.586-1.383v-11.016q0-0.844-0.586-1.43t-1.383-0.586h-4.031v-3.984q0-0.844-0.586-1.43t-1.383-0.586h-11.016zM3 6h11.016v3.984h-5.016q-0.844 0-1.43 0.586t-0.586 1.43v5.016h-3.984v-11.016zM9 12h5.016v5.016h-5.016v-5.016zM15.984 12h4.031v11.016h-11.016v-4.031h5.016q0.797 0 1.383-0.586t0.586-1.383v-5.016z"></path>
</svg>
