<!-- Generated by IcoMoon.io -->
<svg version="1.1" xmlns="http://www.w3.org/2000/svg" width="24" height="24" viewBox="0 0 24 24">
<title>vector_square</title>
<path d="M2.016 5.016h6v1.969h7.969v-1.969h6v6h-1.969v7.969h1.969v6h-6v-1.969h-7.969v1.969h-6v-6h1.969v-7.969h-1.969v-6zM15.984 11.016v-2.016h-7.969v2.016h-2.016v7.969h2.016v2.016h7.969v-2.016h2.016v-7.969h-2.016zM3.984 6.984v2.016h2.016v-2.016h-2.016zM18 6.984v2.016h2.016v-2.016h-2.016zM3.984 21v2.016h2.016v-2.016h-2.016zM18 21v2.016h2.016v-2.016h-2.016z"></path>
</svg>
