<!-- Generated by IcoMoon.io -->
<svg version="1.1" xmlns="http://www.w3.org/2000/svg" width="24" height="24" viewBox="0 0 24 24">
<title>vector_polyline</title>
<path d="M15.984 5.016v6h1.078l-2.109 4.969h-0.703l-2.25-3v-4.969h-6v6h0.891l-2.016 4.969h-2.859v6h6v-6h-0.984l2.016-4.969h1.219l1.734 2.297v5.672h6v-6h-0.891l2.156-4.969h2.719v-6h-6zM18 6.984h2.016v2.016h-2.016v-2.016zM8.016 9.984h1.969v2.016h-1.969v-2.016zM14.016 18h1.969v2.016h-1.969v-2.016zM3.984 21h2.016v2.016h-2.016v-2.016z"></path>
</svg>
