<!-- Generated by IcoMoon.io -->
<svg version="1.1" xmlns="http://www.w3.org/2000/svg" width="24" height="24" viewBox="0 0 24 24">
<title>vector_curve</title>
<path d="M18.516 5.016q0.609 0 1.055 0.422t0.445 1.055-0.445 1.078-1.055 0.445q-0.375 0-0.656-0.188l-3.703 3.703 0.328 0.469q3.469-2.016 7.5-2.016l1.031 0.047v2.016l-1.031-0.047q-3.844 0-6.984 2.063 0 1.641-1.148 2.789t-2.789 1.148q-2.063 3.141-2.063 6.984l0.047 1.031h-2.016l-0.047-1.031q0-4.031 2.016-7.5l-0.469-0.328-3.703 3.703q0.188 0.281 0.188 0.656 0 0.609-0.445 1.055t-1.078 0.445-1.055-0.445-0.422-1.078 0.422-1.055 1.078-0.422q0.328 0 0.656 0.141l3.656-3.703q-0.844-1.078-0.844-2.438 0-1.688 1.172-2.859t2.859-1.172q1.359 0 2.438 0.844l3.703-3.656q-0.141-0.328-0.141-0.656 0-0.656 0.422-1.078t1.078-0.422zM11.016 12q-0.844 0-1.43 0.586t-0.586 1.406 0.586 1.406 1.406 0.586 1.406-0.586 0.586-1.406-0.586-1.406-1.383-0.586z"></path>
</svg>
