<!-- Generated by IcoMoon.io -->
<svg version="1.1" xmlns="http://www.w3.org/2000/svg" width="24" height="24" viewBox="0 0 24 24">
<title>vector_selection</title>
<path d="M3 3.984h2.016v2.016h-2.016v2.016h-2.016v-2.016q0-0.844 0.586-1.43t1.43-0.586zM14.016 3.984q0.797 0 1.383 0.586t0.586 1.43v2.016h-1.969v-2.016h-2.016v-2.016h2.016zM20.016 9.984q0.797 0 1.383 0.586t0.586 1.43v2.016h-1.969v-2.016h-2.016v-2.016h2.016zM21.984 23.016q0 0.797-0.586 1.383t-1.383 0.586h-2.016v-1.969h2.016v-2.016h1.969v2.016zM20.016 15.984h1.969v3h-1.969v-3zM12.984 12v-2.016h3v3h-1.969v-0.984h-1.031zM12.984 24.984v-1.969h3v1.969h-3zM9 24.984q-0.844 0-1.43-0.586t-0.586-1.383v-2.016h2.016v2.016h2.016v1.969h-2.016zM6.984 18.984v-3h2.016v1.031h0.984v1.969h-3zM6.984 6v-2.016h3v2.016h-3zM3 18.984q-0.844 0-1.43-0.586t-0.586-1.383v-2.016h2.016v2.016h2.016v1.969h-2.016zM0.984 9.984h2.016v3h-2.016v-3zM9 9.984h2.016v2.016h-2.016v2.016h-2.016v-2.016q0-0.844 0.586-1.43t1.43-0.586zM15.984 17.016q0 0.797-0.586 1.383t-1.383 0.586h-2.016v-1.969h2.016v-2.016h1.969v2.016z"></path>
</svg>
