<!-- Generated by IcoMoon.io -->
<svg version="1.1" xmlns="http://www.w3.org/2000/svg" width="24" height="24" viewBox="0 0 24 24">
<title>vector_intersection</title>
<path d="M3.141 3.984q-0.891 0-1.523 0.633t-0.633 1.523v1.875h2.016v-2.016h2.016v-2.016h-1.875zM6.984 3.984v2.016h3v-2.016h-3zM12 3.984v2.016h2.016v2.016h1.969v-1.875q0-0.891-0.609-1.523t-1.5-0.633h-1.875zM0.984 9.984v3h2.016v-3h-2.016zM9 9.984q-0.844 0-1.43 0.586t-0.586 1.43v6.984h6.891q0.891 0 1.5-0.609t0.609-1.5v-6.891h-6.984zM18 9.984v2.016h2.016v2.016h1.969v-2.016q0-0.844-0.586-1.43t-1.383-0.586h-2.016zM9 12h5.016v5.016h-5.016v-5.016zM0.984 15v1.875q0 0.891 0.633 1.5t1.523 0.609h1.875v-1.969h-2.016v-2.016h-2.016zM20.016 15.984v3h1.969v-3h-1.969zM6.984 21v2.016q0 0.797 0.586 1.383t1.43 0.586h2.016v-1.969h-2.016v-2.016h-2.016zM20.016 21v2.016h-2.016v1.969h2.016q0.797 0 1.383-0.586t0.586-1.383v-2.016h-1.969zM12.984 23.016v1.969h3v-1.969h-3z"></path>
</svg>
