<!-- Generated by IcoMoon.io -->
<svg version="1.1" xmlns="http://www.w3.org/2000/svg" width="24" height="24" viewBox="0 0 24 24">
<title>vector_rectangle</title>
<path d="M2.016 6.984h6v2.016h7.969v-2.016h6v6h-1.969v4.031h1.969v6h-6v-2.016h-7.969v2.016h-6v-6h1.969v-4.031h-1.969v-6zM15.984 12.984v-1.969h-7.969v1.969h-2.016v4.031h2.016v1.969h7.969v-1.969h2.016v-4.031h-2.016zM3.984 9v2.016h2.016v-2.016h-2.016zM18 9v2.016h2.016v-2.016h-2.016zM3.984 18.984v2.016h2.016v-2.016h-2.016zM18 18.984v2.016h2.016v-2.016h-2.016z"></path>
</svg>
