<!-- Generated by IcoMoon.io -->
<svg version="1.1" xmlns="http://www.w3.org/2000/svg" width="24" height="24" viewBox="0 0 24 24">
<title>vector_polygon</title>
<path d="M2.016 5.016v6h2.25l1.313 7.969h-1.594v6h6v-1.922h5.016v1.922h6v-6h-1.828l0.844-6.984h1.969v-6h-6v3.516l-1.172 1.5h-5.203l-1.594-2.203v-3.797h-6zM3.984 6.984h2.016v2.016h-2.016v-2.016zM18 8.016h2.016v1.969h-2.016v-1.969zM6.328 11.016h0.797l1.875 2.578v3.422h6v-3.094l1.547-1.922h1.453l-0.844 6.984h-2.156v2.063h-5.016v-2.063h-2.391zM11.016 12.984h1.969v2.016h-1.969v-2.016zM6 21h2.016v2.016h-2.016v-2.016zM17.016 21h1.969v2.016h-1.969v-2.016z"></path>
</svg>
