<!-- Generated by IcoMoon.io -->
<svg version="1.1" xmlns="http://www.w3.org/2000/svg" width="24" height="24" viewBox="0 0 24 24">
<title>vector_bezier</title>
<path d="M7.5 6.984q-0.609 0-1.055 0.445t-0.445 1.078 0.445 1.055 1.055 0.422q0.469 0 0.867-0.258t0.539-0.727h4.078q1.031-0.984 2.016-0.984h-6.094q-0.141-0.469-0.539-0.75t-0.867-0.281zM18.984 8.016q-2.672 0-4.359 0.938-1.406 0.844-2.297 2.438-0.516 0.938-1.219 3.047-0.609 1.875-1.078 2.719-0.703 1.359-1.734 2.016-1.313 0.844-3.281 0.844v1.969q2.672 0 4.359-0.938 1.406-0.844 2.297-2.438 0.516-0.938 1.219-3.047 0.609-1.875 1.078-2.719 0.703-1.359 1.734-2.016 1.313-0.844 3.281-0.844v-1.969zM16.5 20.016q-0.469 0-0.867 0.258t-0.539 0.727h-4.078q-1.031 0.984-2.016 0.984h6.094q0.141 0.469 0.539 0.75t0.867 0.281q0.609 0 1.055-0.445t0.445-1.078-0.445-1.055-1.055-0.422z"></path>
</svg>
