<!-- Generated by IcoMoon.io -->
<svg version="1.1" xmlns="http://www.w3.org/2000/svg" width="24" height="24" viewBox="0 0 24 24">
<title>vector_arrange_above</title>
<path d="M3 3.984q-0.844 0-1.43 0.586t-0.586 1.43v11.016q0 0.797 0.586 1.383t1.43 0.586h11.016q0.797 0 1.383-0.586t0.586-1.383v-11.016q0-0.844-0.586-1.43t-1.383-0.586h-11.016zM3 6h11.016v11.016h-11.016v-11.016zM18 9.984v2.016h2.016v11.016h-11.016v-2.016h-2.016v2.016q0 0.797 0.586 1.383t1.43 0.586h11.016q0.797 0 1.383-0.586t0.586-1.383v-11.016q0-0.844-0.586-1.43t-1.383-0.586h-2.016z"></path>
</svg>
