<!-- Generated by IcoMoon.io -->
<svg version="1.1" xmlns="http://www.w3.org/2000/svg" width="24" height="24" viewBox="0 0 24 24">
<title>vector_circle_variant</title>
<path d="M21.984 12h-2.016q-0.938-2.672-3.281-4.336t-5.203-1.664q-2.438 0-4.5 1.219t-3.281 3.281-1.219 4.5 1.219 4.523 3.281 3.281 4.5 1.195q2.859 0 5.203-1.641t3.328-4.359h1.969v-6zM20.016 14.016v1.969h-2.016v-1.969h2.016zM17.813 18q-0.844 1.828-2.555 2.906t-3.773 1.078q-1.875 0-3.492-0.938t-2.555-2.531-0.938-3.492 0.938-3.516 2.555-2.555 3.492-0.938q2.016 0 3.75 1.078t2.578 2.906h-1.828v6h1.828z"></path>
</svg>
