<!-- Generated by IcoMoon.io -->
<svg version="1.1" xmlns="http://www.w3.org/2000/svg" width="24" height="24" viewBox="0 0 24 24">
<title>vector_circle</title>
<path d="M9 5.016v2.063q-1.688 0.609-3 1.898t-1.969 3.023h-2.016v6h2.063q0.609 1.734 1.922 3.023t3 1.945v2.016h6v-2.063q1.734-0.609 3.023-1.922t1.945-3h2.016v-6h-2.063q-0.609-1.688-1.898-3t-3.023-1.969v-2.016h-6zM11.016 6.984h1.969v2.016h-1.969v-2.016zM9 9.234v1.781h6v-1.781q1.828 0.938 2.766 2.766h-1.781v6h1.781q-0.938 1.828-2.766 2.766v-1.781h-6v1.781q-1.828-0.938-2.766-2.766h1.781v-6h-1.781q0.938-1.828 2.766-2.766zM3.984 14.016h2.016v1.969h-2.016v-1.969zM18 14.016h2.016v1.969h-2.016v-1.969zM11.016 21h1.969v2.016h-1.969v-2.016z"></path>
</svg>
