<!-- Generated by IcoMoon.io -->
<svg version="1.1" xmlns="http://www.w3.org/2000/svg" width="24" height="24" viewBox="0 0 24 24">
<title>vector_difference_ab</title>
<path d="M3 3.984q-0.844 0-1.43 0.586t-0.586 1.43v2.016h2.016v-2.016h2.016v-2.016h-2.016zM6.984 3.984v2.016h3v-2.016h-3zM12 3.984v2.016h2.016v2.016h1.969v-2.016q0-0.844-0.586-1.43t-1.383-0.586h-2.016zM0.984 9.984v3h2.016v-3h-2.016zM14.016 9.984v7.031h-7.031v6q0 0.797 0.586 1.383t1.43 0.586h11.016q0.797 0 1.383-0.586t0.586-1.383v-11.016q0-0.844-0.586-1.43t-1.383-0.586h-6zM15.984 12h4.031v11.016h-11.016v-4.031h5.016q0.797 0 1.383-0.586t0.586-1.383v-5.016zM0.984 15v2.016q0 0.797 0.586 1.383t1.43 0.586h2.016v-1.969h-2.016v-2.016h-2.016z"></path>
</svg>
