<!-- Generated by IcoMoon.io -->
<svg version="1.1" xmlns="http://www.w3.org/2000/svg" width="24" height="24" viewBox="0 0 24 24">
<title>vibrate_off</title>
<path d="M8.203 8.016l-1.641-1.688q0.375-0.328 0.938-0.328h9q0.609 0 1.055 0.445t0.445 1.055v10.313l-2.016-2.016v-7.781h-7.781zM0 18h2.016v-6h-2.016v6zM21 20.016v-10.031h-2.016v8.813l1.219 1.219h0.797zM3 20.016h2.016v-10.031h-2.016v10.031zM18 20.344l4.125 4.125-1.266 1.266-2.859-2.906q-0.141 0.516-0.563 0.844t-0.938 0.328h-9q-0.609 0-1.055-0.445t-0.445-1.055v-11.625l-4.875-4.875 1.266-1.266zM15.984 20.906l-7.969-8.016v9.094h7.969v-1.078zM21.984 12v6h2.016v-6h-2.016z"></path>
</svg>
