<!-- Generated by IcoMoon.io -->
<svg version="1.1" xmlns="http://www.w3.org/2000/svg" width="24" height="24" viewBox="0 0 24 24">
<title>vibrate</title>
<path d="M15.984 21.984h-7.969v-13.969h7.969v13.969zM16.5 6h-9q-0.609 0-1.055 0.445t-0.445 1.055v15q0 0.609 0.445 1.055t1.055 0.445h9q0.609 0 1.055-0.445t0.445-1.055v-15q0-0.609-0.445-1.055t-1.055-0.445zM18.984 20.016h2.016v-10.031h-2.016v10.031zM21.984 12v6h2.016v-6h-2.016zM3 20.016h2.016v-10.031h-2.016v10.031zM0 18h2.016v-6h-2.016v6z"></path>
</svg>
