<!-- Generated by IcoMoon.io -->
<svg version="1.1" xmlns="http://www.w3.org/2000/svg" width="24" height="24" viewBox="0 0 24 24">
<title>video_account</title>
<path d="M17.016 13.5l3.984-3.984v10.969l-3.984-3.984v3.516q0 0.422-0.305 0.703t-0.727 0.281h-12q-0.422 0-0.703-0.281t-0.281-0.703v-10.031q0-0.422 0.281-0.703t0.703-0.281h12q0.422 0 0.727 0.281t0.305 0.703v3.516zM14.016 18.984v-0.984q0-0.891-1.5-1.5-1.266-0.516-2.508-0.516t-2.508 0.516q-1.5 0.609-1.5 1.5v0.984h8.016zM9.984 11.016q-0.797 0-1.383 0.586t-0.586 1.406 0.586 1.406 1.406 0.586 1.406-0.586 0.586-1.406-0.586-1.406-1.43-0.586z"></path>
</svg>
