<!-- Generated by IcoMoon.io -->
<svg version="1.1" xmlns="http://www.w3.org/2000/svg" width="24" height="24" viewBox="0 0 24 24">
<title>video_input_antenna</title>
<path d="M12 8.016q-1.406 0-2.695 0.516t-2.273 1.5-1.5 2.273-0.516 2.695h1.969q0-0.984 0.398-1.898t1.102-1.617 1.617-1.102 1.898-0.398 1.898 0.398 1.617 1.102 1.102 1.617 0.398 1.898h1.969q0-1.406-0.516-2.695t-1.5-2.273-2.273-1.5-2.695-0.516zM12.984 17.297q0.703-0.328 1.102-0.938t0.398-1.359q0-1.031-0.727-1.758t-1.758-0.727-1.758 0.727-0.727 1.758q0 0.75 0.398 1.383t1.102 0.914v3.281l-3.422 3.422 1.406 1.406 3-3 3 3 1.406-1.406-3.422-3.422v-3.281zM12 3.984q-2.203 0-4.219 0.844t-3.563 2.391-2.391 3.563-0.844 4.219h2.016q0-2.438 1.219-4.5t3.281-3.281 4.5-1.219 4.5 1.219 3.281 3.281 1.219 4.5h2.016q0-3-1.477-5.531t-4.008-4.008-5.531-1.477z"></path>
</svg>
