<!-- Generated by IcoMoon.io -->
<svg version="1.1" xmlns="http://www.w3.org/2000/svg" width="24" height="24" viewBox="0 0 24 24">
<title>video_input_svideo</title>
<path d="M8.016 14.484q0-0.609-0.445-1.055t-1.078-0.445-1.055 0.445-0.422 1.078 0.422 1.055 1.055 0.422 1.078-0.422 0.445-1.078zM15 9.516q0-0.656-0.445-1.078t-1.055-0.422h-3q-0.609 0-1.055 0.422t-0.445 1.055 0.445 1.078 1.055 0.445h3q0.609 0 1.055-0.445t0.445-1.055zM8.484 18q-0.609 0-1.055 0.445t-0.445 1.055 0.445 1.055 1.078 0.445 1.055-0.445 0.422-1.055-0.422-1.055-1.078-0.445zM12 3.984q-2.203 0-4.219 0.844t-3.563 2.391-2.391 3.563-0.844 4.219 0.844 4.219 2.391 3.563 3.563 2.391 4.219 0.844q3 0 5.531-1.477t4.008-4.008 1.477-5.531-1.477-5.531-4.008-4.008-5.531-1.477zM12 24q-2.438 0-4.5-1.219t-3.281-3.281-1.219-4.5 1.219-4.5 3.281-3.281 4.5-1.219 4.5 1.219 3.281 3.281 1.219 4.5-1.219 4.5-3.281 3.281-4.5 1.219zM17.484 12.984q-0.609 0-1.055 0.445t-0.445 1.078 0.445 1.055 1.078 0.422 1.055-0.422 0.422-1.055-0.422-1.078-1.078-0.445zM15.516 18q-0.656 0-1.078 0.445t-0.422 1.055 0.422 1.055 1.055 0.445 1.078-0.445 0.445-1.055-0.445-1.055-1.055-0.445z"></path>
</svg>
