<!-- Generated by IcoMoon.io -->
<svg version="1.1" xmlns="http://www.w3.org/2000/svg" width="24" height="24" viewBox="0 0 24 24">
<title>video_input_component</title>
<path d="M5.016 5.016q0-0.422-0.305-0.727t-0.727-0.305-0.703 0.305-0.281 0.727v3.984h-2.016v6h6v-6h-1.969v-3.984zM9 18.984q0 0.984 0.563 1.758t1.453 1.055v4.219h1.969v-4.219q0.891-0.281 1.453-1.055t0.563-1.758v-1.969h-6v1.969zM0.984 18.984q0 0.984 0.563 1.758t1.453 1.055v4.219h2.016v-4.219q0.891-0.281 1.43-1.055t0.539-1.758v-1.969h-6v1.969zM21 9v-3.984q0-0.422-0.281-0.727t-0.703-0.305-0.727 0.305-0.305 0.727v3.984h-1.969v6h6v-6h-2.016zM12.984 5.016q0-0.422-0.281-0.727t-0.703-0.305-0.703 0.305-0.281 0.727v3.984h-2.016v6h6v-6h-2.016v-3.984zM17.016 18.984q0 0.984 0.539 1.758t1.43 1.055v4.219h2.016v-4.219q0.891-0.281 1.453-1.055t0.563-1.758v-1.969h-6v1.969z"></path>
</svg>
