<!-- Generated by IcoMoon.io -->
<svg version="1.1" xmlns="http://www.w3.org/2000/svg" width="24" height="24" viewBox="0 0 24 24">
<title>view_agenda_outline</title>
<path d="M21 15.984h-18q-0.422 0-0.703 0.305t-0.281 0.727v6q0 0.422 0.281 0.703t0.703 0.281h18q0.422 0 0.703-0.281t0.281-0.703v-6q0-0.422-0.281-0.727t-0.703-0.305zM20.016 21.984h-16.031v-3.984h16.031v3.984zM21 6h-18q-0.422 0-0.703 0.281t-0.281 0.703v6q0 0.422 0.281 0.727t0.703 0.305h18q0.422 0 0.703-0.305t0.281-0.727v-6q0-0.422-0.281-0.703t-0.703-0.281zM20.016 12h-16.031v-3.984h16.031v3.984z"></path>
</svg>
