<!-- Generated by IcoMoon.io -->
<svg version="1.1" xmlns="http://www.w3.org/2000/svg" width="24" height="24" viewBox="0 0 24 24">
<title>volleyball</title>
<path d="M12 5.016q1.969 0 3.82 0.75t3.258 2.156 2.156 3.258 0.75 3.82-0.75 3.82-2.156 3.258-3.258 2.156-3.82 0.75-3.82-0.75-3.258-2.156-2.156-3.258-0.75-3.82 0.75-3.82 2.156-3.258 3.258-2.156 3.82-0.75zM13.594 23.344q3.703-3.609 4.922-8.578-0.938-0.188-2.016-0.281-0.703 2.719-2.25 4.992t-3.75 3.914q0.797 0.094 1.5 0.094 0.797 0 1.594-0.141zM9.234 23.063q2.25-1.5 3.891-3.703t2.344-4.875q-1.172 0.094-2.203 0.328-0.797 2.297-2.391 4.148t-3.75 3.023q0.938 0.656 2.109 1.078zM20.484 15.375q-0.422-0.188-1.031-0.375-1.031 4.313-3.891 7.734 2.109-0.984 3.469-2.953t1.453-4.406zM3.563 14.063q-0.047 0.281-0.047 0.938 0 1.828 0.727 3.469t2.039 2.813q0.797-0.375 1.641-0.984-2.813-2.672-4.359-6.234zM5.344 9.75q-0.938 1.172-1.406 2.531 1.453 4.313 4.781 7.406 0.797-0.656 1.453-1.406-1.875-1.734-3.117-3.914t-1.711-4.617zM8.063 7.5q-1.031 0.516-1.875 1.313 0.375 2.531 1.57 4.734t3.023 3.938q0.469-0.703 1.031-1.781-1.641-1.641-2.625-3.75t-1.125-4.453zM19.969 12.047q-1.922-0.563-3.984-0.563-2.813 0-5.391 1.031 0.563 0.938 1.219 1.688 2.063-0.703 4.172-0.703 2.344 0 4.5 0.797-0.141-1.219-0.516-2.25zM17.531 8.578q-0.516-0.094-1.547-0.094-3.375 0-6.563 1.266 0.281 0.891 0.703 1.875 2.813-1.125 5.859-1.125 1.734 0 3.422 0.375-0.75-1.359-1.875-2.297zM15.984 7.5q-1.922-0.984-3.984-0.984-1.5 0-3 0.516 0.047 0.891 0.188 1.734 3.281-1.266 6.797-1.266z"></path>
</svg>
