<!-- Generated by IcoMoon.io -->
<svg version="1.1" xmlns="http://www.w3.org/2000/svg" width="24" height="24" viewBox="0 0 24 24">
<title>vote_outline</title>
<path d="M18 15.984l3 3v4.031q0 0.797-0.586 1.383t-1.43 0.586h-13.969q-0.844 0-1.43-0.586t-0.586-1.383v-4.031l3-3h0.844l1.969 2.016h-2.016l-1.781 2.016h13.969l-1.734-2.016h-1.922l1.969-2.016h0.703zM18.984 23.016v-1.031h-13.969v1.031h13.969zM11.344 18l-4.969-4.922q-0.281-0.281-0.281-0.703t0.281-0.703l6.375-6.375q0.281-0.281 0.703-0.281t0.703 0.281l4.969 4.969q0.281 0.281 0.281 0.703t-0.281 0.703l-6.375 6.328q-0.281 0.328-0.703 0.328t-0.703-0.328zM13.453 7.406l-4.969 4.969 3.563 3.516 4.969-4.922z"></path>
</svg>
