<!-- Generated by IcoMoon.io -->
<svg version="1.1" xmlns="http://www.w3.org/2000/svg" width="24" height="24" viewBox="0 0 24 24">
<title>vote</title>
<path d="M18 15.984h-0.703l-1.969 2.016h1.922l1.734 2.016h-13.969l1.781-2.016h2.016l-1.969-2.016h-0.844l-3 3v4.031q0 0.797 0.586 1.383t1.43 0.586h13.969q0.844 0 1.43-0.586t0.586-1.383v-4.031zM17.016 10.969l-4.969 4.922-3.563-3.516 4.969-4.969zM12.75 5.297l-6.375 6.375q-0.281 0.281-0.281 0.703t0.281 0.703l4.969 4.922q0.281 0.328 0.703 0.328t0.703-0.328l6.375-6.328q0.281-0.281 0.281-0.703t-0.281-0.703l-4.969-4.969q-0.281-0.281-0.703-0.281t-0.703 0.281z"></path>
</svg>
