<!-- Generated by IcoMoon.io -->
<svg version="1.1" xmlns="http://www.w3.org/2000/svg" width="24" height="24" viewBox="0 0 24 24">
<title>warehouse</title>
<path d="M6 21.984h2.016v2.016h-2.016v-2.016zM12 6l-9.984 5.016v12.984h1.969v-8.016h16.031v8.016h1.969v-12.984zM8.016 14.016h-4.031v-2.016h4.031v2.016zM14.016 14.016h-4.031v-2.016h4.031v2.016zM20.016 14.016h-4.031v-2.016h4.031v2.016zM6 18h2.016v2.016h-2.016v-2.016zM9.984 18h2.016v2.016h-2.016v-2.016zM9.984 21.984h2.016v2.016h-2.016v-2.016zM14.016 21.984h1.969v2.016h-1.969v-2.016z"></path>
</svg>
