<!-- Generated by IcoMoon.io -->
<svg version="1.1" xmlns="http://www.w3.org/2000/svg" width="24" height="24" viewBox="0 0 24 24">
<title>watch1</title>
<path d="M6 15q0-1.641 0.797-3.023t2.18-2.18 3.023-0.797 3.023 0.797 2.18 2.18 0.797 3.023-0.797 3.023-2.18 2.18-3.023 0.797-3.023-0.797-2.18-2.18-0.797-3.023zM20.016 15q0-1.875-0.82-3.516t-2.227-2.766l-0.984-5.719h-7.969l-0.984 5.719q-1.406 1.125-2.227 2.766t-0.82 3.516 0.82 3.516 2.227 2.766l0.984 5.719h7.969l0.984-5.719q1.406-1.125 2.227-2.766t0.82-3.516z"></path>
</svg>
