<!-- Generated by IcoMoon.io -->
<svg version="1.1" xmlns="http://www.w3.org/2000/svg" width="24" height="24" viewBox="0 0 24 24">
<title>water_boiler</title>
<path d="M8.016 5.016q-0.844 0-1.43 0.586t-0.586 1.383v12q0 0.844 0.586 1.43t1.43 0.586h0.984v2.016h-3v1.969h3q0.844 0 1.43-0.586t0.586-1.383v-2.016h1.969v2.016q0 0.797 0.586 1.383t1.43 0.586h3v-1.969h-3v-2.016h0.984q0.844 0 1.43-0.586t0.586-1.43v-12q0-0.797-0.586-1.383t-1.43-0.586h-7.969zM12 7.969q0.844 0 1.43 0.586t0.586 1.406-0.586 1.406-1.43 0.586-1.43-0.586-0.586-1.406 0.586-1.406 1.43-0.586zM9.984 17.484h4.031v1.5h-4.031v-1.5z"></path>
</svg>
