<!-- Generated by IcoMoon.io -->
<svg version="1.1" xmlns="http://www.w3.org/2000/svg" width="24" height="24" viewBox="0 0 24 24">
<title>water_pump_off</title>
<path d="M5.719 5.484q0.516-0.469 1.266-0.469h2.016q0.844 0 1.43 0.586t0.586 1.383v1.031h7.969q0.844 0 1.43 0.586t0.586 1.383v4.031q0.422 0 0.703 0.281t0.281 0.703-0.281 0.703-0.703 0.281h-3.984q-0.422 0-0.727-0.281t-0.305-0.703 0.305-0.703 0.727-0.281v-2.016h-4.828zM20.859 25.734l1.266-1.266-19.734-19.734-1.266 1.266 2.531 2.531q-0.469 0.422-0.586 1.031t0.094 1.172 0.727 0.914 1.125 0.352v9h-1.031q-0.797 0-1.383 0.586t-0.586 1.43v1.969h12v-1.969q0-0.844-0.586-1.43t-1.43-0.586h-0.984v-5.109z"></path>
</svg>
