<!-- Generated by IcoMoon.io -->
<svg version="1.1" xmlns="http://www.w3.org/2000/svg" width="24" height="24" viewBox="0 0 24 24">
<title>water_boiler_alert</title>
<path d="M6 5.016q-0.844 0-1.43 0.586t-0.586 1.383v12q0 0.844 0.586 1.43t1.43 0.586h0.984v2.016h-3v1.969h3q0.844 0 1.43-0.586t0.586-1.383v-2.016h2.016v2.016q0 0.797 0.586 1.383t1.383 0.586h3v-1.969h-3v-2.016h1.031q0.797 0 1.383-0.586t0.586-1.43v-12q0-0.797-0.586-1.383t-1.383-0.586h-8.016zM9.984 7.969q0.844 0 1.43 0.586t0.586 1.406-0.586 1.406-1.406 0.586-1.406-0.586-0.586-1.406 0.586-1.406 1.383-0.586zM8.016 17.484h3.984v1.5h-3.984v-1.5zM18 18h2.016v2.016h-2.016v-2.016zM18 9.984h2.016v6h-2.016v-6z"></path>
</svg>
