<!-- Generated by IcoMoon.io -->
<svg version="1.1" xmlns="http://www.w3.org/2000/svg" width="24" height="24" viewBox="0 0 24 24">
<title>water_boiler_off</title>
<path d="M9.984 9.797l-3.75-3.75q0.281-0.469 0.75-0.75t1.031-0.281h7.969q0.844 0 1.43 0.586t0.586 1.383v10.828l-5.859-5.859q0.797-0.047 1.336-0.633t0.539-1.383-0.586-1.383-1.406-0.586-1.383 0.539-0.656 1.289zM15 21v2.016h3v1.969h-3q-0.844 0-1.43-0.586t-0.586-1.383v-2.016h-1.969v2.016q0 0.797-0.586 1.383t-1.43 0.586h-3v-1.969h3v-2.016h-0.984q-0.844 0-1.43-0.586t-0.586-1.43v-8.109l-4.875-4.875 1.266-1.266 19.734 19.734-1.266 1.266-4.781-4.734h-1.078zM14.016 18.984v-0.094l-1.406-1.406h-2.625v1.5h4.031z"></path>
</svg>
