<!-- Generated by IcoMoon.io -->
<svg version="1.1" xmlns="http://www.w3.org/2000/svg" width="24" height="24" viewBox="0 0 24 24">
<title>water_pump</title>
<path d="M18.984 17.484q0.281 0.328 0.516 0.609 0.609 0.75 0.984 1.406 0.516 0.891 0.516 1.5 0 0.844-0.586 1.43t-1.406 0.586-1.406-0.586-0.586-1.43 0.984-2.25q0.516-0.703 0.984-1.266v0zM5.016 21v-9q-0.844 0-1.43-0.586t-0.586-1.406 0.586-1.406 1.43-0.586v-1.031q0-0.797 0.586-1.383t1.383-0.586h2.016q0.844 0 1.43 0.586t0.586 1.383v1.031h7.969q0.844 0 1.43 0.586t0.586 1.383v4.031q0.422 0 0.703 0.281t0.281 0.703-0.281 0.703-0.703 0.281h-3.984q-0.422 0-0.727-0.281t-0.305-0.703 0.305-0.703 0.727-0.281v-2.016h-6v9h0.984q0.844 0 1.43 0.586t0.586 1.43v1.969h-12v-1.969q0-0.844 0.586-1.43t1.383-0.586h1.031z"></path>
</svg>
