<!-- Generated by IcoMoon.io -->
<svg version="1.1" xmlns="http://www.w3.org/2000/svg" width="24" height="24" viewBox="0 0 24 24">
<title>weather_hazy</title>
<path d="M12 5.016l2.391 3.422q-1.172-0.422-2.391-0.422t-2.391 0.422zM3.328 9.984l4.172-0.328q-0.938 0.797-1.547 1.828t-0.844 2.297zM20.672 9.984l-1.781 3.797q-0.234-1.219-0.844-2.297t-1.547-1.828zM14.016 18q0-0.422-0.305-0.703t-0.727-0.281h-9.984q-0.422 0-0.703 0.281t-0.281 0.703 0.281 0.703 0.703 0.281h9.984q0.422 0 0.727-0.281t0.305-0.703zM21.984 18q0-0.422-0.281-0.703t-0.703-0.281h-3.984q-0.422 0-0.727 0.281t-0.305 0.703 0.305 0.703 0.727 0.281h3.984q0.422 0 0.703-0.281t0.281-0.703zM9.984 21.984q0 0.422 0.305 0.727t0.727 0.305h9q0.422 0 0.703-0.305t0.281-0.727-0.281-0.703-0.703-0.281h-9q-0.422 0-0.727 0.281t-0.305 0.703zM3 21.984q0 0.422 0.281 0.727t0.703 0.305h3q0.422 0 0.727-0.305t0.305-0.727-0.305-0.703-0.727-0.281h-3q-0.422 0-0.703 0.281t-0.281 0.703zM12 12q1.266 0 2.133 0.867t0.867 2.133h2.016q0-0.984-0.398-1.898t-1.102-1.617-1.617-1.102-1.898-0.398-1.898 0.398-1.617 1.102-1.102 1.617-0.398 1.898h2.016q0-1.266 0.867-2.133t2.133-0.867z"></path>
</svg>
