<!-- Generated by IcoMoon.io -->
<svg version="1.1" xmlns="http://www.w3.org/2000/svg" width="24" height="24" viewBox="0 0 24 24">
<title>weather_snowy_rainy</title>
<path d="M18.516 21.656q0 0.984-0.656 1.664t-1.594 0.68-1.594-0.68-0.656-1.641 1.125-2.695q0.563-0.844 1.125-1.5v0l0.563 0.75q0.656 0.891 1.078 1.688 0.609 1.078 0.609 1.734zM3.984 20.344q-0.094-0.375 0.117-0.75t0.633-0.469l2.25-0.609-1.641-1.641q-0.328-0.328-0.328-0.75t0.305-0.727 0.75-0.305 0.727 0.328l1.641 1.641 0.609-2.25q0.094-0.422 0.469-0.633t0.773-0.117 0.609 0.469 0.117 0.797l-0.609 2.25 2.25-0.563q0.422-0.141 0.797 0.070t0.492 0.633-0.094 0.773-0.633 0.445l-2.25 0.609 1.641 1.641q0.281 0.328 0.281 0.75t-0.305 0.727-0.727 0.305-0.703-0.281l-1.641-1.688-0.609 2.25q-0.141 0.422-0.492 0.633t-0.773 0.117-0.633-0.469-0.117-0.797l0.609-2.25-2.25 0.609q-0.422 0.094-0.773-0.117t-0.492-0.633zM0.984 14.016q0-1.359 0.68-2.508t1.828-1.828 2.508-0.68q0.75-1.781 2.367-2.883t3.633-1.102q1.688 0 3.141 0.797t2.344 2.18 1.031 3.023h0.469q1.688 0 2.859 1.172t1.172 2.813-1.172 2.813-2.859 1.172q-0.422 0-0.703-0.281t-0.281-0.703 0.281-0.703 0.703-0.281q0.844 0 1.43-0.586t0.586-1.43-0.586-1.43-1.43-0.586h-1.969v-0.984q0-0.984-0.398-1.898t-1.102-1.617-1.617-1.102-1.898-0.398q-1.875 0-3.258 1.195t-1.664 3.023q-0.563-0.188-1.078-0.188-1.266 0-2.133 0.867t-0.867 2.133 0.891 2.156q0.281 0.281 0.281 0.68t-0.281 0.68-0.703 0.281-0.703-0.281q-1.5-1.453-1.5-3.516z"></path>
</svg>
