<!-- Generated by IcoMoon.io -->
<svg version="1.1" xmlns="http://www.w3.org/2000/svg" width="24" height="24" viewBox="0 0 24 24">
<title>weather_snowy_heavy</title>
<path d="M3.984 19.359q-0.094-0.422 0.117-0.773t0.633-0.492l2.25-0.609-1.641-1.641q-0.328-0.281-0.328-0.703t0.305-0.727 0.75-0.305 0.727 0.281l1.641 1.641 0.609-2.25q0.094-0.422 0.469-0.633t0.773-0.094 0.609 0.492 0.117 0.797l-0.609 2.25 2.25-0.609q0.422-0.094 0.797 0.117t0.492 0.609-0.094 0.773-0.633 0.469l-2.25 0.609 1.641 1.641q0.281 0.281 0.281 0.727t-0.305 0.75-0.727 0.305-0.703-0.328l-1.641-1.641-0.609 2.25q-0.141 0.422-0.492 0.633t-0.773 0.094-0.633-0.469-0.117-0.773l0.609-2.25-2.25 0.609q-0.422 0.094-0.773-0.117t-0.492-0.633zM0.984 12.984q0-0.984 0.398-1.898t1.102-1.617 1.617-1.078 1.898-0.375q0.75-1.828 2.367-2.93t3.633-1.102q1.688 0 3.141 0.82t2.344 2.18 1.031 3.047l0.469-0.047q1.688 0 2.859 1.172t1.172 2.836-1.172 2.836-2.859 1.172q-0.422 0-0.703-0.281t-0.281-0.703 0.281-0.727 0.703-0.305q0.844 0 1.43-0.586t0.586-1.406-0.586-1.406-1.43-0.586h-1.969v-0.984q0-1.359-0.68-2.508t-1.828-1.828-2.508-0.68q-1.875 0-3.258 1.195t-1.664 2.977q-0.563-0.188-1.078-0.188-1.266 0-2.133 0.891t-0.867 2.133 0.891 2.133q0.281 0.328 0.281 0.727t-0.281 0.68-0.703 0.281-0.703-0.281q-1.5-1.5-1.5-3.563zM14.016 23.438q0.094 0.281 0.352 0.422t0.539 0.094l1.594-0.469-0.422 1.594q-0.094 0.328 0.047 0.563t0.445 0.328 0.563-0.070 0.305-0.445l0.422-1.547 1.172 1.125q0.188 0.234 0.492 0.234t0.516-0.211 0.211-0.516-0.188-0.492l-1.172-1.172 1.547-0.422q0.328-0.094 0.469-0.352t0.070-0.539-0.328-0.422-0.539-0.094l-1.594 0.469 0.422-1.594q0.094-0.328-0.070-0.563t-0.445-0.328-0.539 0.070-0.352 0.445l-0.375 1.547-1.172-1.125q-0.234-0.234-0.539-0.234t-0.516 0.211-0.211 0.516 0.234 0.492l1.172 1.172-1.594 0.422q-0.281 0.094-0.422 0.352t-0.094 0.539z"></path>
</svg>
