<!-- Generated by IcoMoon.io -->
<svg version="1.1" xmlns="http://www.w3.org/2000/svg" width="24" height="24" viewBox="0 0 24 24">
<title>weather_lightning_rainy</title>
<path d="M4.5 16.594q0.375 0.188 0.469 0.609t-0.117 0.773-0.586 0.445-0.75-0.094v0q-1.172-0.656-1.852-1.805t-0.68-2.508 0.68-2.508 1.828-1.828 2.508-0.68q0.75-1.781 2.367-2.883t3.633-1.102q1.688 0 3.141 0.797t2.344 2.18 1.031 3.023h0.469q1.688 0 2.859 1.172t1.172 2.813-1.172 2.813-2.859 1.172q-0.422 0-0.703-0.281t-0.281-0.703 0.281-0.703 0.703-0.281q0.844 0 1.43-0.586t0.586-1.43-0.586-1.43-1.43-0.586h-1.969v-0.984q0-0.984-0.398-1.898t-1.102-1.617-1.617-1.102-1.898-0.398q-1.875 0-3.258 1.195t-1.664 3.023q-0.563-0.188-1.078-0.188-1.266 0-2.133 0.867t-0.867 2.133q0 0.797 0.398 1.5t1.102 1.078v0zM9.516 14.016h3l-2.016 3.984h2.016l-3.75 6.984 0.75-4.969h-2.531zM17.484 21.656q0 0.984-0.656 1.664t-1.594 0.68-1.594-0.68-0.656-1.641 1.125-2.695q0.563-0.844 1.125-1.5v0l0.609 0.75q0.656 0.891 1.078 1.688 0.563 1.078 0.563 1.734z"></path>
</svg>
