<!-- Generated by IcoMoon.io -->
<svg version="1.1" xmlns="http://www.w3.org/2000/svg" width="24" height="24" viewBox="0 0 24 24">
<title>weather_partly_cloudy</title>
<path d="M12.75 8.484q1.734 0.75 2.625 2.438t0.563 3.516q0.938 0.844 1.5 2.039t0.563 2.508v0.188q0.469-0.188 0.984-0.188 1.266 0 2.133 0.891t0.867 2.133-0.867 2.109-2.133 0.867h-12.984q-1.641 0-2.813-1.172t-1.172-2.813 1.172-2.813 2.813-1.172h0.281q-0.984-1.219-1.219-2.766t0.422-3q0.609-1.359 1.805-2.203t2.648-1.008 2.813 0.445zM11.953 10.313q-1.359-0.609-2.719-0.094t-1.922 1.828q-0.328 0.75-0.305 1.57t0.398 1.523q0.844-0.984 2.039-1.57t2.555-0.586q1.031 0 2.016 0.375-0.047-0.984-0.609-1.805t-1.453-1.242zM13.547 6.656q-0.797-0.375-1.688-0.516l2.531-1.313 0.891 2.859q-0.797-0.609-1.734-1.031zM6.094 7.453q-0.75 0.516-1.313 1.172l0.141-2.813 2.953 0.703q-0.938 0.281-1.781 0.938zM18 12.703q-0.141-0.938-0.422-1.688l2.391 1.5-2.063 2.203q0.188-0.938 0.094-2.016zM3.047 14.297q0.094 0.891 0.375 1.688l-2.344-1.5 2.016-2.203q-0.141 1.031-0.047 2.016zM18.984 21h-3v-2.016q0-1.641-1.172-2.813t-2.813-1.172-2.813 1.172-1.172 2.813h-2.016q-0.844 0-1.43 0.586t-0.586 1.43 0.586 1.43 1.43 0.586h12.984q0.422 0 0.727-0.305t0.305-0.727-0.305-0.703-0.727-0.281z"></path>
</svg>
