<!-- Generated by IcoMoon.io -->
<svg version="1.1" xmlns="http://www.w3.org/2000/svg" width="24" height="24" viewBox="0 0 24 24">
<title>weather_rainy</title>
<path d="M6 17.016q0.422 0 0.703 0.305t0.281 0.703-0.281 0.703-0.703 0.305q-1.359 0-2.508-0.68t-1.828-1.828-0.68-2.508 0.68-2.508 1.828-1.805 2.508-0.656q0.75-1.828 2.367-2.93t3.633-1.102q1.688 0 3.141 0.82t2.344 2.18 1.031 3.047l0.469-0.047q1.688 0 2.859 1.172t1.172 2.836-1.172 2.836-2.859 1.172h-0.984q-0.422 0-0.703-0.305t-0.281-0.703 0.281-0.703 0.703-0.305h0.984q0.844 0 1.43-0.586t0.586-1.406-0.586-1.406-1.43-0.586h-1.969v-0.984q0-1.359-0.68-2.508t-1.828-1.828-2.508-0.68q-1.875 0-3.258 1.195t-1.664 2.977q-0.516-0.188-1.078-0.188-1.266 0-2.133 0.891t-0.867 2.133 0.867 2.109 2.133 0.867zM12 17.156q0.234 0.328 0.563 0.797 1.453 2.016 1.453 3.047 0 0.844-0.586 1.43t-1.43 0.586-1.43-0.586-0.586-1.43q0-1.031 1.453-3.047zM12 14.016l-0.516 0.563-0.516 0.656q-0.656 0.797-1.172 1.594-0.844 1.172-1.219 2.016-0.563 1.172-0.563 2.156 0 1.641 1.172 2.813t2.813 1.172 2.813-1.172 1.172-2.813q0-0.984-0.563-2.156-0.375-0.844-1.219-2.063t-1.688-2.203v0z"></path>
</svg>
