<!-- Generated by IcoMoon.io -->
<svg version="1.1" xmlns="http://www.w3.org/2000/svg" width="24" height="24" viewBox="0 0 24 24">
<title>weather_windy</title>
<path d="M3.984 12.984q-0.422 0-0.703-0.281t-0.281-0.703 0.281-0.703 0.703-0.281h8.016q0.844 0 1.43-0.586t0.586-1.43-0.586-1.43-1.43-0.586-1.406 0.609q-0.281 0.281-0.703 0.281t-0.727-0.281-0.305-0.703 0.328-0.703q1.172-1.172 2.813-1.172t2.813 1.172 1.172 2.813-1.172 2.813-2.813 1.172h-8.016zM18.984 15q0.422 0 0.727-0.281t0.305-0.703-0.305-0.727-0.727-0.305-0.703 0.305-0.703 0.305-0.703-0.305-0.281-0.703 0.281-0.727q0.891-0.844 2.133-0.844t2.109 0.867 0.867 2.109-0.867 2.133-2.133 0.891h-13.969q-0.422 0-0.727-0.305t-0.305-0.727 0.305-0.703 0.727-0.281h13.969zM18 21h-14.016q-0.422 0-0.703-0.281t-0.281-0.703 0.281-0.727 0.703-0.305h14.016q1.266 0 2.133 0.891t0.867 2.133-0.867 2.109-2.109 0.867-2.133-0.844q-0.281-0.328-0.281-0.727t0.281-0.703 0.703-0.305 0.703 0.305 0.703 0.305 0.703-0.305 0.281-0.727-0.281-0.703-0.703-0.281z"></path>
</svg>
