<!-- Generated by IcoMoon.io -->
<svg version="1.1" xmlns="http://www.w3.org/2000/svg" width="24" height="24" viewBox="0 0 24 24">
<title>weather_pouring</title>
<path d="M9 15q0.375 0.094 0.586 0.469t0.117 0.75l-1.313 4.828q-0.094 0.422-0.445 0.609t-0.75 0.094-0.609-0.445-0.070-0.773l1.266-4.828q0.094-0.375 0.445-0.586t0.773-0.117zM12.984 15q0.422 0.094 0.633 0.469t0.070 0.75l-2.063 7.734q-0.094 0.422-0.445 0.609t-0.75 0.094-0.609-0.469-0.117-0.75l2.063-7.734q0.141-0.375 0.492-0.586t0.727-0.117zM17.016 15q0.375 0.094 0.586 0.469t0.117 0.75l-1.313 4.828q-0.094 0.422-0.445 0.609t-0.773 0.094-0.609-0.445-0.094-0.773l1.313-4.828q0.094-0.375 0.445-0.586t0.773-0.117zM17.016 12.984v-0.984q0-0.984-0.398-1.898t-1.102-1.617-1.617-1.102-1.898-0.398q-1.875 0-3.258 1.195t-1.664 3.023q-0.563-0.188-1.078-0.188-1.266 0-2.133 0.867t-0.867 2.133q0 0.797 0.398 1.5t1.102 1.078v0q0.375 0.188 0.469 0.609t-0.117 0.773-0.586 0.445-0.75-0.094v0q-1.172-0.656-1.852-1.805t-0.68-2.508 0.68-2.508 1.828-1.828 2.508-0.68q0.75-1.781 2.367-2.883t3.633-1.102q1.688 0 3.141 0.797t2.344 2.18 1.031 3.023h0.469q1.688 0 2.859 1.172t1.172 2.813q0 1.125-0.539 2.039t-1.477 1.43v0q-0.375 0.188-0.773 0.094t-0.609-0.469-0.094-0.773 0.492-0.586v0q0.422-0.281 0.703-0.727t0.281-1.008q0-0.844-0.586-1.43t-1.43-0.586h-1.969z"></path>
</svg>
