<!-- Generated by IcoMoon.io -->
<svg version="1.1" xmlns="http://www.w3.org/2000/svg" width="24" height="24" viewBox="0 0 24 24">
<title>weather_sunny_alert</title>
<path d="M12 9.984q-0.984 0-1.898 0.398t-1.617 1.102-1.102 1.617-0.398 1.898q0 1.359 0.68 2.508t1.828 1.828 2.508 0.68 2.508-0.68 1.828-1.828 0.68-2.508q0-0.984-0.398-1.898t-1.102-1.617-1.617-1.102-1.898-0.398zM12 18q-1.266 0-2.133-0.867t-0.867-2.133 0.867-2.133 2.133-0.867 2.133 0.867 0.867 2.133-0.867 2.133-2.133 0.867zM12 5.016l2.391 3.422q-1.172-0.422-2.391-0.422t-2.391 0.422zM3.328 9.984l4.172-0.328q-0.938 0.797-1.547 1.828t-0.844 2.297zM3.375 20.016l1.734-3.797q0.234 1.219 0.844 2.273t1.547 1.898zM12 24.984l-2.391-3.422q1.172 0.422 2.367 0.422t2.414-0.422zM18.984 15.984v-6h2.016v6h-2.016zM18.984 20.016v-2.016h2.016v2.016h-2.016z"></path>
</svg>
