<!-- Generated by IcoMoon.io -->
<svg version="1.1" xmlns="http://www.w3.org/2000/svg" width="24" height="24" viewBox="0 0 24 24">
<title>weather_night_partly_cloudy</title>
<path d="M21.984 13.266q-0.375 0.047-0.703 0.047-1.5 0-2.883-0.563t-2.508-1.641q-1.219-1.219-1.781-2.836t-0.375-3.258q0-0.375-0.328-0.703t-0.703-0.328q-0.188 0-0.375 0.141-0.563 0.422-0.984 0.797-1.688 1.734-2.086 4.078t0.586 4.453q-1.172 0.516-1.992 1.453t-1.148 2.156l-0.703-0.047q-1.641 0-2.813 1.172t-1.172 2.813 1.172 2.813 2.813 1.172h12.984q1.266 0 2.133-0.867t0.867-2.109-0.867-2.133-2.133-0.891q-0.844 0-1.547 0.469l0.047-0.938q0-0.469-0.047-0.703 2.719-0.234 4.641-2.156 0.328-0.328 0.797-0.984 0.281-0.375-0.047-0.891t-0.797-0.516h-0.047zM18.984 21q0.422 0 0.727 0.281t0.305 0.703-0.305 0.727-0.727 0.305h-12.984q-0.844 0-1.43-0.586t-0.586-1.43 0.586-1.43 1.43-0.586h2.484v-0.469q0-1.172 0.68-2.086t1.758-1.242q0.281-0.094 0.516-0.141 0.375-0.047 0.609-0.047t0.609 0.047q0.094 0.047 0.234 0.094 0.234 0.047 0.375 0.094l0.234 0.141q0.188 0.047 0.328 0.188l0.234 0.141 0.469 0.422 0.422 0.516 0.281 0.563q0.281 0.609 0.281 1.313v2.484h3.469zM16.828 15.844q-0.703-1.266-1.992-2.063t-2.836-0.797h-0.141q-0.703-1.266-0.703-2.719t0.703-2.719q0.563 2.906 2.648 4.969t4.945 2.625q-1.172 0.703-2.625 0.703z"></path>
</svg>
