<!-- Generated by IcoMoon.io -->
<svg version="1.1" xmlns="http://www.w3.org/2000/svg" width="24" height="24" viewBox="0 0 24 24">
<title>weather_partly_lightning</title>
<path d="M18.984 18q-0.516 0-0.984 0.188v-0.188q0-1.313-0.563-2.508t-1.5-2.039q0.328-1.828-0.563-3.516t-2.625-2.484q-1.359-0.609-2.813-0.445t-2.648 1.031-1.805 2.227q-0.656 1.453-0.422 3t1.219 2.719h-0.281q-1.641 0-2.813 1.172t-1.172 2.836 1.172 2.836 2.813 1.172h0.984l0.281-0.047q0.281-0.047 0.469-0.234 0.281-0.281 0.281-0.727t-0.281-0.68q-0.188-0.188-0.469-0.281l-0.281-0.047h-0.984q-0.844 0-1.43-0.586t-0.586-1.406 0.586-1.406 1.43-0.586h2.016q0-1.641 1.172-2.813t2.813-1.172 2.813 1.172 1.172 2.813v2.016h3q0.422 0 0.727 0.281t0.305 0.703-0.305 0.703-0.727 0.281h-1.969l-0.281 0.047q-0.281 0.094-0.469 0.281-0.281 0.234-0.281 0.68t0.281 0.727q0.188 0.188 0.469 0.234l0.281 0.047h1.969q1.266 0 2.133-0.867t0.867-2.133-0.867-2.133-2.133-0.867zM12 12q-1.359 0-2.555 0.563t-2.039 1.547q-0.375-0.656-0.398-1.477t0.305-1.57q0.563-1.313 1.922-1.828t2.719 0.047q0.891 0.422 1.453 1.242t0.609 1.805q-0.984-0.328-2.016-0.328zM13.547 5.625q-0.844-0.328-1.688-0.516l2.531-1.313 0.891 2.906q-0.797-0.609-1.734-1.078zM6.094 6.422q-0.75 0.516-1.313 1.219l0.141-2.813 2.953 0.656q-0.938 0.328-1.781 0.938zM18 11.719q-0.141-0.938-0.422-1.734l2.391 1.5-2.063 2.25q0.188-0.938 0.094-2.016zM3.047 13.313q0.094 0.844 0.375 1.688l-2.344-1.5 2.016-2.203q-0.141 1.031-0.047 2.016zM11.813 18h2.438l-1.641 3.281h1.641l-3.047 5.719 0.609-4.078h-2.063z"></path>
</svg>
