<!-- Generated by IcoMoon.io -->
<svg version="1.1" xmlns="http://www.w3.org/2000/svg" width="24" height="24" viewBox="0 0 24 24">
<title>weather_cloudy_alert</title>
<path d="M6 21.984q-0.984 0-1.898-0.375t-1.617-1.078-1.102-1.617-0.398-1.898q0-1.359 0.68-2.508t1.828-1.828 2.508-0.68q0.75-1.781 2.367-2.883t3.633-1.102q1.688 0 3.141 0.797t2.344 2.18 1.031 3.023h0.469q1.688 0 2.859 1.172t1.172 2.813-1.172 2.813-2.859 1.172h-12.984zM18.984 15.984h-1.969v-0.984q0-0.984-0.398-1.898t-1.102-1.617-1.617-1.102-1.898-0.398q-1.875 0-3.258 1.195t-1.664 3.023q-0.563-0.188-1.078-0.188-1.266 0-2.133 0.867t-0.867 2.109 0.867 2.133 2.133 0.891h12.984q0.844 0 1.43-0.586t0.586-1.43-0.586-1.43-1.43-0.586zM12.984 15h-1.969v-3.984h1.969v3.984zM12.984 18.984h-1.969v-1.969h1.969v1.969z"></path>
</svg>
