<!-- Generated by IcoMoon.io -->
<svg version="1.1" xmlns="http://www.w3.org/2000/svg" width="24" height="24" viewBox="0 0 24 24">
<title>weather_lightning</title>
<path d="M6 18.984q-0.984 0-1.898-0.375t-1.617-1.078-1.102-1.617-0.398-1.898q0-1.359 0.68-2.508t1.828-1.828 2.508-0.68q0.75-1.781 2.367-2.883t3.633-1.102q1.688 0 3.141 0.797t2.344 2.18 1.031 3.023h0.469q1.688 0 2.859 1.172t1.172 2.813-1.172 2.813-2.859 1.172h-0.984q-0.422 0-0.703-0.281t-0.281-0.703 0.281-0.703 0.703-0.281h0.984q0.844 0 1.43-0.586t0.586-1.43-0.586-1.43-1.43-0.586h-1.969v-0.984q0-0.984-0.398-1.898t-1.102-1.617-1.617-1.102-1.898-0.398q-1.875 0-3.258 1.195t-1.664 3.023q-0.563-0.188-1.078-0.188-1.266 0-2.133 0.867t-0.867 2.109 0.867 2.133 2.133 0.891h0.984q0.422 0 0.727 0.281t0.305 0.703-0.305 0.703-0.727 0.281h-0.984zM12 14.016h3l-2.016 3.984h2.016l-3.75 6.984 0.75-4.969h-2.484z"></path>
</svg>
