<!-- Generated by IcoMoon.io -->
<svg version="1.1" xmlns="http://www.w3.org/2000/svg" width="24" height="24" viewBox="0 0 24 24">
<title>weather_partly_snowy</title>
<path d="M6 22.031q-0.844 0-1.43-0.586t-0.586-1.406 0.586-1.406 1.43-0.586h2.016q0-1.688 1.172-2.859t2.813-1.172 2.813 1.172 1.172 2.859v1.969h3q0.422 0 0.727 0.305t0.305 0.703-0.305 0.703-0.727 0.305h-1.969l-0.281 0.047q-0.281 0.047-0.469 0.234-0.281 0.281-0.281 0.703 0 0.656 0.516 0.891 0.234 0.141 0.516 0.141h1.969q1.266 0 2.133-0.891t0.867-2.133-0.867-2.109-2.133-0.867q-0.516 0-0.984 0.141v-0.141q0-1.359-0.563-2.531t-1.5-2.016q0.328-1.875-0.563-3.563t-2.625-2.438q-1.359-0.609-2.813-0.445t-2.648 1.008-1.805 2.203q-0.656 1.453-0.422 3t1.219 2.766h-0.281q-1.641 0-2.813 1.172t-1.172 2.836 1.172 2.836 2.813 1.172l0.281-0.047q0.281-0.094 0.469-0.281 0.234-0.234 0.234-0.68t-0.234-0.727q-0.188-0.188-0.469-0.234zM12 12.047q-1.359 0-2.555 0.563t-2.039 1.547q-0.375-0.703-0.398-1.5t0.305-1.547q0.563-1.359 1.922-1.875t2.719 0.094q0.891 0.422 1.453 1.242t0.609 1.805q-0.984-0.328-2.016-0.328zM13.547 5.672q-0.75-0.328-1.688-0.516l2.531-1.313 0.891 2.906q-0.797-0.656-1.734-1.078zM6.094 6.469q-0.75 0.516-1.313 1.172l0.141-2.813 2.953 0.703q-0.938 0.281-1.781 0.938zM18 11.719q-0.141-0.938-0.422-1.688l2.391 1.5-2.063 2.25q0.188-0.984 0.094-2.063zM3.047 13.313q0.094 0.844 0.375 1.734l-2.344-1.5 2.016-2.25q-0.141 1.031-0.047 2.016zM8.016 24.469q0.094 0.281 0.352 0.422t0.539 0.047l1.594-0.375-0.422 1.547q-0.094 0.281 0.047 0.539t0.445 0.352 0.563-0.070 0.305-0.445l0.422-1.594 1.172 1.172q0.188 0.234 0.492 0.234t0.516-0.211 0.211-0.516-0.188-0.539l-1.172-1.172 1.594-0.375q0.281-0.094 0.422-0.352t0.070-0.539-0.328-0.422-0.539-0.094l-1.594 0.422 0.422-1.547q0.094-0.328-0.070-0.586t-0.445-0.328-0.539 0.070-0.352 0.469l-0.375 1.547-1.172-1.172q-0.188-0.188-0.516-0.188t-0.516 0.211-0.188 0.516 0.188 0.492l1.172 1.172-1.594 0.422q-0.281 0.094-0.422 0.328t-0.094 0.563z"></path>
</svg>
