<!-- Generated by IcoMoon.io -->
<svg version="1.1" xmlns="http://www.w3.org/2000/svg" width="24" height="24" viewBox="0 0 24 24">
<title>weather_windy_variant</title>
<path d="M6 9l0.703 0.047q0.469-1.781 1.945-2.906t3.352-1.125q1.5 0 2.766 0.727t1.992 1.992 0.727 2.766l-0.047 0.938q0.703-0.422 1.547-0.422 1.266 0 2.133 0.867t0.867 2.109-0.867 2.133-2.133 0.891h-12.984q-1.641 0-2.813-1.172t-1.172-2.836 1.172-2.836 2.813-1.172zM6 11.016q-0.844 0-1.43 0.586t-0.586 1.406 0.586 1.406 1.43 0.586h12.984q0.422 0 0.727-0.281t0.305-0.703-0.305-0.727-0.727-0.305h-3.469v-2.484q0-1.453-1.031-2.484t-2.484-1.031-2.484 1.031-1.031 2.484v0.516h-2.484zM18 21h-14.016q-0.422 0-0.703-0.281t-0.281-0.703 0.281-0.727 0.703-0.305h14.016q1.266 0 2.133 0.891t0.867 2.133-0.867 2.109-2.109 0.867-2.133-0.844q-0.281-0.328-0.281-0.727t0.281-0.703 0.703-0.305 0.703 0.305 0.703 0.305 0.703-0.305 0.281-0.727-0.281-0.703-0.703-0.281z"></path>
</svg>
