<!-- Generated by IcoMoon.io -->
<svg version="1.1" xmlns="http://www.w3.org/2000/svg" width="24" height="24" viewBox="0 0 24 24">
<title>weather_hurricane</title>
<path d="M15 9.797q1.406 0.797 2.203 2.203t0.797 3q0 2.813-1.266 4.875-1.031 1.781-2.953 2.953-1.547 0.984-3.563 1.547-1.453 0.375-2.953 0.563l-1.266 0.047q1.875-1.406 3.328-3.281l0.094-0.141q0.188-0.375 0.070-0.773t-0.492-0.586q-1.406-0.797-2.203-2.203t-0.797-3q0-2.813 1.266-4.875 1.031-1.781 2.953-2.953 1.547-0.984 3.563-1.547 1.453-0.375 2.953-0.563l1.266-0.047q-1.875 1.406-3.328 3.281l-0.094 0.141q-0.188 0.375-0.070 0.773t0.492 0.586zM12 17.016q0.844 0 1.43-0.586t0.586-1.43-0.586-1.43-1.43-0.586-1.43 0.586-0.586 1.43 0.586 1.43 1.43 0.586z"></path>
</svg>
