<!-- Generated by IcoMoon.io -->
<svg version="1.1" xmlns="http://www.w3.org/2000/svg" width="24" height="24" viewBox="0 0 24 24">
<title>weather_cloudy_arrow_right</title>
<path d="M6 9.984l0.703 0.094q0.469-1.781 1.945-2.93t3.352-1.148q1.5 0 2.766 0.75t1.992 1.992 0.727 2.742l-0.047 0.984q0.703-0.469 1.547-0.469 1.266 0 2.133 0.867t0.867 2.133-0.867 2.133-2.133 0.867h-12.984q-1.641 0-2.813-1.172t-1.172-2.836 1.172-2.836 2.813-1.172zM6 12q-0.844 0-1.43 0.586t-0.586 1.406 0.586 1.406 1.43 0.586h12.984q0.422 0 0.727-0.281t0.305-0.703-0.305-0.703-0.727-0.281h-3.469v-2.531q0-1.453-1.031-2.461t-2.484-1.008-2.484 1.008-1.031 2.461v0.516h-2.484zM21.984 21.984l-3 3v-1.969h-16.969v-2.016h16.969v-2.016z"></path>
</svg>
