<!-- Generated by IcoMoon.io -->
<svg version="1.1" xmlns="http://www.w3.org/2000/svg" width="24" height="24" viewBox="0 0 24 24">
<title>weather_fog</title>
<path d="M3 18h9.984q0.422 0 0.727 0.281t0.305 0.703-0.305 0.727-0.727 0.305h-9.984q-0.422 0-0.703-0.305t-0.281-0.727 0.281-0.703 0.703-0.281zM15.984 18h5.016q0.422 0 0.703 0.281t0.281 0.703-0.281 0.727-0.703 0.305h-5.016q-0.422 0-0.703-0.305t-0.281-0.727 0.281-0.703 0.703-0.281zM0.984 15q0-0.984 0.398-1.898t1.102-1.617 1.617-1.102 1.898-0.398q0.75-1.781 2.367-2.883t3.633-1.102q1.688 0 3.141 0.797t2.344 2.18 1.031 3.070l0.469-0.047q1.641 0 2.813 1.172t1.219 2.813h-2.016q0-0.797-0.586-1.383t-1.43-0.586h-1.969v-1.031q0-0.984-0.398-1.898t-1.102-1.617-1.617-1.078-1.898-0.375q-1.875 0-3.258 1.195t-1.664 2.977q-0.563-0.188-1.078-0.188-1.266 0-2.133 0.867t-0.867 2.133q0 0.516 0.188 0.984h-2.109zM3 21.984h2.016q0.422 0 0.703 0.305t0.281 0.727-0.281 0.703-0.703 0.281h-2.016q-0.422 0-0.703-0.281t-0.281-0.703 0.281-0.727 0.703-0.305zM8.016 21.984h12.984q0.422 0 0.703 0.305t0.281 0.727-0.281 0.703-0.703 0.281h-12.984q-0.422 0-0.727-0.281t-0.305-0.703 0.305-0.727 0.727-0.305z"></path>
</svg>
