<!-- Generated by IcoMoon.io -->
<svg version="1.1" xmlns="http://www.w3.org/2000/svg" width="24" height="24" viewBox="0 0 24 24">
<title>weather_partly_rainy</title>
<path d="M12.75 7.453q1.734 0.797 2.625 2.484t0.563 3.516q0.938 0.844 1.5 2.039t0.563 2.508v0.188q0.469-0.188 0.984-0.188 1.266 0 2.133 0.867t0.867 2.133-0.867 2.133-2.133 0.867h-1.969l-0.281-0.047q-0.281-0.047-0.469-0.234-0.281-0.281-0.281-0.703 0-0.656 0.516-0.891 0.234-0.141 0.516-0.141h1.969q0.422 0 0.727-0.281t0.305-0.703-0.305-0.703-0.727-0.281h-3v-2.016q0-1.641-1.172-2.813t-2.813-1.172-2.813 1.172-1.172 2.813h-2.016q-0.844 0-1.43 0.586t-0.586 1.406 0.586 1.406 1.43 0.586h0.984q0.281 0 0.516 0.141 0.516 0.234 0.516 0.891 0 0.422-0.281 0.703-0.188 0.188-0.469 0.234l-0.281 0.047h-0.984q-1.641 0-2.813-1.172t-1.172-2.836 1.172-2.836 2.813-1.172h0.281q-0.984-1.172-1.219-2.719t0.422-3q0.609-1.359 1.805-2.227t2.648-1.031 2.813 0.445zM11.953 9.281q-1.359-0.563-2.719-0.047t-1.922 1.828q-0.328 0.75-0.305 1.57t0.398 1.477q0.844-0.984 2.039-1.547t2.555-0.563q1.031 0 2.016 0.328-0.047-0.984-0.609-1.805t-1.453-1.242zM13.547 5.625q-0.844-0.328-1.688-0.516l2.531-1.313 0.891 2.906q-0.797-0.609-1.734-1.078zM6.094 6.422q-0.75 0.516-1.313 1.219l0.141-2.813 2.953 0.656q-0.938 0.328-1.781 0.938zM18 11.719q-0.141-0.938-0.422-1.734l2.391 1.5-2.063 2.25q0.188-0.938 0.094-2.016zM3.047 13.313q0.094 0.844 0.375 1.688l-2.344-1.5 2.016-2.203q-0.141 1.031-0.047 2.016zM12 21.891q0.984 1.547 0.984 2.109 0 0.422-0.281 0.703t-0.703 0.281-0.703-0.281-0.281-0.703q0-0.563 0.984-2.109zM12 18.609q-0.375 0.469-0.797 0.984-0.891 1.125-1.406 2.109-0.797 1.406-0.797 2.297 0 1.266 0.867 2.133t2.133 0.867 2.133-0.867 0.867-2.133q0-0.891-0.797-2.297-0.516-0.984-1.406-2.109z"></path>
</svg>
