<!-- Generated by IcoMoon.io -->
<svg version="1.1" xmlns="http://www.w3.org/2000/svg" width="24" height="24" viewBox="0 0 24 24">
<title>weather_tornado</title>
<path d="M21 8.016h-18q-0.422 0-0.703-0.305t-0.281-0.727 0.281-0.703 0.703-0.281h18q0.422 0 0.703 0.281t0.281 0.703-0.281 0.727-0.703 0.305zM20.016 11.016q0-0.422-0.305-0.727t-0.727-0.305h-13.969q-0.422 0-0.727 0.305t-0.305 0.727 0.305 0.703 0.727 0.281h13.969q0.422 0 0.727-0.281t0.305-0.703zM21 15q0-0.422-0.281-0.703t-0.703-0.281h-10.031q-0.422 0-0.703 0.281t-0.281 0.703 0.281 0.703 0.703 0.281h10.031q0.422 0 0.703-0.281t0.281-0.703zM15.984 18.984q0-0.422-0.281-0.703t-0.703-0.281h-6q-0.422 0-0.703 0.281t-0.281 0.703 0.281 0.727 0.703 0.305h6q0.422 0 0.703-0.305t0.281-0.727zM12.984 23.016q0-0.422-0.281-0.727t-0.703-0.305h-2.016q-0.422 0-0.703 0.305t-0.281 0.727 0.281 0.703 0.703 0.281h2.016q0.422 0 0.703-0.281t0.281-0.703z"></path>
</svg>
