<!-- Generated by IcoMoon.io -->
<svg version="1.1" xmlns="http://www.w3.org/2000/svg" width="24" height="24" viewBox="0 0 24 24">
<title>weather_night</title>
<path d="M17.766 7.078l-2.531 1.969 0.891 3.047-2.625-1.828-2.625 1.828 0.891-3.047-2.531-1.969 3.188-0.094 1.078-3 1.078 3zM21.234 14.016l-1.641 1.219 0.609 2.016-1.688-1.172-1.734 1.172 0.609-2.016-1.641-1.219 2.063-0.047 0.703-1.969 0.656 1.969zM18.984 18.938q0.375-0.047 0.773 0.281t0.516 0.773-0.117 0.82q-0.516 0.75-1.078 1.266-1.922 1.922-4.5 2.602t-5.156 0-4.5-2.602-2.578-4.5 0-5.156 2.578-4.5q0.609-0.609 1.266-1.078 0.375-0.234 0.844-0.094t0.773 0.516 0.258 0.797q-0.188 2.156 0.539 4.266t2.344 3.727 3.727 2.367 4.313 0.516zM17.344 20.953q-2.156-0.094-4.195-0.984t-3.633-2.484-2.484-3.609-0.984-4.172q-1.406 1.547-1.852 3.539t0.117 3.961 2.039 3.445 3.445 2.039 3.984 0.117 3.563-1.852z"></path>
</svg>
