<!-- Generated by IcoMoon.io -->
<svg version="1.1" xmlns="http://www.w3.org/2000/svg" width="24" height="24" viewBox="0 0 24 24">
<title>webcam</title>
<path d="M12 5.016q1.922 0 3.516 0.938t2.531 2.531 0.938 3.516-0.938 3.516-2.531 2.531-3.516 0.938-3.516-0.938-2.531-2.531-0.938-3.516 0.938-3.516 2.531-2.531 3.516-0.938zM12 6.984q-0.984 0-1.898 0.398t-1.617 1.102-1.102 1.617-0.398 1.898q0 1.359 0.68 2.508t1.828 1.828 2.508 0.68 2.508-0.68 1.828-1.828 0.68-2.508q0-0.984-0.398-1.898t-1.102-1.617-1.617-1.102-1.898-0.398zM12 9q1.266 0 2.133 0.867t0.867 2.133-0.867 2.133-2.133 0.867-2.133-0.867-0.867-2.133 0.867-2.133 2.133-0.867zM6 24.984q-0.844 0-1.43-0.586t-0.586-1.383q0-0.609 0.328-1.031l1.781-3.188q1.219 1.031 2.742 1.617t3.164 0.586 3.164-0.586 2.742-1.617l1.781 3.188q0.328 0.422 0.328 1.031 0 0.797-0.586 1.383t-1.43 0.586h-12z"></path>
</svg>
