<!-- Generated by IcoMoon.io -->
<svg version="1.1" xmlns="http://www.w3.org/2000/svg" width="24" height="24" viewBox="0 0 24 24">
<title>webpack</title>
<path d="M21 19.5q0 0.609-0.516 0.891l-7.922 4.406q-0.234 0.188-0.563 0.188t-0.563-0.188l-7.922-4.406q-0.516-0.281-0.516-0.891v-9q0-0.609 0.516-0.891l7.922-4.406q0.234-0.188 0.563-0.188t0.563 0.188l7.922 4.406q0.516 0.281 0.516 0.891v9zM12 7.172l-6.984 3.938v7.781l6.984 3.938 6.984-3.938v-7.781zM12 9.234l4.922 2.813-4.922 2.859-4.922-2.859zM17.016 17.906l-4.031 2.297v-3.563l4.031-2.344v3.609zM11.016 20.203l-4.031-2.297v-3.609l4.031 2.344v3.563z"></path>
</svg>
