<!-- Generated by IcoMoon.io -->
<svg version="1.1" xmlns="http://www.w3.org/2000/svg" width="24" height="24" viewBox="0 0 24 24">
<title>whistle</title>
<path d="M8.484 12q-1.734 0-3.234 0.867t-2.367 2.367-0.867 3.258 0.867 3.258 2.367 2.367 3.234 0.867q1.313 0 2.508-0.492t2.109-1.406 1.406-2.109 0.492-2.461v-1.594l6.984-1.922v-3h-10.969v2.016h-2.016v-2.016h-0.516zM11.016 5.016v4.969h-2.016v-4.969h2.016zM6.328 10.266q-0.984 0.234-1.875 0.75l-2.297-3.141 1.594-1.172zM17.859 7.875l-1.547 2.109h-2.484l2.391-3.281z"></path>
</svg>
