<!-- Generated by IcoMoon.io -->
<svg version="1.1" xmlns="http://www.w3.org/2000/svg" width="24" height="24" viewBox="0 0 24 24">
<title>white_balance_incandescent</title>
<path d="M17.25 21.141l1.781 1.828 1.406-1.453-1.781-1.781zM20.016 15.516h3v-2.016h-3v2.016zM15 9.328v-4.828h-6v4.828q-1.359 0.797-2.18 2.156t-0.82 3 0.797 3.023 2.18 2.18 3.023 0.797 3.023-0.797 2.18-2.18 0.797-3.023-0.82-3-2.18-2.156zM3.984 13.5h-3v2.016h3v-2.016zM11.016 25.453h1.969v-2.953h-1.969v2.953zM3.563 21.516l1.406 1.453 1.781-1.828-1.406-1.406z"></path>
</svg>
