<!-- Generated by IcoMoon.io -->
<svg version="1.1" xmlns="http://www.w3.org/2000/svg" width="24" height="24" viewBox="0 0 24 24">
<title>white_balance_sunny</title>
<path d="M3.563 21.563l1.406 1.406 1.781-1.828-1.406-1.406zM11.016 25.453h1.969v-2.953h-1.969v2.953zM12 8.484q-1.641 0-3.023 0.82t-2.18 2.203-0.797 3 0.797 3 2.18 2.18 3.023 0.797 3.023-0.797 2.18-2.18 0.797-3-0.797-3-2.18-2.203-3.023-0.82zM20.016 15.516h3v-2.016h-3v2.016zM17.25 21.141l1.781 1.828 1.406-1.406-1.781-1.828zM20.438 7.453l-1.406-1.406-1.781 1.781 1.406 1.453zM12.984 3.563h-1.969v2.953h1.969v-2.953zM3.984 13.5h-3v2.016h3v-2.016zM6.75 7.828l-1.781-1.781-1.406 1.406 1.781 1.828z"></path>
</svg>
