<!-- Generated by IcoMoon.io -->
<svg version="1.1" xmlns="http://www.w3.org/2000/svg" width="24" height="24" viewBox="0 0 24 24">
<title>wifi_strength_off_outline</title>
<path d="M3.281 4.453l-1.266 1.266 2.016 2.063q-2.063 0.938-3.656 2.203l11.625 14.531 3.891-4.875 3.328 3.328 1.266-1.266zM12 6q-2.109 0-4.125 0.516l1.688 1.688q1.266-0.188 2.438-0.188 4.688 0 8.719 2.438l-3.938 4.922 1.406 1.406 1.547-1.922q2.719-3.422 3.938-4.875-2.531-1.922-5.531-2.953t-6.141-1.031zM5.578 9.281l8.906 8.906-2.484 3.094-8.719-10.828q1.078-0.656 2.297-1.172z"></path>
</svg>
