<!-- Generated by IcoMoon.io -->
<svg version="1.1" xmlns="http://www.w3.org/2000/svg" width="24" height="24" viewBox="0 0 24 24">
<title>wifi_strength_lock_outline</title>
<path d="M12 6q-3.141 0-6.141 1.031t-5.484 2.953l11.625 14.531 3.516-4.359v-2.672q0-0.375 0.047-0.609l-3.563 4.406-8.719-10.828q4.031-2.438 8.695-2.438t8.742 2.438l-1.875 2.344q0.797-0.281 1.641-0.281 0.563 0 1.078 0.094l0.516-0.656q1.078-1.359 1.594-1.969-2.531-1.922-5.531-2.953t-6.141-1.031zM20.484 15q-1.031 0-1.758 0.727t-0.727 1.758v1.5q-0.375 0-0.68 0.328t-0.305 0.703v3.984q0 0.375 0.305 0.68t0.68 0.305h5.016q0.375 0 0.68-0.305t0.305-0.68v-3.984q0-0.375-0.305-0.703t-0.68-0.328v-1.5q0-1.031-0.727-1.758t-1.805-0.727zM20.484 15.984q0.609 0 1.055 0.469t0.445 1.031v1.5h-3v-1.5q0-0.563 0.469-1.031t1.031-0.469z"></path>
</svg>
