<!-- Generated by IcoMoon.io -->
<svg version="1.1" xmlns="http://www.w3.org/2000/svg" width="24" height="24" viewBox="0 0 24 24">
<title>wifi_star</title>
<path d="M12 9q-2.531 0-4.805 0.773t-4.195 2.227l-1.781-2.391q2.25-1.734 5.016-2.672t5.766-0.938 5.766 0.938 5.016 2.672l-1.781 2.391q-1.922-1.453-4.195-2.227t-4.805-0.773zM12.984 21.984q0-2.063 1.219-3.563-1.406-0.422-2.203-0.422-1.875 0-3.609 1.219l3.609 4.781 0.984-1.406v-0.609zM16.781 16.406q0.328-0.094 1.125-0.328l1.313-1.688q-1.547-1.125-3.398-1.758t-3.82-0.633-3.82 0.633-3.398 1.758l1.828 2.391q1.125-0.844 2.531-1.313t2.859-0.469q2.625 0 4.781 1.406zM16.5 25.594l0.703-2.813-2.203-1.875 2.906-0.188 1.078-2.719 1.125 2.578 2.906 0.234-2.203 1.875 0.703 2.813-2.531-1.406z"></path>
</svg>
