<!-- Generated by IcoMoon.io -->
<svg version="1.1" xmlns="http://www.w3.org/2000/svg" width="24" height="24" viewBox="0 0 24 24">
<title>wind_turbine</title>
<path d="M13.313 14.672l2.906 2.906q0.609-0.609 0.609-1.359 0-0.516-0.328-1.031l-0.281-0.422-1.5-1.547q0.281-0.563 0.281-1.219 0-0.797-0.375-1.453t-0.984-1.031l1.359-4.406q-0.844-0.234-1.5 0.094-0.469 0.234-0.797 0.75l-0.188 0.469-0.844 2.625q-0.891 0.094-1.594 0.68t-0.938 1.477l-4.453 1.406q0.375 1.219 1.5 1.359 0.563 0.094 1.031-0.047l2.063-0.703q0.516 1.172 1.734 1.594v7.172l-0.516 0.094q-0.609 0.141-0.984 0.516-0.516 0.516-0.516 1.406v0.984h6v-0.984l-0.094-0.516q-0.141-0.609-0.516-0.984-0.516-0.516-1.406-0.516v-7.172zM10.5 12q0-0.609 0.445-1.055t1.055-0.445 1.055 0.445 0.445 1.055-0.445 1.055-1.055 0.445-1.055-0.445-0.445-1.055z"></path>
</svg>
