<!-- Generated by IcoMoon.io -->
<svg version="1.1" xmlns="http://www.w3.org/2000/svg" width="24" height="24" viewBox="0 0 24 24">
<title>worker</title>
<path d="M12 18q-2.156 0-4.008 0.539t-2.93 1.453-1.078 1.992v2.016h16.031v-2.016q0-1.078-1.078-1.992t-2.93-1.453-4.008-0.539zM8.016 12q0 1.641 1.172 2.813t2.813 1.172 2.813-1.172 1.172-2.813h-7.969zM11.484 5.016q-0.188 0-0.328 0.141t-0.141 0.328v3h-1.031v-2.484l-0.328 0.188q-0.422 0.234-0.797 0.609-0.469 0.516-0.75 1.125-0.375 0.844-0.375 1.828l-0.188 0.094q-0.234 0.094-0.375 0.328-0.188 0.328-0.188 0.844h10.031q-0.047-0.703-0.422-1.078-0.188-0.141-0.328-0.188v0q0-1.828-1.125-2.953-0.563-0.563-1.125-0.797v0 2.484h-1.031v-3q0-0.188-0.117-0.328t-0.352-0.141h-1.031z"></path>
</svg>
