<!-- Generated by IcoMoon.io -->
<svg version="1.1" xmlns="http://www.w3.org/2000/svg" width="24" height="24" viewBox="0 0 24 24">
<title>wrench_outline</title>
<path d="M22.594 21.984l-9.047-9.094q0.703-1.781 0.328-3.68t-1.781-3.305q-1.734-1.688-4.125-1.875t-4.313 1.219l3.844 3.844-1.406 1.406-3.844-3.797q-1.406 1.922-1.242 4.313t1.898 4.078q1.359 1.406 3.234 1.781t3.656-0.281l9.094 9.094q0.281 0.328 0.703 0.328t0.703-0.328l2.297-2.297q0.328-0.281 0.328-0.68t-0.328-0.727zM19.594 23.578l-9.422-9.469q-0.938 0.703-1.992 0.844t-2.086-0.164-1.758-1.055-1.055-1.641-0.281-1.828l3.094 3.094 4.219-4.266-3.094-3.094q2.016-0.094 3.469 1.313 0.797 0.797 1.102 1.852t0.117 2.109-0.844 1.992l9.422 9.422z"></path>
</svg>
