<!-- Generated by IcoMoon.io -->
<svg version="1.1" xmlns="http://www.w3.org/2000/svg" width="24" height="24" viewBox="0 0 24 24">
<title>youtube</title>
<path d="M9.984 18l5.203-3-5.203-3v6zM21.563 10.172q0.188 0.703 0.281 1.875t0.094 2.109l0.047 0.844q0 3.234-0.422 4.828-0.375 1.359-1.734 1.734-0.703 0.188-2.625 0.281-1.875 0.094-3.609 0.094l-1.594 0.047q-6.234 0-7.828-0.422-1.359-0.375-1.734-1.734-0.188-0.703-0.281-1.875t-0.094-2.109l-0.047-0.844q0-3.234 0.422-4.828 0.375-1.359 1.734-1.734 0.703-0.188 2.625-0.281 1.875-0.094 3.609-0.094l1.594-0.047q6.234 0 7.828 0.422 1.359 0.375 1.734 1.734z"></path>
</svg>
