<!-- Generated by IcoMoon.io -->
<svg version="1.1" xmlns="http://www.w3.org/2000/svg" width="24" height="24" viewBox="0 0 24 24">
<title>youtube_tv</title>
<path d="M2.484 7.5h19.031q0.609 0 1.055 0.422t0.445 1.078v11.484q0 0.656-0.445 1.078t-1.055 0.422h-19.031q-0.609 0-1.055-0.422t-0.445-1.078v-11.484q0-0.656 0.445-1.078t1.055-0.422zM9.703 11.484v6.516l5.719-3.281zM17.25 24h-10.594q-0.234 0-0.375-0.141t-0.141-0.352 0.141-0.352 0.375-0.141h10.688q0.234 0 0.375 0.141t0.141 0.352-0.188 0.352-0.422 0.141z"></path>
</svg>
