<!-- Generated by IcoMoon.io -->
<svg version="1.1" xmlns="http://www.w3.org/2000/svg" width="24" height="24" viewBox="0 0 24 24">
<title>zip_box_outline</title>
<path d="M12 20.016v-2.016h2.016v2.016h-2.016zM14.016 15.984v-1.969h-2.016v1.969h2.016zM14.016 12v-2.016h-2.016v2.016h2.016zM9.984 14.016h2.016v-2.016h-2.016v2.016zM9.984 18h2.016v-2.016h-2.016v2.016zM21 8.016v13.969q0 0.844-0.586 1.43t-1.43 0.586h-13.969q-0.844 0-1.43-0.586t-0.586-1.43v-13.969q0-0.844 0.586-1.43t1.43-0.586h13.969q0.844 0 1.43 0.586t0.586 1.43zM18.984 8.016h-6.984v1.969h-2.016v-1.969h-4.969v13.969h13.969v-13.969z"></path>
</svg>
