<!-- Generated by IcoMoon.io -->
<svg version="1.1" xmlns="http://www.w3.org/2000/svg" width="24" height="24" viewBox="0 0 24 24">
<title>zip_box</title>
<path d="M14.016 20.016h-2.016v-2.016h-2.016v-2.016h2.016v2.016h2.016v2.016zM14.016 12h-2.016v2.016h2.016v1.969h-2.016v-1.969h-2.016v-2.016h2.016v-2.016h-2.016v-1.969h2.016v1.969h2.016v2.016zM18.984 6h-13.969q-0.844 0-1.43 0.586t-0.586 1.43v13.969q0 0.844 0.586 1.43t1.43 0.586h13.969q0.844 0 1.43-0.586t0.586-1.43v-13.969q0-0.844-0.586-1.43t-1.43-0.586z"></path>
</svg>
