<?xml version="1.0" encoding="utf-8"?><svg version="1.1" id="mdi-account-multiple-plus" xmlns="http://www.w3.org/2000/svg" width="24" height="24" viewBox="0 0 24 24"><title>account_multiple_clock</title><path d="M19,17v2H7v-2c0,0,0-4,6-4S19,17,19,17 M16,8c0-1.7-1.3-3-3-3s-3,1.3-3,3s1.3,3,3,3S16,9.7,16,8 M19.2,13.1c1.1,1,1.8,2.4,1.8,3.9v2h3v-2C24,17,24,13.6,19.2,13.1 M18,5c-0.3,0-0.6,0-0.9,0.1c1.2,1.7,1.2,4,0,5.7C17.4,11,17.7,11,18,11c1.7,0,3-1.3,3-3S19.7,5,18,5 M4,7c-2.2,0-4,1.8-4,4s1.8,4,4,4s4-1.8,4-4S6.2,7,4,7z M6.1,13l-2.8-1.6V8.2h1.3v2.5l2.1,1.2L6.1,13z"/></svg>
