<svg xmlns="http://www.w3.org/2000/svg" xml:space="preserve" viewBox="0 0 24 24">
  <title>baseball_cap_outline</title>
  <path d="M18.4 6.2c-.2-.4-.5-.8-1.2-1.1H17c-.7-.1-1.3 0-1.7.3C11.9 5 8.6 7 7.4 10.3l-.6 1.8-4.4 2c-.5.3-1.1.9-1.1 1.8 0 1 .8 1.8 1.9 1.8.7 0 1.5-.5 2-.9 2.2 1.7 3.9 2.1 5 2.1h.2c3.6-.1 5.7-1.5 6.5-2.2l3.6.5h.1c.4 0 .8-.3.9-.7L22 15c1.1-3.3-.5-7-3.6-8.8m-9.2 4.7c1-2.6 3.6-4.1 6.3-3.6h.3c.1 0 .2 0 .3.1.2.2.5.8.6 1.8.2 2.1-.3 4.2-.7 5.3-.7-.3-1.7-.7-2.7-1.1-.1-.1-.3-.1-.4-.2h-.1c-.1-.1-.3-.1-.4-.2h-.1c-.1 0-.2-.1-.3-.1s-.1 0-.2-.1c-.1 0-.2-.1-.3-.1s-.2-.1-.2-.1c-.1 0-.1 0-.2-.1-.3-.1-.5-.2-.7-.2-.5-.1-1.1-.3-1.5-.3zm1.1 6.2c-.7 0-2.3-.2-4.6-2.1-.1 0-.1-.1-.2-.1l2.4-1.1c.4 0 1.2.1 2.2.5.1 0 .2.1.4.1h.2c.1 0 .2.1.3.1s.1 0 .2.1c.1 0 .2.1.3.1s.2.1.3.1.1.1.2.1c.2.1.5.2.8.3.2.1.3.1.5.2l1.5.6c-1.1.5-2.5 1-4.5 1.1m9.9-2.7-.3.8-2-.3c.4-1.3.9-3.6.7-5.9v-.3c1.6 1.5 2.2 3.7 1.6 5.7"/>
</svg>
