<svg xmlns="http://www.w3.org/2000/svg" viewBox="0 0 24 24"><path d="M10.94 12.09a1.06 1.06 0 1 0 .97-1.14 1.06 1.06 0 0 0-.97 1.14m2.6 1.12a2.6 2.6 0 0 1-.96.67l-.01.01a11.2 11.2 0 0 0 1.3 3.03 5 5 0 0 1-.95.38 5 5 0 0 1-.68.14l-.08.01-.1.01-.19.01c-.12 0-.23.03-.37 0a5 5 0 0 1-.71-.07 5 5 0 0 1-.7-.17 5 5 0 0 1-.63-.23 5 5 0 0 1-.53-.32 5 5 0 0 1-.43-.3c-.12-.09-.22-.19-.3-.26l-.25-.25s.05.1.21.28c.08.08.16.19.28.3a5 5 0 0 0 .38.37 5 5 0 0 0 .51.38 5 5 0 0 0 .63.36 5.4 5.4 0 0 0 .72.29 5.5 5.5 0 0 0 .78.18c.14.03.28.04.42.05l.19.02h.2a5.5 5.5 0 0 0 .8-.05 5.6 5.6 0 0 0 1.32-.35q.24.33.51.64l-.03.02-.21.14h-.04c-.03.03.05 0 .04 0h-.02l-.06.04-.14.07-.07.03-.04.02-.01.01h-.01c-.01.01.05-.01.02 0h-.01l-.15.07q-.08.03-.17.07v.01l-.07.02-.09.03a6.5 6.5 0 0 1-1.59.39 6.4 6.4 0 0 1-.94.04h-.12l-.12-.01-.26-.02c-.16-.03-.31-.04-.48-.07a6.6 6.6 0 0 1-1.83-.63c-.15-.07-.29-.14-.42-.22s-.25-.16-.37-.24a7 7 0 0 1-.64-.51 6 6 0 0 1-.5-.49c-.14-.15-.25-.29-.35-.41-.09-.12-.16-.2-.22-.28l-.06-.1.06.11q.06.105.18.3c.08.13.18.27.32.45a7 7 0 0 0 .44.55 7 7 0 0 0 .61.58c.12.1.23.19.36.29s.26.19.4.28a7 7 0 0 0 .9.49 7 7 0 0 0 .99.37c.17.06.35.09.53.13l.27.05.11.02.14.02a7 7 0 0 0 1.04.07 7.4 7.4 0 0 0 1.85-.26l.09-.03.05-.01.06-.02c.06-.02.12-.03.16-.05l.18-.06.17-.06.15-.04.06-.05h.02l.05-.02.01-.01.03-.01.22-.11.28-.14c.19.18.39.34.59.53 0 0 .97 1 1.5.59.5-.39-.08-1.6-.08-1.6a11.2 11.2 0 0 0-4.14-5.47m-3.38-1.64-.01-.01a11.2 11.2 0 0 0-3.24-.45 4.7 4.7 0 0 1 .43-1.72l.04-.08.04-.08.08-.17c.07-.1.12-.21.19-.31a5 5 0 0 1 .45-.58 5 5 0 0 1 .52-.5 5 5 0 0 1 .54-.4A5 5 0 0 1 9.74 7a5 5 0 0 1 .48-.22c.15-.06.28-.09.39-.12.21-.06.34-.08.34-.08s-.13.01-.35.03c-.1.02-.25.03-.41.07a5 5 0 0 0-.52.14 5 5 0 0 0-.59.23 5 5 0 0 0-.63.34 5.5 5.5 0 0 0-.63.45 6 6 0 0 0-.57.57c-.09.09-.17.22-.25.33l-.12.15-.06.08-.06.09a5.5 5.5 0 0 0-.38.71 5.6 5.6 0 0 0-.41 1.37l-.01.02c-.26.02-.53.05-.8.1v-.14l.01-.25v-.05c0-.04-.01.06-.01.05v-.03l.01-.07.01-.15.01-.08v-.04h.01v-.03c0-.01-.01.03-.01.03l.03-.18.02-.18.01-.02v-.01l-.01.02.01-.01v-.01l.01-.04.01-.1a6.5 6.5 0 0 1 .99-2.38l.06-.09.07-.1.16-.21c.1-.12.19-.25.31-.37a6.6 6.6 0 0 1 1.51-1.23c.13-.09.27-.16.4-.22.13-.08.27-.13.4-.19a7 7 0 0 1 .77-.28 7 7 0 0 1 .68-.16c.2-.05.38-.06.53-.08s.27-.02.35-.03l.12-.01h-.12c-.08 0-.2-.01-.35-.01s-.33 0-.54.02a6 6 0 0 0-.71.1 7 7 0 0 0-.82.2c-.14.07-.29.1-.43.16-.15.05-.3.12-.45.19a7 7 0 0 0-.89.5 7 7 0 0 0-.84.64c-.14.12-.27.26-.4.38L5.9 7l-.08.09-.1.1a7 7 0 0 0-.6.85 7.4 7.4 0 0 0-.76 1.71l-.03.09-.01.05-.02.06-.05.18-.04.16-.03.21-.03.13c-.01.02-.01.04-.01.07l-.01.02v.06l-.01.03-.03.25-.04.44c-.26.07-.52.15-.77.24 0 0-1.35.31-1.28.98.08.63 1.41.78 1.41.78a11.2 11.2 0 0 0 6.83-.76 2.6 2.6 0 0 1-.08-1.17m9.54-.73a7 7 0 0 0-.17-1.05c-.03-.17-.1-.34-.15-.52l-.08-.24-.04-.12-.05-.14a7 7 0 0 0-.46-.94 7.4 7.4 0 0 0-1.13-1.48l-.07-.07-.05-.03-.03-.05-.14-.12-.12-.11-.15-.12-.12-.1-.05-.05-.01-.01h-.01l-.04-.03-.03-.02-.21-.14-.27-.19q.1-.43.18-.86s.38-1.34-.25-1.6c-.58-.24-1.34.87-1.34.87a11.2 11.2 0 0 0-2.66 6.33 2.6 2.6 0 0 1 1.07.5A11.2 11.2 0 0 0 15.25 8a4.7 4.7 0 0 1 .83.66 5 5 0 0 1 .45.53l.05.06.05.08.11.17q.09.135.18.3a4.9 4.9 0 0 1 .48 1.36 5 5 0 0 1 .1.67 5 5 0 0 1 0 .61 5 5 0 0 1-.06.52c-.02.15-.05.29-.08.4-.05.21-.09.34-.09.34l.14-.33c.04-.11.09-.23.13-.37a5 5 0 0 0 .13-.54 5 5 0 0 0 .08-.63 5 5 0 0 0 .01-.72 5.4 5.4 0 0 0-.33-1.54c-.05-.13-.11-.26-.16-.38L17.18 9l-.04-.07-.05-.1a5.5 5.5 0 0 0-1.42-1.67c.12-.26.22-.51.33-.78l.03.03.22.12.03.01v.01h.01c.03.02-.05-.05-.04-.02h.01l.01.01.06.04.12.08.05.05.06.02.01.01h.01l-.02-.01h.01l.14.11.14.1.02.02-.01-.01.01.01.04.04.09.05a6.5 6.5 0 0 1 1.6 2l.05.1.06.12.11.23c.05.15.12.29.18.45a7 7 0 0 1 .24.95 7 7 0 0 1 .11.96c.01.14.01.31 0 .46 0 .18-.01.3-.02.45a7 7 0 0 1-.13.81 6 6 0 0 1-.2.67c-.04.2-.11.37-.16.51-.06.14-.11.24-.14.31l-.06.12.07-.11c.04-.08.1-.17.17-.3.07-.14.16-.28.24-.49a7 7 0 0 0 .25-.67 7 7 0 0 0 .22-.81c.02-.15.05-.31.07-.46.02-.16.04-.32.04-.48a7 7 0 0 0-.01-1.03"/></svg>