<svg xmlns="http://www.w3.org/2000/svg" viewBox="0 0 24 24">
  <title>crisis-alert</title>
  <path d="M12 22c-1.4 0-2.7-.2-3.9-.7s-2.3-1.1-3.2-2c-.9-.8-1.6-1.8-2.1-2.9S2 14.1 2 12.8c0-1.8.5-3.4 1.5-4.9S6 5.2 7.8 4.5c0 .2 0 .5.1.7 0 .2.1.5.2.7-1.5.7-2.6 1.7-3.4 2.9s-1.2 2.6-1.2 4c0 2.2.8 4 2.5 5.5s3.7 2.3 6 2.3 4.4-.8 6-2.3c1.7-1.5 2.5-3.4 2.5-5.5 0-1.5-.4-2.8-1.2-4S17.4 6.6 16 5.9c.1-.3.1-.5.2-.7 0-.2.1-.4.1-.7 1.8.8 3.2 1.9 4.2 3.4S22 11 22 12.8c0 1.3-.3 2.5-.8 3.6s-1.2 2.1-2.1 2.9-2 1.5-3.2 2-2.5.7-3.9.7m0-3.7c-1.7 0-3.1-.5-4.2-1.6Q6 15.05 6 12.8c0-.9.2-1.8.7-2.6s1.1-1.5 2-2c.1.2.1.4.2.6s.2.5.3.8c-.6.4-1 .9-1.3 1.4-.3.6-.4 1.1-.4 1.8 0 1.1.4 2.1 1.3 2.9s1.9 1.2 3.2 1.2 2.3-.4 3.2-1.2 1.3-1.8 1.3-2.9c0-.6-.1-1.2-.4-1.8s-.7-1-1.2-1.4c0-.3.1-.6.2-.8s.1-.4.2-.6c.8.5 1.5 1.2 2 2s.7 1.7.7 2.6q0 2.25-1.8 3.9c-1.1 1.1-2.5 1.6-4.2 1.6m-.8-8.9c-.6-1.7-1-2.9-1.2-3.5-.2-.7-.2-1.3-.2-1.8q0-.9.6-1.5C11 2 11.4 2 12 2s1.2.2 1.6.6q.6.6.6 1.5c0 .9-.1 1.1-.3 1.8-.2.6-.6 1.8-1.2 3.5zm.8 5c-.5 0-.9-.2-1.2-.5s-.5-.7-.5-1.1.2-.8.5-1.1.8-.5 1.2-.5.9.2 1.2.5.5.7.5 1.1-.2.8-.5 1.1c-.3.4-.7.5-1.2.5"/>
</svg>
