<svg xmlns="http://www.w3.org/2000/svg" viewBox="0 0 24 24"><title>database_filter</title><path d="M19 13c-2.2 0-4.1 1.2-5.1 2.9-.6.1-1.3.1-1.9.1-4.4 0-8-1.8-8-4V9c0 2.2 3.6 4 8 4s8-1.8 8-4v3c0 .4-.1.7-.3 1.1-.2-.1-.5-.1-.7-.1m-7-2c4.4 0 8-1.8 8-4s-3.6-4-8-4-8 1.8-8 4 3.6 4 8 4m1.1 7H12c-4.4 0-8-1.8-8-4v3c0 2.2 3.6 4 8 4 .5 0 .9 0 1.3-.1-.2-.6-.3-1.2-.3-1.9 0-.4 0-.7.1-1m6.6 1.5v3.2c0 .1 0 .2-.1.3-.1.2-.4.2-.5 0l-.8-.8c-.1-.1-.1-.2-.1-.3v-2.3l-2.2-3c0-.2 0-.5.1-.6s.1-.1.2-.1h5.2c.1 0 .2 0 .2.1.2.1.2.4.1.6z"/></svg>