<svg xmlns="http://www.w3.org/2000/svg" viewBox="0 0 24 24"><defs><style>.cls-1{fill:none}</style></defs><title>hide_panel_left</title><path d="M0 0h24v24H0Z" class="cls-1"/><path d="M0 0h24v24H0Z" class="cls-1"/><path d="M0 0h24v24H0Z" class="cls-1"/><path d="M3 4.98h3.11v14.04H3zM8.11 19H21V5H8.11Zm8.24-10.72-2.58 2.59h5.67v2h-5.67l2.58 2.59-1.41 1.41-5-5 5-5Z" class="cls-1"/><path d="m14.94 16.87 1.41-1.41-2.58-2.59h5.67v-2h-5.67l2.58-2.59-1.41-1.41-5 5z"/><path d="M21 3H3a2 2 0 0 0-2 2v14a2 2 0 0 0 2 2h18a2 2 0 0 0 2-2V5a2 2 0 0 0-2-2M3 5h3.11v14H3Zm18 14H8.11V5H21Z"/></svg>