<svg xmlns="http://www.w3.org/2000/svg" viewBox="0 0 24 24"><title>live_chat_outline</title><path d="M15.55 3.142v9.5H4.456L2.86 14.238V3.142zm1.095-1.095a1.5 1.5 0 0 0-1.094-.464H2.859q-.631 0-1.095.465-.464.464-.464 1.095v14.25l3.155-3.155H15.55q.63 0 1.094-.483.464-.482.464-1.113v-9.5q0-.63-.464-1.095M14.228 7v1.955h-1.955V7zm-3.91 0v1.955H8.41V7zM6.456 7v1.955H4.5V7zm15.233.266a.96.96 0 0 0-.703-.281v-.001H18.97v9H5.984V18q0 .423.281.703a.95.95 0 0 0 .704.282h11.016l3.985 3.985v-15a.95.95 0 0 0-.282-.704"/></svg>