<svg xmlns="http://www.w3.org/2000/svg" viewBox="0 0 24 24">
  <path d="M13 2.03v2.02c4.39.54 7.5 4.53 6.96 8.92-.46 3.64-3.32 6.53-6.96 6.96v2c5.5-.55 9.5-5.43 8.95-10.93-.45-4.75-4.22-8.5-8.95-8.97m-2 .03c-1.95.19-3.81.94-5.33 2.2L7.1 5.74c1.12-.9 2.47-1.48 3.9-1.68zM4.26 5.67A9.9 9.9 0 0 0 2.05 11h2c.19-1.42.75-2.77 1.64-3.9zM2.06 13c.2 1.96.97 3.81 2.21 5.33l1.42-1.43A8 8 0 0 1 4.06 13zm5.04 5.37-1.43 1.37A10 10 0 0 0 11 22v-2a8 8 0 0 1-3.9-1.63M20 4h24M13 18h-2v-2h2zm0-3h-2c0-3.25 3-3 3-5 0-1.1-.9-2-2-2s-2 .9-2 2H8c0-2.21 1.79-4 4-4s4 1.79 4 4c0 2.5-3 2.75-3 5"/>
</svg>
