<svg xmlns="http://www.w3.org/2000/svg" fill="none" viewBox="0 0 24 24">
  <path d="M2 12a9 9 0 0 0 9 9c2.39 0 4.68-.94 6.4-2.6l-1.5-1.5A6.7 6.7 0 0 1 11 19c-6.24 0-9.36-7.54-4.95-11.95S18 5.77 18 12h-3l4 4h.1l3.9-4h-3a9 9 0 1 0-18 0"/>
  <path d="m10.73 7.5-.24 2.25h1.5l.24-2.25h1.5l-.24 2.25h1.267v1.5h-1.425l-.15 1.5h1.575v1.5h-1.733l-.24 2.25h-1.5l.24-2.25h-1.5l-.24 2.25h-1.5l.24-2.25H7.256v-1.5h1.426l.15-1.5H7.256v-1.5H8.99l.24-2.25zm-.398 3.75-.15 1.5h1.5l.15-1.5z" clip-rule="evenodd"/>
</svg>
