<svg xmlns="http://www.w3.org/2000/svg" height="24" width="24" viewBox="0 0 24 24">
  <defs>
    <style>
      .cls-1 {
        fill: none;
      }
    </style>
  </defs>
  <title>show_panel_left</title>
  <path class="cls-1" d="M0,0H24V24H0Z" />
  <path class="cls-1" d="M0,0H24V24H0Z" />
  <path class="cls-1" d="M0,0H24V24H0Z" />
  <rect class="cls-1" x="3" y="4.98" width="3.11" height="14.04" />
  <path class="cls-1" d="M8.11,19H21V5H8.11ZM13,8.28l1.41-1.41,5,5-5,5L13,15.46l2.58-2.59H9.94v-2h5.67Z" />
  <polygon points="9.94 12.87 15.61 12.87 13.03 15.46 14.44 16.87 19.44 11.87 14.44 6.87 13.03 8.28 15.61 10.87 9.94 10.87 9.94 12.87" />
  <path d="M21,3H3A2,2,0,0,0,1,5V19a2,2,0,0,0,2,2H21a2,2,0,0,0,2-2V5A2,2,0,0,0,21,3ZM3,5H6.11V19H3ZM21,19H8.11V5H21Z" />
</svg>