<svg xmlns="http://www.w3.org/2000/svg" viewBox="0 0 24 24"><defs><style>.cls-1{fill:none}</style></defs><title>show_panel_left</title><path d="M0 0h24v24H0Z" class="cls-1"/><path d="M0 0h24v24H0Z" class="cls-1"/><path d="M0 0h24v24H0Z" class="cls-1"/><path d="M3 4.98h3.11v14.04H3zM8.11 19H21V5H8.11ZM13 8.28l1.41-1.41 5 5-5 5L13 15.46l2.58-2.59H9.94v-2h5.67Z" class="cls-1"/><path d="M9.94 12.87h5.67l-2.58 2.59 1.41 1.41 5-5-5-5-1.41 1.41 2.58 2.59H9.94z"/><path d="M21 3H3a2 2 0 0 0-2 2v14a2 2 0 0 0 2 2h18a2 2 0 0 0 2-2V5a2 2 0 0 0-2-2M3 5h3.11v14H3Zm18 14H8.11V5H21Z"/></svg>