<svg xmlns="http://www.w3.org/2000/svg" viewBox="0 0 24 24"><title>town_hall_citizen_connection</title><path d="M0 0h24v24H0z" style="fill:none"/><path d="M20 21.4v1h-7.2v-1s0-2 3.6-2 3.6 2 3.6 2m-1.8-4.9c0-1-.8-1.8-1.8-1.8s-1.8.8-1.8 1.8.8 1.8 1.8 1.8 1.8-.8 1.8-1.8m1.8 2.8c.6.5 1 1.2 1.1 2v1h2v-1c0 .1 0-1.8-3.1-2m-.5-4.6c-.4 0-.7.1-1 .3.6.9.6 2.1 0 3 .3.2.6.3 1 .3 1 0 1.8-.8 1.8-1.8s-.8-1.8-1.8-1.8m-8.9-8.3c-.4-1.6-1.8-2.8-3.5-2.8S4 4.8 3.6 6.4H1.3v5.8h4.4V9.5c0-.8.6-1.4 1.4-1.4s1.4.6 1.4 1.4v2.7H13V6.4zm-.4-4.2-1.7-.7L6.9.8v2.8l1.6-.7zM4.1 13.9v7h7v-2h-5v-5z"/></svg>