<svg xmlns="http://www.w3.org/2000/svg" viewBox="0 0 24 24">
  <title>Tyler Technologies, Inc. Logo</title>
  <path d="M0 0h24v24H0z" style="fill:none"/>
  <path d="M4.5 7.9c.8 0 1.5.7 1.5 1.5s-.7 1.5-1.5 1.5S3 10.2 3 9.4s.7-1.5 1.5-1.5M7 10.4c.8 0 1.5.7 1.5 1.5s-.7 1.5-1.5 1.5-1.5-.7-1.5-1.5.7-1.5 1.5-1.5m2.5 2.5c.8 0 1.5.7 1.5 1.5s-.7 1.5-1.5 1.5S8 15.2 8 14.4s.7-1.5 1.5-1.5m0 5c.8 0 1.5.7 1.5 1.5s-.7 1.5-1.5 1.5S8 20.2 8 19.4s.7-1.5 1.5-1.5m2.5-2.5c.8 0 1.5.7 1.5 1.5s-.7 1.5-1.5 1.5-1.5-.7-1.5-1.5.7-1.5 1.5-1.5m2.5-2.5c.8 0 1.5.7 1.5 1.5s-.7 1.5-1.5 1.5-1.5-.7-1.5-1.5.7-1.5 1.5-1.5m-5-5c.8 0 1.5.7 1.5 1.5s-.7 1.5-1.5 1.5S8 10.2 8 9.4s.7-1.5 1.5-1.5M12 5.4c.8 0 1.5.7 1.5 1.5s-.7 1.5-1.5 1.5-1.5-.7-1.5-1.5.7-1.5 1.5-1.5m2.5 2.5c.8 0 1.5.7 1.5 1.5s-.7 1.5-1.5 1.5-1.5-.7-1.5-1.5.7-1.5 1.5-1.5m2.5 2.5c.8 0 1.5.7 1.5 1.5s-.7 1.5-1.5 1.5-1.5-.7-1.5-1.5.7-1.5 1.5-1.5m2.5 2.5c.8 0 1.5.7 1.5 1.5s-.7 1.5-1.5 1.5-1.5-.7-1.5-1.5.7-1.5 1.5-1.5m-5-10c.8 0 1.5.7 1.5 1.5s-.7 1.5-1.5 1.5S13 5.2 13 4.4s.7-1.5 1.5-1.5m3 13c0 .3-.3.6-.6.6s-.6-.3-.6-.6.3-.6.6-.6.6.3.6.6m-.1 0c0-.3-.2-.5-.5-.5s-.5.2-.5.5.2.5.5.5.5-.2.5-.5m-.6.4-.1-.7h.3c.2 0 .2.1.2.2s-.1.2-.2.2l.2.3h-.1l-.2-.3h-.1zm.1-.4c.1 0 .2 0 .2-.1s-.1-.1-.2-.1h-.2v.2z"/>
</svg>
