<svg xmlns="http://www.w3.org/2000/svg" x="0px" y="0px" viewBox="0 0 24 24" style="enable-background:new 0 0 24 24;">
<title>add_box_dotted</title>
<path class="st0" d="M0,0h24v24H0V0z" fill="none"/>
<polygon points="11,17 13,17 13,13 17,13 17,11 13,11 13,7 11,7 11,11 7,11 7,13 11,13 "/>
<g>
<rect x="3" y="7" width="2" height="2"/>
<rect x="3" y="11" width="2" height="2"/>
<path d="M5,3C3.9,3,3,3.9,3,5h2V3z"/>
<rect x="11" y="3" width="2" height="2"/>
<rect x="15" y="3" width="2" height="2"/>
<rect x="7" y="3" width="2" height="2"/>
<path d="M21,5c0-1.1-0.9-2-2-2v2H21z"/>
<rect x="3" y="15" width="2" height="2"/>
<rect x="11" y="19" width="2" height="2"/>
<rect x="19" y="15" width="2" height="2"/>
<rect x="19" y="11" width="2" height="2"/>
<rect x="19" y="7" width="2" height="2"/>
<rect x="15" y="19" width="2" height="2"/>
<path d="M19,21c1.1,0,2-0.9,2-2h-2V21z"/>
<rect x="7" y="19" width="2" height="2"/>
<path d="M3,19c0,1.1,0.9,2,2,2v-2H3z"/>
</g>
</svg>
