<svg xmlns="http://www.w3.org/2000/svg" version="1.1" width="24" height="24" viewBox="0 0 24 24">
  <style>.st1{fill:none;stroke:#000;stroke-width:2;stroke-linecap:round;stroke-linejoin:round;stroke-miterlimit:10}</style>
  <path d="M0 0h24v24H0V0z" style="fill:none"/>
  <path d="M7.7 12.8 2.8 15s1.2-.2 2.3.7c.6.5 2.9 2.4 5.2 2.3 4.3-.1 6.2-2.3 6.2-2.3s-4.7-2-6.2-2.4c-1.4-.5-2.6-.5-2.6-.5z" class="st1"/>
  <path d="M2.8 15s-.6.3-.6.9c0 .5.4.9.9.9.8 0 1.9-1.1 1.9-1.1" class="st1"/>
  <path d="M7.7 12.8 2.8 15s1.2-.2 2.3.7c.6.5 2.9 2.4 5.2 2.3 4.3-.1 6.2-2.3 6.2-2.3s-4.7-2-6.2-2.4c-1.4-.5-2.6-.5-2.6-.5zM16.5 6.5c.1 0 .1 0 .2.1h.1c.3.1.5.2.7.3.1-.4-.2-.7-.7-.9-.5-.1-.9 0-1.1.3.3.1.5.2.8.2z" class="st1"/>
  <path d="M16.7 6.6s.9.8 1 2.5c.3 3.3-1 6.6-1 6.6" class="st1"/>
  <path d="M17.6 6.9c-.2-.1-.4-.2-.6-.2 0 0 0 0 0 0-.1 0-.1 0-.2-.1h-.1c-.1 0-.2-.1-.3-.1-.1 0-.2-.1-.3-.1 0 0 0 0 0 0h-.2s0 0 0 0h-.2 0c-3.2-.6-6.3 1.2-7.4 4.2h0l-.7 2.2s1.2 0 2.7.5c1.5.4 6.2 2.4 6.2 2.4l4.1.6.5-1.6h0c1-3.1-.6-6.4-3.5-7.8z" class="st1"/>
</svg>