<svg xmlns="http://www.w3.org/2000/svg" viewBox="0 0 480.5 423.03" >
  <title>Forge design system logo</title>
  <g id="logo">
    <path d="M463.68,39H283.49A26,26,0,0,0,261,52l-39.38,68.2a26,26,0,0,0,22.55,39.05H424.3a26,26,0,0,0,22.55-13L486.22,78A26,26,0,0,0,463.68,39Z" transform="translate(-9.25 -38.98)" />
    <path d="M377,189.18H196.77a26,26,0,0,0-22.54,13l-37.37,64.72a26,26,0,0,0,0,26L227,449A26,26,0,0,0,272,449L399.51,228.23A26,26,0,0,0,377,189.18Z" transform="translate(-9.25 -38.98)" />
    <path d="M211.35,78A26,26,0,0,0,188.81,39H35.32A26,26,0,0,0,12.78,78L77,189.18,89.52,211a26,26,0,0,0,45.09,0Z" transform="translate(-9.25 -38.98)" />
  </g>
</svg>