<svg id="Layer_5" data-name="Layer 5" xmlns="http://www.w3.org/2000/svg" viewBox="0 0 24 24"><defs><style>.cls-1{fill:none;}</style></defs><path class="cls-1" d="M0,0H24V24H0Z"/><path class="cls-1" d="M0,0H24V24H0Z"/><path class="cls-1" d="M0,0H24V24H0Z"/><path class="cls-1" d="M15.89,5H3V19H15.89ZM7.65,15.46l2.58-2.59H4.56v-2h5.67L7.65,8.28,9.06,6.87l5,5-5,5Z"/><rect class="cls-1" x="17.89" y="4.98" width="3.11" height="14.04"/><polygon points="9.06 6.87 7.65 8.28 10.23 10.87 4.56 10.87 4.56 12.87 10.23 12.87 7.65 15.46 9.06 16.87 14.06 11.87 9.06 6.87"/><path d="M21,3H3A2,2,0,0,0,1,5V19a2,2,0,0,0,2,2H21a2,2,0,0,0,2-2V5A2,2,0,0,0,21,3ZM3,5H15.89V19H3ZM21,19H17.89V5H21Z"/></svg>