<svg width="24" height="24" viewBox="0 0 24 24" fill="none" xmlns="http://www.w3.org/2000/svg">
<title>live_chat_outline</title>
<path fill-rule="evenodd" clip-rule="evenodd" d="M15.5506 3.14191V12.6419H4.45519L2.85919 14.2379V3.14191H15.5506ZM16.6455 2.04703C16.3363 1.73789 15.9714 1.58331 15.5506 1.58331L15.55 1.58391H2.8586C2.43783 1.58391 2.07287 1.73848 1.76372 2.04763C1.45458 2.35677 1.3 2.72173 1.3 3.1425V17.3925L4.4546 14.2379H15.5506C15.9714 14.2375 16.3363 14.0766 16.6455 13.7552C16.9546 13.4338 17.1092 13.0627 17.1092 12.6419V3.14191C17.1092 2.72114 16.9546 2.35618 16.6455 2.04703ZM14.228 7.00002V8.95492H12.2731V7.00002H14.228ZM10.3189 7.00002V8.95492H8.40982V7.00002H10.3189ZM6.45491 7.00002V8.95492H4.5V7.00002H6.45491ZM21.6883 7.26601C21.5008 7.07851 21.2663 6.98476 20.9847 6.98476V6.98401H18.9688V15.984H5.984V18C5.984 18.2815 6.07775 18.516 6.26525 18.7035C6.45275 18.891 6.68725 18.9848 6.96875 18.9848H17.9847L21.9695 22.9695V7.96951C21.9695 7.68801 21.8758 7.45351 21.6883 7.26601Z" fill="black" fill-opacity="0.54"/>
</svg>
