<svg id="Layer_5" data-name="Layer 5" xmlns="http://www.w3.org/2000/svg" viewBox="0 0 24 24"><defs><style>.cls-1{fill:none;}</style></defs><path class="cls-1" d="M0,0H24V24H0Z"/><path class="cls-1" d="M0,0H24V24H0Z"/><rect class="cls-1" x="17.89" y="4.98" width="3.11" height="14.04"/><path class="cls-1" d="M15.89,5H3V19H15.89ZM11,15.46,9.56,16.87l-5-5,5-5L11,8.28,8.39,10.87h5.67v2H8.39Z"/><polygon points="14.06 10.87 8.39 10.87 10.97 8.28 9.56 6.87 4.56 11.87 9.56 16.87 10.97 15.46 8.39 12.87 14.06 12.87 14.06 10.87"/><path d="M21,3H3A2,2,0,0,0,1,5V19a2,2,0,0,0,2,2H21a2,2,0,0,0,2-2V5A2,2,0,0,0,21,3ZM3,5H15.89V19H3ZM21,19H17.89V5H21Z"/></svg>