<svg version="1.1" xmlns="http://www.w3.org/2000/svg" height="24" width="24" viewBox="0 0 24 24">
  <title>town_hall_citizen</title>
  <polygon points="15.1,4.3 12.7,3.3 10.3,2.2 10.3,4.3 10.3,6.4 12.7,5.4 "/>
  <path d="M15.9,17.1c-0.5-0.6-0.7-1.2-0.7-1.9c0-1.6,1.4-3.1,3-3.1c0.3,0,0.6,0.1,0.9,0.2v-1.8h-3.4c-0.5-2.3-2.6-4.1-5.2-4.1 c-2.5,0-4.6,1.8-5.1,4.1H2v8.6h6.7v-3.7c0-1.1,0.9-2,2-2c1.1,0,2,0.9,2,2l0.1,3.7h0.9C13.9,18.4,14.6,17.5,15.9,17.1z"/>
  <path d="M21.9,19.9v1h-7.2v-1c0,0,0-2,3.6-2S21.9,19.9,21.9,19.9 M20.1,15.1c0-1-0.8-1.8-1.8-1.8s-1.8,0.8-1.8,1.8s0.8,1.8,1.8,1.8 S20.1,16.1,20.1,15.1"/>
</svg>
