<svg version="1.1" xmlns="http://www.w3.org/2000/svg" height="24" width="24" viewBox="0 0 24 24">
  <defs>
    <style type="text/css">
      .st0 { fill: none; }
    </style>
  </defs>
  <title>town_hall_citizen_connection</title>
  <path class="st0" d="M0,0h24v24H0V0z"/>
  <path d="M20,21.4v1h-7.2v-1c0,0,0-2,3.6-2S20,21.4,20,21.4 M18.2,16.5c0-1-0.8-1.8-1.8-1.8s-1.8,0.8-1.8,1.8s0.8,1.8,1.8,1.8 S18.2,17.5,18.2,16.5 M20,19.3c0.6,0.5,1,1.2,1.1,2v1h2v-1C23.1,21.4,23.1,19.5,20,19.3 M19.5,14.7c-0.4,0-0.7,0.1-1,0.3 c0.6,0.9,0.6,2.1,0,3c0.3,0.2,0.6,0.3,1,0.3c1,0,1.8-0.8,1.8-1.8C21.3,15.5,20.5,14.7,19.5,14.7z"/>
  <g>
    <path d="M10.6,6.4c-0.4-1.6-1.8-2.8-3.5-2.8S4,4.8,3.6,6.4H1.3v5.8h4.4V9.5c0-0.8,0.6-1.4,1.4-1.4c0.8,0,1.4,0.6,1.4,1.4v2.7H13 V6.4H10.6z"/>
    <polygon points="10.2,2.2 8.5,1.5 6.9,0.8 6.9,2.2 6.9,3.6 8.5,2.9"/>
  </g>
  <polyline points="4.1,13.9 4.1,18.9 4.1,20.9 11.1,20.9 11.1,18.9 6.1,18.9 6.1,13.9 4.1,13.9 "/>
</svg>
