<svg xmlns="http://www.w3.org/2000/svg" viewBox="0 0 158.86 158.86">
  <title>Tyler Technologies, Inc. Logo</title>
  <path d="M14.29,45.49a13,13,0,1,1-13,13,13,13,0,0,1,13-13" transform="translate(-1.28 -1.21)" />
  <path d="M36.43,67.63a13,13,0,1,1-13,13,13,13,0,0,1,13-13" transform="translate(-1.28 -1.21)" />
  <path d="M58.57,89.77a13,13,0,1,1-13,13,13,13,0,0,1,13-13" transform="translate(-1.28 -1.21)" />
  <path d="M58.57,134.06a13,13,0,1,1-13,13,13,13,0,0,1,13-13" transform="translate(-1.28 -1.21)" />
  <path d="M80.71,111.92a13,13,0,1,1-13,13,13,13,0,0,1,13-13" transform="translate(-1.28 -1.21)" />
  <path d="M102.85,89.77a13,13,0,1,1-13,13,13,13,0,0,1,13-13" transform="translate(-1.28 -1.21)" />
  <path d="M58.57,45.49a13,13,0,1,1-13,13,13,13,0,0,1,13-13" transform="translate(-1.28 -1.21)" />
  <path d="M80.71,23.35a13,13,0,1,1-13,13,13,13,0,0,1,13-13" transform="translate(-1.28 -1.21)" />
  <path d="M102.85,45.49a13,13,0,1,1-13,13,13,13,0,0,1,13-13" transform="translate(-1.28 -1.21)" />
  <path d="M125,67.63a13,13,0,1,1-13,13,13,13,0,0,1,13-13" transform="translate(-1.28 -1.21)" />
  <path d="M147.14,89.77a13,13,0,1,1-13,13,13,13,0,0,1,13-13" transform="translate(-1.28 -1.21)" />
  <path d="M102.85,1.21a13,13,0,1,1-13,13,13,13,0,0,1,13-13" transform="translate(-1.28 -1.21)" />
  <path d="M129.43,116.3a5.2,5.2,0,1,1-5.2-5.19A5.21,5.21,0,0,1,129.43,116.3Zm-.85,0a4.36,4.36,0,1,0-4.35,4.49A4.35,4.35,0,0,0,128.58,116.3Zm-5.44,3.09h-.84v-6.17h2.37c1.38,0,2,.6,2,1.7a1.66,1.66,0,0,1-1.43,1.73l1.72,2.74H126l-1.68-2.74h-1.19Zm1-3.44c.81,0,1.72,0,1.72-1,0-.87-.7-1-1.34-1h-1.35v2Z" transform="translate(-1.28 -1.21)" />
</svg>